<svg width="19" height="20" viewBox="0 0 19 20" fill="none" xmlns="http://www.w3.org/2000/svg">
<path d="M13.2909 0.998169H5.06595C3.72311 0.999757 2.43576 1.53375 1.48624 2.48328C0.536709 3.4328 0.00259498 4.72028 0.00100708 6.06311V14.288C0.0023308 15.6309 0.536285 16.9185 1.48587 17.868C2.43546 18.8176 3.72303 19.3518 5.06595 19.3531H13.2909C14.6338 19.3516 15.9212 18.8173 16.8708 17.8678C17.8203 16.9183 18.3544 15.6308 18.356 14.288V6.06311C18.3544 4.72028 17.8203 3.4328 16.8708 2.48328C15.9212 1.53375 14.6338 0.999757 13.2909 0.998169ZM16.7279 14.288C16.7271 15.1992 16.3648 16.0729 15.7204 16.7172C15.0759 17.3614 14.2021 17.7235 13.2909 17.724H5.06595C4.15491 17.7232 3.28144 17.3611 2.63724 16.7169C1.99303 16.0727 1.63071 15.199 1.62991 14.288V6.06311C1.63097 5.15215 1.99334 4.27879 2.63748 3.63464C3.28163 2.9905 4.15499 2.62813 5.06595 2.62708H13.2909C14.202 2.62813 15.0755 2.99053 15.7198 3.63464C16.3641 4.27876 16.7266 5.15206 16.7279 6.06311V14.288Z" fill="#009C73"/>
<path d="M9.17799 5.44604C8.24248 5.44624 7.32804 5.72375 6.5503 6.24365C5.77257 6.76356 5.16642 7.50257 4.80861 8.36694C4.45079 9.23131 4.35735 10.1824 4.54005 11.0999C4.72275 12.0173 5.17345 12.8599 5.83509 13.5212C6.49674 14.1826 7.33964 14.6331 8.25721 14.8154C9.17478 14.9977 10.1258 14.9038 10.99 14.5457C11.8542 14.1875 12.5929 13.5809 13.1124 12.803C13.632 12.025 13.9091 11.1106 13.9089 10.175C13.9071 8.92106 13.408 7.71904 12.5211 6.83252C11.6342 5.946 10.432 5.44737 9.17799 5.44604ZM9.17799 13.2761C8.56487 13.2761 7.96549 13.0943 7.4557 12.7537C6.94591 12.413 6.54861 11.9288 6.31398 11.3623C6.07934 10.7959 6.01797 10.1726 6.13758 9.57129C6.2572 8.96995 6.55243 8.41743 6.98597 7.98389C7.41952 7.55034 7.97191 7.25511 8.57325 7.1355C9.17459 7.01588 9.79782 7.07738 10.3643 7.31201C10.9307 7.54664 11.4149 7.94407 11.7555 8.45386C12.0961 8.96365 12.278 9.5629 12.278 10.176C12.278 10.9982 11.9514 11.7868 11.37 12.3682C10.7886 12.9495 10.0002 13.2761 9.17799 13.2761Z" fill="#009C73"/>
<path d="M14.106 4.06506C13.8301 4.06549 13.5627 4.16167 13.3497 4.33704C13.1366 4.5124 12.9909 4.75626 12.9374 5.02698C12.8839 5.2977 12.926 5.57844 13.0563 5.82166C13.1867 6.06487 13.3973 6.25538 13.6524 6.36072C13.9074 6.46606 14.1911 6.47988 14.4551 6.39954C14.7191 6.3192 14.9471 6.14961 15.1003 5.92004C15.2534 5.69048 15.3222 5.41511 15.295 5.1405C15.2677 4.8659 15.1462 4.60922 14.951 4.41418C14.7264 4.19091 14.4227 4.06534 14.106 4.06506Z" fill="#009C73"/>
</svg>
