<svg width="64" height="65" viewBox="0 0 64 65" fill="none" xmlns="http://www.w3.org/2000/svg">
<g filter="url(#filter0_d_55_1806)">
<path d="M55.582 3.93896H7.99997C6.8954 3.93896 5.99997 4.8344 5.99997 5.93896V53.521C5.99997 54.6255 6.8954 55.521 7.99997 55.521H55.582C56.6865 55.521 57.582 54.6255 57.582 53.521V5.93896C57.582 4.8344 56.6865 3.93896 55.582 3.93896Z" fill="white"/>
</g>
<path d="M49.269 44.1979V44.2779C49.2557 44.3251 49.2503 44.3741 49.253 44.4229C49.244 44.8418 49.1157 45.2495 48.883 45.598C48.6602 46.0042 48.339 46.348 47.949 46.598C47.715 46.7416 47.4667 46.8602 47.208 46.952C46.8552 47.0694 46.4846 47.1239 46.113 47.1129H20.789C20.2898 47.1059 19.8054 46.9426 19.404 46.646C18.9665 46.3434 18.6078 45.9405 18.358 45.4709C18.141 45.0644 18.0251 44.6117 18.02 44.1509V19.2609C18.0212 19.2129 18.0059 19.1659 17.9766 19.1278C17.9473 19.0898 17.9057 19.063 17.859 19.0519C17.3735 18.9152 16.8952 18.754 16.426 18.5689C16.1075 18.437 15.8137 18.252 15.557 18.0219C15.203 17.7169 14.9131 17.3447 14.704 16.9269C14.5263 16.5662 14.4327 16.17 14.43 15.7679C14.414 15.4299 14.446 15.0919 14.462 14.7539C14.4779 14.6022 14.5217 14.4548 14.591 14.3189C14.7335 13.9079 14.9585 13.5302 15.252 13.209C15.5455 12.8879 15.9014 12.6299 16.298 12.451C16.6679 12.2813 17.0665 12.1829 17.473 12.1609C18.036 12.1449 18.6 12.145 19.18 12.145H42.572C42.8813 12.1303 43.191 12.164 43.49 12.245C44.027 12.418 44.5096 12.7282 44.89 13.145C45.125 13.401 45.3153 13.6948 45.453 14.0139C45.5162 14.1661 45.57 14.3221 45.614 14.4809C45.6872 14.8466 45.7207 15.2191 45.714 15.5919V39.9179C45.714 40.3039 45.714 40.3039 46.068 40.4329C46.326 40.5329 46.599 40.6099 46.857 40.6909C47.7219 40.9415 48.4554 41.5189 48.902 42.301C49.0491 42.5573 49.1576 42.8339 49.224 43.1219C49.2487 43.2876 49.2647 43.4545 49.272 43.6219C49.2699 43.6445 49.2755 43.667 49.288 43.6859V43.7339C49.2417 43.8844 49.2352 44.0442 49.269 44.1979Z" fill="#009C73"/>
<path d="M42.592 28.2109V39.1289C42.576 39.2899 42.544 39.3219 42.383 39.2899C41.916 39.1609 41.465 38.9999 41.015 38.8549C40.725 38.7549 40.415 38.6619 40.13 38.5649C39.84 38.4839 39.567 38.3719 39.277 38.2749C39.116 38.2269 38.939 38.1749 38.777 38.1139C38.584 38.0329 38.391 38.0009 38.214 37.9209C38.085 37.8729 37.94 37.8409 37.814 37.7919C37.524 37.7109 37.251 37.6149 36.961 37.5179C36.671 37.4209 36.361 37.3409 36.076 37.2279C35.802 37.1149 35.496 37.0509 35.223 36.9539C35.0481 36.9046 34.8762 36.8455 34.708 36.7769C34.5714 36.7243 34.4314 36.6812 34.289 36.6479C33.951 36.5189 33.597 36.4229 33.259 36.3099C32.873 36.1809 32.459 36.0689 32.068 35.9399C31.762 35.8269 31.456 35.7469 31.15 35.6339C30.876 35.5339 30.603 35.4569 30.329 35.3759C30.023 35.2759 29.729 35.1829 29.429 35.0859C29.155 34.9859 28.898 34.9089 28.629 34.8279C28.436 34.7799 28.259 34.7149 28.066 34.6509C27.921 34.6029 27.76 34.5699 27.615 34.5059C27.422 34.4259 27.229 34.3929 27.035 34.3289C26.955 34.2969 26.922 34.3289 26.906 34.3929C26.793 34.6989 26.697 34.9929 26.584 35.2929L26.198 36.4519C26.098 36.7259 26.005 37.0149 25.908 37.2889C25.828 37.5299 25.747 37.7889 25.65 38.0299C25.55 38.3039 25.457 38.5929 25.344 38.8669C25.244 39.0919 25.167 39.3179 25.086 39.5589C24.986 39.8169 24.877 40.0739 24.78 40.3319C24.699 40.5409 24.603 40.7319 24.522 40.9439C24.3933 41.2499 24.2483 41.5559 24.087 41.8619C23.974 42.1029 23.846 42.3289 23.717 42.5539C23.4569 43.0444 23.0878 43.4686 22.638 43.7939C22.5017 43.895 22.34 43.9563 22.171 43.9709C22.021 43.9763 21.8733 43.934 21.7489 43.8501C21.6246 43.7662 21.5301 43.645 21.479 43.5039C21.2738 43.0319 21.1853 42.5174 21.221 42.0039C21.189 34.8559 21.221 27.6919 21.205 20.5429V20.3019C21.205 20.1569 21.269 20.1089 21.414 20.1409L21.897 20.2859C22.235 20.3989 22.557 20.5109 22.897 20.6079C23.187 20.6879 23.477 20.8009 23.766 20.8979C24.04 20.9979 24.313 21.0589 24.587 21.1559C24.78 21.2199 24.987 21.2689 25.187 21.3489C25.3079 21.394 25.4315 21.4317 25.557 21.4619C25.847 21.5619 26.137 21.6389 26.41 21.7359L27.279 22.0259C27.569 22.1259 27.842 22.1869 28.132 22.2999C28.3243 22.3498 28.5125 22.4143 28.695 22.4929C28.8152 22.5401 28.9389 22.5779 29.065 22.6059C29.371 22.6859 29.665 22.7989 29.95 22.8799C30.24 22.9799 30.53 23.0569 30.803 23.1699C30.948 23.2179 31.109 23.2699 31.254 23.3149C31.447 23.3789 31.654 23.4279 31.854 23.5079C31.9849 23.5581 32.1184 23.6012 32.254 23.6369C32.654 23.7499 33.054 23.8949 33.461 24.0229C33.751 24.1229 34.061 24.2159 34.346 24.3129C34.62 24.4129 34.893 24.4899 35.146 24.5709C35.452 24.6709 35.758 24.7799 36.064 24.8769C36.306 24.9579 36.547 25.0219 36.788 25.1019C36.852 25.1179 36.901 25.1019 36.917 25.0379L37.352 23.7819C37.452 23.5079 37.529 23.2349 37.626 22.9819C37.726 22.7079 37.835 22.4349 37.916 22.1609C37.997 21.8869 38.109 21.6299 38.19 21.3719C38.271 21.0979 38.383 20.8409 38.48 20.5829C38.528 20.4699 38.544 20.3579 38.593 20.2609C38.693 20.0189 38.77 19.7609 38.883 19.5039C39.012 19.1979 39.141 18.8759 39.269 18.5699C39.398 18.2959 39.51 18.0229 39.639 17.7489C39.8555 17.281 40.1142 16.8338 40.412 16.4129C40.6221 16.1171 40.8776 15.8562 41.169 15.6399C41.2927 15.5487 41.4363 15.488 41.588 15.4629C41.7369 15.434 41.8913 15.4564 42.0259 15.5265C42.1604 15.5966 42.2673 15.7103 42.329 15.8489C42.4797 16.1211 42.5678 16.4234 42.587 16.7339C42.6351 17.1939 42.6512 17.6567 42.635 18.1189C42.592 21.4809 42.592 24.8459 42.592 28.2109Z" fill="white"/>
<defs>
<filter id="filter0_d_55_1806" x="-3.05176e-05" y="0.938965" width="63.582" height="63.582" filterUnits="userSpaceOnUse" color-interpolation-filters="sRGB">
<feFlood flood-opacity="0" result="BackgroundImageFix"/>
<feColorMatrix in="SourceAlpha" type="matrix" values="0 0 0 0 0 0 0 0 0 0 0 0 0 0 0 0 0 0 127 0" result="hardAlpha"/>
<feOffset dy="3"/>
<feGaussianBlur stdDeviation="3"/>
<feColorMatrix type="matrix" values="0 0 0 0 0 0 0 0 0 0 0 0 0 0 0 0 0 0 0.161 0"/>
<feBlend mode="normal" in2="BackgroundImageFix" result="effect1_dropShadow_55_1806"/>
<feBlend mode="normal" in="SourceGraphic" in2="effect1_dropShadow_55_1806" result="shape"/>
</filter>
</defs>
</svg>
