<svg width="215" height="215" viewBox="0 0 215 215" fill="none" xmlns="http://www.w3.org/2000/svg">
<path d="M130.456 191.79C113.754 196.268 96.0999 195.693 79.7252 190.138C63.3505 184.582 48.9909 174.295 38.4624 160.579C27.9338 146.862 21.7092 130.331 20.5756 113.077C19.442 95.8229 23.4504 78.6199 32.0938 63.6437C40.7372 48.6675 53.6275 36.5906 69.1346 28.9404C84.6416 21.2901 102.069 18.4101 119.213 20.6644C136.357 22.9187 152.447 30.2062 165.45 41.6053C178.452 53.0043 187.782 68.003 192.26 84.7046C198.237 107.1 195.087 130.951 183.501 151.027C171.914 171.103 152.837 185.762 130.456 191.79M85.3824 23.6784C68.8347 28.1151 53.9744 37.3591 42.6804 50.2414C31.3865 63.1237 24.1662 79.0658 21.9327 96.0517C19.6991 113.038 22.5526 130.304 30.1323 145.668C37.712 161.032 49.6775 173.804 64.5157 182.368C79.3538 190.931 96.3981 194.903 113.493 193.78C130.589 192.656 146.967 186.489 160.557 176.058C174.147 165.626 184.339 151.399 189.843 135.175C195.348 118.952 195.918 101.46 191.481 84.9124C185.508 62.7373 170.983 43.8367 151.093 32.3571C131.203 20.8776 107.571 17.7564 85.3824 23.6784" fill="#009C73"/>
<path d="M38.1185 132.912L45.2106 129.951L45.7391 131.215L42.5645 136.263L47.0622 134.385L47.6439 135.783L40.5518 138.743L40.0233 137.479L43.1793 132.439L38.7009 134.308L38.1185 132.912Z" fill="#009C73"/>
<path d="M40.4236 127.81C39.68 127.971 38.9056 127.909 38.1972 127.632C37.4887 127.354 36.8777 126.875 36.4403 126.252C36.003 125.63 35.7588 124.892 35.7383 124.132C35.7178 123.371 35.9218 122.622 36.3249 121.977C36.728 121.332 37.3123 120.82 38.0047 120.505C38.6972 120.19 39.4671 120.086 40.2182 120.206C40.9694 120.326 41.6685 120.665 42.2281 121.18C42.7878 121.696 43.1831 122.364 43.3648 123.103C43.5007 123.606 43.5313 124.131 43.4548 124.647C43.3783 125.162 43.1963 125.656 42.9203 126.098C42.6443 126.54 42.28 126.92 41.8505 127.214C41.4209 127.509 40.9351 127.712 40.4236 127.81M38.9513 121.844C38.5301 121.982 38.1582 122.239 37.8811 122.585C37.604 122.931 37.4338 123.35 37.3913 123.791C37.3487 124.232 37.4358 124.676 37.6417 125.068C37.8476 125.46 38.1635 125.784 38.5507 126C38.9378 126.215 39.3794 126.313 39.8214 126.282C40.2633 126.25 40.6865 126.09 41.039 125.822C41.3915 125.553 41.658 125.188 41.806 124.77C41.954 124.352 41.9769 123.901 41.872 123.47C41.801 123.163 41.6665 122.875 41.4771 122.623C41.2877 122.371 41.0477 122.162 40.7725 122.009C40.4973 121.856 40.193 121.762 39.8793 121.733C39.5657 121.705 39.2495 121.743 38.9513 121.844" fill="#009C73"/>
<path d="M39.0738 103.788C39.3732 103.782 39.6706 103.839 39.9466 103.955C40.2227 104.072 40.4713 104.245 40.6762 104.463C40.8812 104.681 41.038 104.94 41.1365 105.223C41.235 105.506 41.273 105.806 41.248 106.105L41.2558 109.996L33.5754 110.009L33.5692 106.36C33.5374 106.073 33.5673 105.784 33.6568 105.51C33.7464 105.236 33.8936 104.984 34.0885 104.772C34.2834 104.56 34.5215 104.392 34.7868 104.279C35.0521 104.167 35.3384 104.112 35.6265 104.119C35.9818 104.096 36.3353 104.187 36.6343 104.381C36.9333 104.574 37.162 104.859 37.2861 105.192C37.3498 104.775 37.5693 104.398 37.9004 104.136C38.2314 103.874 38.6494 103.748 39.07 103.782M34.9329 108.461L36.6771 108.459L36.6729 106.624C36.6861 106.501 36.6711 106.376 36.6291 106.258C36.5871 106.141 36.5192 106.035 36.4304 105.948C36.3416 105.861 36.2343 105.795 36.1165 105.756C35.9986 105.716 35.8733 105.704 35.75 105.719C35.6325 105.712 35.5148 105.731 35.4057 105.775C35.2965 105.819 35.1988 105.887 35.1198 105.975C35.0408 106.062 34.9825 106.166 34.9492 106.279C34.916 106.392 34.9087 106.511 34.9279 106.627L34.9329 108.461ZM38.9316 105.386C38.8031 105.373 38.6735 105.39 38.5526 105.435C38.4316 105.481 38.3226 105.553 38.2339 105.647C38.1451 105.74 38.079 105.853 38.0404 105.976C38.0019 106.099 37.9921 106.23 38.0116 106.357L38.0162 108.456L39.8914 108.452L39.8871 106.355C39.9036 106.225 39.8904 106.093 39.8484 105.968C39.8064 105.844 39.7368 105.731 39.6447 105.638C39.5527 105.544 39.4407 105.473 39.3171 105.429C39.1935 105.386 39.0616 105.37 38.9313 105.385" fill="#009C73"/>
<path d="M34.1773 97.4481L33.9966 98.9755L41.6234 99.8779L41.8041 98.3506L34.1773 97.4481Z" fill="#009C73"/>
<path d="M42.2484 88.5457L43.6855 88.8852L42.4934 93.9358L35.0181 92.169L35.3711 90.6703L41.4062 92.0974L42.2484 88.5457Z" fill="#009C73"/>
<path d="M45.2119 80.1728L46.5957 80.6995L44.7546 85.542L37.5688 82.8164L38.115 81.3777L43.9151 83.5772L45.2119 80.1728Z" fill="#009C73"/>
<path d="M48.9288 64.1115L47.6476 66.0442L52.8114 69.4719L51.9663 70.7451L46.8025 67.3175L45.5204 69.2505L44.2854 68.4324L47.6938 63.2934L48.9288 64.1115Z" fill="#009C73"/>
<path d="M58.7301 59.7059L59.8444 60.6838L56.2037 64.8388L50.428 59.7719L54.0133 55.6805L55.1276 56.6584L52.5578 59.5902L53.7384 60.6259L56.1959 57.8196L57.3184 58.8046L54.8609 61.611L56.1056 62.7041L58.7301 59.7059Z" fill="#009C73"/>
<path d="M59.5043 55.5742C58.9534 54.9617 58.611 54.1902 58.5265 53.3708C58.442 52.5513 58.6197 51.7262 59.034 51.0142C59.4483 50.3021 60.0779 49.7399 60.8321 49.4085C61.5862 49.077 62.4261 48.9934 63.2308 49.1697L62.8084 50.7179C62.4637 50.6321 62.1031 50.6323 61.7585 50.7184C61.4139 50.8045 61.0957 50.9738 60.8318 51.2116C60.4035 51.65 60.1545 52.2327 60.1335 52.8452C60.1126 53.4578 60.3212 54.056 60.7185 54.5227C61.1159 54.9894 61.6732 55.2908 62.2812 55.3678C62.8893 55.4448 63.5042 55.2918 64.0053 54.9389C64.3036 54.6959 64.5312 54.3772 64.664 54.0161C64.7969 53.6549 64.8302 53.2648 64.7605 52.8863L66.3508 52.7706C66.4271 53.3951 66.3437 54.0288 66.1086 54.6124C65.8734 55.196 65.4941 55.7104 65.0061 56.1076C64.6183 56.4529 64.1633 56.7143 63.6697 56.8755C63.1761 57.0367 62.6546 57.0942 62.1377 57.0444C61.6209 56.9946 61.1198 56.8386 60.6661 56.5861C60.2124 56.3337 59.8157 55.9902 59.5009 55.5772" fill="#009C73"/>
<path d="M71.3992 42.0562L75.4667 48.5761L74.1613 49.392L72.5014 46.7308L69.6402 48.5178L71.3001 51.1791L69.9956 51.9948L65.9284 45.4758L67.2338 44.6598L68.8486 47.2494L71.7098 45.4623L70.095 42.8728L71.3992 42.0562Z" fill="#009C73"/>
<path d="M81.4589 37.3328L84.4996 44.3869L83.2414 44.9313L78.1614 41.8181L80.0909 46.2917L78.6988 46.8927L75.6582 39.8386L76.9163 39.2942L81.9906 42.3861L80.0712 37.9306L81.4589 37.3328Z" fill="#009C73"/>
<path d="M86.5726 39.5717C86.4042 38.8304 86.4579 38.0558 86.7271 37.3447C86.9963 36.6337 87.469 36.0177 88.0862 35.5738C88.7034 35.1298 89.4377 34.8775 90.1974 34.8484C90.9571 34.8193 91.7085 35.0147 92.3579 35.4101C93.0072 35.8055 93.5257 36.3835 93.8485 37.0719C94.1712 37.7602 94.2841 38.5284 94.1729 39.2805C94.0617 40.0326 93.7313 40.7353 93.2231 41.3008C92.7149 41.8662 92.0514 42.2694 91.3154 42.46C90.8139 42.6019 90.2884 42.6388 89.772 42.5683C89.2556 42.4978 88.7592 42.3215 88.3141 42.0503C87.8689 41.7792 87.4844 41.4192 87.1848 40.9927C86.8852 40.5662 86.6768 40.0825 86.5726 39.5717M92.5193 38.0301C92.3764 37.6108 92.1144 37.2423 91.7654 36.9696C91.4163 36.6969 90.9953 36.5319 90.5539 36.4948C90.1125 36.4577 89.6699 36.55 89.2801 36.7606C88.8904 36.9712 88.5706 37.2908 88.3597 37.6803C88.1488 38.0699 88.0561 38.5124 88.0928 38.9538C88.1296 39.3953 88.2943 39.8164 88.5667 40.1657C88.8391 40.515 89.2074 40.7773 89.6266 40.9205C90.0458 41.0637 90.4976 41.0815 90.9268 40.9719C91.233 40.8973 91.5202 40.7593 91.7698 40.5668C92.0195 40.3744 92.226 40.1317 92.376 39.8545C92.5261 39.5773 92.6164 39.2718 92.641 38.9575C92.6657 38.6433 92.6242 38.3274 92.5193 38.0301" fill="#009C73"/>
<path d="M103.456 38.7764L103.621 40.2477L98.4681 40.8291L97.6074 33.1976L99.137 33.0256L99.832 39.1858L103.456 38.7764Z" fill="#009C73"/>
<path d="M106.292 36.2294C106.336 35.4703 106.602 34.7409 107.058 34.1322C107.513 33.5235 108.138 33.0626 108.854 32.8068C109.57 32.5511 110.346 32.512 111.084 32.6944C111.822 32.8768 112.49 33.2725 113.005 33.8323C113.519 34.392 113.857 35.0909 113.977 35.8418C114.097 36.5926 113.993 37.3621 113.678 38.0542C113.363 38.7463 112.851 39.3302 112.207 39.7332C111.562 40.1362 110.813 40.3403 110.053 40.3201C109.531 40.3187 109.015 40.2094 108.537 39.999C108.06 39.7885 107.631 39.4816 107.277 39.0974C106.924 38.7131 106.654 38.26 106.485 37.7664C106.315 37.2729 106.25 36.7496 106.292 36.2294M112.436 36.3992C112.414 35.9567 112.264 35.53 112.004 35.1714C111.743 34.8129 111.384 34.538 110.97 34.3805C110.556 34.223 110.105 34.1897 109.672 34.2846C109.239 34.3796 108.844 34.5986 108.533 34.915C108.223 35.2314 108.012 35.6314 107.926 36.066C107.84 36.5005 107.882 36.9509 108.048 37.3618C108.213 37.7727 108.495 38.1263 108.859 38.3794C109.223 38.6325 109.652 38.7741 110.095 38.7868C110.41 38.7987 110.723 38.7447 111.016 38.6282C111.308 38.5118 111.573 38.3356 111.793 38.1108C112.014 37.886 112.185 37.6176 112.295 37.3228C112.406 37.0281 112.454 36.7135 112.436 36.3992Z" fill="#009C73"/>
<path d="M120.435 41.4244C119.783 41.299 119.173 41.0129 118.661 40.592C118.148 40.1711 117.748 39.6287 117.498 39.0142C117.248 38.3997 117.155 37.7324 117.228 37.073C117.301 36.4136 117.538 35.7829 117.917 35.2381C118.296 34.6933 118.804 34.2518 119.397 33.9535C119.99 33.6553 120.647 33.5097 121.311 33.5302C121.974 33.5506 122.621 33.7363 123.194 34.0704C123.768 34.4046 124.248 34.8766 124.593 35.4436L123.231 36.2507C123.071 35.9496 122.843 35.6896 122.565 35.4909C122.288 35.2922 121.968 35.1601 121.631 35.1051C121.016 35.0408 120.4 35.211 119.905 35.5816C119.41 35.9521 119.073 36.4957 118.961 37.1038C118.85 37.712 118.972 38.3398 119.303 38.8619C119.634 39.3839 120.15 39.7618 120.748 39.92C121.198 40.0277 121.671 39.9681 122.081 39.7525C122.49 39.5369 122.807 39.1799 122.972 38.748L121.023 38.3845L121.265 37.077L124.861 37.7466C124.854 37.9334 124.83 38.1192 124.791 38.3019C124.733 38.8031 124.57 39.2866 124.314 39.7214C124.058 40.1561 123.714 40.5325 123.304 40.8263C122.894 41.1201 122.426 41.3248 121.932 41.4273C121.438 41.5297 120.928 41.5277 120.435 41.4213" fill="#009C73"/>
<path d="M130.092 35.7598L127.75 43.0801L129.215 43.5491L131.558 36.2289L130.092 35.7598Z" fill="#009C73"/>
<path d="M139.018 45.9762L138.405 47.3272L133.376 45.0441L136.552 38.0441L141.504 40.2919L140.892 41.6417L137.341 40.03L136.689 41.4607L140.084 43.0023L139.468 44.3635L136.071 42.8213L135.386 44.3302L139.018 45.9762Z" fill="#009C73"/>
<path d="M141.664 48.0718L142.984 47.3473C143.318 48.1921 143.899 48.9165 144.651 49.4257C145.302 49.8372 145.889 49.8559 146.188 49.3833C146.505 48.884 146.067 48.49 145.474 47.9066C143.882 46.3029 143.51 45.5494 144.202 44.4537C145.276 42.7564 147.011 43.2294 148.188 43.9722C149.001 44.4761 149.649 45.2062 150.054 46.0729L148.728 46.8063C148.424 46.138 147.934 45.5713 147.316 45.174C146.542 44.6838 145.987 44.7497 145.705 45.1919C145.458 45.5811 145.67 45.9353 146.504 46.7099C147.275 47.4435 148.606 48.7123 147.667 50.1962C146.863 51.4667 145.336 51.5936 143.82 50.6373C142.862 50.0142 142.112 49.1194 141.665 48.0674" fill="#009C73"/>
<path d="M159.51 55.0371L158.223 56.3141L160.636 58.7506L159.572 59.8021L157.159 57.3657L155.097 59.4053L154.014 58.3114L159.477 52.9057L163.188 56.652L162.134 57.6946L159.51 55.0371Z" fill="#009C73"/>
<path d="M168.557 65.306L162.3 65.2847L164.52 68.2285L163.336 69.1205L159.842 64.4848L160.815 63.7507L167.072 63.7752L164.871 60.8553L166.055 59.9642L169.53 64.575L168.557 65.306Z" fill="#009C73"/>
<path d="M169.125 69.9206L167.946 70.6014L169.613 73.4857L170.791 72.8048L169.125 69.9206Z" fill="#009C73"/>
<path d="M172.124 82.7457L170.763 83.3291L168.725 78.5591L175.783 75.5352L176.388 76.9508L170.688 79.3922L172.124 82.7457Z" fill="#009C73"/>
<path d="M174.719 91.249L173.291 91.6492L171.89 86.6547L179.289 84.5769L179.705 86.0596L173.735 87.7358L174.719 91.249Z" fill="#009C73"/>
<path d="M177.69 93.7382C178.503 93.6039 179.338 93.7308 180.074 94.1009C180.81 94.471 181.409 95.065 181.786 95.7975C182.163 96.53 182.298 97.3633 182.171 98.1772C182.044 98.9912 181.662 99.744 181.08 100.327L180.004 99.1393C180.262 98.8943 180.455 98.59 180.568 98.2529C180.681 97.9159 180.709 97.5564 180.651 97.2057C180.512 96.6088 180.154 96.0856 179.649 95.7389C179.143 95.3921 178.527 95.247 177.919 95.3319C177.312 95.4168 176.759 95.7257 176.368 96.1979C175.977 96.67 175.777 97.2712 175.807 97.8835C175.85 98.2654 175.996 98.6285 176.228 98.9347C176.461 99.2409 176.771 99.4789 177.127 99.6238L176.372 101.03C175.805 100.758 175.316 100.346 174.951 99.8332C174.587 99.3205 174.358 98.7236 174.286 98.0985C174.204 97.586 174.229 97.0621 174.358 96.5594C174.488 96.0568 174.719 95.5863 175.039 95.1774C175.359 94.7686 175.76 94.4301 176.216 94.1832C176.673 93.9364 177.175 93.7865 177.693 93.7428" fill="#009C73"/>
<path d="M122.5 162.118C111.667 165.022 100.216 164.649 89.5955 161.046C78.9746 157.442 69.6608 150.77 62.8319 141.873C56.0029 132.977 51.9655 122.255 51.2302 111.063C50.4949 99.8718 53.0948 88.7137 58.7011 78.9999C64.3073 69.2861 72.6682 61.4529 82.7263 56.4908C92.7844 51.5287 104.088 49.6607 115.208 51.1228C126.328 52.585 136.764 57.3118 145.198 64.7054C153.631 72.099 159.683 81.8274 162.587 92.6603C166.464 107.186 164.421 122.657 156.906 135.678C149.391 148.699 137.017 158.208 122.5 162.118M93.3382 53.351C82.659 56.2142 73.0688 62.1799 65.7801 70.4936C58.4915 78.8073 53.8319 89.0956 52.3904 100.058C50.949 111.02 52.7905 122.163 57.6821 132.078C62.5738 141.993 70.2958 150.235 79.8717 155.762C89.4476 161.289 100.447 163.852 111.48 163.127C122.512 162.402 133.082 158.422 141.853 151.69C150.623 144.958 157.2 135.776 160.753 125.306C164.305 114.836 164.673 103.548 161.81 92.8688C157.955 78.5578 148.582 66.36 135.745 58.9516C122.909 51.5431 107.658 49.529 93.3382 53.351Z" fill="#009C73"/>
<path d="M49.5087 145.081L46.1826 150.844L51.9465 154.171L55.2726 148.408L49.5087 145.081Z" fill="#009C73"/>
<path d="M177.289 110.821L173.961 116.585L179.725 119.912L183.052 114.148L177.289 110.821Z" fill="#009C73"/>
<path d="M142.135 121.061C142.106 121.036 142.086 121 142.08 120.962C141.994 120.689 141.894 120.422 141.779 120.159C141.542 119.715 141.241 119.307 140.885 118.95C139.802 117.857 138.336 117.228 136.798 117.197C136.338 117.178 135.85 117.165 135.381 117.121C134.74 117.064 134.74 117.064 134.569 116.427L123.802 76.2701C123.65 75.6509 123.432 75.0498 123.152 74.4772C123.008 74.2341 122.85 73.9998 122.678 73.7759C122.309 73.3098 121.864 72.9089 121.363 72.5898C120.551 72.0695 119.617 71.7702 118.654 71.7215C118.125 71.7223 117.6 71.8056 117.097 71.9682L78.4819 82.3215C77.5236 82.5784 76.5943 82.8275 75.6713 83.104C75.0084 83.3213 74.3925 83.6621 73.8563 84.1084C73.2808 84.579 72.8073 85.1622 72.4649 85.8221C72.1225 86.482 71.9184 87.2049 71.8649 87.9464C71.8105 88.2009 71.8033 88.4633 71.8436 88.7204C71.9672 89.2857 72.0626 89.8576 72.2384 90.409C72.421 91.0712 72.7509 91.6835 73.2033 92.2004C73.734 92.7977 74.3778 93.2839 75.0975 93.6309C75.6234 93.8973 76.1906 94.0726 76.7751 94.1493C77.6314 94.2474 78.492 94.3021 79.3538 94.3131C79.4361 94.3098 79.5171 94.3353 79.5826 94.3852C79.6481 94.4351 79.6942 94.5063 79.7129 94.5865L90.7287 135.672C90.9413 136.431 91.3333 137.127 91.8714 137.702C92.4921 138.368 93.2635 138.876 94.1209 139.183C94.9143 139.496 95.7858 139.552 96.6127 139.343L138.42 128.134C139.039 127.988 139.627 127.733 140.157 127.383C140.543 127.117 140.901 126.811 141.223 126.47C141.758 125.886 142.137 125.177 142.327 124.408C142.556 123.728 142.586 122.997 142.413 122.301C142.387 122.22 142.374 122.136 142.374 122.051L142.339 121.919C142.215 121.681 142.154 121.416 142.162 121.148L142.135 121.061ZM124.245 98.5388L129.076 116.558C129.121 116.831 129.081 116.898 128.801 116.917C127.972 116.912 127.157 116.84 126.352 116.805C125.826 116.776 125.283 116.75 124.763 116.714C124.244 116.71 123.748 116.644 123.225 116.608C122.936 116.6 122.624 116.6 122.329 116.563C121.976 116.516 121.641 116.548 121.314 116.493C121.079 116.47 120.827 116.482 120.592 116.459C120.073 116.455 119.585 116.418 119.062 116.385C118.54 116.351 118.001 116.358 117.474 116.293C116.972 116.227 116.44 116.259 115.944 116.218C115.634 116.215 115.324 116.195 115.016 116.157C114.767 116.131 114.517 116.122 114.267 116.13C113.652 116.067 113.024 116.064 112.415 116.028C111.72 115.986 110.98 115.985 110.285 115.947C109.731 115.896 109.19 115.899 108.636 115.849C108.141 115.812 107.655 115.801 107.169 115.787C106.622 115.762 106.1 115.732 105.552 115.703C105.058 115.665 104.597 115.648 104.11 115.634C103.769 115.638 103.452 115.61 103.102 115.593C102.832 115.594 102.562 115.58 102.294 115.55C101.94 115.502 101.606 115.535 101.259 115.517C101.112 115.498 101.073 115.567 101.075 115.68C101.024 116.234 100.993 116.756 100.944 117.31L100.818 119.395C100.78 119.89 100.749 120.41 100.706 120.907C100.68 121.341 100.66 121.802 100.609 122.243C100.57 122.738 100.539 123.259 100.474 123.761C100.415 124.175 100.383 124.582 100.355 125.018C100.31 125.486 100.238 125.962 100.193 126.428C100.152 126.81 100.081 127.171 100.038 127.553C99.9608 128.115 99.8569 128.684 99.7263 129.26C99.6478 129.709 99.5355 130.14 99.4261 130.566C99.2136 131.49 98.7923 132.353 98.1945 133.09C98.0132 133.317 97.7726 133.489 97.4994 133.587C97.254 133.662 96.9911 133.657 96.7485 133.573C96.506 133.49 96.2962 133.331 96.1494 133.12C95.6032 132.433 95.2302 131.625 95.0619 130.763C91.8439 118.977 88.7273 107.137 85.5365 95.3445L85.4296 94.9456C85.3646 94.7031 85.4504 94.5983 85.7039 94.5862L86.5661 94.616C87.1745 94.6527 87.7601 94.6935 88.3563 94.7044C88.8748 94.7073 89.3981 94.7668 89.92 94.7977C90.4148 94.8359 90.8947 94.8222 91.3866 94.8612C91.7336 94.881 92.1012 94.8694 92.4555 94.9163C92.674 94.9372 92.8936 94.9451 93.1131 94.9398C93.6385 94.9687 94.1471 94.9732 94.6427 95.0143L96.2077 95.1124C96.7286 95.1436 97.2094 95.1296 97.7373 95.1868C98.0772 95.1844 98.4167 95.2076 98.753 95.2562C98.9713 95.2813 99.1912 95.2891 99.4107 95.2797C99.9507 95.2778 100.48 95.3348 100.991 95.3407C101.516 95.3706 102.025 95.3741 102.527 95.4413C102.792 95.4562 103.075 95.4652 103.336 95.4853C103.683 95.5051 104.051 95.4926 104.405 95.5404C104.645 95.5646 104.886 95.576 105.127 95.5747C105.841 95.583 106.569 95.6446 107.291 95.6789C107.816 95.7088 108.36 95.7341 108.88 95.7706C109.374 95.809 109.861 95.8182 110.322 95.8405C110.869 95.8647 111.425 95.9144 111.972 95.9386C112.406 95.9643 112.834 95.9674 113.268 95.9899C113.38 95.9877 113.453 95.9402 113.452 95.8266L113.613 93.5614C113.651 93.0666 113.66 92.5805 113.709 92.112C113.747 91.6171 113.812 91.116 113.829 90.6301C113.846 90.1441 113.913 89.6684 113.932 89.2067C113.943 88.7191 114.015 88.2453 114.066 87.775C114.096 87.5671 114.073 87.3746 114.11 87.1947C114.163 86.753 114.179 86.293 114.258 85.8152C114.336 85.2537 114.406 84.6645 114.482 84.0984C114.575 83.5891 114.639 83.0882 114.727 82.5831C114.878 81.715 115.106 80.8624 115.411 80.0358C115.627 79.4545 115.934 78.9108 116.319 78.4246C116.483 78.2205 116.693 78.0578 116.932 77.9496C117.165 77.8359 117.43 77.8048 117.683 77.8612C117.937 77.9176 118.163 78.0583 118.326 78.2602C118.695 78.6422 118.974 79.1015 119.143 79.6047C119.426 80.3424 119.658 81.0989 119.836 81.8688C121.274 87.4329 122.764 92.9912 124.253 98.5419" fill="#009C73"/>
<path d="M92.5258 172.12L90.4837 179.53L89.1587 179.16L87.137 173.551L85.8397 178.248L84.3751 177.844L86.4174 170.435L87.7399 170.799L89.7647 176.389L91.0555 171.71L92.5258 172.12Z" fill="#009C73"/>
<path d="M96.0435 176.74C96.143 175.986 96.4624 175.278 96.9618 174.704C97.4612 174.131 98.1185 173.717 98.8517 173.515C99.5848 173.313 100.361 173.331 101.084 173.568C101.807 173.804 102.444 174.248 102.916 174.845C103.387 175.441 103.673 176.164 103.737 176.921C103.8 177.679 103.639 178.439 103.274 179.106C102.908 179.773 102.354 180.317 101.681 180.671C101.008 181.025 100.246 181.173 99.4892 181.096C98.9692 181.055 98.4632 180.908 98.0029 180.663C97.5426 180.418 97.138 180.08 96.8144 179.671C96.4909 179.262 96.2554 178.79 96.1227 178.286C95.99 177.781 95.9631 177.255 96.0435 176.74M102.157 177.362C102.169 176.92 102.052 176.483 101.82 176.106C101.587 175.728 101.25 175.427 100.849 175.239C100.448 175.05 100.001 174.983 99.5622 175.045C99.1235 175.107 98.7124 175.295 98.3791 175.587C98.0459 175.879 97.805 176.262 97.686 176.689C97.567 177.115 97.575 177.567 97.709 177.99C97.8431 178.412 98.0974 178.786 98.4408 179.066C98.7841 179.346 99.2017 179.52 99.6423 179.566C99.9552 179.602 100.272 179.573 100.573 179.479C100.874 179.385 101.152 179.23 101.389 179.022C101.626 178.815 101.817 178.56 101.949 178.274C102.081 177.988 102.152 177.678 102.157 177.362" fill="#009C73"/>
<path d="M114.731 178.834C114.755 179.133 114.716 179.433 114.616 179.716C114.517 179.999 114.359 180.257 114.153 180.475C113.947 180.693 113.697 180.865 113.421 180.98C113.144 181.095 112.846 181.15 112.546 181.142L108.664 181.376L108.201 173.705L111.842 173.487C112.126 173.439 112.417 173.452 112.695 173.526C112.974 173.6 113.233 173.732 113.456 173.915C113.679 174.097 113.861 174.325 113.989 174.584C114.116 174.842 114.187 175.125 114.197 175.412C114.241 175.766 114.171 176.124 113.995 176.433C113.82 176.743 113.549 176.988 113.223 177.131C113.643 177.173 114.032 177.371 114.311 177.687C114.591 178.003 114.741 178.412 114.731 178.834M113.122 178.787C113.127 178.658 113.103 178.529 113.051 178.41C112.999 178.292 112.921 178.187 112.822 178.104C112.723 178.02 112.607 177.96 112.481 177.929C112.356 177.898 112.225 177.895 112.098 177.923L110.005 178.048L110.117 179.922L112.211 179.795C112.342 179.804 112.472 179.783 112.594 179.734C112.715 179.685 112.824 179.609 112.911 179.511C112.999 179.414 113.064 179.298 113.1 179.172C113.136 179.046 113.144 178.914 113.121 178.785M109.82 174.969L109.925 176.711L111.759 176.6C111.883 176.606 112.007 176.584 112.122 176.536C112.236 176.487 112.338 176.413 112.42 176.319C112.502 176.225 112.561 176.114 112.594 175.994C112.627 175.874 112.632 175.748 112.609 175.626C112.574 175.111 112.254 174.823 111.654 174.858L109.82 174.969Z" fill="#009C73"/>
<path d="M118.912 172.601L120.355 180.144L121.866 179.855L120.423 172.312L118.912 172.601Z" fill="#009C73"/>
<path d="M132.181 175.458L132.638 176.87L127.701 178.458L125.347 171.143L126.811 170.67L128.71 176.575L132.181 175.458Z" fill="#009C73"/>
<path d="M141.532 171.275L142.179 172.607L137.512 174.871L134.153 167.957L135.538 167.287L138.248 172.866L141.532 171.275Z" fill="#009C73"/>
<path d="M146.21 169.264C146.141 169.163 146.092 169.049 146.068 168.929C146.043 168.809 146.043 168.685 146.067 168.565C146.091 168.444 146.139 168.33 146.208 168.229C146.277 168.127 146.365 168.041 146.468 167.974C146.571 167.908 146.687 167.863 146.807 167.841C146.928 167.82 147.052 167.824 147.171 167.851C147.291 167.878 147.404 167.93 147.503 168.001C147.602 168.073 147.686 168.164 147.75 168.269C147.823 168.37 147.875 168.485 147.903 168.607C147.93 168.728 147.932 168.854 147.91 168.977C147.887 169.1 147.839 169.216 147.77 169.32C147.7 169.424 147.61 169.512 147.505 169.58C147.4 169.647 147.283 169.693 147.16 169.714C147.037 169.734 146.911 169.73 146.79 169.7C146.669 169.671 146.555 169.617 146.455 169.542C146.355 169.467 146.272 169.372 146.21 169.264Z" fill="#009C73"/>
<path d="M149.371 158.518L148.172 159.484L152.994 165.465L154.193 164.499L149.371 158.518Z" fill="#009C73"/>
<path d="M155.572 158.286C155.033 157.749 154.664 157.064 154.512 156.319C154.36 155.573 154.431 154.799 154.717 154.093C155.002 153.388 155.489 152.782 156.117 152.351C156.745 151.921 157.485 151.685 158.246 151.673C159.007 151.662 159.755 151.874 160.396 152.285C161.037 152.696 161.542 153.286 161.849 153.983C162.156 154.679 162.251 155.451 162.122 156.201C161.993 156.951 161.646 157.647 161.124 158.201C160.775 158.587 160.35 158.898 159.875 159.113C159.401 159.329 158.887 159.444 158.366 159.452C157.846 159.46 157.329 159.361 156.848 159.16C156.367 158.96 155.933 158.662 155.572 158.286M159.785 153.808C159.44 153.529 159.022 153.356 158.581 153.311C158.14 153.267 157.696 153.351 157.302 153.555C156.909 153.759 156.583 154.073 156.365 154.459C156.148 154.845 156.047 155.287 156.076 155.729C156.106 156.171 156.263 156.595 156.53 156.949C156.796 157.303 157.16 157.572 157.577 157.722C157.994 157.873 158.445 157.899 158.877 157.796C159.308 157.694 159.7 157.468 160.005 157.146C160.224 156.92 160.394 156.65 160.503 156.354C160.612 156.058 160.657 155.743 160.637 155.428C160.616 155.113 160.529 154.807 160.383 154.527C160.236 154.248 160.032 154.003 159.785 153.808" fill="#009C73"/>
</svg>
