<svg xmlns="http://www.w3.org/2000/svg" width="1367.021" height="658.553" viewBox="0 0 1367.021 658.553">
  <path id="Intersection_80" data-name="Intersection 80" d="M-659.866-18066.908q1.892-.521,3.779-1.092-1.891-.1-3.779-.248v-1.768c1.425-.574,2.851-1.174,4.288-1.8q-2.145-.316-4.288-.7v-1.084q3.063.551,6.132.969,2.823-1.266,5.67-2.645-2.816-.536-5.623-1.168c-.462-.105-.92-.209-1.372-.314q-2.409,1.359-4.808,2.625v-1.547q1.412-.756,2.83-1.541-1.431-.337-2.83-.684v-1.045q2.034.5,4.141,1,2.616-1.471,5.246-3.045-4.138-1-8.019-2.072-.684.457-1.368.906v-2.289c.207.061.415.119.624.178q2.28-1.523,4.579-3.131-2.676-.814-5.2-1.672v-.979q2.986,1.017,6.166,1.979c.386-.271.772-.543,1.158-.82q1.451-1.028,2.9-2.086-4.5-1.474-8.586-3.088-.819.65-1.639,1.295v-1.867c.024-.02.048-.039.071-.057l-.071-.029v-.959q.432.179.867.354,1.958-1.556,3.917-3.164-2.45-1.09-4.784-2.254v-1.035q2.7,1.368,5.57,2.646c1.1-.9,2.187-1.8,3.283-2.73-2.921-1.391-5.718-2.863-8.415-4.406l-.438.393v-2.006c.791-.719,1.594-1.451,2.382-2.176q-1.2-.718-2.382-1.457v-1.27q1.852.762,3.712,1.5l1.277-1.186q-2.523-1.471-4.989-3.029v-.572q2.643,1.682,5.346,3.262c.429-.4.858-.8,1.287-1.205,0,0,0,0-.01,0q-3.324-1.521-6.623-3.131v-.15q2.7,1.33,5.418,2.6-2.718-1.547-5.418-3.191v-1.623q4.028,2.136,8.091,4.129c32.087-30.377,65.231-68.873,100.973-110.385,79.731-92.605,170.1-197.566,289.4-260.006a523.284,523.284,0,0,1,58.956-26.469q-2.494-.006-4.975.006a508.643,508.643,0,0,0-65.956,27.088c-125.117,61.7-217.608,170.211-299.216,265.957-30.69,36.008-59.429,69.727-87.269,97.725v-2.229c27.453-27.727,55.814-61,86.078-96.512,81.7-95.859,174.309-204.508,299.716-266.348a508.183,508.183,0,0,1,61.624-25.625c-1.115.02-2.211.037-3.321.066a480.728,480.728,0,0,0-70.292,26.24c-131.2,60.824-225.784,173-309.232,271.971-22.443,26.617-43.826,51.975-64.574,74.633v-2.4c20.353-22.295,41.335-47.178,63.335-73.271,83.557-99.1,178.264-211.42,309.789-272.395a496.2,496.2,0,0,1,64-24.564c-.672.025-1.353.053-2.025.082a473.326,473.326,0,0,0-73.97,25.225c-137.3,59.705-233.837,175.52-319.019,277.7-14.442,17.326-28.438,34.113-42.107,49.955v-2.557c13.258-15.4,26.829-31.674,40.826-48.467,40.83-48.977,87.1-104.488,139.383-154.057,59.957-56.836,118.913-97.434,180.251-124.107a485.563,485.563,0,0,1,65.822-23.252c-.043,0-.076,0-.124.01a466.5,466.5,0,0,0-77.711,24.053c-143.385,58.326-246.073,183-328.582,283.172q-10.074,12.231-19.865,24.057v-2.686q9.12-11,18.54-22.461c41.512-50.4,88.565-107.525,142.332-158.311,61.734-58.3,122.877-99.309,186.927-125.363a471.265,471.265,0,0,1,62.573-20.537,462.7,462.7,0,0,0-74.609,21.4c-148.179,56.225-252.166,182.979-335.763,285.734v-2.8c83.5-102.623,187.321-228.5,335.134-284.588a468.467,468.467,0,0,1,56.612-17.486,459.846,459.846,0,0,0-68.667,18.416c-141.311,49.844-241.884,163.555-323.079,263.619v-2.881c81.094-99.816,181.517-212.732,322.474-262.449a466.144,466.144,0,0,1,50.055-14.59,456.071,456.071,0,0,0-91.7,26.375c-119.146,48.154-208.14,142.09-280.828,230.525v-2.939c72.563-88.09,161.363-181.314,280.128-229.32a455.759,455.759,0,0,1,128.495-31.473q9.392-1.386,18.883-2.4,8.234-1.3,16.548-2.316,6.776-1.181,13.6-2.158,9.949-1.972,19.984-3.508,8.555-1.778,17.163-3.221,8.491-1.9,17.034-3.469,9.027-2.18,18.116-3.969,8.991-2.279,18.03-4.18,5.961-1.6,11.95-3.025,9.477-2.836,18.979-5.213,8.205-2.558,16.434-4.77,8.212-2.716,16.448-5.08,8.048-2.821,16.12-5.293,8-2.974,16-5.58,7.934-3.108,15.867-5.855,7.819-3.237,15.643-6.109,7.755-3.381,15.5-6.389,7.641-3.5,15.276-6.633,7.54-3.639,15.081-6.895,7.462-3.782,14.933-7.182,7.333-3.888,14.676-7.4,7.5-4.166,15-7.924,6.711-3.9,13.442-7.457,7.233-4.409,14.49-8.42,6.161-3.917,12.346-7.533c.538-.314,1.072-.629,1.611-.939q3.945-2.622,7.91-5.117,2.945-1.857,5.894-3.641,6.683-4.629,13.418-8.891,6.661-4.816,13.4-9.271,6.2-4.661,12.455-9.012A372.162,372.162,0,0,1,265.61-18722h.725a365.255,365.255,0,0,0-61.477,38.6,343.082,343.082,0,0,1,64.693-34.67q5.169-2.065,10.4-3.932h1.567q-43.319,15.357-84.584,44.867a332.928,332.928,0,0,1,65.25-31.764,295.693,295.693,0,0,1,51.443-13.1h2.654c-41.787,6.266-81.794,21.422-120.652,45.92q-2.837,2.309-5.661,4.689c37.566-21.418,76.072-34.4,116.054-39.311a305.758,305.758,0,0,1,42.241-2.207c88.846,1.426,180.79,22.133,281.086,63.316,26.3,10.8,51.916,22.48,76.791,34.625v.521c-107.106-52.365-227.376-95.855-357.886-97.947-56.121-.9-109.164,13.074-160.448,42.836-1.491,1.271-2.973,2.555-4.46,3.855,33.783-17.449,68.319-28.295,104.2-32.7a314.014,314.014,0,0,1,56.121-1.738c133.864,7.6,255.339,49.322,362.47,97.01v.615c-107.142-47.709-228.63-89.467-362.5-97.062-56.788-3.221-110.631,8.543-162.883,36.16q-1.987,1.758-3.974,3.564a308.084,308.084,0,0,1,92.358-26.721l.629-.082a320.8,320.8,0,0,1,69.31-.715c137.123,13.012,259.89,53.121,367.059,96.256v.658c-107.18-43.148-229.98-83.293-367.116-96.309-57.331-5.437-110.965,3.355-162.978,27.588q-2.873,2.616-5.737,5.314a310.709,310.709,0,0,1,80.96-21.41,329.37,329.37,0,0,1,83.228.668c140.256,18.338,264.536,56.979,371.642,95.623v.707c-107.125-38.66-231.443-77.33-371.728-95.672-58-7.582-112.356-.926-165.175,21.1-1.787,1.691-3.555,3.389-5.337,5.123,2.259-.82,4.531-1.615,6.79-2.383q1.322-1.38,2.635-2.734-1.315,1.356-2.625,2.734a312.306,312.306,0,0,1,62.3-14.266c31.4-3.855,63.568-2.945,96.913,2.539,143.31,23.564,269.6,60.953,376.231,95.1v.744c-106.65-34.158-232.989-71.564-376.345-95.141-56.068-9.219-108.849-5.469-160.167,12.146q-2.559,2.7-5.108,5.445a318.417,318.417,0,0,1,49.669-10.244l.858-.105c35.475-4.307,72.05-2.682,110.274,4.818,145.177,28.494,268.544,63.148,377.384,93.73l3.435.965v.791c-1.213-.34-2.423-.68-3.64-1.023-108.83-30.57-232.179-65.23-377.322-93.711-56.588-11.105-109.917-9.367-161.8,6.02q-2.494,2.716-4.989,5.5a322.926,322.926,0,0,1,37.624-6.895c39.987-4.912,81.308-2.426,124.721,7.395,98.333,22.252,187.989,44.9,267.091,64.889,41.85,10.574,81.276,20.535,118.312,29.514v.838c-37.1-8.99-76.592-18.969-118.512-29.561-79.1-19.984-168.749-42.637-267.072-64.885-57.1-12.922-110.936-13.16-163.321.006q-2.466,2.766-4.927,5.594,12.358-2.479,24.873-4.018c44.414-5.455,90.4-1.977,138.973,10.393l19.889,5.066c144.087,36.7,266.9,67.984,370.1,89.125v.881c-103.27-21.145-226.136-52.441-370.313-89.168l-19.889-5.064c-57.6-14.668-111.932-16.844-164.77-5.895q-2.459,2.845-4.9,5.746,5.889-.937,11.812-1.662c48.9-6,99.639-1.42,153.491,13.74,164.351,46.273,292.353,76.879,394.571,94.166v.926c-102.275-17.289-230.367-47.91-394.819-94.209-53.1-14.953-103.479-19.637-152.424-13.629q-6.883.853-13.728,1.973-2.459,2.933-4.9,5.918c52.986-6.26,108.03-.395,166.719,17.631,158.524,48.674,289.92,79.732,399.155,94.26v.975c-109.315-14.527-240.8-45.6-399.441-94.314-58.48-17.959-113.671-23.887-167.233-17.311-.081.014-.157.023-.233.033-1.644,2.01-3.283,4.051-4.917,6.1,53.414-4.227,108.925,3.422,168.082,23.02q233.878,77.481,403.744,94.3v1.018q-169.676-16.787-404.058-94.354c-59.047-19.564-114.739-27.289-168.734-22.766q-2.473,3.129-4.936,6.313c53.829-2.244,109.8,7.139,169.406,28.256,155.939,55.258,293.153,87.07,408.323,94.7v1.066c-115.283-7.621-252.617-39.457-408.68-94.756-59.513-21.09-115.62-30.572-169.945-28.1q-2.487,3.231-4.96,6.518c54.244-.3,110.636,10.76,170.678,33.355,158.434,59.617,296.414,91.451,412.906,95.438v.764c-.079,0-.159-.006-.238-.008-116.864-3.975-255.841-35.99-413.059-95.15-59.971-22.566-116.483-33.76-171.107-33.307q-2.5,3.337-4.994,6.738c54.639,1.582,111.456,14.285,171.908,38.295,160.023,63.564,299.581,95.547,417.49,95.861v.885q-11.164-.026-22.581-.43c-113.309-4-246.321-36.041-395.338-95.23-60.419-24-117.307-36.861-172.222-38.361q-2.516,3.445-5.013,6.947c55.02,3.42,112.232,17.715,173.08,43.1,161.811,67.51,302.972,99.664,422.074,96.367v1.027q-21.293.595-43.484-.314c-109.683-4.5-237.215-36.779-379.057-95.955-60.833-25.383-118.117-39.863-173.29-43.275q-2.523,3.545-5.036,7.162c55.378,5.217,113,21.061,174.209,47.764,163.784,71.457,306.534,103.83,426.658,96.992v1.264c-120.327,6.844-263.206-25.568-427.163-97.1-61.257-26.723-118.879-42.779-174.314-48.041q-2.53,3.645-5.051,7.367c55.73,6.961,113.719,24.3,175.286,52.285,165.9,75.406,310.224,108.041,431.242,97.744v1.318c-121.23,10.287-265.731-22.387-431.785-97.861-61.215-27.828-119.5-45.172-175.753-52q-2.3,3.416-4.6,6.891c56.064,8.666,114.415,27.465,176.32,56.684,168.083,79.336,314.01,112.273,435.821,98.609v1.371c-122.046,13.656-268.144-19.324-436.4-98.748-61.605-29.074-120.194-47.92-176.668-56.506-1.558,2.363-3.1,4.73-4.655,7.133,56.616,10.363,115.439,30.666,177.321,60.914,170.341,83.254,317.87,116.527,440.4,99.582v1.43q-3.2.442-6.428.838c-121.5,14.924-267.039-18.684-434.6-100.576-61.967-30.291-120.866-50.58-177.54-60.887q-2.33,3.624-4.651,7.3c56.688,11.926,115.692,33.512,178.226,65.078,172.664,87.168,321.77,120.816,444.988,100.664v1.484q-8.063,1.313-16.272,2.322c-120.261,14.771-264.051-19.7-429.374-103.16-62.32-31.457-121.5-53.156-178.369-65.121q-2.28,3.63-4.55,7.314c56.993,13.508,116.263,36.484,179,69.271,175.038,90.648,325.729,124.523,449.567,101.311v1.539q-12.239,2.285-24.825,3.832c-119.256,14.652-261.721-20.547-425.438-105.338-62.573-32.7-122-55.826-179.046-69.414q-2.344,3.823-4.684,7.7c57.26,15.033,116.821,39.291,179.846,73.146,177.409,94.566,329.672,128.9,454.147,102.646v1.6c-124.786,26.205-277.294-8.2-454.885-102.867-62.906-33.787-122.582-58.217-179.808-73.365q-2.344,3.9-4.679,7.863c57.507,16.51,117.345,42.016,180.642,76.891,179.8,98.459,333.633,133.283,458.73,104.074v1.658a374.6,374.6,0,0,1-39.186,6.914c-117.883,14.48-258.643-22.691-420.325-111.227q-94.123-51.861-180.856-76.615-2.23,3.8-4.45,7.648c58.141,18.105,118.822,44.947,181.5,80.32,182.189,102.328,337.594,137.668,463.314,105.58v1.721a363.716,363.716,0,0,1-45.214,8.439c-117.459,14.434-257.752-23.768-418.92-114.285q-94.574-53.385-181.519-80.322-2.194,3.823-4.384,7.7,87.319,29.147,182.143,83.943c184.579,106.17,341.563,142.049,467.893,107.166v1.779a354.016,354.016,0,0,1-50.632,9.949c-117.173,14.389-257.209-24.85-418.119-117.408q-94.988-54.826-182.147-83.9-2.173,3.867-4.336,7.777,87.519,31.2,182.757,87.412c186.971,109.986,345.526,146.426,472.477,108.818v1.85c-127.352,37.514-286.2.961-473.373-109.148q-95.374-56.229-182.729-87.359-2.209,4-4.4,8.063c58.751,22.176,120.061,52.422,183.444,90.547,189.371,113.785,349.487,150.813,477.061,110.559v1.9a337.112,337.112,0,0,1-59.961,12.877c-116.973,14.371-256.966-27-418.033-123.777q-95.746-57.6-183.272-90.7c-.543,1.01-1.1,2.035-1.644,3.055-.915,1.705-1.834,3.416-2.764,5.117q88.42,35.171,184.034,93.74c191.782,117.57,353.432,155.205,481.64,112.355v1.969a330.7,330.7,0,0,1-64.021,14.3c-117.007,14.365-257.19-28.084-418.6-127.027q-96.046-58.881-183.834-93.916c-58.265,106.471-137.662,197.861-229.963,264.623-84.81,61.348-176.635,99.152-267.244,110.273l-.086.014q-14.059,1.723-28.06,2.588a442.32,442.32,0,0,1-52.233.143q-1.158.158-2.316.3-1.773.214-3.531.4-5.425.979-10.812,1.645c-1.234.146-2.473.289-3.707.418q-5.232.958-10.478,1.621l-1.067.133-1.229.143q-6.247,1.245-12.432,2.021l-1.082.133c-.929.109-1.858.215-2.787.309q-6.075,1.2-12.093,1.939-1.722.208-3.445.387-6.147,1.236-12.236,1.982-1.815.229-3.621.4-5.932,1.216-11.807,1.959l-1.005.123c-1.182.145-2.363.268-3.54.383q-5.732,1.178-11.488,1.91l-1,.119c-1.334.162-2.673.3-4.012.424q-4.132.864-8.277,1.484Zm5.265-.049c.786-.053,1.572-.115,2.359-.182,1.039-.215,2.068-.437,3.1-.676-.9,0-1.787-.01-2.683-.029Q-653.217-18067.387-654.6-18066.957Zm6.013-1.992q2.187-.006,4.369-.076c1.534-.4,3.069-.834,4.6-1.281q-2.3-.094-4.6-.258C-645.676-18070-647.134-18069.469-648.587-18068.949Zm-9.62-.314c1.782.119,3.555.2,5.332.252,1.768-.576,3.545-1.186,5.308-1.828q-2.766-.258-5.527-.625Q-655.661-18070.313-658.208-18069.264Zm19.56-.043c.972-.07,1.939-.146,2.911-.232,1.015-.211,2.025-.424,3.045-.654-1.024.006-2.044.006-3.064-.008C-636.718-18069.9-637.685-18069.6-638.648-18069.307Zm6.1-1.953q2.38-.021,4.77-.115c1.463-.375,2.945-.781,4.412-1.2-1.625-.049-3.25-.119-4.87-.221C-629.671-18072.266-631.11-18071.75-632.549-18071.26Zm-9.315-.225c1.811.1,3.617.168,5.432.2q2.58-.814,5.156-1.725c-1.873-.148-3.736-.334-5.6-.549Q-639.382-18072.479-641.864-18071.484Zm19.731-.219q1.472-.114,2.949-.262c.9-.176,1.787-.367,2.683-.562-.991.014-1.973.023-2.964.014C-620.351-18072.236-621.247-18071.965-622.133-18071.7Zm-29.109-.605c2.006.244,4.007.443,6.018.6,1.839-.7,3.688-1.434,5.527-2.2q-3.095-.413-6.185-.957Q-648.568-18073.535-651.242-18072.309Zm25.373-1.377q2.852.129,5.718.152c1.644-.5,3.273-1.033,4.917-1.6q-2.909-.193-5.813-.49C-622.657-18074.953-624.258-18074.3-625.868-18073.686Zm9.639.139c1.568-.029,3.135-.076,4.708-.152q2.066-.521,4.126-1.092c-1.587-.033-3.178-.086-4.765-.162C-613.518-18074.467-614.871-18074-616.229-18073.547Zm-18.8-.83q3.052.322,6.1.52c1.777-.652,3.545-1.334,5.318-2.049-2.087-.242-4.169-.533-6.252-.857C-631.586-18075.939-633.306-18075.139-635.027-18074.377Zm31.363-.391c-.815.248-1.625.486-2.435.721.853-.072,1.7-.148,2.554-.229q1.258-.252,2.525-.525C-601.9-18074.781-602.787-18074.771-603.664-18074.768Zm-40.687-.871q3.252.536,6.509.939c1.839-.787,3.683-1.617,5.523-2.475q-1.708-.293-3.416-.623-1.651-.322-3.269-.648Q-641.686-18077-644.352-18075.639Zm34.569-.182q2.816.094,5.637.092c1.577-.473,3.145-.969,4.722-1.482q-2.873-.149-5.756-.4C-606.709-18076.992-608.248-18076.393-609.782-18075.82Zm9.349.043c1.458-.037,2.921-.09,4.379-.162,1.353-.338,2.711-.686,4.074-1.057-1.515-.01-3.026-.039-4.541-.1C-597.827-18076.635-599.133-18076.2-600.433-18075.777Zm-18.75-.633q3.159.293,6.323.457,2.544-.908,5.084-1.9c-2.139-.215-4.288-.473-6.433-.768C-615.872-18077.855-617.52-18077.121-619.183-18076.41Zm-34.569-1.082.291.063q3.459.785,6.923,1.41,2.752-1.365,5.523-2.84-3.888-.809-7.562-1.678C-650.312-18079.488-652.032-18078.475-653.753-18077.492Zm65.755.477q-1.194.357-2.387.686,1.172-.1,2.344-.215c.872-.166,1.739-.342,2.611-.527C-586.286-18077.049-587.139-18077.025-588-18077.016Zm-40.33-.49q3.288.483,6.58.842c1.763-.729,3.526-1.5,5.284-2.287-.443-.066-.886-.133-1.329-.205q-2.773-.448-5.456-.918Q-625.792-18078.747-628.327-18077.506Zm-9.363-1.654c.705.139,1.42.277,2.135.414,1.587.311,3.173.592,4.765.854,1.753-.834,3.5-1.7,5.256-2.592q-3.752-.686-7.309-1.42C-634.464-18080.961-636.08-18080.051-637.69-18079.16Zm43.57,1.221c1.811.033,3.612.043,5.422.018,1.406-.4,2.816-.838,4.227-1.285q-2.723-.114-5.442-.311C-591.323-18078.975-592.719-18078.449-594.12-18077.939Zm9.415-.072c1.468-.053,2.916-.123,4.379-.209,1.091-.268,2.192-.539,3.283-.824q-2.151,0-4.3-.059C-582.465-18078.727-583.585-18078.365-584.7-18078.012Zm-18.593-.361q3.145.234,6.285.352c1.563-.543,3.135-1.105,4.7-1.687-2.116-.18-4.222-.4-6.333-.656Q-600.965-18079.337-603.3-18078.373Zm-9.377-.959c2.268.295,4.512.539,6.776.744,1.663-.662,3.316-1.354,4.979-2.068q-3.581-.472-7.014-.977C-609.511-18080.842-611.093-18080.08-612.674-18079.332Zm39.672.244c-.5.143-1,.281-1.5.414.905-.086,1.82-.176,2.721-.277l1.02-.2C-571.506-18079.127-572.254-18079.107-573-18079.088Zm-74.4-2.164q3.738.864,7.7,1.682c1.634-.881,3.273-1.8,4.917-2.74q-4.138-.885-8.01-1.834Q-645.1-18082.656-647.4-18081.252Zm25.483.48c1.4.244,2.826.477,4.274.711.9.148,1.815.285,2.716.414q2.437-1.113,4.87-2.311-3.81-.586-7.433-1.225Q-619.708-18081.945-621.918-18080.771Zm42.941.863c1.715.02,3.435.02,5.156-.01,1.358-.377,2.721-.777,4.083-1.191q-2.63-.079-5.256-.232Q-576.988-18080.606-578.977-18079.908Zm-9.068-.348c1.982.129,3.964.219,5.951.281,1.482-.5,2.973-1.006,4.465-1.545q-2.137-.149-4.269-.357c-.6-.057-1.2-.113-1.787-.176Q-585.872-18081.124-588.045-18080.256Zm18.24.232c1.325-.051,2.654-.113,3.979-.2,1.115-.256,2.22-.523,3.34-.8q-2.037.012-4.069-.016Q-568.185-18080.518-569.8-18080.023Zm-27.3-1.033q3.331.378,6.671.635,2.316-.888,4.631-1.846-3.567-.369-7-.785Q-594.949-18082.03-597.1-18081.057Zm38.729-.033c-.538.143-1.086.291-1.625.434.124-.01.243-.023.367-.033.791-.143,1.572-.285,2.363-.439C-557.635-18081.113-558-18081.1-558.374-18081.09Zm-73.289-1.506q3.631.735,7.462,1.42c1.5-.777,3.011-1.582,4.508-2.4q-4.01-.735-7.786-1.533Q-629.573-18083.825-631.663-18082.6Zm25.073.285q3.352.486,6.852.939c.124.01.238.029.357.043q2.2-.973,4.4-2-3.9-.5-7.629-1.049C-603.94-18083.668-605.26-18082.982-606.59-18082.311Zm-50.851-1.463q3.924,1.072,8.143,2.078,2.33-1.415,4.684-2.9-4.324-1.093-8.32-2.281Q-655.2-18085.285-657.441-18083.773Zm93.4,1.916c1.687,0,3.383-.023,5.079-.076,1.144-.3,2.287-.629,3.435-.957q-2.516-.05-5.036-.162Q-562.31-18082.437-564.044-18081.857Zm-9.039-.209q2.909.144,5.827.186c1.329-.424,2.664-.857,3.993-1.314-.229-.016-.462-.029-.7-.043-1.768-.109-3.521-.229-5.246-.354Q-571.148-18082.8-573.083-18082.066Zm18.283-.033c1.048-.053,2.1-.109,3.154-.182q1.286-.287,2.578-.586c-1.067.01-2.13.014-3.2.01Q-553.537-18082.465-554.8-18082.1Zm-27.336-.615.314.029q3.038.284,6.094.477c1.363-.506,2.735-1.025,4.112-1.568q-3.474-.272-6.819-.586Q-580.285-18083.52-582.136-18082.715Zm52.519-1.344q-3.452.615-6.89,1.1a448.5,448.5,0,0,0,50.818-.268c200.807-12.359,406.2-160.176,525.081-377.3-3.536-1.41-7.038-2.777-10.554-4.131-54.077,94.2-122.939,177.793-199.311,241.891-39.105,32.824-79.936,60.375-121.352,81.875-42.641,22.137-85.921,37.861-128.647,46.748-36.914,7.533-72.827,10.83-107.039,9.844C-528.212-18084.211-528.912-18084.135-529.618-18084.059Zm-86.678.209q3.7.639,7.6,1.225c1.348-.672,2.692-1.357,4.045-2.062-2.687-.42-5.313-.857-7.876-1.33C-613.789-18085.277-615.043-18084.559-616.3-18083.85Zm71.454.883c-.233.057-.477.119-.71.18.772-.076,1.544-.156,2.32-.242C-543.769-18083.01-544.3-18082.986-544.841-18082.967Zm-46.6-.744c2.349.277,4.76.539,7.209.787,1.263-.529,2.521-1.078,3.783-1.635-2.583-.258-5.127-.539-7.6-.834C-589.179-18084.82-590.3-18084.264-591.437-18083.711Zm-50.289-1.119q3.938.949,8.134,1.834,2.116-1.228,4.245-2.52-4.31-.943-8.334-1.982Q-639.711-18086.133-641.726-18084.83Zm83.071,1.086c1.863.066,3.736.105,5.6.119.229-.066.457-.139.686-.205q-2.394-.22-4.789-.467C-557.659-18084.111-558.159-18083.926-558.655-18083.744Zm9.43-.066c.605.053,1.21.1,1.815.148.6-.016,1.177-.029,1.773-.049,1.039-.262,2.082-.533,3.116-.814-1.163-.014-2.33-.043-3.5-.076-.248,0-.491-.014-.734-.02Q-548-18084.205-549.225-18083.811Zm-18.383-.434c1.22.086,2.449.166,3.7.242.853.053,1.706.1,2.564.145.629-.221,1.267-.449,1.9-.678q-2.938-.313-5.866-.676C-566.083-18084.883-566.846-18084.564-567.608-18084.244Zm28.427-.262c-.743.215-1.487.418-2.23.623,1.4-.066,2.8-.156,4.193-.256q.943-.2,1.887-.41Q-537.261-18084.514-539.181-18084.506Zm-62.215-.52q3.8.557,7.791,1.053c1.148-.549,2.306-1.109,3.455-1.682-2.754-.348-5.432-.725-8.053-1.125Q-599.8-18085.886-601.4-18085.025Zm44.733.543c1.639.162,3.278.314,4.908.457.734-.223,1.463-.457,2.2-.691-1.977-.07-3.922-.152-5.847-.242C-555.825-18084.8-556.244-18084.641-556.663-18084.482Zm-69.744-1.291q3.838.8,7.919,1.533c1.277-.705,2.564-1.434,3.836-2.172q-4.153-.794-8.091-1.678Q-624.58-18086.909-626.407-18085.773Zm49.364.771c2.306.209,4.646.4,7.038.586.853-.348,1.715-.7,2.573-1.057-1.391-.178-2.787-.363-4.174-.553-.92-.078-1.844-.158-2.749-.244Q-575.7-18085.625-577.043-18085Zm52.852.285q50.06,1.181,103.646-9.777c168.334-35.012,335.992-173.332,449.043-370.289-3.493-1.338-6.938-2.639-10.411-3.922-.057.1-.114.191-.172.281-58.88,97.553-130.029,183.221-205.753,247.746-39.863,33.969-80.855,61.977-121.838,83.248-43.065,22.348-86.373,37.371-128.728,44.652q-13.2,2.271-25.916,3.83a444.574,444.574,0,0,1-54.6,3.455C-520.669-18085.217-522.437-18084.955-524.19-18084.717Zm-40.726-.666q2.988.357,5.956.666c.338-.123.677-.242,1.015-.371-2.273-.119-4.517-.258-6.714-.4C-564.744-18085.455-564.83-18085.416-564.916-18085.383Zm-21.9-.639c2.535.3,5.137.576,7.781.828.915-.414,1.83-.832,2.745-1.262q-4.088-.4-8-.881C-585.138-18086.889-585.972-18086.455-586.82-18086.021Zm50.165.771c1.63-.023,3.25-.066,4.884-.129l1.225-.3q-2.1-.064-4.193-.152C-535.383-18085.631-536.012-18085.439-536.655-18085.25Zm-115.063-2.482c-.086.057-.172.119-.253.176q4.045,1.181,8.424,2.279c1.363-.873,2.726-1.77,4.1-2.684q-4.438-1.187-8.529-2.479Q-649.845-18089.065-651.718-18087.732Zm40.273,1.072q3.9.7,8.01,1.33c1.086-.572,2.168-1.158,3.254-1.754-2.8-.447-5.522-.924-8.181-1.434Q-609.906-18087.574-611.445-18086.66Zm57.689,1.063c2.02.09,4.088.166,6.171.238a.163.163,0,0,1,.048-.02q-2.78-.22-5.551-.48C-553.313-18085.773-553.537-18085.684-553.757-18085.6Zm10-.057c1.42.1,2.835.2,4.265.285.677-.189,1.344-.385,2.025-.586l-1.353-.07c-1.234-.02-2.463-.043-3.679-.072C-542.921-18085.949-543.345-18085.8-543.76-18085.654Zm15.748.1c.219-.01.424-.025.643-.033l-.462-.016C-527.893-18085.588-527.95-18085.574-528.012-18085.559Zm-39.024-.082a.411.411,0,0,0,.043-.02c-.167-.008-.324-.023-.491-.037C-567.337-18085.674-567.189-18085.654-567.036-18085.641Zm3.807-.471c2.282.146,4.593.281,6.952.395l.953-.361q-3.209-.322-6.409-.7C-562.233-18086.551-562.734-18086.332-563.229-18086.111ZM5.265-18469.152c-63.959,100.086-136.767,186.693-210.551,250.447-40.573,35.061-81.723,63.521-122.3,84.592-43.389,22.527-86.707,36.895-128.747,42.7q-4.353.6-8.648,1.125-22.278,2.736-42.913,3.449-2.266.328-4.522.615l-1.239.152c-.753.09-1.51.176-2.263.256a455.832,455.832,0,0,0,51.189-3.486c8.629-1.064,17.363-2.355,26.259-3.885,160.281-27.561,330.76-167.914,456.033-375.449.043-.072.091-.143.133-.219-3.421-1.258-6.852-2.5-10.249-3.7C6.718-18471.426,5.994-18470.291,5.265-18469.152Zm-531.714,383.178c-.143.039-.291.082-.438.119.534.01,1.063.02,1.6.025.281-.059.572-.115.858-.178C-525.105-18085.992-525.777-18085.984-526.449-18085.975Zm-25.473-.352q2.866.264,5.737.49c.329-.109.653-.225.982-.338q-3.3-.094-6.514-.238C-551.784-18086.383-551.855-18086.355-551.922-18086.326Zm22.314.414c.057-.02.114-.033.172-.047-.6,0-1.21,0-1.806,0C-530.7-18085.945-530.151-18085.926-529.608-18085.912Zm-107.105-2.24c2.716.691,5.523,1.35,8.439,1.979,1.244-.758,2.482-1.535,3.736-2.33q-4.388-1.022-8.515-2.174Q-634.891-18089.389-636.713-18088.152Zm63.607,1.277c2.478.225,4.984.424,7.557.605q.872-.372,1.744-.758c-.729-.09-1.463-.18-2.192-.271q-2.673-.22-5.279-.477C-571.882-18087.471-572.5-18087.17-573.107-18086.875Zm-24.006-.514q4,.6,8.2,1.119c.867-.437,1.72-.877,2.583-1.324q-4.26-.551-8.324-1.2Q-595.888-18088.083-597.112-18087.389Zm64.874.768c1.377,0,2.759,0,4.16-.006.315,0,.619,0,.934,0-1.6-.02-3.192-.053-4.784-.1C-532.033-18086.689-532.134-18086.66-532.238-18086.621Zm-8.558-.1c1.834.039,3.7.063,5.584.082.176-.057.353-.109.534-.168q-2.666-.085-5.3-.213C-540.253-18086.922-540.524-18086.822-540.8-18086.723Zm-9.477-.275c2.235.09,4.5.162,6.8.219.319-.113.643-.229.967-.348-2.316-.066-4.593-.152-6.852-.252C-549.659-18087.25-549.969-18087.127-550.273-18087Zm27.484,0-.462.133c.953,0,1.92,0,2.873-.014l.762-.172C-520.679-18087.027-521.737-18087.012-522.79-18087Zm-8.482.057c1.763.039,3.531.057,5.3.072.114-.033.234-.062.343-.1-1.887.014-3.759.023-5.613.014A.072.072,0,0,1-531.271-18086.941Zm16.229-.219c-.2.047-.4.1-.591.143l1.653-.1c.162-.033.324-.062.486-.09C-514.008-18087.193-514.527-18087.18-515.042-18087.16Zm-68.09-.791c.262.043.519.08.777.123q3.588.422,7.324.777c.634-.3,1.253-.6,1.887-.91q-4.174-.428-8.2-.957C-581.936-18088.59-582.537-18088.271-583.132-18087.951Zm-38.619-.781q3.974.885,8.2,1.682c1.053-.615,2.092-1.229,3.145-1.867-2.849-.572-5.613-1.172-8.3-1.816C-619.722-18090.057-620.741-18089.391-621.752-18088.732Zm61.629,1.229q2.816.179,5.708.324c-1.749-.172-3.493-.348-5.232-.543C-559.8-18087.65-559.965-18087.574-560.122-18087.5Zm.748-.342q3.416.363,6.857.662c.257-.105.519-.211.777-.314q-3.752-.193-7.4-.459C-559.212-18087.922-559.293-18087.885-559.374-18087.846ZM-7.39-18469.891c-70.8,104.813-143.276,189.99-215.406,253.168-84.467,73.99-167.248,116.377-246.13,126.064-1.787.219-3.559.42-5.337.609q-12.058,1.26-23.5,1.955c-1.02.137-2.039.271-3.059.395s-2.02.244-3.026.354c15.243-.725,31-2.254,47.449-4.527,153.358-21.17,321.482-158.775,461.27-377.531q1.065-1.658,2.125-3.312c-3.359-1.191-6.742-2.363-10.087-3.5Q-5.239-18473.069-7.39-18469.891Zm-562.557,381.453c1.158.162,2.316.324,3.474.477q2.03.164,4.093.3c.224-.1.453-.2.677-.3q-2.809-.328-5.6-.7c-.619-.061-1.234-.123-1.849-.186C-569.419-18088.705-569.686-18088.57-569.948-18088.437Zm-37.438-.682q4.031.765,8.3,1.43c.829-.463,1.677-.939,2.506-1.41q-4.288-.715-8.367-1.539Q-606.168-18089.868-607.385-18089.119Zm498.722-386.613c-44.814,43.908-88.541,92.82-130.83,140.117-97.923,109.52-191.7,214.387-288.91,247.717,2.063,0,4.136-.016,6.237-.043,37.709-10.992,77.134-33.359,120.166-67.8,64.788-51.865,127.685-122.91,194.274-198.115,36.142-40.82,73.513-83.033,111.1-121.748q10.714-11.027,21.323-21.26-4.438-1.022-8.853-1.979Q-96.368-18487.782-108.663-18475.732Zm-12.665-.729c-51.623,48.135-100.944,102.959-148.646,155.969-62.925,69.939-122.358,135.994-182.481,182.371-29.919,23.076-57.984,39.7-84.934,50.117.081,0,.176.006.257.01,1.954.043,3.912.066,5.9.08,97.9-32.262,192.354-137.914,291.059-248.312,42.3-47.311,86.035-96.227,130.873-140.158q12.079-11.845,24.034-22.7c-2.907-.623-5.794-1.225-8.686-1.8Q-107.6-18489.265-121.328-18476.461Zm25.325,1.453c-37.576,38.7-74.942,80.9-111.079,121.719-66.613,75.238-129.534,146.3-194.379,198.215-34.855,27.9-66.918,47.539-98.019,60.014q-10.092,4.052-19.974,7.07c1.382-.023,2.768-.057,4.169-.1,44.266-11.064,90.89-36.918,141-78.01,67.785-55.588,135.809-133.537,201.6-208.912,29.023-33.26,59.032-67.648,88.746-99.82q9.377-10.143,18.664-19.65-4.517-1.116-9.015-2.154Q-85.11-18486.222-96-18475.008Zm-465.444,386.932c.038-.014.081-.033.114-.047-.648-.057-1.291-.109-1.93-.162Q-562.355-18088.177-561.447-18088.076Zm427.454-389.115c-58.141,51.6-112.456,111.748-164.984,169.916-61.353,67.947-119.3,132.127-177.492,176.359-24.587,18.688-47.887,32.8-70.344,42.459,2.306.145,4.612.264,6.957.357,27.513-10.314,56.183-27.154,86.812-50.783,60.057-46.32,119.461-112.352,182.357-182.252,47.711-53.029,97.047-107.869,148.7-156.031q13.487-12.574,26.807-23.963c-2.854-.568-5.68-1.105-8.52-1.625Q-118.794-18490.684-133.993-18477.191Zm50.656,2.912c-29.709,32.164-59.714,66.547-88.732,99.8-65.813,75.4-133.86,153.377-201.693,209.008-36.513,29.938-70.125,51.27-102.75,65.207a258.1,258.1,0,0,1-34.407,12.031c1.053-.039,2.125-.08,3.183-.129,129.958-27.7,253.607-172.389,373.7-312.891,20.608-24.111,41.917-49.041,62.782-72.8q8.062-9.185,16.067-17.867-4.6-1.2-9.163-2.336Q-73.813-18484.589-83.338-18474.279Zm-509.748,384.574q4.038.759,8.048,1.434c.572-.3,1.148-.6,1.72-.914q-4.31-.586-8.453-1.3C-592.209-18090.225-592.652-18089.963-593.086-18089.705Zm-.586.344q3.6.557,7.362,1.049-3.323-.58-6.623-1.211c-.119-.02-.233-.043-.353-.066Zm522.994-384.189c-20.865,23.754-42.174,48.684-62.777,72.793-118.846,139.045-241.2,282.182-369.832,312.188.586-.029,1.158-.062,1.744-.1,59.337-10.535,122.153-45.348,190.705-105.467,75.99-66.65,149.56-155.363,220.7-241.16,10.373-12.508,21.1-25.439,31.567-37.98q6.776-8.127,13.537-15.9c-3.107-.867-6.228-1.711-9.32-2.525Q-62.5-18482.866-70.678-18473.551Zm-75.981-4.363c-64.464,54.424-123.282,119.475-180.161,182.385-59.914,66.266-116.506,128.852-172.961,171.217-19.669,14.762-38.5,26.445-56.726,35.123,2.463.223,4.936.418,7.433.59,22.957-9.648,46.791-23.973,71.993-43.127,58.113-44.17,116.03-108.314,177.349-176.225,52.547-58.193,106.881-118.369,165.065-170q14.9-13.225,29.623-25.055-4.181-.759-8.343-1.453Q-129.967-18492.013-146.659-18477.914ZM-647.1-18091.082q4.131,1.295,8.615,2.473,1.858-1.251,3.731-2.549-4.46-1.286-8.615-2.721C-644.609-18092.936-645.857-18092-647.1-18091.082Zm67.561,1.168c2.606.438,5.241.848,7.862,1.229.238-.113.462-.229.705-.348q-4.217-.463-8.3-1.029Zm11.445.533c1.653.166,3.331.324,5.017.473-.2-.025-.405-.049-.61-.072-1.444-.143-2.873-.295-4.3-.457C-568.018-18089.418-568.051-18089.4-568.089-18089.381Zm-62.735-2.873-1.325.939q4.146,1.148,8.6,2.176c1.029-.662,2.068-1.338,3.1-2.02q-4.46-1.107-8.629-2.354C-629.661-18093.088-630.243-18092.674-630.824-18092.254Zm50.351,2.859c.424.057.867.109,1.291.162-.405-.066-.805-.139-1.21-.205C-580.421-18089.424-580.445-18089.41-580.473-18089.395Zm522.456-383.422c-10.468,12.541-21.194,25.473-31.567,37.977-71.164,85.82-144.753,174.557-220.786,241.242-41.092,36.041-79.011,62.338-115.93,80.4-23.224,11.359-45.667,19.3-67.714,23.9,67.771-10.307,139.4-50.475,217.865-121.963,83.443-76.018,164.851-178.711,230.268-261.23q5.561-7.011,11.083-13.76c-3.159-.924-6.323-1.83-9.468-2.707Q-51.127-18481.081-58.017-18472.816Zm-101.306-5.822c-70.659,56.74-133.569,126.355-194.412,193.678-58.584,64.822-113.919,126.055-168.806,166.781a334.392,334.392,0,0,1-43.875,27.932c2.583.314,5.208.605,7.829.863,18.674-8.721,37.967-20.623,58.165-35.781,56.378-42.3,112.937-104.855,172.813-171.078,56.9-62.934,115.744-128.014,180.265-182.486q16.346-13.793,32.487-25.973-4.088-.671-8.162-1.287Q-141.124-18493.267-159.324-18478.639ZM-617.83-18091.32q4.081.958,8.4,1.811c.829-.5,1.668-1.02,2.5-1.539q-4.324-.914-8.42-1.953C-616.181-18092.436-617-18091.877-617.83-18091.32Zm39.539.715q4.131.565,8.4,1.033c.048-.027.1-.047.143-.07q-4.181-.5-8.272-1.115C-578.115-18090.705-578.2-18090.658-578.291-18090.605Zm-12.751-.314q4.2.694,8.586,1.271c.067-.037.133-.07.2-.109q-4.11-.706-8.2-1.51C-590.651-18091.154-590.851-18091.035-591.042-18090.92Zm-13.022-.281q4.131.823,8.472,1.529c.167-.09.314-.176.481-.271q-4.131-.814-8.239-1.711C-603.588-18091.506-603.826-18091.354-604.064-18091.2Zm.858-.547q4.16.891,8.286,1.691c.424-.244.862-.5,1.291-.754q-4.31-.765-8.453-1.662C-602.459-18092.23-602.83-18091.986-603.207-18091.748Zm557.845-380.34c-65.431,82.537-146.859,185.26-230.34,261.313-75.3,68.6-144.367,108.41-209.76,120.689,71.426-9.73,145.972-50.2,227.047-123.119,83.748-75.324,160.848-172.953,225.222-258.52q4.36-5.8,8.71-11.428-4.832-1.485-9.625-2.9Q-39.725-18479.2-45.362-18472.088Zm-536.031,381.859c.071-.039.133-.072.2-.109q-3.431-.5-6.757-1.078Q-584.678-18090.792-581.393-18090.229Zm409.4-389.135c-76.762,58.613-143.433,132.535-207.907,204.023-69.162,76.7-132.7,147.135-196.533,183.682q4.11.65,8.3,1.191c69.477-35.789,138.253-111.895,213.572-195.242,60.871-67.355,123.816-137,194.541-193.8q17.8-14.294,35.389-26.721c-2.664-.391-5.313-.768-7.967-1.119Q-152.236-18494.452-171.994-18479.363Zm151.948,8.738c-78.911,110.637-150.98,194.336-220.324,255.895-41.9,37.186-83.319,66.541-123.12,87.24-37.619,19.568-74.837,31.957-110.884,36.938.019,0,.033-.006.057-.006,80.36-8.385,164.889-50.959,251.181-126.545,72.1-63.154,144.543-148.3,215.321-253.072,1.41-2.088,2.811-4.146,4.222-6.209q-4.975-1.687-9.93-3.293Q-16.782-18475.2-20.046-18470.625Zm-12.66-.729c-64.388,85.588-141.513,183.248-225.3,258.605-42.512,38.232-84.057,68.027-123.482,88.561-32.7,17.029-65,28.25-96.4,33.529,74.914-9.41,154.611-51.236,237.139-124.5,69.315-61.525,141.355-145.2,220.243-255.795q3.209-4.5,6.418-8.914c-3.273-1.059-6.518-2.088-9.778-3.1Q-28.272-18477.242-32.706-18471.354Zm-556.1,379.08.091.016c2.783.5,5.627.961,8.505,1.381.1-.053.2-.115.3-.172q-4.3-.671-8.491-1.473C-588.54-18092.436-588.664-18092.359-588.807-18092.273Zm-12.66-.6q4.188.885,8.558,1.639l.658-.391q-4.2-.844-8.391-1.787C-600.915-18093.23-601.191-18093.049-601.467-18092.873Zm-13.089-.682c2.764.7,5.594,1.344,8.51,1.953.253-.162.505-.318.762-.48q-4.267-.952-8.51-2C-614.052-18093.9-614.3-18093.727-614.557-18093.555Zm-42.87-1.148c2.754,1.076,5.632,2.105,8.663,3.088q1.894-1.395,3.793-2.83-4.467-1.594-8.605-3.383Q-655.506-18096.243-657.426-18094.7Zm29.147.615q4.21,1.242,8.71,2.344c.843-.557,1.677-1.119,2.525-1.7q-4.474-1.178-8.7-2.52C-626.588-18095.332-627.436-18094.7-628.279-18094.088Zm-14.252-.43c2.783.957,5.67,1.863,8.686,2.727.743-.52,1.482-1.045,2.225-1.578.3-.209.605-.428.9-.643q-4.489-1.389-8.667-2.945Q-640.959-18095.721-642.531-18094.518Zm457.868-385.574c-82.819,60.094-156.107,141.641-220.772,213.586-63.73,70.916-122.558,136.371-181.38,173q4.238.835,8.534,1.543c64.112-36.227,127.952-107.023,197.519-184.158,64.507-71.529,131.211-145.5,208.064-204.176q19.262-14.707,38.324-27.293c-2.6-.344-5.175-.662-7.767-.967Q-163.348-18495.56-184.663-18480.092ZM-613.7-18094.146q4.288,1.037,8.553,1.979c.381-.248.758-.486,1.144-.729q-4.324-.981-8.482-2.1C-612.889-18094.713-613.294-18094.428-613.7-18094.146Zm26,1.191c.953.178,1.915.354,2.873.52q-1.422-.264-2.84-.543Zm-11.369-1.5q4.231.973,8.482,1.83l.4-.244q-4.3-.85-8.5-1.838C-598.813-18094.623-598.937-18094.541-599.066-18094.455Zm-.119.08c1.963.443,3.936.863,5.947,1.264q-2.945-.63-5.88-1.307C-599.142-18094.4-599.166-18094.389-599.185-18094.375Zm-12.779-.986q4.188,1.107,8.567,2.074c.291-.191.567-.367.858-.559q-4.317-.993-8.61-2.092Q-611.557-18095.645-611.965-18095.361Zm13.909.234q4.231.987,8.577,1.83a.306.306,0,0,1,.052-.033c-2.859-.582-5.7-1.211-8.515-1.873C-597.98-18095.18-598.018-18095.15-598.056-18095.127Zm400.723-385.689c-88.851,61.225-165.489,146.9-233.108,222.482-55.058,61.553-107.062,119.689-157.942,156.469q-4.41,3.182-8.753,6.119,4.245,1.014,8.563,1.891c59.056-36.4,118.155-102.158,182.233-173.461,64.7-71.992,138.039-153.586,220.962-213.758q20.749-15.053,41.293-27.7c-2.516-.285-5.041-.553-7.548-.8Q-174.44-18496.595-197.333-18480.816Zm-427.687,384.322c2.84.891,5.756,1.725,8.772,2.51.248-.17.5-.348.753-.52q-4.524-1.128-9.025-2.367C-624.687-18096.748-624.854-18096.623-625.02-18096.494Zm.557-.42q4.539,1.236,9.058,2.35c.419-.291.848-.586,1.272-.883q-4.467-1.242-8.748-2.662C-623.41-18097.705-623.934-18097.311-624.463-18096.914Zm-14.2-.609q4.21,1.55,8.739,2.939,1.286-.937,2.583-1.887-4.489-1.474-8.715-3.127C-636.928-18098.9-637.79-18098.211-638.662-18097.523Zm29.009.52q4.217,1.172,8.591,2.2c.024-.014.048-.033.071-.047q-4.331-1.028-8.629-2.178C-609.63-18097.023-609.644-18097.014-609.654-18097Zm.057-.049q4.317,1.146,8.658,2.164c.129-.086.267-.176.4-.262q-4.331-1.052-8.558-2.26C-609.263-18097.285-609.43-18097.172-609.6-18097.053Zm-43.194-1.42c2.764,1.191,5.642,2.32,8.658,3.393,1.063-.809,2.13-1.629,3.193-2.463q-4.474-1.717-8.61-3.635Q-651.172-18099.807-652.79-18098.473Zm44.252.658c2.835.8,5.718,1.553,8.624,2.248.043-.027.086-.057.129-.086-2.9-.709-5.761-1.461-8.61-2.262C-608.443-18097.877-608.491-18097.848-608.539-18097.814Zm-13.894-.639q4.3,1.415,8.815,2.645c.267-.186.529-.371.8-.562q-4.553-1.187-9.077-2.482C-622.08-18098.721-622.252-18098.586-622.433-18098.453Zm11.969,2.025c.477.119.953.242,1.429.361-.467-.129-.934-.256-1.4-.385A.265.265,0,0,0-610.464-18096.428ZM-210-18481.541c-94.874,62.025-174.624,151.7-244.987,230.807-53.252,59.871-103.584,116.469-152.643,152.262,2.854.807,5.756,1.568,8.658,2.283,54.248-36.275,108.773-97.232,167.591-162.988,67.666-75.639,144.357-161.373,233.332-222.678q22.235-15.316,44.271-27.936c-2.359-.225-4.722-.439-7.071-.635Q-185.5-18497.567-210-18481.541Zm-411.243,382.188c3.035.867,6.061,1.7,9.12,2.492.024-.014.048-.033.071-.049q-4.467-1.286-8.806-2.744C-620.989-18099.555-621.118-18099.459-621.247-18099.354Zm-5.375,2.344.438-.324q-3.981-1.113-7.943-2.3Q-630.467-18098.253-626.621-18097.01Zm-8.772-3.121c.319.129.648.254.967.377q4.153,1.242,8.291,2.383c.562-.42,1.129-.844,1.692-1.268q-4.481-1.523-8.777-3.254C-633.945-18101.3-634.664-18100.711-635.393-18100.131Zm24.115,2.668a.116.116,0,0,0,.019-.014c-.333-.086-.667-.182-1-.271C-611.931-18097.652-611.6-18097.557-611.278-18097.463Zm-8.853-2.758q3.445,1.157,6.976,2.211.958.264,1.916.52c.181-.129.353-.254.534-.381q-4.481-1.31-8.858-2.783C-619.755-18100.512-619.941-18100.363-620.132-18100.221Zm-28.756-1.52q4.174,1.913,8.672,3.635,1.322-1.037,2.645-2.092c-2.978-1.205-5.851-2.473-8.653-3.816Q-647.553-18102.871-648.888-18101.74Zm29.823.7q4.4,1.465,8.915,2.773c.048-.033.091-.066.138-.1q-4.5-1.3-8.948-2.758C-618.993-18101.1-619.031-18101.074-619.064-18101.045Zm396.387-381.221c-100.9,62.525-183.548,156.084-256.47,238.637-48.43,54.824-94.4,106.871-139.078,141.926q4.46,1.465,8.987,2.773c49.207-35.68,99.767-92.525,153.263-152.676,70.42-79.18,150.232-168.916,245.254-231.035q23.708-15.5,47.268-27.994c-2.268-.178-4.508-.338-6.766-.486A562.642,562.642,0,0,0-222.678-18482.266ZM-624-18098.973c.157-.119.31-.238.467-.357q-4.4-1.286-8.777-2.687Q-628.251-18100.409-624-18098.973Zm-8.234-3.727c3.116,1,6.218,1.955,9.358,2.869.157-.119.3-.234.467-.357q-4.5-1.55-8.858-3.307Zm-13.38-1.844q4.224,2.016,8.706,3.816c.729-.586,1.463-1.182,2.2-1.771q-1.587-.659-3.15-1.34c-2.044-.691-4.088-1.4-6.118-2.119C-644.528-18105.48-645.066-18105.01-645.614-18104.543Zm15.033.477q4.374,1.752,8.9,3.316l.567-.434q-4.524-1.564-8.953-3.311C-630.238-18104.348-630.409-18104.209-630.581-18104.066Zm.967-.8c2.973,1.162,5.961,2.258,9,3.3a1.1,1.1,0,0,1,.1-.076q-4.574-1.529-9.087-3.234Zm394.261-378.113c-106.934,62.725-192.292,160.1-267.6,246.021-43.756,49.916-85.473,97.508-125.946,131.49q4.524,1.717,9.115,3.256c44.8-34.984,90.967-87.246,139.611-142.318,72.989-82.619,155.707-176.264,256.775-238.889q25.18-15.6,50.26-27.879c-2.135-.133-4.284-.248-6.409-.348A545.2,545.2,0,0,0-235.352-18482.984Zm-423.456,376.15q4.06,2.323,8.458,4.412,1.344-1.137,2.692-2.293-4.374-2.156-8.482-4.555C-657.031-18108.449-657.917-18107.641-658.808-18106.834Zm15.715.1q1.522.735,3.064,1.434c2.058.715,4.131,1.41,6.194,2.082.357-.295.715-.59,1.077-.885q-4.489-1.846-8.867-3.922C-642.117-18107.6-642.608-18107.164-643.094-18106.734Zm2.106-1.863c2.93,1.383,5.894,2.688,8.915,3.926.167-.137.333-.275.505-.414q-4.689-1.723-9.32-3.6A.77.77,0,0,1-640.987-18108.6Zm-14.581-1.2q4.131,2.394,8.515,4.555c.5-.43.991-.857,1.491-1.291q-4.832-1.743-9.616-3.627C-655.311-18110.031-655.439-18109.918-655.568-18109.793Zm14.738,1.057q4.01,1.644,8.043,3.15-3.924-1.608-7.8-3.369C-640.663-18108.883-640.749-18108.807-640.83-18108.736Zm392.8-374.973c-112.98,62.648-200.874,163.783-278.422,253.016-39.215,45.119-76.762,88.322-113.18,120.891,3.054,1.314,6.118,2.559,9.215,3.754,40.578-33.949,82.456-81.727,126.394-131.85,75.385-86,160.825-183.467,267.954-246.311a548.813,548.813,0,0,1,53.352-27.584q-3.066-.129-6.123-.225A529.883,529.883,0,0,0-248.027-18483.709ZM-654.61-18110.68q4.8,1.887,9.644,3.635c.024-.023.043-.037.071-.061q-4.4-2.174-8.629-4.584C-653.886-18111.352-654.248-18111.014-654.61-18110.68Zm1.449-1.344q4.231,2.417,8.639,4.594c.481-.424.977-.857,1.458-1.287q-4.431-2.145-8.791-4.531C-652.29-18112.844-652.728-18112.434-653.162-18112.023Zm10.735,2.744c.01-.01.019-.014.029-.023-.172-.072-.338-.139-.51-.209C-642.746-18109.432-642.589-18109.355-642.426-18109.279Zm-8.834-4.531q3.552,1.937,7.185,3.727c.577.242,1.163.49,1.739.729l.3-.266q-4.531-2.1-8.987-4.408Zm390.559-370.617c-119.046,62.3-209.312,167.143-288.953,259.648-36.123,41.955-68.853,79.969-100.682,110.1q4.589,2.206,9.225,4.234c36.5-32.553,74.189-75.914,113.557-121.213,77.625-89.318,165.613-190.559,278.818-253.33a538.5,538.5,0,0,1,56.159-27.127q-2.8-.064-5.589-.1A519.475,519.475,0,0,0-260.7-18484.428Zm-396.21,373.844c.067-.062.124-.119.191-.182l-1.463-.586C-657.765-18111.094-657.341-18110.842-656.912-18110.584Zm4.269-3.984c.071-.066.138-.133.2-.2-1.463-.715-2.926-1.453-4.384-2.2Q-654.741-18115.736-652.642-18114.568ZM30.572-18467.68c-.31.539-.619,1.086-.929,1.625q5.253,2.016,10.526,4.107c.934-1.715,1.858-3.422,2.783-5.146.538-1.006,1.082-2.016,1.625-3.021q-5.218-1.966-10.407-3.85C32.968-18471.877,31.772-18469.791,30.572-18467.68Zm-11.645-2.406q5.175,1.907,10.373,3.9c.319-.557.638-1.119.958-1.678q1.78-3.129,3.569-6.227-5.132-1.866-10.235-3.637C22.033-18475.193,20.48-18472.654,18.926-18470.086Zm-10.6-3.836q5.089,1.8,10.206,3.688,2.33-3.838,4.665-7.629-5.06-1.749-10.078-3.426Q10.723-18477.636,8.324-18473.922Zm26.65-1.43c3.44,1.244,6.9,2.525,10.364,3.832q2.194-4.061,4.4-8.059-5.125-1.822-10.221-3.559Q37.25-18479.278,34.974-18475.352Zm-37.138-2.211q5,1.7,10.044,3.484,2.387-3.712,4.789-7.357-4.975-1.652-9.921-3.217Q.291-18481.137-2.163-18477.562Zm26.6-1.533q5.082,1.764,10.192,3.615,2.266-3.917,4.541-7.771-5.046-1.714-10.059-3.344Q26.769-18482.872,24.439-18479.1Zm-36.985-1.922q4.925,1.6,9.882,3.279c1.634-2.383,3.259-4.732,4.9-7.076q-4.889-1.55-9.763-3.021Q-10.037-18484.455-12.546-18481.018Zm26.555-1.629q5,1.658,10.03,3.412,2.337-3.773,4.67-7.5-4.96-1.608-9.911-3.139C17.211-18487.492,15.6-18485.062,14.009-18482.646Zm26.426-2.049q5.075,1.737,10.168,3.545,2.166-3.908,4.341-7.771c-3.364-1.119-6.695-2.2-10.044-3.264C43.413-18489.713,41.922-18487.207,40.435-18484.7Zm-63.268.4q4.846,1.509,9.725,3.088c1.672-2.291,3.335-4.551,5-6.8-3.207-.969-6.428-1.912-9.62-2.826Q-20.277-18487.589-22.833-18484.291Zm26.526-1.715q4.925,1.564,9.868,3.207,2.394-3.624,4.789-7.209-4.889-1.509-9.758-2.936C6.962-18490.656,5.322-18488.336,3.693-18486.006Zm-36.713-1.367c3.183.939,6.361,1.9,9.563,2.893,1.7-2.191,3.407-4.379,5.1-6.533-3.169-.9-6.318-1.777-9.473-2.631Q-30.421-18490.533-33.021-18487.373Zm63.106-.771c3.321,1.082,6.671,2.2,10.006,3.33q2.223-3.768,4.46-7.48c-3.312-1.049-6.585-2.059-9.882-3.055Q32.382-18491.775,30.086-18488.145Zm-36.613-1.035q4.839,1.465,9.711,3.012c1.63-2.334,3.254-4.637,4.889-6.932q-4.81-1.409-9.6-2.736Q-4.026-18492.54-6.528-18489.18Zm-36.59-1.105c3.135.883,6.256,1.777,9.411,2.707q2.587-3.152,5.179-6.256c-3.107-.834-6.228-1.654-9.32-2.439Q-40.478-18493.309-43.118-18490.285Zm62.944-1.119c3.283,1.016,6.561,2.059,9.859,3.131q2.287-3.624,4.579-7.2-4.9-1.474-9.754-2.859C22.952-18496.045,21.385-18493.725,19.827-18491.4Zm-36.494-.768c3.173.91,6.371,1.854,9.563,2.816q2.494-3.352,4.984-6.646-4.746-1.315-9.468-2.549Q-14.126-18495.393-16.668-18492.172Zm62.482-1.529q4.982,1.588,9.992,3.25,2.187-3.867,4.388-7.691-4.953-1.529-9.868-2.973C48.821-18498.666,47.315-18496.187,45.814-18493.7Zm-98.943.686q4.61,1.225,9.249,2.521,2.63-3.018,5.256-5.975-4.6-1.166-9.168-2.26Q-50.458-18495.9-53.129-18493.016Zm62.811-1.457q4.839,1.421,9.7,2.926,2.337-3.475,4.684-6.914c-3.2-.91-6.414-1.8-9.6-2.654Q12.072-18497.819,9.682-18494.473Zm-36.385-.51q4.689,1.28,9.406,2.631,2.537-3.211,5.07-6.367-4.674-1.222-9.32-2.357Q-24.127-18498.053-26.7-18494.982Zm-36.351-.592q4.531,1.131,9.087,2.336c1.768-1.916,3.545-3.816,5.313-5.7-3.016-.713-6.013-1.4-9.015-2.072Q-60.357-18498.316-63.054-18495.574Zm98.7-1.281c3.259.982,6.552,2.006,9.825,3.045q2.251-3.729,4.512-7.4c-3.24-.953-6.485-1.873-9.711-2.77Q37.952-18500.445,35.641-18496.855Zm-36.018-.5c3.178.887,6.347,1.791,9.539,2.73,1.587-2.23,3.183-4.441,4.77-6.633-3.145-.844-6.3-1.668-9.434-2.459Q2.068-18500.564-.376-18497.355Zm-36.28-.258q4.617,1.187,9.249,2.439c1.72-2.049,3.431-4.068,5.146-6.08-3.069-.752-6.118-1.471-9.172-2.172C-33.168-18501.51-34.917-18499.566-36.656-18497.613Zm-36.251-.348c2.964.7,5.947,1.416,8.929,2.158q2.68-2.736,5.356-5.412c-2.964-.658-5.908-1.287-8.858-1.9C-69.286-18501.416-71.1-18499.689-72.908-18497.961Zm98.443-1.867c3.221.92,6.461,1.873,9.7,2.85q2.309-3.589,4.622-7.119c-3.2-.887-6.409-1.744-9.6-2.574C28.675-18504.4,27.117-18502.135,25.535-18499.828Zm-35.908-.238c3.14.824,6.252,1.668,9.406,2.545,1.615-2.131,3.24-4.256,4.855-6.348-3.111-.787-6.228-1.549-9.32-2.277Q-7.9-18503.138-10.373-18500.066Zm-36.151-.006q4.531,1.1,9.091,2.26,2.6-2.924,5.2-5.795-4.524-1.037-9.02-1.992Q-43.887-18502.86-46.524-18500.072Zm-36.156-.1q4.367.958,8.758,1.977,2.695-2.587,5.389-5.127-4.36-.894-8.7-1.715Q-79.952-18502.633-82.68-18500.176Zm133.9-2.393q4.9,1.45,9.811,2.979,2.223-3.853,4.455-7.643-4.86-1.389-9.7-2.684C54.258-18507.477,52.743-18505.041,51.218-18502.568Zm-35.665-.043q4.753,1.286,9.535,2.654,2.359-3.445,4.722-6.828-4.732-1.236-9.439-2.383Q17.961-18505.916,15.553-18502.611Zm-35.813.023q4.617,1.137,9.249,2.354,2.466-3.059,4.932-6.064-4.6-1.087-9.172-2.092C-16.915-18506.475-18.593-18504.531-20.26-18502.588Zm-36.056.234c2.973.672,5.937,1.357,8.929,2.076,1.753-1.857,3.5-3.687,5.246-5.512-2.954-.625-5.918-1.23-8.858-1.807C-52.776-18505.861-54.539-18504.121-56.316-18502.354Zm-36.07.133q4.288.864,8.591,1.8,2.7-2.443,5.408-4.846c-2.854-.533-5.689-1.049-8.529-1.539Q-89.654-18504.537-92.386-18502.221Zm-9.63-1.877c2.8.52,5.594,1.063,8.41,1.629q2.709-2.309,5.413-4.559-4.2-.715-8.358-1.373C-98.376-18506.98-100.191-18505.551-102.016-18504.1Zm35.975-.367c2.921.609,5.837,1.244,8.767,1.9q2.652-2.637,5.284-5.223c-2.9-.566-5.808-1.109-8.7-1.629C-62.468-18507.791-64.259-18506.127-66.041-18504.465Zm107.267-.977q4.81,1.345,9.644,2.773,2.28-3.7,4.565-7.344c-3.178-.848-6.371-1.676-9.535-2.473Q43.556-18508.989,41.226-18505.441Zm-35.575.238c3.111.791,6.247,1.609,9.368,2.449,1.6-2.191,3.212-4.385,4.808-6.543-3.092-.752-6.19-1.477-9.268-2.182C8.92-18509.4,7.29-18507.314,5.651-18505.2Zm-35.718.271c3.016.7,6.061,1.424,9.091,2.168q2.494-2.915,4.994-5.785-4.524-.984-9.02-1.9Q-27.532-18507.719-30.066-18504.932Zm-81.513-.877c2.74.467,5.47.953,8.219,1.463q2.709-2.165,5.4-4.27c-2.735-.424-5.451-.824-8.177-1.205C-107.944-18508.506-109.769-18507.152-111.579-18505.809Zm35.894-.6q4.288.829,8.591,1.721c1.773-1.664,3.54-3.3,5.308-4.937-2.859-.5-5.689-.99-8.534-1.457C-72.1-18509.539-73.9-18507.973-75.686-18506.4Zm35.884-.7c2.978.645,5.947,1.3,8.939,1.988q2.523-2.774,5.041-5.5c-2.964-.6-5.913-1.172-8.867-1.725C-36.385-18510.617-38.1-18508.863-39.8-18507.105Zm35.584-.523c3.073.729,6.171,1.486,9.253,2.268q2.444-3.158,4.884-6.256c-3.054-.7-6.128-1.367-9.172-2.006C-.91-18511.641-2.559-18509.648-4.217-18507.629Zm35.5-.51q4.753,1.251,9.53,2.582,2.323-3.545,4.665-7.037-4.739-1.187-9.444-2.291C34.45-18512.66,32.859-18510.4,31.282-18508.139Zm-152.357.787q4,.621,8.024,1.295,2.687-2.016,5.37-3.979-4-.551-7.991-1.043C-117.469-18509.854-119.28-18508.605-121.076-18507.352Zm35.808-.82q4.2.735,8.42,1.543,2.666-2.344,5.313-4.645c-2.787-.449-5.589-.877-8.367-1.287C-81.685-18511.117-83.481-18509.648-85.268-18508.172Zm35.813-.93q4.374.873,8.767,1.807,2.537-2.631,5.079-5.217-4.36-.809-8.705-1.545C-46.019-18512.422-47.744-18510.764-49.455-18509.1Zm-81.041.373q3.81.527,7.652,1.109a1.218,1.218,0,0,1,.152.023q2.659-1.866,5.318-3.687c-2.6-.314-5.2-.605-7.786-.881C-126.941-18511.031-128.714-18509.887-130.5-18508.729Zm116.535-1.145q4.539,1.008,9.1,2.088,2.48-3.018,4.955-5.977c-3.007-.629-6.023-1.234-9.02-1.814Q-11.445-18512.746-13.961-18509.873Zm35.427-.771c3.121.771,6.232,1.563,9.368,2.387q2.38-3.4,4.751-6.732c-3.107-.725-6.19-1.42-9.287-2.092Q23.882-18513.895,21.466-18510.645Zm-116.249.871c.658.105,1.325.211,1.982.32,2.077.338,4.169.689,6.256,1.053q2.659-2.194,5.3-4.355c-2.74-.391-5.461-.762-8.191-1.115C-91.219-18512.518-92.992-18511.16-94.783-18509.773Zm151.633-1.834q4.8,1.295,9.635,2.684,2.337-3.961,4.684-7.854-4.753-1.257-9.492-2.43C60.066-18516.691,58.46-18514.166,56.85-18511.607Zm-196.7,1.658q3.781.466,7.576.977c1.749-1.139,3.493-2.273,5.237-3.387-2.535-.258-5.051-.5-7.576-.725C-136.357-18512.051-138.11-18511-139.85-18509.949Zm80.8-.977q4.288.779,8.6,1.629,2.559-2.493,5.1-4.932c-2.845-.48-5.708-.937-8.543-1.371C-55.606-18514.051-57.322-18512.5-59.047-18510.926Zm-45.181-.285q4.01.577,8.038,1.215,2.645-2.06,5.275-4.064c-2.668-.34-5.341-.658-8-.953Q-101.566-18513.142-104.227-18511.211Zm80.6-.721q4.46.914,8.934,1.9,2.509-2.874,5.013-5.689-4.446-.853-8.867-1.635Q-21.082-18514.667-23.624-18511.932Zm-125.493.93q3.652.387,7.324.824c1.711-1.043,3.412-2.068,5.117-3.084-2.459-.209-4.9-.4-7.347-.57Q-146.575-18512.44-149.117-18511Zm160.858-1.969c3.05.705,6.118,1.439,9.187,2.193,1.611-2.168,3.207-4.295,4.822-6.424-3.054-.662-6.07-1.291-9.11-1.9C15.009-18517.082,13.37-18515.029,11.741-18512.971Zm-80.307.387c2.811.467,5.6.947,8.42,1.457q2.559-2.344,5.117-4.645c-2.792-.42-5.594-.82-8.372-1.2Q-65.982-18514.8-68.567-18512.584Zm-89.48.705q3.381.308,6.785.652c1.653-.934,3.3-1.854,4.951-2.768-2.259-.148-4.522-.287-6.771-.406Q-155.562-18513.155-158.047-18511.879Zm44.447-.605q3.9.5,7.824,1.053c1.749-1.271,3.483-2.52,5.227-3.764-2.6-.285-5.213-.553-7.8-.795Q-110.977-18514.262-113.6-18512.484Zm160.634-1.7c3.145.795,6.309,1.625,9.468,2.477q2.409-3.823,4.832-7.59c-3.126-.768-6.213-1.506-9.32-2.221Q49.519-18517.875,47.034-18514.18Zm-80.26.357c2.916.547,5.851,1.123,8.782,1.725q2.53-2.73,5.056-5.4c-2.916-.51-5.813-.99-8.715-1.453Q-30.662-18516.418-33.226-18513.822Zm-133.86,1.205q3.2.234,6.423.51,2.366-1.236,4.722-2.439c-2.149-.105-4.284-.191-6.423-.271Q-164.722-18513.731-167.086-18512.617Zm44.19-.982q3.788.422,7.6.9,2.573-1.743,5.141-3.455-3.8-.349-7.6-.643C-119.465-18515.748-121.185-18514.676-122.9-18513.6Zm44.876-.477q4.11.615,8.239,1.291,2.552-2.2,5.1-4.359c-2.73-.361-5.475-.705-8.191-1.029Q-75.443-18516.144-78.02-18514.076Zm-97.985.877q2.995.173,6,.377,2.209-1.066,4.417-2.1c-2.016-.062-4.022-.109-6.032-.143C-173.089-18514.451-174.538-18513.832-176.006-18513.2Zm178.016-1.93q4.539.967,9.091,2.016,2.437-3.088,4.879-6.123-4.524-.9-9.034-1.725C5.3-18519.031,3.659-18517.1,2.011-18515.129Zm-186.8,1.5q2.809.114,5.623.256,2.023-.885,4.036-1.748c-1.915-.023-3.807-.033-5.723-.033C-182.162-18514.652-183.477-18514.143-184.787-18513.627Zm-5.375-1.436c-1.105.381-2.2.768-3.307,1.158,1.644.039,3.3.086,4.951.139,1.148-.457,2.3-.916,3.45-1.367C-186.774-18515.119-188.466-18515.1-190.162-18515.062Zm58.041.516c2.44.229,4.9.48,7.352.742,1.672-1.057,3.35-2.109,5.017-3.145-2.463-.18-4.917-.342-7.376-.49C-128.8-18516.486-130.453-18515.523-132.121-18514.547Zm-67.29-.254c-.81.254-1.639.512-2.449.764,1.372.014,2.754.027,4.126.047.886-.318,1.777-.639,2.659-.957Q-197.247-18514.883-199.411-18514.8Zm156.66-.742c2.868.5,5.723,1.01,8.6,1.549,1.706-1.725,3.393-3.422,5.089-5.113-2.854-.447-5.694-.877-8.543-1.277Q-40.17-18517.988-42.751-18515.543Zm-164.6,1.105c-.5.133-1,.268-1.5.4.667-.006,1.334-.01,2.006-.01.51-.162,1.024-.334,1.534-.5C-205.991-18514.51-206.668-18514.471-207.349-18514.437Zm119.937-.963c2.683.357,5.351.729,8.048,1.125,1.7-1.367,3.383-2.721,5.079-4.061q-4.017-.463-8.015-.867C-84.005-18517.949-85.7-18516.682-87.412-18515.4Zm124.65-1.182q4.674,1.107,9.373,2.3,2.48-3.694,4.965-7.328c-3.083-.705-6.171-1.387-9.244-2.039Q39.787-18520.151,37.238-18516.582Zm-178.5,1.244q3.538.272,7.085.6c1.62-.953,3.231-1.893,4.851-2.82-2.392-.135-4.755-.248-7.133-.344C-138.063-18517.062-139.668-18516.205-141.265-18515.338Zm133.7-1.764c2.964.582,5.947,1.2,8.925,1.83q2.466-2.93,4.927-5.812-4.453-.809-8.877-1.545Q-5.079-18519.884-7.567-18517.1Zm-142.394,1.154q3.2.2,6.423.434,2.309-1.26,4.622-2.488c-2.139-.08-4.293-.143-6.423-.2C-146.883-18517.453-148.417-18516.711-149.961-18515.947Zm53.229-.605c2.6.3,5.222.619,7.833.963q2.516-1.91,5.032-3.77c-2.606-.254-5.218-.492-7.814-.705C-93.368-18518.9-95.045-18517.74-96.732-18516.553Zm44.514-.535c2.811.434,5.608.893,8.434,1.373q2.559-2.437,5.1-4.822c-2.787-.391-5.594-.762-8.377-1.105Q-49.638-18519.384-52.218-18517.088Zm-106.624.664c2,.09,4,.189,6.009.3q2.158-1.087,4.322-2.145c-2.02-.039-4.022-.062-6.037-.072C-155.983-18517.707-157.408-18517.068-158.842-18516.424Zm-4.9-1.879c-1.282.51-2.573,1.035-3.85,1.559,1.839.053,3.669.115,5.513.186,1.31-.6,2.611-1.2,3.917-1.787C-160.019-18518.34-161.887-18518.326-163.741-18518.3Zm191.329-.48q4.6,1.014,9.206,2.1,2.544-3.56,5.1-7.061c-3.03-.639-6.066-1.258-9.077-1.84Q30.2-18522.213,27.589-18518.783ZM-106-18517.549c2.525.252,5.084.523,7.619.811,1.658-1.174,3.3-2.326,4.955-3.469q-3.81-.3-7.61-.553C-102.688-18519.7-104.332-18518.631-106-18517.549Zm-85.563.391-1.148.338c1.053-.023,2.116-.043,3.173-.062.5-.166,1-.338,1.5-.51C-189.209-18517.32-190.386-18517.24-191.558-18517.158Zm18.635-.943c-1.086.391-2.168.791-3.25,1.191q2.537.029,5.084.08c1.129-.471,2.278-.943,3.407-1.4C-169.425-18518.2-171.188-18518.154-172.923-18518.1Zm-9.339.381c-.805.262-1.582.52-2.382.787q2.123-.009,4.255-.006c.867-.328,1.739-.662,2.606-.986C-179.279-18517.863-180.766-18517.8-182.262-18517.721Zm165.184-1.182q4.374.794,8.763,1.654,2.48-2.78,4.955-5.5-4.367-.724-8.715-1.363Q-14.569-18521.534-17.077-18518.9Zm-44.537.434q4.117.571,8.248,1.205,2.552-2.285,5.1-4.531c-2.735-.334-5.475-.643-8.2-.934Q-59.039-18520.619-61.615-18518.469Zm-53.567.1c2.459.2,4.913.414,7.381.652q2.423-1.6,4.846-3.164c-2.463-.148-4.936-.281-7.39-.4C-111.965-18520.322-113.562-18519.359-115.182-18518.373Zm177.587-1.969q4.724,1.157,9.463,2.4,2.344-3.882,4.7-7.7c-3.121-.744-6.223-1.449-9.33-2.135Q64.822-18524.09,62.406-18520.342Zm-186.708,1.3q3.552.229,7.124.506c1.563-.959,3.135-1.906,4.7-2.846-2.392-.1-4.784-.189-7.162-.256C-121.2-18520.779-122.744-18519.922-124.3-18519.041Zm53.352-.639c2.687.324,5.361.668,8.057,1.035,1.692-1.42,3.393-2.836,5.084-4.227q-4.017-.422-8.015-.777C-67.528-18522.342-69.243-18521.014-70.949-18519.68Zm88.961-1.119q4.5.908,9.025,1.9,2.6-3.431,5.213-6.795c-2.969-.576-5.923-1.125-8.882-1.648Q20.694-18524.108,18.011-18520.8Zm-44.528.277c2.854.467,5.727.957,8.6,1.471,1.663-1.748,3.312-3.473,4.975-5.193-2.868-.42-5.708-.814-8.563-1.186Q-24.006-18523-26.517-18520.521Zm-106.824.977q3.409.164,6.838.365c1.5-.848,3-1.691,4.493-2.52-2.3-.057-4.612-.1-6.9-.125Q-131.13-18520.693-133.341-18519.545Zm-48.407.023a1.586,1.586,0,0,0,.167-.006.3.3,0,0,0,.038-.014C-181.6-18519.531-181.685-18519.527-181.747-18519.521Zm44.156-2.316q-2.108.973-4.217,1.959c2,.066,4.012.139,6.018.225q2.116-1.11,4.222-2.187c-.9,0-1.8-.008-2.708-.008C-135.384-18521.85-136.492-18521.846-137.591-18521.838Zm-36.895,1.654c-.438.137-.872.271-1.315.4,1.134-.037,2.244-.076,3.378-.109.543-.2,1.091-.4,1.639-.592C-172.022-18520.385-173.247-18520.285-174.486-18520.184Zm94.264-.543c2.606.271,5.232.566,7.853.875q2.523-1.986,5.046-3.93-3.917-.337-7.824-.615C-76.834-18523.191-78.535-18521.961-80.222-18520.727Zm-66.513-.963c-1.272.533-2.549,1.072-3.821,1.619,1.839.023,3.7.063,5.542.105,1.287-.619,2.568-1.229,3.855-1.834C-143.023-18521.775-144.877-18521.738-146.735-18521.689Zm-18.311.814c-.834.281-1.668.572-2.5.863,1.482-.035,2.954-.053,4.441-.072q1.351-.536,2.7-1.068Q-162.723-18521.023-165.046-18520.875Zm9.168-.5c-1.1.416-2.173.83-3.273,1.254,1.658,0,3.293,0,4.955.01,1.12-.492,2.239-.977,3.359-1.463C-152.515-18521.514-154.206-18521.447-155.879-18521.371Zm208.655-1.248q4.624,1.052,9.287,2.191,2.409-3.738,4.827-7.418-4.581-1.008-9.149-1.936Q55.254-18526.228,52.776-18522.619Zm-88.665.643q4.2.615,8.415,1.3,2.487-2.467,4.975-4.879c-2.8-.363-5.589-.7-8.381-1.016Q-33.383-18524.295-35.889-18521.977Zm-53.543.367c2.535.225,5.094.463,7.638.721q2.487-1.831,4.975-3.621-3.817-.267-7.614-.463C-86.1-18523.867-87.769-18522.738-89.432-18521.609Zm97.838-1.057q4.46.829,8.944,1.729,2.666-3.293,5.327-6.527c-2.945-.52-5.9-1.01-8.834-1.477C12.031-18526.879,10.211-18524.773,8.405-18522.666Zm-106.981.342c2.468.172,4.927.363,7.4.568q2.437-1.673,4.879-3.312-3.709-.185-7.4-.314C-95.317-18524.377-96.951-18523.354-98.576-18522.324Zm53.372-.934q4.11.53,8.238,1.125,2.48-2.309,4.955-4.57c-2.745-.3-5.47-.58-8.205-.842Q-42.71-18525.424-45.2-18523.258Zm-62.444.377q3.567.193,7.143.424c1.587-1.01,3.159-2.006,4.741-2.992q-3.588-.108-7.166-.166C-104.5-18524.721-106.086-18523.8-107.648-18522.881Zm-58.236.328c.419-.023.867-.057,1.291-.08.1-.033.191-.066.286-.1C-164.837-18522.672-165.356-18522.609-165.885-18522.553Zm209.007-2.187c3.069.645,6.132,1.32,9.215,2.021q2.473-3.609,4.955-7.152-4.56-.923-9.1-1.758Q45.655-18528.213,43.122-18524.74Zm-44.161.406c2.926.49,5.847,1.006,8.782,1.549q2.716-3.167,5.432-6.262c-2.892-.457-5.789-.891-8.667-1.291Q1.742-18527.373-1.039-18524.334Zm-156.217.867c-.524.166-1.044.338-1.568.51,1.2-.062,2.368-.119,3.569-.168.624-.238,1.248-.471,1.873-.705C-154.683-18523.715-155.96-18523.6-157.256-18523.467Zm45.095-2.217c-1.506.8-3,1.6-4.5,2.412,2.282.08,4.584.176,6.871.285q2.28-1.351,4.55-2.664c-1.944-.023-3.868-.033-5.8-.033Zm-35.889,1.416q-1.337.478-2.673.967c1.415-.047,2.826-.09,4.241-.123.934-.391,1.863-.777,2.8-1.162C-145.139-18524.486-146.6-18524.383-148.05-18524.268Zm26.669-1.311c-1.406.686-2.8,1.377-4.2,2.078,2.187.033,4.365.086,6.556.152q2.144-1.172,4.293-2.326C-116.959-18525.654-119.16-18525.621-121.381-18525.578Zm66.928,1.211q4.017.442,8.043.953,2.459-2.145,4.917-4.25-4.017-.372-8.015-.682C-51.156-18527.031-52.8-18525.711-54.453-18524.367Zm-84.472-.52c-1.134.457-2.278.914-3.412,1.377,1.653-.029,3.3-.043,4.965-.057,1.153-.529,2.311-1.059,3.464-1.582C-135.585-18525.068-137.248-18524.982-138.925-18524.887Zm9.1-.439c-1.32.582-2.621,1.158-3.936,1.75q2.766.006,5.537.033c1.32-.658,2.63-1.316,3.945-1.963C-126.127-18525.455-127.99-18525.393-129.829-18525.326Zm119.418-.5q4.3.645,8.61,1.363c1.839-2.016,3.688-4.012,5.523-5.984-2.83-.4-5.67-.768-8.5-1.115Q-7.59-18528.718-10.411-18525.826Zm-53.233.516c.329.033.648.061.977.09,2.278.219,4.574.453,6.866.705q2.43-2,4.86-3.939-3.917-.293-7.824-.52Q-61.2-18527.167-63.645-18525.311Zm97.285-1.344q4.51.87,9.044,1.824,2.537-3.475,5.07-6.881c-2.969-.543-5.961-1.066-8.92-1.562Q36.239-18529.992,33.64-18526.654Zm-106.41.566q3.8.293,7.619.639c1.6-1.225,3.188-2.426,4.784-3.621-2.54-.139-5.094-.262-7.624-.367Q-70.377-18527.779-72.769-18526.088Zm53.048-1.066q4.217.563,8.443,1.2c1.877-1.93,3.736-3.822,5.608-5.709-2.778-.338-5.565-.648-8.334-.937Q-16.856-18529.913-19.722-18527.154Zm-62.106.457q3.681.214,7.381.486c1.558-1.111,3.107-2.207,4.665-3.3-2.478-.09-4.941-.162-7.4-.219Q-79.509-18528.229-81.827-18526.7Zm-58.5-.277-.905.311c1.048-.066,2.087-.129,3.135-.186.424-.168.839-.334,1.263-.5Q-138.589-18527.165-140.331-18526.975Zm164.56-1.414c2.94.514,5.894,1.057,8.844,1.629,1.734-2.234,3.45-4.422,5.179-6.6-2.911-.486-5.808-.939-8.715-1.367Q26.886-18531.593,24.229-18528.389Zm-115.048,1.238c2.368.1,4.746.215,7.124.344q2.259-1.494,4.5-2.959c-2.4-.043-4.784-.072-7.176-.076C-87.846-18528.961-89.337-18528.057-90.819-18527.15Zm158.838-1.807q4.631,1.017,9.292,2.121,2.273-3.674,4.56-7.3-4.6-.964-9.182-1.844C71.135-18533.664,69.567-18531.311,68.019-18528.957Zm-199.187,1.055c-.7.266-1.415.537-2.12.809,1.377-.061,2.749-.119,4.126-.166.772-.344,1.549-.682,2.321-1.016C-128.29-18528.16-129.719-18528.031-131.168-18527.9Zm35.637-1.889c-1.406.777-2.8,1.559-4.2,2.35q3.416.079,6.838.211c1.425-.883,2.864-1.754,4.284-2.617C-90.914-18529.842-93.235-18529.824-95.531-18529.791Zm66.566,1.482q4.117.48,8.248,1.025,2.837-2.754,5.67-5.428c-2.711-.281-5.427-.533-8.129-.768C-25.1-18531.777-27.036-18530.047-28.966-18528.309Zm-93.125-.334c-.982.416-1.968.83-2.949,1.25,1.615-.049,3.24-.082,4.86-.115,1.024-.49,2.039-.977,3.064-1.463C-118.779-18528.865-120.433-18528.756-122.091-18528.643Zm17.382-.918q-1.93.984-3.855,1.986c2.178.014,4.346.043,6.528.08,1.334-.758,2.659-1.506,3.988-2.248C-100.268-18529.7-102.493-18529.637-104.708-18529.561Zm-9.187.4c-1.139.533-2.263,1.066-3.4,1.605q3.073-.035,6.166-.033c1.2-.629,2.4-1.254,3.593-1.873C-109.664-18529.365-111.775-18529.266-113.9-18529.156Zm75.747-.143q4.017.4,8.048.857,2.866-2.6,5.727-5.137c-2.649-.219-5.3-.42-7.943-.6C-34.25-18532.572-36.213-18530.939-38.148-18529.3Zm52.89-.678c2.921.463,5.861.953,8.8,1.463q2.637-3.193,5.275-6.322-4.36-.645-8.7-1.2Q17.43-18533.034,14.743-18529.977Zm43.818-.971q4.546.914,9.11,1.914,2.33-3.536,4.67-7.018c-3.011-.576-5.994-1.125-8.987-1.645Q60.952-18534.35,58.561-18530.947Zm-105.828.824q3.917.319,7.838.7c1.925-1.635,3.836-3.244,5.756-4.836-2.583-.166-5.156-.314-7.733-.437Q-44.337-18532.433-47.268-18530.123Zm-81.675-.568q-1.337.416-2.678.844c.548-.047,1.091-.1,1.639-.146q1.179-.445,2.359-.883C-128.066-18530.814-128.495-18530.752-128.943-18530.691Zm134.4-.666q4.3.6,8.62,1.281,2.68-3.059,5.365-6.051-4.274-.545-8.52-1.016C9.1-18535.232,7.286-18533.316,5.461-18531.357Zm-61.786.576c1.244.076,2.487.162,3.731.248,1.3.1,2.592.189,3.888.295q2.888-2.294,5.766-4.531-3.767-.164-7.519-.281C-52.419-18533.645-54.367-18532.225-56.326-18530.781Zm-63.721-1.092c-.119.016-.238.029-.357.043q-1.908.674-3.817,1.359c1.024-.076,2.039-.148,3.059-.225,1.191-.5,2.378-.986,3.569-1.473C-118.412-18532.072-119.232-18531.973-120.047-18531.873Zm54.73.592q3.688.17,7.386.395c1.915-1.424,3.826-2.82,5.742-4.207-2.43-.066-4.87-.109-7.3-.133Q-62.4-18533.284-65.317-18531.281Zm-46.472-1.525q-2.273.888-4.546,1.8c1.348-.076,2.7-.152,4.05-.219,1.439-.662,2.883-1.32,4.322-1.963C-109.235-18533.068-110.517-18532.939-111.789-18532.807Zm160.839.023c3.021.559,6.028,1.135,9.058,1.744q2.387-3.4,4.774-6.736-4.489-.779-8.963-1.473C52.295-18537.109,50.675-18534.961,49.05-18532.783Zm-117.526-2.453q-2.88,1.787-5.761,3.617c2.368.07,4.751.156,7.124.256q2.845-1.966,5.685-3.883-1.39-.009-2.781-.008Q-66.345-18535.254-68.476-18535.236Zm-35.808,1.711q-2.4,1.058-4.8,2.148,2.866-.12,5.737-.215c1.615-.809,3.221-1.609,4.836-2.4C-100.434-18533.85-102.364-18533.693-104.284-18533.525Zm100.52.953q4.217.513,8.439,1.105,2.723-2.918,5.446-5.766-4.181-.457-8.339-.844Q-.991-18535.354-3.764-18532.572Zm-91.572-1.645c-1.734.834-3.459,1.682-5.189,2.549q3.073-.079,6.166-.119,2.587-1.415,5.179-2.8Q-92.26-18534.424-95.336-18534.217Zm17.9-.854q-2.823,1.617-5.642,3.273,3.409.044,6.838.125,2.787-1.8,5.58-3.541C-72.917-18535.184-75.19-18535.137-77.439-18535.07Zm-8.948.34c-1.815.957-3.64,1.934-5.456,2.92,2.168-.014,4.336-.02,6.518,0q2.709-1.608,5.418-3.18Q-83.152-18534.886-86.387-18534.73Zm73.465,1.109q4.117.437,8.262.939c1.834-1.846,3.678-3.674,5.508-5.477-2.73-.246-5.442-.471-8.162-.672C-9.177-18537.119-11.059-18535.369-12.922-18533.621Zm52.662-.791q4.431.735,8.872,1.549,2.437-3.252,4.87-6.451-4.4-.68-8.777-1.283Q42.224-18537.53,39.739-18534.412Zm-61.763-.08c2.683.232,5.361.49,8.053.766,1.849-1.748,3.707-3.479,5.556-5.184-2.649-.186-5.313-.357-7.953-.5C-18.259-18537.781-20.127-18536.156-22.023-18534.492Zm-90.076-.158c-.839.271-1.668.553-2.506.834.505-.057,1-.109,1.51-.162q1.094-.437,2.187-.857C-111.308-18534.779-111.7-18534.717-112.1-18534.65Zm142.594-1.211q4.324.645,8.663,1.354,2.473-3.108,4.951-6.17c-2.864-.391-5.7-.748-8.558-1.086C33.869-18539.82,32.177-18537.844,30.5-18535.861Zm-134.146-.043c-1.21.449-2.43.906-3.64,1.363.982-.086,1.968-.176,2.949-.258,1.129-.494,2.254-.986,3.383-1.467C-101.859-18536.146-102.745-18536.027-103.651-18535.9Zm72.588.7q3.917.272,7.843.605,2.795-2.467,5.584-4.879c-2.583-.135-5.17-.248-7.748-.34C-27.269-18538.3-29.175-18536.752-31.062-18535.2Zm-65.613-1.605c-1.339.563-2.7,1.143-4.041,1.721,1.739-.129,3.464-.254,5.2-.363,1.387-.666,2.764-1.324,4.145-1.977C-93.13-18537.232-94.912-18537.023-96.675-18536.809Zm56.64,1.057c2.53.135,5.075.287,7.614.453,1.868-1.543,3.726-3.059,5.589-4.564q-3.767-.129-7.524-.186C-36.251-18538.635-38.138-18537.205-40.035-18535.752Zm113.571-1.5q4.56.879,9.134,1.84,2.323-3.674,4.66-7.295-4.524-.814-9.025-1.553C76.72-18541.945,75.119-18539.6,73.537-18537.248Zm-161.287-.561c-1.544.713-3.073,1.434-4.612,2.162,1.9-.109,3.817-.205,5.723-.291q2.33-1.228,4.651-2.42C-83.91-18538.186-85.835-18538-87.75-18537.809Zm44.452-2.3c-1.877,1.307-3.774,2.641-5.651,3.979q3.216.108,6.442.262c.31.016.624.029.934.043q2.787-2.15,5.565-4.25c-1.93-.021-3.849-.035-5.77-.035Q-42.538-18540.113-43.3-18540.111Zm64.426,2.945c2.878.377,5.751.771,8.639,1.2,1.677-1.982,3.345-3.936,5.022-5.885-2.864-.332-5.713-.643-8.567-.924Q23.677-18540,21.128-18537.166Zm-99.986-1.459c-1.663.844-3.34,1.707-5,2.568,2.044-.08,4.093-.143,6.142-.2q2.5-1.43,5-2.826C-74.771-18538.943-76.81-18538.791-78.859-18538.625Zm26.641-1.377q-2.78,1.8-5.575,3.65,3.552.05,7.114.162,2.752-1.98,5.5-3.912Q-48.7-18540.081-52.218-18540Zm-17.768.744c-1.753.967-3.521,1.953-5.275,2.945,2.168-.043,4.331-.072,6.509-.092q2.623-1.623,5.237-3.207Q-66.754-18539.453-69.987-18539.258Zm10.249,2.877q2.695-1.808,5.4-3.568-3.388.094-6.771.234c-1.815,1.08-3.64,2.186-5.456,3.3h1.107Q-62.6-18536.414-59.737-18536.381ZM12-18538.268q4.224.472,8.453,1.016,2.544-2.824,5.084-5.594-4.2-.416-8.381-.748C15.433-18541.836,13.723-18540.062,12-18538.268Zm52.257-.686q4.453.779,8.934,1.639,2.38-3.53,4.765-7-4.417-.712-8.82-1.352Q66.689-18542.338,64.255-18538.953Zm-160.353.334-1.568.553c.448-.053.891-.105,1.339-.162.481-.2.967-.4,1.449-.6C-95.284-18538.758-95.693-18538.691-96.1-18538.619Zm99.029-.582q4.124.387,8.262.844,2.566-2.681,5.132-5.3c-2.726-.215-5.475-.406-8.191-.572C6.4-18542.58,4.66-18540.893,2.93-18539.2Zm-92.644-.477c-.791.32-1.6.648-2.392.973q2.244-.243,4.489-.467,1.365-.63,2.721-1.244C-86.5-18540.178-88.108-18539.936-89.713-18539.678Zm144.586-.824q4.446.694,8.91,1.469,2.43-3.381,4.86-6.705c-2.94-.424-5.9-.82-8.825-1.186C58.165-18544.795,56.526-18542.67,54.872-18540.5Zm-60.952.539q4.031.308,8.076.676c1.73-1.686,3.445-3.35,5.17-5.008q-4.017-.234-8.015-.4Q-3.457-18542.355-6.08-18539.963Zm-74.6-1.053c-1.11.494-2.24,1-3.354,1.506q2.58-.237,5.17-.439c1.182-.6,2.354-1.182,3.536-1.768Q-78.008-18541.38-80.679-18541.016Zm65.651.457c2.616.152,5.227.324,7.848.514q2.594-2.379,5.175-4.7c-2.592-.1-5.194-.186-7.776-.242Q-12.405-18542.8-15.028-18540.559Zm-56.731-1.588q-1.994.967-3.988,1.965,2.837-.208,5.685-.377c1.368-.748,2.716-1.486,4.079-2.221C-67.909-18542.584-69.834-18542.369-71.759-18542.146Zm117.478.3q4.353.6,8.715,1.277,2.473-3.237,4.946-6.414c-2.873-.357-5.761-.689-8.624-1Q48.24-18544.946,45.719-18541.846Zm-69.634.857c2.54.1,5.07.221,7.619.357q2.58-2.215,5.16-4.389c-2.521-.051-5.046-.08-7.557-.09Q-21.3-18543.073-23.915-18540.988Zm-39-2.1c-1.482.785-2.945,1.572-4.422,2.373q3.059-.164,6.123-.287c1.487-.885,2.973-1.768,4.46-2.635Q-59.838-18543.381-62.911-18543.084Zm35.341-1.969c-1.725,1.254-3.445,2.512-5.17,3.8.11,0,.214,0,.329,0q3.516.079,7.038.205,2.566-2.06,5.122-4.064C-22.7-18545.109-25.125-18545.09-27.57-18545.053Zm-26.512,1.211c-1.582.91-3.145,1.824-4.727,2.76,2.163-.078,4.322-.135,6.49-.182q2.366-1.523,4.727-3.021C-49.755-18544.152-51.923-18544-54.082-18543.842Zm17.659-.982c-1.7,1.145-3.383,2.293-5.079,3.465,2.359.01,4.736.033,7.1.072q2.523-1.887,5.041-3.736C-31.72-18544.977-34.069-18544.908-36.423-18544.824Zm-8.834.4c-1.649,1.035-3.288,2.068-4.936,3.121q3.4-.056,6.814-.057,2.466-1.714,4.913-3.389C-40.726-18544.656-43-18544.547-45.257-18544.424Zm81.894,1.406c2.821.338,5.656.705,8.486,1.092q2.509-3.088,5.022-6.119-4.2-.437-8.391-.8Q39.2-18545.97,36.637-18543.018Zm-119.3.572c-.31.113-.624.238-.929.357,1.182-.172,2.373-.334,3.555-.492.505-.223,1.005-.441,1.51-.662C-79.907-18542.984-81.294-18542.717-82.666-18542.445Zm110.04-1.592c2.83.285,5.656.6,8.5.93q2.537-2.938,5.075-5.814c-2.821-.242-5.618-.457-8.434-.646C30.8-18547.744,29.09-18545.9,27.374-18544.037Zm-100.773-.129c-.824.348-1.639.691-2.463,1.049.167-.02.334-.043.5-.062,1.329-.162,2.664-.324,4-.471.915-.443,1.844-.893,2.759-1.326C-70.206-18544.719-71.807-18544.447-73.4-18544.166Zm152.6-1.391q4.474.735,8.968,1.553,2.323-3.589,4.665-7.129c-2.973-.447-5.913-.867-8.872-1.262C82.371-18550.131,80.789-18547.863,79.2-18545.557Zm-143.614-.086q-1.7.794-3.4,1.6c1.715-.182,3.435-.354,5.151-.512,1.186-.629,2.378-1.252,3.564-1.867C-60.881-18546.172-62.634-18545.91-64.412-18545.643Zm82.8.781q4.145.343,8.3.758,2.566-2.789,5.127-5.514-4.124-.272-8.238-.471C21.857-18548.369,20.122-18546.619,18.392-18544.861Zm-70.149-2.525c-1.272.162-2.544.318-3.817.49-1.348.682-2.673,1.367-4.022,2.068q2.837-.243,5.685-.453c1.363-.785,2.74-1.572,4.1-2.334Zm61.229,1.877q4.038.258,8.091.582,2.587-2.631,5.16-5.2c-2.687-.129-5.351-.229-8.034-.3C12.951-18548.807,11.217-18547.172,9.473-18545.51Zm-56.269-2.453c-1.472.814-2.964,1.658-4.441,2.492,2.039-.139,4.074-.258,6.118-.367q2.237-1.395,4.474-2.764C-42.693-18548.406-44.752-18548.191-46.8-18547.963ZM.61-18546q3.938.173,7.891.42,2.587-2.467,5.179-4.889-3.931-.1-7.843-.139C4.1-18549.088,2.349-18547.549.61-18546Zm69.486-.977c2.916.424,5.823.877,8.753,1.354q2.373-3.437,4.751-6.824c-2.892-.381-5.761-.732-8.648-1.066Q72.522-18550.272,70.1-18546.973Zm-108.139-1.873q-2.373,1.424-4.736,2.889c2.163-.105,4.322-.191,6.495-.268q2.366-1.594,4.736-3.158Q-34.8-18549.14-38.043-18548.846Zm35.065-1.758c-1.739,1.41-3.478,2.846-5.218,4.289q3.817.1,7.643.266c1.715-1.533,3.44-3.062,5.156-4.568q-1.421-.009-2.844-.008Q-.612-18550.625-2.978-18550.6Zm-26.321,1.053q-2.466,1.617-4.941,3.26c2.268-.066,4.55-.115,6.828-.148q2.459-1.787,4.917-3.535C-24.768-18549.846-27.031-18549.707-29.3-18549.551Zm17.525-.877q-2.58,1.96-5.17,3.961,3.7.029,7.4.119,2.559-2.145,5.117-4.236Q-8.105-18550.534-11.774-18550.428Zm-8.767.354q-2.544,1.787-5.079,3.611c1.072-.01,2.149-.014,3.221-.02,1.3,0,2.6,0,3.893.006q2.523-1.972,5.046-3.893Q-17.006-18550.249-20.541-18550.074Zm-45.91,3.031c-.367.146-.743.3-1.105.447,1.2-.191,2.382-.377,3.583-.559.538-.246,1.086-.5,1.625-.748C-63.711-18547.625-65.093-18547.33-66.451-18547.043Zm127.294-1.2q4.367.56,8.758,1.191,2.416-3.287,4.836-6.518c-2.892-.324-5.8-.625-8.686-.9Q63.292-18551.379,60.843-18548.24Zm-118.064-.672-2.554,1.145c1.5-.211,2.992-.416,4.493-.611.939-.475,1.868-.947,2.807-1.414C-54.062-18549.508-55.635-18549.217-57.222-18548.912Zm109.078-.385c2.84.309,5.7.643,8.548,1q2.459-3.138,4.908-6.209c-2.821-.262-5.661-.5-8.472-.715C55.182-18553.271,53.514-18551.289,51.856-18549.3Zm-100.172-1.221q-1.715.844-3.431,1.691c1.72-.209,3.45-.414,5.175-.6,1.182-.658,2.368-1.311,3.55-1.949C-44.79-18551.1-46.553-18550.812-48.316-18550.518Zm91.252.334c2.759.248,5.537.523,8.305.818q2.48-2.979,4.965-5.9c-2.749-.205-5.48-.377-8.224-.529Q45.459-18553.017,42.936-18550.184Zm-82.485-1.721q-2,1.066-4,2.154c1.892-.2,3.8-.377,5.7-.553q2.03-1.216,4.055-2.412Q-36.673-18552.328-39.549-18551.9Zm73.327.986q4.174.293,8.348.662,2.5-2.821,5-5.588-4.153-.223-8.305-.373C37.138-18554.463,35.465-18552.705,33.778-18550.918Zm-62.987-2.387c-.548.066-1.1.139-1.639.205q-2.194,1.271-4.384,2.572c2.049-.172,4.088-.328,6.142-.471q2.2-1.438,4.4-2.836C-26.2-18553.668-27.7-18553.486-29.209-18553.3Zm54.163,1.848q4.06.208,8.138.492,2.516-2.666,5.027-5.275c-2.7-.09-5.4-.156-8.091-.2C28.342-18554.8,26.645-18553.129,24.954-18551.457Zm-47.13-2.648c-1.558.977-3.1,1.953-4.651,2.959,2.173-.143,4.336-.268,6.518-.371,1.549-1.092,3.088-2.164,4.636-3.227C-17.849-18554.549-20.008-18554.34-22.176-18554.105Zm43.442-2.383c-1.687,1.535-3.393,3.1-5.079,4.67,2.625.082,5.275.191,7.91.32,1.682-1.664,3.364-3.322,5.041-4.951-2-.029-4.012-.043-6.016-.043Q22.192-18556.492,21.266-18556.488Zm-34.779,1.555c-1.611,1.09-3.221,2.2-4.832,3.32,2.282-.1,4.56-.186,6.847-.252,1.606-1.215,3.2-2.412,4.8-3.6C-8.972-18555.307-11.236-18555.129-13.513-18554.934Zm-36.852,3.039c-.071.033-.157.066-.229.1q1.68-.293,3.359-.568c.3-.146.61-.3.91-.441C-47.678-18552.51-49.016-18552.209-50.365-18551.895Zm62.9-4.465c-1.692,1.434-3.378,2.873-5.07,4.342,2.559.033,5.137.09,7.7.166,1.672-1.559,3.354-3.1,5.027-4.627C17.64-18556.465,15.09-18556.426,12.536-18556.359Zm-17.382.771c-1.649,1.211-3.307,2.439-4.955,3.674q3.574-.085,7.152-.123,2.459-2,4.917-3.951Q-1.3-18555.815-4.846-18555.588Zm11.074,3.555c1.663-1.443,3.331-2.883,4.989-4.293q-3.7.1-7.381.268c-1.677,1.324-3.35,2.654-5.027,4.012q1.359-.012,2.721-.01Q3.878-18552.057,6.228-18552.033Zm78.735-1.781c2.93.4,5.856.824,8.8,1.277q2.3-3.475,4.612-6.881-4.367-.53-8.72-.973Q87.3-18557.13,84.963-18553.814Zm-126.184-.092c-.624.291-1.225.578-1.844.869,1.449-.225,2.9-.443,4.35-.654.743-.395,1.482-.781,2.22-1.166Q-38.86-18554.395-41.221-18553.906Zm117.254-1.033q4.274.5,8.572,1.076,2.337-3.308,4.684-6.564-4.246-.431-8.482-.777Q78.421-18558.1,76.033-18554.939Zm-108.42-.705c-.948.486-1.887.967-2.84,1.463,1.687-.229,3.383-.447,5.07-.658q1.53-.885,3.054-1.752Q-29.747-18556.135-32.387-18555.645Zm99.3-.271q4.3.413,8.605.914,2.373-3.149,4.751-6.246c-2.849-.234-5.718-.437-8.558-.615C70.111-18559.9,68.5-18557.912,66.909-18555.916Zm-90.609-1.254c-1.167.654-2.33,1.307-3.5,1.973q2.816-.328,5.637-.619c1.21-.762,2.416-1.51,3.626-2.258Q-20.815-18557.638-23.7-18557.17Zm-14.709.4q-1.365.536-2.726,1.076c.557-.119,1.115-.232,1.672-.348.777-.357,1.558-.715,2.335-1.066C-37.557-18557-37.981-18556.889-38.41-18556.773Zm96.5.08q4.181.331,8.381.734,2.394-2.994,4.793-5.928-4.167-.258-8.319-.434Q60.519-18559.531,58.094-18556.693Zm-73.174-1.8q-1.98,1.2-3.955,2.426c2.035-.2,4.064-.381,6.1-.549q2.008-1.371,4.026-2.711C-10.969-18559.066-13.022-18558.785-15.081-18558.494Zm64.426,1.2c2.7.162,5.408.344,8.115.553q2.423-2.83,4.832-5.6-4.031-.164-8.053-.258C52.609-18560.852,50.97-18559.074,49.345-18557.293Zm-55.84-2.334c-1.42.934-2.854,1.887-4.274,2.834,2.168-.166,4.327-.314,6.495-.453q2.158-1.579,4.317-3.125C-2.144-18560.143-4.317-18559.895-6.495-18559.627Zm-23.815.8q-2.008.873-4.022,1.773c1.086-.209,2.187-.41,3.273-.609q1.873-.952,3.745-1.879C-28.313-18559.309-29.309-18559.07-30.309-18558.828Zm70.6,1.092q4.088.158,8.2.4,2.423-2.666,4.846-5.281-4.1-.076-8.181-.09C43.532-18561.072,41.912-18559.408,40.292-18557.736Zm-38.214-2.85c-1.5,1.068-3,2.145-4.5,3.23l.21-.014c2.206-.125,4.427-.234,6.637-.324q2.259-1.787,4.517-3.525C6.647-18561.023,4.369-18560.814,2.077-18560.586Zm8.582-.771c-1.553,1.182-3.107,2.387-4.66,3.6,2.382-.092,4.774-.162,7.162-.215,1.553-1.311,3.111-2.611,4.66-3.9Q14.233-18561.65,10.659-18561.357Zm25.83-1.277c-1.615,1.525-3.245,3.084-4.855,4.641,2.649.053,5.3.129,7.962.229,1.611-1.662,3.226-3.316,4.841-4.945C41.783-18562.711,39.129-18562.682,36.49-18562.635Zm-17.249.678q-2.38,1.957-4.76,3.953c2.487-.047,4.989-.07,7.481-.076,1.591-1.437,3.173-2.85,4.765-4.26Q22.974-18562.182,19.241-18561.957Zm8.61-.43c-1.611,1.424-3.212,2.854-4.822,4.307,2.564,0,5.146.025,7.719.072q2.4-2.329,4.813-4.607Q31.7-18562.53,27.851-18562.387Zm-50.017,1.668c-1.582.762-3.173,1.539-4.751,2.32,1.434-.248,2.864-.486,4.3-.715q2.266-1.257,4.527-2.482Q-20.129-18561.168-22.166-18560.719Zm8.167-1.715c-1.734.914-3.459,1.838-5.194,2.781q2.523-.384,5.051-.738,2.5-1.515,5-2.982C-10.764-18563.068-12.379-18562.758-14-18562.434Zm8.2-1.549q-2.73,1.579-5.465,3.2c1.877-.248,3.75-.48,5.632-.705q2.652-1.743,5.3-3.43Q-3.071-18564.474-5.8-18563.982Zm96.551,2.076q4.31.46,8.639,1,2.523-3.709,5.06-7.357-4.267-.407-8.51-.719C94.207-18566.65,92.472-18564.283,90.747-18561.906Zm-113.338-.2c-.772.324-1.544.643-2.316.967.515-.113,1.034-.232,1.549-.348.667-.324,1.344-.648,2.011-.967C-21.756-18562.34-22.176-18562.221-22.59-18562.105Zm25.016-3.254c-1.882,1.182-3.755,2.377-5.637,3.592q3.052-.343,6.109-.643,2.752-1.945,5.494-3.836C6.4-18565.965,4.417-18565.67,2.425-18565.359ZM82-18562.744q4.181.357,8.381.8,2.587-3.574,5.179-7.072-4.131-.3-8.238-.527C85.544-18567.3,83.767-18565.031,82-18562.744Zm-96.565-1.539c-1.225.557-2.454,1.129-3.678,1.7,1.072-.219,2.135-.439,3.2-.648,1.153-.615,2.3-1.219,3.455-1.82C-12.584-18564.8-13.575-18564.545-14.566-18564.283Zm30.128-2.912c-1.63.2-3.259.41-4.879.629-1.915,1.307-3.826,2.621-5.737,3.965q1.465-.144,2.935-.262c1.191-.105,2.392-.2,3.588-.291q2.809-2.145,5.608-4.221C16.572-18567.318,16.067-18567.256,15.562-18567.2Zm57.431,3.766q4.217.278,8.458.639,2.637-3.425,5.289-6.785-4.181-.223-8.353-.363C76.591-18567.795,74.785-18565.617,72.993-18563.43Zm-54.024-4.166q-2.888,2.124-5.78,4.309,3.438-.243,6.885-.443,2.837-2.314,5.665-4.578Q22.352-18567.98,18.969-18567.6Zm45.376,3.674q4.1.193,8.21.463,2.695-3.287,5.394-6.494-4.053-.129-8.091-.182Q67.106-18567.062,64.345-18563.922Zm-37.061-4.535c-1.925,1.529-3.86,3.082-5.785,4.65,2.416-.123,4.832-.234,7.252-.318,1.892-1.658,3.8-3.312,5.685-4.928Q30.855-18568.789,27.284-18568.457Zm34.1-1.7q-2.809,2.93-5.618,5.922,3.96.108,7.924.287,2.745-3.132,5.484-6.2c-1.555-.018-3.117-.025-4.677-.025Q62.94-18570.17,61.386-18570.158Zm-67.914,3.863c-1.477.744-2.959,1.506-4.436,2.273,1.425-.271,2.845-.533,4.274-.785q2.137-1.236,4.265-2.445C-3.788-18566.941-5.16-18566.623-6.528-18566.295Zm42.165-2.844c-1.915,1.629-3.841,3.3-5.756,4.975q3.752-.129,7.514-.182,2.83-2.666,5.661-5.26C40.583-18569.473,38.1-18569.32,35.637-18569.139Zm16.815-.854c-1.882,1.85-3.755,3.713-5.637,5.6q4.017.029,8.043.129,2.78-2.979,5.561-5.889C57.755-18570.125,55.106-18570.072,52.452-18569.992Zm-8.424.34c-1.906,1.742-3.8,3.506-5.708,5.293q3.888-.05,7.786-.033,2.809-2.824,5.623-5.574C49.159-18569.887,46.586-18569.781,44.028-18569.652Zm-42.479,1.514c-1.639.906-3.269,1.826-4.908,2.754,1.687-.285,3.364-.557,5.051-.818,1.587-1,3.178-1.992,4.76-2.969Q4-18568.671,1.549-18568.139Zm8.105-1.672q-2.6,1.573-5.2,3.188,2.823-.422,5.651-.8,2.544-1.737,5.079-3.426Q12.415-18570.349,9.654-18569.811Zm-16.62,2.135c-.638.275-1.3.563-1.935.844.486-.119.972-.234,1.458-.354.572-.291,1.148-.58,1.72-.867C-6.137-18567.928-6.552-18567.8-6.966-18567.676Zm24.744-3.631c-1.787,1.172-3.593,2.373-5.384,3.584q1.094-.144,2.187-.277c1.129-.139,2.249-.271,3.378-.4.2-.023.4-.043.591-.066q2.637-1.945,5.28-3.846Q20.8-18571.832,17.778-18571.307Zm-16.82,1.32c-1.12.537-2.23,1.082-3.35,1.629,1.063-.238,2.125-.477,3.183-.705,1.063-.586,2.135-1.182,3.2-1.758C2.969-18570.549,1.973-18570.273.958-18569.986Zm24.982-2.65c-1.839,1.307-3.664,2.621-5.5,3.965q3.288-.357,6.585-.662,2.7-2.145,5.4-4.236Q29.18-18573.134,25.94-18572.637Zm70.644,2.773q4.224.322,8.477.715,2.516-3.609,5.041-7.152-4.188-.258-8.362-.428Q99.153-18573.327,96.584-18569.863Zm-59.6-4.293c-.953.119-1.906.238-2.864.363-1.849,1.42-3.707,2.867-5.551,4.32,2.335-.205,4.665-.391,7-.557,1.83-1.555,3.65-3.088,5.48-4.6C39.692-18574.48,38.338-18574.318,36.985-18574.156Zm51.022,3.74q4.1.223,8.2.529,2.573-3.466,5.146-6.861c-2.7-.105-5.375-.186-8.067-.242C91.519-18574.814,89.771-18572.637,88.008-18570.416Zm-79.1-1.711c-1.387.734-2.764,1.473-4.145,2.227,1.425-.3,2.859-.582,4.288-.857q2.016-1.225,4.026-2.422C11.688-18572.836,10.3-18572.484,8.91-18572.127Zm33.43-2.648q-2.78,2.3-5.565,4.664c2.435-.166,4.865-.3,7.3-.428q2.745-2.511,5.489-4.951C47.163-18575.275,44.747-18575.037,42.341-18574.775Zm42.112-2.3q-2.673,3.094-5.332,6.266,4.145.138,8.305.363,2.623-3.316,5.246-6.557-3.774-.073-7.536-.072Zm-33.859,1.486q-2.773,2.473-5.546,5,3.8-.179,7.61-.289,2.737-2.681,5.48-5.295C55.616-18576,53.109-18575.8,50.594-18575.586Zm25.483-1.391q-2.716,2.944-5.432,5.965c2.678.039,5.351.1,8.038.191q2.659-3.167,5.327-6.252Q80.036-18577.066,76.076-18576.977Zm-17.2.758q-2.752,2.631-5.5,5.322c2.63-.072,5.256-.119,7.891-.139q2.73-2.845,5.451-5.623Q62.8-18576.479,58.88-18576.219Zm11.088,5.2c1.8-2.006,3.593-3.979,5.4-5.941q-3.81.094-7.61.258-2.752,2.795-5.518,5.66,1.332-.006,2.665-.008Q67.433-18571.053,69.968-18571.021Zm-53.076-3.072c-1.544.891-3.1,1.8-4.636,2.725,1.7-.318,3.388-.619,5.089-.914q2.273-1.494,4.536-2.955C20.213-18574.865,18.559-18574.49,16.892-18574.094Zm8-1.8c-1.653,1.043-3.3,2.1-4.951,3.168,1.911-.314,3.812-.613,5.723-.9q2.437-1.737,4.87-3.426Q27.71-18576.5,24.892-18575.891Zm-16.415,2.369c-.543.246-1.067.49-1.611.742.486-.129.958-.252,1.444-.377.5-.266,1-.527,1.5-.791C9.368-18573.809,8.915-18573.66,8.477-18573.521Zm24.449-3.994q-2.58,1.767-5.151,3.578c.081-.014.172-.023.253-.037q2.988-.431,5.985-.814,2.544-1.951,5.084-3.855Q36-18578.108,32.925-18577.516Zm-16.62,1.559q-1.537.779-3.069,1.568c1.072-.264,2.139-.516,3.212-.768,1-.582,1.992-1.154,2.988-1.725C18.392-18576.576,17.349-18576.271,16.305-18575.957Zm24.668-3.012c-1.753,1.3-3.516,2.631-5.27,3.965l.577-.072c2.049-.252,4.107-.486,6.161-.705,1.739-1.439,3.483-2.854,5.222-4.26Q44.318-18579.534,40.973-18578.969Zm8.091-1.281c-1.777,1.424-3.559,2.873-5.337,4.33q3.531-.363,7.076-.666,2.645-2.344,5.289-4.631Q52.569-18580.769,49.064-18580.25Zm-24.906,2.029c-1.291.715-2.6,1.453-3.893,2.188q2.173-.486,4.35-.949c1.282-.809,2.554-1.609,3.836-2.4C27.017-18579.006,25.592-18578.621,24.158-18578.221Zm34.012-3.26c-.334.043-.662.082-.991.125-1.792,1.543-3.564,3.1-5.356,4.684,2.473-.205,4.941-.391,7.419-.549,1.777-1.686,3.545-3.344,5.322-4.988Q61.362-18581.872,58.17-18581.48Zm44.294,3.8c2.773.113,5.537.258,8.32.434q2.509-3.51,5.022-6.943c-2.749-.076-5.48-.119-8.219-.139Q105.021-18581.034,102.464-18577.682Zm-37.133-4.607c-1.787,1.658-3.564,3.326-5.351,5.021q3.867-.243,7.738-.4,2.659-2.7,5.322-5.338Q69.181-18582.687,65.331-18582.289Zm-33.3,1.973q-2.2,1.336-4.408,2.711,2.594-.53,5.184-1.02c1.453-1,2.911-1.988,4.36-2.965C35.46-18581.174,33.745-18580.756,32.034-18580.316Zm67.266-3.975q-2.623,3.138-5.232,6.342,4,.085,8.01.248,2.559-3.352,5.113-6.629-1.122-.006-2.243-.006Q102.121-18584.336,99.3-18584.291Zm-25.14,1.191c-1.8,1.768-3.6,3.568-5.4,5.385,2.506-.105,5-.182,7.519-.234,1.763-1.91,3.536-3.807,5.3-5.674C79.1-18583.477,76.634-18583.3,74.161-18583.1Zm16.386-.963c-1.744,1.979-3.512,3.994-5.256,6.014,2.711,0,5.437.033,8.162.086q2.594-3.2,5.189-6.318Q94.59-18584.217,90.547-18584.062Zm-8.219.4c-1.787,1.881-3.555,3.773-5.337,5.7,2.611-.047,5.237-.076,7.862-.08q2.187-2.522,4.374-5c.291-.328.586-.662.877-1Q86.209-18583.9,82.328-18583.666Zm-58.618,4.049c-.438.211-.891.43-1.329.645.505-.145,1-.281,1.5-.42.438-.242.886-.49,1.329-.738Zm16.224-2.625c-1.582,1.049-3.154,2.1-4.732,3.174q1.437-.264,2.878-.52,1.472-.258,2.949-.5,2.351-1.752,4.7-3.451Q42.832-18582.909,39.935-18582.242Zm7.919-1.748c-1.644,1.182-3.3,2.383-4.946,3.592,2.139-.348,4.284-.672,6.428-.986,1.653-1.314,3.283-2.605,4.936-3.893C52.128-18584.867,49.993-18584.439,47.854-18583.99Zm-16.41,1.8c-.948.506-1.882,1.006-2.826,1.516,1.1-.285,2.2-.572,3.3-.848q1.415-.864,2.83-1.711C33.65-18582.885,32.539-18582.537,31.444-18582.186Zm24.363-3.383c-1.682,1.311-3.388,2.645-5.075,3.988q3.409-.486,6.828-.9,2.537-2.18,5.06-4.3Q59.211-18586.206,55.806-18585.568Zm-16.62.992c-1.229.719-2.444,1.434-3.674,2.168q2.237-.545,4.484-1.059c1.225-.814,2.459-1.619,3.683-2.416C42.184-18585.459,40.683-18585.02,39.186-18584.576Zm24.6-2.4q-2.573,2.15-5.146,4.359c2.406-.291,4.813-.553,7.224-.8q2.573-2.367,5.146-4.68Q67.395-18587.563,63.788-18586.973Zm15.224-2.187c-2.4.295-4.813.613-7.209.953-1.72,1.553-3.455,3.135-5.175,4.721q3.781-.378,7.581-.676,2.587-2.552,5.179-5.047C79.264-18589.193,79.135-18589.18,79.011-18589.16Zm-32.053,2.363c-1.4.891-2.8,1.8-4.2,2.705,1.773-.395,3.555-.775,5.332-1.143q2.108-1.509,4.222-2.988Q49.629-18587.528,46.958-18586.8Zm33.645-2.559c-1.763,1.686-3.512,3.383-5.275,5.107q3.645-.278,7.3-.486,2.594-2.736,5.194-5.4C85.411-18589.9,83.014-18589.643,80.6-18589.355Zm8.01-.857q-2.616,2.687-5.237,5.436c2.564-.143,5.117-.258,7.691-.348q2.58-2.9,5.175-5.746C93.692-18590.682,91.157-18590.461,88.613-18590.213Zm8.072-.7c-1.734,1.906-3.455,3.822-5.179,5.771q4-.144,8.015-.2c.2-.248.405-.486.61-.73q2.259-2.7,4.527-5.355C102-18591.275,99.334-18591.105,96.684-18590.91Zm16.791-.877q-2.544,3.182-5.084,6.424,4.074.035,8.162.152,1.994-2.707,3.988-5.375.507-.677,1.015-1.357C118.865-18591.92,116.163-18591.867,113.476-18591.787Zm-8.124.33q-2.587,3.023-5.175,6.113,3.9-.05,7.824-.02,1.472-1.887,2.945-3.744c.71-.893,1.415-1.777,2.125-2.664C110.5-18591.7,107.92-18591.586,105.352-18591.457Zm-66.6,5.475c-.386.2-.772.391-1.153.586.553-.166,1.1-.328,1.653-.49.419-.248.843-.492,1.263-.734C39.93-18586.412,39.339-18586.2,38.753-18585.982Zm16-2.863c-1.52,1.053-3.026,2.105-4.546,3.178,2.02-.4,4.05-.791,6.07-1.162,1.52-1.178,3.059-2.35,4.579-3.5C58.808-18589.852,56.788-18589.355,54.749-18588.846Zm7.819-1.877c-1.591,1.2-3.164,2.391-4.76,3.611,2.178-.391,4.365-.764,6.547-1.115q2.4-2,4.793-3.941C66.951-18591.705,64.764-18591.229,62.568-18590.723Zm-16.2,2.053c-.891.5-1.773.99-2.664,1.5q1.751-.492,3.5-.973c.915-.58,1.834-1.162,2.754-1.734C48.754-18589.484,47.568-18589.084,46.367-18588.67Zm24.048-3.76q-2.452,1.986-4.9,4.018,3.5-.551,7.014-1.045,2.466-2.2,4.936-4.35C75.119-18593.373,72.76-18592.91,70.416-18592.43Zm-16.41,1.234q-1.758,1.078-3.521,2.178,2.344-.615,4.689-1.2c1.206-.83,2.4-1.65,3.607-2.465C57.183-18592.191,55.6-18591.7,54.005-18591.2Zm24.291-2.764q-2.494,2.174-4.984,4.4,3.709-.507,7.424-.939c1.677-1.605,3.345-3.182,5.022-4.75Q82.02-18594.644,78.3-18593.959Zm8.786-1.5c-1.706,1.586-3.421,3.2-5.132,4.816,2.359-.268,4.712-.51,7.081-.734,1.692-1.729,3.374-3.43,5.065-5.121C91.758-18596.174,89.423-18595.832,87.083-18595.459Zm-25.421,1.92c-1.348.895-2.706,1.814-4.055,2.73.172-.039.338-.082.51-.125q2.566-.615,5.127-1.186c1.391-1.039,2.764-2.049,4.155-3.064C65.479-18594.65,63.578-18594.107,61.662-18593.539Zm37.89-3.67c-1.539.186-3.083.387-4.617.6q-2.559,2.552-5.122,5.166c2.506-.229,5-.434,7.514-.615q2.537-2.774,5.084-5.484C101.459-18597.437,100.506-18597.328,99.553-18597.209Zm-45.991,4.607-1.063.568c.648-.211,1.3-.416,1.949-.621.434-.262.867-.523,1.3-.785C55.015-18593.164,54.291-18592.887,53.562-18592.6Zm49.288-5c-1.692,1.811-3.4,3.654-5.089,5.5,2.625-.182,5.246-.344,7.876-.473q2.53-2.944,5.07-5.836Q106.769-18598.047,102.85-18597.6Zm-33.5,1.883c-1.463,1.057-2.935,2.135-4.4,3.217q3.109-.68,6.232-1.311,2.237-1.8,4.479-3.564Q72.507-18596.575,69.353-18595.717Zm42.1-2.754c-1.7,1.934-3.412,3.893-5.113,5.869,2.544-.123,5.079-.219,7.633-.291q2.5-3.114,5.027-6.174C116.483-18598.895,113.962-18598.7,111.451-18598.471Zm7.962-.625c-1.687,2.045-3.359,4.107-5.041,6.2q4-.108,8.01-.135,2.48-3.287,4.975-6.514C124.7-18599.424,122.062-18599.277,119.413-18599.1Zm-58.341,3.674c-.858.5-1.711,1.006-2.568,1.516q1.894-.571,3.788-1.125c.92-.609,1.834-1.211,2.754-1.811Q63.059-18596.142,61.072-18595.422Zm16-2.3c-1.544,1.209-3.078,2.42-4.622,3.658q3.388-.671,6.785-1.271,2.351-2.036,4.7-4.021C81.651-18598.838,79.345-18598.291,77.067-18597.723Zm7.743-1.836c-1.582,1.34-3.183,2.707-4.765,4.074q3.624-.636,7.257-1.2,2.423-2.253,4.851-4.447C89.709-18600.635,87.25-18600.105,84.81-18599.559Zm-16.215,1.492c-1.139.725-2.287,1.473-3.421,2.211.972-.271,1.939-.543,2.916-.811.719-.2,1.444-.391,2.163-.58q1.808-1.3,3.612-2.568Q71.228-18598.965,68.6-18598.066Zm25.016-3.359q-2.487,2.244-4.979,4.537,3.409-.516,6.833-.973c1.644-1.629,3.293-3.25,4.936-4.846C98.142-18602.3,95.87-18601.873,93.611-18601.426Zm-17.459.877q-1.973,1.38-3.955,2.787c1.954-.51,3.9-1,5.851-1.473q2.058-1.594,4.112-3.154C80.165-18601.8,78.149-18601.178,76.152-18600.549Zm25.149-2.316c-1.668,1.611-3.34,3.25-5,4.895.853-.109,1.711-.215,2.568-.324,1.582-.191,3.173-.377,4.76-.553q2.494-2.637,4.994-5.232Q104.954-18603.509,101.3-18602.865Zm-33.149,3.383c-.372.205-.729.41-1.1.615.791-.271,1.587-.537,2.378-.8.486-.311.972-.615,1.458-.92C69.972-18600.225,69.067-18599.857,68.152-18599.482Zm40.911-4.664c-1.672,1.734-3.331,3.479-5,5.252,2.578-.277,5.151-.529,7.738-.754q2.494-2.83,5-5.6C114.214-18604.908,111.646-18604.541,109.064-18604.146Zm-25.33,1.291q-2.144,1.623-4.3,3.289,3.266-.779,6.528-1.5c1.482-1.234,2.964-2.465,4.446-3.674C88.184-18604.133,85.954-18603.5,83.733-18602.855Zm35.961-2.758c-.7.086-1.4.172-2.092.262-1.682,1.854-3.374,3.744-5.056,5.637q3.709-.308,7.438-.553,2.487-3,4.984-5.957Q122.331-18605.937,119.694-18605.613Zm5.7-.658c-1.672,1.977-3.331,3.965-5,5.98q3.924-.252,7.857-.414,2.466-3.182,4.951-6.311C130.606-18606.795,127.995-18606.543,125.4-18606.271Zm-49.855,3.846q-1.287.785-2.564,1.586,2.159-.7,4.317-1.367c.958-.668,1.92-1.324,2.878-1.977Q77.858-18603.319,75.543-18602.426Zm15.8-2.564c-1.5,1.23-3.016,2.482-4.517,3.74q3.538-.771,7.081-1.463c1.558-1.395,3.107-2.768,4.665-4.135C96.16-18606.258,93.749-18605.633,91.343-18604.99Zm-8.372-.219c-1.125.758-2.273,1.529-3.4,2.3,1.787-.543,3.583-1.072,5.37-1.582q1.83-1.365,3.655-2.705Q85.782-18606.231,82.971-18605.209Zm17.22-2.039q-2.416,2.109-4.827,4.254c2.182-.418,4.384-.818,6.571-1.2q2.4-2.309,4.8-4.568C104.556-18608.277,102.369-18607.768,100.191-18607.248Zm7.519-1.725q-2.437,2.285-4.879,4.631,3.567-.6,7.143-1.135,2.444-2.514,4.894-4.979C112.485-18609.988,110.093-18609.492,107.71-18608.973Zm-17.287,1.152c-1.31.953-2.611,1.916-3.917,2.889q3.109-.873,6.228-1.693,2.066-1.67,4.141-3.307Q93.644-18608.909,90.423-18607.82Zm24.892-2.725c-1.639,1.652-3.269,3.316-4.908,5,2.525-.371,5.07-.719,7.6-1.033q2.459-2.716,4.932-5.371Q119.127-18611.288,115.315-18610.545Zm-32.806,3.926c-.415.242-.839.5-1.253.744q1.558-.574,3.116-1.131c.6-.395,1.2-.791,1.8-1.186Q84.339-18607.412,82.509-18606.619Zm41.3-5.475q-2.5,2.681-5,5.418c.048-.006.086-.016.133-.02,2.368-.291,4.732-.559,7.109-.8q2.466-2.895,4.941-5.736Q127.389-18612.705,123.806-18612.094Zm-25.907,1.84q-2.123,1.679-4.25,3.393,3.445-.894,6.9-1.717,2.23-1.937,4.46-3.826Q101.449-18611.367,97.9-18610.254Zm33.531-3.041c-1.658,1.9-3.307,3.813-4.96,5.756q3.852-.393,7.714-.7,2.459-3.082,4.927-6.1C136.543-18614.02,133.993-18613.676,131.43-18613.295Zm-41.617,3.588c-.886.572-1.777,1.148-2.659,1.73.257-.092.519-.182.777-.271,1.31-.453,2.63-.9,3.941-1.33q1.53-1.1,3.054-2.178Q92.367-18610.754,89.813-18609.707Zm17.025-3.227q-2.337,1.966-4.67,3.975c2.087-.486,4.184-.953,6.275-1.4,1.553-1.443,3.111-2.883,4.665-4.3C111.012-18614.1,108.93-18613.529,106.838-18612.934Zm-9.706.314q-1.73,1.216-3.455,2.449,2.923-.949,5.856-1.848,1.894-1.474,3.793-2.922Q100.225-18613.809,97.132-18612.619Zm17.044-2.32q-2.38,2.159-4.76,4.375,3.466-.729,6.942-1.387,2.4-2.394,4.8-4.736Q117.667-18615.853,114.176-18614.939Zm7.438-1.857c-1.611,1.572-3.212,3.154-4.817,4.766q3.724-.7,7.462-1.32,2.437-2.6,4.879-5.146C126.622-18617.959,124.121-18617.393,121.614-18616.8Zm-17.139,1.439c-1.315,1-2.625,2.016-3.941,3.035q3.338-1.008,6.69-1.955,2.116-1.778,4.241-3.52Q107.97-18616.619,104.475-18615.357Zm-7.8,1.324c-.524.324-1.029.639-1.553.967.891-.348,1.782-.7,2.673-1.033q.522-.193,1.044-.4c.729-.5,1.463-1.006,2.187-1.506C99.567-18615.354,98.123-18614.7,96.67-18614.033Zm33.4-4.666c-1.658,1.721-3.3,3.451-4.951,5.205q3.509-.574,7.038-1.072,2.444-2.795,4.9-5.537Q133.56-18619.438,130.072-18618.7Zm7.448-1.49q-2.473,2.751-4.927,5.561c2.521-.357,5.036-.682,7.562-.982q2.452-2.979,4.917-5.912C142.546-18621.105,140.04-18620.666,137.52-18620.189Zm-23.948,1.691q-2.259,1.837-4.517,3.717,2.959-.823,5.937-1.582c1.506-1.357,3.021-2.711,4.531-4.041C117.536-18619.789,115.558-18619.156,113.571-18618.5Zm-9.711,1.254c-.948.637-1.906,1.285-2.854,1.938q2.68-.984,5.361-1.934c1.12-.838,2.239-1.672,3.359-2.492Q106.788-18618.525,103.86-18617.244Zm16.853-3.531q-2.33,2.045-4.66,4.141,3.359-.85,6.728-1.631,2.359-2.285,4.717-4.512C125.24-18622.139,122.968-18621.461,120.714-18620.775Zm-9.639.486c-1.191.871-2.392,1.762-3.583,2.658q3.216-1.122,6.442-2.178,2.008-1.623,4.012-3.211Q114.507-18621.7,111.074-18620.289Zm16.9-2.621c-1.577,1.49-3.169,3.016-4.746,4.541q3.659-.844,7.324-1.6c1.611-1.668,3.221-3.311,4.832-4.945C132.9-18624.273,130.444-18623.611,127.971-18622.91Zm-23.6,4.3c.481-.211.958-.414,1.439-.619.229-.152.462-.311.691-.459C105.79-18619.332,105.075-18618.971,104.37-18618.607Zm32.039-6.57c-1.639,1.648-3.288,3.33-4.927,5.018,2.268-.463,4.55-.906,6.823-1.326q2.437-2.7,4.884-5.346C140.931-18626.309,138.663-18625.756,136.409-18625.178Zm-25.788,3.463c-.677.439-1.344.867-2.02,1.311,1.544-.639,3.078-1.262,4.622-1.883.929-.666,1.858-1.334,2.787-1.99Q113.316-18623.026,110.622-18621.715Zm9.816-2.254c-1.472,1.148-2.935,2.307-4.4,3.484q2.766-.888,5.537-1.721c1.477-1.287,2.935-2.545,4.412-3.8C124.135-18625.346,122.277-18624.664,120.437-18623.969Zm23.234-2.979q-2.459,2.66-4.913,5.381c2.463-.447,4.946-.873,7.419-1.268q2.452-2.895,4.917-5.742C148.607-18628.057,146.149-18627.518,143.671-18626.947Zm-16.334.463c-1.534,1.3-3.054,2.6-4.579,3.926q3.238-.964,6.485-1.857,2.323-2.18,4.655-4.312Q130.618-18627.642,127.337-18626.484Zm-9.635,1.42c-1.058.748-2.106,1.5-3.164,2.26q3.059-1.216,6.128-2.355,1.887-1.471,3.783-2.92Q121.076-18626.615,117.7-18625.064Zm16.7-3.826c-1.563,1.426-3.135,2.889-4.7,4.352q3.588-.987,7.181-1.889,2.4-2.408,4.808-4.77Q138.044-18630.09,134.4-18628.891Zm-17.011,2.883c-.172.109-.357.225-.534.334.172-.082.338-.158.51-.234.915-.418,1.834-.838,2.749-1.248l1.839-1.268C120.433-18627.633,118.908-18626.822,117.388-18626.008Zm10.121-3.387c-1.458,1.1-2.9,2.2-4.355,3.316q2.516-.917,5.027-1.793,2.166-1.822,4.327-3.6C130.834-18630.787,129.176-18630.1,127.508-18629.395Zm15.324-2.15q-2.466,2.408-4.927,4.865c2.192-.543,4.393-1.062,6.59-1.562q2.444-2.622,4.889-5.189C147.192-18632.826,145.019-18632.2,142.832-18631.545Zm-18.483,1.883c-.862.586-1.734,1.182-2.6,1.777q2.837-1.257,5.685-2.459c1.177-.881,2.344-1.754,3.516-2.615Q127.644-18631.345,124.349-18629.662Zm9.739-2.445q-2.28,1.866-4.56,3.775,3.095-1.066,6.2-2.059,2.323-2.109,4.646-4.16Q137.229-18633.364,134.089-18632.107Zm15.81-1.467c-1.639,1.715-3.293,3.469-4.927,5.227,2.416-.543,4.846-1.062,7.271-1.549q2.466-2.83,4.941-5.6C154.759-18634.885,152.315-18634.242,149.9-18633.574Zm-8.977-1.182c-1.563,1.381-3.14,2.787-4.7,4.207,2.335-.748,4.684-1.473,7.023-2.162q2.416-2.353,4.836-4.646Q144.5-18636.1,140.922-18634.756Zm-5.956-.123c-1.487,1.066-2.988,2.162-4.474,3.264q2.166-.888,4.336-1.75c1.425-1.158,2.864-2.311,4.288-3.439C137.729-18636.176,136.352-18635.537,134.966-18634.879Zm-3.936.785c-.615.4-1.225.795-1.839,1.2q2.48-1.222,4.965-2.4,1.651-1.187,3.3-2.357Q134.241-18635.909,131.03-18634.094Zm18.345-3.711c-1.663,1.563-3.331,3.154-4.989,4.754q3.166-.92,6.337-1.781,2.466-2.566,4.936-5.08C153.568-18639.234,151.462-18638.529,149.375-18637.8Zm-8.329.123q-2.323,1.831-4.641,3.7,2.916-1.137,5.847-2.215,2.344-2.06,4.7-4.064Q144-18639.007,141.046-18637.682Zm15.167-2.406q-2.494,2.531-4.984,5.123,3.559-.958,7.119-1.83,2.494-2.78,5-5.5C160.977-18641.594,158.585-18640.855,156.212-18640.088Zm-8.639-.443c-1.6,1.363-3.188,2.734-4.784,4.131q3.424-1.257,6.852-2.43,2.459-2.314,4.927-4.578C152.238-18642.48,149.9-18641.518,147.573-18640.531Zm-4.207-.248c-1.739,1.191-3.469,2.393-5.2,3.621,1.091-.5,2.2-1,3.3-1.5,1.477-1.152,2.945-2.287,4.422-3.416C145.039-18641.641,144.209-18641.217,143.366-18640.779Zm-5.079,2.074c.92-.492,1.849-.982,2.768-1.469q1.387-.958,2.768-1.9Q141.057-18640.425,138.287-18638.705Zm17.783-5.295c-1.72,1.559-3.421,3.131-5.137,4.727q3.023-1.022,6.051-1.977,2.516-2.546,5.041-5.027C160.034-18645.539,158.056-18644.781,156.069-18644Zm-7.676.672q-2.5,1.887-5.008,3.826,2.695-1.187,5.394-2.316,2.452-2.071,4.9-4.088C151.924-18645.066,150.151-18644.205,148.393-18643.328Zm14.252-3.178q-2.559,2.508-5.108,5.078,3.474-1.093,6.957-2.105,2.552-2.76,5.117-5.455Q166.123-18647.787,162.645-18646.506Zm-8.21.242c-1.682,1.383-3.354,2.77-5.036,4.189,2.225-.93,4.436-1.826,6.661-2.7q2.573-2.338,5.146-4.613Q157.818-18647.867,154.435-18646.264Zm-7.509,3.074c.429-.211.853-.424,1.277-.635.805-.6,1.615-1.209,2.421-1.8Q148.772-18644.422,146.925-18643.189Zm9.739-6.209q-2.988,2.136-5.961,4.346,2.33-1.137,4.665-2.234,2.673-2.174,5.337-4.279C159.362-18650.852,158.009-18650.133,156.665-18649.4Zm6.328-.781q-2.716,2.379-5.427,4.822c1.9-.734,3.812-1.449,5.713-2.145q2.616-2.566,5.241-5.055Q165.754-18651.394,162.993-18650.18Zm-1.31-1.9q-2.78,2.188-5.561,4.447,3.2-1.494,6.4-2.912,2.773-2.437,5.556-4.8C165.942-18654.283,163.817-18653.2,161.682-18652.082Zm-2.278.877c.853-.457,1.711-.91,2.564-1.352.405-.32.81-.635,1.215-.949Q161.3-18652.369,159.4-18651.205Zm10.893-5.236q-2.995,2.517-5.98,5.109,2.637-1.146,5.279-2.246,2.8-2.643,5.6-5.213C173.571-18658.023,171.927-18657.236,170.3-18656.441Zm-5.675,2.072c-.557.434-1.12.867-1.677,1.3q3.03-1.564,6.066-3.068,1.487-1.257,2.983-2.5Q168.3-18656.551,164.622-18654.369Zm10.3-5.9c-1.239,1.01-2.459,2.016-3.688,3.045q2.351-1.137,4.708-2.24c1.253-1.148,2.516-2.283,3.774-3.406Q177.316-18661.6,174.924-18660.271Zm-3.788.977c-.376.281-.739.547-1.115.828,1.83-1.043,3.669-2.072,5.5-3.078q1.572-1.277,3.14-2.533Q174.893-18661.749,171.136-18659.295Zm11.865-7.428q-2.273,1.772-4.541,3.588c1.282-.691,2.559-1.363,3.845-2.035q2.066-1.816,4.131-3.6C185.292-18668.1,184.144-18667.414,183-18666.723Zm-5.065,2.49c1.353-.838,2.7-1.662,4.055-2.482.653-.51,1.306-1.02,1.958-1.523s1.3-1.006,1.954-1.506Q181.914-18667.058,177.935-18664.232Zm8.386-5.059c.758-.443,1.52-.887,2.282-1.32,1.429-1.221,2.868-2.426,4.3-3.611Q189.6-18671.8,186.322-18669.291ZM425.882-18722h3.857c65.031,7.877,132.838,27.846,205.345,60.348,24.232,10.861,47.928,22.637,71.049,34.953v.467C619.824-18672.273,525.689-18710.666,425.882-18722Zm86.843,0h1.348c40.1,10.863,81.627,26.795,124.975,47.883,22.79,11.09,45.174,23.152,67.085,35.82v.422C644.91-18673.311,580.092-18703.959,512.725-18722Zm51.529,0h1.034c48.374,18.479,95.488,43.66,140.845,71.99v.436C660.453-18678.123,612.986-18703.473,564.253-18722Zm36.241,0h.746c35.675,17.133,70.729,38.016,104.892,60.967v.387C671.732-18683.768,636.424-18704.793,600.495-18722Zm-342.3,0h.119q-14.373,8.751-28.434,19.17Q243.89-18713.235,258.192-18722Z" transform="translate(660.388 18722.502)" fill="#009c73" stroke="rgba(0,0,0,0)" stroke-miterlimit="10" stroke-width="1" opacity="0.15"/>
</svg>
