<svg width="575" height="431" viewBox="0 0 575 431" fill="none" xmlns="http://www.w3.org/2000/svg">
<mask id="mask0_807_1289" style="mask-type:luminance" maskUnits="userSpaceOnUse" x="0" y="0" width="575" height="431">
<path d="M574.973 0.461914H0V430.666H574.973V0.461914Z" fill="white"/>
</mask>
<g mask="url(#mask0_807_1289)">
<path d="M284.094 430.662C282.869 430.662 282.217 430.522 281.794 429.939C281.654 429.748 281.563 429.526 281.527 429.292C275.701 428.01 270.455 424.854 266.593 420.308C263.581 416.422 261.531 409.872 259.884 404.608C259.336 402.668 258.668 400.765 257.884 398.908L257.797 398.924L258.082 399.967C260.682 409.467 260.816 410.197 260.166 411.108C259.754 411.685 258.897 412.885 242.686 414.759C233.888 415.825 225.04 416.436 216.179 416.589C208.679 416.589 192.424 415.034 171.319 410.652C145.993 405.401 121.255 397.636 97.471 387.473C70.616 375.86 46.136 382.393 30.33 389.918C19.9228 394.871 10.3636 401.437 2.006 409.374L0 407.415C8.5445 399.239 18.3509 392.493 29.042 387.437C38.8775 382.634 49.4971 379.641 60.393 378.601C73.4518 377.469 86.5856 379.638 98.587 384.909C149.057 406.735 199.608 413.795 216.181 413.795C224.649 413.649 233.105 413.077 241.516 412.081C251.007 411.012 256.036 410.015 257.624 409.481C257.381 408.045 256.404 404.472 255.379 400.722L255.069 399.591C254.269 399.799 253.399 400.031 252.537 400.261C245.334 402.29 238.022 403.914 230.637 405.125C220.537 406.625 212.757 406.325 207.507 404.209C201.579 401.826 196.613 393.602 192.746 379.767C190.661 372.068 189.145 364.226 188.209 356.304C187.831 353.126 187.575 350.119 187.488 347.837C187.355 344.319 187.641 343.631 187.972 343.189C188.832 342.292 189.843 341.553 190.958 341.006C194.258 339.045 199.237 336.081 200.617 330.034C201.617 325.665 199.332 317.892 193.911 312.954C192.076 311.213 189.853 309.935 187.425 309.226C184.998 308.517 182.436 308.397 179.953 308.877C179.957 309.412 179.997 309.947 180.073 310.477L180.103 310.721C180.109 310.77 180.115 310.813 180.122 310.852C180.33 310.836 180.609 310.798 180.85 310.766C183.375 310.348 185.965 310.593 188.367 311.475C191.718 312.654 194.723 315.775 196.612 320.032C198.402 324.067 198.857 328.393 197.829 331.605C196.895 334.524 194.818 336.205 192.413 338.155C187.956 341.454 184.452 345.874 182.258 350.967C178.397 359.554 181.058 366.311 182.816 370.783C183.692 373.008 184.325 374.617 184.016 375.997C183.687 377.472 182.086 378.397 179.731 378.484C179.623 378.484 179.511 378.49 179.397 378.49C173.921 378.49 162.791 374.012 157.672 356.758C154.425 345.815 154.391 334.837 157.572 325.846C160.872 316.52 167.504 309.802 176.238 306.931C176.633 306.801 177.028 306.682 177.422 306.575C177.762 305.305 178.347 304.113 179.144 303.067C181.829 299.438 187.224 296.141 195.637 292.986C204.712 289.586 202.309 279.96 201.356 277.091C198.315 267.935 188.194 257.248 176.305 258.776C175.923 259.386 175.582 260.021 175.284 260.676C177.554 260.261 179.858 260.06 182.166 260.076C185.074 260.076 188.049 262.019 190.766 265.692C195.136 271.6 197.823 280.531 196.515 284.803C195.378 288.517 192.999 289.881 188.261 292.597C182.108 296.06 176.207 299.953 170.601 304.246C156.011 315.313 156.15 319.462 156.283 323.471C156.336 324.421 156.319 325.373 156.232 326.32C156.228 326.646 156.158 326.967 156.024 327.264C155.89 327.561 155.696 327.827 155.455 328.046C155.213 328.265 154.929 328.431 154.62 328.535C154.311 328.638 153.985 328.677 153.66 328.648C150.833 328.408 147.069 323.638 144.594 319.016C141.094 312.551 139.408 305.261 139.715 297.916C140.302 287.932 143.108 279.464 148.056 272.745C153.599 265.219 161.893 259.81 172.707 256.67C173.338 256.487 173.973 256.335 174.612 256.214C176.983 252.705 179.753 249.481 182.865 246.609C177.315 251.296 171.027 255.034 164.257 257.669C158.435 259.731 153.557 264.1 150.495 267.402C147.967 270.074 145.756 273.03 143.908 276.211C143.76 276.502 143.537 276.748 143.262 276.924C142.987 277.1 142.67 277.199 142.344 277.211C140.974 277.263 139.315 275.754 137.428 272.723C134.74 268.273 132.978 263.326 132.249 258.178C131.186 251.559 132.315 244.774 135.463 238.855C140.727 229.421 147.957 221.229 156.663 214.833C157.699 214.074 158.732 213.36 159.763 212.691C159.68 212.278 159.593 211.844 159.5 211.391L159.44 211.427C156.901 212.997 154.208 214.306 151.405 215.334C151.178 215.397 150.94 215.412 150.706 215.377C150.473 215.343 150.249 215.26 150.05 215.134C149.125 214.569 148.074 213.117 145.45 201.834C143.916 200.975 142.471 199.965 141.137 198.819C138.237 196.472 134.724 193.235 131.322 190.107C128.497 187.507 125.83 185.056 123.745 183.318C119.424 179.718 116.873 173.242 117.396 167.204C117.532 164.784 118.267 162.435 119.535 160.369C120.802 158.302 122.564 156.583 124.66 155.366C128.672 153.06 131.824 152.456 134.297 153.521C136.671 154.543 138.115 156.963 139.184 159.987C134.853 138.474 129.307 111.97 124.406 88.5509C119.006 62.7509 114.346 40.4769 113.393 34.7619C112.093 26.9619 113.712 19.7899 118.073 14.0139C121.95 8.99036 127.371 5.37933 133.5 3.73592C141.813 1.44692 210.6 0.847916 269.6 0.580916C276.369 0.550916 281.26 0.528916 282.957 0.502916C292.995 0.350916 308.164 0.120916 313.949 10.1139C314.804 11.9746 315.466 13.9181 315.925 15.9139C367.34 16.0339 417.767 14.4249 437.043 8.55792C457.735 2.06646 479.582 0.101355 501.1 2.79592C523.9 5.65092 548.06 13.6959 574.974 27.3879L573.702 29.8879C522.679 3.92792 480.782 -1.82208 437.857 11.2419C428.257 14.1629 410.338 16.2589 384.584 17.4719C365.884 18.3529 343.072 18.7719 316.651 18.7309C320.5 34.1869 326.264 65.7399 329.851 86.0579C332.751 102.51 335.706 120.002 337.951 134.05C341.459 155.985 341.251 156.797 341.151 157.235C340.959 158.01 340.514 158.7 339.887 159.196C339.261 159.692 338.487 159.965 337.688 159.974C336.421 160.04 335.15 159.939 333.909 159.674C333.662 159.632 333.428 159.591 333.209 159.557C332.095 159.386 331.714 158.563 330.5 153.686C329.768 150.742 328.808 146.471 327.649 140.994C325.565 131.143 322.803 117.21 319.871 101.764C314.762 74.8399 308.92 42.0639 308.157 34.3499C307.649 28.821 305.937 23.4703 303.14 18.6739C248.897 18.2809 195.84 16.1649 179.704 15.2429C144.825 13.2489 139.386 20.9029 136.804 28.9129C136.28 30.5399 136.55 39.9749 144.259 84.8839C149.259 113.996 155.613 147.923 160.259 172.697C164.654 196.148 166.071 203.807 166.035 204.73C165.997 205.723 165.49 207.262 162.035 209.739C162.135 210.231 162.228 210.693 162.315 211.126C169.323 207.048 175.981 205.17 181.496 205.788C189.887 206.728 195.52 215.565 197.379 223.906C198.242 227.478 198.319 231.196 197.604 234.801C197.321 236.433 196.707 237.99 195.802 239.377C194.897 240.764 193.718 241.952 192.338 242.868C187.641 245.839 183.447 249.538 179.913 253.827C179.323 254.537 178.79 255.213 178.313 255.854H178.498C183.484 255.935 188.32 257.575 192.326 260.545C197.738 264.447 201.822 269.915 204.026 276.212C207.056 285.335 204.226 292.771 196.626 295.612C186.016 299.592 182.052 303.129 180.655 305.943C183.386 305.601 186.16 305.866 188.777 306.719C191.394 307.571 193.791 308.991 195.797 310.876C198.702 313.579 200.926 316.93 202.289 320.657C203.576 323.824 203.944 327.29 203.35 330.657C201.703 337.876 195.874 341.344 192.39 343.416C191.671 343.815 190.981 344.263 190.324 344.757C189.953 346.863 190.871 359.377 193.808 372.471C197.498 388.919 202.734 399.266 208.553 401.606C219.753 406.106 241.409 400.328 251.817 397.55C252.795 397.288 253.626 397.068 254.337 396.884C249.42 378.733 241.112 345.953 242.305 315.968C243.874 276.538 244.462 238.931 234.562 212.204C228.362 195.455 204.85 186.564 190.803 181.252C182.99 178.297 179.789 177.025 179.037 175.182C178.925 174.913 178.869 174.624 178.875 174.333C178.881 174.042 178.947 173.756 179.07 173.492C179.494 172.579 180.586 172.107 183.57 171.55C185.617 171.167 188.579 170.763 192.37 170.35C199.194 169.609 208.647 168.832 221.27 167.974C244.2 166.416 272.586 164.945 295.394 163.763C315.733 162.709 333.294 161.799 335.024 161.415C337.002 160.975 341.281 160.972 346.385 161.955C353.143 163.254 359.574 165.884 365.306 169.692C371.038 173.5 375.955 178.409 379.772 184.135C384.865 191.919 388.383 200.625 390.128 209.762C396.86 242.175 395.946 270.523 395.211 293.3C394.89 303.254 394.611 311.851 395.048 319.044C395.96 334.084 403.303 347.394 407.69 355.344C408.635 357.056 409.423 358.484 410.015 359.681C436.266 355.929 459.823 353.062 466.191 353.569C467.491 353.669 468.442 353.914 468.884 354.754C470.69 358.187 467.477 372.321 465.294 380.131C463.466 386.669 458.623 402.277 453.152 405.978C451.845 406.863 447.292 408.509 422.965 412.569C408.031 415.061 387.591 418.114 365.409 421.164C345.117 423.954 324.584 426.573 309.076 428.353C301.166 429.26 294.893 429.913 290.433 430.292C288.108 430.492 286.292 430.61 285.033 430.651C284.686 430.662 284.373 430.67 284.091 430.67M290.407 386.259C290.792 386.267 291.167 386.381 291.491 386.588C291.926 386.849 293.08 387.541 294.901 394.478C296.09 399.068 296.919 403.743 297.38 408.462C298.256 417.853 297.15 423.993 294.091 426.712C293.902 426.88 293.708 427.04 293.509 427.196C307.488 425.854 334.541 422.596 367.109 418.096C382.492 415.971 404.729 412.784 423.309 409.666C446.566 405.766 450.823 404.166 451.573 403.654C454.786 401.48 459.006 392.177 462.585 379.375C464.016 374.336 465.16 369.22 466.011 364.052C466.779 359.106 466.632 357.125 466.495 356.413C465.142 356.181 459.595 356.052 436.976 358.868C429.466 359.803 420.693 360.986 411.092 362.355C411.273 362.788 411.322 363.265 411.233 363.726C411.144 364.187 410.921 364.611 410.592 364.946C410.132 365.373 409.502 365.959 390.401 369.476C379.025 371.57 364.078 374.132 349.393 376.507C333.376 379.096 318.759 381.285 308.237 382.669C288.711 385.239 287.914 384.522 287.213 383.891C286.917 383.629 286.733 383.264 286.698 382.87C286.662 382.477 286.779 382.084 287.023 381.774C287.544 381.08 288.329 380.032 314.367 375.188C329.667 372.342 349.891 368.907 371.321 365.518C382.791 363.704 395.154 361.818 407.077 360.101C406.519 359.031 405.858 357.833 405.231 356.701C400.731 348.541 393.195 334.886 392.245 319.214C391.802 311.891 392.08 303.234 392.404 293.214C393.134 270.585 394.043 242.422 387.379 210.337C383.712 192.68 375.588 179.68 363.233 171.697C357.934 168.288 352.035 165.919 345.851 164.717C342.499 163.957 339.043 163.769 335.629 164.161C333.761 164.576 320.596 165.274 295.535 166.572C273.385 167.72 245.818 169.149 223.23 170.661C210.997 171.48 201.295 172.255 194.396 172.961C190.348 173.273 186.325 173.847 182.351 174.678C185.409 176.197 188.561 177.518 191.789 178.632C206.282 184.114 230.539 193.287 237.189 211.232C241.665 223.315 244.355 238.37 245.414 257.26C246.458 275.88 245.883 296.535 245.105 316.082C243.927 345.691 252.185 378.233 257.062 396.229C257.674 396.032 258.329 396.015 258.95 396.182C260.275 396.664 260.872 398.392 262.559 403.782C264.059 408.564 266.106 415.112 268.809 418.6C272.563 422.961 277.735 425.859 283.415 426.783C286.504 423.883 290.554 418.246 290.964 408.42C291.028 403.188 290.482 397.967 289.339 392.862C288.565 388.876 288.276 387.384 289.455 386.562C289.735 386.367 290.069 386.262 290.41 386.262M293.473 400.916C293.759 403.446 293.857 405.993 293.766 408.538C293.396 417.419 290.261 423.238 287.23 426.827C289.083 426.616 290.827 425.845 292.23 424.617C293.73 423.287 294.621 420.317 294.818 416.017C294.926 410.949 294.476 405.886 293.474 400.917M408.314 362.761C398.655 364.152 388.221 365.719 377.431 367.405C355.941 370.761 334.344 374.383 318.178 377.345C310.055 378.832 304.191 379.986 299.959 380.877C309.787 379.751 326.097 377.444 349.304 373.689C380.739 368.602 404.256 364.198 408.37 362.94C408.353 362.883 408.334 362.824 408.314 362.761ZM177.161 309.581L177.117 309.596C161.008 314.896 153.96 334.396 160.36 355.961C165 371.6 174.411 374.814 177.185 375.427C179.579 375.956 180.976 375.545 181.285 375.303C181.089 374.094 180.724 372.918 180.199 371.811C178.384 367.2 175.347 359.483 179.692 349.818C182.07 344.327 185.844 339.555 190.64 335.977C192.864 334.177 194.472 332.877 195.15 330.751C195.962 328.214 195.537 324.543 194.04 321.17C192.463 317.615 190.053 315.045 187.428 314.122C185.444 313.383 183.3 313.185 181.215 313.547C180.733 313.687 180.228 313.726 179.73 313.661C179.233 313.597 178.754 313.43 178.324 313.171C178.022 312.904 177.777 312.58 177.603 312.217C177.429 311.854 177.33 311.46 177.311 311.058L177.283 310.826C177.238 310.462 177.183 310.045 177.157 309.582M172.718 259.595C153.837 265.339 143.678 278.284 142.512 298.083C142.236 304.907 143.807 311.678 147.061 317.683C149.684 322.583 152.32 325.071 153.473 325.693C153.514 324.983 153.516 324.271 153.479 323.561C153.198 320.679 153.86 317.783 155.367 315.31C157.572 311.569 161.876 307.343 168.908 302.01C174.609 297.644 180.611 293.685 186.868 290.162C191.346 287.594 193.023 286.633 193.835 283.979C194.759 280.959 192.592 272.871 188.513 267.357C186.376 264.468 184.122 262.878 182.167 262.878C180.006 262.863 177.849 263.052 175.724 263.442C174.484 263.658 173.588 263.815 172.857 263.131C172.6 262.841 172.415 262.494 172.318 262.118C172.221 261.743 172.214 261.349 172.299 260.971C172.373 260.493 172.514 260.028 172.718 259.59M160.355 215.672C151.078 221.989 143.401 230.38 137.932 240.181C132.723 249.835 134.971 259.774 136.774 264.839C138.538 269.792 140.779 272.92 141.925 274.017C144.401 269.866 152.493 258.856 163.325 255.017C169.825 252.461 175.863 248.858 181.2 244.351C187.024 239.502 190.7 234.696 191.042 231.496C191.495 227.222 189.106 219.948 184.455 215.651C183.275 214.452 181.826 213.551 180.229 213.023C178.631 212.495 176.931 212.355 175.269 212.615C168.269 213.923 165.234 217.002 163.94 218.315C163.34 218.924 162.661 219.615 161.679 219.215C161.374 219.085 161.117 218.863 160.945 218.579C160.773 218.295 160.694 217.965 160.721 217.634C160.691 217.407 160.566 216.734 160.36 215.679M177.06 209.644C180.552 209.719 183.881 211.133 186.36 213.594C191.72 218.547 194.369 226.737 193.833 231.794C193.369 236.171 189.081 240.994 185.445 244.361C187.163 242.944 188.975 241.646 190.87 240.476C194.787 238.076 196.27 231.808 194.641 224.515C193.808 220.617 192.11 216.956 189.673 213.802C187.95 211.658 185.079 209.011 181.184 208.574C175.941 207.988 169.432 210.118 162.902 214.058C162.988 214.493 163.062 214.875 163.128 215.212C166.428 212.377 170.457 210.522 174.757 209.86C175.517 209.717 176.289 209.645 177.062 209.644M148.411 202.138C150.026 208.967 150.933 211.466 151.372 212.378C153.644 211.435 155.843 210.324 157.949 209.054C158.29 208.849 158.611 208.65 158.912 208.459C157.985 203.893 156.768 197.959 155.42 191.378C139.185 112.186 124.3 37.7619 125.281 29.4289C126.147 22.0689 129.066 16.9559 134.467 13.3399C140.72 9.15292 150.56 6.93192 164.548 6.54992C187.401 5.92592 252.694 7.47892 280.575 8.14292C288.596 8.33292 293.895 8.45892 294.911 8.45892C297.899 8.45892 301.538 11.2109 304.646 15.8209C304.656 15.8349 304.665 15.8479 304.674 15.8629C307.457 15.8816 310.244 15.8962 313.033 15.9069C312.677 14.3972 312.17 12.9271 311.519 11.5189C306.558 2.94992 292.378 3.16192 283 3.30692C281.288 3.33192 276.391 3.35492 269.613 3.38492C235.058 3.54092 143.268 3.95492 134.25 6.43892C123.434 9.41692 113.65 19.1849 116.166 34.2939C117.109 39.9519 121.766 62.2039 127.158 87.9699C132.27 112.401 138.065 140.093 142.467 162.051C144.867 174.051 146.592 182.985 147.725 189.374C148.349 192.894 148.792 195.631 149.04 197.507C149.451 200.613 149.393 201.358 148.693 201.935C148.604 202.009 148.509 202.076 148.41 202.135M178.648 9.20892C173.088 9.20892 168.305 9.25292 164.624 9.35392C151.181 9.72092 141.824 11.7869 136.024 15.6709C131.291 18.8399 128.837 23.1839 128.064 29.7569C127.001 38.7849 148.836 145.32 158.164 190.812C159.582 197.73 160.633 202.867 161.409 206.68C162.756 205.58 163.182 204.894 163.223 204.639C163.123 203.244 160.636 189.972 157.495 173.21C152.851 148.429 146.495 114.488 141.495 85.3549C133.449 38.4829 133.442 30.2009 134.135 28.0489C137.699 17.0029 146.592 10.5389 179.867 12.4399C193.22 13.2029 246.113 15.3769 301.196 15.8399C298.723 12.6949 296.333 11.2679 294.915 11.2679C293.866 11.2679 288.553 11.1419 280.515 10.9499C257.157 10.3949 207.515 9.21292 178.656 9.21292M131.7 155.813C129.686 155.997 127.751 156.68 126.068 157.801C124.367 158.797 122.941 160.201 121.917 161.885C120.892 163.569 120.303 165.481 120.2 167.449C119.753 172.615 121.9 178.128 125.55 181.167C127.689 182.949 130.38 185.425 133.231 188.047C136.283 190.854 139.439 193.756 142.112 195.985C143.104 196.811 143.912 197.45 144.581 197.941C143.194 191.641 141.759 184.466 140.57 178.518C139.481 173.07 138.541 168.366 137.97 165.983C136.91 161.566 135.67 157.164 133.199 156.101C132.724 155.903 132.213 155.805 131.699 155.814M334.3 156.892L334.38 156.906C336.695 157.306 338.108 157.39 338.396 156.642C338.365 153.701 333.129 120.742 326.905 85.5269C321.262 53.5939 316.625 30.0779 313.773 18.7269C311.335 18.7196 308.868 18.7086 306.373 18.6939C308.882 23.4735 310.435 28.6967 310.944 34.0709C311.585 40.5529 316.444 68.5919 322.253 99.2919C329.021 135.076 333.093 153.63 334.298 156.892" fill="#009C73"/>
</g>
</svg>
