<svg width="340" height="469" viewBox="0 0 340 469" fill="none" xmlns="http://www.w3.org/2000/svg">
<mask id="mask0_807_1295" style="mask-type:luminance" maskUnits="userSpaceOnUse" x="0" y="-1" width="340" height="470">
<path d="M339.497 -0.00012207H0V468.334H339.497V-0.00012207Z" fill="white"/>
</mask>
<g mask="url(#mask0_807_1295)">
<path d="M169.748 -0.00012207C76.1494 -0.00012207 0.000449174 76.1489 0.000449174 169.748C-0.0728874 201.578 8.83541 232.783 25.7017 259.777C42.568 286.77 66.7079 308.458 95.3475 322.348L61.7944 332.348C60.9213 332.608 60.171 333.174 59.6807 333.942C59.1905 334.71 58.993 335.629 59.1245 336.53C59.2559 337.432 59.7075 338.256 60.3966 338.852C61.0857 339.448 61.9664 339.776 62.8774 339.776C63.2443 339.776 63.6091 339.722 63.9604 339.617L106.1 327.055C106.769 327.169 107.457 327.101 108.091 326.859C108.725 326.616 109.282 326.208 109.704 325.677C110.126 325.145 110.398 324.51 110.49 323.838C110.583 323.166 110.493 322.481 110.23 321.855C110.117 321.589 109.972 321.337 109.8 321.104L97.0635 278.391C96.7761 277.427 96.1175 276.616 95.2326 276.138C94.3477 275.659 93.309 275.552 92.3449 275.839C91.3809 276.127 90.5705 276.785 90.092 277.67C89.6135 278.555 89.5061 279.594 89.7934 280.558L100.479 316.393C72.6498 303.318 49.1273 282.576 32.6731 256.601C16.219 230.626 7.51587 200.496 7.58545 169.748C7.58545 80.3309 80.3314 7.58588 169.748 7.58588C259.165 7.58588 331.911 80.3309 331.911 169.748C331.911 234.61 291.632 295.225 231.765 320.548L105.087 367.667C104.254 367.977 103.556 368.57 103.115 369.343C102.674 370.116 102.519 371.019 102.677 371.894C102.835 372.769 103.295 373.562 103.977 374.132C104.66 374.703 105.521 375.015 106.41 375.015C106.861 375.015 107.308 374.934 107.73 374.777L234.564 327.6C297.328 301.052 339.5 237.617 339.5 169.748C339.5 76.1489 263.347 -0.00012207 169.748 -0.00012207Z" fill="#C9B098"/>
<path d="M239.544 358.053L105.089 408.061C104.622 408.235 104.194 408.498 103.829 408.838C103.464 409.177 103.17 409.584 102.962 410.037C102.755 410.49 102.639 410.98 102.621 411.478C102.602 411.975 102.683 412.472 102.856 412.939C103.128 413.663 103.613 414.287 104.248 414.729C104.883 415.17 105.637 415.408 106.41 415.41C106.862 415.41 107.31 415.329 107.733 415.17L242.188 365.163C243.13 364.811 243.894 364.1 244.313 363.186C244.732 362.272 244.771 361.229 244.422 360.286C244.07 359.344 243.359 358.58 242.445 358.162C241.53 357.743 240.487 357.704 239.544 358.053Z" fill="#C9B098"/>
<path d="M173.944 243.178C167.644 216.978 154.585 197.937 135.125 186.578C116.267 175.575 92.8221 173.792 73.9321 181.928C73.0471 182.311 72.3409 183.016 71.9565 183.901C71.5721 184.785 71.5384 185.782 71.8621 186.691C78.6816 205.601 91.1609 221.952 107.602 233.519C124.044 245.086 143.65 251.307 163.752 251.337C165.133 251.337 166.53 251.308 167.918 251.249C169.923 262.331 170.893 273.575 170.818 284.836V297.636C170.818 298.642 171.218 299.606 171.929 300.318C172.64 301.029 173.605 301.428 174.611 301.428C175.616 301.428 176.581 301.029 177.292 300.318C178.004 299.606 178.403 298.642 178.403 297.636V284.836C178.475 273.373 177.512 261.926 175.526 250.636C199.185 247.73 220.967 236.278 236.772 218.435C252.578 200.592 261.318 177.588 261.348 153.751C261.349 148.131 260.869 142.52 259.913 136.982C259.77 136.177 259.372 135.439 258.778 134.876C258.184 134.314 257.425 133.958 256.613 133.86C240.59 131.997 224.373 134.875 209.97 142.138C195.567 149.401 183.611 160.729 175.582 174.72C171.404 181.997 168.371 189.874 166.59 198.074C166.484 198.561 166.476 199.063 166.564 199.553C166.653 200.043 166.837 200.511 167.106 200.93C167.376 201.349 167.725 201.711 168.134 201.995C168.543 202.279 169.004 202.479 169.491 202.585C169.978 202.691 170.481 202.699 170.971 202.611C171.461 202.522 171.929 202.338 172.347 202.069C172.766 201.799 173.128 201.45 173.412 201.041C173.696 200.632 173.896 200.171 174.002 199.684C175.618 192.244 178.37 185.097 182.162 178.495C188.723 167.086 198.172 157.604 209.559 151.004C220.945 144.404 233.869 140.917 247.03 140.895C248.976 140.895 250.939 140.973 252.884 141.123C253.469 145.307 253.763 149.528 253.763 153.753C253.763 199.138 218.846 238.085 173.949 243.185M163.757 243.757C145.853 243.693 128.37 238.322 113.518 228.322C98.667 218.322 87.1146 204.143 80.3221 187.577C96.3771 181.968 115.722 184.034 131.306 193.132C148.594 203.221 160.347 220.232 166.264 243.717C165.426 243.74 164.588 243.749 163.755 243.749" fill="#009C73"/>
<path d="M217.055 403.037C216.553 402.687 215.974 402.465 215.366 402.388C214.759 402.311 214.143 402.383 213.569 402.597L126.486 434.977C125.991 435.16 125.54 435.445 125.162 435.813C124.783 436.181 124.485 436.624 124.288 437.113C124.09 437.602 123.997 438.128 124.014 438.655C124.031 439.183 124.158 439.701 124.386 440.177C129.24 450.317 137.397 458.506 147.517 463.402C157.637 468.297 169.121 469.608 180.084 467.118C191.047 464.629 200.838 458.488 207.852 449.703C214.867 440.917 218.687 430.009 218.686 418.767V406.15C218.686 405.538 218.538 404.935 218.254 404.393C217.971 403.851 217.56 403.385 217.057 403.036M169.113 460.748C161.913 460.693 154.844 458.812 148.568 455.282C142.292 451.752 137.014 446.688 133.227 440.563L211.1 411.607V418.761C211.088 429.893 206.66 440.565 198.789 448.436C190.917 456.308 180.245 460.735 169.113 460.748Z" fill="#C9B098"/>
</g>
</svg>
