<svg width="143" height="197" viewBox="0 0 143 197" fill="none" xmlns="http://www.w3.org/2000/svg">
<mask id="mask0_811_57" style="mask-type:luminance" maskUnits="userSpaceOnUse" x="0" y="0" width="143" height="197">
<path d="M142.777 0H0V196.96H142.777V0Z" fill="white"/>
</mask>
<g mask="url(#mask0_811_57)">
<path d="M71.3885 0C32.025 0 0.000188902 32.0248 0.000188902 71.3883C-0.0306531 84.7745 3.71577 97.8978 10.809 109.25C17.9022 120.603 28.0543 129.724 40.0988 135.565L25.9879 139.77C25.6207 139.88 25.3052 140.118 25.099 140.441C24.8928 140.764 24.8098 141.15 24.8651 141.529C24.9203 141.908 25.1103 142.255 25.4001 142.506C25.6899 142.756 26.0602 142.894 26.4434 142.894C26.5977 142.894 26.7511 142.872 26.8989 142.827L44.621 137.544C44.9024 137.592 45.1915 137.564 45.4581 137.462C45.7247 137.36 45.959 137.188 46.1365 136.965C46.314 136.741 46.4282 136.474 46.4671 136.192C46.5061 135.909 46.4684 135.621 46.3579 135.358C46.3101 135.246 46.2494 135.14 46.1771 135.042L40.8205 117.079C40.6996 116.673 40.4227 116.332 40.0505 116.131C39.6784 115.93 39.2415 115.885 38.8361 116.006C38.4306 116.126 38.0898 116.403 37.8886 116.776C37.6874 117.148 37.6422 117.585 37.763 117.99L42.2571 133.061C30.5532 127.562 20.6607 118.839 13.7408 107.915C6.82096 96.9907 3.16084 84.3195 3.1901 71.3883C3.1901 33.7836 33.7838 3.19033 71.3885 3.19033C108.993 3.19033 139.587 33.7836 139.587 71.3883C139.587 98.6663 122.647 124.158 97.47 134.808L44.195 154.624C43.8444 154.754 43.5508 155.004 43.3655 155.329C43.1802 155.654 43.115 156.034 43.1812 156.402C43.2475 156.77 43.4411 157.103 43.7281 157.343C44.0151 157.583 44.3773 157.714 44.7514 157.714C44.9409 157.714 45.129 157.68 45.3065 157.614L98.6471 137.774C125.043 126.609 142.778 99.9309 142.778 71.3883C142.778 32.0248 110.752 0 71.3885 0Z" fill="#C9B098"/>
<path d="M100.742 150.581L44.1965 171.612C44.0001 171.685 43.82 171.796 43.6665 171.939C43.5131 172.081 43.3892 172.253 43.302 172.443C43.2148 172.634 43.1659 172.839 43.1583 173.049C43.1506 173.258 43.1843 173.467 43.2574 173.663C43.3715 173.968 43.5756 174.23 43.8426 174.416C44.1096 174.602 44.4268 174.702 44.752 174.703C44.942 174.703 45.1305 174.669 45.3084 174.602L101.854 153.571C102.25 153.423 102.571 153.124 102.748 152.74C102.924 152.355 102.94 151.917 102.794 151.52C102.645 151.124 102.346 150.803 101.962 150.627C101.577 150.451 101.139 150.434 100.742 150.581Z" fill="#C9B098"/>
<path d="M73.1527 102.27C70.5032 91.2511 65.0112 83.2433 56.8272 78.4662C48.8964 73.8388 39.0365 73.089 31.0922 76.5106C30.72 76.6717 30.423 76.9683 30.2613 77.3403C30.0997 77.7122 30.0855 78.1317 30.2216 78.5137C33.0896 86.4667 38.3378 93.3431 45.2524 98.2076C52.167 103.072 60.4122 105.688 68.8664 105.701C69.4472 105.701 70.0347 105.689 70.6184 105.664C71.4614 110.324 71.8697 115.053 71.838 119.789V125.172C71.838 125.595 72.0061 126.001 72.3052 126.3C72.6043 126.599 73.01 126.767 73.433 126.767C73.856 126.767 74.2617 126.599 74.5608 126.3C74.8599 126.001 75.028 125.595 75.028 125.172V119.789C75.058 114.968 74.653 110.154 73.818 105.406C83.7679 104.184 92.9283 99.3679 99.5754 91.8639C106.223 84.3599 109.898 74.6853 109.911 64.6607C109.911 62.297 109.709 59.9376 109.307 57.6084C109.247 57.2697 109.08 56.9593 108.83 56.723C108.58 56.4866 108.261 56.3367 107.92 56.2954C101.181 55.512 94.3609 56.7225 88.3036 59.7769C82.2463 62.8313 77.218 67.5954 73.8416 73.4793C72.0843 76.5396 70.8088 79.8523 70.0599 83.3009C70.0155 83.5056 70.0118 83.717 70.049 83.9231C70.0863 84.1292 70.1638 84.326 70.277 84.5021C70.3903 84.6783 70.5372 84.8304 70.7093 84.9498C70.8814 85.0692 71.0753 85.1536 71.28 85.198C71.4846 85.2425 71.6961 85.2462 71.9022 85.2089C72.1083 85.1717 72.305 85.0942 72.4812 84.9809C72.6574 84.8676 72.8095 84.7207 72.9289 84.5487C73.0483 84.3766 73.1326 84.1827 73.1771 83.978C73.8566 80.849 75.014 77.8434 76.6088 75.0669C79.3681 70.2686 83.3418 66.2813 88.1305 63.5055C92.9193 60.7298 98.3543 59.2635 103.889 59.254C104.708 59.254 105.533 59.2868 106.351 59.3499C106.597 61.1097 106.721 62.8845 106.721 64.6615C106.721 83.7484 92.0364 100.128 73.1548 102.273M68.8685 102.513C61.3388 102.486 53.9862 100.227 47.7404 96.0219C41.4946 91.8164 36.6361 85.8532 33.7795 78.8863C40.5315 76.5275 48.6672 77.3963 55.2211 81.2225C62.4916 85.4655 67.4344 92.6196 69.9228 102.496C69.5704 102.506 69.218 102.51 68.8677 102.51" fill="#009C73"/>
<path d="M91.2813 169.499C91.07 169.352 90.8263 169.258 90.571 169.226C90.3157 169.194 90.0564 169.224 89.8152 169.314L53.1921 182.932C52.9839 183.009 52.7942 183.128 52.6349 183.283C52.4757 183.438 52.3506 183.624 52.2674 183.83C52.1843 184.036 52.1451 184.257 52.1522 184.479C52.1593 184.7 52.2127 184.918 52.3089 185.118C54.3503 189.383 57.7804 192.827 62.0366 194.886C66.2927 196.944 71.1221 197.496 75.7327 196.449C80.3432 195.402 84.4612 192.819 87.411 189.125C90.3608 185.43 91.9674 180.842 91.9672 176.114V170.808C91.9671 170.551 91.9048 170.297 91.7855 170.069C91.6662 169.841 91.4935 169.645 91.2821 169.499M71.119 193.77C68.0908 193.746 65.118 192.956 62.4786 191.471C59.8392 189.986 57.6194 187.857 56.027 185.281L88.7769 173.103V176.112C88.7716 180.793 86.9096 185.282 83.5992 188.592C80.2889 191.902 75.8006 193.764 71.119 193.77Z" fill="#C9B098"/>
<rect width="166" height="200" transform="matrix(-1 0 0 1 163 -3)" fill="url(#paint0_linear_811_57)"/>
</g>
<defs>
<linearGradient id="paint0_linear_811_57" x1="-56.5" y1="92" x2="144.948" y2="95.2363" gradientUnits="userSpaceOnUse">
<stop stop-color="#19172E" stop-opacity="0"/>
<stop offset="0.893267" stop-color="#19172E"/>
</linearGradient>
</defs>
</svg>
