<svg width="42" height="64" viewBox="0 0 42 64" fill="none" xmlns="http://www.w3.org/2000/svg">
<path d="M21.355 55.999C23.288 55.999 24.855 54.8797 24.855 53.499C24.855 52.1183 23.288 50.999 21.355 50.999C19.422 50.999 17.855 52.1183 17.855 53.499C17.855 54.8797 19.422 55.999 21.355 55.999Z" fill="#009C73"/>
<path d="M21.4191 35.6249L26.9501 30.0939C27.2094 29.8347 27.355 29.483 27.355 29.1164C27.355 28.7498 27.2094 28.3982 26.9501 28.1389C26.6909 27.8797 26.3392 27.734 25.9726 27.734C25.606 27.734 25.2544 27.8797 24.9951 28.1389L20.4421 32.6919L15.8891 28.1389C15.7607 28.0105 15.6083 27.9087 15.4406 27.8392C15.2729 27.7698 15.0931 27.734 14.9116 27.734C14.7301 27.734 14.5503 27.7698 14.3826 27.8392C14.2149 27.9087 14.0625 28.0105 13.9341 28.1389C13.8057 28.2673 13.7039 28.4197 13.6344 28.5874C13.565 28.7551 13.5292 28.9349 13.5292 29.1164C13.5292 29.2979 13.565 29.4777 13.6344 29.6454C13.7039 29.8131 13.8057 29.9655 13.9341 30.0939L19.4651 35.6239C19.5933 35.7524 19.7455 35.8543 19.9132 35.9239C20.0808 35.9934 20.2604 36.0293 20.4419 36.0294C20.6234 36.0295 20.8031 35.9938 20.9708 35.9244C21.1384 35.855 21.2908 35.7532 21.4191 35.6249Z" fill="#009C73"/>
<path d="M34.56 0H6.912C5.07873 0.000265191 3.32064 0.728714 2.02441 2.02512C0.728191 3.32153 -1.91806e-08 5.07973 0 6.913V56.687C0.00211731 58.5198 0.731127 60.2769 2.02711 61.5729C3.32309 62.8689 5.08021 63.5979 6.913 63.6H34.566C36.3988 63.5979 38.1559 62.8689 39.4519 61.5729C40.7479 60.2769 41.4769 58.5198 41.479 56.687V6.913C41.4766 5.07925 40.7467 3.32138 39.4495 2.02528C38.1523 0.729189 36.3937 0.000793199 34.56 0V0ZM2.765 6.913C2.76526 5.81331 3.2021 4.75871 3.97951 3.98092C4.75692 3.20313 5.81131 2.7658 6.911 2.765H20.738C29.938 2.765 33.26 2.765 34.564 2.659V2.765C35.6637 2.76632 36.718 3.20377 37.4956 3.98138C38.2732 4.759 38.7107 5.81329 38.712 6.913V8.3H2.765V6.913ZM38.713 56.687C38.7117 57.7867 38.2742 58.841 37.4966 59.6186C36.719 60.3962 35.6647 60.8337 34.565 60.835H6.913C5.81329 60.8337 4.759 60.3962 3.98138 59.6186C3.20377 58.841 2.76632 57.7867 2.765 56.687V11.061H38.713V56.687Z" fill="#B1B1B1"/>
</svg>
