<svg width="67" height="64" viewBox="0 0 67 64" fill="none" xmlns="http://www.w3.org/2000/svg">
<path d="M34.1131 9.49779C34.1131 9.78953 33.9972 10.0693 33.791 10.2756C33.5847 10.4819 33.3049 10.5978 33.0131 10.5978C27.747 10.6026 22.6693 12.5581 18.7603 16.0868C14.8512 19.6154 12.3879 24.4671 11.8458 29.7052C11.3038 34.9434 12.7213 40.1967 15.825 44.451C18.9286 48.7054 23.4982 51.6593 28.6517 52.7424C33.8053 53.8255 39.1774 52.9611 43.731 50.3161C48.2847 47.6711 51.6971 43.4329 53.3096 38.4198C54.9221 33.4066 54.6203 27.9737 52.4624 23.17C50.3046 18.3663 46.4438 14.5322 41.6251 12.4078C41.493 12.3494 41.3736 12.2655 41.2738 12.1609C41.1741 12.0563 41.0959 11.9331 41.0438 11.7983C40.9916 11.6635 40.9665 11.5198 40.97 11.3753C40.9734 11.2309 41.0052 11.0885 41.0636 10.9563C41.1221 10.8241 41.206 10.7047 41.3105 10.605C41.4151 10.5052 41.5383 10.4271 41.6731 10.3749C41.8079 10.3228 41.9516 10.2977 42.0961 10.3011C42.2406 10.3045 42.383 10.3364 42.5151 10.3948C47.8397 12.7423 52.1058 16.9793 54.4897 22.2877C56.8736 27.5961 57.2063 33.5995 55.4235 39.1388C53.6407 44.6781 49.8689 49.3605 44.8363 52.2819C39.8037 55.2034 33.8672 56.1568 28.1729 54.958C22.4786 53.7592 17.4303 50.4932 14.0028 45.7907C10.5752 41.0881 9.01147 35.2824 9.61337 29.4945C10.2153 23.7066 12.9402 18.347 17.262 14.4503C21.5838 10.5536 27.196 8.39628 33.0151 8.39479C33.1597 8.39505 33.3027 8.4238 33.4362 8.47939C33.5696 8.53497 33.6908 8.6163 33.7927 8.71874C33.8947 8.82118 33.9755 8.94271 34.0305 9.07638C34.0854 9.21005 34.1135 9.35325 34.1131 9.49779ZM63.6461 25.1748C62.3268 23.5387 61.6565 21.4739 61.7631 19.3748C61.8835 16.9231 61.1623 14.5038 59.7191 12.5182C58.2759 10.5326 56.1973 9.09998 53.8281 8.45779C51.8005 7.91 50.0456 6.63491 48.8981 4.87579C47.5549 2.82026 45.5493 1.28576 43.214 0.526912C40.8787 -0.231938 38.3541 -0.169527 36.0591 0.703792C34.0968 1.45237 31.9275 1.45237 29.9651 0.703792C27.6702 -0.169527 25.1456 -0.231938 22.8103 0.526912C20.475 1.28576 18.4694 2.82026 17.1261 4.87579C15.9796 6.63412 14.2262 7.90912 12.2001 8.45779C9.82969 9.09955 7.74995 10.5326 6.30607 12.519C4.86219 14.5055 4.14098 16.926 4.26214 19.3788C4.36878 21.4779 3.69843 23.5427 2.37914 25.1788C0.839464 27.0916 0 29.4733 0 31.9288C0 34.3843 0.839464 36.766 2.37914 38.6788C3.69851 40.3149 4.36887 42.3797 4.26214 44.4788C4.14308 46.9301 4.86527 49.3485 6.30899 51.3331C7.7527 53.3177 9.83126 54.7494 12.2001 55.3908C14.2277 55.9386 15.9827 57.2137 17.1301 58.9728C18.4734 61.0283 20.479 62.5628 22.8143 63.3217C25.1496 64.0805 27.6742 64.0181 29.9691 63.1448C31.9315 62.3963 34.1007 62.3963 36.0631 63.1448C38.3579 64.0167 40.8817 64.0783 43.2164 63.3196C45.551 62.5608 47.5564 61.0272 48.9001 58.9728C48.9835 58.8518 49.0418 58.7154 49.0716 58.5716C49.1014 58.4278 49.102 58.2794 49.0736 58.1353C49.0451 57.9912 48.988 57.8543 48.9058 57.7326C48.8235 57.6109 48.7177 57.5069 48.5946 57.4267C48.4715 57.3466 48.3336 57.2919 48.1891 57.2659C48.0445 57.2399 47.8962 57.2431 47.7529 57.2754C47.6096 57.3076 47.4742 57.3683 47.3547 57.4537C47.2352 57.5391 47.134 57.6476 47.0571 57.7728C45.9822 59.401 44.3861 60.6157 42.5303 61.218C40.6746 61.8203 38.6693 61.7744 36.8431 61.0878C34.3762 60.1466 31.6491 60.1466 29.1821 61.0878C27.3559 61.7738 25.3508 61.819 23.4954 61.2162C21.64 60.6134 20.0444 59.3982 18.9701 57.7698C17.5264 55.5591 15.3194 53.9572 12.7701 53.2698C10.8892 52.7509 9.24027 51.6084 8.0938 50.0295C6.94732 48.4506 6.37129 46.529 6.46014 44.5798C6.59194 41.9442 5.74942 39.3522 4.09314 37.2978C2.87628 35.7728 2.21355 33.8797 2.21355 31.9288C2.21355 29.9778 2.87628 28.0847 4.09314 26.5598C5.7513 24.5033 6.59393 21.9081 6.46014 19.2698C6.3721 17.3208 6.94874 15.3997 8.09555 13.8214C9.24236 12.2431 10.8913 11.1012 12.7721 10.5828C15.3214 9.89534 17.5284 8.29348 18.9721 6.08279C20.0465 4.45418 21.6422 3.23884 23.4978 2.636C25.3534 2.03316 27.3587 2.07857 29.1851 2.76479C31.6521 3.70579 34.3792 3.70579 36.8461 2.76479C38.6725 2.07857 40.6779 2.03316 42.5335 2.636C44.389 3.23884 45.9848 4.45418 47.0591 6.08279C48.5028 8.29348 50.7099 9.89534 53.2591 10.5828C55.1401 11.1012 56.7892 12.2433 57.936 13.8218C59.0829 15.4003 59.6594 17.3217 59.5711 19.2708C59.4384 21.9078 60.281 24.5013 61.9381 26.5568C63.155 28.0817 63.8177 29.9748 63.8177 31.9258C63.8177 33.8767 63.155 35.7698 61.9381 37.2948C60.2809 39.3502 59.4383 41.9438 59.5711 44.5808C59.6618 46.2853 59.2382 47.9777 58.3554 49.4386C57.4726 50.8995 56.1713 52.0614 54.6201 52.7738C54.3549 52.8963 54.1492 53.1192 54.0483 53.3934C53.9474 53.6675 53.9596 53.9706 54.0821 54.2358C54.2047 54.501 54.4275 54.7067 54.7017 54.8076C54.9759 54.9085 55.2789 54.8963 55.5441 54.7738C57.4945 53.8784 59.1308 52.4178 60.241 50.5812C61.3511 48.7446 61.8839 46.6168 61.7701 44.4738C61.6635 42.3747 62.3338 40.3099 63.6531 38.6738C65.1928 36.761 66.0323 34.3793 66.0323 31.9238C66.0323 29.4683 65.1928 27.0866 63.6531 25.1738L63.6461 25.1748Z" fill="#B1B1B1"/>
<path d="M18.4821 32.0548C18.2014 32.0548 17.9322 32.1663 17.7337 32.3648C17.5352 32.5633 17.4236 32.8326 17.4236 33.1133C17.4236 33.394 17.5352 33.6633 17.7337 33.8618C17.9322 34.0603 18.2014 34.1718 18.4821 34.1718H19.8051C20.0859 34.1718 20.3551 34.0603 20.5536 33.8618C20.7521 33.6633 20.8636 33.394 20.8636 33.1133C20.8636 32.8326 20.7521 32.5633 20.5536 32.3648C20.3551 32.1663 20.0859 32.0548 19.8051 32.0548H18.4821Z" fill="#009C73"/>
<path d="M47.0601 32.0548C46.7794 32.0548 46.5102 32.1663 46.3117 32.3648C46.1132 32.5633 46.0016 32.8326 46.0016 33.1133C46.0016 33.394 46.1132 33.6633 46.3117 33.8618C46.5102 34.0603 46.7794 34.1718 47.0601 34.1718H48.3831C48.6639 34.1718 48.9331 34.0603 49.1316 33.8618C49.3301 33.6633 49.4416 33.394 49.4416 33.1133C49.4416 32.8326 49.3301 32.5633 49.1316 32.3648C48.9331 32.1663 48.6639 32.0548 48.3831 32.0548H47.0601Z" fill="#009C73"/>
<path d="M42.8401 26.0418L37.7231 27.9018L34.2311 23.8838C34.1317 23.7692 34.0088 23.6773 33.8708 23.6143C33.7328 23.5513 33.5828 23.5187 33.4311 23.5187C33.2794 23.5187 33.1295 23.5513 32.9914 23.6143C32.8534 23.6773 32.7306 23.7692 32.6311 23.8838L29.1391 27.9018L24.0221 26.0418C23.8514 25.9799 23.6676 25.963 23.4885 25.9927C23.3093 26.0224 23.1408 26.0976 22.9991 26.2112C22.8574 26.3247 22.7473 26.4728 22.6794 26.6412C22.6114 26.8096 22.5879 26.9927 22.6111 27.1728L23.3111 32.5888C23.3473 32.8673 23.4927 33.12 23.7152 33.2913C23.9377 33.4626 24.2192 33.5385 24.4976 33.5023C24.7761 33.4661 25.0288 33.3207 25.2001 33.0982C25.3714 32.8757 25.4473 32.5943 25.4111 32.3158L24.9311 28.6258L29.1021 30.1348C29.3031 30.2079 29.5216 30.2184 29.7287 30.1648C29.9358 30.1113 30.1218 29.9962 30.2621 29.8348L33.4321 26.1868L36.6021 29.8348C36.7426 29.9961 36.9286 30.1111 37.1356 30.1646C37.3427 30.2182 37.5611 30.2078 37.7621 30.1348L41.9261 28.6208L40.8431 36.9458H23.9071C23.6264 36.9458 23.3572 37.0573 23.1587 37.2558C22.9602 37.4543 22.8486 37.7236 22.8486 38.0043C22.8486 38.285 22.9602 38.5543 23.1587 38.7528C23.3572 38.9513 23.6264 39.0628 23.9071 39.0628H42.9591C43.2397 39.0654 43.5099 38.9565 43.7102 38.76C43.9105 38.5634 44.0245 38.2954 44.0271 38.0148C44.0298 37.7342 43.9209 37.464 43.7243 37.2637C43.5278 37.0635 43.2597 36.9494 42.9791 36.9468L44.2521 27.1678C44.2744 26.988 44.2503 26.8054 44.1819 26.6376C44.1135 26.4698 44.0031 26.3223 43.8615 26.2094C43.7198 26.0964 43.5515 26.0217 43.3727 25.9923C43.1939 25.963 43.0105 25.98 42.8401 26.0418Z" fill="#009C73"/>
<path d="M34.4911 33.9078V32.4528C34.4911 32.172 34.3796 31.9028 34.1811 31.7043C33.9826 31.5058 33.7134 31.3943 33.4326 31.3943C33.1519 31.3943 32.8827 31.5058 32.6842 31.7043C32.4856 31.9028 32.3741 32.172 32.3741 32.4528V33.9078C32.3741 34.1885 32.4856 34.4578 32.6842 34.6563C32.8827 34.8548 33.1519 34.9663 33.4326 34.9663C33.7134 34.9663 33.9826 34.8548 34.1811 34.6563C34.3796 34.4578 34.4911 34.1885 34.4911 33.9078Z" fill="#009C73"/>
</svg>
