<svg width="59" height="64" viewBox="0 0 59 64" fill="none" xmlns="http://www.w3.org/2000/svg">
<path d="M51.94 37.1C50.2185 37.1019 48.5681 37.7865 47.3508 39.0038C46.1335 40.2211 45.4489 41.8715 45.447 43.593V49.158C45.4416 50.3012 44.9909 51.3974 44.1904 52.2137C43.39 53.03 42.3029 53.5022 41.16 53.53C40.5727 53.5301 39.9911 53.4142 39.4487 53.189C38.9063 52.9637 38.4137 52.6335 37.9993 52.2173C37.5848 51.8011 37.2567 51.3071 37.0338 50.7638C36.8108 50.2204 36.6974 49.6383 36.7 49.051V39.22H41.7C41.9811 39.22 42.2507 39.1083 42.4495 38.9095C42.6483 38.7107 42.76 38.4411 42.76 38.16C42.76 37.8789 42.6483 37.6093 42.4495 37.4105C42.2507 37.2117 41.9811 37.1 41.7 37.1H36.7V3.18C36.6989 2.33746 36.364 1.52968 35.7685 0.933627C35.173 0.337576 34.3655 0.00185167 33.523 0L3.18 0C2.33694 0.00105846 1.52871 0.336433 0.93257 0.93257C0.336433 1.52871 0.00105846 2.33694 0 3.18V49.158C0 52.634 2.773 55.651 7.818 55.651H28.753C29.0341 55.651 29.3037 55.5393 29.5025 55.3405C29.7013 55.1417 29.813 54.8721 29.813 54.591C29.813 54.3099 29.7013 54.0403 29.5025 53.8415C29.3037 53.6427 29.0341 53.531 28.753 53.531H7.818C4.357 53.531 2.118 51.815 2.118 49.158V3.18C2.11826 2.89895 2.23003 2.62949 2.42876 2.43076C2.62749 2.23203 2.89695 2.12026 3.178 2.12H33.523C33.804 2.12026 34.0735 2.23203 34.2722 2.43076C34.471 2.62949 34.5827 2.89895 34.583 3.18V49.05C34.568 49.9076 34.723 50.7597 35.0392 51.557C35.3553 52.3544 35.8264 53.0812 36.425 53.6955C37.0237 54.3098 37.7381 54.7993 38.527 55.1359C39.316 55.4725 40.1638 55.6495 41.0215 55.6565C41.8792 55.6636 42.7298 55.5007 43.5242 55.1771C44.3186 54.8536 45.041 54.3758 45.6497 53.7715C46.2584 53.1672 46.7413 52.4482 47.0706 51.6562C47.3998 50.8642 47.5689 50.0147 47.568 49.157V43.593C47.5854 42.4448 48.0537 41.3495 48.8718 40.5437C49.6899 39.7378 50.7922 39.2861 51.9405 39.2861C53.0888 39.2861 54.1911 39.7378 55.0092 40.5437C55.8273 41.3495 56.2956 42.4448 56.313 43.593V60.42C56.3127 60.701 56.201 60.9705 56.0022 61.1692C55.8035 61.368 55.534 61.4797 55.253 61.48H24.91C24.629 61.4797 24.3595 61.368 24.1608 61.1692C23.962 60.9705 23.8503 60.701 23.85 60.42V59.42C23.85 59.1389 23.7383 58.8693 23.5395 58.6705C23.3407 58.4717 23.0711 58.36 22.79 58.36C22.5089 58.36 22.2393 58.4717 22.0405 58.6705C21.8417 58.8693 21.73 59.1389 21.73 59.42V60.42C21.7311 61.2631 22.0664 62.0713 22.6626 62.6674C23.2587 63.2636 24.0669 63.5989 24.91 63.6H55.253C56.0961 63.5989 56.9043 63.2636 57.5004 62.6674C58.0966 62.0713 58.4319 61.2631 58.433 60.42V43.593C58.4311 41.8715 57.7465 40.2211 56.5292 39.0038C55.3119 37.7865 53.6615 37.1019 51.94 37.1Z" fill="#B1B1B1"/>
<path d="M28.754 12.1901C29.0351 12.1901 29.3047 12.0784 29.5035 11.8796C29.7023 11.6808 29.814 11.4112 29.814 11.1301C29.814 10.8489 29.7023 10.5793 29.5035 10.3805C29.3047 10.1818 29.0351 10.0701 28.754 10.0701H18.814C18.5329 10.0701 18.2633 10.1818 18.0645 10.3805C17.8657 10.5793 17.754 10.8489 17.754 11.1301C17.754 11.4112 17.8657 11.6808 18.0645 11.8796C18.2633 12.0784 18.5329 12.1901 18.814 12.1901H28.754Z" fill="#B1B1B1"/>
<path d="M15.105 21.995C15.105 22.1342 15.1324 22.272 15.1857 22.4006C15.239 22.5292 15.317 22.6461 15.4155 22.7445C15.5139 22.843 15.6308 22.921 15.7594 22.9743C15.888 23.0276 16.0258 23.055 16.165 23.055H28.753C29.0341 23.055 29.3038 22.9433 29.5025 22.7445C29.7013 22.5457 29.813 22.2761 29.813 21.995C29.813 21.7139 29.7013 21.4443 29.5025 21.2455C29.3038 21.0467 29.0341 20.935 28.753 20.935H16.165C16.0258 20.935 15.888 20.9624 15.7594 21.0157C15.6308 21.069 15.5139 21.147 15.4155 21.2455C15.317 21.3439 15.239 21.4608 15.1857 21.5894C15.1324 21.718 15.105 21.8558 15.105 21.995Z" fill="#B1B1B1"/>
<path d="M16.165 34.051H28.753C29.0341 34.051 29.3038 33.9394 29.5025 33.7406C29.7013 33.5418 29.813 33.2722 29.813 32.991C29.813 32.7099 29.7013 32.4403 29.5025 32.2415C29.3038 32.0427 29.0341 31.931 28.753 31.931H16.165C15.8839 31.931 15.6143 32.0427 15.4155 32.2415C15.2167 32.4403 15.105 32.7099 15.105 32.991C15.105 33.2722 15.2167 33.5418 15.4155 33.7406C15.6143 33.9394 15.8839 34.051 16.165 34.051Z" fill="#B1B1B1"/>
<path d="M10.6 44.916H28.753C29.0341 44.916 29.3037 44.8043 29.5025 44.6056C29.7013 44.4068 29.813 44.1371 29.813 43.856C29.813 43.5749 29.7013 43.3053 29.5025 43.1065C29.3037 42.9077 29.0341 42.796 28.753 42.796H10.6C10.3189 42.796 10.0493 42.9077 9.85047 43.1065C9.65168 43.3053 9.54 43.5749 9.54 43.856C9.54 44.1371 9.65168 44.4068 9.85047 44.6056C10.0493 44.8043 10.3189 44.916 10.6 44.916Z" fill="#B1B1B1"/>
<path d="M9.762 24.395C10.9649 24.395 11.94 23.4199 11.94 22.217C11.94 21.0141 10.9649 20.039 9.762 20.039C8.55912 20.039 7.584 21.0141 7.584 22.217C7.584 23.4199 8.55912 24.395 9.762 24.395Z" fill="#009C73"/>
<path d="M9.762 34.848C10.9649 34.848 11.94 33.8729 11.94 32.67C11.94 31.4671 10.9649 30.492 9.762 30.492C8.55912 30.492 7.584 31.4671 7.584 32.67C7.584 33.8729 8.55912 34.848 9.762 34.848Z" fill="#009C73"/>
<path d="M13.567 8.95693C13.4686 8.85836 13.3516 8.78017 13.223 8.72681C13.0943 8.67346 12.9563 8.646 12.817 8.646C12.6777 8.646 12.5397 8.67346 12.411 8.72681C12.2824 8.78017 12.1654 8.85836 12.067 8.95693L9.47701 11.5479L8.577 10.6479C8.47851 10.5494 8.36159 10.4713 8.2329 10.418C8.10422 10.3647 7.96629 10.3373 7.827 10.3373C7.68772 10.3373 7.54979 10.3647 7.4211 10.418C7.29242 10.4713 7.17549 10.5494 7.077 10.6479C6.97851 10.7464 6.90038 10.8633 6.84708 10.992C6.79377 11.1207 6.76634 11.2586 6.76634 11.3979C6.76634 11.5372 6.79377 11.6751 6.84708 11.8038C6.90038 11.9325 6.97851 12.0494 7.077 12.1479L8.725 13.7959C8.82345 13.8945 8.94036 13.9727 9.06905 14.0261C9.19774 14.0794 9.33569 14.1069 9.475 14.1069C9.61431 14.1069 9.75226 14.0794 9.88095 14.0261C10.0096 13.9727 10.1266 13.8945 10.225 13.7959L13.565 10.4559C13.764 10.2574 13.8761 9.98796 13.8764 9.70685C13.8768 9.42573 13.7655 9.15598 13.567 8.95693Z" fill="#009C73"/>
</svg>
