<svg width="67" height="64" viewBox="0 0 67 64" fill="none" xmlns="http://www.w3.org/2000/svg">
<path d="M64.2391 36.8907L62.4261 39.1407C61.5154 40.2714 61.0526 41.6977 61.1261 43.1477L61.2701 46.0337C61.3536 47.8826 60.8066 49.7051 59.7186 51.2024C58.6307 52.6997 57.0664 53.783 55.2821 54.2747L52.4931 55.0297C51.0916 55.4085 49.8785 56.2899 49.0851 57.5057L47.5051 59.9247C46.486 61.4697 44.9723 62.6226 43.2121 63.1945C41.452 63.7665 39.5497 63.7235 37.8171 63.0727L35.1171 62.0437C33.7604 61.5263 32.2608 61.5263 30.9041 62.0437L28.2041 63.0727C26.4715 63.7237 24.5692 63.7668 22.809 63.1948C21.0488 62.6228 19.5351 61.4698 18.5161 59.9247L16.9361 57.5057C16.1427 56.2899 14.9296 55.4085 13.5281 55.0297L10.7391 54.2747C8.95464 53.7832 7.3901 52.6999 6.30196 51.2026C5.21382 49.7053 4.66664 47.8828 4.75011 46.0337C4.76469 45.742 4.89457 45.468 5.11118 45.272C5.32778 45.076 5.61337 44.9741 5.90511 44.9887C6.19684 45.0033 6.47084 45.1332 6.66681 45.3498C6.86279 45.5664 6.96469 45.852 6.95011 46.1437C6.88917 47.4912 7.28782 48.8194 8.08072 49.9107C8.87361 51.0019 10.0137 51.7914 11.3141 52.1497L14.1031 52.9047C16.0269 53.4249 17.6918 54.6353 18.7801 56.3047L20.3601 58.7237C21.1028 59.8498 22.2061 60.6901 23.489 61.1069C24.7719 61.5237 26.1584 61.4922 27.4211 61.0177L30.1211 59.9887C31.9826 59.2784 34.0406 59.2784 35.9021 59.9887L38.6021 61.0177C39.8648 61.4922 41.2513 61.5237 42.5342 61.1069C43.8171 60.6901 44.9204 59.8498 45.6631 58.7237L47.2431 56.3047C48.3313 54.6352 49.9963 53.4248 51.9201 52.9047L54.7091 52.1497C56.0095 51.7914 57.1496 51.0019 57.9425 49.9107C58.7354 48.8194 59.134 47.4912 59.0731 46.1437L58.9291 43.2577C58.8285 41.2672 59.4643 39.3094 60.7151 37.7577L62.5281 35.5077C63.3695 34.4534 63.8277 33.1446 63.8277 31.7957C63.8277 30.4469 63.3695 29.138 62.5281 28.0837L60.7151 25.8337C59.4642 24.2821 58.8284 22.3242 58.9291 20.3337L59.0731 17.4477C59.134 16.1002 58.7354 14.772 57.9425 13.6808C57.1496 12.5896 56.0095 11.8001 54.7091 11.4417L51.9201 10.6867C49.9963 10.1665 48.3314 8.95621 47.2431 7.28673L45.6631 4.86773C44.9187 3.74214 43.8137 2.903 42.5296 2.48799C41.2455 2.07298 39.8585 2.10674 38.5961 2.58373L35.8961 3.61273C34.0346 4.32304 31.9766 4.32304 30.1151 3.61273L27.4151 2.58373C26.1524 2.10923 24.7659 2.0778 23.483 2.4946C22.2001 2.9114 21.0968 3.75169 20.3541 4.87773L18.7741 7.29673C17.6859 8.96627 16.0209 10.1766 14.0971 10.6967L11.3081 11.4517C10.0077 11.8101 8.86761 12.5996 8.07472 13.6908C7.28182 14.782 6.88317 16.1102 6.94411 17.4577L7.09611 20.3377C7.19672 22.3282 6.56095 24.2861 5.31011 25.8377L3.49611 28.0837C2.65474 29.138 2.1965 30.4469 2.1965 31.7957C2.1965 33.1446 2.65474 34.4534 3.49611 35.5077L5.30911 37.7577C5.4925 37.9849 5.57815 38.2756 5.54721 38.5659C5.51626 38.8562 5.37126 39.1223 5.14411 39.3057C4.91695 39.4891 4.62624 39.5748 4.33593 39.5438C4.04563 39.5129 3.7795 39.3679 3.59611 39.1407L1.78311 36.8907C0.628721 35.4442 0 33.6484 0 31.7977C0 29.947 0.628721 28.1513 1.78311 26.7047L3.59611 24.4537C4.50683 23.323 4.96957 21.8967 4.89611 20.4467L4.75211 17.5607C4.66858 15.7118 5.21562 13.8893 6.30357 12.3921C7.39151 10.8948 8.95582 9.81148 10.7401 9.31973L13.5291 8.56473C14.9306 8.18592 16.1437 7.30458 16.9371 6.08873L18.5171 3.66973C19.5361 2.12466 21.0498 0.971631 22.81 0.399666C24.5702 -0.172299 26.4725 -0.12926 28.2051 0.521727L30.9051 1.55073C32.2618 2.06817 33.7614 2.06817 35.1181 1.55073L37.8181 0.521727C39.5507 -0.12926 41.453 -0.172299 43.2132 0.399666C44.9734 0.971631 46.4871 2.12466 47.5061 3.66973L49.0861 6.08873C49.8798 7.30535 51.0937 8.18711 52.4961 8.56573L55.2851 9.32073C57.0694 9.81248 58.6337 10.8958 59.7216 12.3931C60.8096 13.8904 61.3566 15.7128 61.2731 17.5617L61.1291 20.4477C61.0556 21.8977 61.5184 23.324 62.4291 24.4547L64.2421 26.7047C65.3965 28.1513 66.0252 29.947 66.0252 31.7977C66.0252 33.6484 65.3965 35.4442 64.2421 36.8907H64.2391ZM22.3621 10.2257C17.08 12.8499 12.9471 17.3246 10.75 22.7982C8.55296 28.2717 8.44513 34.3621 10.4471 39.91C12.449 45.4579 16.4209 50.0761 21.6068 52.8856C26.7928 55.6951 32.8307 56.4997 38.5714 55.1464C44.3121 53.793 49.3548 50.3762 52.7397 45.5461C56.1247 40.7161 57.6155 34.81 56.9286 28.9521C56.2416 23.0942 53.4247 17.6933 49.0142 13.7775C44.6036 9.86165 38.9072 7.70418 33.0091 7.71573C32.7174 7.71573 32.4376 7.83162 32.2313 8.03791C32.025 8.2442 31.9091 8.52399 31.9091 8.81573C31.9091 9.10746 32.025 9.38725 32.2313 9.59354C32.4376 9.79983 32.7174 9.91573 33.0091 9.91573C38.399 9.89769 43.6071 11.863 47.6414 15.4373C51.6757 19.0117 54.2541 23.9451 54.8854 29.2979C55.5168 34.6507 54.157 40.0487 51.0651 44.4636C47.9732 48.8784 43.3652 52.0016 38.119 53.2381C32.8729 54.4746 27.3552 53.738 22.6171 51.1686C17.8791 48.5993 14.2517 44.3767 12.4262 39.3054C10.6006 34.2341 10.7044 28.6684 12.7178 23.6687C14.7312 18.669 18.5135 14.5846 23.3441 12.1937C23.6053 12.0634 23.8041 11.8346 23.8966 11.5577C23.9892 11.2808 23.968 10.9785 23.8376 10.7172C23.7073 10.456 23.4785 10.2572 23.2016 10.1647C22.9247 10.0721 22.6223 10.0934 22.3611 10.2237L22.3621 10.2257Z" fill="#B1B1B1"/>
<path d="M38.8081 24.4467L24.7081 38.5467C24.5016 38.7532 24.3857 39.0332 24.3857 39.3252C24.3857 39.6172 24.5016 39.8973 24.7081 40.1037C24.9146 40.3102 25.1946 40.4262 25.4866 40.4262C25.7786 40.4262 26.0586 40.3102 26.2651 40.1037L40.3651 26.0037C40.4674 25.9015 40.5484 25.7801 40.6038 25.6466C40.6591 25.513 40.6876 25.3698 40.6876 25.2252C40.6876 25.0807 40.6591 24.9375 40.6038 24.8039C40.5484 24.6703 40.4674 24.549 40.3651 24.4467C40.2629 24.3445 40.1415 24.2634 40.0079 24.2081C39.8744 24.1528 39.7312 24.1243 39.5866 24.1243C39.442 24.1243 39.2989 24.1528 39.1653 24.2081C39.0317 24.2634 38.9104 24.3445 38.8081 24.4467ZM38.8981 36.0127C39.1899 36.0127 39.4696 35.8968 39.6759 35.6906C39.8822 35.4843 39.9981 35.2045 39.9981 34.9127C39.9981 34.621 39.8822 34.3412 39.6759 34.1349C39.4696 33.9286 39.1899 33.8127 38.8981 33.8127C38.1302 33.8123 37.3794 34.0398 36.7408 34.4663C36.1022 34.8927 35.6044 35.4991 35.3105 36.2085C35.0167 36.918 34.9399 37.6987 35.0899 38.4519C35.2399 39.205 35.61 39.8967 36.1533 40.4394C36.6965 40.9822 37.3886 41.3515 38.1419 41.5008C38.8952 41.65 39.6758 41.5724 40.385 41.2778C41.0942 40.9832 41.7 40.4848 42.1258 39.8457C42.5516 39.2067 42.7783 38.4557 42.7771 37.6877C42.7771 37.396 42.6612 37.1162 42.4549 36.9099C42.2486 36.7036 41.9689 36.5877 41.6771 36.5877C41.3854 36.5877 41.1056 36.7036 40.8993 36.9099C40.693 37.1162 40.5771 37.396 40.5771 37.6877C40.5771 38.02 40.4786 38.3448 40.294 38.6211C40.1094 38.8974 39.847 39.1127 39.54 39.2399C39.233 39.367 38.8953 39.4003 38.5694 39.3355C38.2435 39.2706 37.9441 39.1106 37.7092 38.8757C37.4742 38.6407 37.3142 38.3414 37.2494 38.0155C37.1846 37.6896 37.2178 37.3518 37.345 37.0448C37.4722 36.7379 37.6875 36.4755 37.9638 36.2909C38.24 36.1063 38.5648 36.0077 38.8971 36.0077L38.8981 36.0127ZM30.9981 25.9127C30.9981 26.6803 30.7705 27.4307 30.3441 28.0689C29.9176 28.7071 29.3115 29.2046 28.6023 29.4983C27.8932 29.7921 27.1128 29.8689 26.36 29.7192C25.6071 29.5694 24.9156 29.1998 24.3728 28.657C23.8301 28.1143 23.4604 27.4227 23.3107 26.6699C23.1609 25.917 23.2378 25.1367 23.5315 24.4275C23.8253 23.7184 24.3227 23.1123 24.9609 22.6858C25.5992 22.2594 26.3495 22.0317 27.1171 22.0317C28.146 22.0323 29.1327 22.4408 29.8608 23.1678C30.5889 23.8948 30.999 24.8808 31.0011 25.9097L30.9981 25.9127ZM28.7981 25.9127C28.7981 25.5805 28.6996 25.2557 28.515 24.9794C28.3304 24.7031 28.068 24.4878 27.761 24.3606C27.454 24.2335 27.1163 24.2002 26.7904 24.265C26.4645 24.3298 26.1651 24.4898 25.9302 24.7248C25.6952 24.9598 25.5352 25.2591 25.4704 25.585C25.4056 25.9109 25.4388 26.2487 25.566 26.5556C25.6932 26.8626 25.9085 27.125 26.1848 27.3096C26.461 27.4942 26.7858 27.5927 27.1181 27.5927C27.339 27.5926 27.5577 27.549 27.7617 27.4643C27.9657 27.3797 28.1511 27.2557 28.3072 27.0994C28.4633 26.9431 28.5871 26.7576 28.6715 26.5535C28.7559 26.3494 28.7992 26.1306 28.7991 25.9097L28.7981 25.9127Z" fill="#009C73"/>
</svg>
