<svg width="22" height="18" viewBox="0 0 22 18" fill="none" xmlns="http://www.w3.org/2000/svg">
<path d="M21.875 2.188C21.8734 1.60837 21.6425 1.05291 21.2328 0.642951C20.823 0.232993 20.2676 0.00184718 19.688 0H2.188C1.60819 0.00158346 1.05259 0.232613 0.6426 0.6426C0.232613 1.05259 0.00158346 1.60819 0 2.188V15.313C0.00184718 15.8926 0.232993 16.448 0.642951 16.8578C1.05291 17.2675 1.60837 17.4984 2.188 17.5H19.688C20.2676 17.4984 20.8231 17.2675 21.233 16.8578C21.643 16.448 21.8742 15.8926 21.876 15.313L21.875 2.188ZM19.687 2.188L10.937 7.657L2.188 2.188H19.687ZM19.687 15.313H2.188V4.375L10.938 9.844L19.688 4.375L19.687 15.313Z" fill="#009C73"/>
</svg>
