<svg width="46" height="55" viewBox="0 0 46 55" fill="none" xmlns="http://www.w3.org/2000/svg">
<path d="M22.797 19.1109H4.938C3.73167 19.1123 2.57513 19.592 1.72213 20.4451C0.869122 21.2981 0.389324 22.4546 0.388 23.6609V53.6909C0.388 53.9323 0.483875 54.1637 0.654533 54.3344C0.825191 54.5051 1.05665 54.6009 1.298 54.6009C1.53935 54.6009 1.77081 54.5051 1.94147 54.3344C2.11213 54.1637 2.208 53.9323 2.208 53.6909V23.6609C2.20879 22.9371 2.49667 22.2432 3.00848 21.7314C3.52028 21.2196 4.2142 20.9317 4.938 20.9309H22.797C23.0383 20.9309 23.2698 20.8351 23.4405 20.6644C23.6111 20.4937 23.707 20.2623 23.707 20.0209C23.707 19.7796 23.6111 19.5481 23.4405 19.3775C23.2698 19.2068 23.0383 19.1109 22.797 19.1109Z" fill="#009C73"/>
<path d="M43.941 0.129921L41.181 1.78292L38.422 0.129921C38.2808 0.0452257 38.1192 0.000488281 37.9545 0.000488281C37.7898 0.000488281 37.6282 0.0452257 37.487 0.129921L34.727 1.78292L31.966 0.129921C31.8248 0.0452257 31.6632 0.000488281 31.4985 0.000488281C31.3338 0.000488281 31.1722 0.0452257 31.031 0.129921L28.273 1.78392L25.511 0.129921C25.3698 0.0452257 25.2082 0.000488281 25.0435 0.000488281C24.8788 0.000488281 24.7172 0.0452257 24.576 0.129921L21.816 1.78292L19.056 0.129921C18.9178 0.0474178 18.7602 0.00299587 18.5993 0.00117594C18.4384 -0.000643992 18.2798 0.0402031 18.1398 0.11956C17.9998 0.198918 17.8833 0.313952 17.8022 0.452958C17.7211 0.591964 17.6782 0.749978 17.678 0.910921V14.9109C17.678 15.1523 17.7739 15.3837 17.9445 15.5544C18.1152 15.725 18.3466 15.8209 18.588 15.8209C18.8293 15.8209 19.0608 15.725 19.2315 15.5544C19.4021 15.3837 19.498 15.1523 19.498 14.9109V2.51692L21.348 3.62492C21.4892 3.70962 21.6508 3.75435 21.8155 3.75435C21.9802 3.75435 22.1418 3.70962 22.283 3.62492L25.043 1.97192L27.803 3.62492C27.9442 3.70962 28.1058 3.75435 28.2705 3.75435C28.4352 3.75435 28.5968 3.70962 28.738 3.62492L31.498 1.97192L34.258 3.62492C34.3992 3.70962 34.5608 3.75435 34.7255 3.75435C34.8902 3.75435 35.0518 3.70962 35.193 3.62492L37.953 1.97192L40.713 3.62492C40.8542 3.70962 41.0158 3.75435 41.1805 3.75435C41.3452 3.75435 41.5068 3.70962 41.648 3.62492L43.498 2.51692V34.4669C43.498 35.372 43.1385 36.24 42.4985 36.8799C41.8585 37.5199 40.9906 37.8794 40.0855 37.8794C39.1805 37.8794 38.3125 37.5199 37.6725 36.8799C37.0325 36.24 36.673 35.372 36.673 34.4669V24.3429C36.673 22.9552 36.1217 21.6243 35.1404 20.643C34.1592 19.6617 32.8282 19.1104 31.4405 19.1104C30.0528 19.1104 28.7218 19.6617 27.7406 20.643C26.7593 21.6243 26.208 22.9552 26.208 24.3429V53.6909C26.208 53.9323 26.3039 54.1637 26.4745 54.3344C26.6452 54.505 26.8767 54.6009 27.118 54.6009C27.3594 54.6009 27.5908 54.505 27.7615 54.3344C27.9321 54.1637 28.028 53.9323 28.028 53.6909V39.6999H31.844C32.0853 39.6999 32.3168 39.604 32.4875 39.4334C32.6581 39.2627 32.754 39.0313 32.754 38.7899C32.754 38.5486 32.6581 38.3171 32.4875 38.1465C32.3168 37.9758 32.0853 37.8799 31.844 37.8799H28.028V24.3429C28.028 23.4379 28.3875 22.5699 29.0275 21.9299C29.6675 21.29 30.5354 20.9304 31.4405 20.9304C32.3455 20.9304 33.2135 21.29 33.8535 21.9299C34.4935 22.5699 34.853 23.4379 34.853 24.3429V34.4669C34.853 35.8547 35.4043 37.1856 36.3856 38.1669C37.3668 39.1481 38.6978 39.6994 40.0855 39.6994C41.4732 39.6994 42.8042 39.1481 43.7854 38.1669C44.7667 37.1856 45.318 35.8547 45.318 34.4669V0.910921C45.3177 0.750127 45.2748 0.592282 45.1937 0.453419C45.1127 0.314556 44.9963 0.199623 44.8564 0.120296C44.7166 0.0409686 44.5582 7.30688e-05 44.3974 0.00176363C44.2366 0.0034542 44.0792 0.0476706 43.941 0.129921Z" fill="#009C73"/>
<path d="M34.399 7.84993H25.185C24.9436 7.84993 24.7122 7.9458 24.5415 8.11646C24.3709 8.28712 24.275 8.51858 24.275 8.75993C24.275 9.00127 24.3709 9.23274 24.5415 9.4034C24.7122 9.57405 24.9436 9.66993 25.185 9.66993H34.399C34.6403 9.66993 34.8718 9.57405 35.0425 9.4034C35.2131 9.23274 35.309 9.00127 35.309 8.75993C35.309 8.51858 35.2131 8.28712 35.0425 8.11646C34.8718 7.9458 34.6403 7.84993 34.399 7.84993Z" fill="#009C73"/>
<path d="M28.921 15.2429C28.921 15.3624 28.9445 15.4807 28.9903 15.5912C29.036 15.7016 29.103 15.8019 29.1875 15.8864C29.272 15.9709 29.3724 16.0379 29.4828 16.0836C29.5932 16.1294 29.7115 16.1529 29.831 16.1529H37.812C38.0533 16.1529 38.2848 16.057 38.4555 15.8864C38.6261 15.7157 38.722 15.4843 38.722 15.2429C38.722 15.0016 38.6261 14.7701 38.4555 14.5994C38.2848 14.4288 38.0533 14.3329 37.812 14.3329H29.831C29.7115 14.3329 29.5932 14.3565 29.4828 14.4022C29.3724 14.4479 29.272 14.5149 29.1875 14.5994C29.103 14.684 29.036 14.7843 28.9903 14.8947C28.9445 15.0051 28.921 15.1234 28.921 15.2429Z" fill="#009C73"/>
<path d="M26.726 15.2429C26.726 15.0016 26.6301 14.7701 26.4595 14.5994C26.2888 14.4288 26.0573 14.3329 25.816 14.3329H25.185C24.9436 14.3329 24.7122 14.4288 24.5415 14.5994C24.3709 14.7701 24.275 15.0016 24.275 15.2429C24.275 15.4843 24.3709 15.7157 24.5415 15.8864C24.7122 16.057 24.9436 16.1529 25.185 16.1529H25.816C26.0573 16.1529 26.2888 16.057 26.4595 15.8864C26.6301 15.7157 26.726 15.4843 26.726 15.2429Z" fill="#19172E"/>
<path d="M21.431 27.5269H6.985C6.74365 27.5269 6.51219 27.6228 6.34153 27.7934C6.17087 27.9641 6.075 28.1956 6.075 28.4369C6.075 28.6783 6.17087 28.9097 6.34153 29.0804C6.51219 29.251 6.74365 29.3469 6.985 29.3469H21.431C21.6723 29.3469 21.9038 29.251 22.0745 29.0804C22.2451 28.9097 22.341 28.6783 22.341 28.4369C22.341 28.1956 22.2451 27.9641 22.0745 27.7934C21.9038 27.6228 21.6723 27.5269 21.431 27.5269Z" fill="#009C73"/>
<path d="M21.431 37.0829H14.208C13.9666 37.0829 13.7352 37.1788 13.5645 37.3495C13.3939 37.5201 13.298 37.7516 13.298 37.9929C13.298 38.2343 13.3939 38.4657 13.5645 38.6364C13.7352 38.807 13.9666 38.9029 14.208 38.9029H21.431C21.6723 38.9029 21.9038 38.807 22.0745 38.6364C22.2451 38.4657 22.341 38.2343 22.341 37.9929C22.341 37.7516 22.2451 37.5201 22.0745 37.3495C21.9038 37.1788 21.6723 37.0829 21.431 37.0829Z" fill="#009C73"/>
<path d="M6.985 38.9029H9.17C9.41135 38.9029 9.64281 38.807 9.81347 38.6364C9.98413 38.4657 10.08 38.2343 10.08 37.9929C10.08 37.7516 9.98413 37.5201 9.81347 37.3495C9.64281 37.1788 9.41135 37.0829 9.17 37.0829H6.985C6.74365 37.0829 6.51219 37.1788 6.34153 37.3495C6.17087 37.5201 6.075 37.7516 6.075 37.9929C6.075 38.2343 6.17087 38.4657 6.34153 38.6364C6.51219 38.807 6.74365 38.9029 6.985 38.9029Z" fill="#009C73"/>
<path d="M19.03 46.6379H18.63C18.3887 46.6379 18.1572 46.7338 17.9865 46.9045C17.8159 47.0751 17.72 47.3066 17.72 47.5479C17.72 47.7893 17.8159 48.0207 17.9865 48.1914C18.1572 48.362 18.3887 48.4579 18.63 48.4579H19.03C19.1495 48.4579 19.2678 48.4344 19.3783 48.3887C19.4887 48.3429 19.589 48.2759 19.6735 48.1914C19.758 48.1069 19.825 48.0066 19.8707 47.8962C19.9165 47.7858 19.94 47.6674 19.94 47.5479C19.94 47.4284 19.9165 47.3101 19.8707 47.1997C19.825 47.0893 19.758 46.989 19.6735 46.9045C19.589 46.82 19.4887 46.7529 19.3783 46.7072C19.2678 46.6615 19.1495 46.6379 19.03 46.6379Z" fill="#19172E"/>
<path d="M14.67 46.6379H6.985C6.74365 46.6379 6.51219 46.7338 6.34153 46.9045C6.17087 47.0751 6.075 47.3066 6.075 47.5479C6.075 47.7893 6.17087 48.0207 6.34153 48.1914C6.51219 48.362 6.74365 48.4579 6.985 48.4579H14.67C14.9113 48.4579 15.1428 48.362 15.3135 48.1914C15.4841 48.0207 15.58 47.7893 15.58 47.5479C15.58 47.3066 15.4841 47.0751 15.3135 46.9045C15.1428 46.7338 14.9113 46.6379 14.67 46.6379Z" fill="#19172E"/>
</svg>
