<svg width="56" height="55" viewBox="0 0 56 55" fill="none" xmlns="http://www.w3.org/2000/svg">
<path d="M55.091 18.021C55.094 13.9578 53.706 10.0159 51.158 6.85086C48.61 3.68581 45.0553 1.48826 41.0851 0.623597C37.1149 -0.241063 32.9684 0.279263 29.3349 2.09806C25.7015 3.91686 22.8 6.92455 21.113 10.621C19.0433 9.88215 16.8396 9.59415 14.6495 9.77631C12.4595 9.95847 10.3336 10.6066 8.41442 11.6773C6.49524 12.7479 4.82704 14.2164 3.52161 15.9843C2.21618 17.7522 1.30366 19.7787 0.845191 21.9279C0.386726 24.0772 0.392905 26.2997 0.863314 28.4464C1.33372 30.5931 2.2575 32.6144 3.57274 34.375C4.88798 36.1356 6.56432 37.5948 8.48943 38.6548C10.4145 39.7148 12.544 40.3511 14.735 40.521V52.451H1.678C1.36319 52.451 1.06127 52.5761 0.838665 52.7987C0.61606 53.0213 0.491001 53.3232 0.491001 53.638C0.491001 53.9528 0.61606 54.2548 0.838665 54.4774C1.06127 54.7 1.36319 54.825 1.678 54.825H53.906C54.2208 54.825 54.5227 54.7 54.7453 54.4774C54.9679 54.2548 55.093 53.9528 55.093 53.638C55.093 53.3232 54.9679 53.0213 54.7453 52.7987C54.5227 52.5761 54.2208 52.451 53.906 52.451H38.475V35.77C42.9778 35.4668 47.1976 33.4657 50.2819 30.1711C53.3662 26.8765 55.085 22.534 55.091 18.021ZM37.291 2.59504C41.278 2.59589 45.1098 4.14072 47.9826 6.90546C50.8553 9.6702 52.5457 13.44 52.6993 17.4241C52.8528 21.4082 51.4575 25.2969 48.8061 28.2745C46.1547 31.2522 42.4531 33.0873 38.478 33.395V25.783L45.072 21.383C45.3339 21.2083 45.5156 20.9366 45.5773 20.6278C45.6389 20.319 45.5753 19.9984 45.4005 19.7365C45.2257 19.4746 44.9541 19.2929 44.6453 19.2313C44.3365 19.1697 44.0159 19.2333 43.754 19.408L38.478 22.926V15.652C38.478 15.3372 38.3529 15.0353 38.1303 14.8127C37.9077 14.5901 37.6058 14.465 37.291 14.465C36.9762 14.465 36.6743 14.5901 36.4517 14.8127C36.2291 15.0353 36.104 15.3372 36.104 15.652V22.93L30.828 19.412C30.6983 19.3255 30.5529 19.2653 30.3999 19.235C30.247 19.2047 30.0896 19.2048 29.9367 19.2353C29.7838 19.2658 29.6384 19.3261 29.5089 19.4128C29.3793 19.4995 29.268 19.6109 29.1815 19.7405C29.095 19.8702 29.0348 20.0157 29.0045 20.1686C28.9742 20.3215 28.9742 20.4789 29.0047 20.6318C29.0353 20.7847 29.0956 20.9301 29.1823 21.0597C29.269 21.1893 29.3803 21.3005 29.51 21.387L36.104 25.787V33.4C33.518 33.2043 31.0239 32.3559 28.855 30.934C28.446 30.667 28.055 30.379 27.678 30.079C27.432 29.879 27.199 29.673 26.965 29.463C26.731 29.253 26.495 29.039 26.276 28.815C26.057 28.591 25.836 28.343 25.624 28.098C25.473 27.925 25.324 27.747 25.185 27.568C24.975 27.301 24.768 27.031 24.574 26.751C24.455 26.578 24.349 26.396 24.236 26.218C23.9333 25.7356 23.6576 25.2369 23.41 24.724C23.287 24.467 23.156 24.216 23.047 23.953C22.938 23.69 22.858 23.444 22.767 23.187C22.659 22.88 22.554 22.573 22.467 22.26C22.4 22.024 22.339 21.784 22.282 21.543C22.196 21.173 22.127 20.798 22.067 20.42C22.036 20.22 21.998 20.02 21.975 19.82C21.904 19.227 21.8667 18.6303 21.863 18.033C21.863 17.525 21.891 17.024 21.939 16.533C21.953 16.386 21.981 16.242 21.998 16.097C22.042 15.75 22.09 15.405 22.156 15.065C22.191 14.886 22.238 14.709 22.279 14.531C22.347 14.24 22.418 13.95 22.502 13.665C22.567 13.446 22.642 13.231 22.718 13.015C23.7625 9.97881 25.7274 7.34362 28.3392 5.47607C30.9511 3.60853 34.0801 2.60148 37.291 2.59504ZM2.865 25.148C2.86859 23.0615 3.37128 21.006 4.33109 19.1533C5.2909 17.3006 6.67998 15.7044 8.38238 14.4979C10.0848 13.2915 12.0511 12.5097 14.1172 12.218C16.1832 11.9263 18.2891 12.1331 20.259 12.821C20.108 13.311 19.986 13.809 19.878 14.311C19.851 14.441 19.829 14.573 19.804 14.705C19.726 15.1157 19.6627 15.5294 19.614 15.946C19.597 16.093 19.579 16.24 19.565 16.389C19.515 16.929 19.482 17.474 19.482 18.025C19.484 18.686 19.5227 19.3464 19.598 20.003C19.624 20.241 19.67 20.472 19.706 20.703C19.767 21.103 19.832 21.503 19.92 21.898C19.985 22.198 20.066 22.484 20.147 22.775C20.233 23.086 20.324 23.393 20.427 23.696C20.538 24.026 20.656 24.35 20.785 24.672C20.885 24.908 20.985 25.14 21.085 25.372C21.248 25.731 21.411 26.087 21.597 26.433C21.667 26.563 21.747 26.686 21.82 26.814C22.5301 28.061 23.3894 29.2169 24.379 30.256C24.531 30.416 24.679 30.578 24.836 30.732C25.091 30.981 25.357 31.219 25.629 31.452C25.865 31.657 26.106 31.852 26.353 32.052C26.499 32.166 26.629 32.294 26.78 32.403C25.696 34.0186 24.2646 35.3715 22.5904 36.3627C20.9163 37.3539 19.0418 37.9584 17.104 38.132V29.896C17.1024 29.5816 16.9775 29.2803 16.756 29.057L12.008 24.309C11.7834 24.0968 11.4849 23.9805 11.176 23.9849C10.867 23.9893 10.5719 24.1139 10.3534 24.3324C10.1349 24.5509 10.0102 24.846 10.0059 25.155C10.0015 25.464 10.1178 25.7624 10.33 25.987L14.73 30.387V38.144C11.4877 37.8451 8.47367 36.3466 6.27815 33.9421C4.08262 31.5376 2.86369 28.4001 2.86 25.144L2.865 25.148ZM17.109 52.448V40.529C19.45 40.3491 21.719 39.6373 23.7434 38.448C25.7678 37.2587 27.4941 35.6232 28.791 33.666C31.0471 34.8882 33.5422 35.6048 36.103 35.766V52.448H17.109Z" fill="#009C73"/>
</svg>
