<svg width="40" height="55" viewBox="0 0 40 55" fill="none" xmlns="http://www.w3.org/2000/svg">
<path d="M39.856 3.364V1.655C39.8555 1.21623 39.6809 0.795581 39.3707 0.485323C39.0604 0.175065 38.6398 0.000529278 38.201 0L2.29601 0C1.85715 0.000264927 1.43635 0.174716 1.12603 0.485031C0.815715 0.795346 0.641264 1.21615 0.640999 1.655V3.365C0.641426 3.66054 0.720939 3.95059 0.871284 4.20503C1.02163 4.45947 1.23733 4.66905 1.496 4.812V15.388H1.441C1.22883 15.388 1.02535 15.4723 0.87532 15.6223C0.725291 15.7723 0.640999 15.9758 0.640999 16.188C0.640999 16.4002 0.725291 16.6037 0.87532 16.7537C1.02535 16.9037 1.22883 16.988 1.441 16.988H1.496V37.614H1.441C1.22883 37.614 1.02535 37.6983 0.87532 37.8483C0.725291 37.9983 0.640999 38.2018 0.640999 38.414C0.640999 38.6262 0.725291 38.8297 0.87532 38.9797C1.02535 39.1297 1.22883 39.214 1.441 39.214H1.496V49.789C1.23718 49.932 1.02139 50.1418 0.871033 50.3964C0.720678 50.651 0.641247 50.9413 0.640999 51.237V52.947C0.642057 53.3854 0.816829 53.8056 1.12703 54.1154C1.43723 54.4252 1.85758 54.5995 2.29601 54.6H38.196C38.6348 54.5995 39.0554 54.4249 39.3657 54.1147C39.6759 53.8044 39.8505 53.3838 39.851 52.945V51.235C39.8508 50.9393 39.7713 50.649 39.621 50.3944C39.4706 50.1398 39.2548 49.93 38.996 49.787V39.214H39.051C39.2632 39.214 39.4667 39.1297 39.6167 38.9797C39.7667 38.8297 39.851 38.6262 39.851 38.414C39.851 38.2018 39.7667 37.9983 39.6167 37.8483C39.4667 37.6983 39.2632 37.614 39.051 37.614H38.996V16.987H39.051C39.2632 16.987 39.4667 16.9027 39.6167 16.7527C39.7667 16.6027 39.851 16.3992 39.851 16.187C39.851 15.9748 39.7667 15.7713 39.6167 15.6213C39.4667 15.4713 39.2632 15.387 39.051 15.387H38.996V4.812C39.2558 4.66962 39.4726 4.46017 39.6238 4.20549C39.7751 3.95081 39.8553 3.66021 39.856 3.364ZM2.242 1.655C2.242 1.64058 2.24766 1.62674 2.25776 1.61646C2.26786 1.60617 2.28159 1.60026 2.29601 1.6H38.196C38.2106 1.6 38.2246 1.60579 38.2349 1.61611C38.2452 1.62642 38.251 1.64041 38.251 1.655V3.365C38.251 3.37959 38.2452 3.39358 38.2349 3.40389C38.2246 3.41421 38.2106 3.42 38.196 3.42H2.29601C2.28142 3.42 2.26743 3.41421 2.25711 3.40389C2.2468 3.39358 2.241 3.37959 2.241 3.365L2.242 1.655ZM31.362 16.988H37.401V37.614H12.555C12.3428 37.614 12.1393 37.6983 11.9893 37.8483C11.8393 37.9983 11.755 38.2018 11.755 38.414C11.755 38.6262 11.8393 38.8297 11.9893 38.9797C12.1393 39.1297 12.3428 39.214 12.555 39.214H37.401V49.582H3.096V39.214H9.136C9.34818 39.214 9.55166 39.1297 9.70169 38.9797C9.85172 38.8297 9.936 38.6262 9.936 38.414C9.936 38.2018 9.85172 37.9983 9.70169 37.8483C9.55166 37.6983 9.34818 37.614 9.136 37.614H3.096V16.987H27.943C28.1552 16.987 28.3587 16.9027 28.5087 16.7527C28.6587 16.6027 28.743 16.3992 28.743 16.187C28.743 15.9748 28.6587 15.7713 28.5087 15.6213C28.3587 15.4713 28.1552 15.387 27.943 15.387H3.096V5.019H37.401V15.388H31.362C31.1498 15.388 30.9463 15.4723 30.7963 15.6223C30.6463 15.7723 30.562 15.9758 30.562 16.188C30.562 16.4002 30.6463 16.6037 30.7963 16.7537C30.9463 16.9037 31.1498 16.988 31.362 16.988ZM38.256 52.947C38.256 52.9542 38.2546 52.9614 38.2518 52.968C38.2491 52.9747 38.245 52.9808 38.2399 52.9859C38.2348 52.991 38.2287 52.995 38.2221 52.9978C38.2154 53.0006 38.2082 53.002 38.201 53.002H2.29601C2.28142 53.002 2.26743 52.9962 2.25711 52.9859C2.2468 52.9756 2.241 52.9616 2.241 52.947V51.237C2.241 51.2224 2.2468 51.2084 2.25711 51.1981C2.26743 51.1878 2.28142 51.182 2.29601 51.182H38.196C38.2106 51.182 38.2246 51.1878 38.2349 51.1981C38.2452 51.2084 38.251 51.2224 38.251 51.237L38.256 52.947Z" fill="#009C73"/>
<path d="M20.856 19.085C20.7809 18.9973 20.6877 18.927 20.5829 18.8787C20.478 18.8305 20.3639 18.8055 20.2485 18.8055C20.1331 18.8055 20.019 18.8305 19.9142 18.8787C19.8093 18.927 19.7161 18.9973 19.641 19.085C19.424 19.338 14.319 25.346 14.319 29.864C14.319 31.4365 14.9437 32.9445 16.0556 34.0564C17.1675 35.1683 18.6755 35.793 20.248 35.793C21.8205 35.793 23.3285 35.1683 24.4404 34.0564C25.5523 32.9445 26.177 31.4365 26.177 29.864C26.178 25.346 21.074 19.339 20.856 19.085ZM20.249 34.193C19.1006 34.1927 17.9992 33.7367 17.1868 32.925C16.3744 32.1133 15.9173 31.0124 15.916 29.864C15.916 26.782 18.926 22.575 20.246 20.88C21.566 22.575 24.575 26.78 24.575 29.864C24.5739 31.0114 24.118 32.1115 23.307 32.9232C22.4961 33.7349 21.3964 34.1919 20.249 34.194V34.193Z" fill="#19172E"/>
<path d="M21.959 29.066C21.8539 29.066 21.7499 29.0867 21.6529 29.1269C21.5558 29.1671 21.4676 29.226 21.3933 29.3003C21.319 29.3746 21.2601 29.4628 21.2199 29.5598C21.1797 29.6569 21.159 29.7609 21.159 29.866C21.1587 30.1073 21.0628 30.3386 20.8922 30.5092C20.7216 30.6798 20.4903 30.7757 20.249 30.776C20.0368 30.776 19.8334 30.8603 19.6833 31.0103C19.5333 31.1603 19.449 31.3638 19.449 31.576C19.449 31.7882 19.5333 31.9917 19.6833 32.1417C19.8334 32.2917 20.0368 32.376 20.249 32.376C20.9145 32.3755 21.5527 32.1109 22.0233 31.6403C22.4939 31.1697 22.7585 30.5315 22.759 29.866C22.759 29.7609 22.7383 29.6569 22.6981 29.5598C22.6579 29.4628 22.599 29.3746 22.5247 29.3003C22.4504 29.226 22.3622 29.1671 22.2652 29.1269C22.1681 29.0867 22.0641 29.066 21.959 29.066Z" fill="#19172E"/>
</svg>
