<svg width="47" height="56" viewBox="0 0 47 56" fill="none" xmlns="http://www.w3.org/2000/svg">
<path d="M24.198 31.5109V28.5329C24.198 27.6975 23.8661 26.8963 23.2754 26.3055C22.6846 25.7148 21.8834 25.3829 21.048 25.3829C20.2126 25.3829 19.4114 25.7148 18.8206 26.3055C18.2299 26.8963 17.898 27.6975 17.898 28.5329V31.5119C17.898 32.3474 18.2299 33.1486 18.8206 33.7393C19.4114 34.3301 20.2126 34.6619 21.048 34.6619C21.8834 34.6619 22.6846 34.3301 23.2754 33.7393C23.8661 33.1486 24.198 32.3474 24.198 31.5119V31.5109ZM19.731 31.5109V28.5319C19.731 28.1825 19.8698 27.8474 20.1169 27.6003C20.364 27.3532 20.6991 27.2144 21.0485 27.2144C21.3979 27.2144 21.733 27.3532 21.9801 27.6003C22.2272 27.8474 22.366 28.1825 22.366 28.5319V31.5099C22.366 31.8593 22.2272 32.1945 21.9801 32.4415C21.733 32.6886 21.3979 32.8274 21.0485 32.8274C20.6991 32.8274 20.364 32.6886 20.1169 32.4415C19.8698 32.1945 19.731 31.8593 19.731 31.5099V31.5109ZM31.045 28.1599C31.0447 27.9094 30.9451 27.6692 30.7679 27.492C30.5908 27.3148 30.3505 27.2152 30.1 27.2149H27.499C27.2559 27.2149 27.0228 27.1184 26.8509 26.9465C26.6791 26.7746 26.5825 26.5415 26.5825 26.2984C26.5825 26.0554 26.6791 25.8222 26.8509 25.6504C27.0228 25.4785 27.2559 25.3819 27.499 25.3819H30.105C30.4698 25.3819 30.8311 25.4538 31.1681 25.5934C31.5051 25.733 31.8114 25.9376 32.0693 26.1956C32.3273 26.4535 32.5319 26.7598 32.6715 27.0968C32.8112 27.4339 32.883 27.7951 32.883 28.1599C32.883 28.5247 32.8112 28.886 32.6715 29.223C32.5319 29.5601 32.3273 29.8663 32.0693 30.1243C31.8114 30.3822 31.5051 30.5869 31.1681 30.7265C30.8311 30.8661 30.4698 30.9379 30.105 30.9379H29.36C29.1095 30.9382 28.8692 31.0378 28.6921 31.215C28.5149 31.3922 28.4153 31.6324 28.415 31.8829V32.8279H31.966C32.2091 32.8279 32.4422 32.9245 32.6141 33.0964C32.7859 33.2682 32.8825 33.5014 32.8825 33.7444C32.8825 33.9875 32.7859 34.2206 32.6141 34.3925C32.4422 34.5644 32.2091 34.6609 31.966 34.6609H27.499C27.2561 34.6609 27.0231 34.5644 26.8513 34.3926C26.6795 34.2209 26.583 33.9879 26.583 33.7449V31.8829C26.5838 31.1464 26.8767 30.4403 27.3975 29.9195C27.9183 29.3987 28.6245 29.1057 29.361 29.1049H30.106C30.3555 29.1031 30.5942 29.0027 30.7701 28.8257C30.9459 28.6487 31.0447 28.4094 31.045 28.1599ZM12.624 28.5319V31.5099C12.6241 31.6832 12.6584 31.8548 12.7249 32.0148C12.7914 32.1749 12.8887 32.3203 13.0114 32.4427C13.1341 32.5651 13.2797 32.6621 13.4399 32.7282C13.6001 32.7943 13.7717 32.8282 13.945 32.8279H15.245C15.4881 32.8279 15.7212 32.9245 15.8931 33.0964C16.0649 33.2682 16.1615 33.5014 16.1615 33.7444C16.1615 33.9875 16.0649 34.2206 15.8931 34.3925C15.7212 34.5644 15.4881 34.6609 15.245 34.6609H13.945C13.1099 34.6599 12.3093 34.3277 11.7188 33.7371C11.1283 33.1466 10.7961 32.346 10.795 31.5109V28.5329C10.7961 27.6978 11.1283 26.8972 11.7188 26.3067C12.3093 25.7162 13.1099 25.384 13.945 25.3829H15.245C15.3654 25.3829 15.4845 25.4066 15.5957 25.4527C15.7069 25.4987 15.808 25.5663 15.8931 25.6514C15.9782 25.7365 16.0457 25.8375 16.0917 25.9487C16.1378 26.0599 16.1615 26.1791 16.1615 26.2994C16.1615 26.4198 16.1378 26.539 16.0917 26.6502C16.0457 26.7613 15.9782 26.8624 15.8931 26.9475C15.808 27.0326 15.7069 27.1001 15.5957 27.1462C15.4845 27.1922 15.3654 27.2159 15.245 27.2159H13.945C13.596 27.2167 13.2616 27.3558 13.015 27.6026C12.7683 27.8494 12.6295 28.184 12.629 28.5329L12.624 28.5319Z" fill="#19172E"/>
<path d="M40.866 25.0079C41.9095 26.0203 42.7101 27.256 43.2074 28.6223C43.7047 29.9885 43.886 31.4496 43.7375 32.896C43.589 34.3423 43.1146 35.7361 42.35 36.9728C41.5854 38.2094 40.5505 39.2567 39.323 40.0359C39.1179 40.1664 38.8693 40.2101 38.632 40.1573C38.3946 40.1045 38.188 39.9596 38.0575 39.7544C37.927 39.5493 37.8834 39.3007 37.9362 39.0634C37.989 38.826 38.1339 38.6194 38.339 38.4889C39.4056 37.8119 40.2916 36.8856 40.9205 35.7899C41.5495 34.6943 41.9025 33.4621 41.9491 32.1996C41.9958 30.9371 41.7347 29.6822 41.1883 28.5431C40.642 27.404 39.8268 26.4148 38.813 25.6609C38.6933 25.5716 38.5973 25.4543 38.5332 25.3194C38.4691 25.1845 38.439 25.036 38.4454 24.8867C38.4518 24.7375 38.4945 24.5921 38.5699 24.4632C38.6453 24.3342 38.7511 24.2257 38.878 24.1469C40.4663 23.1653 41.7984 21.8199 42.7643 20.222C43.7302 18.624 44.3021 16.8192 44.433 14.9566C44.5639 13.094 44.2499 11.227 43.5169 9.50967C42.784 7.79234 41.6531 6.27396 40.2177 5.07985C38.7822 3.88574 37.0833 3.05016 35.2613 2.64206C33.4392 2.23397 31.5462 2.26507 29.7386 2.73281C27.9309 3.20054 26.2604 4.09149 24.865 5.33211C23.4695 6.57273 22.3891 8.12744 21.713 9.86792C21.6346 10.0692 21.4877 10.2363 21.2982 10.3398C21.1087 10.4433 20.8887 10.4767 20.677 10.4339C19.402 10.176 18.0856 10.2042 16.8229 10.5167C15.5601 10.8291 14.3824 11.4179 13.3748 12.2406C12.3671 13.0633 11.5547 14.0994 10.996 15.2742C10.4373 16.449 10.1463 17.7331 10.144 19.0339C10.144 20.1339 10.379 20.3949 10.015 20.8339C9.93593 20.9303 9.83803 21.0095 9.72731 21.0668C9.61658 21.124 9.49535 21.1581 9.371 21.1669C7.68802 21.2867 6.08506 21.9316 4.78811 23.0108C3.49117 24.09 2.56566 25.5491 2.14206 27.1823C1.71846 28.8155 1.81815 30.5405 2.42705 32.114C3.03596 33.6875 4.12337 35.0303 5.536 35.9529C5.65105 36.0283 5.74767 36.1286 5.81869 36.2464C5.88971 36.3643 5.93333 36.4965 5.94629 36.6335C5.95925 36.7704 5.94124 36.9085 5.89359 37.0376C5.84594 37.1666 5.76986 37.2833 5.671 37.3789C5.02302 38.0066 4.55878 38.7994 4.32839 39.6716C4.098 40.5439 4.11022 41.4625 4.36372 42.3283C4.61723 43.1941 5.10239 43.9742 5.76684 44.5844C6.43129 45.1947 7.2498 45.6118 8.134 45.7909C8.26084 45.8164 8.38085 45.8683 8.48617 45.9434C8.59149 46.0186 8.67973 46.1151 8.74508 46.2267C8.81044 46.3384 8.85144 46.4626 8.86538 46.5912C8.87933 46.7198 8.86591 46.8499 8.826 46.9729C8.48293 48.0295 7.81104 48.9488 6.90845 49.5965C6.00586 50.2441 4.91984 50.5863 3.809 50.5729C3.56593 50.5729 3.33282 50.4764 3.16094 50.3045C2.98906 50.1326 2.8925 49.8995 2.8925 49.6564C2.8925 49.4134 2.98906 49.1802 3.16094 49.0084C3.33282 48.8365 3.56593 48.7399 3.809 48.7399C4.36879 48.7478 4.92198 48.6183 5.42008 48.3627C5.91817 48.1071 6.34598 47.7333 6.666 47.2739C5.68942 46.8948 4.81376 46.2949 4.10748 45.5211C3.40121 44.7474 2.88347 43.8208 2.59472 42.8138C2.30597 41.8067 2.25405 40.7466 2.44302 39.7161C2.63198 38.6857 3.05671 37.713 3.684 36.8739C2.21463 35.6686 1.12325 34.0658 0.540177 32.257C-0.0428903 30.4482 -0.0929952 28.5097 0.395848 26.6732C0.884692 24.8367 1.89182 23.1796 3.29696 21.9C4.7021 20.6204 6.44586 19.7723 8.32 19.4569C8.26095 17.914 8.53895 16.3768 9.13464 14.9523C9.73032 13.5278 10.6294 12.2503 11.7692 11.2087C12.909 10.1672 14.2621 9.38659 15.7344 8.92136C17.2067 8.45613 18.7627 8.31743 20.294 8.51492C21.1503 6.62624 22.427 4.95826 24.0264 3.63841C25.6259 2.31856 27.5059 1.38176 29.5228 0.899568C31.5397 0.417376 33.6401 0.402556 35.6636 0.856237C37.6871 1.30992 39.5802 2.2201 41.1981 3.51725C42.8161 4.81439 44.1162 6.46419 44.999 8.3406C45.8819 10.217 46.3242 12.2704 46.2921 14.3439C46.2601 16.4174 45.7546 18.4561 44.8141 20.3043C43.8737 22.1526 42.5233 23.7614 40.866 25.0079ZM32.928 40.5079C32.5619 42.5839 31.7101 44.544 30.4422 46.2281C29.1743 47.9122 27.5261 49.2726 25.6323 50.1984C23.7384 51.1242 21.6525 51.5891 19.5447 51.5551C17.4369 51.5211 15.3671 50.9893 13.504 50.0029C13.0452 51.4182 12.2051 52.6797 11.076 53.6486C9.94693 54.6175 8.57257 55.2563 7.104 55.4949C6.98529 55.5146 6.86385 55.5107 6.74664 55.4835C6.62942 55.4563 6.51871 55.4062 6.42084 55.3362C6.32297 55.2662 6.23985 55.1776 6.17622 55.0755C6.11259 54.9733 6.0697 54.8596 6.05 54.7409C6.0303 54.6222 6.03418 54.5008 6.06141 54.3836C6.08864 54.2663 6.1387 54.1556 6.20871 54.0578C6.27873 53.9599 6.36734 53.8768 6.46948 53.8131C6.57162 53.7495 6.68529 53.7066 6.804 53.6869C8.11351 53.474 9.32197 52.852 10.2561 51.9099C11.1903 50.9678 11.8022 49.7542 12.004 48.4429C12.0278 48.2913 12.0893 48.148 12.1829 48.0264C12.2765 47.9047 12.3991 47.8084 12.5395 47.7464C12.6799 47.6844 12.8337 47.6586 12.9866 47.6715C13.1396 47.6843 13.2869 47.7354 13.415 47.8199C15.0118 48.8712 16.8447 49.5092 18.7491 49.6768C20.6534 49.8444 22.5696 49.5363 24.3254 48.7801C26.0813 48.0239 27.6217 46.8433 28.8084 45.3444C29.995 43.8456 30.7908 42.0754 31.124 40.1929C31.1659 39.9536 31.3012 39.7407 31.5001 39.601C31.6989 39.4614 31.9451 39.4065 32.1845 39.4484C32.4239 39.4903 32.6368 39.6256 32.7764 39.8245C32.916 40.0234 32.9709 40.2696 32.929 40.5089L32.928 40.5079Z" fill="#009C73"/>
</svg>
