<svg width="579" height="346" viewBox="0 0 579 346" fill="none" xmlns="http://www.w3.org/2000/svg">
<path d="M16.6709 150.776C16.4248 154.661 16.3018 158.476 16.3018 162.22C16.3018 165.103 16.6445 166.983 17.3301 167.862C18.0156 168.741 19 169.181 20.2832 169.181C21.2148 169.181 22.2432 168.838 23.3682 168.152C23.7725 167.906 24.0186 167.783 24.1064 167.783C24.335 167.783 24.4492 167.906 24.4492 168.152C24.4492 168.574 23.8252 169.242 22.5771 170.156C21.3291 171.07 19.7998 171.527 17.9893 171.527C16.1963 171.527 14.8516 170.903 13.9551 169.655C13.0586 168.407 12.6104 166.544 12.6104 164.065C12.6104 161.481 12.7686 157.052 13.085 150.776C12.9619 150.741 12.127 150.68 10.5801 150.592L8.99805 150.486C8.61133 150.469 8.41797 150.337 8.41797 150.091C8.41797 149.862 8.6377 149.678 9.07715 149.537C9.79785 149.273 11.0107 148.5 12.7158 147.217C14.4209 145.934 15.4141 144.123 15.6953 141.785C15.7656 141.17 15.959 140.862 16.2754 140.862C16.5918 140.862 16.75 141.108 16.75 141.601C16.75 141.759 16.7412 141.926 16.7236 142.102C16.6709 142.787 16.6445 143.578 16.6445 144.475L16.6709 148.588L22.4453 148.509C23.4297 148.509 23.9395 148.623 23.9746 148.852C23.957 149.66 23.8252 150.17 23.5791 150.381C22.665 150.381 20.3623 150.513 16.6709 150.776Z" fill="#19172E"/>
<path d="M26.9541 159.979C26.9541 156.885 28.0703 154.16 30.3027 151.805C32.5352 149.449 35.2773 148.271 38.5293 148.271C41.5879 148.271 44.2158 149.326 46.4131 151.436C48.6279 153.545 49.7354 156.182 49.7354 159.346C49.7354 162.545 48.5752 165.357 46.2549 167.783C43.9346 170.191 41.2275 171.396 38.1338 171.396C35.0752 171.396 32.4473 170.288 30.25 168.073C28.0527 165.841 26.9541 163.143 26.9541 159.979ZM31.2256 159.82C31.2256 162.844 31.9199 165.357 33.3086 167.361C34.7148 169.365 36.4463 170.367 38.5029 170.367C40.3838 170.367 42.0361 169.427 43.46 167.546C44.9014 165.665 45.6221 163.169 45.6221 160.058C45.6221 157.28 44.9277 154.811 43.5391 152.648C42.168 150.469 40.3838 149.379 38.1865 149.379C36.1475 149.379 34.4775 150.372 33.1768 152.358C31.876 154.327 31.2256 156.814 31.2256 159.82Z" fill="#19172E"/>
<path d="M73.5977 148.456C73.6855 149.212 73.7295 149.897 73.7295 150.513C73.7295 151.04 73.6855 151.805 73.5977 152.807C75.3379 151.154 76.665 150.091 77.5791 149.616C78.5107 149.124 79.5479 148.878 80.6904 148.878C83.3975 148.878 85.7002 149.994 87.5986 152.227C89.5146 154.441 90.4727 157.052 90.4727 160.058C90.4727 163.31 89.3828 165.973 87.2031 168.047C85.0234 170.104 82.4834 171.132 79.583 171.132C77.5791 171.132 75.584 170.543 73.5977 169.365C73.2988 171.527 73.1494 173.909 73.1494 176.511C73.1494 178.04 73.2109 179.227 73.334 180.07L73.4131 181.099C73.7471 182.206 74.6348 182.9 76.0762 183.182C76.5684 183.287 76.832 183.489 76.8672 183.788L76.7881 184.052L76.6035 184.157C74.4414 184.034 72.7451 183.973 71.5146 183.973C68.4033 183.973 66.5312 183.999 65.8984 184.052C65.4941 184.052 65.292 183.902 65.292 183.604C65.292 183.322 65.4678 183.164 65.8193 183.129C67.4541 182.953 68.4736 182.584 68.8779 182.021C69.2998 181.459 69.5635 178.963 69.6689 174.533C69.792 170.121 69.8535 167.361 69.8535 166.254L69.7744 159.082L69.8008 154.811C69.8008 152.596 69.6514 151.181 69.3525 150.565C69.0537 149.95 68.2891 149.599 67.0586 149.511C66.6543 149.476 66.4521 149.326 66.4521 149.062C66.4521 148.904 66.5225 148.781 66.6631 148.693C66.8213 148.605 67.6211 148.553 69.0625 148.535L73.5977 148.456ZM73.3867 160.189C73.3867 163.406 73.4658 165.463 73.624 166.359C73.7822 167.256 74.3447 168.091 75.3115 168.864C76.2959 169.638 77.5791 170.024 79.1611 170.024C81.3057 170.024 83.0283 169.11 84.3291 167.282C85.6299 165.437 86.2803 163.187 86.2803 160.532C86.2803 157.509 85.6123 155.092 84.2764 153.281C82.958 151.453 81.3408 150.539 79.4248 150.539C77.5615 150.539 76.085 151.312 74.9951 152.859C73.9229 154.406 73.3867 156.85 73.3867 160.189Z" fill="#19172E"/>
<path d="M107.453 167.625C106.592 168.873 105.563 169.813 104.368 170.446C103.173 171.062 101.819 171.369 100.308 171.369C98.5322 171.369 97.1348 170.895 96.1152 169.945C95.1133 168.996 94.6123 167.748 94.6123 166.201C94.6123 165.041 94.9111 163.96 95.5088 162.958C96.124 161.956 96.8184 161.235 97.5918 160.796C98.3828 160.356 99.7627 159.803 101.731 159.135C104.544 158.203 106.231 157.43 106.794 156.814C107.356 156.199 107.638 155.399 107.638 154.415C107.638 152.851 107.269 151.638 106.53 150.776C105.792 149.897 104.746 149.458 103.393 149.458C102.285 149.458 101.45 149.704 100.888 150.196C100.325 150.706 99.8945 151.699 99.5957 153.176C99.2793 154.793 98.585 155.602 97.5127 155.602C97.126 155.602 96.6953 155.408 96.2207 155.021C95.7637 154.635 95.5352 154.063 95.5352 153.308C95.5352 151.989 96.2646 150.847 97.7236 149.88C99.1826 148.896 101.187 148.403 103.735 148.403C105.757 148.403 107.365 148.693 108.561 149.273C109.773 149.836 110.529 150.486 110.828 151.225C111.145 151.963 111.303 153.387 111.303 155.496L111.145 162.457C111.145 165.146 111.303 167.062 111.619 168.205C111.953 169.33 112.56 169.893 113.438 169.893C113.614 169.893 113.86 169.866 114.177 169.813L114.625 169.761C115.029 169.761 115.231 169.91 115.231 170.209C115.231 170.895 113.5 171.237 110.037 171.237C109.035 171.237 108.358 171.009 108.007 170.552C107.673 170.077 107.488 169.102 107.453 167.625ZM107.453 157.342C106.926 158.027 105.73 158.862 103.867 159.847C102.021 160.796 100.694 161.701 99.8857 162.562C99.0771 163.441 98.6729 164.496 98.6729 165.727C98.6729 166.834 98.998 167.774 99.6484 168.548C100.316 169.321 101.143 169.708 102.127 169.708C103.146 169.708 104.104 169.4 105.001 168.785C105.897 168.152 106.557 167.353 106.979 166.386C107.418 165.419 107.638 163.986 107.638 162.088C107.638 160.664 107.576 159.082 107.453 157.342Z" fill="#19172E"/>
<path d="M124.223 148.456C124.311 149.212 124.354 149.897 124.354 150.513C124.354 151.04 124.311 151.805 124.223 152.807C125.963 151.154 127.29 150.091 128.204 149.616C129.136 149.124 130.173 148.878 131.315 148.878C134.022 148.878 136.325 149.994 138.224 152.227C140.14 154.441 141.098 157.052 141.098 160.058C141.098 163.31 140.008 165.973 137.828 168.047C135.648 170.104 133.108 171.132 130.208 171.132C128.204 171.132 126.209 170.543 124.223 169.365C123.924 171.527 123.774 173.909 123.774 176.511C123.774 178.04 123.836 179.227 123.959 180.07L124.038 181.099C124.372 182.206 125.26 182.9 126.701 183.182C127.193 183.287 127.457 183.489 127.492 183.788L127.413 184.052L127.229 184.157C125.066 184.034 123.37 183.973 122.14 183.973C119.028 183.973 117.156 183.999 116.523 184.052C116.119 184.052 115.917 183.902 115.917 183.604C115.917 183.322 116.093 183.164 116.444 183.129C118.079 182.953 119.099 182.584 119.503 182.021C119.925 181.459 120.188 178.963 120.294 174.533C120.417 170.121 120.479 167.361 120.479 166.254L120.399 159.082L120.426 154.811C120.426 152.596 120.276 151.181 119.978 150.565C119.679 149.95 118.914 149.599 117.684 149.511C117.279 149.476 117.077 149.326 117.077 149.062C117.077 148.904 117.147 148.781 117.288 148.693C117.446 148.605 118.246 148.553 119.688 148.535L124.223 148.456ZM124.012 160.189C124.012 163.406 124.091 165.463 124.249 166.359C124.407 167.256 124.97 168.091 125.937 168.864C126.921 169.638 128.204 170.024 129.786 170.024C131.931 170.024 133.653 169.11 134.954 167.282C136.255 165.437 136.905 163.187 136.905 160.532C136.905 157.509 136.237 155.092 134.901 153.281C133.583 151.453 131.966 150.539 130.05 150.539C128.187 150.539 126.71 151.312 125.62 152.859C124.548 154.406 124.012 156.85 124.012 160.189Z" fill="#19172E"/>
<path d="M148.981 158.687C148.911 159.583 148.876 160.295 148.876 160.822C148.876 163.318 149.605 165.428 151.064 167.15C152.541 168.873 154.36 169.734 156.522 169.734C158.632 169.734 160.592 168.891 162.402 167.203C162.93 166.729 163.264 166.491 163.404 166.491C163.686 166.491 163.835 166.72 163.853 167.177C163.185 168.407 162.042 169.444 160.425 170.288C158.808 171.132 157.006 171.554 155.02 171.554C152.102 171.554 149.632 170.508 147.61 168.416C145.589 166.307 144.578 163.644 144.578 160.427C144.578 156.981 145.686 154.107 147.9 151.805C150.133 149.502 152.515 148.351 155.046 148.351C157.419 148.351 159.563 149.256 161.479 151.066C163.396 152.859 164.354 154.969 164.354 157.395C164.354 157.764 164.292 158.036 164.169 158.212C164.063 158.388 163.396 158.476 162.165 158.476L148.981 158.687ZM148.981 157.315C151.267 157.421 153.481 157.474 155.626 157.474L157.023 157.395C158.078 157.359 158.887 157.157 159.449 156.788C160.012 156.401 160.293 155.733 160.293 154.784C160.293 153.308 159.783 152.024 158.764 150.935C157.762 149.827 156.575 149.273 155.204 149.273C153.938 149.273 152.673 149.906 151.407 151.172C150.159 152.42 149.351 154.468 148.981 157.315Z" fill="#19172E"/>
<path d="M175.059 154.336C176.166 152.367 177.344 150.891 178.592 149.906C179.857 148.922 181.185 148.43 182.573 148.43C183.54 148.43 184.375 148.781 185.078 149.484C185.781 150.17 186.133 150.952 186.133 151.831C186.133 153.501 185.421 154.336 183.997 154.336C183.329 154.336 182.767 153.87 182.31 152.938C181.747 151.761 181 151.172 180.068 151.172C179.189 151.172 178.284 151.664 177.353 152.648C176.421 153.633 175.797 154.714 175.48 155.892C175.164 157.052 175.006 159.495 175.006 163.222C175.006 166.632 175.146 168.592 175.428 169.102C175.709 169.594 176.43 169.91 177.59 170.051C177.906 170.086 178.064 170.209 178.064 170.42C178.064 170.789 177.651 170.974 176.825 170.974H168.414C167.816 170.974 167.518 170.824 167.518 170.525C167.518 170.244 167.913 170.086 168.704 170.051C169.812 169.98 170.497 169.638 170.761 169.022C171.024 168.407 171.156 166.14 171.156 162.22C171.156 156.472 171.033 153.018 170.787 151.857C170.559 150.697 169.68 150.082 168.15 150.012C167.518 149.977 167.201 149.81 167.201 149.511C167.201 149.353 167.263 149.238 167.386 149.168C167.526 149.08 168.335 148.992 169.812 148.904L174.663 148.641C174.786 149.59 174.918 151.488 175.059 154.336Z" fill="#19172E"/>
<path d="M209.178 151.356C211.129 149.37 213.379 148.377 215.928 148.377C218.758 148.377 221.148 149.467 223.1 151.646C225.068 153.826 226.053 156.384 226.053 159.319C226.053 162.501 225.077 165.322 223.126 167.783C221.175 170.244 218.6 171.475 215.4 171.475C212.658 171.475 210.364 170.789 208.519 169.418C207.921 168.979 207.508 168.759 207.279 168.759C206.84 168.759 206.497 169.137 206.251 169.893C206.04 170.578 205.812 170.921 205.565 170.921C205.267 170.921 205.117 170.684 205.117 170.209L205.144 169.128L205.486 146.057C205.486 141.908 205.469 139.491 205.434 138.806C205.398 138.12 205.223 137.602 204.906 137.25C204.607 136.898 204.036 136.582 203.192 136.301C202.788 136.178 202.586 136.002 202.586 135.773C202.586 135.492 202.814 135.369 203.271 135.404L207.938 135.378C208.378 135.466 208.729 135.554 208.993 135.642C209.274 135.712 209.415 135.949 209.415 136.354C209.415 136.529 209.397 136.925 209.362 137.54C209.239 139.755 209.178 144.36 209.178 151.356ZM208.835 162.853C208.835 164.681 208.984 166.025 209.283 166.887C209.6 167.748 210.25 168.548 211.234 169.286C212.236 170.007 213.458 170.367 214.899 170.367C216.763 170.367 218.354 169.462 219.672 167.651C221.008 165.841 221.676 163.38 221.676 160.269C221.676 156.981 221.061 154.406 219.83 152.543C218.617 150.662 216.947 149.722 214.82 149.722C212.939 149.722 211.472 150.478 210.417 151.989C209.362 153.501 208.835 157.122 208.835 162.853Z" fill="#19172E"/>
<path d="M234.042 135.457C234.71 135.457 235.308 135.703 235.835 136.195C236.362 136.688 236.626 137.224 236.626 137.804C236.626 138.489 236.406 139.078 235.967 139.57C235.545 140.062 234.956 140.309 234.2 140.309C233.532 140.309 232.935 140.098 232.407 139.676C231.88 139.236 231.616 138.647 231.616 137.909C231.616 137.188 231.836 136.6 232.275 136.143C232.732 135.686 233.321 135.457 234.042 135.457ZM236.969 148.351L236.942 154.283L236.995 159.82V163.986L236.969 167.15C236.969 168.416 237.171 169.225 237.575 169.576C237.997 169.91 238.621 170.095 239.447 170.13C240.414 170.183 240.897 170.385 240.897 170.736C240.897 171.018 240.713 171.158 240.344 171.158C240.203 171.158 240.045 171.149 239.869 171.132C238.234 170.921 236.714 170.815 235.308 170.815C233.058 170.815 231.502 170.886 230.641 171.026C230.465 171.062 230.289 171.079 230.113 171.079C229.691 171.079 229.48 170.921 229.48 170.604C229.48 170.288 229.973 170.068 230.957 169.945C231.941 169.822 232.565 169.611 232.829 169.312C233.11 168.996 233.251 168.117 233.251 166.676L233.409 155.76C233.409 152.842 233.189 151.119 232.75 150.592C232.311 150.047 231.458 149.757 230.192 149.722C229.771 149.722 229.56 149.581 229.56 149.3C229.56 149.142 229.63 149.019 229.771 148.931C229.911 148.843 230.957 148.729 232.908 148.588C234.859 148.447 236.213 148.368 236.969 148.351Z" fill="#19172E"/>
<path d="M251.26 134.877C251.312 137.092 251.356 139.307 251.392 141.521L251.339 157.948L251.444 165.911C251.444 167.423 251.655 168.513 252.077 169.181C252.517 169.849 253.448 170.244 254.872 170.367C255.435 170.42 255.716 170.587 255.716 170.868C255.716 171.167 255.487 171.316 255.03 171.316C254.907 171.316 254.758 171.308 254.582 171.29C252.771 171.097 250.609 171 248.096 171C246.566 171 245.336 171.07 244.404 171.211C244.211 171.229 244.035 171.237 243.877 171.237C243.35 171.237 243.086 171.079 243.086 170.763C243.086 170.464 243.323 170.306 243.798 170.288C245.397 170.271 246.443 169.813 246.936 168.917C247.445 168.003 247.7 166.482 247.7 164.355L247.621 149.326C247.604 144.492 247.533 141.609 247.41 140.678C247.305 139.729 246.944 138.938 246.329 138.305C245.714 137.672 244.853 137.268 243.745 137.092C243.06 136.986 242.717 136.802 242.717 136.538C242.717 136.239 242.998 136.072 243.561 136.037C246.777 135.826 249.194 135.439 250.812 134.877H251.26Z" fill="#19172E"/>
<path d="M266.447 134.877C266.5 137.092 266.544 139.307 266.579 141.521L266.526 157.948L266.632 165.911C266.632 167.423 266.843 168.513 267.265 169.181C267.704 169.849 268.636 170.244 270.06 170.367C270.622 170.42 270.903 170.587 270.903 170.868C270.903 171.167 270.675 171.316 270.218 171.316C270.095 171.316 269.945 171.308 269.77 171.29C267.959 171.097 265.797 171 263.283 171C261.754 171 260.523 171.07 259.592 171.211C259.398 171.229 259.223 171.237 259.064 171.237C258.537 171.237 258.273 171.079 258.273 170.763C258.273 170.464 258.511 170.306 258.985 170.288C260.585 170.271 261.631 169.813 262.123 168.917C262.633 168.003 262.888 166.482 262.888 164.355L262.809 149.326C262.791 144.492 262.721 141.609 262.598 140.678C262.492 139.729 262.132 138.938 261.517 138.305C260.901 137.672 260.04 137.268 258.933 137.092C258.247 136.986 257.904 136.802 257.904 136.538C257.904 136.239 258.186 136.072 258.748 136.037C261.965 135.826 264.382 135.439 265.999 134.877H266.447Z" fill="#19172E"/>
<path d="M290.969 164.013C290.969 166.052 290.213 167.81 288.701 169.286C287.189 170.745 285.396 171.475 283.322 171.475C282.092 171.475 280.624 171.079 278.919 170.288C277.987 169.866 277.434 169.655 277.258 169.655C276.959 169.655 276.695 169.84 276.467 170.209C276.186 170.701 275.922 170.947 275.676 170.947C275.465 170.947 275.333 170.701 275.28 170.209C275.228 169.699 275.192 168.557 275.175 166.781C275.157 165.252 275.131 164.268 275.096 163.828C275.096 163.178 275.263 162.853 275.597 162.853C275.79 162.853 275.939 163.02 276.045 163.354C276.73 165.357 277.688 167.062 278.919 168.469C280.167 169.857 281.626 170.552 283.296 170.552C284.474 170.552 285.52 170.191 286.434 169.471C287.348 168.732 287.805 167.739 287.805 166.491C287.805 164.558 286.126 162.844 282.769 161.35C280.466 160.312 278.928 159.557 278.154 159.082C277.381 158.607 276.774 157.966 276.335 157.157C275.896 156.349 275.676 155.47 275.676 154.521C275.676 152.71 276.361 151.198 277.732 149.985C279.104 148.755 280.765 148.14 282.716 148.14C284.157 148.14 285.739 148.588 287.462 149.484C287.743 149.625 287.989 149.695 288.2 149.695C288.376 149.695 288.569 149.555 288.78 149.273C288.991 149.01 289.158 148.878 289.281 148.878C289.439 148.878 289.562 148.948 289.65 149.089C289.738 149.212 289.835 149.985 289.94 151.409C290.046 152.815 290.099 153.976 290.099 154.89C290.099 155.452 289.949 155.733 289.65 155.733C289.387 155.733 289.176 155.479 289.018 154.969C288.877 154.494 288.455 153.589 287.752 152.253C287.049 150.917 286.275 150.064 285.432 149.695C284.605 149.326 283.788 149.142 282.979 149.142C281.714 149.142 280.677 149.449 279.868 150.064C279.06 150.68 278.655 151.479 278.655 152.464C278.655 153.079 278.822 153.633 279.156 154.125C279.49 154.617 279.798 154.986 280.079 155.232C280.378 155.479 282.057 156.287 285.115 157.658C287.014 158.52 288.262 159.188 288.859 159.662C289.457 160.119 289.958 160.743 290.362 161.534C290.767 162.325 290.969 163.151 290.969 164.013Z" fill="#19172E"/>
<path d="M322.451 167.625C321.59 168.873 320.562 169.813 319.366 170.446C318.171 171.062 316.817 171.369 315.306 171.369C313.53 171.369 312.133 170.895 311.113 169.945C310.111 168.996 309.61 167.748 309.61 166.201C309.61 165.041 309.909 163.96 310.507 162.958C311.122 161.956 311.816 161.235 312.59 160.796C313.381 160.356 314.761 159.803 316.729 159.135C319.542 158.203 321.229 157.43 321.792 156.814C322.354 156.199 322.636 155.399 322.636 154.415C322.636 152.851 322.267 151.638 321.528 150.776C320.79 149.897 319.744 149.458 318.391 149.458C317.283 149.458 316.448 149.704 315.886 150.196C315.323 150.706 314.893 151.699 314.594 153.176C314.277 154.793 313.583 155.602 312.511 155.602C312.124 155.602 311.693 155.408 311.219 155.021C310.762 154.635 310.533 154.063 310.533 153.308C310.533 151.989 311.263 150.847 312.722 149.88C314.181 148.896 316.185 148.403 318.733 148.403C320.755 148.403 322.363 148.693 323.559 149.273C324.771 149.836 325.527 150.486 325.826 151.225C326.143 151.963 326.301 153.387 326.301 155.496L326.143 162.457C326.143 165.146 326.301 167.062 326.617 168.205C326.951 169.33 327.558 169.893 328.437 169.893C328.612 169.893 328.858 169.866 329.175 169.813L329.623 169.761C330.027 169.761 330.229 169.91 330.229 170.209C330.229 170.895 328.498 171.237 325.035 171.237C324.033 171.237 323.356 171.009 323.005 170.552C322.671 170.077 322.486 169.102 322.451 167.625ZM322.451 157.342C321.924 158.027 320.729 158.862 318.865 159.847C317.02 160.796 315.692 161.701 314.884 162.562C314.075 163.441 313.671 164.496 313.671 165.727C313.671 166.834 313.996 167.774 314.646 168.548C315.314 169.321 316.141 169.708 317.125 169.708C318.145 169.708 319.103 169.4 319.999 168.785C320.896 168.152 321.555 167.353 321.977 166.386C322.416 165.419 322.636 163.986 322.636 162.088C322.636 160.664 322.574 159.082 322.451 157.342Z" fill="#19172E"/>
<path d="M339.142 148.43C339.563 149.467 339.818 151.216 339.906 153.677C340.996 151.954 342.2 150.662 343.519 149.801C344.854 148.939 346.305 148.509 347.869 148.509C349.064 148.509 350.216 148.737 351.323 149.194C352.448 149.634 353.31 150.407 353.907 151.515C354.522 152.604 354.83 154.468 354.83 157.104L354.672 165.99C354.672 167.625 354.804 168.653 355.067 169.075C355.349 169.479 355.938 169.805 356.834 170.051C357.449 170.227 357.757 170.42 357.757 170.631C357.757 170.895 357.607 171.026 357.309 171.026C357.186 171.026 357.062 171.018 356.939 171C356.131 170.824 354.936 170.736 353.354 170.736C351.93 170.736 350.4 170.798 348.766 170.921C348.115 170.921 347.79 170.771 347.79 170.473C347.79 170.262 347.966 170.121 348.317 170.051C349.284 169.84 349.917 169.62 350.216 169.392C350.515 169.163 350.726 168.864 350.849 168.495C350.972 168.108 351.068 166.834 351.139 164.672C351.227 162.51 351.271 160.752 351.271 159.398C351.271 155.689 350.805 153.22 349.873 151.989C348.941 150.759 347.781 150.144 346.393 150.144C344.336 150.144 342.622 151.26 341.251 153.492C339.897 155.707 339.221 159.407 339.221 164.593C339.221 166.948 339.37 168.451 339.669 169.102C339.985 169.734 340.759 170.121 341.989 170.262C342.376 170.297 342.569 170.464 342.569 170.763C342.569 171.009 342.376 171.132 341.989 171.132L340.618 171.026C340.126 170.991 338.5 170.974 335.74 170.974L333.631 171.026C332.857 171.026 332.471 170.886 332.471 170.604C332.471 170.306 332.893 170.077 333.736 169.919C334.545 169.761 335.09 169.488 335.371 169.102C335.652 168.697 335.837 167.379 335.925 165.146C336.03 162.914 336.083 160.128 336.083 156.788C336.083 153.677 335.872 151.743 335.45 150.987C335.028 150.231 334.439 149.766 333.684 149.59C332.998 149.432 332.655 149.212 332.655 148.931C332.655 148.632 332.919 148.482 333.446 148.482L335.582 148.509C335.811 148.509 336.997 148.482 339.142 148.43Z" fill="#19172E"/>
<path d="M382.067 134.903C382.085 138.665 382.094 143.745 382.094 150.144L381.883 166.887C381.883 168.732 382.735 169.805 384.44 170.104C385.003 170.209 385.284 170.394 385.284 170.657C385.284 170.868 385.179 171 384.968 171.053C384.774 171.105 383.614 171.132 381.487 171.132C380.397 171.114 379.316 171.097 378.244 171.079C378.191 170.007 378.165 169.233 378.165 168.759C378.165 168.161 378.191 167.309 378.244 166.201C377.295 167.959 376.214 169.277 375.001 170.156C373.788 171.035 372.443 171.475 370.967 171.475C368.875 171.475 366.748 170.49 364.586 168.521C362.441 166.553 361.369 163.898 361.369 160.559C361.369 157.307 362.371 154.485 364.375 152.095C366.396 149.704 368.875 148.509 371.811 148.509C373.287 148.509 374.562 148.825 375.634 149.458C376.706 150.073 377.576 151.014 378.244 152.279C378.35 150.205 378.402 148.254 378.402 146.426C378.402 140.818 378.262 137.707 377.98 137.092C377.699 136.477 377.04 136.107 376.003 135.984C375.353 135.896 375.027 135.729 375.027 135.483C375.027 135.185 375.44 135.035 376.267 135.035L382.067 134.903ZM378.35 158.528C378.35 155.54 377.84 153.308 376.82 151.831C375.818 150.337 374.298 149.59 372.259 149.59C370.132 149.59 368.532 150.46 367.46 152.2C366.388 153.923 365.852 156.516 365.852 159.979C365.852 163.477 366.484 165.981 367.75 167.493C369.033 169.005 370.422 169.761 371.916 169.761C373.41 169.761 374.852 168.97 376.24 167.388C377.646 165.788 378.35 162.835 378.35 158.528Z" fill="#19172E"/>
<path d="M407.828 134.218C408.391 134.218 408.909 134.438 409.384 134.877C409.858 135.299 410.096 135.835 410.096 136.485C410.096 137.118 409.858 137.646 409.384 138.067C408.909 138.472 408.391 138.674 407.828 138.674C407.266 138.674 406.756 138.472 406.299 138.067C405.842 137.646 405.613 137.109 405.613 136.459C405.613 135.879 405.807 135.36 406.193 134.903C406.58 134.446 407.125 134.218 407.828 134.218ZM410.386 148.351C410.28 155.874 410.228 160.277 410.228 161.561C410.228 168.908 410.131 173.786 409.938 176.194C409.762 178.62 408.874 180.694 407.274 182.417C405.675 184.157 403.732 185.027 401.447 185.027C400.146 185.027 399.004 184.667 398.02 183.946C397.018 183.226 396.517 182.197 396.517 180.861C396.517 180.088 396.745 179.464 397.202 178.989C397.659 178.532 398.151 178.304 398.679 178.304C399.224 178.304 399.689 178.479 400.076 178.831C400.445 179.183 400.63 179.666 400.63 180.281C400.63 180.58 400.516 181.028 400.287 181.626C400.146 182.013 400.076 182.347 400.076 182.628C400.076 183.085 400.234 183.428 400.551 183.656C400.867 183.902 401.333 184.025 401.948 184.025C403.003 184.025 403.952 183.656 404.796 182.918C405.64 182.18 406.158 181.274 406.352 180.202C406.545 179.13 406.65 176.01 406.668 170.842L406.721 154.573C406.721 152.429 406.58 151.066 406.299 150.486C406.035 149.906 405.341 149.616 404.216 149.616C404.022 149.616 403.82 149.625 403.609 149.643C402.854 149.643 402.476 149.467 402.476 149.115C402.476 148.781 402.985 148.605 404.005 148.588C406.29 148.553 408.417 148.474 410.386 148.351Z" fill="#19172E"/>
<path d="M416.978 159.979C416.978 156.885 418.094 154.16 420.326 151.805C422.559 149.449 425.301 148.271 428.553 148.271C431.611 148.271 434.239 149.326 436.437 151.436C438.651 153.545 439.759 156.182 439.759 159.346C439.759 162.545 438.599 165.357 436.278 167.783C433.958 170.191 431.251 171.396 428.157 171.396C425.099 171.396 422.471 170.288 420.273 168.073C418.076 165.841 416.978 163.143 416.978 159.979ZM421.249 159.82C421.249 162.844 421.943 165.357 423.332 167.361C424.738 169.365 426.47 170.367 428.526 170.367C430.407 170.367 432.06 169.427 433.483 167.546C434.925 165.665 435.646 163.169 435.646 160.058C435.646 157.28 434.951 154.811 433.562 152.648C432.191 150.469 430.407 149.379 428.21 149.379C426.171 149.379 424.501 150.372 423.2 152.358C421.899 154.327 421.249 156.814 421.249 159.82Z" fill="#19172E"/>
<path d="M447.933 135.457C448.601 135.457 449.198 135.703 449.726 136.195C450.253 136.688 450.517 137.224 450.517 137.804C450.517 138.489 450.297 139.078 449.857 139.57C449.436 140.062 448.847 140.309 448.091 140.309C447.423 140.309 446.825 140.098 446.298 139.676C445.771 139.236 445.507 138.647 445.507 137.909C445.507 137.188 445.727 136.6 446.166 136.143C446.623 135.686 447.212 135.457 447.933 135.457ZM450.859 148.351L450.833 154.283L450.886 159.82V163.986L450.859 167.15C450.859 168.416 451.062 169.225 451.466 169.576C451.888 169.91 452.512 170.095 453.338 170.13C454.305 170.183 454.788 170.385 454.788 170.736C454.788 171.018 454.604 171.158 454.234 171.158C454.094 171.158 453.936 171.149 453.76 171.132C452.125 170.921 450.604 170.815 449.198 170.815C446.948 170.815 445.393 170.886 444.531 171.026C444.355 171.062 444.18 171.079 444.004 171.079C443.582 171.079 443.371 170.921 443.371 170.604C443.371 170.288 443.863 170.068 444.848 169.945C445.832 169.822 446.456 169.611 446.72 169.312C447.001 168.996 447.142 168.117 447.142 166.676L447.3 155.76C447.3 152.842 447.08 151.119 446.641 150.592C446.201 150.047 445.349 149.757 444.083 149.722C443.661 149.722 443.45 149.581 443.45 149.3C443.45 149.142 443.521 149.019 443.661 148.931C443.802 148.843 444.848 148.729 446.799 148.588C448.75 148.447 450.104 148.368 450.859 148.351Z" fill="#19172E"/>
<path d="M464.122 148.43C464.544 149.467 464.799 151.216 464.887 153.677C465.977 151.954 467.181 150.662 468.499 149.801C469.835 148.939 471.285 148.509 472.85 148.509C474.045 148.509 475.196 148.737 476.304 149.194C477.429 149.634 478.29 150.407 478.888 151.515C479.503 152.604 479.811 154.468 479.811 157.104L479.652 165.99C479.652 167.625 479.784 168.653 480.048 169.075C480.329 169.479 480.918 169.805 481.814 170.051C482.43 170.227 482.737 170.42 482.737 170.631C482.737 170.895 482.588 171.026 482.289 171.026C482.166 171.026 482.043 171.018 481.92 171C481.111 170.824 479.916 170.736 478.334 170.736C476.91 170.736 475.381 170.798 473.746 170.921C473.096 170.921 472.771 170.771 472.771 170.473C472.771 170.262 472.946 170.121 473.298 170.051C474.265 169.84 474.897 169.62 475.196 169.392C475.495 169.163 475.706 168.864 475.829 168.495C475.952 168.108 476.049 166.834 476.119 164.672C476.207 162.51 476.251 160.752 476.251 159.398C476.251 155.689 475.785 153.22 474.854 151.989C473.922 150.759 472.762 150.144 471.373 150.144C469.316 150.144 467.603 151.26 466.231 153.492C464.878 155.707 464.201 159.407 464.201 164.593C464.201 166.948 464.351 168.451 464.649 169.102C464.966 169.734 465.739 170.121 466.97 170.262C467.356 170.297 467.55 170.464 467.55 170.763C467.55 171.009 467.356 171.132 466.97 171.132L465.599 171.026C465.106 170.991 463.48 170.974 460.721 170.974L458.611 171.026C457.838 171.026 457.451 170.886 457.451 170.604C457.451 170.306 457.873 170.077 458.717 169.919C459.525 169.761 460.07 169.488 460.352 169.102C460.633 168.697 460.817 167.379 460.905 165.146C461.011 162.914 461.063 160.128 461.063 156.788C461.063 153.677 460.853 151.743 460.431 150.987C460.009 150.231 459.42 149.766 458.664 149.59C457.979 149.432 457.636 149.212 457.636 148.931C457.636 148.632 457.899 148.482 458.427 148.482L460.562 148.509C460.791 148.509 461.978 148.482 464.122 148.43Z" fill="#19172E"/>
<path d="M507.997 150.776C507.751 154.661 507.628 158.476 507.628 162.22C507.628 165.103 507.971 166.983 508.656 167.862C509.342 168.741 510.326 169.181 511.609 169.181C512.541 169.181 513.569 168.838 514.694 168.152C515.099 167.906 515.345 167.783 515.433 167.783C515.661 167.783 515.775 167.906 515.775 168.152C515.775 168.574 515.151 169.242 513.903 170.156C512.655 171.07 511.126 171.527 509.315 171.527C507.522 171.527 506.178 170.903 505.281 169.655C504.385 168.407 503.937 166.544 503.937 164.065C503.937 161.481 504.095 157.052 504.411 150.776C504.288 150.741 503.453 150.68 501.906 150.592L500.324 150.486C499.938 150.469 499.744 150.337 499.744 150.091C499.744 149.862 499.964 149.678 500.403 149.537C501.124 149.273 502.337 148.5 504.042 147.217C505.747 145.934 506.74 144.123 507.021 141.785C507.092 141.17 507.285 140.862 507.602 140.862C507.918 140.862 508.076 141.108 508.076 141.601C508.076 141.759 508.067 141.926 508.05 142.102C507.997 142.787 507.971 143.578 507.971 144.475L507.997 148.588L513.771 148.509C514.756 148.509 515.266 148.623 515.301 148.852C515.283 149.66 515.151 150.17 514.905 150.381C513.991 150.381 511.688 150.513 507.997 150.776Z" fill="#19172E"/>
<path d="M525.215 152.279C527.342 149.66 529.864 148.351 532.782 148.351C535.103 148.351 536.878 149.01 538.108 150.328C539.356 151.646 539.98 153.993 539.98 157.368L539.822 164.355C539.822 166.588 539.849 167.941 539.901 168.416C539.954 168.891 540.2 169.304 540.64 169.655C541.097 170.007 541.545 170.191 541.984 170.209C542.459 170.209 542.696 170.314 542.696 170.525C542.696 170.842 542.31 171 541.536 171H533.731C533.433 170.93 533.283 170.78 533.283 170.552C533.283 170.306 533.485 170.156 533.89 170.104C535.138 169.945 535.876 169.462 536.104 168.653C536.333 167.827 536.447 165.226 536.447 160.849C536.447 156.138 535.973 153.105 535.023 151.752C534.092 150.381 532.853 149.695 531.306 149.695C529.794 149.695 528.458 150.275 527.298 151.436C526.155 152.578 525.479 154.266 525.268 156.498C525.057 158.73 524.951 161.455 524.951 164.672C524.951 166.852 525.065 168.275 525.294 168.943C525.522 169.611 526.173 170.051 527.245 170.262C527.685 170.332 527.904 170.49 527.904 170.736C527.904 171.018 527.693 171.158 527.271 171.158L521.945 171.053C520.803 171.053 519.81 171.079 518.966 171.132C518.438 171.132 518.175 170.991 518.175 170.71C518.175 170.464 518.386 170.314 518.808 170.262C519.651 170.156 520.223 169.919 520.521 169.55C520.82 169.181 521.075 167.766 521.286 165.305C521.497 162.826 521.603 159.662 521.603 155.812C521.603 148.939 521.567 144.439 521.497 142.312C521.444 140.168 521.137 138.621 520.574 137.672C520.012 136.705 519.326 136.143 518.518 135.984C518.025 135.879 517.779 135.703 517.779 135.457C517.779 135.316 517.832 135.237 517.938 135.22C518.061 135.185 518.632 135.167 519.651 135.167C521.374 135.167 523.229 135.105 525.215 134.982L525.136 148.113C525.136 149.783 525.162 151.172 525.215 152.279Z" fill="#19172E"/>
<path d="M550.87 158.687C550.8 159.583 550.765 160.295 550.765 160.822C550.765 163.318 551.494 165.428 552.953 167.15C554.43 168.873 556.249 169.734 558.411 169.734C560.521 169.734 562.48 168.891 564.291 167.203C564.818 166.729 565.152 166.491 565.293 166.491C565.574 166.491 565.724 166.72 565.741 167.177C565.073 168.407 563.931 169.444 562.313 170.288C560.696 171.132 558.895 171.554 556.908 171.554C553.99 171.554 551.521 170.508 549.499 168.416C547.478 166.307 546.467 163.644 546.467 160.427C546.467 156.981 547.574 154.107 549.789 151.805C552.021 149.502 554.403 148.351 556.935 148.351C559.308 148.351 561.452 149.256 563.368 151.066C565.284 152.859 566.242 154.969 566.242 157.395C566.242 157.764 566.181 158.036 566.058 158.212C565.952 158.388 565.284 158.476 564.054 158.476L550.87 158.687ZM550.87 157.315C553.155 157.421 555.37 157.474 557.515 157.474L558.912 157.395C559.967 157.359 560.775 157.157 561.338 156.788C561.9 156.401 562.182 155.733 562.182 154.784C562.182 153.308 561.672 152.024 560.652 150.935C559.65 149.827 558.464 149.273 557.093 149.273C555.827 149.273 554.562 149.906 553.296 151.172C552.048 152.42 551.239 154.468 550.87 157.315Z" fill="#19172E"/>
<path d="M28.9922 72.4023C29.3789 72.0156 29.6367 71.6146 29.7656 71.1992C29.8802 70.8555 30.0449 70.6836 30.2598 70.6836C30.3743 70.6836 30.5033 70.7552 30.6465 70.8984C30.7467 71.4141 30.89 72.4525 31.0762 74.0137L31.5918 78.0527C31.5918 78.3105 31.4342 78.4395 31.1191 78.4395C30.9473 78.4395 30.7969 78.2962 30.668 78.0098C29.9089 76.1335 28.7845 74.5723 27.2949 73.3262C25.8053 72.0944 24.1797 71.4785 22.418 71.4785C20.6849 71.4785 19.3743 72.0013 18.4863 73.0469C17.6126 74.0924 17.1758 75.2025 17.1758 76.377C17.1758 77.8092 17.6556 78.9049 18.6152 79.6641C19.5749 80.4232 21.5514 81.2826 24.5449 82.2422C26.7507 82.9297 28.3978 83.5957 29.4863 84.2402C30.5892 84.8848 31.513 85.7871 32.2578 86.9473C33.0026 88.1074 33.375 89.3535 33.375 90.6855C33.375 92.9486 32.4368 94.9753 30.5605 96.7656C28.6842 98.556 26.3854 99.4512 23.6641 99.4512C21.2148 99.4512 18.7513 98.6849 16.2734 97.1523C15.7865 97.5534 15.4714 98.026 15.3281 98.5703C15.2135 99.0286 15.0273 99.2578 14.7695 99.2578C14.5404 99.2578 14.3757 98.9642 14.2754 98.377C14.1751 97.7897 13.9674 95.0111 13.6523 90.041C13.7096 89.8691 13.86 89.7832 14.1035 89.7832C14.3184 89.7832 14.4902 89.9408 14.6191 90.2559C16.8249 95.7988 19.9043 98.5703 23.8574 98.5703C25.8197 98.5703 27.3522 97.9831 28.4551 96.8086C29.5723 95.6198 30.1309 94.2591 30.1309 92.7266C30.1309 91.6667 29.8301 90.6927 29.2285 89.8047C28.6413 88.9167 27.8535 88.2005 26.8652 87.6562C25.8913 87.112 24.3444 86.5033 22.2246 85.8301C19.5033 84.9564 17.6484 84.1328 16.6602 83.3594C15.6862 82.5716 14.9701 81.6908 14.5117 80.7168C14.0534 79.7285 13.8242 78.776 13.8242 77.8594C13.8242 75.9544 14.6836 74.2643 16.4023 72.7891C18.1354 71.3138 20.2552 70.5762 22.7617 70.5762C23.707 70.5762 24.6953 70.7266 25.7266 71.0273C26.7721 71.3281 27.8607 71.7865 28.9922 72.4023Z" fill="#19172E"/>
<path d="M47.3613 96.25C46.6595 97.2669 45.8216 98.0332 44.8477 98.5488C43.8737 99.0501 42.7708 99.3008 41.5391 99.3008C40.0924 99.3008 38.9538 98.9141 38.123 98.1406C37.3066 97.3672 36.8984 96.3503 36.8984 95.0898C36.8984 94.1445 37.1419 93.2637 37.6289 92.4473C38.1302 91.6309 38.696 91.0436 39.3262 90.6855C39.9707 90.3275 41.0951 89.8763 42.6992 89.332C44.9909 88.5729 46.3659 87.9427 46.8242 87.4414C47.2826 86.9401 47.5117 86.2884 47.5117 85.4863C47.5117 84.2116 47.2109 83.2233 46.6094 82.5215C46.0078 81.8053 45.1556 81.4473 44.0527 81.4473C43.1504 81.4473 42.4701 81.6478 42.0117 82.0488C41.5534 82.4642 41.2025 83.2734 40.959 84.4766C40.7012 85.7943 40.1354 86.4531 39.2617 86.4531C38.9466 86.4531 38.5957 86.2956 38.209 85.9805C37.8366 85.6654 37.6504 85.1999 37.6504 84.584C37.6504 83.5098 38.2448 82.5788 39.4336 81.791C40.6224 80.9889 42.2552 80.5879 44.332 80.5879C45.9792 80.5879 47.2897 80.8242 48.2637 81.2969C49.252 81.7552 49.8678 82.2852 50.1113 82.8867C50.3691 83.4883 50.498 84.6484 50.498 86.3672L50.3691 92.0391C50.3691 94.2305 50.498 95.7917 50.7559 96.7227C51.028 97.6393 51.5221 98.0977 52.2383 98.0977C52.3815 98.0977 52.582 98.0762 52.8398 98.0332L53.2051 97.9902C53.5345 97.9902 53.6992 98.112 53.6992 98.3555C53.6992 98.9141 52.2884 99.1934 49.4668 99.1934C48.6504 99.1934 48.099 99.0072 47.8125 98.6348C47.5404 98.248 47.39 97.4531 47.3613 96.25ZM47.3613 87.8711C46.9316 88.4297 45.9577 89.11 44.4395 89.9121C42.9355 90.6855 41.8542 91.4232 41.1953 92.125C40.5365 92.8411 40.207 93.7005 40.207 94.7031C40.207 95.6055 40.472 96.3717 41.002 97.002C41.5462 97.6322 42.2194 97.9473 43.0215 97.9473C43.8522 97.9473 44.6328 97.6966 45.3633 97.1953C46.0938 96.6797 46.6309 96.028 46.9746 95.2402C47.3327 94.4525 47.5117 93.2852 47.5117 91.7383C47.5117 90.5781 47.4616 89.2891 47.3613 87.8711Z" fill="#19172E"/>
<path d="M65.6445 95.8418C67.2057 91.6022 68.2083 88.7233 68.6523 87.2051C69.0964 85.6725 69.3184 84.4479 69.3184 83.5312C69.3184 82.3424 68.5736 81.6836 67.084 81.5547C66.6686 81.5117 66.4609 81.3685 66.4609 81.125C66.4609 80.8958 66.6257 80.7812 66.9551 80.7812C67.0697 80.7812 67.4564 80.8027 68.1152 80.8457C68.373 80.86 68.8242 80.8672 69.4688 80.8672C71.3737 80.8672 72.6484 80.8385 73.293 80.7812C73.5794 80.7526 73.7799 80.7383 73.8945 80.7383C74.2526 80.7383 74.4316 80.86 74.4316 81.1035C74.4316 81.3184 74.2383 81.4688 73.8516 81.5547C72.7057 81.8125 71.7962 82.6504 71.123 84.0684C70.4642 85.472 69.2611 88.7448 67.5137 93.8867C65.8092 98.9141 64.4342 102.538 63.3887 104.758C62.3574 106.992 61.276 108.532 60.1445 109.377C59.0273 110.236 57.9245 110.666 56.8359 110.666C55.7188 110.666 54.8307 110.344 54.1719 109.699C53.5273 109.055 53.2051 108.396 53.2051 107.723C53.2051 107.178 53.4199 106.699 53.8496 106.283C54.2936 105.868 54.7448 105.66 55.2031 105.66C56.3776 105.66 57.015 106.247 57.1152 107.422C57.1725 108.21 57.5234 108.604 58.168 108.604C59.1992 108.604 60.3451 107.522 61.6055 105.359C62.8802 103.197 63.5176 101.507 63.5176 100.289C63.5176 99.3294 63.0234 97.6393 62.0352 95.2188C61.0612 92.7982 59.9727 90.1842 58.7695 87.377C57.5664 84.5553 56.7428 82.901 56.2988 82.4141C55.8691 81.9128 55.3965 81.6263 54.8809 81.5547C54.4082 81.4974 54.1719 81.3542 54.1719 81.125C54.1719 80.8529 54.3438 80.7168 54.6875 80.7168C54.8307 80.7168 54.9954 80.7311 55.1816 80.7598C56.0124 80.86 56.9648 80.9102 58.0391 80.9102C60.3307 80.9102 61.7272 80.86 62.2285 80.7598C62.5293 80.7025 62.737 80.6738 62.8516 80.6738C63.2096 80.6738 63.3887 80.8099 63.3887 81.082C63.3887 81.3112 63.0736 81.5046 62.4434 81.6621C61.3118 81.9629 60.7461 82.5072 60.7461 83.2949C60.7461 83.9681 62.3789 88.1504 65.6445 95.8418Z" fill="#19172E"/>
<path d="M166.301 88.9053C154.092 92.9443 143.833 94.9639 135.526 94.9639C124.281 94.9639 114.849 91.4985 107.229 84.5679C99.6104 77.5913 95.8008 67.9756 95.8008 55.7207C95.8008 47.0918 98.0039 38.7153 102.41 30.5913C106.816 22.4214 113.173 15.6514 121.481 10.2812C129.789 4.91113 139.267 2.22607 149.915 2.22607C158.636 2.22607 167.976 4.86523 177.936 10.1436C179.038 10.7402 179.91 11.0386 180.552 11.0386C181.424 11.0386 182.411 10.4189 183.513 9.17969C184.431 8.07812 185.165 7.52734 185.716 7.52734C186.496 7.52734 186.886 7.94043 186.886 8.7666C186.886 9.04199 185.945 12.8516 184.063 20.1953L181.172 32.519C180.988 33.5747 180.621 34.1025 180.07 34.1025C179.428 34.1025 178.969 33.8271 178.693 33.2764C178.418 32.6797 178.143 31.1421 177.867 28.6636C177.179 22.6968 174.448 17.3037 169.674 12.4844C164.947 7.61914 158.819 5.18652 151.292 5.18652C144.132 5.18652 137.316 7.89453 130.844 13.3105C124.373 18.6807 119.416 25.8638 115.973 34.8599C112.577 43.8101 110.878 51.7275 110.878 58.6123C110.878 67.6543 113.472 75.5259 118.658 82.2271C123.845 88.8823 129.949 92.21 136.972 92.21C140.873 92.21 144.522 91.3149 147.918 89.5249C151.361 87.7349 153.954 84.5908 155.698 80.0928C157.442 75.5947 158.314 70.5918 158.314 65.084C158.314 61.5039 157.442 59.0483 155.698 57.7173C154 56.3862 151.108 55.4453 147.023 54.8945C145.968 54.7568 145.44 54.3208 145.44 53.5864C145.44 52.8062 145.968 52.416 147.023 52.416C148.125 52.416 149.846 52.5078 152.187 52.6914C154.115 52.875 157.098 52.9668 161.137 52.9668L179.657 53.1733C182.641 53.1733 184.637 53.2881 185.647 53.5176C186.657 53.7012 187.162 54.1372 187.162 54.8257C187.162 55.5601 186.129 55.9961 184.063 56.1338C179.336 56.501 176.261 58.0615 174.838 60.8154C173.461 63.5693 170.615 72.9326 166.301 88.9053Z" fill="#19172E"/>
<path d="M224.89 35.2729C230.995 35.2729 235.791 37.6138 239.279 42.2954C242.768 46.9771 244.512 52.5078 244.512 58.8877C244.512 67.8379 241.368 76.1914 235.08 83.9482C228.792 91.6592 221.287 95.5146 212.566 95.5146C206.141 95.5146 201.505 93.1509 198.659 88.4233C195.813 83.6958 194.391 78.7388 194.391 73.5522C194.391 66.7134 196.158 60.0811 199.692 53.6553C203.226 47.2295 207.334 42.5708 212.016 39.6792C216.697 36.7417 220.989 35.2729 224.89 35.2729ZM226.198 38.0957C223.628 38.0957 220.782 39.5874 217.661 42.5708C214.586 45.5542 211.534 50.9243 208.504 58.6812C205.521 66.438 204.029 73.7129 204.029 80.5059C204.029 83.8105 204.787 86.6562 206.301 89.043C207.816 91.4297 209.858 92.623 212.429 92.623C215.32 92.623 218.441 90.9019 221.792 87.4595C225.188 84.0171 228.31 78.6929 231.155 71.4868C234.001 64.2808 235.424 57.4419 235.424 50.9702C235.424 46.6558 234.644 43.4429 233.083 41.3315C231.568 39.1743 229.273 38.0957 226.198 38.0957Z" fill="#19172E"/>
<path d="M283.686 35.2729C289.791 35.2729 294.587 37.6138 298.075 42.2954C301.563 46.9771 303.308 52.5078 303.308 58.8877C303.308 67.8379 300.164 76.1914 293.875 83.9482C287.587 91.6592 280.083 95.5146 271.362 95.5146C264.937 95.5146 260.301 93.1509 257.455 88.4233C254.609 83.6958 253.187 78.7388 253.187 73.5522C253.187 66.7134 254.954 60.0811 258.488 53.6553C262.022 47.2295 266.13 42.5708 270.812 39.6792C275.493 36.7417 279.785 35.2729 283.686 35.2729ZM284.994 38.0957C282.424 38.0957 279.578 39.5874 276.457 42.5708C273.382 45.5542 270.33 50.9243 267.3 58.6812C264.317 66.438 262.825 73.7129 262.825 80.5059C262.825 83.8105 263.583 86.6562 265.097 89.043C266.612 91.4297 268.654 92.623 271.225 92.623C274.116 92.623 277.237 90.9019 280.588 87.4595C283.984 84.0171 287.105 78.6929 289.951 71.4868C292.797 64.2808 294.22 57.4419 294.22 50.9702C294.22 46.6558 293.439 43.4429 291.879 41.3315C290.364 39.1743 288.069 38.0957 284.994 38.0957Z" fill="#19172E"/>
<path d="M381.174 1.33105C379.889 5.64551 376.699 15.1694 371.604 29.9028C360.359 62.4907 354.737 81.2632 354.737 86.2202C354.737 87.0464 354.92 87.689 355.288 88.1479C355.655 88.561 356.206 88.7676 356.94 88.7676C359.923 88.7676 364.192 85.2104 369.746 78.0962C370.48 77.0864 371.077 76.5815 371.536 76.5815C371.765 76.5815 372.041 76.7651 372.362 77.1323C372.729 77.4995 372.913 77.7979 372.913 78.0273C372.913 78.4863 371.627 80.2993 369.057 83.4663C366.487 86.6333 363.503 89.3643 360.107 91.6592C356.71 93.9082 353.957 95.0327 351.845 95.0327C350.331 95.0327 348.954 94.2065 347.714 92.5542C346.521 90.856 345.924 88.7446 345.924 86.2202C345.924 84.9351 346.039 83.1221 346.269 80.7812C338.236 90.4199 330.755 95.2393 323.824 95.2393C319.785 95.2393 316.733 94.1377 314.667 91.9346C312.648 89.6855 311.638 86.335 311.638 81.8828C311.638 72.0605 315.792 62.3301 324.1 52.6914C332.407 43.0068 341.013 38.1646 349.917 38.1646C351.478 38.1646 353.039 38.3022 354.599 38.5776C356.206 38.8071 357.812 39.1973 359.418 39.748L368.231 14.0679C369.195 11.4058 369.677 9.17969 369.677 7.38965C369.677 6.10449 368.942 5.14062 367.474 4.49805C366.005 3.80957 363.549 3.21289 360.107 2.70801C359.051 2.57031 358.523 2.13428 358.523 1.3999C358.523 0.57373 358.959 0.160645 359.832 0.160645C360.704 0.160645 361.805 0.229492 363.136 0.367188C367.818 0.87207 373.831 1.19336 381.174 1.33105ZM348.678 40.9185C343.308 40.9185 337.456 45.3018 331.122 54.0684C324.788 62.835 321.621 71.3721 321.621 79.6797C321.621 82.6631 322.195 85.3252 323.342 87.666C324.536 90.0068 326.05 91.1772 327.886 91.1772C330.594 91.1772 334.197 89.02 338.695 84.7056C343.239 80.3911 347.187 74.4702 350.537 66.9429C353.888 59.4155 355.563 53.0127 355.563 47.7344C355.563 45.8525 354.966 44.2461 353.773 42.915C352.625 41.584 350.927 40.9185 348.678 40.9185Z" fill="#19172E"/>
<path d="M436.252 46.8394C443.917 48.8589 449.655 51.7505 453.464 55.5142C457.32 59.2778 459.248 63.9136 459.248 69.4214C459.248 73.7358 457.848 78.0273 455.048 82.2959C452.294 86.5186 448.393 89.6396 443.344 91.6592C438.341 93.6787 430.423 94.6885 419.591 94.6885C415.506 94.6885 410.343 94.5278 404.101 94.2065C400.842 94.0688 398.226 94 396.252 94L372.5 94.8262C371.123 94.8262 370.434 94.3672 370.434 93.4492C370.434 92.8066 371.054 92.4395 372.293 92.3477C377.801 91.9805 381.564 91.0625 383.584 89.5938C385.649 88.0791 387.462 85.3252 389.023 81.332C390.629 77.3389 393.911 66.1167 398.868 47.6655C403.871 29.1685 406.373 17.5103 406.373 12.6909C406.373 10.855 405.271 9.36328 403.068 8.21582C400.865 7.02246 398.432 6.31104 395.77 6.08154C394.209 5.89795 393.429 5.39307 393.429 4.56689C393.429 3.83252 393.934 3.46533 394.944 3.46533C395.173 3.46533 395.472 3.48828 395.839 3.53418C404.56 4.49805 413.005 4.97998 421.175 4.97998L438.18 4.77344C445.57 4.77344 451.605 6.51758 456.287 10.0059C460.923 13.4941 463.241 18.1987 463.241 24.1196C463.241 30.1323 460.992 35.0435 456.494 38.853C451.996 42.6167 445.249 45.2788 436.252 46.8394ZM411.88 45.5312H423.584C431.571 45.5312 438.226 43.4199 443.55 39.1973C448.92 34.9746 451.605 29.5586 451.605 22.9492C451.605 17.8545 450.229 14.0449 447.475 11.5205C444.767 8.99609 440.682 7.73389 435.22 7.73389C429.345 7.73389 425.512 8.35352 423.722 9.59277C421.978 10.7861 420.073 14.458 418.008 20.6084C415.988 26.7129 413.946 35.0205 411.88 45.5312ZM410.779 48.9736C410.733 49.2949 409.999 51.957 408.576 56.96C404.353 71.7393 402.242 81.1714 402.242 85.2563C402.242 87.4136 403.183 89.0659 405.064 90.2134C406.946 91.3608 411.077 91.9346 417.457 91.9346C426.407 91.9346 433.361 89.7085 438.318 85.2563C443.275 80.7583 445.753 75.2046 445.753 68.5952C445.753 62.8579 443.642 58.0615 439.419 54.2061C435.243 50.3506 428.817 48.4229 420.142 48.4229C417.893 48.4229 414.772 48.6064 410.779 48.9736Z" fill="#19172E"/>
<path d="M494.36 85.876C497.848 80.6436 501.061 74.4932 503.999 67.4248C506.936 60.3105 508.405 54.8257 508.405 50.9702C508.405 48.7212 508.015 46.2197 507.234 43.4658C506.821 42.043 506.615 41.0103 506.615 40.3677C506.615 36.8794 508.015 35.1353 510.814 35.1353C512.008 35.1353 512.995 35.6631 513.775 36.7188C514.601 37.7744 515.014 39.0137 515.014 40.4365C515.014 44.1543 513.683 49.9604 511.021 57.855C508.359 65.7036 504.021 75.021 498.009 85.8071C492.042 96.5474 485.96 105.543 479.764 112.795C473.568 120.093 468.588 124.913 464.824 127.253C461.061 129.64 457.825 130.833 455.117 130.833C452.638 130.833 450.55 130.099 448.852 128.63C447.153 127.162 446.304 125.165 446.304 122.641C446.304 120.805 446.809 119.244 447.819 117.959C448.829 116.674 450.183 116.031 451.881 116.031C454.91 116.031 456.471 118.051 456.562 122.09C456.608 124.522 457.572 125.739 459.454 125.739C464.778 125.739 473.981 116.398 487.062 97.7178C485.823 85.6006 484.377 74.1489 482.725 63.3628C481.118 52.5308 479.925 46.2656 479.145 44.5674C478.41 42.8232 477.515 41.9512 476.459 41.9512C474.302 41.9512 471.617 45.4854 468.404 52.5537C466.981 55.6748 465.834 57.2354 464.962 57.2354C464.182 57.2354 463.792 56.8682 463.792 56.1338C463.792 55.3994 464.067 54.4814 464.618 53.3799L468.404 45.9443C469.735 43.3281 471.089 41.1938 472.466 39.5415C473.843 37.8892 475.243 36.6729 476.666 35.8926C478.089 35.1123 479.374 34.7222 480.521 34.7222C483.321 34.7222 485.387 36.604 486.718 40.3677C488.049 44.1313 489.655 53.0356 491.537 67.0806C492.822 76.8569 493.763 83.1221 494.36 85.876Z" fill="#19172E"/>
<path d="M533.741 69.6968C532.272 76.0308 531.538 80.8271 531.538 84.0859C531.538 86.0596 532.088 87.8496 533.19 89.4561C534.337 91.0166 535.875 91.7969 537.803 91.7969C540.557 91.7969 543.471 90.6724 546.546 88.4233C549.622 86.1284 552.215 83.3516 554.326 80.0928C555.382 78.4863 556.346 77.6831 557.218 77.6831C558.09 77.6831 558.526 78.0962 558.526 78.9224C558.526 81.2173 555.979 84.5449 550.884 88.9053C545.835 93.2197 540.557 95.377 535.049 95.377C530.826 95.377 527.499 93.8394 525.066 90.7642C522.679 87.6431 521.486 84.063 521.486 80.0239C521.486 71.2573 525.456 61.5498 533.396 50.9014C541.383 40.2529 549.163 34.9287 556.736 34.9287C559.398 34.9287 561.601 35.8696 563.345 37.7515C565.135 39.6333 566.03 41.6987 566.03 43.9478C566.03 48.4458 563.529 53.0356 558.526 57.7173C553.569 62.3989 545.307 66.3921 533.741 69.6968ZM534.773 66.5986C541.704 63.5693 547.487 59.6909 552.123 54.9634C556.805 50.1899 559.146 45.8066 559.146 41.8135C559.146 40.9414 558.801 40.0923 558.113 39.2661C557.47 38.394 556.575 37.958 555.428 37.958C552.444 37.958 549.025 39.9775 545.169 44.0166C541.314 48.0098 537.849 55.5371 534.773 66.5986Z" fill="#19172E"/>
<path d="M35.9839 240.497C34.7271 243.569 32.8883 249.691 30.4678 258.861C28.0472 267.985 26.8369 274.106 26.8369 277.225C26.8369 281.321 30.235 283.602 37.0312 284.067C38.4277 284.16 39.126 284.579 39.126 285.324C39.126 286.348 38.2648 286.86 36.5425 286.86C35.146 286.86 32.8883 286.744 29.7695 286.511C27.4421 286.372 23.5552 286.302 18.1089 286.302C12.7557 286.302 8.42659 286.372 5.12158 286.511C3.9113 286.558 2.93376 286.581 2.18896 286.581C0.932129 286.581 0.303711 286.209 0.303711 285.464C0.303711 284.673 1.30452 284.16 3.30615 283.928C6.00602 283.648 7.9611 283.09 9.17139 282.252C10.3817 281.368 11.3825 279.971 12.1738 278.062C12.9652 276.154 14.8737 269.404 17.8994 257.813L25.9292 226.602C28.2567 217.339 29.4204 210.985 29.4204 207.54C29.4204 205.259 28.7454 203.42 27.3955 202.024C26.0921 200.581 23.4854 199.464 19.5752 198.672C18.458 198.44 17.8994 197.997 17.8994 197.346C17.8994 196.508 18.4347 196.089 19.5054 196.089C20.6691 196.089 22.3216 196.159 24.4629 196.298C26.7904 196.485 29.5368 196.578 32.7021 196.578L57.2104 196.298C68.6151 196.298 76.738 198.184 81.5791 201.954C86.4202 205.771 88.8408 210.682 88.8408 216.687C88.8408 222.459 86.6763 227.486 82.3472 231.769C78.0646 236.052 71.9201 238.961 63.9136 240.497C68.8944 243.569 71.9666 246.711 73.1304 249.923C74.3407 253.135 74.9458 256.464 74.9458 259.908C74.9458 261.537 74.8294 263.143 74.5967 264.726C73.7122 271.15 73.27 275.27 73.27 277.085C73.27 278.249 73.6424 279.25 74.3872 280.087C75.1786 280.879 76.0397 281.274 76.9707 281.274C79.0189 281.274 81.9282 279.971 85.6987 277.364C87.8866 275.875 89.2365 275.13 89.7485 275.13C90.4002 275.13 90.7261 275.479 90.7261 276.177C90.7261 276.875 89.3761 278.179 86.6763 280.087C84.0229 281.996 80.9972 283.811 77.5991 285.534C74.201 287.256 70.8494 288.117 67.5444 288.117C65.1704 288.117 63.099 287.396 61.3301 285.953C59.6077 284.463 58.7466 282.252 58.7466 279.319C58.7466 277.225 59.1655 274.269 60.0034 270.452C61.0741 265.704 61.6094 261.561 61.6094 258.023C61.6094 252.67 61.0275 248.806 59.8638 246.432C58.7 244.058 57.2337 242.452 55.4648 241.614C53.7425 240.73 50.0884 240.288 44.5024 240.288C43.106 240.288 40.2664 240.357 35.9839 240.497ZM36.6821 237.355C39.3354 237.495 41.3371 237.564 42.687 237.564C50.7866 237.564 56.9079 236.82 61.0508 235.33C65.2402 233.84 68.5452 231.024 70.9658 226.881C73.3864 222.692 74.5967 218.409 74.5967 214.034C74.5967 209.705 72.9674 206.167 69.709 203.42C66.4505 200.674 62.0283 199.301 56.4424 199.301C53.4632 199.301 50.1815 199.534 46.5972 199.999C46.5506 200.465 45.6895 203.048 44.0137 207.75C42.8499 211.008 41.3604 216.245 39.5449 223.46C37.7295 230.629 36.7752 235.26 36.6821 237.355Z" fill="#009C73"/>
<path d="M111.045 262.352C109.555 268.776 108.811 273.64 108.811 276.945C108.811 278.947 109.369 280.762 110.486 282.392C111.65 283.974 113.209 284.766 115.165 284.766C117.958 284.766 120.913 283.625 124.032 281.344C127.151 279.017 129.781 276.201 131.922 272.896C132.993 271.266 133.971 270.452 134.855 270.452C135.739 270.452 136.182 270.871 136.182 271.708C136.182 274.036 133.598 277.411 128.431 281.833C123.311 286.209 117.958 288.396 112.372 288.396C108.089 288.396 104.714 286.837 102.247 283.718C99.8265 280.553 98.6162 276.922 98.6162 272.826C98.6162 263.935 102.643 254.09 110.696 243.29C118.795 232.491 126.686 227.091 134.366 227.091C137.066 227.091 139.3 228.045 141.069 229.954C142.885 231.862 143.792 233.957 143.792 236.238C143.792 240.8 141.256 245.455 136.182 250.203C131.154 254.951 122.775 259 111.045 262.352ZM112.092 259.21C119.121 256.138 124.986 252.204 129.688 247.41C134.436 242.569 136.81 238.123 136.81 234.073C136.81 233.189 136.461 232.328 135.763 231.49C135.111 230.605 134.203 230.163 133.04 230.163C130.014 230.163 126.546 232.211 122.636 236.308C118.726 240.357 115.211 247.992 112.092 259.21Z" fill="#009C73"/>
<path d="M175.772 237.704C173.584 238.914 172.001 239.52 171.024 239.52C169.162 239.52 166.951 238.286 164.391 235.819C162.11 233.538 160.318 232.397 159.014 232.397C157.944 232.397 157.408 232.793 157.408 233.584C157.408 234.236 157.688 235.051 158.246 236.028C159.596 238.17 160.271 239.776 160.271 240.846C160.271 241.87 159.759 242.964 158.735 244.128C157.757 245.245 156.5 245.804 154.964 245.804C153.475 245.804 152.264 245.268 151.333 244.198C150.449 243.081 150.007 241.8 150.007 240.357C150.007 237.239 151.31 234.492 153.917 232.118C156.57 229.744 159.317 228.557 162.156 228.557C163.972 228.557 166.183 229.232 168.79 230.582C172.374 232.397 175.237 233.305 177.378 233.305C178.728 233.305 179.961 232.351 181.079 230.442C182.196 228.58 183.104 227.649 183.802 227.649C184.221 227.649 184.663 227.859 185.128 228.278C185.594 228.65 185.827 229.069 185.827 229.535C185.827 230.652 184.407 232.491 181.567 235.051C178.449 237.937 175.562 243.36 172.909 251.32C170.302 259.233 168.999 266.029 168.999 271.708C168.999 275.339 169.395 278.086 170.186 279.948C171.024 281.763 172.234 282.671 173.817 282.671C176.377 282.671 179.868 280.739 184.291 276.875C188.713 272.965 192.39 268.124 195.323 262.352C198.255 256.58 199.722 251.669 199.722 247.619C199.722 245.478 198.721 241.8 196.719 236.587C196.021 234.725 195.672 233.119 195.672 231.769C195.672 230.698 196.114 229.674 196.999 228.697C197.883 227.719 199 227.23 200.35 227.23C202.584 227.23 204.214 228.464 205.238 230.931C206.262 233.352 206.774 236.052 206.774 239.031C206.774 244.943 204.54 252.46 200.071 261.584C195.649 270.661 190.482 277.457 184.57 281.973C178.705 286.441 173.258 288.676 168.231 288.676C164.926 288.676 162.366 287.698 160.55 285.743C158.781 283.788 157.897 281.391 157.897 278.551C157.897 274.641 159.107 269.637 161.528 263.539C163.995 257.441 166.951 251.739 170.396 246.432C172.909 242.569 174.701 239.659 175.772 237.704Z" fill="#009C73"/>
<path d="M244.688 227.44C250.88 227.44 255.744 229.814 259.282 234.562C262.819 239.31 264.588 244.919 264.588 251.39C264.588 260.467 261.4 268.939 255.022 276.806C248.645 284.626 241.034 288.536 232.19 288.536C225.673 288.536 220.972 286.139 218.085 281.344C215.199 276.55 213.756 271.522 213.756 266.262C213.756 259.326 215.549 252.6 219.133 246.083C222.717 239.566 226.883 234.841 231.631 231.909C236.379 228.93 240.732 227.44 244.688 227.44ZM246.015 230.303C243.408 230.303 240.522 231.816 237.357 234.841C234.238 237.867 231.143 243.313 228.07 251.18C225.045 259.047 223.532 266.425 223.532 273.314C223.532 276.666 224.3 279.552 225.836 281.973C227.372 284.393 229.444 285.604 232.05 285.604C234.983 285.604 238.148 283.858 241.546 280.367C244.991 276.875 248.156 271.476 251.042 264.167C253.929 256.859 255.372 249.923 255.372 243.36C255.372 238.984 254.58 235.726 252.998 233.584C251.461 231.397 249.134 230.303 246.015 230.303Z" fill="#009C73"/>
<path d="M311.161 191.271C310.277 194.483 306.227 207.68 299.012 230.861L286.024 273.943C284.581 279.529 283.86 282.764 283.86 283.648C283.86 284.393 284.162 284.766 284.768 284.766C286.071 284.766 288.654 283.16 292.518 279.948C296.382 276.736 299.151 273.826 300.827 271.22C301.944 269.497 302.782 268.636 303.341 268.636C304.132 268.636 304.528 269.032 304.528 269.823C304.528 271.406 301.921 274.897 296.708 280.297C291.541 285.697 286.513 288.396 281.625 288.396C280.182 288.396 278.879 287.884 277.715 286.86C276.552 285.79 275.97 284.23 275.97 282.182C275.97 278.924 276.458 275.479 277.436 271.848C278.414 268.171 282.929 253.484 290.982 227.789C296.289 210.938 298.942 201.326 298.942 198.952C298.942 196.391 296.219 195.018 290.772 194.832C288.724 194.785 287.7 194.32 287.7 193.436C287.7 192.458 288.724 191.969 290.772 191.969L311.161 191.271Z" fill="#009C73"/>
<path d="M369.674 228.278C368.929 230.652 367.37 235.004 364.996 241.335C356.896 262.562 352.846 275.572 352.846 280.367C352.846 281.018 352.986 281.507 353.265 281.833C353.544 282.159 353.963 282.322 354.522 282.322C355.965 282.322 357.92 281.088 360.387 278.621C362.808 276.154 364.74 273.803 366.183 271.569C367.253 269.847 368.184 268.985 368.976 268.985C369.72 268.985 370.093 269.358 370.093 270.103C370.093 272.011 367.579 275.526 362.552 280.646C357.571 285.72 353.172 288.257 349.355 288.257C347.726 288.257 346.492 287.698 345.654 286.581C344.863 285.417 344.467 283.695 344.467 281.414C344.467 276.806 345.445 271.243 347.4 264.726C337.206 280.367 328.571 288.187 321.495 288.187C319.726 288.187 318.144 287.442 316.747 285.953C315.397 284.417 314.722 282.624 314.722 280.576C314.722 278.528 314.978 276.457 315.49 274.362C316.002 272.221 317.911 266.192 321.216 256.277C324.521 246.362 326.522 240.567 327.221 238.891C328.059 236.889 328.478 235.167 328.478 233.724C328.478 233.212 328.361 232.84 328.128 232.607C327.896 232.328 327.523 232.188 327.011 232.188C325.01 232.188 321.355 235.33 316.049 241.614C314.001 244.081 312.674 245.315 312.069 245.315C311.417 245.315 311.091 244.989 311.091 244.337C311.091 242.708 313.512 239.496 318.353 234.702C323.241 229.861 327.523 227.44 331.201 227.44C332.923 227.44 334.413 228.138 335.669 229.535C336.973 230.931 337.625 232.537 337.625 234.353C337.625 237.006 336.112 242.056 333.086 249.504C326.941 264.68 323.869 274.664 323.869 279.459C323.869 280.343 324.102 281.158 324.567 281.903C325.079 282.648 325.685 283.02 326.383 283.02C327.314 283.02 328.687 282.415 330.502 281.205C332.318 279.994 335.367 276.526 339.649 270.801C343.932 265.029 347.842 258.419 351.38 250.971L362.063 228.278C362.854 227.999 363.739 227.859 364.716 227.859C366.066 227.859 367.719 227.999 369.674 228.278Z" fill="#009C73"/>
<path d="M403.329 231.56C402.957 232.91 401.723 236.61 399.628 242.662C392.739 262.259 389.294 274.176 389.294 278.412C389.294 281.205 390.342 282.601 392.437 282.601C395.881 282.601 401.002 278.644 407.798 270.731C408.682 269.707 409.45 269.195 410.102 269.195C410.94 269.195 411.359 269.521 411.359 270.172C411.359 271.383 408.473 274.757 402.701 280.297C396.975 285.79 391.017 288.536 384.826 288.536C382.684 288.536 381.078 287.931 380.008 286.721C378.937 285.51 378.402 284.207 378.402 282.811C378.402 279.645 379.403 275.363 381.404 269.963C381.544 269.59 385.803 256.952 394.182 232.048L387.619 231.909L383.01 232.118C382.359 232.118 382.033 231.792 382.033 231.141C382.033 229.791 382.172 229.023 382.452 228.836C382.731 228.604 383.988 228.394 386.222 228.208C388.457 228.022 391.529 227.929 395.439 227.929C396.603 224.065 398.046 219.689 399.768 214.802L402.491 206.842C402.631 206.469 402.91 206.283 403.329 206.283C405.005 206.283 406.634 206.516 408.217 206.981C409.846 207.4 410.661 207.866 410.661 208.378L410.451 208.937L404.097 228.278L412.686 228.487C415.525 228.58 416.991 228.674 417.084 228.767C417.224 228.813 417.294 228.976 417.294 229.255C417.294 231.304 416.945 232.328 416.247 232.328L411.08 231.909L403.329 231.56Z" fill="#009C73"/>
<path d="M451.927 193.226C453.416 193.226 454.696 193.761 455.767 194.832C456.838 195.903 457.373 197.183 457.373 198.672C457.373 200.208 456.838 201.512 455.767 202.583C454.696 203.653 453.416 204.188 451.927 204.188C450.391 204.188 449.087 203.653 448.017 202.583C446.946 201.512 446.411 200.208 446.411 198.672C446.411 197.136 446.946 195.856 448.017 194.832C449.134 193.761 450.437 193.226 451.927 193.226ZM429.304 282.741C429.304 283.532 429.467 284.137 429.792 284.556C430.165 284.929 430.677 285.115 431.329 285.115C432.772 285.115 434.773 284.3 437.333 282.671C439.894 281.042 442.338 279.017 444.665 276.596C445.689 275.526 446.504 274.99 447.109 274.99C447.947 274.99 448.366 275.363 448.366 276.107C448.366 277.737 446.015 280.25 441.313 283.648C436.612 287 432.26 288.676 428.256 288.676C425.696 288.676 423.741 288.14 422.391 287.07C421.088 286.046 420.436 284.835 420.436 283.439C420.436 281.344 423.02 274.013 428.187 261.444C434.75 245.618 438.032 236.633 438.032 234.492C438.032 233.654 437.869 233.049 437.543 232.677C437.264 232.258 436.798 232.048 436.146 232.048C434.145 232.048 430.933 234.19 426.511 238.472C424.788 240.148 423.578 240.986 422.88 240.986C422.228 240.986 421.902 240.613 421.902 239.869C421.902 238.658 424.346 236.191 429.234 232.467C434.122 228.697 438.474 226.812 442.291 226.812C443.874 226.812 445.224 227.417 446.341 228.627C447.505 229.791 448.086 231.048 448.086 232.397C448.086 234.073 447.784 235.726 447.179 237.355C446.62 238.984 443.152 247.363 436.775 262.492C431.794 275.2 429.304 281.949 429.304 282.741Z" fill="#009C73"/>
<path d="M489.073 227.44C495.264 227.44 500.129 229.814 503.667 234.562C507.204 239.31 508.973 244.919 508.973 251.39C508.973 260.467 505.785 268.939 499.407 276.806C493.03 284.626 485.419 288.536 476.575 288.536C470.058 288.536 465.356 286.139 462.47 281.344C459.584 276.55 458.141 271.522 458.141 266.262C458.141 259.326 459.933 252.6 463.518 246.083C467.102 239.566 471.268 234.841 476.016 231.909C480.764 228.93 485.117 227.44 489.073 227.44ZM490.4 230.303C487.793 230.303 484.907 231.816 481.742 234.841C478.623 237.867 475.527 243.313 472.455 251.18C469.429 259.047 467.917 266.425 467.917 273.314C467.917 276.666 468.685 279.552 470.221 281.973C471.757 284.393 473.828 285.604 476.435 285.604C479.368 285.604 482.533 283.858 485.931 280.367C489.376 276.875 492.541 271.476 495.427 264.167C498.313 256.859 499.756 249.923 499.756 243.36C499.756 238.984 498.965 235.726 497.382 233.584C495.846 231.397 493.519 230.303 490.4 230.303Z" fill="#009C73"/>
<path d="M541.092 251.948C546.027 243.709 550.658 237.541 554.987 233.445C559.316 229.302 563.343 227.23 567.067 227.23C569.255 227.23 570.93 228.022 572.094 229.604C573.258 231.141 573.84 232.979 573.84 235.121C573.84 237.774 573.444 240.52 572.653 243.36C571.908 246.153 570 251.832 566.927 260.397C562.784 271.895 560.713 278.668 560.713 280.716C560.713 282.252 561.388 283.02 562.738 283.02C563.948 283.02 565.81 281.996 568.324 279.948C570.884 277.853 572.769 275.805 573.979 273.803C575.19 271.708 576.191 270.661 576.982 270.661C577.773 270.661 578.169 271.127 578.169 272.058C578.169 273.966 575.772 277.248 570.977 281.903C566.229 286.511 561.667 288.815 557.292 288.815C553.009 288.815 550.868 287.023 550.868 283.439C550.868 279.715 554.289 268.916 561.132 251.041C563.785 244.151 565.112 238.984 565.112 235.54C565.112 234.469 564.902 233.678 564.483 233.166C564.111 232.607 563.506 232.328 562.668 232.328C561.271 232.328 558.641 234.12 554.778 237.704C550.961 241.242 546.608 247.549 541.721 256.626C536.833 265.704 532.83 274.036 529.711 281.624C527.802 286.325 526.546 288.676 525.94 288.676C521.379 288.676 519.098 288.071 519.098 286.86L519.307 286.162L531.107 252.018C534.18 243.686 535.716 237.914 535.716 234.702C535.716 233.305 535.064 232.607 533.761 232.607C532.597 232.607 530.712 233.771 528.105 236.098C525.498 238.379 523.427 240.544 521.891 242.592C520.68 244.174 519.703 244.966 518.958 244.966C518.26 244.966 517.911 244.593 517.911 243.849C517.911 242.359 520.424 239.194 525.452 234.353C530.526 229.511 535.39 227.091 540.045 227.091C541.534 227.091 542.675 227.626 543.466 228.697C544.258 229.767 544.653 230.885 544.653 232.048C544.653 233.91 543.466 240.544 541.092 251.948Z" fill="#009C73"/>
<path d="M169.99 326.341C169.248 326.738 168.687 326.937 168.308 326.937C168.014 326.937 167.341 326.557 166.289 325.798C164.943 324.832 163.848 324.349 163.002 324.349C162.606 324.349 162.304 324.4 162.097 324.504C161.907 324.607 161.812 324.763 161.812 324.97C161.812 325.177 162.088 325.41 162.64 325.668C163.365 325.996 163.727 326.6 163.727 327.48C163.727 327.911 163.555 328.343 163.209 328.774C162.882 329.188 162.407 329.395 161.786 329.395C161.096 329.395 160.518 329.171 160.052 328.722C159.586 328.274 159.354 327.747 159.354 327.144C159.354 326.091 159.862 325.125 160.88 324.245C161.916 323.365 163.166 322.925 164.633 322.925C165.737 322.925 167.298 323.434 169.317 324.452C169.731 324.676 170.067 324.789 170.326 324.789C170.757 324.789 171.266 324.409 171.853 323.65C172.267 323.132 172.612 322.874 172.888 322.874C173.199 322.874 173.354 323.02 173.354 323.313C173.354 323.555 173.138 323.926 172.707 324.426C172.12 325.099 171.18 326.445 169.886 328.463C168.61 330.465 167.661 332.285 167.04 333.924C166.436 335.546 166.134 336.978 166.134 338.22C166.134 339.376 166.436 340.48 167.04 341.532C167.643 342.567 168.497 343.085 169.602 343.085C171.499 343.085 173.552 341.791 175.761 339.203C176.192 338.686 176.451 338.384 176.537 338.297C176.503 337.728 176.485 337.305 176.485 337.029C176.485 333.199 177.072 329.947 178.245 327.273C179.436 324.582 180.747 323.236 182.179 323.236C182.869 323.236 183.378 323.469 183.706 323.935C184.051 324.383 184.223 325.065 184.223 325.979C184.223 327.238 183.818 328.886 183.007 330.922C182.213 332.94 181.075 334.821 179.591 336.563C180.057 338.565 180.686 340.083 181.48 341.118C182.274 342.136 183.084 342.645 183.913 342.645C185.431 342.645 187.018 341.394 188.674 338.893C190.348 336.391 191.185 333.794 191.185 331.103C191.185 330.258 191.012 329.033 190.667 327.428C190.443 326.359 190.331 325.668 190.331 325.358C190.331 324.858 190.486 324.444 190.796 324.116C191.124 323.788 191.486 323.624 191.883 323.624C193.125 323.624 193.747 324.418 193.747 326.005C193.747 327.868 193.186 330.637 192.064 334.312C190.96 337.97 189.459 340.721 187.562 342.567C185.664 344.413 183.783 345.336 181.92 345.336C180.419 345.336 179.185 344.871 178.219 343.939C177.27 343.007 176.71 341.757 176.537 340.187C174.898 341.998 173.294 343.361 171.724 344.275C170.171 345.173 168.653 345.621 167.169 345.621C165.858 345.621 164.823 345.207 164.063 344.379C163.304 343.534 162.925 342.472 162.925 341.196C162.925 337.797 165.28 332.846 169.99 326.341ZM179.177 335.088C180.281 333.605 181.109 332.19 181.661 330.844C182.213 329.481 182.489 328.187 182.489 326.962C182.489 326.255 182.403 325.729 182.23 325.384C182.058 325.021 181.799 324.84 181.454 324.84C181.04 324.84 180.471 325.41 179.746 326.548C179.039 327.67 178.685 329.145 178.685 330.974C178.685 332.268 178.849 333.639 179.177 335.088Z" fill="#19172E"/>
<path d="M207.954 310.245C208.506 310.245 208.981 310.443 209.377 310.84C209.774 311.237 209.973 311.711 209.973 312.263C209.973 312.833 209.774 313.316 209.377 313.712C208.981 314.109 208.506 314.308 207.954 314.308C207.385 314.308 206.902 314.109 206.505 313.712C206.108 313.316 205.91 312.833 205.91 312.263C205.91 311.694 206.108 311.219 206.505 310.84C206.919 310.443 207.402 310.245 207.954 310.245ZM199.569 343.421C199.569 343.715 199.63 343.939 199.75 344.094C199.889 344.232 200.078 344.301 200.32 344.301C200.855 344.301 201.597 343.999 202.545 343.396C203.494 342.792 204.4 342.041 205.263 341.144C205.642 340.747 205.944 340.549 206.168 340.549C206.479 340.549 206.634 340.687 206.634 340.963C206.634 341.567 205.763 342.498 204.021 343.758C202.278 345 200.665 345.621 199.181 345.621C198.232 345.621 197.508 345.423 197.007 345.026C196.524 344.646 196.283 344.198 196.283 343.68C196.283 342.904 197.24 340.187 199.155 335.528C201.588 329.662 202.804 326.333 202.804 325.539C202.804 325.229 202.744 325.004 202.623 324.866C202.52 324.711 202.347 324.633 202.105 324.633C201.364 324.633 200.173 325.427 198.534 327.014C197.896 327.635 197.447 327.946 197.188 327.946C196.947 327.946 196.826 327.808 196.826 327.532C196.826 327.083 197.732 326.169 199.543 324.789C201.355 323.391 202.968 322.692 204.383 322.692C204.969 322.692 205.47 322.917 205.884 323.365C206.315 323.797 206.531 324.262 206.531 324.763C206.531 325.384 206.419 325.996 206.194 326.6C205.987 327.204 204.702 330.309 202.338 335.917C200.492 340.626 199.569 343.128 199.569 343.421Z" fill="#19172E"/>
<path d="M219.755 324.452C219.617 324.952 219.16 326.324 218.383 328.567C215.83 335.83 214.553 340.247 214.553 341.817C214.553 342.852 214.941 343.37 215.718 343.37C216.994 343.37 218.892 341.903 221.411 338.97C221.739 338.591 222.024 338.401 222.265 338.401C222.576 338.401 222.731 338.522 222.731 338.763C222.731 339.212 221.661 340.463 219.522 342.516C217.4 344.551 215.192 345.569 212.897 345.569C212.103 345.569 211.508 345.345 211.111 344.896C210.715 344.448 210.516 343.965 210.516 343.447C210.516 342.274 210.887 340.687 211.629 338.686C211.681 338.548 213.259 333.863 216.365 324.633L213.932 324.582L212.224 324.659C211.983 324.659 211.862 324.538 211.862 324.297C211.862 323.797 211.914 323.512 212.017 323.443C212.121 323.357 212.586 323.279 213.415 323.21C214.243 323.141 215.381 323.106 216.831 323.106C217.262 321.674 217.797 320.053 218.435 318.241L219.444 315.291C219.496 315.153 219.6 315.084 219.755 315.084C220.376 315.084 220.98 315.17 221.566 315.343C222.17 315.498 222.472 315.671 222.472 315.86L222.395 316.067L220.04 323.236L223.223 323.313C224.275 323.348 224.819 323.382 224.853 323.417C224.905 323.434 224.931 323.495 224.931 323.598C224.931 324.357 224.801 324.737 224.542 324.737L222.627 324.582L219.755 324.452Z" fill="#19172E"/>
<path d="M232.203 331.103C234.773 327.86 236.792 325.625 238.258 324.4C239.742 323.158 241.053 322.537 242.192 322.537C243.072 322.537 243.779 322.813 244.314 323.365C244.849 323.917 245.116 324.599 245.116 325.41C245.116 326.842 244.254 329.99 242.528 334.855C240.924 339.358 240.122 342.05 240.122 342.93C240.122 343.482 240.372 343.758 240.872 343.758C241.355 343.758 242.088 343.318 243.072 342.438C244.055 341.558 244.961 340.549 245.789 339.41C246.065 339.048 246.307 338.867 246.514 338.867C246.807 338.867 246.954 339.048 246.954 339.41C246.954 339.962 246.031 341.135 244.185 342.93C242.356 344.724 240.622 345.621 238.983 345.621C237.292 345.621 236.447 345 236.447 343.758C236.447 342.878 236.706 341.774 237.223 340.445C238.069 338.323 239.017 335.606 240.07 332.293C241.122 328.981 241.648 326.842 241.648 325.875C241.648 325.479 241.579 325.185 241.441 324.996C241.303 324.806 241.088 324.711 240.794 324.711C240.001 324.711 238.733 325.47 236.99 326.988C235.248 328.507 233.807 330.301 232.668 332.371C231.547 334.441 230.408 337.331 229.252 341.041C228.528 343.335 228.088 344.655 227.933 345C227.795 345.362 227.622 345.543 227.415 345.543C226.897 345.543 226.285 345.449 225.578 345.259C224.87 345.069 224.517 344.914 224.517 344.793C224.517 344.62 224.56 344.422 224.646 344.198C224.819 343.697 226.104 339.772 228.502 332.423L232.177 320.958L234.092 314.204C234.316 313.566 234.428 313.031 234.428 312.6C234.428 312.03 233.488 311.573 231.607 311.228C230.952 311.107 230.624 310.883 230.624 310.555C230.624 310.227 230.969 310.063 231.659 310.063L236.136 310.089C237.62 310.107 238.414 310.141 238.517 310.193C238.621 310.245 238.672 310.322 238.672 310.426L238.569 310.788C238.517 310.909 238.465 311.09 238.414 311.332C237.965 313.402 235.895 319.992 232.203 331.103Z" fill="#19172E"/>
<path d="M277.103 311.797C283.935 324.409 288.696 332.751 291.388 336.822C295.459 325.229 297.495 318.474 297.495 316.559C297.495 315.765 297.279 315.041 296.848 314.385C296.434 313.73 295.986 313.29 295.502 313.065C295.019 312.824 294.381 312.66 293.587 312.574C292.725 312.487 292.293 312.298 292.293 312.004C292.293 311.884 292.345 311.78 292.449 311.694C292.552 311.59 293.096 311.539 294.079 311.539C295.062 311.521 296.555 311.487 298.556 311.435C300.557 311.383 302.636 311.357 304.793 311.357C305.276 311.357 305.518 311.547 305.518 311.927C305.518 312.168 305.354 312.306 305.026 312.341C303.525 312.513 302.36 312.927 301.532 313.583C300.704 314.239 299.988 315.231 299.384 316.559C298.798 317.888 297.495 321.864 295.477 328.489C293.458 335.114 292.147 339.6 291.543 341.946C291.112 343.603 290.836 344.551 290.715 344.793C290.611 345.017 290.491 345.129 290.353 345.129C290.094 345.129 289.887 344.862 289.731 344.327C289.507 343.637 288.817 342.343 287.661 340.445L280.26 327.506C277.637 322.951 275.998 320.182 275.343 319.199C273.652 323.926 272.298 328.17 271.28 331.931L269.882 337.029C269.468 338.513 269.261 339.6 269.261 340.29C269.261 341.222 269.684 342.007 270.529 342.645C271.392 343.283 272.479 343.697 273.79 343.887C274.497 343.991 274.851 344.172 274.851 344.431C274.851 344.741 274.679 344.896 274.333 344.896L271.694 344.871L268.019 344.896L261.963 344.871L260.799 344.896C260.368 344.896 260.152 344.741 260.152 344.431C260.152 344.172 260.566 344.017 261.394 343.965C263.499 343.81 265.043 343.24 266.026 342.257C267.01 341.273 268.243 338.263 269.727 333.225C271.211 328.17 272.358 323.814 273.169 320.156C273.531 318.5 273.79 317.448 273.945 316.999C272.531 315.136 271.53 313.98 270.943 313.531C270.357 313.065 269.313 312.712 267.812 312.47C266.673 312.298 266.104 312.073 266.104 311.797C266.104 311.47 266.578 311.306 267.527 311.306C267.907 311.306 268.942 311.366 270.633 311.487C271.03 311.521 272.039 311.556 273.661 311.59C274.989 311.625 276.136 311.694 277.103 311.797Z" fill="#19172E"/>
<path d="M314.834 322.925C317.129 322.925 318.931 323.805 320.243 325.565C321.554 327.325 322.209 329.404 322.209 331.802C322.209 335.166 321.028 338.306 318.664 341.222C316.3 344.12 313.48 345.569 310.202 345.569C307.786 345.569 306.044 344.681 304.974 342.904C303.904 341.127 303.37 339.264 303.37 337.314C303.37 334.743 304.034 332.25 305.362 329.835C306.691 327.42 308.235 325.668 309.995 324.582C311.754 323.477 313.368 322.925 314.834 322.925ZM315.326 323.986C314.36 323.986 313.29 324.547 312.117 325.668C310.961 326.79 309.813 328.808 308.675 331.724C307.553 334.64 306.993 337.374 306.993 339.928C306.993 341.17 307.277 342.24 307.847 343.137C308.416 344.034 309.184 344.482 310.15 344.482C311.237 344.482 312.41 343.835 313.669 342.542C314.946 341.248 316.119 339.246 317.189 336.538C318.259 333.829 318.793 331.258 318.793 328.826C318.793 327.204 318.5 325.996 317.914 325.203C317.344 324.392 316.482 323.986 315.326 323.986Z" fill="#19172E"/>
<path d="M346.769 327.273C349.65 328.032 351.806 329.119 353.238 330.534C354.688 331.948 355.412 333.691 355.412 335.761C355.412 337.383 354.886 338.996 353.833 340.601C352.798 342.188 351.332 343.361 349.434 344.12C347.554 344.879 344.577 345.259 340.506 345.259C338.97 345.259 337.029 345.198 334.683 345.078C333.458 345.026 332.475 345 331.733 345L322.805 345.311C322.287 345.311 322.028 345.138 322.028 344.793C322.028 344.551 322.261 344.413 322.727 344.379C324.797 344.241 326.212 343.896 326.971 343.344C327.748 342.774 328.429 341.739 329.016 340.238C329.619 338.737 330.853 334.519 332.716 327.583C334.597 320.631 335.537 316.249 335.537 314.437C335.537 313.747 335.123 313.186 334.295 312.755C333.467 312.306 332.552 312.039 331.552 311.953C330.965 311.884 330.672 311.694 330.672 311.383C330.672 311.107 330.862 310.969 331.241 310.969C331.327 310.969 331.44 310.978 331.578 310.995C334.856 311.357 338.03 311.539 341.101 311.539L347.493 311.461C350.271 311.461 352.54 312.117 354.299 313.428C356.042 314.739 356.913 316.507 356.913 318.733C356.913 320.993 356.068 322.839 354.377 324.271C352.686 325.686 350.15 326.686 346.769 327.273ZM337.607 326.781H342.007C345.009 326.781 347.51 325.988 349.512 324.4C351.53 322.813 352.54 320.777 352.54 318.293C352.54 316.378 352.022 314.946 350.987 313.997C349.969 313.048 348.433 312.574 346.38 312.574C344.172 312.574 342.731 312.807 342.059 313.272C341.403 313.721 340.687 315.101 339.911 317.413C339.152 319.708 338.384 322.83 337.607 326.781ZM337.193 328.075C337.176 328.196 336.9 329.197 336.365 331.077C334.778 336.632 333.984 340.178 333.984 341.713C333.984 342.524 334.338 343.145 335.045 343.577C335.753 344.008 337.305 344.224 339.704 344.224C343.068 344.224 345.682 343.387 347.545 341.713C349.408 340.023 350.34 337.935 350.34 335.451C350.34 333.294 349.546 331.491 347.959 330.042C346.389 328.593 343.974 327.868 340.713 327.868C339.868 327.868 338.694 327.937 337.193 328.075Z" fill="#19172E"/>
<path d="M371.198 310.245C371.75 310.245 372.225 310.443 372.622 310.84C373.018 311.237 373.217 311.711 373.217 312.263C373.217 312.833 373.018 313.316 372.622 313.712C372.225 314.109 371.75 314.308 371.198 314.308C370.629 314.308 370.146 314.109 369.749 313.712C369.352 313.316 369.154 312.833 369.154 312.263C369.154 311.694 369.352 311.219 369.749 310.84C370.163 310.443 370.646 310.245 371.198 310.245ZM362.813 343.421C362.813 343.715 362.874 343.939 362.995 344.094C363.133 344.232 363.322 344.301 363.564 344.301C364.099 344.301 364.841 343.999 365.79 343.396C366.738 342.792 367.644 342.041 368.507 341.144C368.886 340.747 369.188 340.549 369.413 340.549C369.723 340.549 369.878 340.687 369.878 340.963C369.878 341.567 369.007 342.498 367.265 343.758C365.522 345 363.909 345.621 362.425 345.621C361.476 345.621 360.752 345.423 360.251 345.026C359.768 344.646 359.527 344.198 359.527 343.68C359.527 342.904 360.484 340.187 362.399 335.528C364.832 329.662 366.048 326.333 366.048 325.539C366.048 325.229 365.988 325.004 365.867 324.866C365.764 324.711 365.591 324.633 365.35 324.633C364.608 324.633 363.417 325.427 361.778 327.014C361.14 327.635 360.691 327.946 360.433 327.946C360.191 327.946 360.07 327.808 360.07 327.532C360.07 327.083 360.976 326.169 362.788 324.789C364.599 323.391 366.212 322.692 367.627 322.692C368.214 322.692 368.714 322.917 369.128 323.365C369.559 323.797 369.775 324.262 369.775 324.763C369.775 325.384 369.663 325.996 369.438 326.6C369.231 327.204 367.946 330.309 365.583 335.917C363.736 340.626 362.813 343.128 362.813 343.421Z" fill="#19172E"/>
<path d="M387.502 309.52C387.174 310.71 385.673 315.602 382.999 324.193L378.186 340.161C377.651 342.231 377.383 343.43 377.383 343.758C377.383 344.034 377.495 344.172 377.72 344.172C378.203 344.172 379.16 343.577 380.592 342.386C382.024 341.196 383.051 340.118 383.672 339.151C384.086 338.513 384.396 338.194 384.604 338.194C384.897 338.194 385.043 338.34 385.043 338.634C385.043 339.22 384.077 340.514 382.145 342.516C380.23 344.517 378.367 345.518 376.555 345.518C376.02 345.518 375.537 345.328 375.106 344.948C374.675 344.551 374.459 343.973 374.459 343.214C374.459 342.007 374.64 340.73 375.002 339.384C375.365 338.021 377.038 332.578 380.023 323.055C381.99 316.809 382.973 313.247 382.973 312.367C382.973 311.418 381.964 310.909 379.945 310.84C379.186 310.823 378.807 310.65 378.807 310.322C378.807 309.96 379.186 309.779 379.945 309.779L387.502 309.52Z" fill="#19172E"/>
<path d="M401.321 309.52C400.993 310.71 399.493 315.602 396.818 324.193L392.005 340.161C391.47 342.231 391.203 343.43 391.203 343.758C391.203 344.034 391.315 344.172 391.539 344.172C392.022 344.172 392.98 343.577 394.412 342.386C395.844 341.196 396.87 340.118 397.491 339.151C397.905 338.513 398.216 338.194 398.423 338.194C398.716 338.194 398.863 338.34 398.863 338.634C398.863 339.22 397.897 340.514 395.964 342.516C394.049 344.517 392.186 345.518 390.375 345.518C389.84 345.518 389.357 345.328 388.925 344.948C388.494 344.551 388.278 343.973 388.278 343.214C388.278 342.007 388.459 340.73 388.822 339.384C389.184 338.021 390.858 332.578 393.842 323.055C395.809 316.809 396.792 313.247 396.792 312.367C396.792 311.418 395.783 310.909 393.765 310.84C393.006 310.823 392.626 310.65 392.626 310.322C392.626 309.96 393.006 309.779 393.765 309.779L401.321 309.52Z" fill="#19172E"/>
<path d="M406.549 337.392C406.273 337.392 406.135 337.236 406.135 336.926L406.187 336.667C406.652 335.114 407.239 332.199 407.946 327.92C408.671 323.624 409.171 320.156 409.447 317.517C409.741 314.549 410.155 312.746 410.689 312.108C411.242 311.452 411.863 311.125 412.553 311.125C413.277 311.125 413.838 311.366 414.235 311.849C414.649 312.315 414.856 312.772 414.856 313.221C414.856 313.997 414.192 316.309 412.863 320.156L408.956 331.439C407.696 335.114 407.006 337.029 406.885 337.185C406.764 337.323 406.652 337.392 406.549 337.392ZM405.358 341.144C405.962 341.144 406.48 341.36 406.911 341.791C407.36 342.205 407.584 342.723 407.584 343.344C407.584 343.948 407.368 344.465 406.937 344.896C406.506 345.328 405.979 345.543 405.358 345.543C404.755 345.543 404.237 345.328 403.806 344.896C403.374 344.465 403.159 343.948 403.159 343.344C403.159 342.74 403.374 342.222 403.806 341.791C404.237 341.36 404.755 341.144 405.358 341.144Z" fill="#19172E"/>
</svg>
