<svg width="29" height="28" viewBox="0 0 29 28" fill="none" xmlns="http://www.w3.org/2000/svg">
<path d="M14.6661 -0.000122034C11.9629 -0.000319818 9.32046 0.801068 7.0728 2.3027C4.82514 3.80433 3.07325 5.93875 2.03868 8.43605C1.0041 10.9334 0.733307 13.6814 1.26054 16.3326C1.78777 18.9838 3.08935 21.4191 5.00067 23.3306C6.912 25.242 9.34722 26.5438 11.9984 27.0712C14.6496 27.5986 17.3976 27.328 19.895 26.2936C22.3923 25.2592 24.5269 23.5075 26.0287 21.26C27.5305 19.0124 28.3321 16.37 28.3321 13.6669C28.3318 10.0424 26.8919 6.56647 24.3291 4.0035C21.7664 1.44052 18.2905 0.000408314 14.6661 -0.000122034ZM10.6991 20.6599H7.36605V10.6469H10.6991V20.6599ZM9.03005 9.27888H9.00905C8.77074 9.29371 8.53192 9.25919 8.30756 9.17748C8.0832 9.09576 7.87812 8.96862 7.70516 8.804C7.53219 8.63939 7.39507 8.44084 7.30237 8.22079C7.20967 8.00074 7.16339 7.76392 7.16643 7.52517C7.16947 7.28641 7.22175 7.05085 7.32002 6.83322C7.41828 6.6156 7.56041 6.42061 7.7375 6.26044C7.9146 6.10028 8.12284 5.97839 8.34921 5.90241C8.57558 5.82643 8.81519 5.79799 9.05305 5.81888C9.29138 5.80233 9.53055 5.83518 9.75558 5.91537C9.98062 5.99556 10.1867 6.12135 10.3608 6.28488C10.535 6.4484 10.6735 6.64613 10.7677 6.86568C10.8619 7.08522 10.9097 7.32185 10.9082 7.56074C10.9067 7.79963 10.8558 8.03564 10.7589 8.25397C10.6619 8.4723 10.5209 8.66825 10.3446 8.82955C10.1684 8.99084 9.96079 9.11401 9.73475 9.19133C9.50871 9.26865 9.26815 9.29845 9.03005 9.27888ZM22.6991 20.6599H19.3681V15.2999C19.3681 13.9539 18.8861 13.0349 17.6821 13.0349C17.3067 13.0371 16.9411 13.1552 16.6354 13.373C16.3297 13.5908 16.0987 13.8978 15.9741 14.2519C15.889 14.5137 15.852 14.7888 15.8651 15.0639V20.6599H12.5361C12.5361 20.6599 12.5801 11.5859 12.5361 10.6459H15.8641V12.0639C16.165 11.5402 16.6038 11.1091 17.1328 10.8177C17.6618 10.5262 18.2606 10.3855 18.8641 10.4109C21.0541 10.4109 22.6961 11.8419 22.6961 14.9179L22.6991 20.6599Z" fill="#009C73"/>
</svg>
