<svg xmlns="http://www.w3.org/2000/svg" width="1367.03" height="705.146" viewBox="0 0 1367.03 705.146">
  <path id="Intersection_78" data-name="Intersection 78" d="M1713.135-18066.91q1.887-.519,3.779-1.09-1.891-.094-3.779-.244v-1.773q2.136-.858,4.284-1.793-2.144-.319-4.284-.7v-1.082q3.063.548,6.132.967c1.882-.838,3.774-1.725,5.67-2.645q-2.816-.527-5.623-1.166l-1.377-.314q-2.408,1.351-4.8,2.623v-1.549q1.411-.756,2.826-1.537-1.428-.337-2.826-.684v-1.045q2.034.5,4.141.994c1.739-.977,3.493-1.99,5.246-3.039q-4.138-1-8.019-2.072c-.456.3-.912.605-1.368.906v-2.287c.206.059.412.117.62.174q2.28-1.521,4.584-3.125c-1.784-.549-3.516-1.1-5.2-1.676v-.98q2.983,1.02,6.161,1.98l1.163-.82c.967-.686,1.935-1.387,2.9-2.088q-4.5-1.471-8.591-3.086-.817.647-1.634,1.291v-1.867l.067-.053-.067-.029v-.961q.432.179.867.355,1.958-1.559,3.917-3.164-2.45-1.09-4.784-2.254v-1.033q2.7,1.365,5.565,2.645c1.1-.9,2.187-1.807,3.288-2.73q-4.381-2.095-8.42-4.412c-.145.131-.289.262-.434.391v-2c.793-.719,1.591-1.449,2.382-2.178q-1.2-.715-2.382-1.453v-1.268q1.854.759,3.712,1.5c.419-.391.853-.791,1.272-1.186q-2.518-1.468-4.984-3.023v-.57q2.641,1.679,5.346,3.26.643-.6,1.287-1.205s-.01-.006-.01-.006q-3.324-1.523-6.623-3.131v-.146q2.7,1.33,5.418,2.6-2.722-1.547-5.418-3.191v-1.623q4.028,2.142,8.086,4.127c32.092-30.375,65.236-68.871,100.978-110.383,79.726-92.605,170.1-197.566,289.4-260.006a522.879,522.879,0,0,1,58.951-26.469c-.6-.006-1.215-.006-1.825-.006-1.048,0-2.1.006-3.149.01a508.6,508.6,0,0,0-65.951,27.09c-125.117,61.7-217.613,170.211-299.216,265.957-30.69,36.006-59.429,69.73-87.269,97.723v-2.229c27.448-27.725,55.809-61,86.078-96.51,81.7-95.859,174.3-204.514,299.712-266.348a508.5,508.5,0,0,1,61.625-25.625c-1.11.018-2.206.037-3.316.066a480.537,480.537,0,0,0-70.292,26.24c-131.2,60.824-225.789,173-309.232,271.971-22.444,26.617-43.823,51.971-64.574,74.629v-2.4c20.353-22.293,41.333-47.176,63.335-73.27,83.557-99.1,178.259-211.418,309.789-272.395a495.6,495.6,0,0,1,64-24.562c-.672.023-1.353.053-2.025.076a474.42,474.42,0,0,0-73.975,25.23c-137.291,59.7-233.837,175.52-319.014,277.7-14.444,17.324-28.44,34.113-42.107,49.953v-2.557c13.258-15.4,26.829-31.676,40.826-48.465,40.826-48.979,87.1-104.494,139.383-154.059,59.952-56.836,118.913-97.432,180.251-124.1a484.3,484.3,0,0,1,65.822-23.258.912.912,0,0,1-.124.006,467.671,467.671,0,0,0-77.715,24.057c-143.38,58.328-246.068,183-328.577,283.174q-10.074,12.226-19.865,24.055v-2.689q9.117-11,18.535-22.461c41.512-50.4,88.565-107.52,142.337-158.3,61.734-58.3,122.877-99.309,186.927-125.363a471.927,471.927,0,0,1,62.573-20.543,463.119,463.119,0,0,0-74.609,21.41c-148.184,56.223-252.167,182.977-335.763,285.734v-2.8c83.5-102.621,187.321-228.5,335.134-284.586a466.1,466.1,0,0,1,56.612-17.482,459.59,459.59,0,0,0-68.667,18.412c-141.315,49.842-241.885,163.553-323.079,263.617v-2.889c81.1-99.814,181.517-212.727,322.474-262.439a465.618,465.618,0,0,1,50.05-14.59,455.987,455.987,0,0,0-91.7,26.373c-119.137,48.152-208.14,142.094-280.828,230.523v-2.941c72.561-88.086,161.372-181.312,280.128-229.316a455.587,455.587,0,0,1,128.495-31.473q9.391-1.386,18.883-2.4,8.234-1.3,16.544-2.314,6.783-1.181,13.6-2.158,9.949-1.975,19.984-3.508,8.555-1.778,17.163-3.221,8.491-1.91,17.034-3.475,9.027-2.165,18.112-3.959,9-2.288,18.03-4.184,5.968-1.6,11.955-3.031,9.47-2.83,18.979-5.207,8.205-2.561,16.429-4.77,8.219-2.716,16.453-5.08,8.048-2.821,16.12-5.293,7.991-2.974,16-5.58,7.933-3.108,15.862-5.855,7.826-3.237,15.643-6.109,7.762-3.381,15.5-6.389,7.641-3.5,15.276-6.633,7.548-3.639,15.081-6.9,7.469-3.779,14.933-7.18,7.34-3.9,14.676-7.4,7.5-4.175,15-7.924,6.711-3.9,13.442-7.457,7.226-4.412,14.485-8.42,6.168-3.917,12.351-7.539c.534-.314,1.072-.623,1.61-.934q3.946-2.622,7.91-5.117c1.963-1.238,3.921-2.449,5.894-3.641q6.683-4.632,13.413-8.891,6.669-4.819,13.408-9.273,6.19-4.658,12.456-9.01c24.615-19.379,50.1-35.021,75.885-46.566a296.987,296.987,0,0,1,85.154-23.893c.329-.037.672-.08,1-.123,119.592-14.684,236.272,34.592,343.1,101.32v.438c-106.838-66.766-223.5-116.076-343.058-101.4l-1,.125c-55.182,6.775-107.41,29.1-157.222,67.447a342.787,342.787,0,0,1,64.693-34.67,296.193,296.193,0,0,1,73.232-18.912l1.215-.152q6.7-.809,13.442-1.311,15.338-1.137,30.9-1.139c78.077,0,160.434,21.547,250.7,65.465,22.8,11.092,45.174,23.152,67.09,35.822v.422c-107.089-61.979-225.144-109.32-348.666-100.16-56.059,4.164-109.378,24.3-160.543,60.9a332.762,332.762,0,0,1,65.255-31.764,295.838,295.838,0,0,1,62.435-14.666q14.023-1.717,28.232-2.111c4.584-.129,9.2-.189,13.8-.189,84.2-.006,172.165,21.061,268.435,64.211,24.232,10.861,47.928,22.637,71.049,34.951v.467c-107.082-57.119-226.222-102.475-353.279-98.977-55.206,1.516-107.181,17.572-157.237,49.131q-2.83,2.309-5.656,4.688c37.566-21.418,76.067-34.4,116.054-39.3a304.1,304.1,0,0,1,37.161-2.254q2.53,0,5.074.043c88.851,1.424,180.794,22.133,281.091,63.32,26.3,10.8,51.916,22.479,76.791,34.621v.52c-107.105-52.365-227.376-95.855-357.886-97.947-56.126-.9-109.164,13.076-160.448,42.838-1.491,1.271-2.978,2.549-4.465,3.85,33.788-17.445,68.324-28.289,104.208-32.7a307.21,307.21,0,0,1,37.509-2.268q9.234,0,18.612.533c133.873,7.6,255.331,49.314,362.47,97.006v.613c-107.141-47.707-228.632-89.465-362.5-97.061-56.783-3.223-110.631,8.543-162.883,36.16-1.32,1.172-2.649,2.363-3.969,3.564a308.269,308.269,0,0,1,92.358-26.727l.629-.076a309.991,309.991,0,0,1,37.5-2.25q15.717,0,31.811,1.535c137.123,13.012,259.89,53.121,367.059,96.254v.66c-107.18-43.15-229.98-83.291-367.116-96.3-57.331-5.441-110.969,3.35-162.983,27.584-1.911,1.744-3.826,3.521-5.732,5.313a310.517,310.517,0,0,1,80.955-21.408,314.267,314.267,0,0,1,38.338-2.32,345.637,345.637,0,0,1,44.895,2.988c140.256,18.334,264.539,56.977,371.643,95.623v.705c-107.125-38.66-231.444-77.332-371.733-95.672-58-7.58-112.352-.924-165.175,21.1-1.782,1.691-3.555,3.389-5.332,5.123q3.388-1.23,6.79-2.383c.877-.92,1.758-1.83,2.635-2.736q-1.315,1.359-2.63,2.736a312.009,312.009,0,0,1,62.3-14.262,318.493,318.493,0,0,1,38.844-2.359,356.905,356.905,0,0,1,58.07,4.895c143.31,23.568,269.6,60.949,376.231,95.1v.75c-106.649-34.156-232.99-71.566-376.35-95.143-56.064-9.221-108.844-5.471-160.167,12.145q-2.559,2.7-5.1,5.447a318.357,318.357,0,0,1,49.664-10.244l.863-.105a323.909,323.909,0,0,1,39.153-2.35,368.172,368.172,0,0,1,71.121,7.172c145.177,28.49,268.54,63.145,377.384,93.725l3.436.967v.791l-3.64-1.023c-108.83-30.576-232.179-65.227-377.327-93.711-56.583-11.107-109.912-9.367-161.792,6.018-1.663,1.811-3.331,3.65-4.989,5.5a323.979,323.979,0,0,1,37.624-6.9,330.447,330.447,0,0,1,40.344-2.447,381.251,381.251,0,0,1,84.377,9.848c98.328,22.248,187.989,44.9,267.091,64.885,41.849,10.572,81.276,20.535,118.312,29.512v.836c-37.1-8.99-76.592-18.967-118.512-29.557-79.1-19.99-168.749-42.637-267.072-64.885-57.1-12.922-110.941-13.16-163.326,0-1.639,1.844-3.288,3.717-4.922,5.6q12.357-2.487,24.868-4.021a337.135,337.135,0,0,1,41.178-2.5c31.577,0,64.064,4.3,97.8,12.895l19.889,5.064c144.084,36.705,266.9,67.986,370.1,89.127v.881c-103.27-21.145-226.136-52.443-370.313-89.168l-19.889-5.066c-57.6-14.666-111.932-16.844-164.775-5.889q-2.451,2.836-4.9,5.742c3.922-.625,7.867-1.178,11.812-1.664a345.089,345.089,0,0,1,42.069-2.553c35.861,0,72.836,5.432,111.417,16.295,164.351,46.273,292.357,76.879,394.576,94.166v.926c-102.277-17.289-230.371-47.91-394.824-94.211-53.1-14.951-103.474-19.635-152.419-13.627q-6.883.844-13.732,1.973-2.452,2.924-4.9,5.918a352.928,352.928,0,0,1,41.455-2.426c40.177,0,81.713,6.682,125.26,20.051,158.527,48.678,289.925,79.738,399.16,94.266v.971c-109.315-14.523-240.8-45.6-399.441-94.311-58.479-17.959-113.676-23.887-167.233-17.307-.081,0-.157.014-.238.023q-2.458,3.023-4.913,6.109,14.252-1.131,28.713-1.129c44.566,0,90.733,8.037,139.368,24.148q233.878,77.481,403.744,94.3v1.02q-169.685-16.784-404.063-94.359c-59.042-19.559-114.739-27.283-168.73-22.762-1.653,2.088-3.292,4.184-4.941,6.309q7.783-.319,15.624-.318c49.031-.006,99.924,9.5,153.782,28.584,155.939,55.254,293.161,87.064,408.327,94.691v1.066c-115.279-7.625-252.617-39.457-408.68-94.758-59.514-21.084-115.625-30.57-169.945-28.107-1.658,2.158-3.312,4.326-4.965,6.523.734,0,1.468-.01,2.2-.01,53.572,0,109.254,11.074,168.487,33.363,158.434,59.617,296.414,91.451,412.906,95.436v.768l-.238-.01c-116.864-3.979-255.841-35.988-413.064-95.148-58.789-22.125-114.267-33.322-167.9-33.322-1.072,0-2.135.006-3.207.016q-2.494,3.337-4.989,6.736c54.634,1.582,111.456,14.281,171.908,38.3,160.023,63.564,299.581,95.547,417.49,95.861v.885q-11.172-.026-22.581-.43c-113.314-4-246.321-36.041-395.343-95.236-60.414-24-117.3-36.855-172.218-38.357q-2.516,3.439-5.017,6.947c55.02,3.422,112.237,17.717,173.084,43.1,161.824,67.514,302.964,99.668,422.074,96.363v1.027q-21.3.6-43.484-.311c-109.683-4.5-237.215-36.785-379.057-95.959-60.838-25.383-118.117-39.863-173.294-43.275q-2.516,3.545-5.032,7.162c55.373,5.217,113,21.055,174.209,47.762,163.8,71.461,306.527,103.836,426.658,96.99v1.268c-120.327,6.844-263.21-25.568-427.163-97.1-61.262-26.727-118.879-42.779-174.319-48.039q-2.53,3.645-5.051,7.367c55.735,6.961,113.724,24.3,175.291,52.285,165.9,75.406,310.224,108.041,431.242,97.744v1.316c-121.237,10.3-265.719-22.379-431.785-97.861-61.215-27.826-119.5-45.17-175.753-51.994q-2.309,3.41-4.6,6.885c56.064,8.668,114.415,27.465,176.32,56.684,168.08,79.338,314.01,112.273,435.821,98.609v1.371c-122.046,13.658-268.144-19.324-436.407-98.746-61.6-29.076-120.194-47.92-176.663-56.512-1.558,2.363-3.107,4.736-4.655,7.143,56.616,10.359,115.439,30.662,177.321,60.91,170.341,83.254,317.87,116.527,440.4,99.58v1.432q-3.2.442-6.428.838c-121.51,14.918-267.039-18.684-434.6-100.578-61.972-30.289-120.866-50.584-177.54-60.881q-2.33,3.618-4.65,7.295c56.688,11.932,115.691,33.518,178.226,65.084,172.664,87.166,321.77,120.813,444.989,100.66v1.486q-8.063,1.315-16.272,2.324c-120.266,14.771-264.051-19.7-429.374-103.16-62.32-31.463-121.5-53.162-178.369-65.121q-2.28,3.63-4.551,7.313c56.988,13.51,116.263,36.486,179,69.273,175.038,90.648,325.732,124.521,449.568,101.307v1.543q-12.242,2.285-24.825,3.83c-119.256,14.652-261.721-20.551-425.443-105.332-62.568-32.7-121.991-55.83-179.041-69.42q-2.344,3.817-4.688,7.705c57.264,15.029,116.821,39.291,179.846,73.137,177.413,94.568,329.676,128.906,454.151,102.652v1.6c-124.789,26.217-277.282-8.2-454.89-102.865-62.906-33.789-122.582-58.219-179.8-73.365q-2.344,3.9-4.679,7.861c57.507,16.512,117.34,42.018,180.642,76.9,179.8,98.455,333.633,133.279,458.73,104.068v1.66a375.12,375.12,0,0,1-39.187,6.914c-117.883,14.484-258.648-22.691-420.325-111.229q-94.123-51.867-180.856-76.619-2.23,3.8-4.45,7.652c58.136,18.107,118.822,44.943,181.5,80.322,182.189,102.328,337.594,137.668,463.314,105.58v1.719a363.811,363.811,0,0,1-45.219,8.441c-117.454,14.432-257.747-23.768-418.915-114.287q-94.581-53.376-181.519-80.322-2.2,3.826-4.388,7.7,87.326,29.147,182.143,83.943c184.579,106.17,341.567,142.047,467.9,107.166v1.779a353.527,353.527,0,0,1-50.632,9.943c-117.173,14.395-257.209-24.844-418.119-117.4q-95-54.826-182.147-83.9-2.173,3.858-4.336,7.775,87.512,31.2,182.758,87.412c186.984,110,345.523,146.438,472.477,108.822v1.848c-127.352,37.512-286.2.961-473.378-109.145q-95.367-56.235-182.724-87.363-2.208,4-4.4,8.061c58.751,22.172,120.061,52.424,183.443,90.553,189.371,113.785,349.49,150.811,477.061,110.555v1.9a337.517,337.517,0,0,1-59.961,12.879c-116.973,14.371-256.966-27-418.033-123.777q-95.753-57.6-183.272-90.7-.822,1.521-1.644,3.053-1.373,2.566-2.764,5.117,88.412,35.165,184.03,93.74c191.786,117.572,353.437,155.205,481.645,112.357v1.969a330.453,330.453,0,0,1-64.021,14.293c-117.011,14.371-257.194-28.08-418.6-127.027q-96.053-58.881-183.834-93.912c-58.27,106.473-137.662,197.863-229.963,264.623-84.815,61.344-176.634,99.154-267.244,110.279a.64.64,0,0,0-.086.01q-14.059,1.723-28.065,2.588a442.658,442.658,0,0,1-52.228.143c-.772.105-1.549.205-2.32.3q-1.766.214-3.531.4-5.425.984-10.807,1.643c-1.239.148-2.473.291-3.707.414q-5.232.967-10.478,1.625l-1.072.135c-.41.047-.82.094-1.225.143q-6.247,1.242-12.432,2.02l-1.082.135c-.929.113-1.858.213-2.787.309q-6.075,1.2-12.093,1.939-1.722.208-3.445.381-6.154,1.245-12.241,1.992-1.808.223-3.616.4-5.932,1.216-11.807,1.959l-1.005.123q-1.772.208-3.54.381c-3.826.787-7.648,1.426-11.488,1.906l-1,.123c-1.339.162-2.678.3-4.012.426q-4.131.861-8.277,1.482Zm5.265-.041c.781-.057,1.572-.119,2.359-.191,1.039-.209,2.068-.434,3.1-.672-.9,0-1.787-.014-2.683-.033C1720.25-18067.537,1719.325-18067.242,1718.4-18066.951Zm6.013-2q2.18,0,4.369-.07c1.534-.4,3.069-.834,4.6-1.281-1.534-.062-3.064-.148-4.6-.258Q1726.6-18069.719,1724.414-18068.953Zm-9.62-.314c1.782.119,3.555.205,5.332.258q2.652-.864,5.308-1.83-2.766-.258-5.527-.623Q1717.34-18070.314,1714.794-18069.268Zm19.56-.037c.967-.072,1.939-.148,2.906-.234,1.02-.209,2.03-.424,3.045-.652q-1.529.015-3.059-.01C1736.283-18069.9,1735.316-18069.6,1734.354-18069.3Zm6.1-1.959q2.38-.015,4.765-.109c1.468-.377,2.949-.781,4.412-1.2-1.625-.047-3.245-.123-4.865-.219Q1742.606-18072,1740.453-18071.264Zm-9.315-.219q2.709.149,5.432.2,2.58-.82,5.156-1.725-2.809-.22-5.608-.553Q1733.622-18072.474,1731.137-18071.482Zm19.731-.225c.982-.076,1.963-.156,2.949-.252.9-.186,1.787-.367,2.683-.566q-1.487.021-2.964.014C1752.646-18072.236,1751.755-18071.963,1750.869-18071.707Zm-29.109-.6q3.009.357,6.013.6c1.844-.7,3.693-1.434,5.532-2.2q-3.095-.422-6.185-.959Q1724.433-18073.532,1721.76-18072.307Zm25.368-1.377c1.906.086,3.807.139,5.718.152,1.649-.51,3.278-1.039,4.922-1.6-1.939-.129-3.879-.3-5.813-.492Q1749.539-18074.617,1747.128-18073.684Zm9.639.139c1.573-.029,3.14-.082,4.713-.152,1.377-.35,2.749-.711,4.126-1.1q-2.387-.041-4.765-.156C1759.484-18074.465,1758.13-18074,1756.768-18073.545Zm-18.793-.83c2.03.215,4.069.387,6.1.52,1.777-.652,3.54-1.334,5.318-2.049q-3.131-.372-6.252-.863Q1740.55-18075.522,1737.975-18074.375Zm31.358-.391q-1.215.372-2.43.719c.848-.07,1.7-.146,2.554-.229.839-.166,1.682-.342,2.521-.523Q1770.655-18074.77,1769.333-18074.766Zm-40.683-.877q3.252.545,6.509.943c1.839-.791,3.683-1.615,5.518-2.473q-1.708-.293-3.417-.625c-1.1-.213-2.187-.428-3.264-.646C1732.209-18077.477,1730.423-18076.543,1728.65-18075.643Zm34.569-.176q2.816.094,5.637.086c1.577-.467,3.145-.963,4.717-1.477q-2.873-.152-5.751-.4C1766.288-18076.99,1764.749-18076.391,1763.219-18075.818Zm9.349.043c1.458-.039,2.916-.092,4.379-.168,1.353-.332,2.711-.68,4.069-1.053-1.51-.01-3.026-.043-4.541-.09Q1774.517-18076.406,1772.568-18075.775Zm-18.75-.635q3.159.293,6.323.459,2.537-.908,5.084-1.893-3.216-.328-6.437-.777Q1756.3-18077.47,1753.818-18076.41Zm-34.569-1.086c.1.023.2.049.286.066q3.459.788,6.928,1.41,2.752-1.365,5.518-2.84-3.881-.814-7.562-1.676Q1721.824-18078.965,1719.249-18077.5Zm65.755.486q-1.194.352-2.387.682c.777-.066,1.563-.139,2.344-.215.867-.172,1.734-.348,2.611-.529C1786.715-18077.043,1785.862-18077.023,1785-18077.01Zm-40.33-.5c2.187.324,4.388.605,6.58.844,1.758-.734,3.526-1.5,5.284-2.287-.443-.066-.886-.133-1.329-.205q-2.78-.451-5.456-.92Q1747.2-18078.744,1744.674-18077.506Zm-9.363-1.658c.7.143,1.42.281,2.135.42,1.587.311,3.173.59,4.76.854,1.758-.84,3.5-1.7,5.256-2.594q-3.745-.686-7.3-1.42C1738.532-18080.959,1736.922-18080.051,1735.311-18079.164Zm43.565,1.225c1.815.033,3.617.043,5.427.02,1.4-.41,2.816-.838,4.226-1.287q-2.723-.114-5.446-.309Q1780.976-18078.7,1778.877-18077.939Zm9.42-.07c1.463-.053,2.916-.125,4.374-.215,1.091-.258,2.192-.533,3.288-.824-1.434,0-2.873-.02-4.3-.053C1790.532-18078.725,1789.412-18078.363,1788.3-18078.01Zm-18.593-.363q3.145.237,6.28.348c1.568-.537,3.14-1.1,4.7-1.682-2.111-.186-4.222-.4-6.328-.658Q1772.03-18079.334,1769.7-18078.373Zm-9.377-.963c2.268.3,4.512.549,6.776.748,1.663-.666,3.316-1.352,4.979-2.066q-3.588-.466-7.014-.977Q1762.7-18080.453,1760.327-18079.336Zm39.668.248-1.491.416c.905-.086,1.815-.178,2.721-.277l1.02-.2C1801.5-18079.125,1800.748-18079.105,1799.995-18079.088Zm-74.4-2.162q3.738.864,7.71,1.682c1.63-.887,3.273-1.8,4.917-2.74q-4.138-.885-8.01-1.834Q1727.9-18082.657,1725.6-18081.25Zm25.483.48q2.108.357,4.274.711c.905.143,1.82.285,2.721.414q2.437-1.116,4.87-2.307-3.81-.592-7.433-1.229Q1753.287-18081.937,1751.078-18080.77Zm42.946.863c1.715.018,3.436.018,5.156-.01,1.353-.377,2.721-.777,4.079-1.191-1.753-.053-3.5-.129-5.251-.238C1796.674-18080.846,1795.349-18080.369,1794.024-18079.906Zm-9.068-.348c1.977.123,3.964.219,5.947.275q2.23-.735,4.469-1.539c-1.425-.1-2.849-.225-4.274-.357-.6-.057-1.191-.119-1.782-.176Q1787.129-18081.122,1784.957-18080.254Zm18.24.232c1.32-.053,2.654-.113,3.979-.2,1.11-.258,2.22-.52,3.335-.8-1.358.01-2.711.006-4.069-.014C1805.36-18080.684,1804.274-18080.35,1803.2-18080.021Zm-27.3-1.033q3.331.378,6.671.633,2.316-.885,4.627-1.844-3.559-.372-7-.785Q1778.045-18082.031,1775.9-18081.055Zm38.729-.033c-.543.143-1.086.289-1.63.434.129-.01.248-.025.372-.033.791-.145,1.572-.287,2.363-.439C1815.366-18081.113,1814.995-18081.1,1814.628-18081.088Zm-73.289-1.506q3.631.735,7.462,1.424,2.251-1.172,4.508-2.406-4.01-.735-7.786-1.539Q1743.421-18083.82,1741.339-18082.594Zm25.073.285q3.352.486,6.852.934c.119.02.238.033.357.049,1.463-.648,2.93-1.311,4.393-2q-3.9-.492-7.629-1.053C1769.061-18083.666,1767.741-18082.98,1766.412-18082.309Zm-50.856-1.463q3.931,1.072,8.143,2.078,2.337-1.415,4.689-2.9-4.324-1.1-8.319-2.277Q1717.8-18085.285,1715.556-18083.771Zm93.4,1.916c1.682,0,3.383-.029,5.075-.076,1.148-.3,2.292-.629,3.44-.959-1.677-.033-3.359-.09-5.036-.166C1811.268-18082.643,1810.115-18082.242,1808.958-18081.855Zm-9.039-.205c1.935.09,3.883.152,5.828.182,1.329-.42,2.659-.863,3.993-1.316-.233-.014-.467-.027-.7-.043q-2.652-.164-5.241-.357C1802.5-18083.066,1801.2-18082.557,1799.918-18082.061Zm20.818-.791c-.848.258-1.692.51-2.54.758,1.053-.053,2.1-.119,3.154-.186.862-.191,1.72-.387,2.578-.592C1822.866-18082.855,1821.8-18082.852,1820.736-18082.852Zm-29.871.133c.1.01.21.025.31.029q3.045.293,6.094.48,2.051-.756,4.112-1.566-3.467-.272-6.814-.586Q1792.716-18083.518,1790.865-18082.719Zm52.519-1.338c-2.3.41-4.6.771-6.895,1.1a448.148,448.148,0,0,0,50.822-.266c200.807-12.361,406.2-160.178,525.081-377.3-3.536-1.41-7.038-2.777-10.554-4.131-54.077,94.2-122.944,177.787-199.311,241.889-39.11,32.826-79.936,60.371-121.357,81.875-42.636,22.133-85.921,37.867-128.642,46.75-36.914,7.527-72.831,10.83-107.039,9.844C1844.789-18084.209,1844.084-18084.133,1843.384-18084.057Zm-86.678.209q3.7.636,7.59,1.225c1.353-.672,2.7-1.357,4.045-2.062-2.687-.42-5.313-.857-7.876-1.33Q1758.578-18084.908,1756.706-18083.848Zm71.454.877c-.238.066-.477.123-.715.186.777-.076,1.544-.156,2.32-.242C1829.232-18083,1828.694-18082.984,1828.16-18082.971Zm-46.6-.738c2.354.275,4.76.543,7.214.785q1.894-.8,3.779-1.633c-2.583-.258-5.122-.539-7.6-.84C1783.823-18084.82,1782.693-18084.262,1781.559-18083.709Zm-50.284-1.119q3.931.949,8.134,1.834,2.116-1.23,4.245-2.521-4.31-.943-8.334-1.982C1733.968-18086.592,1732.619-18085.7,1731.276-18084.828Zm83.071,1.086c1.863.066,3.736.1,5.6.119.229-.072.453-.139.686-.211-1.6-.146-3.2-.295-4.789-.461C1815.342-18084.109,1814.842-18083.924,1814.347-18083.742Zm9.425-.062,1.82.143c.6-.014,1.177-.027,1.773-.047,1.039-.262,2.082-.539,3.116-.814-1.163-.02-2.33-.039-3.5-.076-.248-.006-.491-.016-.739-.02C1825.42-18084.344,1824.6-18084.076,1823.771-18083.8Zm-18.378-.443c1.22.092,2.444.172,3.693.248.858.053,1.711.1,2.563.143.629-.219,1.272-.447,1.9-.676q-2.937-.322-5.87-.678C1806.918-18084.881,1806.151-18084.562,1805.393-18084.248Zm28.427-.258c-.748.211-1.487.42-2.23.625,1.4-.072,2.8-.156,4.193-.258.624-.133,1.253-.271,1.882-.41Q1835.743-18084.511,1833.821-18084.506Zm-62.22-.518q3.8.557,7.8,1.053,1.722-.823,3.454-1.684c-2.754-.348-5.432-.719-8.057-1.119C1773.731-18086.182,1772.668-18085.6,1771.6-18085.023Zm44.738.543c1.639.166,3.278.318,4.908.457.729-.225,1.458-.453,2.192-.691-1.977-.07-3.917-.152-5.842-.242C1817.177-18084.795,1816.758-18084.639,1816.338-18084.48Zm-69.748-1.291q3.838.8,7.919,1.533c1.277-.705,2.564-1.434,3.841-2.172q-4.16-.794-8.091-1.678Q1748.422-18086.91,1746.59-18085.771Zm49.369.766q3.452.322,7.038.586c.853-.342,1.715-.7,2.573-1.053-1.391-.176-2.787-.361-4.174-.553-.92-.076-1.844-.162-2.749-.242Q1797.3-18085.626,1795.959-18085.006Zm52.852.291q50.06,1.172,103.646-9.777c168.329-35.012,335.992-173.338,449.043-370.289-3.493-1.344-6.942-2.641-10.411-3.922-.057.1-.114.186-.171.281-58.885,97.551-130.034,183.219-205.753,247.74-39.868,33.975-80.86,61.982-121.843,83.248-43.065,22.352-86.373,37.377-128.724,44.656q-13.208,2.273-25.916,3.836a444.184,444.184,0,0,1-54.6,3.445C1852.332-18085.215,1850.564-18084.953,1848.811-18084.715Zm-40.73-.666q2.995.357,5.961.666c.338-.119.677-.248,1.01-.371-2.268-.119-4.512-.258-6.709-.406C1808.257-18085.453,1808.167-18085.42,1808.081-18085.381Zm-21.9-.639c2.53.295,5.132.576,7.781.828.91-.414,1.83-.834,2.74-1.262q-4.081-.4-7.991-.883C1787.863-18086.887,1787.029-18086.453,1786.181-18086.02Zm50.16.771c1.63-.023,3.254-.066,4.889-.129.41-.1.815-.2,1.225-.3-1.4-.043-2.8-.09-4.193-.152C1837.618-18085.635,1836.985-18085.439,1836.341-18085.248Zm-115.058-2.488c-.086.063-.172.125-.257.182q4.052,1.187,8.424,2.277c1.367-.877,2.73-1.768,4.1-2.682-2.959-.787-5.794-1.615-8.524-2.479C1723.776-18089.521,1722.532-18088.621,1721.283-18087.736Zm40.273,1.078q3.9.7,8.01,1.328c1.086-.57,2.168-1.156,3.254-1.752-2.807-.449-5.527-.926-8.181-1.436Q1763.1-18087.574,1761.556-18086.658Zm57.684,1.063c2.02.09,4.093.166,6.171.232l.048-.014q-2.773-.223-5.551-.486C1819.688-18085.771,1819.464-18085.682,1819.24-18085.6Zm10-.053c1.425.1,2.84.2,4.265.281.681-.2,1.348-.387,2.025-.592-.448-.018-.9-.043-1.348-.066-1.239-.02-2.464-.047-3.683-.07Q1829.866-18085.876,1829.237-18085.648Zm15.753.09c.214-.01.424-.023.643-.033l-.462-.014C1845.109-18085.586,1845.047-18085.572,1844.99-18085.559Zm-39.029-.08a.246.246,0,0,0,.048-.02c-.167-.01-.324-.023-.491-.037C1805.665-18085.678,1805.813-18085.658,1805.96-18085.639Zm3.807-.473q3.424.223,6.957.4c.314-.119.639-.244.948-.363q-3.209-.319-6.4-.7C1810.768-18086.555,1810.263-18086.33,1809.767-18086.111Zm568.495-383.045c-63.954,100.092-136.762,186.7-210.546,250.453-40.578,35.061-81.723,63.52-122.3,84.592-43.389,22.527-86.707,36.895-128.747,42.7q-4.36.6-8.653,1.129-22.271,2.739-42.913,3.445c-1.506.225-3.016.43-4.522.619l-1.234.148c-.758.09-1.51.182-2.268.262a455.768,455.768,0,0,0,51.189-3.488c8.634-1.062,17.368-2.354,26.259-3.883,160.281-27.561,330.764-167.92,456.038-375.449.043-.072.086-.148.133-.215-3.421-1.264-6.852-2.5-10.254-3.713C2379.72-18471.424,2378.991-18470.295,2378.262-18469.156Zm-531.709,383.184c-.148.039-.3.076-.438.119.529.01,1.058.014,1.591.023.286-.057.577-.119.862-.176C1847.9-18085.992,1847.224-18085.982,1846.552-18085.973Zm-25.473-.352q2.859.264,5.737.49c.324-.109.653-.225.977-.334q-3.295-.1-6.509-.242C1821.213-18086.383,1821.146-18086.354,1821.079-18086.324Zm22.309.408c.062-.014.114-.027.176-.043h-1.811C1842.3-18085.939,1842.85-18085.93,1843.389-18085.916Zm-107.105-2.234q4.074,1.037,8.443,1.982c1.244-.762,2.482-1.539,3.731-2.334q-4.388-1.022-8.51-2.174C1738.723-18089.822,1737.5-18088.975,1736.283-18088.15Zm63.611,1.277c2.473.225,4.984.424,7.557.605.577-.248,1.163-.5,1.744-.758-.734-.086-1.463-.182-2.2-.277q-2.666-.214-5.275-.471C1801.119-18087.469,1800.5-18087.168,1799.895-18086.873Zm-24.01-.516q4,.6,8.2,1.115c.862-.434,1.72-.871,2.583-1.318q-4.26-.551-8.329-1.2C1777.523-18088.312,1776.7-18087.85,1775.884-18087.389Zm64.874.768c1.377,0,2.759,0,4.164,0,.31,0,.62,0,.934-.006-1.606-.018-3.2-.051-4.784-.094C1840.963-18086.687,1840.868-18086.658,1840.758-18086.621Zm-8.553-.1c1.834.039,3.7.066,5.58.08.181-.057.357-.109.534-.166-1.773-.057-3.54-.133-5.3-.215C1832.749-18086.92,1832.477-18086.82,1832.205-18086.721Zm-9.482-.275c2.24.084,4.5.16,6.8.219.324-.115.648-.234.967-.348-2.311-.068-4.593-.148-6.847-.254C1823.338-18087.254,1823.033-18087.125,1822.723-18087Zm27.484,0c-.152.047-.3.09-.457.133.953,0,1.915-.006,2.873-.014.253-.059.505-.115.758-.172C1852.318-18087.031,1851.26-18087.012,1850.207-18087Zm-8.477.057c1.758.033,3.531.057,5.3.066.114-.029.229-.062.343-.09-1.887.014-3.764.018-5.613.014A.22.22,0,0,0,1841.73-18086.939Zm16.229-.225c-.2.053-.4.1-.6.152q.829-.05,1.658-.109l.486-.086Zm-68.09-.785c.262.037.515.08.777.123q3.588.422,7.324.777c.634-.3,1.253-.605,1.887-.91q-4.174-.431-8.2-.959Q1790.763-18088.432,1789.869-18087.949Zm-38.624-.777q3.981.879,8.2,1.678c1.053-.615,2.092-1.234,3.15-1.869q-4.274-.85-8.3-1.814Q1752.765-18089.719,1751.245-18088.727Zm62.382.877q3.416.363,6.857.666c.257-.1.519-.209.777-.314q-3.752-.193-7.4-.457C1813.784-18087.922,1813.708-18087.883,1813.627-18087.85Zm-.748.348q2.816.179,5.7.318c-1.744-.166-3.493-.342-5.227-.537C1813.193-18087.65,1813.036-18087.578,1812.879-18087.5Zm552.732-382.387c-70.806,104.813-143.275,189.99-215.406,253.172-84.467,73.984-167.248,116.373-246.135,126.061-1.782.219-3.555.424-5.337.609q-12.05,1.251-23.491,1.953-1.529.208-3.059.4c-1.01.123-2.02.242-3.026.352,15.238-.723,30.991-2.254,47.444-4.525,153.358-21.17,321.487-158.775,461.275-377.533.71-1.105,1.415-2.211,2.125-3.311-3.364-1.191-6.742-2.363-10.087-3.5C2368.475-18474.115,2367.045-18472.014,2365.611-18469.889Zm-562.557,381.453c1.153.162,2.311.324,3.474.477,1.349.109,2.716.209,4.093.3l.672-.3q-2.8-.328-5.594-.7c-.619-.062-1.234-.123-1.849-.191C1803.583-18088.7,1803.316-18088.57,1803.054-18088.436Zm-37.443-.682q4.038.765,8.3,1.43c.834-.463,1.677-.939,2.511-1.416q-4.289-.706-8.372-1.533C1767.236-18090.123,1766.426-18089.617,1765.611-18089.117Zm498.727-386.619c-44.819,43.914-88.541,92.82-130.83,140.117-97.923,109.525-191.7,214.387-288.914,247.717,2.068,0,4.136-.01,6.242-.039,37.7-11,77.134-33.357,120.161-67.809,64.788-51.865,127.685-122.9,194.274-198.109,36.142-40.826,73.513-83.033,111.108-121.748q10.714-11.036,21.318-21.266-4.438-1.022-8.848-1.973Q2276.627-18487.78,2264.338-18475.736Zm-12.665-.725c-51.623,48.135-100.949,102.955-148.646,155.975-62.925,69.934-122.358,135.99-182.481,182.367-29.919,23.076-57.989,39.7-84.939,50.117.086,0,.181,0,.262,0,1.954.043,3.907.072,5.894.086,97.9-32.264,192.359-137.914,291.063-248.312,42.3-47.311,86.035-96.227,130.868-140.164q12.086-11.836,24.039-22.7-4.36-.937-8.691-1.8Q2265.406-18489.263,2251.673-18476.461Zm25.325,1.453c-37.581,38.7-74.947,80.9-111.079,121.721-66.613,75.236-129.533,146.3-194.379,198.215-34.855,27.9-66.923,47.533-98.019,60.014q-10.092,4.052-19.974,7.07c1.377-.029,2.768-.057,4.164-.1,44.266-11.064,90.9-36.918,141.007-78.016,67.781-55.578,135.809-133.531,201.593-208.912,29.023-33.254,59.037-67.643,88.751-99.811q9.37-10.148,18.664-19.654-4.525-1.116-9.015-2.154Q2287.884-18486.22,2277-18475.008Zm-465.444,386.934a.985.985,0,0,0,.114-.053c-.648-.047-1.291-.1-1.935-.156C1810.339-18088.213,1810.949-18088.141,1811.554-18088.074Zm427.454-389.115c-58.141,51.59-112.456,111.746-164.984,169.916-61.353,67.947-119.3,132.125-177.492,176.354-24.587,18.693-47.887,32.8-70.349,42.465,2.306.143,4.617.262,6.957.357,27.512-10.316,56.188-27.154,86.816-50.785,60.057-46.324,119.461-112.346,182.353-182.252,47.716-53.027,97.051-107.867,148.707-156.031q13.48-12.571,26.807-23.963c-2.854-.566-5.68-1.105-8.524-1.629Q2254.21-18490.679,2239.008-18477.189Zm50.656,2.916c-29.709,32.158-59.719,66.543-88.737,99.8-65.808,75.408-133.86,153.381-201.693,209-36.513,29.947-70.12,51.275-102.745,65.217a259.74,259.74,0,0,1-34.407,12.027c1.053-.039,2.12-.082,3.183-.129,129.958-27.7,253.607-172.389,373.7-312.893,20.613-24.109,41.922-49.039,62.787-72.8q8.062-9.185,16.067-17.869c-3.069-.8-6.113-1.582-9.163-2.334Q2299.181-18484.59,2289.664-18474.273Zm-509.753,384.57q4.045.756,8.048,1.434c.572-.3,1.148-.605,1.72-.91q-4.31-.6-8.448-1.3Zm-.586.338q3.61.565,7.367,1.053-3.324-.577-6.623-1.209c-.119-.02-.238-.043-.353-.068C1779.587-18089.514,1779.453-18089.437,1779.325-18089.365Zm523-384.184c-20.865,23.758-42.174,48.684-62.782,72.793-118.846,139.045-241.2,282.182-369.827,312.186.586-.027,1.158-.061,1.744-.09,59.332-10.535,122.153-45.352,190.7-105.471,76-66.65,149.561-155.363,220.71-241.16,10.373-12.508,21.1-25.439,31.563-37.98q6.783-8.127,13.542-15.9c-3.107-.867-6.228-1.705-9.32-2.52Q2310.505-18482.866,2302.324-18473.549Zm-75.981-4.365c-64.464,54.426-123.282,119.475-180.16,182.387-59.919,66.26-116.506,128.852-172.966,171.217-19.669,14.762-38.491,26.445-56.721,35.121,2.464.225,4.932.42,7.433.592,22.957-9.648,46.786-23.973,71.988-43.127,58.117-44.172,116.035-108.316,177.354-176.225,52.542-58.193,106.876-118.369,165.065-170q14.9-13.222,29.623-25.053c-2.792-.506-5.565-.992-8.343-1.459Q2243.027-18492.008,2226.343-18477.914ZM1725.9-18091.086q4.138,1.295,8.62,2.479,1.858-1.251,3.726-2.549-4.453-1.286-8.615-2.721C1728.393-18092.934,1727.144-18092,1725.9-18091.086Zm67.566,1.172c2.606.439,5.241.85,7.862,1.23l.7-.348q-4.217-.466-8.291-1.029C1793.648-18090.014,1793.557-18089.961,1793.467-18089.914Zm11.445.535c1.653.166,3.331.324,5.017.471l-.61-.07c-1.444-.145-2.873-.3-4.3-.459Zm-62.739-2.873c-.438.314-.881.629-1.325.938q4.153,1.151,8.6,2.178,1.551-.993,3.107-2.02-4.46-1.107-8.629-2.354C1743.34-18093.086,1742.759-18092.672,1742.173-18092.252Zm50.355,2.857c.424.053.867.111,1.291.158-.405-.062-.81-.129-1.21-.2C1792.581-18089.422,1792.557-18089.408,1792.528-18089.395Zm522.456-383.426c-10.473,12.547-21.194,25.479-31.567,37.986-71.164,85.811-144.753,174.553-220.786,241.236-41.093,36.043-79.011,62.34-115.935,80.4-23.219,11.359-45.662,19.3-67.714,23.9,67.771-10.311,139.4-50.479,217.87-121.967,83.443-76.02,164.851-178.717,230.268-261.23q5.554-7.011,11.083-13.756c-3.159-.93-6.323-1.834-9.468-2.711Q2321.874-18481.073,2314.984-18472.82Zm-101.311-5.822c-70.654,56.746-133.57,126.359-194.412,193.684-58.58,64.826-113.914,126.055-168.8,166.781a333.716,333.716,0,0,1-43.875,27.926c2.583.32,5.2.611,7.829.863,18.669-8.715,37.967-20.617,58.165-35.775,56.378-42.3,112.933-104.852,172.813-171.078,56.9-62.936,115.744-128.014,180.265-182.486q16.339-13.793,32.487-25.969-4.088-.68-8.162-1.291Q2231.877-18493.265,2213.673-18478.643Zm-458.5,387.318q4.081.967,8.4,1.816c.829-.506,1.668-1.025,2.5-1.539q-4.324-.914-8.42-1.959C1756.82-18092.434,1756-18091.877,1755.171-18091.324Zm39.539.721q4.131.571,8.4,1.033c.048-.023.1-.053.143-.07q-4.188-.5-8.272-1.115C1794.887-18090.705,1794.8-18090.656,1794.71-18090.6Zm-12.751-.314q4.2.691,8.586,1.271c.062-.037.129-.072.2-.109q-4.11-.709-8.2-1.51C1782.35-18091.152,1782.15-18091.033,1781.96-18090.918Zm-13.022-.281q4.124.82,8.472,1.529c.167-.1.314-.182.476-.277q-4.124-.806-8.239-1.705Zm.858-.549q4.153.894,8.286,1.691c.424-.248.863-.5,1.287-.752q-4.31-.765-8.448-1.664C1770.543-18092.229,1770.171-18091.99,1769.795-18091.748Zm557.845-380.338c-65.431,82.537-146.859,185.254-230.34,261.311-75.3,68.605-144.367,108.406-209.765,120.691,71.426-9.73,145.977-50.209,227.052-123.121,83.748-75.322,160.844-172.951,225.217-258.52q4.367-5.795,8.71-11.426-4.824-1.494-9.62-2.9Q2333.277-18479.2,2327.64-18472.086Zm-536.031,381.857c.071-.037.129-.07.2-.109-2.282-.332-4.531-.7-6.752-1.076Q1788.323-18090.793,1791.609-18090.229Zm409.4-389.133c-76.767,58.611-143.433,132.535-207.907,204.027-69.162,76.686-132.7,147.131-196.533,183.672q4.11.65,8.3,1.2c69.472-35.789,138.253-111.893,213.572-195.24,60.871-67.357,123.816-137.006,194.541-193.8q17.8-14.294,35.389-26.717-4-.592-7.967-1.125Q2220.758-18494.449,2201.008-18479.361Zm151.943,8.738c-78.906,110.637-150.976,194.336-220.319,255.889-41.9,37.189-83.319,66.547-123.125,87.25-37.607,19.559-74.812,31.945-110.848,36.928h.021c80.36-8.387,164.894-50.965,251.186-126.545,72.1-63.154,144.543-148.3,215.316-253.074q2.116-3.129,4.226-6.209-4.975-1.685-9.93-3.3Q2356.219-18475.2,2352.951-18470.623Zm-12.656-.734c-64.393,85.592-141.512,183.254-225.3,258.609-42.517,38.234-84.062,68.029-123.487,88.561-32.7,17.029-65,28.252-96.394,33.531,74.909-9.416,154.606-51.236,237.139-124.5,69.315-61.523,141.355-145.2,220.238-255.793q3.216-4.5,6.423-8.914c-3.273-1.059-6.519-2.088-9.778-3.1Q2344.722-18477.243,2340.3-18471.357Zm-556.1,379.086a.547.547,0,0,1,.086.014q4.181.75,8.51,1.383c.1-.059.2-.115.3-.172q-4.3-.671-8.491-1.473C1784.456-18092.434,1784.333-18092.357,1784.194-18092.271Zm-12.66-.6q4.188.888,8.558,1.641c.224-.135.434-.258.658-.391-2.8-.562-5.6-1.164-8.391-1.787C1772.087-18093.234,1771.806-18093.049,1771.534-18092.873Zm-13.089-.68c2.764.7,5.589,1.344,8.51,1.947q.379-.234.758-.477-4.267-.949-8.51-2Q1758.824-18093.812,1758.445-18093.553Zm-42.874-1.148c2.759,1.076,5.637,2.105,8.662,3.088q1.894-1.395,3.8-2.832-4.467-1.594-8.605-3.383Q1717.5-18096.24,1715.57-18094.7Zm29.147.609q4.21,1.251,8.715,2.35c.843-.559,1.677-1.125,2.521-1.7q-4.474-1.178-8.7-2.516C1746.414-18095.33,1745.565-18094.7,1744.717-18094.092Zm-14.247-.424c2.783.957,5.67,1.863,8.682,2.725.743-.52,1.482-1.043,2.23-1.572.3-.215.6-.434.9-.648q-4.488-1.386-8.667-2.939C1732.567-18096.131,1731.514-18095.322,1730.47-18094.516Zm457.868-385.576c-82.823,60.1-156.107,141.643-220.772,213.592-63.73,70.91-122.558,136.361-181.38,173q4.231.838,8.534,1.545c64.112-36.232,127.952-107.025,197.514-184.158,64.512-71.531,131.215-145.5,208.064-204.176q19.269-14.71,38.329-27.3c-2.6-.338-5.175-.656-7.767-.961Q2209.647-18495.566,2188.338-18480.092Zm-429.04,385.947q4.3,1.037,8.553,1.979c.386-.244.762-.486,1.144-.734q-4.324-.973-8.482-2.092C1760.108-18094.707,1759.708-18094.426,1759.3-18094.145Zm26.007,1.191c.953.176,1.916.354,2.873.52q-1.422-.264-2.84-.543Zm-11.369-1.5q4.224.97,8.481,1.828c.133-.08.262-.162.4-.242q-4.3-.85-8.5-1.84Zm-.119.08c1.963.443,3.936.863,5.947,1.262q-2.952-.627-5.885-1.3Zm-12.784-.986c2.8.738,5.646,1.43,8.572,2.072.291-.186.567-.367.858-.557-2.878-.662-5.756-1.363-8.615-2.092Q1761.44-18095.651,1761.032-18095.359Zm13.909.234q4.231.984,8.577,1.828c.014-.01.043-.023.057-.033-2.859-.58-5.7-1.205-8.515-1.877C1775.022-18095.178,1774.979-18095.154,1774.941-18095.125Zm400.727-385.686c-88.856,61.219-165.489,146.893-233.108,222.479-55.058,61.553-107.067,119.688-157.947,156.463q-4.4,3.19-8.753,6.123,4.245,1.017,8.567,1.893c59.056-36.395,118.155-102.16,182.233-173.461,64.7-71.992,138.039-153.588,220.962-213.758q20.749-15.053,41.293-27.7c-2.521-.287-5.041-.553-7.548-.8Q2198.554-18496.6,2175.668-18480.811ZM1747.981-18096.5c2.84.9,5.756,1.729,8.772,2.516l.748-.52q-4.517-1.137-9.02-2.367C1748.315-18096.746,1748.148-18096.623,1747.981-18096.5Zm.553-.414q4.546,1.236,9.058,2.348c.424-.289.853-.59,1.272-.881q-4.46-1.251-8.744-2.664C1749.592-18097.709,1749.068-18097.309,1748.534-18096.912Zm-14.195-.611q4.21,1.553,8.734,2.941,1.294-.937,2.583-1.893-4.481-1.465-8.71-3.121C1736.074-18098.895,1735.207-18098.209,1734.339-18097.523Zm29,.516q4.224,1.178,8.591,2.2l.076-.047q-4.331-1.037-8.629-2.178A.2.2,0,0,1,1763.343-18097.008Zm.062-.043q4.31,1.143,8.653,2.164c.133-.086.271-.178.4-.264q-4.324-1.058-8.558-2.258C1763.739-18097.285,1763.572-18097.17,1763.405-18097.051Zm-43.194-1.42q4.138,1.787,8.653,3.393,1.6-1.216,3.2-2.459c-2.983-1.148-5.846-2.363-8.615-3.641C1722.37-18100.268,1721.288-18099.361,1720.211-18098.471Zm44.251.662q4.253,1.192,8.62,2.244c.043-.029.09-.057.133-.086-2.9-.709-5.761-1.463-8.615-2.264C1764.553-18097.881,1764.511-18097.848,1764.463-18097.809Zm-13.894-.643q4.3,1.406,8.81,2.648.4-.284.8-.562-4.56-1.192-9.077-2.492C1750.921-18098.719,1750.75-18098.586,1750.568-18098.451Zm11.969,2.025c.476.117.953.242,1.429.361l-1.4-.387C1762.562-18096.441,1762.547-18096.436,1762.538-18096.426Zm400.456-385.109c-94.874,62.02-174.624,151.691-244.987,230.8-53.248,59.871-103.579,116.467-152.639,152.262,2.854.8,5.751,1.572,8.653,2.281,54.253-36.273,108.773-97.23,167.6-162.986,67.661-75.639,144.352-161.373,233.332-222.678q22.228-15.325,44.271-27.937c-2.358-.229-4.722-.437-7.076-.633Q2187.507-18497.565,2162.994-18481.535Zm-411.243,382.178c3.035.877,6.066,1.707,9.12,2.5a.594.594,0,0,1,.076-.053q-4.474-1.286-8.806-2.744C1752.008-18099.553,1751.884-18099.457,1751.75-18099.357Zm-5.37,2.35.438-.324q-3.981-1.116-7.943-2.307Q1742.535-18098.259,1746.38-18097.008Zm-8.772-3.121c.319.129.648.252.967.377q4.152,1.242,8.291,2.381c.562-.414,1.129-.842,1.687-1.266q-4.474-1.532-8.772-3.256C1739.057-18101.3,1738.332-18100.715,1737.608-18100.129Zm24.115,2.668.014-.014c-.329-.092-.662-.182-1-.271C1761.066-18097.65,1761.4-18097.557,1761.723-18097.461Zm-8.853-2.758q3.445,1.157,6.976,2.205c.639.176,1.277.354,1.916.523.181-.127.353-.252.534-.381q-4.481-1.307-8.858-2.787C1753.246-18100.51,1753.061-18100.363,1752.87-18100.219Zm-28.756-1.521q4.174,1.916,8.667,3.637c.882-.691,1.768-1.393,2.649-2.092q-4.467-1.808-8.653-3.816Q1725.441-18102.869,1724.114-18101.74Zm29.819.7q4.41,1.471,8.915,2.771l.143-.1q-4.51-1.3-8.948-2.758C1754.009-18101.1,1753.966-18101.072,1753.932-18101.043Zm396.391-381.221c-100.9,62.52-183.548,156.088-256.47,238.635-48.43,54.826-94.407,106.867-139.082,141.928,2.978.977,5.966,1.9,8.991,2.773,49.2-35.68,99.763-92.525,153.263-152.678,70.416-79.178,150.227-168.914,245.249-231.035q23.708-15.5,47.268-27.994c-2.263-.176-4.508-.338-6.761-.484A562.021,562.021,0,0,0,2150.324-18482.264ZM1749-18098.971c.157-.119.31-.238.467-.357q-4.41-1.286-8.777-2.687Q1744.751-18100.407,1749-18098.971Zm-8.234-3.727c3.116,1,6.218,1.953,9.354,2.869.162-.119.31-.234.467-.354q-4.488-1.559-8.853-3.316C1741.41-18103.227,1741.086-18102.965,1740.767-18102.7Zm-13.38-1.844q4.217,2.016,8.7,3.816c.734-.586,1.468-1.182,2.2-1.777q-1.58-.65-3.145-1.334c-2.044-.691-4.088-1.4-6.118-2.125C1728.474-18105.48,1727.931-18105.014,1727.387-18104.541Zm15.033.477q4.374,1.749,8.9,3.32c.186-.146.376-.295.567-.437q-4.524-1.567-8.958-3.312C1742.759-18104.346,1742.592-18104.207,1742.421-18104.064Zm.967-.807c2.969,1.164,5.956,2.26,9,3.3.033-.027.062-.053.1-.076-3.045-1.02-6.08-2.1-9.082-3.234C1743.393-18104.875,1743.388-18104.875,1743.388-18104.871Zm394.261-378.111c-106.934,62.719-192.292,160.1-267.6,246.02-43.761,49.918-85.473,97.5-125.946,131.492q4.524,1.717,9.115,3.25c44.8-34.984,90.967-87.24,139.611-142.312,72.984-82.619,155.7-176.264,256.775-238.889q25.18-15.6,50.26-27.885c-2.135-.127-4.283-.242-6.413-.348A545.586,545.586,0,0,0,2137.649-18482.982Zm-423.461,376.148q4.067,2.323,8.462,4.412,1.344-1.134,2.687-2.291c-2.916-1.439-5.732-2.955-8.477-4.555C1715.966-18108.449,1715.08-18107.639,1714.189-18106.834Zm15.715.1c1.015.484,2.039.967,3.069,1.434,2.054.715,4.126,1.41,6.194,2.082.357-.295.715-.59,1.077-.887q-4.489-1.852-8.868-3.922C1730.885-18107.6,1730.394-18107.162,1729.9-18106.732Zm2.111-1.859q4.388,2.065,8.915,3.922c.167-.139.334-.277.5-.414q-4.681-1.717-9.315-3.6C1732.081-18108.654,1732.047-18108.625,1732.014-18108.592Zm-14.581-1.2q4.124,2.4,8.515,4.557c.5-.43.991-.857,1.491-1.291q-4.839-1.746-9.615-3.627C1717.691-18110.031,1717.562-18109.916,1717.433-18109.793Zm14.738,1.059q4.01,1.644,8.043,3.15-3.931-1.608-7.8-3.369C1732.338-18108.883,1732.252-18108.807,1732.171-18108.734Zm392.8-374.973c-112.98,62.648-200.874,163.783-278.422,253.016-39.215,45.119-76.762,88.326-113.185,120.889,3.059,1.311,6.123,2.561,9.215,3.756,40.583-33.949,82.461-81.723,126.4-131.85,75.38-86,160.82-183.467,267.954-246.307a547,547,0,0,1,53.352-27.588c-2.044-.086-4.093-.162-6.128-.225A530.925,530.925,0,0,0,2124.975-18483.707Zm-406.588,373.029q4.8,1.887,9.644,3.635a.956.956,0,0,0,.072-.066q-4.4-2.165-8.625-4.58C1719.115-18111.35,1718.749-18111.012,1718.386-18110.678Zm1.448-1.35q4.231,2.423,8.639,4.594l1.463-1.277q-4.438-2.15-8.791-4.541C1720.707-18112.842,1720.273-18112.432,1719.835-18112.027Zm10.74,2.75c.01-.01.019-.014.024-.023-.167-.072-.334-.139-.505-.211C1730.256-18109.436,1730.413-18109.359,1730.575-18109.277Zm-8.834-4.531q3.552,1.937,7.185,3.727c.572.242,1.158.49,1.734.729.1-.092.2-.176.3-.268q-4.531-2.1-8.987-4.406Zm390.554-370.623c-119.041,62.3-209.307,167.146-288.948,259.648-36.123,41.959-68.853,79.975-100.682,110.1q4.589,2.215,9.22,4.24c36.509-32.553,74.194-75.914,113.562-121.209,77.625-89.322,165.609-190.562,278.813-253.336a538.223,538.223,0,0,1,56.164-27.125q-2.8-.064-5.594-.1A520.09,520.09,0,0,0,2112.3-18484.432Zm-396.21,373.848.2-.18c-.491-.191-.977-.391-1.468-.586C1715.237-18111.094,1715.656-18110.836,1716.085-18110.584Zm4.274-3.988c.067-.061.138-.127.2-.189-1.463-.715-2.93-1.449-4.384-2.2Q1718.26-18115.737,1720.359-18114.572Zm683.209-353.111c-.3.543-.615,1.086-.924,1.631,3.5,1.344,7,2.711,10.526,4.105.934-1.715,1.854-3.42,2.778-5.141q.815-1.515,1.625-3.025-5.218-1.966-10.4-3.85Q2405.369-18470.84,2403.568-18467.684Zm-11.641-2.4q5.175,1.907,10.373,3.9l.958-1.672q1.78-3.132,3.569-6.229-5.132-1.863-10.235-3.635Q2394.255-18473.929,2391.927-18470.084Zm-10.6-3.836c3.388,1.2,6.8,2.434,10.207,3.688q2.323-3.838,4.66-7.629-5.053-1.758-10.073-3.426Q2383.718-18477.634,2381.326-18473.92Zm26.65-1.436c3.44,1.25,6.9,2.531,10.359,3.832q2.194-4.046,4.4-8.053-5.124-1.822-10.221-3.561C2411-18480.562,2409.481-18477.961,2407.976-18475.355Zm-37.138-2.205c3.335,1.129,6.69,2.3,10.04,3.482q2.394-3.709,4.789-7.357-4.975-1.649-9.92-3.221Q2373.294-18481.132,2370.838-18477.561Zm26.6-1.539q5.082,1.772,10.187,3.621,2.273-3.917,4.541-7.771-5.039-1.723-10.054-3.346Q2399.771-18482.872,2397.441-18479.1Zm-36.985-1.916q4.924,1.6,9.877,3.283c1.639-2.387,3.264-4.736,4.9-7.086q-4.9-1.544-9.763-3.016Q2362.964-18484.453,2360.456-18481.016Zm26.555-1.629q5,1.664,10.03,3.406,2.33-3.768,4.67-7.49c-3.307-1.072-6.618-2.121-9.911-3.141C2390.208-18487.49,2388.6-18485.066,2387.01-18482.645Zm26.426-2.049q5.075,1.729,10.168,3.545,2.166-3.911,4.336-7.771c-3.364-1.121-6.69-2.2-10.04-3.264C2416.414-18489.711,2414.918-18487.205,2413.436-18484.693Zm-63.268.4q4.846,1.509,9.725,3.088c1.668-2.291,3.335-4.551,5-6.8-3.207-.967-6.428-1.91-9.62-2.826Q2352.724-18487.586,2350.168-18484.289Zm26.526-1.715q4.917,1.564,9.868,3.211,2.387-3.639,4.784-7.213c-3.254-1.006-6.513-1.988-9.754-2.941Q2379.148-18489.508,2376.694-18486Zm-36.714-1.373c3.183.943,6.361,1.906,9.563,2.9q2.551-3.3,5.1-6.533c-3.169-.9-6.313-1.777-9.468-2.631Q2342.58-18490.54,2339.981-18487.377Zm63.106-.768c3.321,1.082,6.666,2.2,10,3.336q2.23-3.773,4.465-7.484c-3.312-1.049-6.585-2.064-9.882-3.055C2406.141-18492.971,2404.612-18490.559,2403.087-18488.145Zm-36.613-1.033q4.839,1.465,9.706,3.012c1.634-2.336,3.259-4.637,4.894-6.934q-4.81-1.406-9.6-2.734Q2368.97-18492.538,2366.474-18489.178Zm-36.59-1.105c3.13.877,6.256,1.777,9.406,2.707q2.595-3.152,5.184-6.252c-3.107-.838-6.228-1.658-9.32-2.445Q2332.524-18493.306,2329.884-18490.283Zm62.944-1.125q4.917,1.529,9.859,3.131,2.28-3.615,4.574-7.2-4.889-1.471-9.749-2.854C2395.954-18496.043,2394.386-18493.729,2392.828-18491.408Zm-36.494-.762c3.174.91,6.371,1.854,9.563,2.82q2.495-3.357,4.984-6.65c-3.169-.877-6.318-1.727-9.473-2.551Q2358.871-18495.39,2356.334-18492.17Zm62.482-1.529q4.982,1.579,9.992,3.254,2.187-3.873,4.384-7.7-4.946-1.529-9.868-2.973Q2421.065-18497.434,2418.816-18493.7Zm-98.943.686q4.61,1.222,9.249,2.516,2.63-3.009,5.256-5.975c-3.069-.771-6.118-1.525-9.172-2.254Q2322.546-18495.9,2319.873-18493.014Zm62.811-1.457q4.839,1.421,9.7,2.93,2.337-3.48,4.684-6.914c-3.2-.91-6.414-1.8-9.6-2.658Q2385.069-18497.82,2382.684-18494.471Zm-36.385-.51q4.689,1.277,9.4,2.629,2.537-3.208,5.07-6.365-4.667-1.216-9.315-2.363Q2348.874-18498.057,2346.3-18494.98Zm-36.356-.592q4.538,1.137,9.087,2.334c1.772-1.91,3.55-3.816,5.313-5.693q-4.517-1.072-9.01-2.072Q2312.637-18498.317,2309.943-18495.572Zm98.7-1.287c3.259.986,6.556,2.006,9.83,3.045q2.251-3.724,4.508-7.4-4.86-1.415-9.711-2.764Q2410.956-18500.443,2408.638-18496.859Zm-36.013-.494c3.178.881,6.342,1.791,9.535,2.725q2.387-3.337,4.774-6.627-4.724-1.266-9.435-2.459Q2375.062-18500.562,2372.625-18497.354Zm-36.28-.258q4.617,1.187,9.249,2.439c1.715-2.049,3.431-4.068,5.141-6.08q-4.6-1.122-9.168-2.172C2339.833-18501.51,2338.084-18499.561,2336.345-18497.611Zm-36.256-.348c2.964.7,5.951,1.414,8.929,2.158q2.687-2.736,5.36-5.418c-2.969-.652-5.908-1.281-8.858-1.891C2303.715-18501.414,2301.9-18499.689,2300.089-18497.959Zm98.447-1.873c3.221.924,6.461,1.873,9.7,2.85q2.309-3.58,4.617-7.113-4.8-1.33-9.592-2.574C2401.677-18504.4,2400.114-18502.139,2398.536-18499.832Zm-35.908-.232c3.135.824,6.252,1.666,9.406,2.543,1.615-2.129,3.235-4.254,4.855-6.352-3.112-.781-6.228-1.543-9.325-2.271Q2365.1-18503.13,2362.628-18500.064Zm-36.156-.006q4.531,1.093,9.1,2.258c1.73-1.943,3.474-3.883,5.2-5.793q-4.524-1.037-9.02-1.992Q2329.115-18502.861,2326.472-18500.07Zm-36.156-.105c2.916.639,5.827,1.3,8.758,1.979q2.7-2.587,5.394-5.127-4.36-.894-8.7-1.721Q2293.049-18502.628,2290.316-18500.176Zm133.9-2.391c3.269.967,6.532,1.953,9.816,2.977q2.223-3.85,4.455-7.643-4.86-1.386-9.7-2.682C2427.254-18507.48,2425.739-18505.039,2424.215-18502.566Zm-35.665-.039q4.76,1.28,9.539,2.65,2.359-3.445,4.722-6.834-4.731-1.222-9.439-2.377Q2390.963-18505.914,2388.549-18502.605Zm-35.808.02q4.61,1.137,9.249,2.354,2.466-3.059,4.927-6.066-4.589-1.078-9.168-2.086C2356.086-18506.475,2354.4-18504.529,2352.741-18502.586Zm-36.056.232c2.969.672,5.937,1.363,8.925,2.078,1.753-1.857,3.5-3.687,5.251-5.512-2.954-.625-5.918-1.23-8.858-1.807C2320.226-18505.859,2318.462-18504.121,2316.685-18502.354Zm-36.07.135q4.288.864,8.586,1.8,2.709-2.443,5.413-4.846c-2.859-.533-5.689-1.049-8.534-1.539Q2283.35-18504.538,2280.615-18502.219Zm-9.63-1.877c2.8.523,5.594,1.063,8.41,1.629q2.709-2.309,5.408-4.561-4.188-.715-8.357-1.367C2274.621-18506.979,2272.81-18505.551,2270.985-18504.1Zm35.975-.367c2.921.609,5.832,1.242,8.768,1.9,1.768-1.764,3.521-3.5,5.284-5.227q-4.36-.85-8.7-1.635C2310.534-18507.789,2308.737-18506.127,2306.96-18504.463Zm107.262-.977q4.81,1.342,9.649,2.771,2.28-3.694,4.565-7.342c-3.178-.848-6.371-1.678-9.535-2.473Q2416.557-18508.987,2414.222-18505.439Zm-35.57.238c3.112.791,6.242,1.609,9.368,2.453,1.6-2.2,3.212-4.389,4.808-6.547-3.092-.754-6.189-1.482-9.268-2.178C2381.921-18509.4,2380.292-18507.312,2378.653-18505.2Zm-35.718.271c3.016.7,6.061,1.424,9.091,2.168q2.495-2.918,4.989-5.785-4.517-.993-9.015-1.9Q2345.47-18507.72,2342.935-18504.93Zm-81.513-.877q4.1.7,8.219,1.463c1.806-1.443,3.6-2.863,5.4-4.275-2.735-.418-5.451-.818-8.177-1.2C2265.058-18508.5,2263.228-18507.156,2261.422-18505.807Zm35.894-.6q4.281.829,8.591,1.721,2.659-2.5,5.3-4.937c-2.854-.51-5.689-.99-8.534-1.453C2300.894-18509.537,2299.1-18507.971,2297.316-18506.4Zm35.884-.7c2.978.639,5.947,1.3,8.934,1.988q2.53-2.774,5.046-5.5-4.445-.9-8.867-1.725C2336.612-18510.615,2334.9-18508.861,2333.2-18507.1Zm35.584-.529c3.069.734,6.166,1.492,9.253,2.273q2.444-3.158,4.884-6.262c-3.054-.689-6.132-1.357-9.177-2C2372.091-18511.635,2370.443-18509.652,2368.784-18507.633Zm35.494-.5c3.174.834,6.342,1.691,9.53,2.582q2.33-3.545,4.665-7.037-4.732-1.187-9.444-2.293C2407.452-18512.658,2405.86-18510.4,2404.278-18508.137Zm-152.353.785q4,.624,8.024,1.3,2.687-2.016,5.365-3.979c-2.664-.367-5.332-.715-7.986-1.043C2255.532-18509.852,2253.722-18508.6,2251.926-18507.352Zm35.808-.824q4.2.744,8.42,1.549,2.659-2.344,5.313-4.645c-2.787-.449-5.594-.877-8.367-1.287C2291.312-18511.115,2289.521-18509.648,2287.734-18508.176Zm35.813-.924q4.374.873,8.763,1.807,2.544-2.631,5.079-5.219c-2.9-.537-5.808-1.053-8.7-1.543C2326.982-18512.426,2325.252-18510.762,2323.547-18509.1Zm-81.046.371q3.817.53,7.657,1.105a1.217,1.217,0,0,0,.153.023c1.772-1.238,3.545-2.473,5.318-3.682-2.6-.311-5.2-.605-7.786-.883C2246.055-18511.029,2244.283-18509.891,2242.5-18508.729Zm116.54-1.139q4.538,1,9.1,2.082,2.48-3.015,4.956-5.975c-3.011-.629-6.028-1.234-9.025-1.814Q2361.558-18512.744,2359.04-18509.867Zm35.427-.775c3.121.771,6.232,1.566,9.368,2.387q2.373-3.4,4.751-6.732c-3.107-.725-6.19-1.42-9.287-2.1Q2396.883-18513.89,2394.467-18510.643Zm-116.249.871c.657.105,1.32.209,1.982.318q3.116.51,6.256,1.059,2.652-2.2,5.3-4.359c-2.745-.391-5.465-.768-8.191-1.115C2281.782-18512.516,2280.005-18511.158,2278.218-18509.771Zm151.628-1.84q4.81,1.3,9.639,2.684c1.553-2.631,3.121-5.256,4.684-7.848q-4.753-1.26-9.492-2.43Q2432.255-18515.44,2429.847-18511.611Zm-196.7,1.668c2.525.3,5.046.629,7.581.973,1.744-1.139,3.493-2.273,5.237-3.389-2.54-.256-5.051-.5-7.576-.725C2236.645-18512.049,2234.891-18511,2233.147-18509.943Zm80.8-.98q4.3.779,8.6,1.629c1.711-1.662,3.407-3.3,5.108-4.932-2.849-.48-5.708-.939-8.543-1.373C2317.39-18514.051,2315.68-18512.5,2313.95-18510.924Zm-45.176-.287c2.673.387,5.346.791,8.038,1.211q2.637-2.051,5.275-4.061-4.01-.507-8-.957Q2271.435-18513.131,2268.774-18511.211Zm80.6-.719c2.978.609,5.951,1.238,8.939,1.9q2.509-2.865,5.013-5.686-4.446-.85-8.867-1.633Q2351.919-18514.665,2349.372-18511.93Zm-125.493.93c2.44.256,4.875.527,7.328.818q2.559-1.559,5.113-3.078c-2.454-.209-4.9-.4-7.347-.576Q2226.429-18512.436,2223.879-18511Zm160.858-1.969q4.582,1.058,9.192,2.191c1.61-2.168,3.207-4.293,4.822-6.428-3.054-.662-6.071-1.291-9.111-1.9C2388.011-18517.08,2386.367-18515.027,2384.737-18512.969Zm-80.3.387c2.811.467,5.6.947,8.42,1.457q2.559-2.344,5.113-4.645c-2.788-.42-5.589-.82-8.367-1.2Q2307.02-18514.8,2304.435-18512.582Zm-89.485.705c2.259.205,4.522.418,6.79.652,1.653-.934,3.3-1.854,4.951-2.77-2.259-.146-4.522-.285-6.771-.4C2218.266-18513.568,2216.6-18512.73,2214.95-18511.877Zm44.452-.605c2.6.328,5.213.682,7.824,1.053,1.749-1.271,3.483-2.525,5.227-3.77-2.6-.281-5.218-.547-7.81-.795Q2262.02-18514.257,2259.4-18512.482Zm160.634-1.7c3.145.8,6.309,1.625,9.468,2.479q2.409-3.823,4.827-7.59c-3.121-.768-6.208-1.506-9.315-2.221Q2422.521-18517.873,2420.036-18514.18Zm-80.26.357q4.374.823,8.777,1.721,2.53-2.722,5.06-5.4c-2.916-.51-5.813-.992-8.715-1.453Q2342.339-18516.416,2339.776-18513.822Zm-133.86,1.207q3.2.234,6.423.51,2.359-1.236,4.722-2.441c-2.149-.1-4.283-.2-6.428-.271Q2208.274-18513.731,2205.916-18512.615Zm44.19-.982q3.788.422,7.6.9,2.573-1.758,5.141-3.459-3.8-.352-7.6-.643C2253.536-18515.746,2251.816-18514.674,2250.105-18513.6Zm44.871-.477q4.117.615,8.239,1.291,2.559-2.2,5.108-4.359c-2.73-.363-5.475-.705-8.2-1.029Q2297.554-18516.142,2294.976-18514.074Zm-97.98.877c2,.109,3.993.238,6,.371q2.209-1.058,4.417-2.1c-2.015-.062-4.021-.109-6.032-.148C2199.912-18514.451,2198.463-18513.832,2197-18513.2Zm178.016-1.936c3.026.648,6.047,1.32,9.092,2.021,1.62-2.059,3.254-4.1,4.874-6.123q-4.524-.9-9.034-1.725C2378.3-18519.029,2376.661-18517.1,2375.012-18515.133Zm-186.8,1.506q2.809.114,5.623.258,2.016-.885,4.036-1.748c-1.92-.023-3.807-.033-5.723-.033Q2190.184-18514.4,2188.214-18513.627Zm-5.379-1.434c-1.105.381-2.2.768-3.3,1.158,1.644.037,3.3.086,4.951.139,1.148-.463,2.3-.916,3.445-1.369C2186.227-18515.117,2184.536-18515.094,2182.835-18515.061Zm58.046.51c2.439.234,4.9.486,7.352.748q2.509-1.594,5.018-3.145c-2.468-.182-4.917-.344-7.376-.49C2244.207-18516.484,2242.548-18515.527,2240.881-18514.551Zm-67.295-.248c-.805.248-1.639.51-2.444.768q2.058.015,4.126.043,1.329-.48,2.659-.953C2176.478-18514.9,2175.034-18514.855,2173.586-18514.8Zm156.665-.738c2.869.49,5.718,1.006,8.6,1.543,1.7-1.725,3.393-3.42,5.089-5.111-2.859-.449-5.694-.877-8.543-1.277C2333.686-18518.787,2331.961-18517.166,2330.251-18515.537Zm-164.6,1.105c-.5.129-1,.262-1.491.4.667-.006,1.334-.006,2-.01.51-.168,1.024-.334,1.534-.5C2167.01-18514.508,2166.334-18514.475,2165.648-18514.432Zm119.942-.967c2.683.357,5.351.729,8.043,1.125q2.544-2.054,5.079-4.061-4.01-.466-8.01-.867Q2288.143-18517.314,2285.59-18515.4Zm124.649-1.182q4.667,1.107,9.373,2.291,2.48-3.688,4.965-7.322c-3.083-.711-6.175-1.393-9.244-2.041C2413.636-18521.322,2411.931-18518.953,2410.239-18516.58Zm-178.5,1.238q3.531.278,7.085.6c1.62-.951,3.231-1.891,4.851-2.82-2.392-.133-4.755-.248-7.138-.348C2234.939-18517.062,2233.333-18516.205,2231.737-18515.342Zm133.693-1.758q4.453.87,8.929,1.83,2.466-2.933,4.922-5.814c-2.969-.537-5.918-1.053-8.872-1.543C2368.746-18520.8,2367.093-18518.963,2365.43-18517.1Zm-142.394,1.148q3.209.2,6.428.438,2.309-1.257,4.622-2.486c-2.14-.082-4.293-.148-6.423-.2C2226.114-18517.457,2224.585-18516.709,2223.036-18515.951Zm53.229-.6q3.91.451,7.838.963,2.516-1.907,5.032-3.77-3.917-.378-7.814-.709C2279.629-18518.906,2277.956-18517.738,2276.265-18516.553Zm44.518-.533c2.811.434,5.608.887,8.434,1.373q2.559-2.437,5.1-4.822c-2.792-.391-5.6-.762-8.377-1.105Q2323.363-18519.391,2320.783-18517.086Zm-106.624.662c2,.092,4,.191,6.009.3q2.158-1.084,4.317-2.143c-2.02-.039-4.017-.062-6.032-.072Q2216.3-18517.391,2214.159-18516.424Zm-4.9-1.877c-1.282.51-2.573,1.033-3.85,1.559,1.834.053,3.669.113,5.513.186,1.306-.605,2.611-1.2,3.917-1.787C2212.982-18518.338,2211.114-18518.324,2209.261-18518.3Zm191.325-.477c3.069.672,6.132,1.367,9.21,2.092q2.544-3.56,5.094-7.061c-3.026-.639-6.061-1.258-9.077-1.846Q2403.2-18522.217,2400.585-18518.777Zm-133.579,1.234c2.525.248,5.084.52,7.619.8q2.48-1.752,4.956-3.465c-2.54-.205-5.079-.385-7.614-.553C2270.309-18519.7,2268.665-18518.635,2267.006-18517.543Zm-85.563.387c-.386.113-.767.223-1.153.338,1.058-.023,2.12-.049,3.178-.062.5-.172,1-.344,1.5-.51Q2183.2-18517.276,2181.443-18517.156Zm18.631-.943c-1.082.395-2.168.791-3.25,1.189,1.691.02,3.393.049,5.089.082,1.125-.473,2.278-.949,3.4-1.406C2203.572-18518.2,2201.813-18518.152,2200.074-18518.1Zm-9.339.385c-.8.258-1.577.516-2.378.781,1.415-.01,2.835-.01,4.25,0q1.308-.5,2.611-.986C2193.718-18517.861,2192.236-18517.791,2190.735-18517.715Zm165.189-1.182q4.374.785,8.763,1.648,2.48-2.78,4.955-5.5-4.367-.721-8.715-1.361Q2358.426-18521.535,2355.924-18518.9Zm-44.537.43q4.117.571,8.243,1.2c1.7-1.52,3.412-3.029,5.108-4.525-2.735-.334-5.475-.648-8.2-.939C2314.822-18521.322,2313.107-18519.906,2311.387-18518.467Zm-53.567.09c2.458.205,4.913.42,7.381.658q2.423-1.6,4.841-3.164c-2.464-.148-4.932-.287-7.39-.4C2261.036-18520.32,2259.44-18519.359,2257.82-18518.377Zm177.587-1.963q4.717,1.157,9.463,2.4,2.344-3.879,4.7-7.7c-3.121-.742-6.223-1.453-9.33-2.139Q2437.816-18524.085,2435.407-18520.34Zm-186.708,1.3q3.552.229,7.124.506c1.563-.959,3.131-1.912,4.693-2.846-2.387-.1-4.779-.191-7.162-.258C2251.8-18520.779,2250.258-18519.92,2248.7-18519.039Zm53.353-.639c2.683.324,5.356.668,8.053,1.033q2.544-2.136,5.089-4.23-4.017-.413-8.015-.771C2305.473-18522.342,2303.753-18521.012,2302.052-18519.678Zm88.96-1.125q4.5.917,9.025,1.9,2.6-3.431,5.213-6.8-4.453-.855-8.882-1.643C2394.586-18525.186,2392.795-18523,2391.013-18520.8Zm-44.533.281c2.859.463,5.732.959,8.6,1.473,1.663-1.754,3.316-3.479,4.979-5.193-2.868-.42-5.708-.814-8.562-1.187Q2348.989-18523,2346.48-18520.521Zm-106.824.977c2.273.105,4.56.229,6.838.367,1.5-.848,3-1.691,4.493-2.52-2.3-.062-4.608-.1-6.9-.125Q2241.874-18520.691,2239.656-18519.545Zm-48.406.029c.067,0,.1-.01.171-.01.014,0,.024-.01.038-.014C2191.392-18519.535,2191.316-18519.525,2191.25-18519.516Zm44.161-2.32c-1.406.643-2.811,1.3-4.222,1.963,2,.057,4.017.133,6.023.219,1.41-.738,2.811-1.467,4.222-2.187-.872,0-1.749-.008-2.621-.008Q2237.1-18521.85,2235.41-18521.836Zm-36.895,1.652-1.315.41c1.134-.047,2.24-.08,3.374-.113.548-.2,1.1-.4,1.639-.592C2200.975-18520.383,2199.755-18520.283,2198.516-18520.184Zm94.259-.543c2.611.271,5.237.568,7.857.877q2.523-1.986,5.046-3.932-3.917-.334-7.824-.613C2296.167-18523.189,2294.467-18521.961,2292.775-18520.727Zm-66.508-.963c-1.277.535-2.549,1.072-3.822,1.621,1.839.023,3.693.063,5.542.105,1.286-.621,2.568-1.23,3.855-1.84C2229.979-18521.773,2228.125-18521.736,2226.267-18521.689Zm-18.312.811-2.5.863c1.482-.029,2.959-.053,4.446-.066.9-.357,1.8-.715,2.7-1.068C2211.048-18521.064,2209.5-18520.975,2207.955-18520.879Zm10.85.771c1.12-.49,2.235-.98,3.354-1.463-1.672.059-3.369.125-5.041.2-1.1.414-2.173.828-3.269,1.258.6,0,1.187,0,1.777,0C2216.684-18520.115,2217.738-18520.111,2218.8-18520.107Zm206.968-2.51q4.631,1.049,9.287,2.191,2.409-3.738,4.832-7.424-4.581-1-9.148-1.93Q2428.255-18526.229,2425.773-18522.617Zm-88.66.643q4.2.615,8.415,1.3,2.487-2.467,4.975-4.879-4.2-.545-8.382-1.016C2340.448-18525.053,2338.785-18523.527,2337.112-18521.975Zm-53.543.367c2.53.219,5.094.463,7.634.719q2.494-1.828,4.979-3.625c-2.544-.172-5.079-.324-7.619-.457C2286.9-18523.865,2285.232-18522.736,2283.569-18521.607Zm97.833-1.059q4.467.829,8.948,1.73,2.666-3.3,5.323-6.527c-2.945-.52-5.9-1.016-8.829-1.479C2385.033-18526.873,2383.213-18524.771,2381.4-18522.666Zm-106.977.344q3.7.258,7.4.566,2.444-1.673,4.879-3.311c-2.468-.125-4.941-.225-7.4-.314Q2276.867-18523.872,2274.425-18522.322Zm53.372-.934q4.1.527,8.234,1.125,2.48-2.309,4.955-4.57-4.11-.457-8.2-.844Q2330.291-18525.421,2327.8-18523.256Zm-62.449.381q3.567.179,7.147.42c1.582-1.01,3.159-2,4.741-2.992q-3.6-.108-7.166-.172C2268.5-18524.719,2266.916-18523.795,2265.348-18522.875Zm-58.232.324c.419-.029.867-.053,1.287-.082.1-.033.191-.066.286-.1C2208.165-18522.67,2207.641-18522.613,2207.116-18522.551Zm209-2.187q4.6.973,9.215,2.016,2.48-3.595,4.96-7.146-4.56-.923-9.1-1.76Q2418.656-18528.21,2416.119-18524.738Zm-44.156.4c2.926.5,5.847,1.006,8.782,1.549q2.716-3.164,5.427-6.26c-2.887-.457-5.789-.887-8.667-1.291Q2374.738-18527.371,2371.963-18524.334Zm-156.217.863c-.524.172-1.048.344-1.573.51,1.2-.057,2.373-.113,3.574-.162.619-.238,1.248-.471,1.873-.705C2218.319-18523.713,2217.042-18523.594,2215.746-18523.471Zm40.6.2c2.282.08,4.579.176,6.871.285q2.273-1.351,4.551-2.664c-1.954-.023-3.884-.033-5.823-.033h-1.1C2259.335-18524.885,2257.844-18524.086,2256.343-18523.27Zm-31.391-1-2.673.973c1.415-.049,2.821-.086,4.241-.125.934-.391,1.863-.775,2.792-1.162C2227.863-18524.49,2226.4-18524.381,2224.951-18524.271Zm26.669-1.3c-1.406.686-2.8,1.377-4.2,2.076,2.187.039,4.365.086,6.556.152q2.145-1.172,4.293-2.324C2256.042-18525.652,2253.836-18525.619,2251.621-18525.576Zm66.928,1.205q4.01.451,8.038.957,2.466-2.145,4.922-4.25-4.017-.372-8.015-.682C2321.841-18527.029,2320.2-18525.711,2318.548-18524.371Zm-84.472-.514c-1.134.451-2.278.914-3.412,1.377,1.654-.029,3.3-.049,4.96-.059q1.737-.8,3.469-1.582C2237.412-18525.066,2235.753-18524.98,2234.076-18524.885Zm9.1-.439c-1.32.582-2.621,1.158-3.94,1.748q2.773,0,5.542.039c1.315-.668,2.625-1.32,3.945-1.969C2246.875-18525.453,2245.012-18525.4,2243.172-18525.324Zm119.418-.506q4.3.65,8.61,1.369,2.759-3.023,5.522-5.986c-2.835-.395-5.675-.766-8.5-1.109Q2365.411-18528.727,2362.59-18525.83Zm-53.233.52c.329.029.648.063.972.092q3.424.328,6.871.7,2.43-1.986,4.86-3.936-3.917-.293-7.824-.523Q2311.792-18527.156,2309.357-18525.311Zm97.285-1.344q4.51.873,9.039,1.826,2.537-3.475,5.074-6.881c-2.973-.543-5.961-1.068-8.925-1.559Q2409.236-18529.992,2406.642-18526.654Zm-106.414.568q3.8.293,7.624.639,2.394-1.831,4.779-3.621c-2.535-.139-5.094-.264-7.624-.367Q2302.619-18527.777,2300.227-18526.086Zm53.052-1.068q4.217.565,8.443,1.2c1.877-1.93,3.731-3.822,5.608-5.709-2.778-.334-5.565-.648-8.334-.939Q2356.146-18529.91,2353.28-18527.154Zm-62.11.453q3.688.223,7.381.49c1.563-1.115,3.112-2.205,4.665-3.3q-3.709-.135-7.4-.219Q2293.492-18528.227,2291.169-18526.7Zm-58.5-.271c-.3.105-.6.2-.9.3q1.565-.094,3.135-.182.629-.249,1.258-.5C2235-18527.23,2233.829-18527.1,2232.666-18526.973Zm164.565-1.416c2.94.516,5.894,1.059,8.844,1.625,1.735-2.225,3.45-4.412,5.179-6.6-2.916-.48-5.813-.934-8.715-1.363C2400.771-18532.643,2399-18530.518,2397.231-18528.389Zm-115.048,1.24q3.552.149,7.124.342,2.251-1.494,4.5-2.959c-2.4-.043-4.784-.066-7.176-.076C2285.151-18528.955,2283.66-18528.055,2282.183-18527.148Zm158.833-1.807q4.639,1.014,9.292,2.121,2.273-3.683,4.56-7.3-4.6-.967-9.177-1.844C2444.132-18533.668,2442.569-18531.309,2441.015-18528.955Zm-199.182,1.053c-.7.268-1.42.539-2.12.811,1.377-.062,2.745-.119,4.122-.172.772-.338,1.553-.676,2.325-1.01C2244.711-18528.154,2243.282-18528.035,2241.833-18527.9Zm35.632-1.887c-1.4.777-2.792,1.559-4.193,2.35q3.409.079,6.838.209c1.425-.881,2.859-1.758,4.284-2.615C2282.087-18529.846,2279.767-18529.822,2277.465-18529.789Zm66.57,1.482q4.117.478,8.243,1.02,2.844-2.745,5.675-5.422-4.067-.416-8.134-.768Q2346.933-18530.925,2344.036-18528.307Zm-93.13-.334c-.981.41-1.963.83-2.945,1.244,1.615-.043,3.24-.082,4.86-.105,1.024-.5,2.04-.98,3.059-1.463C2254.218-18528.869,2252.569-18528.76,2250.906-18528.641Zm17.387-.92q-1.93.987-3.855,1.988c2.177.014,4.341.037,6.528.08,1.334-.758,2.654-1.506,3.988-2.254Q2271.616-18529.676,2268.293-18529.561Zm-9.191.41c-1.134.529-2.259,1.063-3.4,1.605,2.049-.027,4.112-.037,6.166-.037,1.2-.629,2.4-1.254,3.6-1.873C2263.337-18529.369,2261.227-18529.27,2259.1-18529.15Zm75.747-.148c2.683.268,5.361.553,8.053.859q2.866-2.6,5.728-5.137c-2.649-.221-5.3-.42-7.943-.6C2338.747-18532.572,2336.788-18530.937,2334.849-18529.3Zm52.9-.676c2.921.463,5.861.953,8.791,1.463q2.645-3.2,5.28-6.328-4.36-.636-8.7-1.2Q2390.431-18533.038,2387.744-18529.975Zm43.818-.973q4.546.923,9.106,1.916,2.337-3.545,4.669-7.02c-3.007-.576-5.989-1.123-8.987-1.643Q2433.949-18534.348,2431.562-18530.947Zm-105.828.824q3.91.322,7.838.7c1.925-1.635,3.836-3.244,5.756-4.836-2.587-.172-5.156-.314-7.733-.439Q2328.664-18532.438,2325.734-18530.123Zm-81.675-.566c-.9.277-1.782.557-2.678.844.543-.053,1.091-.1,1.634-.148.786-.295,1.577-.59,2.364-.881C2244.936-18530.812,2244.507-18530.756,2244.059-18530.689Zm134.4-.672q4.31.606,8.62,1.281,2.688-3.059,5.365-6.047c-2.849-.361-5.68-.7-8.52-1.014C2382.1-18535.23,2380.287-18533.314,2378.457-18531.361Zm-61.781.576c1.239.082,2.487.168,3.731.258,1.3.09,2.587.186,3.888.291q2.888-2.294,5.766-4.531c-2.516-.115-5.018-.205-7.524-.281Q2319.606-18532.942,2316.676-18530.785Zm-63.721-1.086-.357.043q-1.908.671-3.817,1.357c1.02-.076,2.039-.152,3.059-.219,1.191-.5,2.373-.99,3.564-1.477C2254.589-18532.07,2253.77-18531.971,2252.955-18531.871Zm54.729.592q3.688.17,7.381.395,2.88-2.13,5.746-4.213c-2.43-.061-4.875-.1-7.295-.133Q2310.6-18533.279,2307.684-18531.279Zm-46.472-1.531c-1.52.6-3.031,1.2-4.546,1.807,1.348-.076,2.7-.152,4.045-.219,1.439-.662,2.888-1.32,4.327-1.969C2263.766-18533.066,2262.485-18532.937,2261.212-18532.811Zm160.839.029c3.021.557,6.028,1.139,9.058,1.744q2.38-3.4,4.774-6.738-4.5-.779-8.968-1.473C2425.291-18537.107,2423.676-18534.959,2422.051-18532.781Zm-117.526-2.453q-2.88,1.787-5.761,3.615c2.368.066,4.746.152,7.119.258q2.844-1.966,5.689-3.883c-.982-.006-1.958-.01-2.94-.01C2307.26-18535.254,2305.893-18535.25,2304.525-18535.234Zm-35.808,1.709q-2.4,1.061-4.8,2.15,2.859-.123,5.737-.215c1.615-.811,3.221-1.611,4.832-2.4C2272.567-18533.848,2270.633-18533.691,2268.717-18533.525Zm100.52.953q4.21.516,8.439,1.1,2.723-2.909,5.446-5.762-4.181-.457-8.339-.838Q2372.01-18535.354,2369.237-18532.572Zm-91.572-1.643c-1.734.838-3.459,1.682-5.189,2.549q3.073-.079,6.166-.119c1.725-.943,3.455-1.887,5.179-2.807Q2280.741-18534.419,2277.666-18534.215Zm17.892-.854q-2.816,1.608-5.642,3.273c2.278.029,4.555.066,6.843.123q2.787-1.793,5.58-3.539C2300.08-18535.178,2297.807-18535.135,2295.558-18535.068Zm-8.944.338c-1.815.959-3.645,1.936-5.461,2.922,2.173-.016,4.341-.02,6.519-.006q2.716-1.608,5.422-3.178C2290.926-18534.92,2288.772-18534.834,2286.614-18534.73Zm73.46,1.115c2.75.285,5.508.6,8.267.93,1.834-1.84,3.674-3.67,5.508-5.471-2.73-.248-5.441-.471-8.167-.672C2363.82-18537.117,2361.937-18535.369,2360.074-18533.615Zm52.662-.791q4.438.729,8.877,1.549,2.438-3.258,4.87-6.461-4.4-.68-8.777-1.277Q2415.218-18537.528,2412.736-18534.406Zm-61.758-.086c2.683.234,5.361.486,8.053.768,1.849-1.744,3.707-3.479,5.556-5.18-2.649-.189-5.313-.357-7.953-.5C2354.742-18537.785,2352.87-18536.154,2350.978-18534.492Zm-90.075-.162c-.839.281-1.672.553-2.506.834l1.506-.156c.729-.291,1.458-.576,2.192-.863C2261.689-18534.777,2261.3-18534.715,2260.9-18534.654Zm142.594-1.205q4.317.636,8.663,1.354,2.473-3.108,4.951-6.17c-2.864-.387-5.7-.748-8.558-1.088C2406.87-18539.818,2405.174-18537.842,2403.5-18535.859Zm-134.146-.043c-1.21.447-2.43.906-3.64,1.363.981-.086,1.968-.176,2.949-.258,1.129-.5,2.254-.986,3.383-1.467C2271.138-18536.145,2270.256-18536.025,2269.351-18535.9Zm72.588.7q3.917.27,7.843.605c1.863-1.65,3.721-3.27,5.584-4.881q-3.881-.2-7.748-.338C2345.732-18538.3,2343.826-18536.756,2341.939-18535.2Zm-65.613-1.611c-1.344.566-2.7,1.148-4.041,1.725,1.739-.133,3.464-.252,5.2-.361,1.386-.672,2.764-1.324,4.146-1.979C2279.872-18537.232,2278.085-18537.021,2276.327-18536.812Zm56.635,1.063c2.53.133,5.079.287,7.614.453,1.868-1.545,3.726-3.059,5.594-4.57q-3.774-.12-7.529-.186Q2335.8-18537.923,2332.962-18535.75Zm113.576-1.5q4.56.879,9.134,1.834,2.323-3.674,4.655-7.289-4.524-.823-9.02-1.555C2449.721-18541.949,2448.12-18539.6,2446.538-18537.246Zm-161.287-.562c-1.544.715-3.073,1.43-4.617,2.164,1.906-.105,3.822-.205,5.727-.291,1.553-.82,3.1-1.625,4.651-2.42Q2288.124-18538.1,2285.251-18537.809Zm44.447-2.3c-1.877,1.3-3.769,2.635-5.646,3.979q3.216.108,6.442.262l.934.043q2.78-2.15,5.565-4.25c-2.02-.023-4.021-.039-6.028-.039C2330.542-18540.115,2330.122-18540.115,2329.7-18540.109Zm64.431,2.945q4.31.563,8.639,1.2c1.677-1.982,3.345-3.936,5.022-5.885q-4.3-.5-8.572-.924C2397.526-18540.93,2395.821-18539.053,2394.129-18537.164Zm-99.986-1.459c-1.663.844-3.34,1.7-5,2.568q3.066-.114,6.142-.2,2.495-1.43,5-2.826C2298.226-18538.941,2296.187-18538.789,2294.143-18538.623Zm26.64-1.377q-2.787,1.793-5.575,3.65,3.552.05,7.114.162,2.752-1.98,5.5-3.912Q2324.3-18540.079,2320.783-18540Zm-17.773.744c-1.753.967-3.517,1.953-5.27,2.943,2.168-.047,4.331-.076,6.509-.09q2.616-1.623,5.237-3.207C2307.327-18539.5,2305.168-18539.391,2303.01-18539.256Zm8.882-.459c-1.815,1.082-3.64,2.188-5.456,3.3h1.134q2.837,0,5.689.033,2.7-1.808,5.4-3.568Q2315.268-18539.854,2311.892-18539.715Zm73.108,1.449c2.816.314,5.627.652,8.453,1.016q2.544-2.824,5.084-5.594-4.2-.416-8.381-.748C2388.435-18541.83,2386.719-18540.062,2385-18538.266Zm52.257-.682q4.453.773,8.934,1.635,2.373-3.53,4.76-7c-2.94-.477-5.889-.934-8.815-1.357C2440.5-18543.445,2438.881-18541.211,2437.256-18538.947Zm-160.353.33c-.529.186-1.043.365-1.568.553.443-.053.886-.111,1.339-.162.481-.2.967-.4,1.444-.6C2277.718-18538.756,2277.308-18538.689,2276.9-18538.617Zm99.029-.582q4.124.387,8.262.844,2.566-2.681,5.132-5.3c-2.726-.213-5.475-.4-8.191-.57C2379.406-18542.578,2377.662-18540.891,2375.932-18539.2Zm-92.644-.477c-.8.314-1.6.643-2.4.973,1.5-.168,2.992-.32,4.493-.467q1.365-.63,2.721-1.244C2286.5-18540.176,2284.894-18539.934,2283.288-18539.676Zm144.586-.824c2.959.461,5.937.953,8.91,1.467q2.43-3.381,4.86-6.7c-2.94-.424-5.9-.82-8.825-1.191C2431.162-18544.8,2429.522-18542.668,2427.874-18540.5Zm-60.953.539q4.031.3,8.077.676c1.725-1.687,3.44-3.35,5.165-5.008q-4.01-.237-8.01-.4Q2369.537-18542.354,2366.921-18539.961Zm-74.6-1.055c-1.115.5-2.244,1-3.354,1.506q2.58-.234,5.17-.437c1.177-.6,2.354-1.182,3.531-1.768C2295.886-18541.492,2294.1-18541.258,2292.322-18541.016Zm65.651.459c2.616.152,5.222.318,7.848.514,1.729-1.586,3.445-3.15,5.175-4.7-2.592-.1-5.194-.186-7.781-.242Q2360.6-18542.8,2357.973-18540.557Zm-56.731-1.588c-1.334.648-2.659,1.3-3.988,1.959q2.838-.2,5.685-.371c1.363-.748,2.716-1.488,4.079-2.221Q2304.13-18542.479,2301.242-18542.145Zm117.478.3q4.346.6,8.715,1.277c1.649-2.154,3.3-4.3,4.946-6.414-2.878-.357-5.761-.691-8.625-1C2422.08-18545.957,2420.4-18543.906,2418.72-18541.844Zm-69.639.857c2.54.1,5.074.219,7.619.357,1.72-1.477,3.445-2.945,5.165-4.389-2.521-.053-5.046-.08-7.562-.09C2352.57-18543.75,2350.821-18542.373,2349.082-18540.986Zm-38.991-2.1c-1.482.785-2.945,1.566-4.422,2.373q3.052-.167,6.123-.287c1.482-.887,2.973-1.768,4.455-2.635Q2313.166-18543.382,2310.091-18543.082Zm35.341-1.969c-1.73,1.254-3.445,2.516-5.175,3.8.115.006.219.006.333.006q3.517.079,7.038.205c1.711-1.373,3.412-2.727,5.122-4.064C2350.3-18545.107,2347.876-18545.094,2345.432-18545.051Zm-26.512,1.211c-1.582.91-3.145,1.824-4.727,2.758q3.238-.114,6.49-.18c1.573-1.021,3.155-2.025,4.727-3.021C2323.246-18544.15,2321.074-18544,2318.92-18543.84Zm17.659-.982c-1.7,1.145-3.383,2.293-5.084,3.465,2.364,0,4.741.027,7.109.07q2.523-1.887,5.041-3.73C2341.281-18544.975,2338.932-18544.908,2336.579-18544.822Zm-8.839.4c-1.649,1.029-3.283,2.068-4.932,3.121q3.4-.05,6.814-.057,2.459-1.717,4.913-3.389C2332.271-18544.656,2330-18544.545,2327.74-18544.422Zm81.894,1.406q4.238.507,8.491,1.086,2.509-3.082,5.017-6.113-4.2-.437-8.391-.8C2413.046-18546.928,2411.34-18544.975,2409.634-18543.016Zm-119.3.57c-.3.115-.619.238-.924.354q1.772-.249,3.554-.486c.505-.223,1.006-.443,1.51-.662C2293.094-18542.982,2291.708-18542.717,2290.331-18542.445Zm110.045-1.59q4.239.428,8.491.928,2.544-2.936,5.079-5.812c-2.821-.242-5.623-.457-8.434-.648C2403.8-18547.738,2402.091-18545.9,2400.376-18544.035Zm-100.777-.135c-.82.348-1.635.7-2.459,1.049.162-.02.329-.037.5-.057,1.329-.168,2.664-.324,3.993-.473.92-.447,1.844-.891,2.764-1.324C2302.8-18544.717,2301.195-18544.445,2299.6-18544.17Zm152.6-1.391c2.978.49,5.97,1.016,8.968,1.559q2.323-3.589,4.66-7.129c-2.969-.447-5.913-.867-8.867-1.262Q2454.576-18549,2452.2-18545.561Zm-143.614-.076c-1.134.523-2.268,1.059-3.4,1.6,1.715-.18,3.436-.348,5.151-.51,1.187-.629,2.378-1.252,3.559-1.867C2312.12-18546.166,2310.367-18545.908,2308.59-18545.637Zm82.8.781q4.145.337,8.3.748,2.566-2.78,5.122-5.508-4.124-.272-8.234-.473Q2393.988-18547.507,2391.394-18544.855Zm-70.149-2.525c-1.272.152-2.549.314-3.821.486-1.344.686-2.668,1.367-4.017,2.068q2.837-.243,5.685-.453c1.363-.787,2.74-1.572,4.1-2.34C2322.541-18547.537,2321.893-18547.461,2321.245-18547.381Zm61.229,1.867q4.038.258,8.091.586,2.58-2.628,5.16-5.2c-2.687-.123-5.351-.223-8.033-.3C2385.948-18548.8,2384.218-18547.176,2382.474-18545.514Zm-56.269-2.449c-1.477.82-2.969,1.654-4.441,2.492,2.039-.137,4.074-.256,6.118-.367q2.237-1.4,4.469-2.764C2330.3-18548.4,2328.25-18548.191,2326.206-18547.963Zm47.4,1.969q3.945.179,7.9.424,2.587-2.473,5.175-4.889-3.924-.108-7.838-.148Q2376.223-18548.325,2373.607-18545.994Zm69.486-.982c2.921.43,5.827.883,8.753,1.359q2.38-3.439,4.755-6.824c-2.892-.381-5.766-.738-8.648-1.062Q2445.523-18550.272,2443.093-18546.977Zm-108.135-1.867c-1.582.953-3.159,1.91-4.741,2.887,2.168-.1,4.326-.2,6.5-.266,1.577-1.068,3.159-2.121,4.731-3.16C2339.285-18549.221,2337.117-18549.039,2334.958-18548.844Zm35.065-1.758q-2.609,2.115-5.218,4.289,3.817.1,7.638.266,2.58-2.309,5.16-4.568-1.472-.009-2.954-.01Q2372.334-18550.625,2370.023-18550.6Zm-26.321,1.053q-2.473,1.608-4.941,3.26c2.268-.066,4.551-.115,6.823-.148q2.466-1.787,4.917-3.535Q2347.1-18549.788,2343.7-18549.549Zm17.525-.877c-1.72,1.3-3.45,2.625-5.17,3.955q3.688.035,7.4.119,2.559-2.136,5.117-4.23C2366.121-18550.549,2363.667-18550.5,2361.227-18550.426Zm-8.767.354q-2.544,1.787-5.084,3.611c1.072-.01,2.154-.02,3.226-.02q1.944-.006,3.893,0,2.523-1.966,5.041-3.893C2357.177-18550.293,2354.814-18550.191,2352.46-18550.072Zm-45.915,3.029c-.362.148-.739.3-1.105.449,1.2-.191,2.387-.377,3.588-.559l1.625-.748C2309.29-18547.619,2307.908-18547.334,2306.545-18547.043Zm127.294-1.2q4.374.557,8.763,1.191,2.416-3.287,4.836-6.52c-2.892-.322-5.8-.629-8.691-.9Q2436.3-18551.385,2433.84-18548.238Zm-118.06-.672c-.848.377-1.706.762-2.554,1.143,1.5-.209,2.992-.414,4.493-.609.934-.477,1.868-.943,2.8-1.41C2318.934-18549.506,2317.362-18549.215,2315.78-18548.91Zm109.078-.387c2.84.3,5.694.645,8.548,1q2.451-3.132,4.908-6.209c-2.825-.268-5.665-.506-8.477-.715C2428.179-18553.27,2426.511-18551.287,2424.858-18549.3Zm-100.177-1.215c-1.144.553-2.282,1.115-3.426,1.688,1.72-.211,3.45-.41,5.17-.6q1.78-.984,3.555-1.953Q2327.328-18550.963,2324.681-18550.512Zm91.257.33c2.759.246,5.537.518,8.305.818q2.48-2.979,4.965-5.9c-2.749-.2-5.484-.375-8.224-.527Q2418.461-18553.015,2415.938-18550.182Zm-82.485-1.721q-2,1.063-4,2.154c1.892-.2,3.8-.383,5.7-.549q2.03-1.222,4.05-2.416Q2336.331-18552.335,2333.453-18551.9Zm73.327.986q4.167.293,8.348.662,2.5-2.824,5-5.59-4.16-.229-8.305-.371C2410.139-18554.461,2408.467-18552.7,2406.78-18550.916Zm-62.987-2.387c-.548.066-1.1.137-1.644.2q-2.187,1.274-4.379,2.574c2.044-.172,4.083-.328,6.142-.473,1.468-.957,2.926-1.9,4.393-2.834C2346.8-18553.666,2345.294-18553.49,2343.793-18553.3Zm54.162,1.848q4.06.208,8.134.49c1.682-1.777,3.354-3.529,5.032-5.273q-4.052-.138-8.091-.2C2401.338-18554.795,2399.642-18553.127,2397.955-18551.455Zm-47.134-2.648c-1.553.977-3.092,1.953-4.646,2.953,2.173-.137,4.336-.262,6.518-.371,1.549-1.086,3.088-2.158,4.636-3.227C2355.152-18554.547,2352.994-18554.338,2350.821-18554.1Zm43.446-2.383c-1.687,1.533-3.393,3.1-5.084,4.664,2.63.086,5.279.2,7.914.324,1.677-1.662,3.364-3.32,5.041-4.951-2-.027-4.007-.043-6-.043C2395.511-18556.492,2394.886-18556.486,2394.267-18556.486Zm-34.779,1.553q-2.416,1.638-4.832,3.322c2.282-.1,4.56-.186,6.847-.254,1.606-1.215,3.2-2.41,4.8-3.6C2364.024-18555.3,2361.761-18555.129,2359.488-18554.934Zm-36.856,3.041c-.072.027-.153.066-.224.1,1.115-.191,2.24-.387,3.354-.568.305-.146.615-.295.915-.443C2325.324-18552.508,2323.985-18552.2,2322.632-18551.893Zm62.906-4.465c-1.7,1.434-3.378,2.873-5.07,4.34,2.554.033,5.136.086,7.7.168,1.677-1.559,3.354-3.107,5.031-4.627C2390.636-18556.463,2388.092-18556.42,2385.538-18556.357Zm-17.387.771c-1.644,1.205-3.3,2.439-4.951,3.674q3.567-.094,7.152-.123,2.459-2,4.917-3.951C2372.892-18555.871,2370.524-18555.738,2368.151-18555.586Zm11.078,3.555c1.663-1.443,3.331-2.883,4.989-4.293q-3.7.1-7.381.262-2.516,1.986-5.027,4.012,1.379-.006,2.759,0C2376.123-18552.055,2377.676-18552.051,2379.229-18552.031Zm78.735-1.781c2.93.4,5.856.824,8.8,1.275q2.3-3.466,4.613-6.879-4.367-.53-8.725-.973Q2460.309-18557.131,2457.964-18553.812Zm-126.188-.092c-.619.291-1.22.572-1.844.867,1.453-.223,2.9-.443,4.355-.652l2.216-1.172Q2334.144-18554.4,2331.776-18553.9Zm117.254-1.033q4.281.492,8.572,1.076c1.558-2.205,3.126-4.4,4.684-6.566q-4.245-.428-8.477-.775Q2451.415-18558.095,2449.03-18554.937Zm-108.416-.705c-.953.486-1.887.967-2.84,1.463,1.687-.229,3.378-.453,5.07-.658,1.015-.59,2.039-1.178,3.054-1.758Q2343.254-18556.139,2340.615-18555.643Zm99.291-.271q4.3.413,8.61.914,2.373-3.152,4.746-6.246c-2.849-.234-5.713-.439-8.553-.615C2443.107-18559.9,2441.5-18557.912,2439.905-18555.914Zm-90.6-1.254c-1.167.652-2.33,1.307-3.5,1.973q2.816-.328,5.637-.619c1.21-.762,2.416-1.51,3.626-2.258Q2352.179-18557.645,2349.3-18557.168Zm-14.714.4c-.91.352-1.815.713-2.726,1.076q.836-.179,1.673-.348c.781-.357,1.558-.715,2.34-1.068C2335.445-18557,2335.016-18556.887,2334.587-18556.771Zm96.5.08q4.188.328,8.381.734,2.4-2.994,4.8-5.934c-2.783-.166-5.551-.309-8.324-.428Q2433.523-18559.532,2431.09-18556.691Zm-73.175-1.8q-1.973,1.2-3.95,2.42c2.034-.2,4.06-.377,6.1-.543q2.016-1.371,4.026-2.711C2362.028-18559.064,2359.974-18558.783,2357.916-18558.492Zm64.431,1.2c2.7.162,5.408.342,8.115.553,1.611-1.893,3.216-3.756,4.832-5.609-2.692-.109-5.37-.189-8.053-.252C2425.611-18560.852,2423.971-18559.074,2422.347-18557.291Zm-55.84-2.336c-1.42.93-2.854,1.883-4.274,2.836q3.245-.252,6.494-.453,2.158-1.579,4.312-3.131C2370.857-18560.141,2368.685-18559.893,2366.507-18559.627Zm-23.815.8q-2.015.873-4.021,1.773c1.086-.211,2.182-.416,3.273-.611,1.249-.633,2.5-1.262,3.74-1.877Q2344.183-18559.189,2342.692-18558.826Zm70.6,1.092q4.088.155,8.2.391c1.611-1.773,3.23-3.535,4.841-5.275q-4.1-.085-8.177-.086Q2415.723-18560.253,2413.293-18557.734Zm-38.215-2.85q-2.251,1.6-4.5,3.23c.067-.006.138-.01.21-.014q3.309-.187,6.637-.33,2.259-1.778,4.517-3.521C2379.648-18561.027,2377.371-18560.812,2375.079-18560.584Zm8.577-.777c-1.549,1.191-3.107,2.393-4.655,3.6,2.382-.092,4.774-.162,7.162-.215q2.33-1.975,4.66-3.9Q2387.234-18561.643,2383.656-18561.361Zm25.831-1.271c-1.611,1.523-3.24,3.082-4.855,4.641,2.654.053,5.3.129,7.962.229,1.615-1.662,3.23-3.316,4.841-4.941C2414.785-18562.705,2412.131-18562.682,2409.486-18562.633Zm-17.244.672c-1.592,1.311-3.169,2.625-4.76,3.959,2.487-.047,4.989-.07,7.481-.076,1.591-1.439,3.173-2.85,4.76-4.26Q2395.978-18562.18,2392.242-18561.961Zm8.61-.42c-1.611,1.42-3.212,2.85-4.822,4.3,2.563,0,5.141.023,7.714.072q2.409-2.332,4.813-4.607C2405.984-18562.562,2403.42-18562.486,2400.852-18562.381Zm-50.017,1.664c-1.582.762-3.173,1.539-4.751,2.32,1.434-.248,2.859-.486,4.3-.715q2.258-1.26,4.527-2.482C2353.551-18561.309,2352.188-18561.018,2350.835-18560.717Zm8.167-1.717c-1.739.916-3.459,1.84-5.194,2.783,1.677-.258,3.364-.5,5.051-.738,1.668-1.01,3.331-2,5-2.982C2362.238-18563.072,2360.622-18562.758,2359-18562.434Zm8.2-1.549q-2.737,1.582-5.47,3.2,2.816-.372,5.632-.705,2.652-1.737,5.308-3.432C2370.838-18564.615,2369.023-18564.307,2367.2-18563.982Zm96.551,2.078q4.31.457,8.639,1,2.523-3.718,5.06-7.357-4.267-.407-8.515-.719Q2466.339-18565.483,2463.749-18561.9Zm-113.338-.2c-.772.314-1.544.639-2.321.963.519-.119,1.034-.234,1.553-.348.667-.324,1.344-.648,2.011-.967C2351.24-18562.338,2350.826-18562.219,2350.411-18562.1Zm25.016-3.26c-1.882,1.182-3.755,2.373-5.637,3.594q3.052-.343,6.109-.645c1.834-1.295,3.659-2.572,5.494-3.834Q2378.4-18565.822,2375.427-18565.359Zm79.569,2.617q4.188.363,8.386.8,2.587-3.568,5.179-7.072-4.131-.308-8.243-.533Q2457.659-18566.181,2455-18562.742Zm-96.565-1.539c-1.22.557-2.449,1.129-3.674,1.7,1.067-.225,2.135-.439,3.2-.654q1.722-.914,3.455-1.814C2360.417-18564.8,2359.426-18564.543,2358.43-18564.281Zm30.133-2.912q-2.444.3-4.884.629-2.866,1.951-5.737,3.959,1.473-.135,2.935-.262c1.2-.1,2.4-.2,3.593-.285q2.809-2.145,5.608-4.223Q2389.321-18567.287,2388.563-18567.193Zm57.427,3.764q4.224.281,8.458.639c1.763-2.281,3.531-4.551,5.294-6.785q-4.188-.22-8.353-.361C2449.592-18567.793,2447.786-18565.615,2445.99-18563.43Zm-54.02-4.164c-1.925,1.416-3.86,2.854-5.785,4.313,2.3-.166,4.589-.314,6.89-.443q2.83-2.329,5.666-4.584Q2395.354-18567.98,2391.97-18567.594Zm45.376,3.674q4.1.193,8.21.463,2.695-3.281,5.394-6.494-4.052-.129-8.091-.182C2441.02-18568.09,2439.181-18566.012,2437.346-18563.92Zm-37.061-4.535q-2.888,2.294-5.789,4.65,3.624-.193,7.257-.32c1.887-1.658,3.793-3.311,5.685-4.926C2405.045-18568.875,2402.668-18568.676,2400.285-18568.455Zm34.1-1.7q-2.809,2.921-5.618,5.922,3.953.108,7.924.285,2.744-3.129,5.484-6.193c-1.558-.02-3.126-.023-4.689-.023Q2435.931-18570.166,2434.387-18570.156Zm-67.914,3.863c-1.477.744-2.964,1.506-4.436,2.268,1.425-.266,2.845-.527,4.274-.781,1.42-.828,2.845-1.639,4.265-2.443Q2368.525-18566.787,2366.474-18566.293Zm42.165-2.85c-1.916,1.635-3.841,3.3-5.761,4.98q3.753-.123,7.519-.182,2.83-2.666,5.661-5.26C2413.584-18569.471,2411.106-18569.318,2408.638-18569.143Zm16.815-.848c-1.882,1.85-3.755,3.711-5.637,5.6q4.017.029,8.043.129,2.773-2.979,5.556-5.889C2430.752-18570.119,2428.107-18570.07,2425.453-18569.99Zm-8.429.338c-1.9,1.744-3.8,3.5-5.708,5.295,2.592-.033,5.189-.049,7.791-.033q2.809-2.824,5.623-5.576C2422.161-18569.885,2419.588-18569.781,2417.024-18569.652Zm-42.474,1.516c-1.639.906-3.269,1.82-4.908,2.754,1.687-.285,3.364-.557,5.051-.818,1.587-1,3.178-1.992,4.76-2.969C2377.814-18568.838,2376.184-18568.494,2374.55-18568.137Zm8.1-1.672q-2.6,1.57-5.2,3.188c1.877-.281,3.769-.549,5.651-.8q2.544-1.737,5.079-3.426C2386.333-18570.514,2384.5-18570.172,2382.655-18569.809Zm-16.625,2.129c-.639.281-1.3.568-1.935.848.486-.119.972-.232,1.458-.352.576-.291,1.153-.582,1.725-.867C2366.86-18567.928,2366.445-18567.8,2366.031-18567.68Zm24.749-3.631c-1.792,1.178-3.6,2.379-5.389,3.588.729-.1,1.463-.186,2.192-.275,1.129-.139,2.249-.271,3.378-.4.2-.02.4-.043.591-.066,1.758-1.3,3.521-2.584,5.279-3.846Q2393.8-18571.833,2390.779-18571.311Zm-16.82,1.324q-1.68.809-3.35,1.631c1.063-.238,2.12-.477,3.183-.705,1.063-.592,2.135-1.182,3.192-1.758C2375.97-18570.543,2374.974-18570.271,2373.959-18569.986Zm24.982-2.648c-1.839,1.3-3.664,2.621-5.5,3.959q3.3-.357,6.585-.656,2.709-2.145,5.4-4.236Q2402.182-18573.126,2398.941-18572.635Zm70.64,2.773c2.816.209,5.651.447,8.477.715q2.523-3.609,5.046-7.152-4.2-.258-8.362-.43Q2472.154-18573.324,2469.581-18569.861Zm-59.6-4.293q-1.429.179-2.859.361c-1.849,1.42-3.707,2.863-5.556,4.322q3.5-.308,7.009-.557,2.744-2.332,5.475-4.6C2412.693-18574.479,2411.34-18574.322,2409.982-18574.154Zm51.027,3.74c2.73.152,5.456.324,8.2.529q2.573-3.469,5.151-6.857c-2.7-.109-5.38-.191-8.067-.248C2464.521-18574.812,2462.772-18572.635,2461.009-18570.414Zm-79.1-1.711c-1.387.734-2.764,1.473-4.15,2.225,1.429-.295,2.864-.58,4.293-.861,1.339-.811,2.688-1.621,4.026-2.416C2384.69-18572.834,2383.3-18572.482,2381.912-18572.125Zm33.43-2.648q-2.78,2.3-5.565,4.664c2.435-.162,4.865-.311,7.3-.43q2.752-2.508,5.494-4.955C2420.16-18575.275,2417.744-18575.037,2415.342-18574.773Zm36.775,3.969q4.146.135,8.31.361,2.623-3.316,5.246-6.561c-2.54-.043-5.07-.072-7.6-.072h-.629Q2454.784-18573.974,2452.118-18570.8Zm-28.523-4.779c-1.854,1.648-3.7,3.311-5.551,5q3.8-.179,7.61-.291,2.744-2.681,5.484-5.293Q2427.357-18575.906,2423.595-18575.584Zm25.483-1.391q-2.716,2.944-5.432,5.965c2.678.037,5.351.1,8.038.186q2.659-3.158,5.327-6.246C2454.357-18577.066,2451.718-18577.033,2449.078-18576.975Zm-17.2.756c-1.834,1.754-3.664,3.521-5.5,5.322q3.938-.105,7.891-.143,2.723-2.845,5.451-5.617Q2435.8-18576.478,2431.881-18576.219Zm11.083,5.2c1.806-2.006,3.6-3.979,5.4-5.941q-3.809.094-7.609.258-2.759,2.792-5.518,5.66,1.229-.009,2.459-.01C2439.453-18571.053,2441.211-18571.043,2442.964-18571.02Zm-53.071-3.072c-1.544.895-3.1,1.8-4.636,2.725q2.537-.472,5.084-.914,2.273-1.494,4.541-2.955C2393.214-18574.865,2391.561-18574.488,2389.893-18574.092Zm8-1.8c-1.654,1.043-3.3,2.1-4.951,3.168,1.911-.314,3.812-.615,5.722-.9q2.438-1.737,4.87-3.432Q2400.712-18576.493,2397.893-18575.889Zm-16.415,2.367c-.543.248-1.067.492-1.611.744.486-.129.958-.248,1.439-.377.5-.268,1-.529,1.5-.791C2382.369-18573.807,2381.912-18573.664,2381.478-18573.521Zm24.444-3.992q-2.573,1.764-5.151,3.578c.086-.01.172-.023.257-.039q2.988-.428,5.985-.814,2.544-1.957,5.079-3.854Q2409.005-18578.106,2405.922-18577.514Zm-16.615,1.559q-1.537.779-3.069,1.566c1.067-.262,2.139-.514,3.212-.768q1.494-.87,2.988-1.725C2391.389-18576.576,2390.35-18576.27,2389.307-18575.955Zm24.668-3.012c-1.754,1.3-3.517,2.629-5.27,3.965.19-.025.381-.049.576-.072q3.074-.372,6.156-.705,2.616-2.159,5.227-4.26C2418.435-18579.7,2416.2-18579.344,2413.975-18578.967Zm8.091-1.281c-1.782,1.424-3.559,2.873-5.337,4.33q3.531-.363,7.071-.666,2.644-2.347,5.294-4.633Q2425.57-18580.766,2422.065-18580.248Zm-24.906,2.023c-1.291.725-2.6,1.459-3.9,2.193q2.18-.486,4.35-.949c1.282-.811,2.554-1.611,3.836-2.406C2400.018-18579.006,2398.594-18578.619,2397.159-18578.225Zm34.007-3.254c-.329.043-.657.082-.986.125-1.792,1.543-3.569,3.1-5.361,4.684,2.473-.205,4.941-.387,7.424-.549,1.777-1.687,3.545-3.346,5.322-4.988Q2434.364-18581.873,2431.167-18581.479Zm44.3,3.8c2.769.115,5.537.258,8.32.43q2.509-3.5,5.022-6.937c-2.749-.076-5.48-.119-8.219-.139Q2478.022-18581.032,2475.466-18577.682Zm-37.137-4.607q-2.673,2.481-5.346,5.023,3.859-.237,7.738-.41,2.659-2.7,5.323-5.332Q2442.183-18582.686,2438.328-18582.289Zm-33.3,1.973c-1.463.893-2.94,1.8-4.4,2.711,1.73-.352,3.45-.689,5.184-1.02q2.18-1.5,4.36-2.963Q2407.606-18580.973,2405.031-18580.316Zm67.266-3.973q-2.616,3.138-5.227,6.342,4,.085,8.01.252,2.559-3.357,5.113-6.633c-.7,0-1.391,0-2.087,0Q2475.2-18584.332,2472.3-18584.289Zm-25.135,1.186c-1.8,1.773-3.607,3.574-5.4,5.385,2.5-.1,5-.176,7.519-.234,1.763-1.9,3.531-3.8,5.3-5.67C2452.1-18583.475,2449.635-18583.3,2447.162-18583.1Zm16.386-.957c-1.749,1.973-3.512,3.992-5.26,6.014,2.716,0,5.441.027,8.162.086q2.595-3.2,5.194-6.318Q2467.592-18584.215,2463.549-18584.061Zm-8.224.391c-1.782,1.887-3.55,3.777-5.337,5.7,2.616-.053,5.241-.076,7.862-.08q2.187-2.525,4.374-5c.3-.328.591-.662.881-1Q2459.21-18583.9,2455.324-18583.67Zm-58.618,4.055c-.438.209-.886.43-1.325.643.5-.143,1-.281,1.5-.418l1.325-.74Zm16.229-2.625c-1.582,1.047-3.154,2.1-4.736,3.168.958-.172,1.92-.344,2.878-.51.986-.176,1.968-.344,2.954-.506q2.351-1.749,4.7-3.449C2416.8-18583.117,2414.866-18582.689,2412.936-18582.24Zm7.915-1.75c-1.639,1.182-3.3,2.383-4.941,3.594q3.209-.521,6.428-.986c1.653-1.32,3.283-2.607,4.932-3.893C2425.125-18584.865,2422.995-18584.437,2420.851-18583.99Zm-16.41,1.807c-.943.506-1.877,1.006-2.826,1.516,1.1-.291,2.206-.572,3.307-.854q1.415-.858,2.83-1.705C2406.651-18582.885,2405.541-18582.537,2404.44-18582.184Zm24.368-3.383c-1.687,1.3-3.388,2.645-5.075,3.982q3.409-.478,6.828-.9c1.692-1.447,3.369-2.877,5.06-4.293C2433.344-18586.4,2431.081-18585.99,2428.808-18585.566Zm-16.62.99c-1.229.721-2.449,1.436-3.678,2.168,1.5-.361,2.992-.719,4.484-1.057q1.844-1.222,3.688-2.416C2415.185-18585.457,2413.684-18585.02,2412.188-18584.576Zm24.6-2.4q-2.573,2.153-5.146,4.359,3.6-.428,7.223-.795,2.573-2.373,5.146-4.684Q2440.4-18587.57,2436.789-18586.973Zm15.224-2.191c-2.4.295-4.817.619-7.209.957-1.72,1.549-3.459,3.137-5.179,4.723q3.788-.372,7.581-.676,2.595-2.552,5.184-5.047Zm-32.053,2.367c-1.4.893-2.807,1.8-4.2,2.707,1.772-.395,3.555-.775,5.332-1.143q2.109-1.509,4.217-2.988C2423.524-18587.758,2421.741-18587.287,2419.959-18586.8Zm33.645-2.559c-1.763,1.688-3.512,3.385-5.275,5.109q3.645-.278,7.3-.486c1.729-1.826,3.459-3.621,5.194-5.408C2458.412-18589.9,2456.01-18589.641,2453.6-18589.355Zm8.01-.861q-2.623,2.7-5.237,5.441,3.838-.214,7.686-.348,2.587-2.9,5.175-5.752C2466.689-18590.68,2464.154-18590.461,2461.614-18590.217Zm8.067-.691c-1.73,1.906-3.45,3.822-5.179,5.766q4-.135,8.019-.191c.2-.246.405-.484.61-.729q2.258-2.7,4.522-5.355C2474.994-18591.275,2472.33-18591.1,2469.681-18590.908Zm16.8-.877q-2.544,3.182-5.084,6.424,4.074.035,8.162.152,1.987-2.716,3.983-5.375c.343-.453.681-.906,1.02-1.357Q2490.513-18591.906,2486.477-18591.785Zm-8.124.334c-1.725,2.01-3.455,4.055-5.175,6.109,2.6-.035,5.213-.039,7.819-.02q1.472-1.881,2.949-3.746c.71-.891,1.415-1.781,2.125-2.664Q2482.205-18591.648,2478.353-18591.451Zm-66.6,5.471c-.381.189-.767.391-1.148.586.552-.168,1.1-.33,1.653-.5l1.263-.729C2412.927-18586.41,2412.34-18586.2,2411.75-18585.98Zm16-2.865c-1.515,1.049-3.021,2.107-4.541,3.184,2.016-.4,4.05-.8,6.071-1.172,1.52-1.172,3.059-2.344,4.579-3.488C2431.81-18589.85,2429.785-18589.359,2427.745-18588.846Zm7.824-1.877c-1.6,1.2-3.169,2.387-4.76,3.611,2.177-.391,4.365-.762,6.547-1.113,1.6-1.33,3.193-2.641,4.794-3.941C2439.948-18591.7,2437.766-18591.223,2435.569-18590.723Zm-16.206,2.049q-1.329.744-2.659,1.5,1.751-.5,3.5-.973c.915-.582,1.834-1.162,2.749-1.734C2421.756-18589.479,2420.569-18589.084,2419.364-18588.674Zm24.053-3.754q-2.451,1.986-4.9,4.016,3.5-.557,7.014-1.043,2.466-2.2,4.936-4.35C2448.12-18593.371,2445.761-18592.91,2443.417-18592.428Zm-16.41,1.238c-1.177.715-2.344,1.439-3.521,2.174q2.344-.615,4.689-1.2c1.206-.834,2.4-1.648,3.607-2.463C2430.185-18592.189,2428.6-18591.7,2427.007-18591.189Zm24.287-2.773c-1.663,1.453-3.316,2.916-4.979,4.4q3.71-.507,7.424-.937c1.677-1.605,3.345-3.184,5.022-4.75C2456.263-18594.844,2453.785-18594.414,2451.293-18593.963Zm8.791-1.5c-1.706,1.588-3.426,3.2-5.132,4.818,2.359-.268,4.712-.51,7.076-.734,1.692-1.73,3.374-3.432,5.07-5.123Q2463.589-18596.012,2460.084-18595.459Zm-25.421,1.92c-1.348.9-2.706,1.811-4.055,2.73.172-.043.338-.08.505-.123q2.566-.615,5.132-1.187c1.391-1.037,2.764-2.049,4.155-3.059C2438.48-18594.648,2436.579-18594.105,2434.664-18593.539Zm37.89-3.674c-1.539.191-3.083.391-4.617.6q-2.559,2.552-5.122,5.164c2.506-.232,5-.434,7.51-.613q2.544-2.774,5.084-5.49C2474.46-18597.441,2473.507-18597.326,2472.554-18597.213Zm-46,4.613c-.353.191-.7.377-1.058.566.648-.209,1.3-.414,1.949-.619.429-.262.862-.529,1.3-.785C2428.017-18593.162,2427.293-18592.881,2426.559-18592.6Zm49.293-5c-1.691,1.811-3.4,3.654-5.089,5.5q3.931-.272,7.876-.473,2.53-2.944,5.07-5.836Q2479.771-18598.045,2475.852-18597.6Zm-33.5,1.881q-2.2,1.588-4.4,3.217,3.109-.68,6.232-1.311,2.237-1.8,4.479-3.559Q2445.509-18596.575,2442.354-18595.717Zm42.1-2.754c-1.7,1.936-3.412,3.895-5.113,5.871q3.809-.185,7.628-.291,2.509-3.114,5.032-6.18C2489.479-18598.9,2486.958-18598.693,2484.452-18598.471Zm7.958-.623c-1.682,2.043-3.354,4.1-5.037,6.193q4-.105,8.01-.133,2.48-3.287,4.975-6.514C2497.7-18599.428,2495.064-18599.275,2492.41-18599.094Zm-58.337,3.674q-1.286.75-2.568,1.516,1.894-.574,3.788-1.125c.919-.609,1.834-1.211,2.754-1.811C2436.722-18596.379,2435.4-18595.9,2434.073-18595.42Zm16-2.3c-1.549,1.211-3.078,2.426-4.622,3.66q3.388-.671,6.781-1.277,2.359-2.03,4.708-4.021C2454.653-18598.836,2452.346-18598.289,2450.069-18597.723Zm7.743-1.834c-1.587,1.34-3.183,2.707-4.765,4.074q3.624-.636,7.257-1.2,2.423-2.25,4.851-4.445C2462.705-18600.633,2460.251-18600.1,2457.812-18599.557Zm-16.215,1.486c-1.139.73-2.287,1.473-3.426,2.217.972-.277,1.944-.543,2.921-.811.715-.2,1.444-.391,2.163-.586,1.206-.863,2.4-1.715,3.607-2.564C2445.109-18599.246,2443.345-18598.66,2441.6-18598.07Zm25.016-3.354c-1.658,1.5-3.326,3.006-4.984,4.535q3.416-.513,6.833-.967,2.473-2.458,4.941-4.85C2471.144-18602.3,2468.866-18601.873,2466.613-18601.424Zm-17.458.877q-1.98,1.38-3.955,2.787c1.954-.51,3.9-1,5.851-1.473q2.052-1.594,4.107-3.154C2453.161-18601.795,2451.15-18601.176,2449.154-18600.547Zm25.149-2.316c-1.668,1.611-3.34,3.25-5,4.9.853-.115,1.711-.225,2.563-.324,1.587-.2,3.178-.381,4.765-.553q2.487-2.646,4.989-5.236Q2477.958-18603.507,2474.3-18602.863Zm-33.154,3.383c-.367.205-.724.41-1.091.615.791-.271,1.587-.539,2.378-.8.486-.311.967-.615,1.453-.92C2442.974-18600.223,2442.069-18599.857,2441.149-18599.48Zm40.911-4.664c-1.668,1.734-3.331,3.479-4.994,5.25q3.859-.413,7.733-.752c1.663-1.883,3.335-3.756,5-5.6C2487.216-18604.908,2484.648-18604.545,2482.06-18604.145Zm-25.325,1.291q-2.151,1.629-4.3,3.287,3.259-.779,6.528-1.5c1.477-1.238,2.964-2.463,4.441-3.674C2461.185-18604.131,2458.955-18603.5,2456.735-18602.854Zm35.961-2.764c-.7.09-1.4.176-2.092.268-1.682,1.857-3.378,3.744-5.056,5.641,2.473-.215,4.956-.395,7.438-.557,1.654-2,3.321-3.988,4.984-5.957C2496.212-18606.031,2494.449-18605.832,2492.7-18605.617Zm5.7-.648c-1.672,1.973-3.331,3.955-4.994,5.971q3.917-.243,7.857-.41,2.466-3.179,4.951-6.309Q2502.3-18606.686,2498.394-18606.266Zm-49.85,3.84q-1.286.788-2.563,1.588c1.434-.467,2.878-.924,4.312-1.367.963-.668,1.92-1.324,2.883-1.979C2451.632-18603.607,2450.088-18603.025,2448.544-18602.426Zm15.8-2.562c-1.506,1.229-3.016,2.482-4.522,3.74,2.363-.51,4.717-1,7.085-1.463q2.33-2.095,4.66-4.135C2469.162-18606.256,2466.751-18605.631,2464.344-18604.988Zm-8.372-.219c-1.129.752-2.273,1.529-3.4,2.3,1.782-.543,3.578-1.072,5.37-1.582q1.83-1.365,3.65-2.707Q2458.786-18606.229,2455.972-18605.207Zm17.22-2.035c-1.611,1.4-3.216,2.811-4.827,4.25,2.182-.42,4.384-.818,6.571-1.2q2.394-2.309,4.8-4.57C2477.557-18608.275,2475.37-18607.771,2473.193-18607.242Zm7.519-1.73q-2.444,2.288-4.879,4.633c2.373-.4,4.76-.781,7.143-1.135q2.444-2.522,4.894-4.984Q2484.288-18609.75,2480.712-18608.973Zm-17.292,1.154q-1.958,1.43-3.912,2.887,3.109-.879,6.223-1.691,2.073-1.673,4.146-3.307C2467.718-18609.248,2465.574-18608.543,2463.42-18607.818Zm24.892-2.727c-1.639,1.654-3.269,3.316-4.9,5,2.525-.371,5.065-.719,7.6-1.039q2.466-2.707,4.936-5.365Q2492.128-18611.286,2488.312-18610.545Zm-32.8,3.928c-.419.242-.839.494-1.258.742,1.039-.381,2.082-.758,3.121-1.129.6-.395,1.2-.791,1.8-1.182Q2457.34-18607.415,2455.51-18606.617Zm41.292-5.477q-2.5,2.681-4.993,5.418a.935.935,0,0,1,.133-.018c2.364-.287,4.731-.559,7.1-.8q2.466-2.895,4.941-5.738Q2500.393-18612.7,2496.8-18612.094Zm-25.9,1.84q-2.13,1.673-4.25,3.393,3.445-.894,6.895-1.715,2.23-1.937,4.46-3.826Q2474.453-18611.365,2470.9-18610.254Zm33.526-3.045c-1.658,1.906-3.3,3.816-4.956,5.762q3.853-.387,7.709-.7,2.459-3.082,4.932-6.105C2509.544-18614.018,2506.99-18613.67,2504.427-18613.3Zm-41.617,3.6c-.881.568-1.772,1.148-2.659,1.721.262-.086.519-.176.781-.268q1.965-.671,3.94-1.328c1.02-.734,2.035-1.459,3.054-2.184C2466.222-18611.088,2464.516-18610.406,2462.81-18609.7Zm17.03-3.23q-2.337,1.966-4.67,3.975c2.087-.486,4.184-.953,6.275-1.4q2.33-2.18,4.665-4.3C2484.014-18614.1,2481.932-18613.527,2479.84-18612.932Zm-9.711.314q-1.722,1.216-3.45,2.449c1.944-.633,3.9-1.248,5.856-1.848q1.894-1.474,3.788-2.922Q2473.229-18613.807,2470.129-18612.617Zm17.049-2.32q-2.38,2.159-4.765,4.375,3.467-.729,6.947-1.387,2.4-2.4,4.8-4.742Q2490.661-18615.848,2487.178-18614.937Zm7.438-1.857c-1.611,1.572-3.216,3.154-4.822,4.764q3.731-.7,7.467-1.32,2.437-2.6,4.875-5.15Q2498.368-18617.693,2494.616-18616.795Zm-17.139,1.438c-1.315,1.006-2.625,2.012-3.941,3.035q3.338-1.014,6.685-1.953,2.123-1.772,4.246-3.521Q2480.971-18616.616,2477.477-18615.357Zm-7.8,1.326c-.524.322-1.034.637-1.553.967.891-.348,1.782-.7,2.673-1.035.348-.133.691-.262,1.043-.395.724-.5,1.458-1.006,2.187-1.506C2472.569-18615.352,2471.125-18614.7,2469.672-18614.031Zm33.4-4.666c-1.653,1.715-3.3,3.449-4.951,5.2q3.516-.571,7.038-1.072,2.451-2.795,4.908-5.537Q2506.561-18619.438,2503.069-18618.7Zm7.448-1.49q-2.466,2.751-4.922,5.561c2.516-.354,5.032-.682,7.562-.982q2.451-2.979,4.917-5.914C2515.548-18621.1,2513.037-18620.66,2510.516-18620.187Zm-23.944,1.691c-1.51,1.225-3.011,2.457-4.522,3.711q2.966-.814,5.942-1.576,2.258-2.045,4.531-4.041C2490.532-18619.787,2488.56-18619.154,2486.573-18618.5Zm-9.716,1.248c-.943.643-1.9,1.291-2.849,1.943,1.782-.662,3.574-1.3,5.361-1.934,1.115-.84,2.24-1.674,3.359-2.5Q2479.79-18618.521,2476.857-18617.248Zm16.854-3.521c-1.549,1.357-3.112,2.744-4.655,4.137q3.359-.853,6.728-1.631,2.358-2.279,4.717-4.512C2498.242-18622.133,2495.964-18621.461,2493.71-18620.77Zm-9.635.477c-1.191.877-2.392,1.768-3.583,2.658,2.139-.742,4.293-1.467,6.437-2.168,1.344-1.086,2.673-2.158,4.017-3.217Q2487.509-18621.7,2484.076-18620.293Zm16.9-2.615c-1.577,1.49-3.169,3.016-4.746,4.541,2.44-.559,4.879-1.1,7.324-1.6q2.416-2.5,4.832-4.947C2505.9-18624.271,2503.445-18623.609,2500.972-18622.908Zm-23.605,4.3,1.444-.615c.229-.152.462-.309.691-.457C2478.792-18619.33,2478.077-18618.969,2477.367-18618.611Zm32.039-6.566c-1.639,1.648-3.288,3.332-4.922,5.018q3.4-.7,6.823-1.324,2.437-2.7,4.884-5.346C2513.933-18626.307,2511.665-18625.754,2509.406-18625.178Zm-25.783,3.465c-.681.438-1.344.867-2.02,1.311q2.309-.958,4.622-1.883,1.394-1,2.787-2Q2486.318-18623.024,2483.623-18621.713Zm9.811-2.254q-2.2,1.723-4.4,3.482,2.759-.885,5.537-1.719c1.472-1.287,2.93-2.545,4.408-3.8C2497.136-18625.344,2495.278-18624.662,2493.434-18623.967Zm23.234-2.979c-1.635,1.773-3.278,3.568-4.908,5.381,2.464-.449,4.946-.873,7.419-1.264q2.452-2.9,4.917-5.746C2521.609-18628.061,2519.15-18627.518,2516.668-18626.945Zm-16.334.463c-1.53,1.295-3.05,2.6-4.579,3.926q3.245-.964,6.485-1.857,2.33-2.18,4.66-4.312Q2503.619-18627.64,2500.334-18626.482Zm-9.63,1.42c-1.058.748-2.106,1.5-3.164,2.258q3.059-1.207,6.128-2.354,1.887-1.479,3.779-2.92C2495.2-18627.1,2492.948-18626.092,2490.7-18625.062Zm16.7-3.832c-1.563,1.43-3.14,2.893-4.7,4.355q3.581-.984,7.176-1.887,2.409-2.408,4.813-4.77Q2511.045-18630.088,2507.4-18628.895Zm-17.01,2.889c-.172.109-.362.223-.534.334.171-.082.338-.158.51-.234q1.372-.636,2.749-1.248.915-.636,1.839-1.268Q2492.674-18627.235,2490.389-18626.006Zm10.121-3.389c-1.458,1.1-2.9,2.2-4.36,3.316,1.677-.609,3.35-1.205,5.032-1.791q2.165-1.822,4.326-3.6C2503.836-18630.791,2502.178-18630.1,2500.51-18629.395Zm15.324-2.148q-2.466,2.408-4.927,4.865c2.192-.543,4.393-1.068,6.59-1.562q2.444-2.625,4.889-5.2C2520.194-18632.824,2518.021-18632.2,2515.834-18631.543Zm-18.483,1.883c-.863.586-1.734,1.182-2.6,1.771q2.837-1.251,5.685-2.453c1.172-.887,2.34-1.754,3.516-2.617Q2500.646-18631.351,2497.351-18629.66Zm9.74-2.445c-1.52,1.244-3.045,2.5-4.56,3.773q3.095-1.063,6.2-2.062,2.323-2.1,4.646-4.16Q2510.23-18633.359,2507.09-18632.105Zm15.8-1.467c-1.639,1.715-3.292,3.473-4.922,5.227q3.624-.814,7.271-1.549,2.466-2.83,4.937-5.6C2527.756-18634.883,2525.316-18634.24,2522.9-18633.572Zm-8.972-1.187q-2.351,2.08-4.7,4.213,3.5-1.122,7.023-2.164,2.416-2.35,4.836-4.645Q2517.5-18636.1,2513.923-18634.76Zm-5.956-.119c-1.491,1.072-2.992,2.164-4.479,3.264q2.165-.894,4.341-1.748c1.425-1.158,2.864-2.311,4.288-3.439C2510.731-18636.174,2509.354-18635.535,2507.967-18634.879Zm-3.941.781c-.61.4-1.225.8-1.834,1.2,1.649-.811,3.312-1.609,4.965-2.4,1.1-.791,2.2-1.582,3.3-2.359Q2507.238-18635.915,2504.026-18634.1Zm18.345-3.711q-2.495,2.35-4.989,4.76,3.166-.923,6.337-1.781,2.466-2.566,4.937-5.08C2526.569-18639.234,2524.458-18638.529,2522.371-18637.809Zm-8.324.129c-1.553,1.219-3.092,2.449-4.646,3.7q2.923-1.137,5.851-2.221,2.344-2.051,4.7-4.061C2517.983-18639.424,2516.01-18638.562,2514.047-18637.68Zm15.167-2.412q-2.494,2.537-4.984,5.123c2.373-.635,4.736-1.244,7.119-1.826q2.494-2.78,5-5.5C2533.974-18641.592,2531.586-18640.854,2529.214-18640.092Zm-8.639-.437c-1.6,1.363-3.193,2.734-4.784,4.131q3.416-1.257,6.847-2.43,2.466-2.323,4.932-4.58C2525.24-18642.479,2522.9-18641.516,2520.575-18640.529Zm-4.208-.248c-1.739,1.191-3.469,2.393-5.208,3.621,1.1-.506,2.206-1.006,3.3-1.5,1.477-1.152,2.945-2.287,4.422-3.416C2518.04-18641.641,2517.211-18641.215,2516.367-18640.777Zm-5.079,2.072q1.38-.735,2.768-1.467,1.38-.958,2.769-1.9C2514.981-18640.973,2513.127-18639.844,2511.288-18638.705Zm17.778-5.293c-1.715,1.559-3.417,3.125-5.132,4.727q3.023-1.022,6.047-1.982,2.523-2.537,5.046-5.021C2533.03-18645.533,2531.058-18644.779,2529.066-18644Zm-7.671.672q-2.5,1.878-5.008,3.82,2.695-1.178,5.394-2.311,2.444-2.071,4.9-4.088C2524.925-18645.066,2523.148-18644.2,2521.395-18643.326Zm14.247-3.178q-2.551,2.508-5.1,5.078,3.474-1.093,6.957-2.105,2.551-2.76,5.117-5.451Q2539.117-18647.79,2535.641-18646.5Zm-8.205.242c-1.682,1.377-3.354,2.768-5.036,4.184q3.331-1.386,6.661-2.691,2.573-2.338,5.146-4.613Q2530.819-18647.868,2527.436-18646.262Zm-7.51,3.078c.429-.215.853-.43,1.277-.639.805-.605,1.615-1.211,2.421-1.811Q2521.773-18644.417,2519.927-18643.184Zm9.735-6.213q-2.981,2.136-5.961,4.346c1.553-.758,3.116-1.5,4.67-2.236q2.666-2.171,5.337-4.277Q2531.684-18650.5,2529.662-18649.4Zm6.333-.781q-2.716,2.379-5.432,4.82c1.9-.732,3.812-1.453,5.718-2.148,1.744-1.705,3.493-3.383,5.241-5.051Q2538.755-18651.4,2535.994-18650.178Zm-1.31-1.9q-2.788,2.188-5.565,4.441,3.2-1.488,6.409-2.906,2.773-2.437,5.551-4.8Q2537.876-18653.75,2534.684-18652.08Zm-2.282.877c.853-.457,1.715-.91,2.568-1.354.405-.314.81-.633,1.215-.947Q2534.291-18652.367,2532.4-18651.2Zm10.9-5.236q-2.995,2.517-5.985,5.107,2.644-1.143,5.284-2.244,2.8-2.646,5.6-5.213C2546.567-18658.021,2544.928-18657.234,2543.3-18656.439Zm-5.675,2.072c-.558.434-1.12.867-1.677,1.3q3.03-1.573,6.066-3.068c.991-.844,1.987-1.678,2.978-2.5C2542.527-18657.244,2540.078-18655.83,2537.624-18654.367Zm10.3-5.908c-1.234,1.01-2.454,2.02-3.683,3.049,1.563-.762,3.135-1.506,4.7-2.238q1.887-1.723,3.774-3.408Q2550.32-18661.593,2547.921-18660.275Zm-3.783.982c-.376.275-.739.547-1.115.828q2.745-1.564,5.5-3.078c1.048-.854,2.092-1.7,3.14-2.535Q2547.894-18661.746,2544.137-18659.293Zm11.86-7.43q-2.273,1.767-4.536,3.584c1.282-.687,2.559-1.363,3.841-2.029,1.382-1.211,2.754-2.412,4.136-3.6C2558.289-18668.09,2557.146-18667.414,2556-18666.723Zm-5.06,2.492c1.353-.838,2.7-1.662,4.05-2.482.653-.51,1.311-1.02,1.963-1.525s1.3-1,1.954-1.506Q2554.908-18667.055,2550.937-18664.23Zm8.386-5.061c.758-.443,1.52-.887,2.278-1.324q2.151-1.822,4.307-3.607Q2562.606-18671.8,2559.323-18669.291Zm196.171-96.75c-6.857.838-13.69,1.92-20.546,3.264-46.3,9.039-90.2,28.912-132.068,59.947a366.49,366.49,0,0,1,50.77-31.816,306.466,306.466,0,0,1,81.237-28.436c117.915-23.029,235.592,29.047,344.249,102.049v.385C2976.793-18729.428,2866.446-18779.666,2755.494-18766.041Z" transform="translate(-1712.604 18769.096)" fill="#009c73" stroke="rgba(0,0,0,0)" stroke-miterlimit="10" stroke-width="1" opacity="0.15"/>
</svg>
