<svg xmlns="http://www.w3.org/2000/svg" width="377.011" height="234.451" viewBox="0 0 377.011 234.451">
  <path id="Intersection_83" data-name="Intersection 83" d="M-3248.154-17900.764a325.838,325.838,0,0,0,54.841-91.279c-1.461-.385-2.913-.756-4.364-1.117a371.327,371.327,0,0,1-50.477,85.961v-.062a369.951,369.951,0,0,0,50.335-85.936c-1.443-.357-2.867-.705-4.3-1.039-.018.041-.037.078-.05.119a431.379,431.379,0,0,1-45.984,79.486v-.25a427.823,427.823,0,0,0,45.833-79.3c.014-.031.027-.064.041-.1-1.411-.33-2.826-.654-4.227-.967-.234.48-.463.967-.7,1.447a514.65,514.65,0,0,1-40.951,71.014v-.25a510.94,510.94,0,0,0,40.786-70.842c.225-.467.449-.943.678-1.41-1.388-.307-2.78-.6-4.154-.893-.467.9-.925,1.795-1.392,2.707a639.956,639.956,0,0,1-35.918,62.074v-.373a640,640,0,0,0,35.74-61.793c.453-.895.907-1.777,1.365-2.656-1.365-.285-2.725-.555-4.081-.82q-1.072,1.925-2.139,3.893-15.74,28.992-30.885,52.686v-.414c10.063-15.758,20.261-33.17,30.688-52.377q1.051-1.937,2.1-3.832c-1.342-.262-2.675-.51-4.007-.752q-1.463,2.473-2.931,5.01c-8,13.885-16.633,28.533-25.852,43.2v-.453c9.141-14.557,17.7-29.088,25.641-42.869q1.443-2.5,2.885-4.932c-1.319-.238-2.629-.463-3.938-.678-1.26,1.982-2.51,4-3.769,6.059-6.494,10.639-13.464,22.055-20.819,33.736v-.492c7.274-11.559,14.169-22.85,20.6-33.381q1.855-3.044,3.71-5.973-1.944-.316-3.87-.609-2.329,3.448-4.648,7.039c-3.526,5.459-7.135,11.088-10.62,16.527q-2.579,4.022-5.17,8.059v-.521q2.473-3.85,4.932-7.687c3.485-5.445,7.094-11.068,10.62-16.527q2.281-3.539,4.575-6.934c-1.278-.193-2.537-.371-3.806-.545q-2.789,3.882-5.564,7.959c-3.572,5.232-7.173,10.59-10.758,15.963v-.547c3.5-5.248,7.017-10.477,10.506-15.59q2.734-4.011,5.477-7.832c-1.25-.168-2.491-.33-3.732-.48q-3.27,4.28-6.531,8.811-2.86,3.979-5.72,8.041v-.564q2.728-3.867,5.459-7.668,3.208-4.459,6.416-8.66c-1.227-.146-2.446-.289-3.664-.416q-3.765,4.635-7.524,9.594c-.229.3-.458.6-.687.908v-.568l.417-.551q3.689-4.869,7.382-9.424c-1.2-.129-2.4-.244-3.59-.354q-2.107,2.438-4.209,4.973v-.57q1.879-2.262,3.76-4.443c-1.177-.105-2.349-.2-3.517-.289l-.243.266v-.93l.3.023q.962-1.037,1.914-2.061c-.742-.037-1.48-.068-2.217-.1v-.65c.094,0,.187.008.28.01.838.037,1.681.074,2.523.115q.941-1,1.882-1.979c-1.1-.018-2.194-.037-3.284-.041q-.7.683-1.4,1.369v-.586q.4-.4.806-.789h-.806v-.707q.762,0,1.525.008.907-.873,1.8-1.732c-1.044.023-2.079.061-3.119.1l-.211.186v-.863c.11-.006.22-.01.33-.014.586-.521,1.177-1.035,1.763-1.549q-1.047.079-2.093.166v-1.187c.315-.252.632-.5.948-.75-.316.039-.632.08-.948.121v-.793q1.072-.138,2.148-.262c.659-.514,1.323-1.018,1.988-1.521-.852.133-1.7.275-2.546.422-.527.365-1.06.738-1.589,1.113v-.576l.495-.35-.495.09v-.5c.477-.084.954-.164,1.429-.246.573-.395,1.149-.793,1.722-1.182-.751.16-1.5.324-2.249.494q-.451.281-.9.566v-.908l.893-.2c.334-.211.673-.412,1.012-.623-.623.174-1.25.348-1.869.527l-.037.02v-1.408q1.6-.653,3.206-1.273,3.126-1.406,6.274-2.687,3.112-1.471,6.247-2.8,3.036-1.5,6.1-2.867,3.015-1.559,6.054-2.98,2.974-1.608,5.967-3.074,2.933-1.661,5.894-3.178,2.885-1.7,5.789-3.26,2.851-1.761,5.72-3.367,2.8-1.8,5.633-3.461,2.762-1.854,5.532-3.551,2.714-1.9,5.441-3.641,2.775-2.019,5.564-3.869c1.621-1.227,3.256-2.418,4.9-3.559q2.652-2.109,5.34-4.049,2.24-1.846,4.5-3.572c.2-.15.394-.3.586-.443q1.436-1.23,2.881-2.408,1.085-.879,2.171-1.74,2.4-2.139,4.836-4.131,2.4-2.232,4.854-4.324,2.219-2.136,4.479-4.158a144.578,144.578,0,0,1,27.7-22.064,117.951,117.951,0,0,1,32.46-13.555c.128-.033.261-.07.389-.1,70.1-17.477,144.608,22.736,206.481,58.922v.168c-61.863-36.182-136.381-76.418-206.445-58.947-.133.031-.257.063-.389.1-21.46,5.354-41,16.7-58.807,34.256a136.4,136.4,0,0,1,23.865-16.83,118.035,118.035,0,0,1,28.146-11.057l.206-.049q2.666-.659,5.358-1.2c34.127-6.783,71.511-2.945,114.294,11.742,33.234,11.406,65.075,27.719,93.772,42.938v.186c-61.073-32.393-135.212-69.182-208.034-54.705-21.927,4.359-42,14.893-60.419,31.814a132.4,132.4,0,0,1,24.212-15.7,117.631,117.631,0,0,1,23.938-8.814q5.454-1.362,11.042-2.2c34.778-5.244,72.239-1.451,114.532,11.59,33.937,10.471,66.014,25.322,94.729,38.955v.2c-60.166-28.568-133.843-61.934-209.234-50.562-21.721,3.273-41.464,12.131-59.7,27.02-.673.7-1.342,1.41-2.01,2.125a122.587,122.587,0,0,1,43.832-21.127l.174-.045a122.421,122.421,0,0,1,16.482-2.895c35.144-3.746,72.445-.027,114.037,11.371,34.93,9.568,67.508,23.043,96.415,35.123v.219c-59.24-24.756-132.522-54.814-210.434-46.512-22.2,2.363-42.458,10.451-61.266,24.689-.522.572-1.049,1.154-1.571,1.734a121.9,121.9,0,0,1,39.55-17.955,124.863,124.863,0,0,1,22.074-3.408c79.067-5.184,150.981,20.7,208.762,41.492l2.885,1.037v.236l-2.958-1.062c-57.763-20.793-129.654-46.662-208.675-41.479-22.573,1.479-43.259,8.732-62.549,22.17-.472.531-.934,1.063-1.4,1.6a122.619,122.619,0,0,1,35.272-15.053,127.768,127.768,0,0,1,27.464-3.678c77.84-2.143,146.887,18.727,202.365,35.5q5.338,1.611,10.478,3.156v.256q-5.173-1.553-10.547-3.18c-55.464-16.766-124.492-37.631-202.287-35.486a122.367,122.367,0,0,0-63.006,18.793c-.673.779-1.342,1.576-2.006,2.373a123.711,123.711,0,0,1,30.922-12.375,131.238,131.238,0,0,1,32.891-3.773c74.822.588,140.233,16.721,192.793,29.686,7.345,1.813,14.427,3.559,21.24,5.191v.271c-6.833-1.639-13.937-3.391-21.3-5.207-52.547-12.959-117.939-29.088-192.729-29.676-23.265-.182-44.4,5.084-64.188,16.336-.623.756-1.241,1.512-1.859,2.285.852-.436,1.708-.855,2.564-1.273.3-.4.609-.8.911-1.209q-.453.606-.907,1.209a124.194,124.194,0,0,1,23.832-8.633l.128-.031a134.666,134.666,0,0,1,38.327-3.682c69.047,2.816,129.443,14.627,177.973,24.111,13.191,2.578,25.621,5.008,37.25,7.072v.287c-11.646-2.066-24.093-4.5-37.306-7.08-48.516-9.484-108.9-21.291-177.927-24.111-22.582-.92-43.241,3.119-62.645,12.563q-.879,1.187-1.754,2.395a127.541,127.541,0,0,1,19.175-6.467l.2-.051a139.155,139.155,0,0,1,43.841-3.457c58.693,4.209,109.078,11.912,153.527,18.707,22.984,3.516,44.056,6.738,62.887,8.893v.3c-18.845-2.156-39.929-5.379-62.928-8.895-44.45-6.795-94.826-14.5-153.509-18.707-22.875-1.645-43.85,1.631-63.583,10.217-.568.8-1.136,1.6-1.7,2.414a127.976,127.976,0,0,1,14.444-4.525l.192-.051a143.808,143.808,0,0,1,49.483-3.1c39.9,4.018,76.393,8.615,108.588,12.672,42.5,5.354,78.857,9.932,109.018,11.438v.322c-30.182-1.5-66.547-6.086-109.059-11.439-32.195-4.057-68.685-8.65-108.578-12.672-23.168-2.33-44.436.184-64.481,7.918q-.838,1.216-1.671,2.451,4.76-1.579,9.626-2.793c17.265-4.307,35.593-5.162,55.363-2.635l8.1,1.041c90.181,11.535,159.9,20.453,210.7,19.686v.34c-50.835.773-120.549-8.148-210.745-19.687l-8.1-1.035c-23.448-3-45-1.223-65.338,5.66-.554.83-1.1,1.662-1.653,2.506q2.274-.653,4.58-1.229c19.014-4.744,39.266-5.389,61.261-2.014,86.047,13.2,147.272,19.143,192.683,18.68q14.6-.144,27.308-1.16v.363q-12.722,1.02-27.3,1.164c-45.434.457-106.678-5.482-192.743-18.689-21.689-3.33-41.8-2.734-60.831,2.01q-2.679.665-5.326,1.443c-.554.852-1.1,1.707-1.649,2.572,20.613-5.037,42.627-5.389,66.675-1.121,78.179,13.885,139.6,19.592,187.778,17.457a330.575,330.575,0,0,0,33.4-3.064v.389a330.438,330.438,0,0,1-33.381,3.061c-48.205,2.139-109.655-3.576-187.865-17.461-23.961-4.26-46.039-3.922-66.863,1.271-.032.01-.06.014-.092.023q-.824,1.313-1.644,2.646c20.883-4.254,43.172-3.928,67.476.939,94.825,19,169.239,22.764,222.368,11.336v.41c-53.188,11.422-127.615,7.652-222.446-11.348-24.263-4.863-46.625-5.211-67.719-.807-.554.9-1.1,1.814-1.644,2.73,21.14-3.494,43.694-2.506,68.25,2.945,68.5,15.2,127.3,20.91,174.781,16.967a256.733,256.733,0,0,0,48.778-8.486v.438a257.077,257.077,0,0,1-48.745,8.471c-47.514,3.947-106.362-1.764-174.905-16.977-24.52-5.441-47.129-6.463-68.456-2.859q-.824,1.395-1.644,2.816c21.4-2.746,44.2-1.111,69,4.9,95.345,23.1,170.656,25.029,224.75,5.842v.363c-16.973,5.963-36.075,9.9-57.172,11.766-46.328,4.094-102.744-1.8-167.683-17.545-24.767-6-47.624-7.68-69.166-4.85q-.824,1.436-1.644,2.9c21.643-2.02,44.7.238,69.725,6.787,95.943,25.107,171.718,26.148,225.94,3.2v.438c-19.111,8.018-40.974,13.125-65.365,15.25-44.931,3.914-98.993-2.291-160.694-18.434-25.014-6.545-48.1-8.867-69.853-6.8q-.824,1.485-1.64,2.986c21.886-1.314,45.169,1.553,70.421,8.629,96.743,27.092,172.989,27.3,227.131.7v.5c-20.992,10.234-45.431,16.529-72.962,18.768-43.52,3.545-95.43-3.021-154.3-19.51-25.252-7.07-48.567-10.01-70.512-8.682q-.824,1.523-1.644,3.072c22.115-.627,45.636,2.836,71.094,10.41,97.718,29.078,174.423,28.508,228.322-1.633v.576a171.012,171.012,0,0,1-42.045,16.365c-49.387,12.314-111.789,7.383-186.418-14.828-25.481-7.58-49.007-11.123-71.149-10.516q-.824,1.567-1.635,3.152c22.339.045,46.071,4.084,71.735,12.145,98.79,31.041,175.965,29.756,229.512-3.8v.619c-53.671,33.475-130.9,34.725-229.668,3.689-25.518-8.02-49.368-12.045-71.909-12.008-.495.971-.989,1.955-1.484,2.939,22.555.705,46.5,5.3,72.358,13.83,98.581,32.543,175.464,31.082,228.519-4.336q1.087-.727,2.184-1.488v.664q-.935.645-1.882,1.277a158.35,158.35,0,0,1-50,21.768c-47.839,11.93-107.763,6.141-178.986-17.367-25.728-8.49-49.776-13.092-72.486-13.748-.5,1.014-.994,2.02-1.493,3.047,22.857,1.346,47.065,6.512,72.963,15.451,96.14,33.193,171.475,32.506,223.912-2.033q4.088-2.7,7.978-5.65v.7q-3.745,2.83-7.666,5.414a154.194,154.194,0,0,1-47.958,20.736c-47.248,11.783-106.33,5.574-176.448-18.639-25.934-8.953-50.17-14.109-73.045-15.43q-.742,1.547-1.484,3.105c22.962,1.965,47.3,7.625,73.521,17.055,94.436,33.977,168.631,33.936,220.509-.119a144.678,144.678,0,0,0,12.571-9.256v.74a143.3,143.3,0,0,1-12.25,9.006,150.3,150.3,0,0,1-46.515,20.09c-46.763,11.666-105.2,5.025-174.511-19.912-26.131-9.4-50.545-15.094-73.576-17.059-.481,1.025-.966,2.061-1.443,3.105,23.155,2.568,47.669,8.77,74.025,18.672,93.425,34.7,166.868,35.1,218.279,1.18a143.116,143.116,0,0,0,15.992-12.254v.775a141.44,141.44,0,0,1-15.662,11.982,147.05,147.05,0,0,1-45.75,19.844c-46.373,11.564-104.324,4.576-173.069-20.965-26.287-9.873-50.871-16.125-74.048-18.727-.495,1.086-.989,2.172-1.479,3.27,23.338,3.156,48.027,9.852,74.547,20.16,92.632,35.666,165.467,36.572,216.479,2.693a140.37,140.37,0,0,0,18.982-15.141v.848a140.755,140.755,0,0,1-18.635,14.814c-51.191,33.994-124.218,33.111-217.051-2.633-26.47-10.291-51.219-17.045-74.542-20.246q-.735,1.655-1.466,3.328c23.5,3.729,48.365,10.9,75.042,21.6,92.137,36.678,164.551,38.053,215.233,4.086a140.466,140.466,0,0,0,21.419-17.684v.861a139.608,139.608,0,0,1-21.062,17.357,140.159,140.159,0,0,1-44.5,19.514c-45.837,11.436-103.211,3.582-171.333-23.535q-39.678-15.917-75.115-21.482-.694,1.608-1.388,3.238c23.832,4.332,49.089,11.984,75.555,22.912,91.876,37.717,164.019,39.531,214.432,5.375a135.921,135.921,0,0,0,23.406-20.2v1.109a138.882,138.882,0,0,1-23.035,19.645,137.215,137.215,0,0,1-44.134,19.5c-45.673,11.389-102.909,3.109-170.926-24.812q-39.925-16.494-75.555-22.912-.68,1.614-1.36,3.252,35.886,7.274,75.981,24.313c91.817,38.8,163.827,41.016,214.024,6.582a138.029,138.029,0,0,0,25-22.141v1.025a138.463,138.463,0,0,1-24.62,21.678,134.405,134.405,0,0,1-43.914,19.564c-45.563,11.361-102.749,2.66-170.76-26.082q-40.159-17.042-75.981-24.295-.666,1.629-1.333,3.279,36.064,8.08,76.388,25.65c91.954,39.922,163.946,42.508,213.978,7.689a137.85,137.85,0,0,0,26.241-23.947v1a137.621,137.621,0,0,1-25.838,23.525c-50.248,34.961-122.468,32.4-214.661-7.625q-40.378-17.578-76.374-25.633-.68,1.69-1.346,3.4c24.267,5.9,49.941,14.875,76.809,26.855,92.312,41.1,164.427,44.006,214.345,8.641a137.793,137.793,0,0,0,27.065-25.457v1.043a137.5,137.5,0,0,1-26.649,25.006,129.77,129.77,0,0,1-44.02,20.031c-45.48,11.344-102.758,1.795-171.035-28.605q-40.592-18.094-76.75-26.924c-.169.432-.334.857-.5,1.287-.28.719-.563,1.439-.847,2.152,24.409,6.4,50.2,15.781,77.2,28.088,93.489,42.627,166.181,45.563,216.058,8.729a136.435,136.435,0,0,0,26.543-26.133v1.273a137.765,137.765,0,0,1-26.1,25.459,127.614,127.614,0,0,1-45.389,21.209c-45.5,11.344-102.9,1.383-171.415-29.859q-40.77-18.589-77.125-28.164a326.684,326.684,0,0,1-54.965,91.65Zm51.012-93.674c-.1.229-.192.457-.288.688q2.171.533,4.355,1.107c.288-.719.568-1.437.847-2.166.165-.426.33-.848.495-1.27q-2.15-.527-4.291-1.016Q-3196.588-17995.775-3197.142-17994.437Zm-4.712-.385c1.424.334,2.849.678,4.282,1.035.1-.238.2-.473.3-.705q.55-1.327,1.108-2.635-2.116-.486-4.218-.937Q-3201.119-17996.459-3201.854-17994.822Zm-4.374-1q2.1.469,4.209.963.735-1.629,1.47-3.238-2.075-.445-4.145-.865C-3205.207-17997.928-3205.715-17996.879-3206.228-17995.826Zm-4.314-.93c1.369.289,2.748.582,4.131.889q.762-1.579,1.534-3.137c-1.365-.27-2.72-.535-4.071-.787Q-3209.745-17998.288-3210.542-17996.756Zm14.765-.93c1.42.326,2.849.664,4.277,1.014q.673-1.705,1.346-3.395c-1.406-.311-2.807-.617-4.2-.906C-3194.834-17999.887-3195.305-17998.783-3195.777-17997.686Zm-19.033.07c1.346.266,2.7.535,4.058.818.531-1.021,1.063-2.027,1.594-3.031q-2.006-.378-4-.719C-3213.711-17999.576-3214.26-17998.6-3214.81-17997.615Zm-4.222-.793c1.323.238,2.656.49,3.989.746q.824-1.477,1.649-2.926c-1.314-.229-2.633-.445-3.938-.65C-3217.9-18000.3-3218.465-17999.355-3219.032-17998.408Zm18.918-.242c1.392.3,2.794.613,4.2.934q.708-1.655,1.42-3.289-2.075-.431-4.135-.832C-3199.129-18000.781-3199.624-17999.723-3200.114-17998.65Zm-23.086-.482c1.3.221,2.6.445,3.916.678.563-.947,1.131-1.891,1.694-2.824q-1.937-.3-3.865-.578Q-3222.327-18000.51-3223.2-17999.133Zm18.795-.412c1.374.275,2.743.564,4.126.857.49-1.066.985-2.125,1.479-3.184-1.356-.26-2.716-.518-4.067-.76C-3203.379-18001.609-3203.892-18000.584-3204.405-17999.545Zm-22.921-.246c1.278.2,2.555.4,3.842.613q.873-1.374,1.745-2.721c-1.269-.178-2.542-.352-3.8-.512Q-3226.436-18001.112-3227.326-17999.791Zm18.685-.582c1.346.252,2.7.518,4.053.787q.769-1.544,1.539-3.076c-1.333-.238-2.67-.469-3.993-.687C-3207.574-18002.365-3208.11-18001.371-3208.641-18000.373Zm-22.775-.014q1.882.261,3.778.549c.6-.879,1.186-1.748,1.781-2.615-1.246-.154-2.487-.307-3.728-.443C-3230.193-18002.068-3230.807-18001.229-3231.416-18000.387Zm18.584-.742q1.985.343,3.98.719.8-1.5,1.594-2.977c-1.31-.215-2.62-.416-3.92-.613C-3211.728-18003.053-3212.282-18002.1-3212.832-18001.129Zm-22.628.215c1.232.156,2.464.316,3.7.482.6-.844,1.214-1.678,1.818-2.506q-1.834-.205-3.655-.381Q-3234.525-18002.129-3235.459-18000.914Zm41.386-.723q2.089.439,4.19.906c.44-1.1.888-2.189,1.333-3.273-1.383-.279-2.748-.545-4.122-.807C-3193.139-18003.762-3193.606-18002.7-3194.073-18001.637Zm-45.389.262c1.2.127,2.418.27,3.627.416.623-.807,1.236-1.6,1.855-2.395q-1.8-.173-3.591-.322C-3238.2-18002.92-3238.835-18002.145-3239.462-18001.375Zm22.481-.445q1.951.311,3.916.65.817-1.441,1.644-2.867-1.937-.287-3.861-.545C-3215.85-18003.67-3216.413-18002.75-3216.981-18001.82Zm-26.447.041c1.181.109,2.363.229,3.554.357q.941-1.154,1.878-2.285c-1.172-.1-2.345-.178-3.513-.256C-3242.15-18003.244-3242.787-18002.512-3243.428-18001.779Zm45.1-.715c1.36.266,2.739.541,4.108.83q.7-1.594,1.4-3.174c-1.356-.252-2.707-.49-4.048-.725C-3197.353-18004.549-3197.838-18003.523-3198.323-18002.494Zm-49.034.381q1.731.132,3.476.293.955-1.1,1.9-2.176c-1.154-.072-2.294-.137-3.439-.2Q-3246.389-18003.162-3247.357-18002.113Zm26.282-.33c1.273.184,2.555.381,3.838.582q.852-1.389,1.694-2.758-1.9-.252-3.792-.48Q-3220.207-18003.781-3221.075-18002.443Zm-4.057-.555c1.255.162,2.51.336,3.769.514.582-.893,1.159-1.771,1.736-2.646-1.241-.146-2.491-.289-3.723-.418C-3223.946-18004.7-3224.537-18003.854-3225.132-18003Zm22.6-.287q2.013.363,4.044.76.728-1.547,1.457-3.064-2-.343-3.989-.654C-3201.524-18005.27-3202.028-18004.279-3202.532-18003.285Zm-26.617-.207c1.232.143,2.459.293,3.7.453q.886-1.283,1.772-2.541c-1.218-.123-2.446-.242-3.659-.348C-3227.94-18005.117-3228.544-18004.311-3229.149-18003.492Zm22.463-.512c1.319.219,2.638.443,3.971.686q.755-1.488,1.511-2.957c-1.305-.2-2.62-.4-3.916-.582C-3205.646-18005.914-3206.164-18004.967-3206.686-18004Zm-26.438.086c1.2.119,2.409.252,3.622.389.6-.818,1.2-1.625,1.809-2.432-1.2-.105-2.4-.2-3.586-.283Q-3232.206-18005.09-3233.124-18003.918Zm-3.943-.361c1.181.1,2.363.205,3.554.324q.921-1.166,1.832-2.316c-1.172-.082-2.345-.16-3.512-.225C-3235.817-18005.768-3236.444-18005.021-3237.067-18004.279Zm26.269-.375c1.3.191,2.592.4,3.9.613.522-.957,1.04-1.906,1.562-2.85-1.282-.178-2.564-.352-3.842-.512C-3209.722-18006.5-3210.258-18005.58-3210.8-18004.654Zm-30.171.078q1.731.114,3.476.26.928-1.113,1.859-2.2c-1.154-.062-2.294-.113-3.444-.164C-3239.7-18005.988-3240.341-18005.283-3240.969-18004.576Zm-3.87-.234c1.131.059,2.262.129,3.4.2.623-.705,1.246-1.4,1.868-2.088-1.122-.047-2.249-.078-3.362-.105C-3243.565-18006.148-3244.2-18005.479-3244.839-18004.811Zm52.455-.641c1.36.256,2.729.521,4.1.8q.68-1.635,1.36-3.252c-1.351-.242-2.693-.471-4.039-.7C-3191.44-18007.559-3191.912-18006.506-3192.384-18005.451Zm-22.49.211c1.278.174,2.546.355,3.833.549.536-.92,1.076-1.836,1.612-2.744q-1.9-.24-3.792-.443C-3213.775-18007.01-3214.324-18006.125-3214.874-18005.24Zm-4.026-.518q1.875.226,3.765.484.824-1.333,1.653-2.637c-1.246-.139-2.487-.262-3.723-.381C-3217.768-18007.453-3218.336-18006.605-3218.9-18005.758Zm22.344-.445c1.337.229,2.684.473,4.03.725q.708-1.582,1.42-3.143c-1.324-.215-2.652-.426-3.966-.617Q-3195.814-18007.735-3196.556-18006.2Zm-26.328,0c1.223.127,2.459.27,3.691.416.568-.852,1.126-1.689,1.69-2.527-1.218-.115-2.437-.215-3.65-.312C-3221.73-18007.828-3222.307-18007.023-3222.884-18006.207Zm22.2-.684c1.314.211,2.642.432,3.966.66q.735-1.532,1.479-3.037c-1.31-.191-2.615-.379-3.916-.549C-3199.67-18008.846-3200.178-18007.875-3200.686-18006.891Zm-26.145.3c1.2.109,2.409.225,3.623.352.573-.811,1.149-1.621,1.727-2.418q-1.8-.138-3.586-.252C-3225.659-18008.145-3226.25-18007.371-3226.832-18006.592Zm-3.911-.32c1.181.086,2.358.182,3.549.287.582-.773,1.168-1.543,1.75-2.307-1.172-.07-2.345-.133-3.508-.184C-3229.547-18008.393-3230.147-18007.65-3230.742-18006.912Zm25.98-.586c1.292.182,2.587.379,3.893.58q.762-1.468,1.534-2.926-1.93-.255-3.842-.48Q-3203.975-18008.924-3204.762-18007.5Zm-29.855.328c1.154.07,2.313.143,3.471.225.6-.736,1.186-1.465,1.777-2.193-1.145-.051-2.3-.092-3.439-.123C-3233.412-18008.57-3234.012-18007.875-3234.617-18007.17Zm-3.838-.191q1.69.067,3.394.164c.6-.7,1.2-1.393,1.8-2.078-1.122-.033-2.249-.055-3.366-.068Q-3237.546-18008.362-3238.455-18007.361Zm-1.974-2c-.609.617-1.223,1.24-1.832,1.863q1.649.047,3.316.109.9-.987,1.8-1.965-1.045-.012-2.088-.012Q-3239.83-18009.361-3240.428-18009.357Zm-3.769.049c-.614.578-1.223,1.16-1.836,1.75,1.081.01,2.148.027,3.233.051.6-.619,1.2-1.236,1.8-1.846C-3242.063-18009.35-3243.135-18009.33-3244.2-18009.309Zm35.4,1.266c1.264.16,2.542.328,3.815.512.527-.943,1.058-1.887,1.585-2.816-1.26-.146-2.519-.283-3.769-.412C-3207.711-18009.861-3208.257-18008.959-3208.8-18008.043Zm-4.016-.482c1.25.139,2.51.289,3.764.449.541-.912,1.085-1.812,1.626-2.711-1.241-.123-2.487-.238-3.719-.344C-3211.7-18010.27-3212.255-18009.4-3212.813-18008.525Zm22.133-.686q2,.328,4.016.7c.463-1.08.925-2.162,1.388-3.229q-1.985-.316-3.957-.592C-3189.718-18011.3-3190.2-18010.266-3190.68-18009.211Zm-26.085.273q1.841.179,3.691.381c.554-.871,1.108-1.74,1.667-2.6-1.218-.1-2.441-.2-3.65-.279Q-3215.916-18010.2-3216.765-18008.937Zm-3.916-.348c1.2.1,2.409.207,3.618.32q.852-1.257,1.7-2.486-1.793-.123-3.581-.221C-3219.518-18010.879-3220.1-18010.082-3220.681-18009.285Zm25.916-.576q1.965.293,3.943.627.721-1.573,1.447-3.119-1.951-.275-3.888-.518Q-3194.018-18011.38-3194.765-18009.861Zm-29.8.3c1.177.078,2.363.16,3.549.256q.872-1.2,1.736-2.377-1.759-.088-3.512-.15C-3223.383-18011.09-3223.974-18010.33-3224.564-18009.564Zm-3.847-.215c1.159.055,2.308.119,3.476.191q.879-1.146,1.759-2.262c-1.149-.041-2.29-.068-3.435-.092C-3227.207-18011.227-3227.812-18010.508-3228.411-18009.779Zm-3.81-.152c1.131.033,2.258.078,3.4.133q.886-1.084,1.781-2.152c-1.122-.018-2.249-.031-3.361-.031Q-3231.31-18010.966-3232.222-18009.932Zm33.4-.516c1.292.178,2.587.361,3.888.559q.749-1.512,1.5-3.006-1.924-.24-3.838-.443C-3197.792-18012.385-3198.31-18011.414-3198.823-18010.447Zm-46.5-1.035c-.6.518-1.209,1.043-1.809,1.57,1.012-.037,2.029-.064,3.045-.088q.9-.844,1.791-1.672Q-3243.811-18011.587-3245.319-18011.482Zm11.151-.473q-.914.955-1.827,1.934c1.1.018,2.2.041,3.311.076q.9-1.028,1.8-2.037C-3231.984-18011.982-3233.078-18011.969-3234.168-18011.955Zm-7.456.252c-.609.555-1.223,1.123-1.827,1.689,1.049-.018,2.088-.031,3.142-.031q.9-.908,1.8-1.795Q-3240.069-18011.787-3241.624-18011.7Zm5.111,1.672c.6-.641,1.2-1.283,1.8-1.914q-1.607.026-3.2.082c-.609.6-1.223,1.209-1.832,1.818.269,0,.538,0,.807,0C-3238.129-18010.047-3237.323-18010.041-3236.513-18010.031Zm33.7-.93c1.269.156,2.532.316,3.81.49.517-.971,1.03-1.934,1.552-2.891-1.264-.133-2.514-.26-3.769-.375C-3201.758-18012.82-3202.289-18011.891-3202.816-18010.961Zm-3.957-.445c1.241.129,2.487.271,3.732.418q.8-1.395,1.594-2.771c-1.237-.109-2.459-.215-3.687-.307C-3205.678-18013.187-3206.228-18012.3-3206.773-18011.406Zm-3.943-.383q1.834.164,3.687.355c.541-.893,1.085-1.775,1.626-2.65q-1.827-.138-3.65-.244C-3209.607-18013.488-3210.162-18012.646-3210.716-18011.789Zm-3.879-.312q1.8.132,3.613.289.831-1.277,1.662-2.533c-1.2-.068-2.386-.129-3.577-.178Q-3213.748-18013.322-3214.595-18012.1Zm-31.728-1.209c-.541.422-1.085.848-1.626,1.277.944-.078,1.882-.146,2.83-.211q.817-.7,1.63-1.387C-3244.436-18013.531-3245.374-18013.426-3246.322-18013.311Zm27.89.961c1.172.064,2.354.143,3.535.225.563-.811,1.126-1.611,1.69-2.412-1.172-.047-2.34-.088-3.5-.115Q-3217.576-18013.513-3218.432-18012.35Zm-24.258-1.359c-.563.467-1.127.943-1.685,1.42.975-.064,1.956-.119,2.94-.17q.838-.768,1.676-1.525C-3240.74-18013.9-3241.715-18013.811-3242.691-18013.709Zm20.448,1.172c1.154.051,2.308.1,3.467.17.573-.77,1.145-1.539,1.713-2.295-1.149-.027-2.29-.045-3.439-.055C-3221.08-18013.992-3221.661-18013.27-3222.243-18012.537Zm33.344-.521q1.965.281,3.934.6.735-1.676,1.47-3.33c-1.292-.174-2.578-.344-3.865-.494Q-3188.129-18014.687-3188.9-18013.059Zm-50.147-.984c-.577.512-1.149,1.035-1.727,1.557,1.012-.051,2.024-.086,3.041-.119.573-.559,1.14-1.113,1.713-1.662C-3237.03-18014.2-3238.042-18014.125-3239.045-18014.043Zm14.788-.668c-.586.682-1.168,1.363-1.754,2.061,1.122.021,2.253.059,3.384.1q.866-1.093,1.727-2.166-.7,0-1.392,0Q-3223.276-18014.719-3224.258-18014.711Zm-11.124.4c-.586.559-1.168,1.117-1.75,1.686.133-.006.261-.01.389-.01.911-.027,1.827-.045,2.743-.059.577-.6,1.154-1.2,1.731-1.787C-3233.312-18014.432-3234.347-18014.373-3235.382-18014.309Zm7.391-.334c-.586.641-1.172,1.281-1.759,1.938,1.095,0,2.2.018,3.3.045.582-.691,1.159-1.369,1.736-2.047C-3225.81-18014.693-3226.9-18014.67-3227.99-18014.643Zm-3.7.137c-.591.6-1.172,1.2-1.759,1.8,1.067-.01,2.143-.014,3.219-.01.577-.645,1.159-1.281,1.736-1.914C-3229.57-18014.6-3230.633-18014.557-3231.7-18014.506Zm38.8.912c1.282.164,2.569.334,3.861.518q.762-1.629,1.539-3.229c-1.273-.156-2.528-.295-3.787-.428C-3191.825-18015.691-3192.361-18014.648-3192.9-18013.594Zm-3.984-.473c1.264.137,2.537.289,3.815.449.531-1.049,1.067-2.1,1.6-3.133-1.25-.129-2.5-.252-3.751-.357C-3195.772-18016.1-3196.322-18015.092-3196.881-18014.066Zm-3.916-.4c1.241.119,2.487.242,3.737.379.554-1.016,1.113-2.027,1.667-3.035-1.223-.105-2.45-.2-3.673-.285Q-3199.931-18015.951-3200.8-18014.469Zm-42.256-1.338c-.687.514-1.378,1.039-2.065,1.566q1.347-.152,2.7-.283c.678-.564,1.356-1.117,2.033-1.672C-3241.276-18016.072-3242.159-18015.943-3243.052-18015.807Zm38.377,1q1.82.144,3.655.311c.573-.984,1.154-1.965,1.731-2.936-1.2-.082-2.4-.156-3.591-.215C-3203.475-18016.709-3204.08-18015.756-3204.675-18014.8Zm-34.842-1.508c-.7.564-1.4,1.131-2.1,1.709q1.408-.132,2.826-.242c.687-.609,1.369-1.215,2.056-1.811C-3237.662-18016.543-3238.6-18016.43-3239.517-18016.311Zm30.958,1.236c1.2.078,2.409.156,3.613.252.6-.957,1.191-1.9,1.786-2.838-1.186-.061-2.377-.111-3.558-.152C-3207.332-18016.91-3207.945-18015.994-3208.559-18015.074Zm-27.409-1.666c-.705.6-1.406,1.219-2.111,1.84q1.463-.108,2.931-.2c.687-.654,1.379-1.3,2.065-1.941C-3234.044-18016.951-3235.011-18016.85-3235.968-18016.74Zm23.6,1.465c1.177.055,2.354.115,3.54.188q.921-1.38,1.841-2.738c-1.163-.037-2.331-.068-3.485-.086C-3211.1-18017.043-3211.737-18016.158-3212.365-18015.275Zm-20.036-1.832c-.7.646-1.406,1.3-2.106,1.969q.742-.047,1.484-.082c.518-.027,1.035-.051,1.548-.072q1.03-1.046,2.061-2.07Q-3230.912-18017.246-3232.4-18017.107Zm16.262,1.7c1.149.033,2.308.074,3.462.119.632-.883,1.264-1.764,1.891-2.629-1.136-.018-2.276-.027-3.407-.027C-3214.842-18017.107-3215.488-18016.26-3216.138-18015.408Zm-12.667-2c-.7.693-1.4,1.389-2.093,2.094,1.04-.041,2.084-.078,3.128-.105.678-.736,1.36-1.465,2.038-2.189Q-3227.271-18017.521-3228.805-18017.41Zm10.918-.5c-.664.8-1.328,1.611-1.992,2.428,1.127.014,2.258.031,3.394.063.646-.852,1.287-1.693,1.937-2.527C-3215.662-18017.945-3216.779-18017.932-3217.887-18017.908Zm-7.3.266c-.687.729-1.383,1.465-2.065,2.207,1.072-.023,2.139-.041,3.219-.051q1-1.16,2.01-2.3C-3223.085-18017.748-3224.139-18017.7-3225.192-18017.643Zm4.909,2.156c.66-.814,1.319-1.615,1.979-2.418q-1.628.035-3.247.1-1.017,1.148-2.033,2.318.683,0,1.366,0C-3221.574-18015.494-3220.929-18015.49-3220.283-18015.486Zm-23.5-1.658c-.618.412-1.236.834-1.85,1.256q1.2-.193,2.414-.371c.614-.463,1.223-.912,1.836-1.359C-3242.182-18017.469-3242.979-18017.309-3243.781-18017.145Zm56.655.371c1.278.152,2.565.316,3.852.49.495-1.1.985-2.184,1.484-3.266-1.269-.141-2.528-.27-3.787-.389Q-3186.354-18018.37-3187.126-18016.773Zm-53.183-1.053c-.646.467-1.3.943-1.942,1.42.856-.119,1.708-.238,2.564-.348.637-.514,1.278-1.021,1.914-1.521Q-3239.043-18018.062-3240.309-18017.826Zm49.272.619c1.25.127,2.51.27,3.769.416.518-1.062,1.03-2.115,1.548-3.16-1.237-.119-2.473-.229-3.7-.32Q-3190.236-18018.754-3191.037-18017.207Zm-45.792-1.229c-.664.518-1.328,1.045-1.992,1.57q1.347-.17,2.7-.32.982-.844,1.956-1.67C-3235.056-18018.719-3235.94-18018.582-3236.829-18018.436Zm41.876.861c1.241.105,2.487.225,3.737.348q.8-1.538,1.607-3.059c-1.227-.1-2.455-.184-3.677-.252C-3193.84-18019.562-3194.4-18018.572-3194.953-18017.574Zm-49.662-.426c-.417.252-.838.5-1.25.756.673-.146,1.342-.283,2.02-.422q.653-.439,1.305-.869C-3243.236-18018.357-3243.923-18018.184-3244.614-18018Zm11.284-.98c-.673.564-1.351,1.137-2.024,1.713.939-.1,1.873-.191,2.817-.279q.989-.92,1.983-1.812C-3231.48-18019.24-3232.409-18019.113-3233.33-18018.98Zm34.54,1.109q1.827.123,3.659.283c.554-1,1.113-1.982,1.672-2.963-1.2-.068-2.409-.133-3.6-.184C-3197.636-18019.785-3198.213-18018.834-3198.791-18017.871Zm-31.027-1.58c-.678.6-1.36,1.223-2.038,1.84q1.278-.108,2.555-.205c.124-.01.247-.023.371-.027q1-.99,1.992-1.951C-3227.9-18019.686-3228.856-18019.576-3229.817-18019.451Zm27.23,1.35q1.779.091,3.572.217.859-1.444,1.722-2.859-1.759-.073-3.508-.117C-3201.4-18019.951-3201.992-18019.025-3202.587-18018.1Zm-23.7-1.762c-.678.65-1.355,1.3-2.033,1.973,1.007-.068,2.015-.133,3.027-.187.664-.7,1.323-1.393,1.988-2.078C-3224.3-18020.064-3225.293-18019.969-3226.282-18019.863Zm-14.87.988c-.49.316-.98.637-1.475.967q1.113-.22,2.226-.426c.5-.361,1-.719,1.5-1.072Q-3240.026-18019.151-3241.152-18018.875Zm18.424-1.328c-.669.688-1.346,1.393-2.02,2.094q1.559-.082,3.128-.143c.655-.736,1.31-1.471,1.969-2.193Q-3221.2-18020.343-3222.728-18020.2Zm16.317,1.938q1.766.062,3.545.15.886-1.386,1.777-2.752-1.752-.041-3.494-.055Q-3205.5-18019.6-3206.411-18018.266Zm-12.74-2.217c-.664.732-1.323,1.465-1.992,2.217,1.072-.041,2.139-.068,3.215-.088.646-.777,1.3-1.551,1.942-2.316C-3217.04-18020.615-3218.1-18020.551-3219.151-18020.482Zm10.886-.426c-.627.844-1.25,1.686-1.878,2.547,1.154.018,2.308.051,3.467.086.609-.893,1.214-1.771,1.823-2.646-.285,0-.57,0-.854,0Q-3206.989-18020.924-3208.266-18020.908Zm-37.209,2.441c-.115.064-.234.123-.348.188.463-.129.921-.248,1.383-.367q.282-.17.563-.334C-3244.413-18018.811-3244.944-18018.641-3245.475-18018.467Zm29.928-2.227c-.655.766-1.314,1.549-1.965,2.332,1.1-.02,2.2-.033,3.311-.033.637-.814,1.273-1.629,1.91-2.426C-3213.381-18020.789-3214.467-18020.744-3215.547-18020.693Zm3.627-.141c-.641.8-1.282,1.621-1.919,2.439,1.122,0,2.253.01,3.384.027q.934-1.283,1.869-2.541C-3209.7-18020.895-3210.812-18020.867-3211.92-18020.834Zm-25.783,1.158c-.545.379-1.085.76-1.63,1.148.8-.141,1.6-.279,2.4-.406.545-.422,1.09-.844,1.63-1.26C-3236.1-18020.023-3236.9-18019.855-3237.7-18019.676Zm-4.195.082c-.307.174-.609.354-.916.531.064-.014.128-.031.192-.045.513-.129,1.035-.262,1.552-.381.339-.221.682-.439,1.026-.66Q-3240.971-18019.873-3241.9-18019.594Zm7.643-.811-1.731,1.318q1.278-.205,2.555-.389c.573-.477,1.145-.947,1.717-1.42C-3232.565-18020.734-3233.408-18020.574-3234.255-18020.4Zm3.458-.654c-.6.48-1.2.975-1.8,1.469.893-.123,1.791-.242,2.684-.352.6-.531,1.186-1.059,1.777-1.576C-3229.021-18021.375-3229.914-18021.219-3230.8-18021.059Zm-7.625.447c-.421.262-.843.527-1.264.793.673-.15,1.342-.3,2.01-.449.44-.307.879-.609,1.314-.906C-3237.053-18020.99-3237.731-18020.8-3238.423-18020.611Zm11.092-1.033c-.614.531-1.223,1.066-1.836,1.611.934-.109,1.873-.221,2.807-.316.6-.576,1.2-1.148,1.809-1.717C-3225.476-18021.934-3226.41-18021.8-3227.331-18021.645Zm42,1.2q1.882.179,3.773.385.721-1.559,1.447-3.105c-1.241-.1-2.482-.2-3.714-.279Q-3184.58-18021.96-3185.331-18020.445Zm-38.515-1.723c-.618.578-1.241,1.164-1.855,1.75l.128-.014q1.395-.138,2.789-.262.914-.935,1.823-1.85C-3221.927-18022.424-3222.884-18022.3-3223.845-18022.168Zm34.686,1.393c1.227.1,2.455.2,3.691.316q.749-1.512,1.5-3c-1.209-.078-2.423-.15-3.627-.211Q-3188.376-18022.234-3189.159-18020.775Zm-44.363-1.135c-.49.123-.98.246-1.47.375-.495.334-.994.668-1.488,1.012.742-.16,1.484-.311,2.226-.457.5-.377,1-.752,1.5-1.119C-3233.009-18022.039-3233.266-18021.975-3233.522-18021.91Zm13.18-.711q-.935.935-1.864,1.883c1.008-.088,2.015-.16,3.027-.229.6-.67,1.214-1.328,1.823-1.984C-3218.354-18022.85-3219.353-18022.74-3220.342-18022.621Zm27.34,1.584c1.218.074,2.436.156,3.664.248.518-.971,1.035-1.932,1.557-2.891q-1.813-.088-3.613-.146C-3191.93-18022.9-3192.466-18021.975-3193-18021.037Zm-46.291-.031-.417.234c.467-.139.925-.266,1.392-.395.2-.129.4-.252.6-.375C-3238.239-18021.43-3238.771-18021.246-3239.293-18021.068Zm22.472-1.937c-.618.664-1.237,1.328-1.855,2.006q1.559-.1,3.123-.178c.6-.711,1.209-1.41,1.813-2.107C-3214.769-18023.2-3215.8-18023.105-3216.82-18023.006Zm20.063,1.777c1.191.051,2.381.109,3.581.184.536-.939,1.067-1.865,1.607-2.785-1.177-.037-2.358-.064-3.526-.082C-3195.653-18023.023-3196.2-18022.131-3196.757-18021.229Zm-34.823-1.154c-.54.395-1.09.8-1.63,1.2.8-.154,1.6-.3,2.4-.443.545-.439,1.085-.875,1.63-1.3C-3229.978-18022.754-3230.784-18022.57-3231.581-18022.383Zm18.3-.939c-.614.7-1.223,1.406-1.836,2.121,1.076-.051,2.148-.092,3.224-.123.6-.752,1.2-1.488,1.8-2.227C-3211.16-18023.486-3212.222-18023.4-3213.28-18023.322Zm14.513-.607c-.568.852-1.14,1.711-1.708,2.578,1.159.027,2.322.068,3.485.113.55-.9,1.1-1.795,1.658-2.674-.95-.012-1.887-.02-2.827-.02C-3198.362-18023.932-3198.565-18023.932-3198.768-18023.93Zm-10.941.355c-.6.738-1.209,1.488-1.809,2.24,1.095-.031,2.2-.055,3.3-.068.586-.787,1.177-1.566,1.768-2.346C-3207.538-18023.7-3208.627-18023.643-3209.708-18023.574Zm7.208-.3c-.582.811-1.159,1.635-1.74,2.463,1.154,0,2.313.023,3.471.051.563-.865,1.126-1.717,1.694-2.564C-3200.219-18023.922-3201.36-18023.9-3202.5-18023.875Zm-3.618.113q-.893,1.169-1.777,2.354c1.127-.014,2.253-.014,3.389,0q.866-1.242,1.731-2.459Q-3204.451-18023.83-3206.118-18023.762Zm-29.621,1.512c-.316.184-.637.381-.953.572.577-.156,1.163-.307,1.745-.457.348-.234.691-.463,1.04-.7C-3234.521-18022.639-3235.13-18022.451-3235.739-18022.25Zm7.575-.906c-.577.453-1.154.906-1.731,1.369.852-.146,1.7-.285,2.551-.422.573-.494,1.145-.988,1.718-1.475C-3226.474-18023.514-3227.322-18023.34-3228.164-18023.156Zm3.416-.7c-.6.5-1.2,1.012-1.791,1.525.893-.137,1.786-.266,2.684-.389q.886-.826,1.772-1.631C-3222.975-18024.2-3223.859-18024.031-3224.748-18023.857Zm-7.556.541c-.421.273-.847.553-1.269.832.669-.164,1.342-.328,2.01-.488.44-.316.875-.629,1.31-.939C-3230.935-18023.721-3231.622-18023.518-3232.3-18023.316Zm10.991-1.174q-.921.826-1.832,1.672l1.273-.164c.513-.064,1.021-.129,1.534-.187.6-.6,1.2-1.191,1.8-1.777C-3219.463-18024.8-3220.393-18024.65-3221.313-18024.49Zm3.444-.562c-.618.6-1.232,1.205-1.85,1.814.975-.115,1.946-.221,2.922-.312.6-.645,1.214-1.291,1.818-1.924C-3215.946-18025.342-3216.912-18025.2-3217.869-18025.053Zm-11.037.76c-.495.348-.985.7-1.475,1.045.737-.17,1.484-.33,2.221-.49.495-.389.989-.77,1.489-1.154Q-3227.791-18024.6-3228.906-18024.293Zm14.5-1.254q-.927.961-1.85,1.941,1.511-.144,3.027-.266.907-1.037,1.813-2.051C-3212.415-18025.809-3213.413-18025.68-3214.407-18025.547Zm30.857,1.561q1.841.126,3.691.285.742-1.567,1.488-3.105c-1.218-.068-2.427-.129-3.641-.178C-3182.524-18026-3183.041-18024.988-3183.55-18023.986Zm-49.625.221-.087.055c.43-.133.861-.262,1.3-.389.115-.074.229-.146.344-.225C-3232.139-18024.137-3232.661-18023.949-3233.174-18023.766Zm22.248-2.213c-.614.688-1.227,1.375-1.841,2.076q1.566-.126,3.137-.221c.6-.732,1.2-1.461,1.809-2.18Q-3209.381-18026.15-3210.927-18025.979Zm-14.018.646c-.2.051-.389.1-.586.146-.536.408-1.072.814-1.608,1.232.8-.17,1.6-.33,2.4-.486.531-.449,1.067-.893,1.6-1.332C-3223.74-18025.629-3224.345-18025.482-3224.945-18025.332Zm37.649,1.121c1.2.061,2.4.133,3.6.217.513-1.008,1.026-2,1.539-3-1.182-.045-2.368-.082-3.545-.105Q-3186.5-18025.666-3187.3-18024.211Zm-20.127-2.129c-.609.729-1.214,1.457-1.818,2.193q1.608-.088,3.219-.16.893-1.16,1.786-2.3C-3205.3-18026.527-3206.365-18026.436-3207.423-18026.34Zm16.345,1.975c1.191.037,2.391.086,3.59.146q.8-1.45,1.594-2.881c-1.186-.027-2.363-.041-3.544-.041C-3189.988-18026.221-3190.533-18025.3-3191.078-18024.365Zm-12.818-2.268q-.893,1.148-1.8,2.313c1.1-.041,2.207-.078,3.316-.1.582-.82,1.168-1.627,1.754-2.428C-3201.717-18026.783-3202.807-18026.715-3203.9-18026.633Zm10.831-.484c-.568.883-1.126,1.768-1.69,2.664q1.745.029,3.5.082c.545-.934,1.094-1.854,1.64-2.77-.2,0-.395,0-.593,0C-3191.159-18027.143-3192.117-18027.133-3193.066-18027.117Zm-7.281.256c-.586.8-1.172,1.617-1.759,2.432,1.131-.023,2.262-.041,3.4-.041.577-.857,1.149-1.7,1.722-2.547C-3198.108-18026.977-3199.226-18026.922-3200.347-18026.861Zm5.354,2.4q.838-1.339,1.685-2.656c-1.122.018-2.24.051-3.352.086-.582.844-1.159,1.7-1.74,2.551h.6Q-3196.4-18024.477-3194.994-18024.457Zm-34.672-.545c-.229.146-.453.289-.687.436.563-.16,1.127-.316,1.69-.473.27-.187.545-.381.82-.568C-3228.453-18025.41-3229.057-18025.2-3229.666-18025Zm7.51-1c-.568.457-1.126.92-1.694,1.391.852-.16,1.7-.311,2.555-.461q.838-.756,1.676-1.5C-3220.47-18026.385-3221.313-18026.2-3222.156-18026Zm3.38-.752c-.582.514-1.163,1.025-1.745,1.549.893-.152,1.791-.293,2.688-.432.577-.559,1.149-1.107,1.727-1.652Q-3217.446-18027.026-3218.776-18026.752Zm-7.483.637-1.053.715c.655-.17,1.314-.34,1.969-.5.375-.283.751-.562,1.126-.844C-3224.9-18026.541-3225.581-18026.33-3226.259-18026.115Zm-2.432-.156c-.343.184-.682.371-1.026.559l.646-.219c.288-.18.582-.357.87-.531C-3228.366-18026.4-3228.526-18026.334-3228.691-18026.271Zm13.3-1.154c-.591.555-1.186,1.123-1.777,1.691q1.408-.214,2.816-.4c.582-.605,1.168-1.205,1.75-1.795C-3213.532-18027.768-3214.457-18027.6-3215.387-18027.426Zm-7.515.285c-.431.316-.861.631-1.287.953.728-.18,1.456-.354,2.194-.518.44-.363.879-.715,1.323-1.072C-3221.418-18027.566-3222.16-18027.355-3222.9-18027.141Zm10.922-.893c-.6.6-1.2,1.209-1.791,1.826.971-.123,1.951-.242,2.931-.352.582-.65,1.172-1.3,1.759-1.937C-3210.047-18028.35-3211.018-18028.2-3211.98-18028.033Zm-13.615.563c-.5.293-1,.59-1.5.893.421-.137.843-.27,1.264-.4l1.387-.92C-3224.83-18027.76-3225.21-18027.617-3225.595-18027.471Zm17.032-1.1c-.6.65-1.191,1.3-1.791,1.959,1.012-.113,2.033-.215,3.055-.311q.879-1.037,1.759-2.07C-3206.548-18028.863-3207.556-18028.725-3208.563-18028.574Zm-11,.494q-.721.571-1.443,1.15,1.188-.261,2.381-.514.728-.639,1.461-1.264C-3217.97-18028.506-3218.771-18028.295-3219.568-18028.08Zm14.449-.967c-.591.688-1.191,1.389-1.781,2.084q1.566-.138,3.142-.256c.582-.738,1.168-1.475,1.749-2.2C-3203.045-18029.3-3204.089-18029.18-3205.119-18029.047Zm3.462-.406c-.586.732-1.177,1.469-1.763,2.211,1.076-.072,2.152-.141,3.238-.2.577-.783,1.149-1.557,1.727-2.326C-3199.523-18029.674-3200.595-18029.568-3201.657-18029.453Zm19.94,1.908c1.2.051,2.409.111,3.618.18.495-1.018.994-2.033,1.493-3.037-1.2-.031-2.377-.059-3.563-.068Q-3180.946-18029.021-3181.718-18027.545Zm-16.459-2.248q-.866,1.16-1.736,2.336c1.1-.055,2.221-.105,3.329-.143q.852-1.236,1.7-2.449C-3195.979-18029.971-3197.082-18029.889-3198.177-18029.793Zm-24.295,1.182c-.586.375-1.177.756-1.763,1.145.554-.168,1.108-.334,1.667-.494q.831-.6,1.662-1.2C-3221.427-18028.982-3221.95-18028.8-3222.472-18028.611Zm38.693-1.863q-.8,1.395-1.6,2.816c1.172.027,2.34.064,3.522.109.513-.98,1.031-1.955,1.543-2.926-.579,0-1.156-.008-1.733-.008S-3183.2-18030.479-3183.778-18030.475Zm-10.762.4c-.573.816-1.145,1.631-1.717,2.465,1.1-.037,2.212-.064,3.32-.084q.831-1.3,1.672-2.568C-3192.361-18030.209-3193.451-18030.145-3194.541-18030.072Zm-21.689,1.127c-.517.439-1.04.885-1.552,1.328q1.271-.255,2.542-.49c.518-.484,1.035-.971,1.552-1.447C-3214.54-18029.357-3215.382-18029.156-3216.23-18028.945Zm28.769-1.461c-.55.889-1.09,1.791-1.635,2.7q1.752.006,3.517.047c.531-.949,1.058-1.883,1.594-2.812Q-3185.729-18030.454-3187.46-18030.406Zm-3.554.133c-.559.852-1.122,1.713-1.681,2.578,1.136-.014,2.281-.018,3.426-.014q.817-1.359,1.635-2.693C-3188.761-18030.369-3189.9-18030.324-3191.014-18030.273Zm-21.877.535c-.54.5-1.085.994-1.621,1.5.023,0,.055-.014.082-.018q1.3-.234,2.6-.449c.54-.545,1.076-1.08,1.617-1.611C-3211.11-18030.131-3212-18029.939-3212.891-18029.738Zm-6.439.051c-.641.445-1.273.893-1.914,1.352.65-.184,1.3-.361,1.956-.535.609-.482,1.218-.953,1.832-1.42C-3218.084-18030.1-3218.707-18029.893-3219.33-18029.687Zm-3.38.551-.866.488c.2-.068.4-.137.6-.209.252-.162.5-.322.746-.477C-3222.394-18029.27-3222.55-18029.207-3222.71-18029.137Zm13.166-1.32c-.554.541-1.113,1.1-1.667,1.645.939-.146,1.878-.293,2.817-.43.554-.6,1.1-1.182,1.653-1.764Q-3208.149-18030.745-3209.543-18030.457Zm-6.627-.238c-.664.5-1.342,1.018-2.006,1.529q1.1-.287,2.189-.553c.646-.541,1.287-1.082,1.928-1.613C-3214.764-18031.125-3215.465-18030.91-3216.17-18030.7Zm9.984-.416c-.563.6-1.122,1.191-1.685,1.795.98-.143,1.965-.27,2.949-.395.559-.641,1.117-1.281,1.676-1.914C-3204.227-18031.459-3205.211-18031.291-3206.187-18031.111Zm-13.459.723c-.458.279-.916.564-1.369.848l1.237-.412c.421-.293.847-.59,1.273-.883C-3218.886-18030.689-3219.266-18030.539-3219.646-18030.389Zm16.844-1.3c-.568.637-1.131,1.277-1.7,1.934,1.012-.129,2.033-.244,3.05-.35q.838-1.037,1.676-2.051C-3200.782-18032.014-3201.8-18031.857-3202.8-18031.693Zm-10.185.055q-1.031.838-2.052,1.689,1.189-.281,2.382-.549.989-.9,1.983-1.781C-3211.448-18032.068-3212.218-18031.857-3212.987-18031.639Zm13.579-.576c-.563.682-1.131,1.379-1.69,2.07,1.049-.105,2.1-.207,3.151-.3.559-.732,1.117-1.465,1.676-2.184C-3197.32-18032.5-3198.369-18032.361-3199.409-18032.215Zm3.417-.449q-.838,1.093-1.676,2.2,1.621-.138,3.251-.242c.554-.779,1.1-1.553,1.658-2.318C-3193.84-18032.916-3194.916-18032.793-3195.992-18032.664Zm-20.576,1.09c-.545.367-1.094.738-1.639,1.113.545-.174,1.1-.344,1.649-.518.517-.395,1.044-.783,1.562-1.168C-3215.52-18031.959-3216.046-18031.766-3216.569-18031.574Zm8.733-1.437c-.65.16-1.305.33-1.951.5q-1.037.908-2.074,1.842c.385-.082.765-.164,1.145-.248l1.406-.287q1-.976,2.006-1.937C-3207.478-18033.1-3207.656-18033.059-3207.835-18033.012Zm15.438-.051c-.559.77-1.122,1.553-1.676,2.336,1.072-.068,2.153-.129,3.229-.174q.817-1.236,1.639-2.451C-3190.272-18033.264-3191.339-18033.168-3192.4-18033.062Zm3.448-.307c-.55.811-1.095,1.631-1.644,2.455,1.113-.051,2.226-.088,3.348-.115.531-.865,1.067-1.727,1.6-2.574Q-3187.3-18033.507-3188.949-18033.369Zm10.638-.535q-.769,1.4-1.534,2.824c1.177.014,2.354.041,3.535.074q.742-1.477,1.489-2.936Q-3176.573-18033.941-3178.31-18033.9Zm-7.158.287c-.536.852-1.072,1.719-1.607,2.584,1.145-.033,2.294-.051,3.444-.061q.783-1.359,1.575-2.7C-3183.2-18033.74-3184.337-18033.686-3185.468-18033.617Zm5.482,2.533c.508-.943,1.017-1.887,1.53-2.816q-1.7.035-3.385.105c-.527.893-1.058,1.795-1.58,2.7q.626,0,1.254,0Q-3181.08-18031.1-3179.987-18031.084Zm-26.58-2.24c-.691.656-1.383,1.314-2.07,1.984q1.347-.27,2.7-.51c.669-.705,1.342-1.4,2.01-2.082Q-3205.248-18033.639-3206.567-18033.324Zm-6.906.633c-.6.439-1.2.879-1.8,1.328.65-.2,1.3-.385,1.951-.572.577-.473,1.159-.939,1.736-1.4C-3212.213-18033.127-3212.845-18032.906-3213.473-18032.691Zm-3.339.6c-.243.141-.481.283-.724.426.188-.068.375-.137.563-.211.21-.143.426-.283.636-.426Zm13.487-1.969q-1.031,1.043-2.061,2.115c.948-.17,1.9-.326,2.853-.477.664-.746,1.337-1.492,2.006-2.221C-3201.465-18034.463-3202.395-18034.268-3203.324-18034.064Zm-7.03.32c-.632.5-1.264,1-1.9,1.51q1.092-.3,2.194-.59c.614-.541,1.223-1.072,1.836-1.6C-3208.934-18034.2-3209.644-18033.979-3210.354-18033.744Zm10.295-.994c-.678.736-1.355,1.488-2.033,2.238.985-.15,1.969-.3,2.958-.434q.989-1.189,1.983-2.35C-3198.122-18035.109-3199.093-18034.932-3200.059-18034.738Zm-13.734,1.342c-.412.27-.829.535-1.241.811.4-.146.815-.293,1.218-.436.394-.283.783-.568,1.177-.848C-3213.024-18033.713-3213.409-18033.553-3213.793-18033.4Zm17.022-1.951q-1,1.169-2,2.363c1.021-.137,2.042-.266,3.073-.389q.969-1.251,1.946-2.475C-3194.756-18035.691-3195.768-18035.525-3196.771-18035.348Zm-10.446.619c-.65.549-1.305,1.111-1.951,1.676.284-.074.568-.143.852-.215.435-.111.875-.217,1.314-.322l.229-.055q.948-.9,1.9-1.771Q-3206.052-18035.088-3207.217-18034.729Zm13.753-1.164q-.976,1.23-1.951,2.486c1.058-.123,2.116-.238,3.178-.338q.955-1.312,1.91-2.6C-3191.376-18036.2-3192.42-18036.053-3193.464-18035.893Zm-17.293,1.268c-.508.357-1.026.721-1.53,1.082.55-.184,1.1-.367,1.649-.545.495-.389.985-.77,1.475-1.15C-3209.695-18035.037-3210.226-18034.83-3210.757-18034.625Zm20.814-1.768c-.646.861-1.287,1.732-1.933,2.611,1.044-.1,2.093-.187,3.142-.27.623-.912,1.241-1.814,1.869-2.713C-3187.891-18036.648-3188.921-18036.525-3189.943-18036.393Zm-14.119.742c-.659.605-1.314,1.215-1.979,1.832.856-.2,1.713-.393,2.569-.582.641-.65,1.287-1.295,1.928-1.932C-3202.381-18036.113-3203.223-18035.883-3204.062-18035.65Zm17.462-1.145c-.623.9-1.25,1.809-1.873,2.725,1.085-.082,2.176-.156,3.265-.215q.907-1.43,1.813-2.83C-3184.465-18037.014-3185.532-18036.91-3186.6-18036.795Zm3.38-.334c-.609.934-1.214,1.883-1.818,2.83,1.122-.061,2.249-.115,3.375-.156q.872-1.482,1.759-2.936C-3181.012-18037.312-3182.121-18037.225-3183.22-18037.129Zm3.545-.279c-.6.98-1.182,1.955-1.772,2.945,1.113-.037,2.23-.07,3.348-.088q.852-1.538,1.7-3.045C-3177.5-18037.541-3178.585-18037.477-3179.675-18037.408Zm-28.027,1.621c-.563.426-1.131.865-1.7,1.3.655-.207,1.31-.408,1.965-.609.55-.463,1.1-.93,1.653-1.383C-3206.425-18036.254-3207.061-18036.025-3207.7-18035.787Zm7.918-.994c-.366.092-.733.184-1.1.279-.659.65-1.323,1.311-1.978,1.975.911-.2,1.823-.381,2.743-.559.646-.7,1.287-1.4,1.937-2.084C-3198.722-18037.043-3199.253-18036.914-3199.784-18036.781Zm23.535-.824c-.568,1.008-1.136,2.029-1.7,3.051q1.724-.029,3.462-.027.817-1.588,1.64-3.152Q-3174.555-18037.679-3176.25-18037.605Zm-34.741,2.449c-.2.125-.4.248-.6.371.179-.072.366-.141.545-.215.183-.127.371-.256.554-.385C-3210.661-18035.307-3210.826-18035.229-3210.99-18035.156Zm13.3-2.133c-.655.7-1.314,1.4-1.969,2.111q1.429-.275,2.862-.523.962-1.125,1.928-2.225Q-3196.281-18037.618-3197.687-18037.289Zm-6.943.4c-.6.494-1.2.99-1.8,1.494.737-.217,1.475-.426,2.212-.633q.879-.8,1.759-1.594C-3203.182-18037.381-3203.906-18037.133-3204.629-18036.887Zm-3.394.395c-.38.256-.76.508-1.136.764.412-.15.82-.307,1.232-.457.362-.275.728-.549,1.094-.824C-3207.231-18036.84-3207.629-18036.666-3208.023-18036.492Zm13.556-1.516q-.976,1.1-1.946,2.238c.994-.168,1.988-.33,2.986-.48q.955-1.2,1.91-2.354Q-3192.995-18038.322-3194.467-18038.008Zm-7.071.092q-.934.823-1.859,1.666a.727.727,0,0,1,.1-.027c.77-.211,1.548-.416,2.322-.613.6-.6,1.214-1.186,1.818-1.768Q-3200.352-18038.295-3201.538-18037.916Zm10.313-.742c-.641.777-1.278,1.566-1.919,2.363q1.553-.234,3.11-.436c.627-.838,1.25-1.662,1.878-2.482Q-3189.7-18038.952-3191.225-18038.658Zm-13.808.889c-.476.348-.957.7-1.429,1.053.554-.2,1.113-.395,1.672-.586.463-.381.93-.76,1.4-1.137C-3203.943-18038.219-3204.488-18037.994-3205.032-18037.77Zm17.288-1.512q-.955,1.236-1.905,2.5c1.012-.133,2.033-.252,3.05-.365.614-.881,1.227-1.746,1.845-2.607C-3185.757-18039.607-3186.75-18039.451-3187.744-18039.281Zm-10.684.4q-.948.9-1.891,1.822c.078-.018.151-.041.224-.059.8-.2,1.6-.389,2.4-.578.618-.648,1.236-1.295,1.859-1.932C-3196.7-18039.387-3197.568-18039.135-3198.429-18038.879Zm13.954-.916c-.623.871-1.236,1.736-1.855,2.619,1.058-.113,2.116-.219,3.183-.314.6-.922,1.2-1.828,1.8-2.725C-3182.4-18040.088-3183.435-18039.945-3184.475-18039.795Zm3.3-.443q-.907,1.354-1.8,2.734c1.1-.1,2.2-.184,3.3-.262q.872-1.436,1.754-2.844C-3179.011-18040.5-3180.092-18040.371-3181.173-18040.238Zm-20.851,1.26c-.536.42-1.072.852-1.607,1.281.664-.219,1.328-.439,2-.65.527-.467,1.049-.924,1.575-1.383Q-3201.041-18039.358-3202.024-18038.979Zm24.345-1.654q-.886,1.409-1.768,2.854c1.085-.078,2.171-.137,3.261-.193.568-.992,1.131-1.977,1.7-2.953C-3175.553-18040.838-3176.616-18040.742-3177.678-18040.633Zm-17.618.857c-.632.645-1.269,1.3-1.9,1.969.916-.211,1.836-.412,2.757-.609.623-.7,1.241-1.4,1.864-2.084C-3193.483-18040.266-3194.389-18040.027-3195.3-18039.775Zm20.966-1.164c-.573.98-1.14,1.965-1.7,2.963,1.122-.055,2.253-.1,3.38-.133.55-1.029,1.094-2.057,1.649-3.068Q-3172.675-18041.075-3174.331-18040.939Zm-30.949,2.643c-.16.105-.33.211-.495.32.192-.082.38-.16.573-.238.165-.119.325-.238.49-.357C-3204.9-18038.48-3205.087-18038.389-3205.28-18038.3Zm13.524-2.408c-.128.031-.261.063-.389.1-.632.7-1.259,1.4-1.891,2.111q1.449-.3,2.9-.578c.623-.75,1.237-1.492,1.859-2.225Q-3190.517-18041.014-3191.756-18040.705Zm-7.245.586c-.573.49-1.14.98-1.713,1.479q.556-.17,1.113-.344c.38-.113.76-.229,1.14-.338.563-.537,1.122-1.068,1.69-1.59Q-3197.891-18040.528-3199-18040.119Zm-3.348.43c-.348.248-.7.49-1.044.742.421-.17.843-.334,1.264-.5.348-.27.691-.545,1.035-.814C-3201.511-18040.074-3201.932-18039.877-3202.349-18039.689Zm13.373-1.68c-.623.74-1.246,1.482-1.868,2.238,1.008-.187,2.024-.365,3.036-.535.614-.8,1.228-1.58,1.841-2.363Q-3187.472-18041.713-3188.976-18041.369Zm-6.984.178c-.591.545-1.186,1.1-1.777,1.654.833-.238,1.662-.473,2.5-.7q.879-.9,1.759-1.777Q-3194.726-18041.617-3195.96-18041.191Zm10.432-.93c-.627.793-1.25,1.584-1.873,2.391.985-.16,1.969-.316,2.958-.457.6-.844,1.209-1.672,1.818-2.5Q-3184.081-18042.417-3185.528-18042.121Zm-13.876,1.113c-.453.344-.9.688-1.351,1.039.573-.215,1.149-.43,1.717-.641.449-.381.893-.756,1.342-1.131C-3198.264-18041.5-3198.836-18041.256-3199.4-18041.008Zm17.073-1.73q-.92,1.242-1.832,2.508,1.545-.22,3.1-.412.742-1.1,1.484-2.187c.1-.143.2-.289.3-.436C-3180.3-18043.1-3181.319-18042.922-3182.331-18042.738Zm-10.561.535c-.6.6-1.209,1.209-1.809,1.818.879-.238,1.763-.463,2.647-.687.6-.65,1.2-1.3,1.791-1.941C-3191.138-18042.752-3192.017-18042.482-3192.892-18042.2Zm13.789-1.09c-.6.865-1.2,1.75-1.786,2.629,1.072-.129,2.148-.252,3.229-.361q.866-1.389,1.74-2.748Q-3177.513-18043.548-3179.1-18043.293Zm-17.343,1.035c-.509.416-1.021.842-1.53,1.273q1.024-.366,2.047-.711.762-.7,1.525-1.387Q-3195.427-18042.678-3196.446-18042.258Zm20.787-1.553c-.591.916-1.172,1.832-1.759,2.762q1.58-.164,3.174-.289c.563-.967,1.131-1.924,1.695-2.867C-3173.584-18044.086-3174.628-18043.953-3175.659-18043.811Zm-14.151.664c-.609.65-1.214,1.3-1.823,1.969.939-.229,1.873-.449,2.817-.664q.9-1.058,1.8-2.1Q-3188.413-18043.553-3189.81-18043.146Zm-9.842,1.607c-.137.1-.279.188-.421.283.211-.092.421-.184.627-.27l.463-.354C-3199.207-18041.764-3199.427-18041.654-3199.651-18041.539Zm27.262-2.684c-.573.947-1.136,1.9-1.7,2.871q1.649-.132,3.306-.234.818-1.5,1.649-2.98C-3170.227-18044.465-3171.308-18044.352-3172.389-18044.223Zm-11.5-.527c-.939.234-1.882.477-2.812.729-.6.7-1.214,1.406-1.818,2.115q1.477-.328,2.963-.631.9-1.143,1.8-2.244A1.078,1.078,0,0,0-3183.893-18044.75Zm-9.581,1.3q-.818.729-1.64,1.475c.783-.256,1.562-.512,2.345-.754.545-.541,1.095-1.076,1.64-1.6C-3191.912-18044.039-3192.69-18043.746-3193.473-18043.445Zm-3.3.473c-.325.238-.655.48-.976.719l1.333-.549,1-.82C-3195.869-18043.408-3196.317-18043.193-3196.771-18042.973Zm13.482-1.928c-.614.75-1.223,1.5-1.832,2.271.953-.193,1.9-.371,2.858-.545.6-.807,1.191-1.6,1.791-2.387C-3181.415-18045.35-3182.35-18045.129-3183.288-18044.9Zm-7.181.334c-.573.545-1.14,1.094-1.708,1.658q1.264-.393,2.528-.76c.568-.6,1.136-1.2,1.7-1.787C-3188.789-18045.166-3189.631-18044.873-3190.469-18044.566Zm10.3-1.062q-.9,1.189-1.8,2.4c1-.184,2.006-.354,3.018-.514.586-.846,1.172-1.689,1.763-2.518C-3178.187-18046.059-3179.176-18045.85-3180.17-18045.629Zm-13.711,1.291c-.426.344-.852.684-1.282,1.031.6-.238,1.2-.473,1.8-.7.435-.385.865-.77,1.3-1.145C-3192.667-18044.887-3193.277-18044.611-3193.881-18044.338Zm16.867-1.955c-.591.838-1.177,1.676-1.768,2.527q1.573-.246,3.16-.467c.069-.105.133-.211.2-.316q.762-1.175,1.53-2.33C-3174.935-18046.7-3175.979-18046.5-3177.014-18046.293Zm-10.441.674q-.872.9-1.74,1.822,1.353-.384,2.716-.752c.582-.658,1.159-1.309,1.74-1.959C-3185.647-18046.219-3186.558-18045.926-3187.456-18045.619Zm13.84-1.311q-.879,1.318-1.75,2.666,1.539-.214,3.087-.391c.33-.545.655-1.08.985-1.621.234-.385.472-.77.71-1.152C-3171.6-18047.273-3172.609-18047.1-3173.616-18046.93Zm-17.352,1.3q-.735.63-1.47,1.273c.069-.023.133-.047.2-.074.655-.242,1.314-.486,1.969-.719.5-.477,1-.943,1.493-1.41C-3189.512-18046.256-3190.24-18045.949-3190.969-18045.633Zm-3.151.76c-.133.092-.261.188-.394.279.247-.115.49-.225.738-.34.16-.123.316-.252.476-.375C-3193.574-18045.166-3193.844-18045.02-3194.119-18044.873Zm9.7-1.736c-.582.656-1.168,1.314-1.75,1.979q1.436-.378,2.885-.729c.582-.713,1.168-1.42,1.749-2.119Q-3182.982-18047.054-3184.424-18046.609Zm14-.842c-.563.916-1.131,1.846-1.695,2.779,1.072-.119,2.152-.234,3.229-.334.439-.779.875-1.553,1.314-2.318.115-.191.224-.389.334-.586C-3168.308-18047.768-3169.371-18047.617-3170.429-18047.451Zm-17.609.586c-.527.49-1.049.98-1.58,1.479.8-.279,1.6-.553,2.4-.814q.8-.823,1.6-1.625C-3186.43-18047.516-3187.231-18047.2-3188.037-18046.865Zm7.011-.76c-.6.709-1.2,1.424-1.791,2.152q1.374-.331,2.757-.633c.586-.764,1.168-1.52,1.754-2.271C-3179.213-18048.135-3180.119-18047.887-3181.026-18047.625Zm-10.268,1.277-.943.723q.721-.316,1.443-.627l1-.852C-3190.291-18046.855-3190.794-18046.6-3191.294-18046.348Zm15.067-2.561c-.586.143-1.168.293-1.754.449-.6.756-1.181,1.516-1.772,2.285q1.463-.316,2.936-.605c.582-.814,1.159-1.615,1.74-2.412C-3175.457-18049.1-3175.842-18049-3176.227-18048.908Zm-8.862.875c-.55.549-1.1,1.107-1.649,1.668.87-.285,1.74-.564,2.619-.83.554-.613,1.1-1.219,1.663-1.818C-3183.334-18048.7-3184.218-18048.367-3185.088-18048.033Zm-3.362.275c-.417.344-.833.691-1.246,1.039.371-.156.742-.307,1.113-.463.28-.109.554-.225.829-.334.43-.4.87-.8,1.305-1.191Q-3187.451-18048.238-3188.45-18047.758Zm13.547-1.475c-.586.8-1.163,1.6-1.745,2.418,1.026-.2,2.056-.391,3.091-.568q.852-1.286,1.717-2.551C-3172.865-18049.709-3173.886-18049.48-3174.9-18049.232Zm-7.218.1c-.563.605-1.126,1.223-1.685,1.842q1.4-.434,2.807-.83c.568-.668,1.131-1.332,1.7-1.986C-3180.238-18049.791-3181.182-18049.467-3182.121-18049.133Zm10.57-.865c-.577.848-1.159,1.709-1.731,2.57.994-.17,2-.336,3-.486q.838-1.354,1.685-2.684C-3169.586-18050.406-3170.571-18050.209-3171.551-18050Zm-14.032.893c-.476.426-.953.861-1.429,1.293q1.113-.442,2.235-.861c.49-.49.98-.971,1.475-1.447C-3184.062-18049.791-3184.827-18049.453-3185.583-18049.105Zm17.146-1.523c-.568.893-1.131,1.785-1.69,2.691,1.049-.16,2.1-.307,3.155-.439.545-.943,1.094-1.887,1.649-2.816C-3166.367-18051.014-3167.4-18050.826-3168.437-18050.629Zm-20.26,2.334c-.133.1-.266.2-.4.3.3-.146.6-.293.9-.436.179-.146.353-.293.531-.436C-3188.01-18048.674-3188.354-18048.486-3188.7-18048.295Zm9.961-2q-.879,1-1.749,2.033c.884-.248,1.768-.49,2.652-.715q.858-1.093,1.717-2.152Q-3177.429-18050.73-3178.736-18050.295Zm-3.966-.088c-.513.5-1.031,1-1.543,1.508.833-.312,1.672-.615,2.505-.908q.79-.844,1.58-1.666C-3181.008-18051.1-3181.86-18050.744-3182.7-18050.383Zm6.929-.855c-.577.719-1.159,1.447-1.736,2.174.334-.086.664-.168,1-.252.614-.15,1.236-.3,1.855-.447q.852-1.163,1.717-2.309C-3173.891-18051.8-3174.825-18051.527-3175.773-18051.238Zm-10.148,1.424q-.467.372-.934.75c.55-.256,1.094-.508,1.644-.754.348-.309.7-.615,1.044-.916C-3184.749-18050.437-3185.34-18050.127-3185.922-18049.814Zm13.153-2.3c-.577.766-1.145,1.535-1.717,2.314q1.5-.352,3.018-.674c.568-.824,1.131-1.641,1.7-2.451C-3170.772-18052.668-3171.771-18052.4-3172.769-18052.119Zm-7.034.527q-.8.838-1.607,1.7,1.36-.475,2.729-.922c.545-.627,1.09-1.244,1.64-1.863C-3177.962-18052.328-3178.887-18051.967-3179.8-18051.592Zm-3.316.316c-.412.357-.82.709-1.227,1.072.678-.3,1.36-.592,2.038-.885.44-.416.875-.834,1.31-1.246C-3181.7-18051.986-3182.414-18051.633-3183.119-18051.275Zm14.5-1.947c-.279.074-.559.143-.833.211-.577.816-1.154,1.645-1.722,2.473.966-.205,1.937-.393,2.908-.58.554-.871,1.117-1.736,1.676-2.594C-3167.269-18053.551-3167.947-18053.387-3168.62-18053.223Zm-7.8.307c-.573.633-1.136,1.27-1.7,1.916q1.264-.407,2.537-.793.838-1.031,1.676-2.037C-3174.747-18053.533-3175.585-18053.227-3176.419-18052.916Zm9.993-.832c-.563.861-1.122,1.721-1.681,2.6q1.539-.29,3.082-.545.824-1.374,1.649-2.73C-3164.393-18054.211-3165.414-18053.982-3166.426-18053.748Zm-13.881,1.08c-.467.439-.934.885-1.406,1.328.792-.33,1.584-.65,2.377-.967.49-.508.985-1.012,1.475-1.506C-3178.677-18053.441-3179.492-18053.057-3180.307-18052.668Zm-3.073.861c-.151.119-.3.232-.454.352.4-.205.788-.4,1.186-.6.215-.187.435-.371.65-.553C-3182.459-18052.342-3182.917-18052.076-3183.38-18051.807Zm9.846-2.152c-.573.678-1.14,1.369-1.7,2.064.916-.273,1.841-.539,2.761-.8.563-.736,1.126-1.475,1.694-2.2C-3171.7-18054.592-3172.623-18054.279-3173.534-18053.959Zm-3.938-.033c-.5.514-1.008,1.027-1.511,1.549.875-.348,1.754-.682,2.638-1.012q.783-.873,1.575-1.727Q-3176.123-18054.6-3177.472-18053.992Zm-3.165.609c-.321.271-.641.537-.962.811q.144-.073.289-.141c.5-.244.994-.482,1.493-.719.366-.34.733-.674,1.1-1.008Q-3179.68-18053.918-3180.637-18053.383Zm10.025-1.566q-.852,1.1-1.694,2.213,1.47-.4,2.954-.779c.559-.791,1.122-1.58,1.69-2.357C-3168.652-18055.576-3169.627-18055.27-3170.612-18054.949Zm3.279-1.025c-.573.787-1.14,1.58-1.713,2.381.018,0,.037,0,.055-.008.92-.234,1.841-.449,2.766-.66.554-.848,1.113-1.68,1.671-2.51Q-3165.948-18056.388-3167.333-18055.975Zm-6.741.494q-.824.888-1.649,1.8c.8-.295,1.607-.578,2.409-.857q.817-.976,1.635-1.928C-3172.48-18056.145-3173.277-18055.818-3174.074-18055.48Zm-3.815.6c-.417.377-.829.752-1.246,1.131.742-.342,1.479-.682,2.221-1.012.453-.449.907-.893,1.355-1.336C-3176.336-18055.7-3177.115-18055.3-3177.889-18054.885Zm13.505-1.932c-.563.832-1.117,1.666-1.676,2.514q1.5-.337,3.009-.65.824-1.333,1.653-2.646C-3162.4-18057.348-3163.39-18057.092-3164.384-18056.816Zm-6.888.188c-.559.645-1.117,1.3-1.672,1.959.893-.307,1.781-.6,2.679-.883.55-.711,1.1-1.41,1.662-2.107Q-3169.941-18057.159-3171.271-18056.629Zm-3.852.307q-.708.686-1.406,1.387c.843-.375,1.69-.736,2.542-1.094.5-.535,1-1.066,1.5-1.594Q-3173.8-18056.99-3175.123-18056.322Zm-3.009.893-.572.463,1-.535.389-.207c.266-.232.531-.467.792-.7C-3177.055-18056.084-3177.6-18055.76-3178.132-18055.43Zm9.7-2.295c-.559.7-1.113,1.4-1.672,2.117.957-.307,1.924-.6,2.885-.885.554-.76,1.117-1.52,1.676-2.266Q-3166.987-18058.257-3168.427-18057.725Zm-7.03.684c-.344.3-.687.6-1.035.906.673-.348,1.351-.691,2.024-1.025.4-.385.806-.77,1.2-1.145C-3174-18057.893-3174.725-18057.473-3175.457-18057.041Zm3.774-.963c-.536.555-1.072,1.119-1.607,1.686.756-.311,1.516-.617,2.271-.91q.8-.92,1.594-1.818C-3170.181-18058.709-3170.933-18058.359-3171.684-18058Zm6.5-.883q-.852,1.14-1.7,2.3c.9-.266,1.813-.521,2.725-.766.554-.814,1.108-1.625,1.667-2.422Q-3163.834-18059.342-3165.181-18058.887Zm-7.575.293c-.426.4-.861.814-1.287,1.227q1.216-.6,2.437-1.172.714-.741,1.429-1.461Q-3171.468-18059.312-3172.755-18058.594Zm3.778-.654c-.545.613-1.094,1.236-1.64,1.859.861-.33,1.718-.656,2.578-.971.55-.674,1.095-1.348,1.644-2.012Q-3167.686-18059.82-3168.977-18059.248Zm6.663-.582q-.838,1.2-1.676,2.432c.98-.266,1.955-.514,2.94-.756q.824-1.3,1.653-2.568Q-3160.86-18060.3-3162.314-18059.83Zm-13.015,2.23.545-.316c.082-.074.169-.146.252-.215Q-3174.931-18057.87-3175.329-18057.6Zm9.114-2.844c-.55.668-1.1,1.346-1.649,2.023q1.4-.507,2.812-.988c.554-.738,1.113-1.467,1.667-2.186C-3164.333-18061.223-3165.272-18060.838-3166.216-18060.443Zm-6.782,1.3c-.247.205-.495.416-.737.623.577-.33,1.154-.65,1.731-.967.334-.311.668-.617,1.008-.926C-3171.665-18059.99-3172.334-18059.564-3173-18059.139Zm3.755-1.359c-.522.525-1.044,1.057-1.566,1.588.7-.32,1.4-.637,2.106-.943.518-.576,1.035-1.154,1.557-1.717C-3167.846-18061.223-3168.542-18060.861-3169.243-18060.5Zm6.251-1.252c-.568.729-1.136,1.475-1.7,2.217.87-.293,1.749-.576,2.629-.852q.831-1.181,1.667-2.344C-3161.26-18062.414-3162.131-18062.088-3162.991-18061.75Zm-7.378.953q-.57.516-1.14,1.045c.765-.418,1.534-.83,2.3-1.229.453-.447.9-.893,1.351-1.336Q-3169.112-18061.575-3170.369-18060.8Zm3.732-1.025c-.545.586-1.081,1.172-1.621,1.768q1.236-.536,2.473-1.045c.541-.65,1.085-1.291,1.63-1.932C-3164.984-18062.637-3165.812-18062.238-3166.637-18061.822Zm6.425-.977q-.845,1.169-1.676,2.359c.948-.293,1.91-.582,2.867-.855q.824-1.266,1.662-2.506C-3158.311-18063.48-3159.264-18063.141-3160.212-18062.8Zm-10.336,1.654c-.064.045-.124.1-.188.146.064-.041.128-.078.188-.115.344-.211.682-.42,1.026-.627.22-.2.439-.389.659-.586C-3169.426-18061.937-3169.985-18061.547-3170.548-18061.145Zm6.581-1.975c-.55.643-1.094,1.293-1.644,1.947.916-.375,1.827-.738,2.748-1.09q.831-1.072,1.667-2.121C-3162.121-18063.975-3163.042-18063.549-3163.967-18063.119Zm-2.743.139c-.522.5-1.04,1.008-1.562,1.52.632-.324,1.269-.641,1.905-.953.508-.549,1.021-1.094,1.534-1.629C-3165.46-18063.7-3166.083-18063.344-3166.71-18062.98Zm-1.264.049c-.312.275-.623.547-.934.82q1.058-.633,2.125-1.24c.417-.4.833-.8,1.255-1.2C-3166.348-18064.021-3167.159-18063.48-3167.974-18062.932Zm7.213-1.643q-.859,1.069-1.713,2.16,1.257-.48,2.528-.934c.554-.773,1.117-1.533,1.676-2.289C-3159.1-18065.293-3159.937-18064.937-3160.761-18064.574Zm-3.48.2q-.811.844-1.621,1.713,1.175-.571,2.349-1.113c.545-.633,1.09-1.254,1.635-1.869C-3162.671-18065.23-3163.459-18064.8-3164.242-18064.373Zm6.169-1.346q-.852,1.146-1.694,2.3,1.394-.5,2.8-.961c.554-.826,1.117-1.641,1.676-2.451C-3156.218-18066.471-3157.153-18066.1-3158.073-18065.719Zm-3.6-.033c-.554.623-1.1,1.256-1.653,1.891.884-.406,1.777-.8,2.666-1.193.563-.7,1.122-1.389,1.685-2.07Q-3160.329-18066.454-3161.673-18065.752Zm-2.363.248c-.536.494-1.072,1-1.607,1.5.545-.307,1.085-.609,1.635-.9.5-.531,1.012-1.049,1.521-1.566C-3163.005-18066.15-3163.523-18065.83-3164.036-18065.5Zm-1.511.494c-.224.188-.453.385-.678.572.614-.4,1.227-.8,1.845-1.186.394-.367.792-.738,1.191-1.1C-3163.976-18066.16-3164.759-18065.592-3165.547-18065.01Zm3.778-1.9c-.554.555-1.1,1.113-1.653,1.682q1.1-.592,2.2-1.158c.55-.619,1.1-1.229,1.653-1.828Q-3160.672-18067.572-3161.769-18066.906Zm3.284-.457c-.582.7-1.159,1.4-1.736,2.119.8-.348,1.608-.682,2.414-1.012q.845-1.134,1.7-2.244C-3156.9-18068.129-3157.693-18067.754-3158.485-18067.363Zm2.587-1.232q-.859,1.119-1.717,2.262,1.353-.548,2.72-1.066.852-1.216,1.708-2.414C-3154.089-18069.42-3155-18069.012-3155.9-18068.6Zm-3.435.248c-.563.613-1.127,1.236-1.685,1.859q1.291-.662,2.587-1.293c.573-.686,1.149-1.369,1.722-2.041Q-3158.02-18069.1-3159.332-18068.348Zm-1.672.105c-.632.553-1.26,1.117-1.887,1.684.412-.252.824-.5,1.237-.75.527-.531,1.058-1.053,1.589-1.57C-3160.381-18068.67-3160.693-18068.453-3161-18068.242Zm-1.9,1.057c.339-.238.673-.471,1.012-.705.33-.3.664-.59.994-.879C-3161.563-18068.252-3162.236-18067.721-3162.9-18067.186Zm3.755-2.309c-.6.578-1.2,1.164-1.8,1.76.673-.4,1.346-.793,2.02-1.182q.872-.935,1.745-1.855Q-3158.165-18070.139-3159.145-18069.494Zm3-.641c-.6.7-1.2,1.4-1.8,2.115.765-.365,1.525-.723,2.294-1.07q.865-1.128,1.745-2.23C-3154.652-18070.932-3155.4-18070.533-3156.14-18070.135Zm-.76-.811c-.6.623-1.191,1.26-1.786,1.9.833-.477,1.663-.934,2.5-1.387.6-.7,1.2-1.393,1.809-2.074C-3155.22-18072-3156.058-18071.477-3156.9-18070.945Zm3.229-.494c-.591.746-1.182,1.492-1.768,2.254.879-.4,1.759-.793,2.647-1.174.582-.8,1.168-1.607,1.754-2.395Q-3152.358-18072.115-3153.672-18071.439Zm-6.045,2.074c.16-.105.325-.215.481-.32l.884-.842C-3158.81-18070.145-3159.259-18069.76-3159.717-18069.365Zm3.545-2.922c-.719.654-1.429,1.324-2.143,2,.577-.375,1.159-.746,1.74-1.113q.948-.981,1.9-1.947C-3155.179-18073-3155.673-18072.648-3156.172-18072.287Zm2.468-.623c-.641.715-1.282,1.443-1.914,2.172.715-.381,1.434-.756,2.148-1.123q.914-1.14,1.827-2.252C-3152.335-18073.721-3153.017-18073.316-3153.7-18072.91Zm-.614-.682q-1,1-1.983,2.02c.8-.494,1.589-.98,2.391-1.457.65-.732,1.305-1.451,1.96-2.166C-3152.742-18074.668-3153.53-18074.137-3154.318-18073.592Zm-.861.457c.316-.225.632-.443.953-.664.142-.146.289-.287.435-.434C-3154.254-18073.871-3154.721-18073.506-3155.179-18073.135Zm4.053-2.6c-.71.76-1.41,1.529-2.116,2.307.659-.389,1.314-.77,1.974-1.141.655-.787,1.305-1.561,1.96-2.33C-3149.912-18076.514-3150.521-18076.129-3151.126-18075.734Zm-2.139,1.094c-.2.2-.4.395-.6.6.747-.514,1.5-1.012,2.249-1.508.353-.379.705-.76,1.058-1.131C-3151.469-18076.02-3152.367-18075.338-3153.264-18074.641Zm3.783-2.836q-.659.688-1.31,1.385c.577-.377,1.163-.748,1.745-1.109.44-.518.884-1.025,1.328-1.529C-3148.309-18078.318-3148.9-18077.9-3149.482-18077.477Zm-1.447.568c-.137.129-.266.258-.4.385.673-.5,1.346-.994,2.02-1.479.371-.389.747-.773,1.117-1.154Q-3149.568-18078.058-3150.929-18076.908Zm4.323-3.508c-.54.541-1.076,1.086-1.616,1.635.467-.33.939-.658,1.41-.984q.728-.817,1.461-1.621C-3145.772-18081.066-3146.189-18080.74-3146.606-18080.416Zm-1.9,1.246c.494-.4.989-.787,1.484-1.182.234-.234.472-.467.705-.7s.467-.463.7-.686Q-3147.068-18080.481-3148.5-18079.17Zm3.077-2.414c.275-.211.55-.416.829-.627.508-.549,1.012-1.09,1.521-1.625C-3143.862-18083.1-3144.646-18082.344-3145.424-18081.584Zm72.757-47.705q-4,1-7.955,2.285c-17.838,5.811-34.205,15.785-49.231,30.07a145.147,145.147,0,0,1,18.5-15.021,121.713,121.713,0,0,1,30.7-15.168c68.032-22.17,144.033,22.172,207.5,62.625v.148C-2934.151-18103.227-3006.747-18145.725-3072.667-18129.289Z" transform="translate(3249.667 18133.459)" fill="#009c73" stroke="rgba(0,0,0,0)" stroke-miterlimit="10" stroke-width="1"/>
</svg>
