<svg xmlns="http://www.w3.org/2000/svg" width="1185.779" height="439.996" viewBox="0 0 1185.779 439.996">
  <path id="Intersection_79" data-name="Intersection 79" d="M3898.62-18075a806.965,806.965,0,0,0,72.612-175.883c-3.656-.566-7.274-1.1-10.9-1.609A924.68,924.68,0,0,1,3885.856-18075h-.133a925.135,925.135,0,0,0,74.256-177.539c-3.6-.506-7.15-.98-10.72-1.437-.033.1-.067.205-.1.309-20.754,63.43-46.663,123.744-76.584,178.668h-.384c29.62-54.264,55.487-114.3,76.587-178.8.024-.076.052-.156.076-.232-3.518-.447-7.04-.871-10.525-1.271q-.664,1.849-1.323,3.7c-22.485,63.221-48.791,122.773-77.865,176.6h-.4c28.773-53.168,54.941-112.375,77.837-176.75.428-1.2.862-2.4,1.29-3.6-3.446-.389-6.907-.762-10.325-1.107-.9,2.3-1.794,4.607-2.694,6.936-24.616,64-51.062,122.328-79.091,174.525h-.565c28.065-52.238,54.545-110.635,79.194-174.707.881-2.285,1.757-4.547,2.642-6.8q-5.084-.513-10.129-.951c-1.4,3.3-2.809,6.648-4.2,10.01-26.851,64.824-53.538,122.043-80.481,172.451h-.622c26.984-50.457,53.706-107.736,80.6-172.66q2.057-4.969,4.132-9.854c-3.332-.285-6.631-.553-9.939-.795q-2.934,6.384-5.841,12.934c-24.108,54.264-51.278,113.146-81.841,170.375h-.676c30.615-57.3,57.83-116.275,81.973-170.619q2.863-6.445,5.75-12.732-4.9-.357-9.753-.643-3.827,7.726-7.612,15.693c-24.594,51.783-52.556,110.658-83.363,168.3h-.73c30.865-57.727,58.879-116.709,83.513-168.576q3.734-7.86,7.5-15.461-4.805-.278-9.568-.494-4.77,8.974-9.5,18.307c-7.178,14.176-14.514,28.775-21.6,42.895-20.655,41.121-41.6,82.828-63.272,123.33h-.785c21.726-40.594,42.731-82.418,63.434-123.641,7.093-14.123,14.428-28.723,21.6-42.9q4.648-9.182,9.354-18.027c-3.132-.137-6.274-.256-9.382-.352q-5.791,10.154-11.505,20.77c-14.576,27.074-29.308,55.355-43.565,82.707-14.173,27.2-28.413,54.529-42.875,81.441h-.837c14.521-27.014,28.825-54.469,43.056-81.779,14.252-27.357,28.99-55.643,43.565-82.717q5.634-10.468,11.32-20.445c-3.085-.09-6.141-.162-9.2-.209q-6.854,11.224-13.624,23.082c-21.111,36.971-42.027,76.119-62.249,113.977-8.538,15.98-17.13,32.064-25.8,48.092h-.9c8.735-16.152,17.39-32.355,25.995-48.463,20.226-37.867,41.142-77.016,62.263-114q6.662-11.669,13.381-22.707-4.52-.07-9.006-.07-7.983,12.237-15.847,25.248c-27.142,44.893-53.318,93.057-78.628,139.635q-5.558,10.228-11.068,20.354h-.957q5.623-10.324,11.287-20.754c25.314-46.588,51.5-94.762,78.647-139.668q7.74-12.8,15.552-24.814-4.427,0-8.821.066-9.154,13.151-18.169,27.262c-32.154,50.309-62.276,104.926-91.4,157.908h-1.016c29.211-53.133,59.411-107.918,91.671-158.385q8.854-13.866,17.808-26.771-4.334.073-8.625.2-10.382,14-20.592,29.133c-33.245,49.279-63.754,102.932-93.155,155.828h-1.077c29.491-53.062,60.092-106.9,93.456-156.352q10.018-14.859,20.159-28.57c-2.818.09-5.641.2-8.435.322q-11.653,14.745-23.111,30.852c-34.353,48.311-65.323,101.092-94.955,153.748H3707.2c29.729-52.838,60.8-105.822,95.284-154.32q11.232-15.785,22.592-30.217-4.127.193-8.226.447-12.988,15.416-25.719,32.426c-35.476,47.371-66.954,99.336-96.807,151.664h-1.191c29.956-52.531,61.542-104.713,97.165-152.287q12.474-16.644,25.105-31.717-4.02.258-8.016.566-14.373,16.017-28.423,33.854c-36.6,46.453-68.623,97.641-98.7,149.584h-1.253c30.192-52.166,62.341-103.588,99.108-150.254q13.738-17.437,27.685-33.061-3.913.316-7.792.682-15.787,16.515-31.208,35.135c-37.725,45.549-70.33,95.969-100.652,147.5h-1.312c30.442-51.771,63.18-102.443,101.094-148.217q15.037-18.158,30.346-34.254c-2.542.248-5.051.51-7.569.789q-17.258,16.945-34.068,36.268c-38.421,44.146-72.1,94.6-102.578,145.414h-1.379c30.609-51.072,64.435-101.8,103.067-146.189q16.365-18.8,33.064-35.277c-2.447.275-4.9.576-7.326.885q-18.772,17.294-37.01,37.258c-39.532,43.244-73.787,92.875-104.609,143.324h-1.444c30.956-50.725,65.378-100.658,105.144-144.156q17.708-19.371,35.839-36.158c-2.285.3-4.57.623-6.84.947q-20.55,17.587-40.257,38.129c-40.65,42.352-75.516,91.184-106.689,141.238h-1.509c31.316-50.348,66.369-99.51,107.274-142.123q19.079-19.872,38.667-36.873c-2.185.328-4.346.666-6.517,1.023a545.813,545.813,0,0,0-43.394,38.818c-41.771,41.459-77.277,89.516-108.818,139.154h-1.574c31.694-49.955,67.4-98.359,109.455-140.1q20.45-20.294,41.528-37.416c-2.052.344-4.113.705-6.15,1.076a529.663,529.663,0,0,0-46.607,39.371c-42.9,40.559-79.075,87.855-111,137.064h-1.641c32.091-49.551,68.487-97.215,111.7-138.068a535.42,535.42,0,0,1,44.522-37.814c-1.957.371-3.913.748-5.855,1.133a516.432,516.432,0,0,0-49.891,39.771c-44.032,39.66-80.9,86.207-113.228,134.979h-1.711c32.512-49.143,69.611-96.068,113.987-136.035a521.847,521.847,0,0,1,47.283-37.992q-2.67.551-5.322,1.133a505.023,505.023,0,0,0-53.176,40.006c-45.174,38.754-82.755,84.559-115.511,132.889h-1.782c32.949-48.725,70.783-94.93,116.332-134.008a508.089,508.089,0,0,1,50.072-37.98c-1.575.355-3.142.723-4.712,1.094a493.961,493.961,0,0,0-56.57,40.1c-46.317,37.838-84.638,82.918-117.839,130.8h-1.857c33.409-48.307,72-93.8,118.729-131.98a494.167,494.167,0,0,1,52.79-37.762c-1.052.262-2.08.52-3.127.785a468.2,468.2,0,0,0-60.868,40.242c-47.472,36.92-86.55,81.277-120.217,128.715h-1.93c33.888-47.889,73.257-92.684,121.18-129.953a481.9,481.9,0,0,1,55.27-37.275c-.633.166-1.271.342-1.9.518a460.786,460.786,0,0,0-64.576,40.086c-48.638,35.992-88.484,79.627-122.637,126.625h-1.815c38.432-52.994,79.048-95.041,123.49-127.924a471.863,471.863,0,0,1,57.284-36.439l-.119.037a454.5,454.5,0,0,0-68.375,39.791c-49.2,34.627-89.93,77.879-124.685,124.535h-2.25c38.913-52.408,80.371-93.807,125.973-125.9a457.454,457.454,0,0,1,54.79-33.145,450.778,450.778,0,0,0-66,36.6c-50.368,33.691-91.872,76.211-127.151,122.445h-2.165c35.546-46.762,77.432-89.8,128.36-123.869a453.9,453.9,0,0,1,49.815-28.955,447.542,447.542,0,0,0-61.035,32.469c-51.544,32.748-93.847,74.547-129.662,120.355h-2.247c36.1-46.371,78.809-88.713,130.961-121.846a452.756,452.756,0,0,1,44.246-24.777,443.444,443.444,0,0,0-81.132,45.055c-41.228,28.879-76.2,63.732-106.5,101.568h-2.332c30.607-38.4,65.985-73.771,107.794-103.057a443.122,443.122,0,0,1,114.877-57.932q8.6-3.378,17.365-6.4c5.017-2.027,10.058-3.961,15.171-5.812q6.162-2.6,12.424-5.021,8.99-4.058,18.17-7.7,7.7-3.557,15.547-6.807,7.626-3.656,15.375-7.012,8.1-4.043,16.327-7.73,8.011-4.128,16.151-7.9,5.305-2.818,10.663-5.482,8.368-4.764,16.865-9.1,7.2-4.213,14.5-8.1,7.183-4.368,14.471-8.41,7.026-4.45,14.138-8.561,6.926-4.562,13.928-8.771,6.833-4.685,13.752-9.021,6.712-4.79,13.5-9.221,6.591-4.89,13.262-9.424,6.483-5.007,13.048-9.65,6.355-5.1,12.791-9.838,6.226-5.2,12.543-10.035,6.112-5.312,12.319-10.258,6.183-5.584,12.467-10.781,5.5-5.147,11.091-9.992,5.905-5.777,11.919-11.182,4.977-5.054,10.034-9.824c.443-.414.881-.828,1.323-1.238q3.17-3.349,6.374-6.578,2.385-2.4,4.784-4.736c3.551-3.9,7.155-7.7,10.777-11.373q5.255-6.012,10.667-11.709,4.848-5.769,9.83-11.258,7.987-9.937,16.346-19.084h.373q-6.933,7.576-13.634,15.732,7.622-8.2,15.529-15.732h.835q-11.528,10.957-22.5,23.387a344.1,344.1,0,0,1,25.865-23.387h.355a337.841,337.841,0,0,0-27.234,24.678q-2.178,2.8-4.336,5.678a322.868,322.868,0,0,1,38.212-30.355h.9a323.536,323.536,0,0,0-40.759,32.568c-1.138,1.533-2.261,3.07-3.385,4.627a308.554,308.554,0,0,1,54.409-37.2h1.564a311.52,311.52,0,0,0-57.925,39.924q-1.5,2.106-2.985,4.25a300.174,300.174,0,0,1,78.036-44.174h1.375a297.938,297.938,0,0,0-79.968,44.979q-2.142,3.105-4.265,6.283a301.863,301.863,0,0,1,72.026-37.99,308.853,308.853,0,0,1,48.632-13.271h3.52a300.659,300.659,0,0,0-124.978,52.461c-1.323,1.99-2.627,3.99-3.932,6.023q2.949-1.916,5.912-3.748c.281-.471.562-.937.842-1.406q-.42.7-.837,1.406a303.783,303.783,0,0,1,55.913-27.146c28.914-10.52,59.588-16.693,92.385-18.793,168.614-10.791,318.493,2.484,438.92,13.148l4.779.422v.7l-4.841-.43c-120.4-10.662-270.249-23.93-438.815-13.148-55.142,3.527-104.333,18.633-149.107,46.551q-1.835,3.111-3.646,6.277a308.984,308.984,0,0,1,44.907-20.605l.595-.215c32.7-11.867,67.756-18.34,105.656-19.6,143.8-4.76,268.278,1.09,378.1,6.256,23.194,1.09,45.6,2.145,67.146,3.039v.744c-21.56-.895-43.98-1.949-67.185-3.041-109.812-5.164-234.271-11.016-378.042-6.256-56.046,1.857-106.2,15.172-151.992,41.1-1.18,2.08-2.356,4.186-3.522,6.3a314.964,314.964,0,0,1,34.14-14.762c36.81-13.4,76.51-20.088,119.8-20.273,98.045-.43,187.955,1.424,267.283,3.057,65.893,1.355,125.8,2.588,179.52,2.307v.791c-53.742.281-113.631-.951-179.534-2.309-79.323-1.633-169.229-3.484-267.264-3.057-56.932.248-108,11.8-154.762,35.73q-1.728,3.17-3.442,6.389,11.168-5.062,22.692-9.254c40.885-14.881,85.231-21.65,133.956-20.555l19.959.453c173.084,3.9,315.572,7.105,428.4,1.318v.84c-112.859,5.791-255.346,2.58-428.414-1.322l-19.959-.447c-57.784-1.3-109.746,8.525-157.423,30.465q-1.7,3.229-3.385,6.514,5.37-2.171,10.83-4.156c45.026-16.389,94.1-23.145,148.446-20.559,197.935,9.416,341.961,9.018,449.906-1.348v.895c-107.98,10.357-252.021,10.762-449.944,1.342-53.595-2.551-102.348,4.033-147.413,20.432q-6.341,2.306-12.581,4.875-1.685,3.3-3.346,6.672c48.83-17.516,102.281-24,161.831-19.764,188.376,13.4,336.213,12.051,451.453-4.148v.947c-115.286,16.191-263.145,17.539-451.52,4.135-59.34-4.223-112.94,2.236-162.255,20.188-.071.023-.143.053-.214.076q-1.671,3.407-3.323,6.859c49.687-15.684,103.966-20.582,164.306-14.951,184.059,17.17,335.391,14.885,453-6.7v1c-117.69,21.574-269.046,23.85-453.1,6.678-60.23-5.617-114.691-.758-164.868,15.342q-1.656,3.5-3.294,7.059c50.515-13.9,105.609-17.254,166.706-10.281,170.452,19.455,314.894,18.307,429.323-3.408q12.858-2.44,25.229-5.23v1.061q-12.275,2.763-25.034,5.184c-114.529,21.74-259.081,22.893-429.637,3.428-61.006-6.969-116.248-3.68-167.181,10.543q-1.649,3.606-3.275,7.264c51.329-12.156,107.189-14.008,169.028-5.734,185.383,24.8,337.888,21.406,456.1-9.967v.756q-21.29,5.646-44.026,10.086c-111.607,21.8-250.3,21.869-412.22.2-61.758-8.264-117.757-6.512-169.419,5.875q-1.642,3.706-3.256,7.479c52.114-10.453,108.741-10.85,171.27-1.324,186.465,28.418,339.553,24.543,457.651-11.371v.893a623.932,623.932,0,0,1-62.372,15.357c-108.251,21-241.3,19.732-395.45-3.756-62.5-9.523-119.213-9.268-171.584,1.324q-1.628,3.812-3.227,7.684c52.881-8.8,110.226-7.77,173.431,2.975,187.774,31.914,341.442,27.676,459.2-12.443v1.047a578.533,578.533,0,0,1-79.218,20.564c-104.918,19.736-232.829,17.041-380.18-8-63.2-10.744-120.641-11.934-173.669-3.094q-1.614,3.911-3.208,7.887c53.614-7.168,111.688-4.764,175.526,7.15,189.229,35.311,343.494,30.834,460.75-13.135v1.309q-1.942.727-3.9,1.439c-116.938,42.564-269.929,46.521-457.075,11.6-63.9-11.924-122.008-14.533-175.688-7.393q-1.6,4.014-3.175,8.088c54.333-5.594,113.077-1.852,177.539,11.2,190.794,38.619,345.632,34.035,462.3-13.459v1.377c-116.851,47.41-271.765,51.953-462.549,13.334-64.1-12.973-123.122-16.662-177.916-10.82q-1.435,3.741-2.856,7.535c55.022-4.061,114.425.99,179.477,15.137,192.383,41.832,347.813,37.252,463.844-13.432v1.447q-11.96,5.206-24.477,9.762c-113.272,41.232-260.466,42.484-439.648,3.518-64.738-14.076-124.378-19.111-179.767-14.895-.957,2.576-1.9,5.16-2.851,7.777,55.917-2.564,116.1,3.8,181.353,18.928,194,44.957,350,40.5,465.391-13.072v1.516q-15.461,7.148-31.888,13.127c-111.873,40.719-257.125,40.719-433.812-.229-65.347-15.146-125.6-21.486-181.552-18.85q-1.414,3.94-2.809,7.93c56.327-1.1,116.957,6.451,183.123,22.682,195.578,47.988,352.155,43.752,466.938-12.4v1.588a395.327,395.327,0,0,1-37.848,16.02c-110.731,40.3-254.516,39.1-429.433-3.816-65.933-16.176-126.758-23.793-183.261-22.687q-1.364,3.935-2.713,7.926c56.96.332,118.152,9.139,184.77,26.48,197.144,50.543,354.27,46.453,468.485-11.977v1.648a381.816,381.816,0,0,1-42.675,18.5c-109.8,39.977-252.493,37.787-426.181-6.74-66.442-17.3-127.81-26.209-184.837-26.609q-1.392,4.134-2.756,8.326c57.541,1.719,119.294,11.676,186.417,29.965,198.64,53.443,356.329,49.793,470.032-10.66v1.723c-114,60.289-271.809,63.85-470.432,10.408-67-18.256-128.891-28.352-186.427-30.184q-1.371,4.213-2.713,8.473c58.107,3.061,120.384,14.143,187.993,33.346,200.1,56.266,358.318,53.154,471.579-9.08v1.789a359.383,359.383,0,0,1-49.386,22.246c-108.537,39.516-250.051,35.082-422.621-13.441q-100.534-28.556-188.14-33.037-1.278,4.087-2.542,8.227c59.054,4.436,122.427,16.594,189.559,36.4,201.48,59,360.248,56.492,473.131-7.258v1.855a349.994,349.994,0,0,1-51.628,23.611c-108.146,39.371-249.437,33.863-421.959-16.652q-101.291-29.889-189.573-36.4-1.25,4.1-2.471,8.254,89.1,8.52,190.954,39.7c202.813,61.65,362.108,59.834,474.678-5.211v1.928a341.469,341.469,0,0,1-53.275,24.66c-107.884,39.271-249.161,32.727-421.888-19.777q-102.005-31.175-190.949-39.658-1.214,4.137-2.409,8.322,89.753,10.409,192.3,42.846c204.071,64.211,363.9,63.148,476.225-2.963v1.992c-112.713,65.871-272.7,66.814-476.739,2.607q-102.677-32.417-192.263-42.8-1.214,4.269-2.4,8.6c60.521,8.158,125.23,23.41,193.634,45.67,205.28,66.7,365.622,66.459,477.772-.516v2.053a327.5,327.5,0,0,1-55.123,25.98c-107.694,39.209-249.4,30.631-423.192-25.838q-103.334-33.624-193.505-45.85c-.3,1.084-.6,2.166-.89,3.256-.49,1.818-.995,3.641-1.5,5.455,60.978,9.32,126.092,25.533,194.89,48.563,206.434,69.111,367.277,69.744,479.319,2.105v2.119a321.885,321.885,0,0,1-55.456,26.293c-107.732,39.215-249.851,29.656-424.439-28.795q-103.9-34.778-194.738-48.771a812.175,812.175,0,0,1-72.281,175.84ZM3725.632-18248q-.664.357-1.328.705c.633-.148,1.261-.295,1.9-.447.443-.268.895-.539,1.342-.8C3726.907-18248.363,3726.274-18248.184,3725.632-18248Zm7.445-2.08c-.714.414-1.442.844-2.152,1.262,1.3-.295,2.609-.576,3.918-.861q1.15-.744,2.309-1.484C3735.79-18250.807,3734.433-18250.449,3733.076-18250.078Zm8.7-2.27c-.962.6-1.918,1.209-2.88,1.818,1.575-.324,3.146-.639,4.727-.953q1.485-1.028,2.97-2.051C3744.982-18253.143,3743.382-18252.752,3741.778-18252.348Zm8.811-2.123q-1.707,1.143-3.4,2.3,2.685-.507,5.384-.984,1.721-1.277,3.442-2.543C3754.207-18255.295,3752.388-18254.891,3750.589-18254.471Zm210.718-1.271c-.171.58-.347,1.166-.524,1.742q5.42.765,10.872,1.594c.514-1.832,1.014-3.65,1.514-5.482.29-1.076.585-2.152.876-3.223q-5.369-.721-10.7-1.371Q3962.323-18259.128,3961.307-18255.742Zm-221.3,1.713c-.343.191-.676.377-1.019.572,1-.258,1.994-.51,2.994-.752.433-.271.871-.543,1.3-.811C3742.188-18254.7,3741.1-18254.361,3740-18254.029Zm19.35-2.385c-1.257.91-2.494,1.809-3.746,2.732q2.878-.492,5.765-.957,1.864-1.491,3.727-2.955C3763.175-18257.213,3761.266-18256.818,3759.353-18256.414Zm190.4.938q5.32.68,10.682,1.43c.181-.6.362-1.2.542-1.795q1-3.357,2.018-6.684-5.269-.642-10.491-1.205Q3951.115-18259.623,3949.749-18255.477Zm-181.572-2.723q-2,1.544-3.994,3.119c2.066-.32,4.122-.629,6.2-.924q1.964-1.685,3.941-3.346Q3771.236-18258.787,3768.178-18258.2Zm-19.493,1.605c-.7.418-1.395.842-2.085,1.266,1.338-.318,2.685-.633,4.032-.937.752-.51,1.5-1,2.256-1.5C3751.479-18257.385,3750.084-18256.994,3748.685-18256.594Zm190.182-.2c3.47.395,6.974.818,10.477,1.266q1.364-4.148,2.747-8.254-5.169-.557-10.3-1.037Q3940.324-18260.83,3938.867-18256.789Zm-161.8-3.047q-2.078,1.72-4.156,3.475,3.277-.448,6.579-.861c1.361-1.252,2.718-2.48,4.084-3.709Q3780.309-18260.4,3777.065-18259.836Zm151.068,1.891q5.113.513,10.272,1.1,1.457-4.034,2.927-8.016-5.069-.48-10.1-.881Q3929.676-18261.868,3928.133-18257.945ZM3757.448-18259c-.938.6-1.88,1.219-2.813,1.838q2.413-.536,4.836-1.033c.966-.7,1.952-1.4,2.918-2.086C3760.747-18259.859,3759.086-18259.432,3757.448-18259Zm28.323-2.281q-2.106,1.878-4.208,3.795c2.361-.285,4.741-.562,7.121-.818,1.39-1.361,2.775-2.705,4.175-4.041C3790.484-18262,3788.128-18261.65,3785.771-18261.279Zm131.766,2.334c3.342.289,6.707.609,10.077.947,1.033-2.619,2.056-5.2,3.1-7.783-3.332-.262-6.612-.5-9.915-.725Q3919.163-18262.75,3917.537-18258.945Zm-168.767.533c.062-.016.1-.029.162-.043a.372.372,0,0,1,.038-.023C3748.9-18258.455,3748.842-18258.432,3748.771-18258.412Zm46.083-4.213c-1.423,1.355-2.856,2.736-4.279,4.117q3.684-.393,7.4-.732,2.106-2.2,4.222-4.361C3799.728-18263.291,3797.3-18262.969,3794.854-18262.625Zm-28.747,1.422c-1.1.768-2.209,1.549-3.3,2.324q2.628-.53,5.265-1.033,1.664-1.286,3.323-2.547C3769.63-18262.049,3767.859-18261.631,3766.107-18261.2Zm140.967,1.41q4.92.363,9.887.795,1.621-3.806,3.256-7.545c-3.256-.215-6.507-.4-9.735-.572Q3908.769-18263.479,3907.074-18259.793Zm-103.062-4.031c-1.442,1.465-2.87,2.932-4.308,4.426,2.485-.223,4.989-.434,7.492-.629.052,0,.1,0,.152-.008q2.114-2.35,4.232-4.656C3809.053-18264.42,3806.521-18264.129,3804.012-18263.824Zm92.728,3.332c3.227.2,6.45.414,9.7.652q1.692-3.68,3.4-7.309c-3.2-.16-6.374-.3-9.549-.418Q3898.518-18264.06,3896.74-18260.492Zm-141.224-.139-1.157.672c1.062-.287,2.109-.566,3.175-.848l1.428-.914C3757.81-18261.359,3756.668-18261,3755.516-18260.631Zm57.722-4.242c-1.438,1.563-2.866,3.129-4.3,4.719q3.927-.293,7.887-.533,2.106-2.493,4.218-4.941C3818.431-18265.4,3815.827-18265.139,3813.238-18264.873Zm-38.424,1.629q-1.835,1.371-3.651,2.752c1.918-.354,3.832-.7,5.76-1.023q1.813-1.5,3.627-2.98C3778.626-18264.086,3776.722-18263.672,3774.813-18263.244Zm111.726,2.2c3.161.148,6.317.32,9.506.51q1.764-3.562,3.542-7.059c-3.123-.115-6.26-.209-9.358-.277Q3888.379-18264.48,3886.539-18261.041Zm-63.986-4.727c-1.423,1.643-2.861,3.322-4.28,4.994,2.694-.158,5.389-.291,8.107-.414q2.092-2.637,4.184-5.227C3827.88-18266.215,3825.214-18266,3822.553-18265.768Zm53.9,4.332q4.634.149,9.316.361,1.828-3.428,3.67-6.811-4.613-.1-9.178-.135C3878.994-18265.844,3877.719-18263.645,3876.457-18261.436Zm-44.512-5.078c-1.418,1.746-2.827,3.492-4.237,5.27,2.766-.115,5.531-.215,8.326-.3,1.376-1.852,2.751-3.68,4.132-5.5C3837.41-18266.887,3834.677-18266.709,3831.945-18266.514Zm38.462-1.5q-1.964,3.135-3.918,6.326,4.541.079,9.121.223c1.261-2.2,2.528-4.393,3.789-6.559q-1.887-.012-3.763-.012Q3873.017-18268.035,3870.407-18268.014Zm-28.985.9q-2.092,2.751-4.179,5.541c2.837-.076,5.674-.133,8.535-.166q2.028-2.912,4.065-5.779C3847.02-18267.4,3844.221-18267.268,3841.422-18267.115Zm19.226-.746c-1.338,2-2.685,4.031-4.018,6.064,2.961.014,5.945.043,8.93.09q1.949-3.176,3.894-6.3C3866.5-18267.98,3863.581-18267.934,3860.649-18267.861Zm-9.658.3q-2.056,2.88-4.1,5.809,4.348-.05,8.73-.043c1.328-2.033,2.656-4.041,3.989-6.041Q3855.279-18267.729,3850.99-18267.562Zm-67.418,2.434c-1.3,1.043-2.59,2.084-3.889,3.146q3.078-.516,6.179-1c1.276-1.127,2.561-2.256,3.837-3.369C3787.656-18265.953,3785.6-18265.543,3783.572-18265.129Zm-19.26,1.775q-1.092.677-2.18,1.361c1.395-.348,2.789-.7,4.194-1.037.771-.533,1.552-1.072,2.328-1.6Q3766.476-18264,3764.313-18263.354Zm199.489-.623c3.532.428,7.1.885,10.658,1.365q1.192-4.318,2.409-8.6-5.255-.606-10.463-1.137C3965.534-18269.576,3964.663-18266.775,3963.8-18263.977Zm-171.756-2.818c-1.328,1.152-2.666,2.318-3.989,3.484,2.275-.344,4.556-.666,6.845-.98,1.323-1.262,2.647-2.5,3.979-3.736C3796.586-18267.633,3794.321-18267.225,3792.045-18266.795Zm-19.155.967c-.952.637-1.88,1.26-2.827,1.908,1.571-.367,3.118-.725,4.7-1.076.952-.715,1.9-1.418,2.861-2.123C3776.046-18266.7,3774.457-18266.268,3772.89-18265.828Zm180.11.607q5.205.565,10.448,1.2,1.292-4.2,2.6-8.359-5.155-.521-10.263-.967C3954.852-18270.65,3953.929-18267.947,3953-18265.221Zm-152.006-3.17c-1.371,1.268-2.732,2.537-4.1,3.828q3.556-.472,7.131-.9,2.035-2.057,4.07-4.078C3805.717-18269.176,3803.355-18268.789,3800.994-18268.391Zm-37.838,3.633c.4-.123.795-.238,1.2-.361.081-.053.167-.105.248-.152C3764.117-18265.1,3763.641-18264.934,3763.156-18264.758Zm179.187-1.543q5.1.486,10.253,1.039,1.385-4.087,2.785-8.121c-3.37-.295-6.736-.562-10.077-.811C3944.313-18271.588,3943.323-18268.937,3942.343-18266.3Zm-132.328-3.537c-1.39,1.371-2.785,2.766-4.17,4.162q3.677-.431,7.393-.811,2.056-2.227,4.113-4.408C3814.9-18270.557,3812.447-18270.2,3810.015-18269.838Zm-28.532,1.705c-1.09.785-2.175,1.576-3.265,2.375,1.747-.381,3.518-.752,5.274-1.113,1.081-.867,2.176-1.732,3.256-2.59C3784.986-18269.023,3783.234-18268.586,3781.482-18268.133Zm150.35.9q5.005.407,10.053.885,1.471-3.961,2.956-7.883c-3.3-.238-6.607-.457-9.887-.646C3933.912-18272.346,3932.865-18269.789,3931.832-18267.229Zm-112.735-3.9c-1.4,1.48-2.8,2.965-4.2,4.469,2.542-.252,5.084-.49,7.645-.713,1.38-1.586,2.751-3.152,4.132-4.713C3824.138-18271.779,3821.606-18271.465,3819.1-18271.127Zm-47.973,3.613c-.457.275-.914.547-1.375.822,1.123-.318,2.223-.623,3.351-.937.538-.361,1.081-.719,1.618-1.076C3773.514-18268.309,3772.329-18267.918,3771.124-18267.514Zm150.331-.48c3.266.219,6.56.461,9.858.727q1.549-3.847,3.118-7.639-4.87-.278-9.7-.5Q3923.085-18271.726,3921.455-18267.994Zm-131.333-2.281c-1.195.924-2.385,1.848-3.57,2.785,1.909-.381,3.832-.752,5.75-1.109q1.757-1.506,3.523-2.994C3793.926-18271.17,3792.007-18270.723,3790.122-18270.275Zm38.134-1.994q-2.1,2.364-4.2,4.77,3.927-.328,7.878-.609,2.057-2.528,4.113-5.008Q3832.142-18272.716,3828.256-18272.27Zm82.936,3.656c3.208.166,6.441.361,9.677.58q1.628-3.727,3.265-7.393-4.784-.208-9.53-.348Q3912.891-18272.217,3911.192-18268.613Zm-73.7-4.646c-1.4,1.676-2.785,3.352-4.175,5.055.647-.047,1.3-.09,1.947-.127,2.047-.139,4.1-.258,6.16-.373q2.035-2.663,4.07-5.283C3842.817-18273.764,3840.156-18273.521,3837.5-18273.26Zm63.567,4.18q4.727.179,9.492.434,1.7-3.6,3.408-7.141-4.691-.135-9.349-.2Q3902.836-18272.562,3901.062-18269.08Zm-54.251-5.018c-1.375,1.756-2.751,3.537-4.122,5.326q4.135-.214,8.316-.375,2.006-2.807,4.018-5.564C3852.28-18274.525,3849.529-18274.32,3846.811-18274.1Zm-67.137,3.809q-1.164.75-2.318,1.5,1.992-.527,3.989-1.043c.8-.576,1.595-1.146,2.394-1.713C3782.382-18271.133,3781.021-18270.713,3779.674-18270.289Zm18.669-1.867c-1.238,1.033-2.466,2.076-3.7,3.129,2.176-.4,4.37-.781,6.56-1.152q1.849-1.693,3.7-3.371C3802.718-18273.1,3800.518-18272.637,3798.343-18272.156Zm96.393-3.893c-1.223,2.193-2.456,4.422-3.675,6.65q4.634.114,9.3.289,1.771-3.469,3.542-6.887c-2.76-.035-5.5-.053-8.24-.053Zm-38.524,1.256c-1.352,1.848-2.713,3.729-4.06,5.6q4.241-.149,8.521-.248,1.971-2.941,3.951-5.84C3861.8-18275.135,3859.011-18274.973,3856.212-18274.793Zm28.747-1.166c-1.261,2.109-2.528,4.246-3.789,6.393q4.534.044,9.111.148c1.214-2.223,2.442-4.441,3.661-6.631Q3889.429-18276.034,3884.959-18275.959Zm-19.255.629c-1.328,1.932-2.666,3.9-3.984,5.869,2.9-.062,5.8-.1,8.72-.119,1.285-2.057,2.571-4.084,3.865-6.107Q3869.986-18275.538,3865.7-18275.33Zm14.6,5.754q1.878-3.211,3.765-6.369c-2.932.053-5.874.129-8.792.225-1.3,2.033-2.594,4.07-3.889,6.131q1.666-.009,3.334-.008Q3877.508-18269.6,3880.308-18269.576Zm-73.14-4.436c-1.29,1.156-2.566,2.309-3.846,3.484,2.275-.377,4.565-.732,6.859-1.08,1.271-1.252,2.552-2.494,3.827-3.723C3811.724-18274.906,3809.439-18274.465,3807.168-18274.012Zm-18.983,1.143c-.976.68-1.957,1.365-2.932,2.051q2.342-.577,4.694-1.137,1.471-1.143,2.942-2.262C3791.312-18273.773,3789.751-18273.326,3788.185-18272.869Zm27.871-2.838c-1.323,1.268-2.627,2.527-3.946,3.814,2.375-.348,4.746-.682,7.135-1q1.949-2.042,3.9-4.055C3820.778-18276.549,3818.407-18276.135,3816.055-18275.707Zm-19.345.434c-1.123.838-2.228,1.672-3.346,2.518q2.621-.606,5.255-1.18c1.1-.914,2.2-1.818,3.308-2.723C3800.19-18276.207,3798.438-18275.744,3796.71-18275.273Zm170.223,1.252c3.461.352,6.926.732,10.415,1.133q1.192-4.178,2.409-8.311c-3.432-.324-6.826-.619-10.23-.895C3968.656-18279.424,3967.79-18276.725,3966.933-18274.021ZM3825-18277.248c-1.342,1.371-2.666,2.736-4,4.131,2.447-.318,4.931-.619,7.4-.9,1.3-1.467,2.623-2.928,3.937-4.369Q3828.646-18277.849,3825-18277.248Zm-38.6,2.707c-.271.168-.519.324-.785.49.976-.289,1.947-.574,2.927-.861.362-.246.723-.5,1.085-.746Q3788-18275.1,3786.4-18274.541Zm169.98-.484c3.38.295,6.8.623,10.206.971q1.285-4.063,2.594-8.068-5.034-.407-10.034-.732C3958.213-18280.266,3957.289-18277.648,3956.375-18275.025Zm-122.369-3.613c-1.347,1.471-2.68,2.941-4.018,4.436,2.532-.285,5.084-.551,7.635-.8q1.971-2.358,3.941-4.67C3839.042-18279.348,3836.515-18279,3834.006-18278.639Zm-29.346,1.281c-1.18.951-2.352,1.908-3.527,2.885,2.08-.443,4.151-.871,6.245-1.291,1.181-1.053,2.371-2.1,3.561-3.141C3808.839-18278.406,3806.74-18277.887,3804.66-18277.357Zm141.281,1.484q4.991.372,10.025.809c.914-2.617,1.837-5.23,2.761-7.82-3.3-.215-6.583-.4-9.863-.576C3947.888-18280.951,3946.907-18278.414,3945.941-18275.873Zm-102.853-4c-1.342,1.561-2.675,3.131-4.013,4.727,2.618-.252,5.231-.48,7.868-.7q1.964-2.5,3.922-4.965Q3846.968-18280.362,3843.088-18279.871Zm92.566,3.313c3.265.2,6.536.41,9.83.652.971-2.537,1.947-5.07,2.923-7.578-3.228-.162-6.469-.3-9.673-.414Q3937.185-18280.251,3935.655-18276.559Zm-83.407-4.4c-1.333,1.652-2.661,3.328-3.984,5.008q4.027-.313,8.088-.576,1.935-2.648,3.884-5.25C3857.569-18281.518,3854.894-18281.248,3852.247-18280.957Zm-57.369,3.537c-.609.4-1.228.818-1.833,1.229q1.935-.542,3.875-1.066.985-.735,1.98-1.467C3797.553-18278.295,3796.215-18277.863,3794.878-18277.42Zm18.493-2.057c-1.252,1.08-2.485,2.166-3.732,3.266,2.18-.424,4.379-.834,6.574-1.229,1.238-1.18,2.485-2.361,3.727-3.521C3817.736-18280.48,3815.561-18279.99,3813.371-18279.477Zm112.125,2.385c3.2.143,6.4.311,9.63.5q1.535-3.691,3.075-7.326c-3.17-.113-6.336-.2-9.478-.266Q3927.1-18280.665,3925.5-18277.092Zm-64.015-4.8q-1.971,2.622-3.937,5.289c2.766-.176,5.517-.328,8.3-.461q1.906-2.786,3.827-5.521C3866.942-18282.375,3864.2-18282.143,3861.482-18281.891Zm9.32-.779c-1.295,1.842-2.58,3.684-3.87,5.555q4.234-.2,8.5-.338,1.878-2.921,3.761-5.789C3876.39-18283.074,3873.582-18282.881,3870.8-18282.67Zm44.626,5.2q4.713.144,9.468.352c1.066-2.369,2.137-4.74,3.208-7.078q-4.677-.091-9.33-.113Q3917.1-18280.92,3915.428-18277.473Zm-35.22-5.83c-1.261,1.918-2.537,3.869-3.794,5.82q4.341-.135,8.706-.205,1.828-3.047,3.67-6.059Q3884.485-18283.553,3880.208-18283.3Zm28.775-.986c-1.156,2.176-2.323,4.385-3.475,6.588q4.62.079,9.278.209,1.671-3.434,3.346-6.826-1.377-.006-2.752-.006Q3912.173-18284.324,3908.983-18284.289Zm-19.279.5c-1.233,2.01-2.47,4.047-3.7,6.084,2.961-.047,5.917-.07,8.9-.076q1.785-3.176,3.575-6.316C3895.541-18284.008,3892.623-18283.908,3889.7-18283.785Zm9.592-.328q-1.8,3.144-3.594,6.336c3.009.006,6.055.023,9.087.066,1.157-2.209,2.309-4.393,3.465-6.572Q3903.757-18284.228,3899.3-18284.113Zm-77.167,2.676c-1.285,1.2-2.585,2.418-3.87,3.633,2.28-.406,4.57-.791,6.864-1.168,1.281-1.3,2.552-2.588,3.837-3.869Q3825.533-18282.162,3822.129-18281.437Zm-18.812,1.328q-1.264.905-2.523,1.828,2.285-.6,4.584-1.172c.862-.689,1.714-1.371,2.58-2.057C3806.4-18281.047,3804.864-18280.586,3803.317-18280.109Zm-6.94-.443c-.79.463-1.571.92-2.356,1.385.509-.166,1.014-.332,1.519-.494.681-.457,1.361-.9,2.047-1.357Zm34.554-2.68c-1.314,1.309-2.637,2.633-3.951,3.965,2.371-.375,4.746-.736,7.14-1.08q1.942-2.121,3.894-4.207Q3834.465-18283.922,3830.931-18283.232Zm-19.964.848c-.961.752-1.909,1.5-2.865,2.262,1.933-.473,3.884-.934,5.831-1.381q1.5-1.286,3-2.557C3814.932-18283.518,3812.952-18282.961,3810.967-18282.385Zm28.832-2.484c-1.333,1.408-2.67,2.846-4,4.279,2.452-.344,4.932-.676,7.393-.99,1.309-1.52,2.613-3.023,3.927-4.523Q3843.443-18285.509,3839.8-18284.869Zm-35.249,1.252c-.11.037-.224.08-.333.119q-1.664,1.049-3.323,2.123c.952-.295,1.9-.592,2.856-.881q1.528-1.1,3.056-2.176C3806.059-18284.166,3805.3-18283.895,3804.55-18283.617Zm44.179-2.738c-1.338,1.514-2.675,3.047-4.008,4.584,2.532-.309,5.084-.609,7.635-.885q1.956-2.435,3.918-4.826Q3852.49-18286.949,3848.729-18286.355Zm-29.146,1.572q-1.607,1.356-3.218,2.727c2.066-.467,4.127-.914,6.207-1.352,1.095-1.014,2.189-2.01,3.289-3Q3822.713-18285.618,3819.583-18284.783Zm38.143-2.9c-1.328,1.609-2.666,3.246-3.989,4.879,2.618-.275,5.222-.533,7.859-.775q1.942-2.584,3.894-5.123Q3861.591-18288.221,3857.726-18287.687Zm112.335,3.951q5.07.413,10.182.9,1.221-4.14,2.475-8.248c-3.356-.244-6.678-.463-10.006-.658C3971.822-18289.092,3970.937-18286.416,3970.061-18283.736Zm-157.89-2.576q-1.964,1.342-3.917,2.709c1.257-.371,2.523-.738,3.789-1.1q1.828-1.415,3.665-2.809Q3813.937-18286.92,3812.171-18286.312Zm54.628-2.551q-1.978,2.555-3.951,5.164,4.027-.363,8.078-.666c1.281-1.812,2.566-3.623,3.846-5.4C3872.111-18289.486,3869.445-18289.187,3866.8-18288.863Zm92.932,4.365c3.3.219,6.645.467,9.977.738q1.314-4.028,2.652-8c-3.275-.191-6.55-.357-9.806-.5Q3961.133-18288.406,3959.731-18284.5Zm-131.5-2.51c-1.161,1.043-2.309,2.086-3.465,3.143,2.171-.447,4.341-.881,6.526-1.295,1.157-1.146,2.328-2.289,3.484-3.418C3832.592-18288.068,3830.4-18287.545,3828.232-18287.008Zm47.716-2.885q-1.949,2.7-3.894,5.447c2.761-.205,5.508-.387,8.287-.549q1.892-2.862,3.784-5.684C3881.4-18290.434,3878.656-18290.172,3875.948-18289.893Zm73.559,4.789c3.251.168,6.531.363,9.811.576q1.4-3.9,2.818-7.754-4.841-.2-9.654-.338C3951.482-18290.125,3950.5-18287.635,3949.507-18285.1Zm-64.329-5.664q-1.913,2.836-3.818,5.717c2.827-.162,5.646-.3,8.492-.418,1.228-2,2.47-3.994,3.7-5.955C3890.747-18291.225,3887.967-18291.006,3885.178-18290.768Zm54.256,5.217q4.791.179,9.62.424,1.478-3.776,2.975-7.506-4.748-.129-9.463-.186C3941.519-18290.42,3940.472-18287.988,3939.434-18285.551Zm-44.941-5.939c-1.242,1.975-2.49,3.975-3.727,5.982,2.885-.119,5.788-.215,8.692-.291q1.807-3.132,3.613-6.221C3900.2-18291.863,3897.349-18291.691,3894.493-18291.49Zm-57.593,2.428c-1.209,1.16-2.423,2.346-3.627,3.527,2.271-.43,4.541-.838,6.831-1.238q1.807-1.907,3.618-3.785C3841.437-18290.078,3839.171-18289.578,3836.9-18289.062Zm-17.784.428q-2.035,1.535-4.075,3.094,2.685-.75,5.389-1.461c1.352-1.123,2.7-2.232,4.056-3.338C3822.7-18289.781,3820.9-18289.211,3819.116-18288.635Zm113.649-4.227c-1.1,2.322-2.19,4.654-3.275,7.016,3.118.066,6.269.162,9.411.271,1.038-2.428,2.08-4.855,3.127-7.25q-3.7-.038-7.38-.041Q3933.705-18292.865,3932.765-18292.861Zm-28.861.8q-1.821,3.091-3.632,6.246c2.956-.072,5.907-.125,8.882-.152q1.749-3.27,3.508-6.488Q3908.265-18292.293,3903.9-18292.062Zm19.093-.686c-1.133,2.242-2.261,4.484-3.389,6.76,3.07.02,6.169.063,9.263.129q1.621-3.527,3.261-7C3929.081-18292.848,3926.025-18292.811,3923-18292.748Zm-9.6.268q-1.764,3.226-3.518,6.5c3.013-.023,6.041-.033,9.077-.014q1.692-3.4,3.389-6.746C3919.36-18292.672,3916.366-18292.59,3913.4-18292.48Zm-101.929,4.488q-1.1.665-2.194,1.342c.467-.166.928-.324,1.4-.484.628-.434,1.257-.867,1.885-1.295Zm34.154-2.965q-1.871,1.919-3.737,3.879,3.542-.6,7.1-1.152c1.238-1.395,2.466-2.77,3.7-4.141Q3849.148-18291.694,3845.625-18290.957Zm-18.179-.287q-2.185,1.758-4.36,3.547,2.9-.741,5.817-1.457c1.428-1.275,2.866-2.541,4.3-3.793Q3830.317-18292.112,3827.447-18291.244Zm26.962-1.455q-1.906,2.1-3.8,4.221,3.67-.557,7.364-1.066c1.242-1.5,2.485-2.988,3.737-4.475C3859.273-18293.6,3856.826-18293.152,3854.408-18292.7Zm-35.2,1.67c-1.047.689-2.109,1.391-3.151,2.09.909-.295,1.823-.6,2.737-.885.957-.719,1.923-1.43,2.885-2.139Zm16.608-2.66c-1.514,1.3-3.028,2.631-4.536,3.959q3.085-.727,6.179-1.428,2.213-2.121,4.441-4.2C3839.861-18294.814,3837.838-18294.262,3835.815-18293.689Zm27.433-.592c-1.276,1.506-2.547,3.014-3.818,4.541.314-.041.624-.084.938-.123,2.208-.295,4.436-.576,6.664-.838q1.871-2.42,3.746-4.8Q3866.994-18294.914,3863.248-18294.281Zm8.911-1.428c-1.276,1.609-2.542,3.219-3.813,4.852q3.9-.457,7.826-.854,1.863-2.575,3.732-5.107C3877.309-18296.465,3874.734-18296.1,3872.159-18295.709Zm-46.545,2.295c-1.157.838-2.3,1.67-3.451,2.518,1.614-.5,3.223-.994,4.851-1.484q1.742-1.4,3.494-2.775C3828.87-18294.586,3827.247-18294,3825.614-18293.414Zm18.6-2.557q-2.321,2.15-4.632,4.342,3.242-.715,6.507-1.381,2.256-2.314,4.517-4.574C3848.477-18297.061,3846.335-18296.518,3844.217-18295.971Zm36.92-1.014c-1.257,1.7-2.532,3.432-3.784,5.156q4.006-.4,8.045-.734,1.849-2.728,3.7-5.412C3886.43-18297.664,3883.788-18297.332,3881.136-18296.984Zm92.1,3.67q4.955.3,9.949.672,1.271-4.128,2.551-8.217-4.905-.249-9.782-.418C3975.045-18298.637,3974.145-18295.994,3973.241-18293.314Zm-83.046-4.789q-1.878,2.707-3.741,5.451,4.113-.337,8.259-.609,1.821-2.886,3.646-5.717Q3894.26-18298.571,3890.195-18298.1Zm-56.346,1.795c-1.3,1.01-2.6,2.027-3.9,3.061q2.677-.785,5.365-1.533c1.285-1.107,2.585-2.217,3.875-3.307C3837.41-18297.508,3835.625-18296.912,3833.849-18296.309Zm65.486-2.766q-1.842,2.856-3.68,5.746,4.213-.272,8.468-.486c1.195-2.018,2.385-4.012,3.58-6.008C3904.894-18299.594,3902.119-18299.346,3899.334-18299.074Zm63.81,5.223q4.856.22,9.744.514,1.356-4,2.723-7.955c-3.2-.109-6.4-.2-9.577-.256Q3964.577-18297.723,3963.144-18293.852Zm-110.464-4.236q-2.342,2.326-4.67,4.688c2.256-.451,4.531-.889,6.8-1.312q2.264-2.487,4.541-4.922C3857.126-18299.137,3854.894-18298.617,3852.68-18298.088Zm55.875-1.8q-1.8,2.994-3.6,6.037,4.313-.208,8.663-.354,1.742-3.176,3.494-6.3Q3912.815-18300.229,3908.555-18299.889Zm44.574,5.656q4.784.144,9.6.361,1.435-3.87,2.88-7.687-4.741-.085-9.449-.109C3955.143-18299.213,3954.133-18296.723,3953.129-18294.232Zm-35.263-6.316q-1.764,3.135-3.508,6.32c2.937-.1,5.9-.166,8.864-.219q1.692-3.319,3.394-6.584C3923.683-18300.893,3920.774-18300.734,3917.866-18300.549Zm28.59-1.072q-1.592,3.557-3.17,7.16,4.684.07,9.4.213,1.507-3.732,3.028-7.42-.8,0-1.595,0C3951.552-18301.67,3949.007-18301.652,3946.455-18301.621Zm-120.689,6.369c-.447.281-.914.576-1.361.867q.614-.229,1.228-.443.621-.448,1.242-.891C3826.5-18295.561,3826.137-18295.408,3825.766-18295.252Zm101.5-5.807q-1.707,3.275-3.4,6.6c3.009-.047,6.017-.076,9.054-.076q1.635-3.454,3.28-6.869C3933.217-18301.311,3930.233-18301.2,3927.267-18301.059Zm9.592-.361c-1.1,2.275-2.208,4.578-3.3,6.887q4.577,0,9.187.063c1.057-2.4,2.1-4.77,3.166-7.141C3942.871-18301.572,3939.872-18301.506,3936.859-18301.42Zm-75.658,1.375q-2.335,2.479-4.665,5.012,3.527-.642,7.083-1.236,2.257-2.651,4.522-5.246C3865.823-18301.045,3863.5-18300.555,3861.2-18300.045Zm-19.1,1.018c-1.39,1.162-2.794,2.348-4.179,3.527q2.877-.785,5.774-1.531,2.057-1.9,4.118-3.771C3845.9-18300.221,3844-18299.631,3842.1-18299.027Zm-10.515,1.377c-.69.48-1.366.957-2.056,1.441,1.385-.48,2.761-.951,4.151-1.422.771-.6,1.538-1.182,2.309-1.771C3834.515-18298.826,3833.049-18298.246,3831.583-18297.65Zm38.2-4.2q-2.32,2.637-4.622,5.322c1.19-.2,2.39-.385,3.589-.576,1.252-.2,2.494-.385,3.746-.57q2.235-2.807,4.475-5.557C3874.567-18302.787,3872.178-18302.33,3869.788-18301.85Zm-19.426.281c-1.447,1.3-2.908,2.623-4.351,3.945,2.047-.518,4.089-1.018,6.15-1.508q2.128-2.115,4.26-4.189Q3853.387-18302.462,3850.362-18301.568Zm28.085-1.928q-2.285,2.777-4.555,5.617,3.777-.557,7.583-1.057c1.466-1.971,2.927-3.908,4.4-5.842C3883.383-18304.367,3880.917-18303.943,3878.447-18303.5Zm-38.6,2.6c-.947.709-1.9,1.438-2.851,2.156,1.6-.523,3.2-1.043,4.8-1.547.99-.824,1.971-1.633,2.961-2.441C3843.117-18302.125,3841.489-18301.516,3839.852-18300.893Zm47.325-4.1c-1.485,1.941-2.985,3.922-4.465,5.893,2.6-.334,5.2-.648,7.816-.947q2.149-3.085,4.3-6.117Q3890.99-18305.605,3887.177-18304.99Zm-28.5,1.047c-1.48,1.424-2.97,2.871-4.451,4.322q3.227-.75,6.479-1.461c1.447-1.539,2.885-3.057,4.336-4.566Q3861.851-18304.819,3858.678-18303.943Zm37.305-2.385c-1.452,2.033-2.908,4.094-4.351,6.164,2.67-.3,5.341-.576,8.035-.838q2.092-3.22,4.189-6.379Q3899.908-18306.889,3895.983-18306.328Zm8.887-1.186q-2.114,3.185-4.227,6.422,4.12-.387,8.259-.715c1.357-2.242,2.7-4.441,4.07-6.641Q3908.909-18308.011,3904.871-18307.514Zm-56.817,3.6c-1.119.906-2.232,1.811-3.346,2.729q2.642-.814,5.3-1.594,1.692-1.515,3.38-3Q3850.712-18304.867,3848.053-18303.916Zm-10.406,2.1c-.262.182-.533.363-.8.543,1.09-.418,2.171-.832,3.261-1.242.428-.318.862-.643,1.29-.957Q3839.521-18302.652,3837.647-18301.816Zm29.394-4.346c-1.495,1.543-2.994,3.109-4.484,4.68,2.252-.486,4.508-.947,6.774-1.4,1.457-1.656,2.9-3.293,4.36-4.916C3871.459-18307.266,3869.265-18306.723,3867.042-18306.162Zm46.8-2.375q-2.049,3.3-4.089,6.664,4.213-.328,8.459-.59,1.957-3.472,3.922-6.879C3919.365-18309.1,3916.595-18308.832,3913.844-18308.537Zm9.058-.875c-1.314,2.279-2.632,4.584-3.937,6.9q4.313-.255,8.659-.451,1.885-3.592,3.775-7.121C3928.562-18309.885,3925.72-18309.66,3922.9-18309.412Zm53.695,6.3c3.223.119,6.469.262,9.72.434q1.349-4.257,2.723-8.465-4.784-.149-9.525-.223Q3978.044-18307.271,3976.6-18303.115Zm-44.541-7.016c-1.261,2.355-2.528,4.744-3.78,7.135q4.413-.193,8.854-.314,1.807-3.706,3.618-7.354C3937.844-18310.508,3934.936-18310.332,3932.056-18310.131Zm37.8-1.311q-1.571,3.993-3.113,8.035,4.734.1,9.511.277,1.449-4.148,2.918-8.25c-2.863-.039-5.694-.062-8.53-.062Zm-94.384,3.223c-1.495,1.652-3,3.328-4.484,5.008q3.07-.592,6.16-1.16c.3-.053.6-.105.9-.162q2.171-2.643,4.346-5.246C3880.065-18309.27,3877.771-18308.756,3875.467-18308.219Zm65.961-2.484c-1.214,2.438-2.432,4.9-3.642,7.373q4.47-.12,8.968-.176c1.142-2.547,2.3-5.074,3.451-7.578Q3945.8-18310.926,3941.428-18310.7Zm18.779-.652c-1.095,2.586-2.194,5.2-3.28,7.82,3.113.016,6.25.059,9.382.119q1.542-4.04,3.108-8.025Q3964.8-18311.433,3960.207-18311.355Zm-9.439.248q-1.742,3.776-3.465,7.6,4.577-.05,9.182-.029,1.635-3.935,3.284-7.807C3956.761-18311.289,3953.752-18311.207,3950.768-18311.107Zm-94.537,4.365c-1.228,1.07-2.442,2.133-3.67,3.217q2.863-.82,5.741-1.607,1.82-1.752,3.646-3.477Q3859.085-18307.7,3856.231-18306.742Zm-10.177,1.271c-.7.5-1.4,1.018-2.1,1.527.152-.053.3-.109.457-.162q1.835-.671,3.679-1.324c.776-.623,1.557-1.246,2.328-1.859Q3848.234-18306.39,3846.054-18305.471Zm37.9-4.646c-1.485,1.762-2.961,3.527-4.441,5.322q3.649-.645,7.316-1.238,2.149-2.807,4.3-5.551Q3887.529-18310.878,3883.954-18310.117Zm-19.521.729c-1.3,1.209-2.58,2.412-3.875,3.641q3.049-.814,6.112-1.584,1.906-1.966,3.818-3.9C3868.46-18310.631,3866.451-18310.018,3864.433-18309.389Zm28.08-2.471c-1.457,1.852-2.927,3.736-4.375,5.617q3.77-.6,7.559-1.139,2.113-2.956,4.227-5.85Q3896.2-18312.574,3892.513-18311.859Zm-38.262,3.027c-.957.748-1.918,1.5-2.875,2.256,1.59-.547,3.175-1.08,4.774-1.613.985-.852,1.975-1.705,2.961-2.547C3857.483-18310.107,3855.874-18309.48,3854.251-18308.832Zm46.892-4.607c-1.437,1.951-2.856,3.9-4.289,5.893q3.891-.542,7.8-1.033,2.063-3.085,4.136-6.127C3906.237-18314.307,3903.671-18313.883,3901.143-18313.439Zm-28.475,1.57c-1.328,1.328-2.666,2.68-3.994,4.031q3.213-.791,6.445-1.547,1.956-2.156,3.913-4.279C3876.909-18313.084,3874.781-18312.482,3872.668-18311.869Zm37.177-3c-1.39,2.033-2.79,4.1-4.175,6.164,2.666-.322,5.35-.633,8.035-.918,1.342-2.156,2.675-4.279,4.022-6.4C3915.086-18315.658,3912.468-18315.277,3909.845-18314.873Zm-57.831,5.156c-.314.219-.638.447-.952.67,1.095-.447,2.18-.885,3.275-1.318.462-.357.919-.709,1.376-1.061C3854.484-18310.869,3853.237-18310.289,3852.014-18309.717Zm13.828-3.533q-1.749.642-3.494,1.291c-1.128.947-2.233,1.879-3.356,2.842q2.635-.858,5.289-1.676,1.685-1.564,3.375-3.109Q3866.749-18313.58,3865.842-18313.25Zm52.79-2.9q-2.035,3.185-4.051,6.426,4.106-.428,8.235-.8,1.942-3.357,3.9-6.65Q3922.659-18316.694,3918.632-18316.148Zm-37.681,1.961c-1.357,1.457-2.7,2.914-4.051,4.4q3.363-.771,6.745-1.49,1.978-2.335,3.96-4.641C3885.378-18315.354,3883.164-18314.777,3880.951-18314.187Zm46.545-3.08c-1.314,2.219-2.609,4.428-3.913,6.68q4.213-.372,8.449-.672,1.878-3.483,3.76-6.9Q3931.622-18317.749,3927.5-18317.268Zm8.958-.961q-1.892,3.434-3.77,6.922c2.87-.2,5.765-.381,8.654-.539q1.8-3.606,3.613-7.15Q3940.688-18318.645,3936.454-18318.229Zm-66.019,3.336c-1.219,1.1-2.451,2.219-3.665,3.338q2.856-.864,5.722-1.689,1.813-1.813,3.632-3.6Q3873.275-18315.886,3870.436-18314.893Zm18.855-1.447c-1.357,1.563-2.718,3.143-4.065,4.732.1-.023.209-.043.309-.066q3.349-.7,6.721-1.348,1.971-2.5,3.96-4.975C3893.894-18317.457,3891.6-18316.91,3889.291-18316.34Zm-28.937,2.834c-.719.537-1.457,1.094-2.171,1.641,1.361-.527,2.751-1.051,4.122-1.561.781-.652,1.566-1.3,2.347-1.951C3863.21-18314.764,3861.786-18314.145,3860.354-18313.506Zm85.307-5.547q-1.821,3.557-3.642,7.174c2.9-.152,5.822-.285,8.74-.395,1.152-2.49,2.3-4.941,3.466-7.393C3951.354-18319.48,3948.512-18319.281,3945.66-18319.053Zm9.13-.646q-1.742,3.668-3.475,7.406,4.47-.164,8.968-.252c1.095-2.566,2.195-5.1,3.3-7.631C3960.65-18320.037,3957.7-18319.881,3954.79-18319.7Zm28.118-1.006q-1.485,4.022-2.951,8.1,4.727.064,9.492.205,1.378-4.184,2.766-8.316-1.822-.015-3.635-.014Q3985.738-18320.732,3982.908-18320.705Zm-18.888.516q-1.664,3.782-3.3,7.635,4.57-.085,9.173-.105,1.556-3.955,3.132-7.857Q3968.507-18320.392,3964.02-18320.189Zm15.589,7.578q1.464-4.069,2.951-8.088c-3.037.033-6.074.086-9.087.166-1.057,2.609-2.1,5.227-3.146,7.873h1.138Q3975.523-18312.66,3979.61-18312.611Zm-81.917-5.723q-2.028,2.5-4.046,5.047,3.635-.694,7.293-1.324,1.963-2.669,3.932-5.289Q3901.272-18319.15,3897.692-18318.334Zm-19.155.7c-1.29,1.242-2.571,2.5-3.856,3.77q3.042-.855,6.093-1.67c1.261-1.357,2.532-2.7,3.8-4.031Q3881.546-18318.63,3878.537-18317.639Zm-10.106.662q-1.442,1.172-2.875,2.352c1.58-.576,3.175-1.143,4.77-1.7.981-.881,1.957-1.758,2.942-2.629Q3870.847-18317.98,3868.431-18316.977Zm37.724-3.189q-2,2.643-3.994,5.346,3.763-.65,7.545-1.232c1.29-1.881,2.58-3.738,3.875-5.59C3911.1-18321.17,3908.617-18320.676,3906.156-18320.166Zm-19.483-.053q-1.992,2.063-3.97,4.17c2.133-.562,4.284-1.109,6.431-1.637q1.942-2.235,3.889-4.422C3890.9-18321.5,3888.772-18320.861,3886.672-18320.219Zm28.018-1.627q-1.964,2.783-3.922,5.631c2.59-.4,5.2-.771,7.8-1.129q1.9-2.962,3.8-5.873C3919.8-18322.779,3917.242-18322.328,3914.691-18321.846Zm-38.248,1.637q-1.664,1.45-3.318,2.918c1.752-.6,3.518-1.2,5.279-1.771q1.656-1.6,3.313-3.174Q3879.075-18321.246,3876.443-18320.209Zm46.859-3.166c-1.276,1.951-2.556,3.928-3.827,5.908q3.991-.536,8.011-1,1.849-3.108,3.7-6.15C3928.557-18324.227,3925.91-18323.809,3923.3-18323.375Zm-57.112,5.547c-.062.041-.128.09-.19.133,1.019-.424,2.037-.852,3.056-1.271.257-.205.509-.41.766-.613C3868.6-18319,3867.4-18318.424,3866.189-18317.828Zm28.666-4.8q-2.021,2.25-4.027,4.537,1.521-.372,3.051-.729c1.228-.289,2.456-.57,3.694-.852q1.956-2.414,3.922-4.789C3899.277-18323.869,3897.054-18323.26,3894.855-18322.633Zm37.134-2.107c-1.247,2.047-2.48,4.1-3.722,6.174q4.106-.472,8.235-.887,1.792-3.234,3.594-6.416Q3936.026-18325.333,3931.989-18324.74Zm8.768-1.209c-1.2,2.123-2.4,4.273-3.594,6.436,2.8-.277,5.622-.533,8.445-.762q1.728-3.363,3.47-6.674Q3944.9-18326.486,3940.757-18325.949Zm-54.823,2.15c-.5.182-1.009.367-1.509.553-1.2,1.129-2.389,2.252-3.594,3.4,1.9-.613,3.8-1.2,5.717-1.789,1.181-1.229,2.361-2.441,3.546-3.652Q3888.01-18324.554,3885.935-18323.8Zm17.151-1.084q-2.021,2.411-4.032,4.879,3.506-.779,7.031-1.5,1.957-2.593,3.922-5.137Q3906.537-18325.789,3903.085-18324.883Zm46.735-2.148c-1.166,2.209-2.337,4.451-3.5,6.7q4.234-.337,8.506-.609,1.664-3.492,3.342-6.932C3955.371-18327.611,3952.6-18327.336,3949.821-18327.031Zm-75.41,5.3-1.552,1.219q1.985-.8,3.984-1.57c.614-.533,1.223-1.062,1.842-1.59C3877.257-18323.041,3875.833-18322.389,3874.41-18321.732Zm84.341-6.193q-1.685,3.448-3.351,6.945,4.355-.27,8.749-.471,1.592-3.621,3.2-7.184Q3963.035-18328.312,3958.751-18327.926Zm9.025-.742q-1.607,3.577-3.2,7.2,4.47-.2,8.968-.334,1.514-3.741,3.047-7.426Q3972.165-18328.987,3967.776-18328.668Zm-56.4,1.7q-2.006,2.569-4,5.2,3.635-.744,7.3-1.424c1.29-1.828,2.594-3.656,3.889-5.455C3916.162-18328.111,3913.758-18327.549,3911.378-18326.973Zm65.676-2.285q-1.535,3.7-3.061,7.445c3.009-.086,6.017-.143,9.049-.182q1.435-3.864,2.889-7.668C3982.951-18329.553,3980.01-18329.42,3977.053-18329.258Zm9.22-.424c-.966,2.541-1.933,5.111-2.889,7.688q4.62-.05,9.273-.029,1.349-3.984,2.723-7.916Q3990.81-18329.846,3986.274-18329.682Zm-93.856,3.584c-1.257,1.266-2.5,2.533-3.756,3.822,2.028-.609,4.051-1.2,6.093-1.775,1.233-1.375,2.456-2.727,3.689-4.074C3896.426-18327.463,3894.427-18326.793,3892.418-18326.1Zm-10.011.775c-.795.672-1.575,1.334-2.37,2.01q2.328-.879,4.665-1.732c.833-.781,1.671-1.562,2.509-2.328C3885.6-18326.7,3884.011-18326.021,3882.407-18325.322Zm37.324-3.584q-1.978,2.728-3.946,5.508,3.777-.691,7.573-1.324,1.914-2.9,3.832-5.764Q3923.449-18329.73,3919.732-18328.906Zm-43.279,3.832c-.785.539-1.566,1.076-2.352,1.619.5-.229,1-.463,1.514-.691.657-.508,1.319-1.023,1.98-1.527Zm24-3.7q-1.928,2.086-3.851,4.2,3.213-.894,6.436-1.738,1.878-2.247,3.765-4.459C3904.671-18330.119,3902.562-18329.463,3900.448-18328.777Zm27.714-1.9c-1.3,1.924-2.58,3.846-3.87,5.8q3.884-.636,7.792-1.213,1.871-3.059,3.751-6.061C3933.26-18331.682,3930.718-18331.2,3928.162-18330.682Zm-37.853,2.018c-.966.871-1.923,1.748-2.885,2.629,1.728-.615,3.47-1.225,5.2-1.818.98-.986,1.956-1.957,2.942-2.928Q3892.935-18329.738,3890.309-18328.664Zm46.35-3.637c-1.261,2.01-2.523,4.047-3.775,6.09,2.67-.391,5.346-.752,8.03-1.1q1.821-3.2,3.656-6.346Q3940.6-18333.006,3936.659-18332.3Zm-52.981,3.51c-1.152.852-2.28,1.7-3.423,2.561q1.478-.65,2.97-1.295c1.042-.875,2.085-1.738,3.137-2.6C3885.463-18329.682,3884.573-18329.238,3883.678-18328.791Zm24.843-2.5c-1.3,1.5-2.6,3.037-3.894,4.564q3.363-.87,6.75-1.68,1.892-2.435,3.794-4.822C3912.944-18332.6,3910.735-18331.957,3908.521-18331.291Zm36.715-2.471c-1.228,2.109-2.442,4.223-3.66,6.365q4.113-.521,8.254-.977c1.171-2.223,2.356-4.432,3.537-6.621C3950.639-18334.6,3947.94-18334.2,3945.237-18333.762Zm8.911-1.342q-1.792,3.3-3.575,6.65,4.127-.451,8.287-.824,1.7-3.478,3.418-6.893Q3958.194-18335.669,3954.148-18335.1Zm-55.965,3.3q-1.607,1.57-3.213,3.16c1.885-.633,3.765-1.246,5.66-1.852,1.071-1.162,2.147-2.309,3.223-3.451C3901.953-18333.242,3900.067-18332.533,3898.182-18331.8Zm18.46-1.832c-1.3,1.617-2.594,3.246-3.889,4.9q3.506-.835,7.04-1.613c1.257-1.729,2.523-3.457,3.784-5.16Q3920.1-18334.6,3916.642-18333.637Zm-25.662,1.275c-1.328,1.066-2.671,2.15-3.994,3.236,1.3-.547,2.613-1.09,3.918-1.619q1.871-1.685,3.751-3.346C3893.432-18333.523,3892.2-18332.943,3890.98-18332.361Zm71.888-3.885q-1.721,3.428-3.432,6.912,4.255-.378,8.544-.7,1.635-3.606,3.28-7.154C3968.457-18336.9,3965.653-18336.58,3962.868-18336.246Zm8.821-.984c-1.1,2.379-2.19,4.754-3.284,7.168q4.363-.313,8.768-.557,1.564-3.735,3.137-7.416C3977.434-18337.793,3974.54-18337.521,3971.689-18337.23Zm-46.868,1.4q-1.935,2.59-3.856,5.221c2.432-.523,4.889-1.037,7.335-1.523,1.257-1.852,2.494-3.67,3.756-5.488C3929.633-18337.041,3927.229-18336.445,3924.82-18335.826Zm55.97-2.248c-1.062,2.461-2.109,4.932-3.156,7.432q4.391-.237,8.825-.406,1.478-3.861,2.98-7.672C3986.55-18338.531,3983.656-18338.316,3980.79-18338.074Zm9-.67c-.995,2.537-2,5.111-2.985,7.682q4.513-.164,9.059-.256c.933-2.656,1.875-5.3,2.818-7.926Q3994.216-18339.03,3989.787-18338.744Zm-83.712,3.988c-1.142,1.189-2.294,2.408-3.427,3.617,2.014-.633,4.027-1.246,6.055-1.846,1.128-1.314,2.271-2.619,3.4-3.908C3910.083-18336.2,3908.079-18335.484,3906.075-18334.756Zm-7.726-1.023q-2.164,1.869-4.313,3.779,2.3-.92,4.622-1.8,2.042-1.983,4.089-3.926C3901.272-18337.088,3899.815-18336.441,3898.349-18335.779Zm-8.073,2.2c-.671.477-1.319.938-1.985,1.418l1.395-.666c.566-.457,1.128-.91,1.695-1.361C3891.014-18333.99,3890.642-18333.785,3890.276-18333.58Zm42.789-4.275c-1.261,1.818-2.537,3.68-3.794,5.531,2.509-.494,5.041-.971,7.569-1.422,1.223-1.943,2.461-3.885,3.694-5.8C3938.039-18339,3935.54-18338.441,3933.065-18337.855Zm-19.079.314q-1.778,2.007-3.556,4.041c.067-.018.133-.037.2-.057q3.1-.9,6.217-1.762c1.171-1.455,2.337-2.895,3.513-4.326C3918.218-18338.959,3916.109-18338.26,3913.986-18337.541Zm27.39-2.186c-1.242,1.924-2.485,3.875-3.718,5.832q3.9-.691,7.821-1.318,1.8-3.079,3.613-6.1C3946.512-18340.807,3943.937-18340.273,3941.376-18339.727Zm-35.6.691c-1.5,1.395-2.989,2.8-4.484,4.232,1.723-.648,3.456-1.281,5.184-1.9q2.135-2.229,4.28-4.414Q3908.255-18340.093,3905.775-18339.035Zm-8.373,1.627q-1.557,1.2-3.113,2.424,1.449-.671,2.894-1.318,1.435-1.251,2.88-2.48Q3898.728-18338.1,3897.4-18337.408Zm52.362-4.031c-1.214,2.027-2.418,4.061-3.622,6.121,2.68-.418,5.355-.818,8.054-1.2q1.749-3.22,3.518-6.389C3955.057-18342.443,3952.4-18341.953,3949.763-18341.439Zm-27.823,1.291c-1.209,1.461-2.418,2.941-3.623,4.426q3.363-.914,6.745-1.771,1.778-2.376,3.561-4.711Q3925.275-18341.206,3921.94-18340.148Zm36.591-2.9q-1.785,3.185-3.556,6.422c2.67-.367,5.365-.715,8.054-1.037,1.128-2.242,2.271-4.475,3.408-6.68C3963.792-18343.934,3961.164-18343.506,3958.532-18343.049Zm-45.26.9q-2.285,2.3-4.555,4.643,2.813-.993,5.65-1.947,2.178-2.449,4.365-4.842C3916.9-18343.586,3915.091-18342.873,3913.272-18342.145Zm53.775-2.293c-1.142,2.213-2.29,4.455-3.427,6.7q4.141-.492,8.325-.918,1.635-3.507,3.289-6.959C3972.5-18345.248,3969.761-18344.852,3967.048-18344.437Zm-37.1,1.842c-1.223,1.584-2.432,3.174-3.646,4.789q3.52-.888,7.074-1.709c1.19-1.715,2.38-3.395,3.575-5.08Q3933.441-18343.623,3929.952-18342.6Zm-25.362,1.523c-1.238,1.027-2.48,2.074-3.713,3.127,1.29-.566,2.585-1.129,3.88-1.676q1.749-1.644,3.5-3.256Q3906.417-18341.983,3904.59-18341.072Zm71.069-4.6q-1.649,3.457-3.289,6.975,4.263-.428,8.563-.785,1.571-3.65,3.156-7.236C3981.276-18346.395,3978.448-18346.047,3975.659-18345.672Zm8.93-1.1q-1.592,3.6-3.175,7.25c2.856-.234,5.712-.443,8.592-.629q1.5-3.776,3.013-7.506C3990.192-18347.389,3987.4-18347.1,3984.589-18346.775Zm-46.573,1.895c-1.214,1.7-2.418,3.4-3.627,5.127,2.428-.557,4.879-1.1,7.326-1.619q1.771-2.728,3.551-5.416Q3941.624-18345.869,3938.015-18344.881Zm-12.7-1.871q-2.249.82-4.479,1.662-2.292,2.476-4.57,5.008c.909-.3,1.814-.6,2.723-.891q1.664-.536,3.337-1.057,2.192-2.643,4.389-5.227C3926.244-18347.09,3925.777-18346.918,3925.311-18346.752Zm68.056-.941c-1.014,2.494-2.013,4.992-3.013,7.516q4.4-.278,8.84-.486c.942-2.6,1.9-5.2,2.861-7.773C3999.141-18348.213,3996.256-18347.965,3993.366-18347.693Zm-81.537,3.107q-2.028,1.828-4.046,3.689,2.3-.958,4.608-1.881,1.928-1.948,3.86-3.855Q3914.039-18345.619,3911.83-18344.586Zm-7.973,2.3-1.642,1.223c.438-.219.871-.437,1.309-.652q.721-.606,1.442-1.2C3904.594-18342.7,3904.228-18342.492,3903.857-18342.281Zm42.284-4.727c-1.195,1.8-2.395,3.627-3.584,5.459,2.528-.533,5.055-1.037,7.6-1.527,1.166-1.928,2.333-3.848,3.5-5.742Q3949.887-18347.945,3946.141-18347.008Zm-17.684-.871c-1.519,1.76-3.032,3.551-4.536,5.35q3.206-.984,6.431-1.928,2.178-2.821,4.365-5.58Q3931.582-18348.985,3928.457-18347.879Zm25.881-1.1q-1.764,2.856-3.518,5.77,3.913-.744,7.849-1.418,1.714-3.05,3.437-6.061Q3958.208-18349.863,3954.338-18348.975Zm-35.192,1.033q-2.121,2.057-4.232,4.16c1.723-.682,3.451-1.342,5.184-1.994q2.028-2.206,4.061-4.361C3922.483-18349.418,3920.817-18348.684,3919.146-18347.941Zm-8.278,1.732c-.933.752-1.88,1.518-2.813,2.275q1.428-.686,2.861-1.361,1.314-1.187,2.637-2.361Q3912.211-18346.941,3910.868-18346.209Zm52.1-4.65c-1.161,2.008-2.328,4.051-3.479,6.1q3.891-.656,7.816-1.252c1.114-2.143,2.223-4.26,3.351-6.369Q3966.8-18351.653,3962.973-18350.859Zm-26.823.348c-1.49,1.865-2.985,3.766-4.465,5.674q3.391-.979,6.8-1.895c1.428-1.984,2.875-3.965,4.308-5.912Q3939.46-18351.61,3936.149-18350.512Zm35.135-1.99q-1.692,3.17-3.37,6.393,4.041-.6,8.1-1.137,1.621-3.363,3.246-6.664Q3975.257-18353.239,3971.284-18352.5Zm-44.764,1.361c-1.447,1.514-2.88,3.033-4.322,4.58l2.018-.744c1.038-.375,2.071-.746,3.113-1.113.176-.066.357-.133.538-.2q2.078-2.42,4.165-4.8Q3929.269-18352.3,3926.52-18351.141Zm-8.583,1.166c-1.147,1-2.3,2.01-3.441,3.018,1.285-.59,2.585-1.18,3.875-1.756q1.642-1.591,3.284-3.17C3920.412-18351.25,3919.175-18350.617,3917.937-18349.975Zm25.976-3.018c-1.457,1.971-2.918,3.971-4.365,5.979q3.527-.943,7.078-1.818,2.1-3.141,4.213-6.217Q3947.369-18354.056,3943.913-18352.992Zm35.772-.99c-1.085,2.2-2.171,4.441-3.246,6.678q4.163-.542,8.354-1.014,1.564-3.5,3.132-6.959C3985.179-18354.873,3982.413-18354.439,3979.686-18353.982Zm8.768-1.371q-1.585,3.463-3.156,6.979,4.163-.457,8.359-.852,1.485-3.642,3-7.24Q3992.543-18355.945,3988.454-18355.354Zm-36.706.043c-1.414,2.061-2.842,4.16-4.251,6.264q3.677-.9,7.373-1.736,2.049-3.284,4.108-6.512Q3955.352-18356.34,3951.749-18355.311Zm-17.789,1.129c-1.457,1.637-2.9,3.283-4.346,4.959,2.023-.7,4.061-1.395,6.1-2.066,1.4-1.75,2.789-3.479,4.194-5.2C3937.92-18355.734,3935.93-18354.963,3933.96-18354.182Zm63.053-2.334q-1.514,3.6-3.009,7.26,4.3-.4,8.621-.719,1.428-3.791,2.866-7.525C4002.654-18357.2,3999.826-18356.867,3997.013-18356.516Zm-71.945,2.934c-1.266,1.18-2.537,2.385-3.8,3.594,1.538-.672,3.084-1.328,4.627-1.98,1.214-1.271,2.437-2.543,3.656-3.789C3928.052-18355.043,3926.563-18354.32,3925.068-18353.582Zm-7.84,2.375c-.452.348-.914.709-1.366,1.061.424-.223.852-.447,1.276-.666.419-.361.833-.723,1.247-1.08Zm42.432-6.27q-2.064,3.249-4.113,6.545c2.542-.57,5.084-1.113,7.645-1.637q1.985-3.434,3.979-6.8C3964.658-18358.756,3962.159-18358.133,3959.66-18357.477Zm-15.547-.566q-1.328.486-2.651.977c-1.442,1.746-2.885,3.527-4.318,5.307,2.161-.7,4.341-1.389,6.517-2.057q2.092-2.812,4.184-5.564C3946.6-18358.943,3945.356-18358.494,3944.113-18358.043Zm23.977-1.547q-2.021,3.393-4.027,6.846,3.77-.765,7.573-1.467,1.913-3.562,3.841-7.068C3973.012-18360.736,3970.537-18360.17,3968.09-18359.59Zm-35.83,2.551c-1.338,1.354-2.666,2.709-4,4.09q2.606-1.078,5.222-2.109,1.928-2.177,3.865-4.312Q3934.793-18358.22,3932.26-18357.039Zm-8.154,1.818q-1.285,1.072-2.566,2.156c.957-.48,1.914-.955,2.875-1.432.819-.768,1.633-1.529,2.456-2.285Q3925.487-18356.011,3924.106-18355.221Zm24.929-4.574q-2.135,2.786-4.256,5.637,3.406-1.028,6.826-2,2.056-2.979,4.122-5.893Q3952.372-18360.956,3949.035-18359.795Zm27.085-1.623c-1.29,2.338-2.58,4.713-3.861,7.1,2.613-.48,5.246-.934,7.878-1.361q1.842-3.706,3.694-7.336Q3979.962-18362.253,3976.121-18361.418Zm8.13-1.68c-1.238,2.422-2.471,4.879-3.694,7.344q4.063-.656,8.159-1.242,1.749-3.826,3.527-7.588Q3988.23-18363.875,3984.251-18363.1Zm-44.746,2.766c-1.366,1.494-2.732,2.994-4.094,4.518l.233-.092c1.823-.709,3.66-1.4,5.493-2.084q1.985-2.405,3.975-4.76Q3942.3-18361.566,3939.505-18360.332Zm-8.449,1.242c-1.076.971-2.142,1.947-3.213,2.932,1.3-.623,2.609-1.242,3.913-1.852,1.038-1.047,2.075-2.09,3.113-3.117C3933.593-18360.457,3932.327-18359.775,3931.056-18359.09Zm25.619-3.275q-2.092,2.941-4.165,5.945,3.563-1,7.15-1.937,2.013-3.141,4.037-6.217Q3960.177-18363.5,3956.675-18362.365Zm36.125-2.312q-1.792,3.768-3.556,7.605c2.7-.381,5.4-.736,8.121-1.07q1.664-3.949,3.356-7.84Q3996.744-18365.361,3992.8-18364.678Zm8.283-1.357c-1.133,2.6-2.247,5.2-3.365,7.846q4.184-.51,8.406-.947,1.578-4.072,3.185-8.078Q4005.181-18366.667,4001.083-18366.035Zm-36.691,1.252c-1.357,2.066-2.7,4.141-4.051,6.246,2.475-.639,4.951-1.258,7.445-1.857q1.964-3.29,3.937-6.516Q3968.045-18365.882,3964.392-18364.783Zm-17.57,1.314c-1.376,1.613-2.756,3.26-4.127,4.906.176-.061.352-.127.529-.189q2.834-1.034,5.684-2.018,2.006-2.622,4.018-5.18Q3949.868-18364.742,3946.822-18363.469Zm-8.763.676c-1.195,1.16-2.394,2.346-3.584,3.531q2.342-1.063,4.684-2.1c1.166-1.266,2.323-2.518,3.489-3.76C3941.114-18364.355,3939.586-18363.584,3938.058-18362.793Zm-7.735,2.484c-.381.3-.742.6-1.119.9.443-.244.881-.482,1.328-.725l1.095-.99Zm42.375-6.873q-2.006,3.249-3.994,6.568,3.649-.864,7.326-1.666c1.271-2.3,2.537-4.555,3.818-6.812C3977.448-18368.473,3975.078-18367.844,3972.7-18367.182Zm-18.493.729q-2.057,2.6-4.108,5.273c2.18-.748,4.36-1.477,6.56-2.186q1.992-2.8,4-5.545C3958.494-18368.111,3956.352-18367.291,3954.2-18366.453Zm-9.087.113c-1.271,1.332-2.528,2.676-3.789,4.037.866-.377,1.742-.748,2.613-1.119.895-.375,1.79-.752,2.689-1.123,1.233-1.447,2.466-2.875,3.7-4.3C3948.593-18368.025,3946.85-18367.187,3945.118-18366.34Zm-8.026,1.9c-.79.686-1.566,1.365-2.352,2.057.985-.514,1.966-1.023,2.951-1.533q1.15-1.122,2.309-2.236C3939.029-18365.582,3938.053-18365.008,3937.092-18364.436Zm43.427-4.826q-1.928,3.384-3.841,6.84c2.547-.547,5.089-1.076,7.654-1.576q1.835-3.583,3.684-7.092Q3984.253-18370.211,3980.519-18369.262Zm-17.95-.348c-.3.109-.609.219-.914.332-1.361,1.857-2.7,3.719-4.056,5.607q3.449-1.1,6.917-2.141c1.314-1.986,2.628-3.941,3.951-5.895Q3965.51-18370.683,3962.568-18369.609Zm25.867-1.576q-1.849,3.521-3.684,7.1,3.963-.771,7.954-1.471,1.757-3.721,3.537-7.363Q3992.322-18372.089,3988.435-18371.186Zm-36.191,1.451c-1.3,1.477-2.609,2.98-3.9,4.484q2.927-1.192,5.874-2.336c1.276-1.615,2.542-3.189,3.823-4.771C3956.109-18371.5,3954.167-18370.623,3952.244-18369.734Zm-8.335,1.338c-1,.943-2.013,1.9-3.013,2.861,1.338-.676,2.671-1.332,4.013-1.984q1.478-1.559,2.966-3.1Q3945.882-18369.514,3943.908-18368.4Zm52.919-4.646c-1.2,2.453-2.38,4.9-3.565,7.389q3.927-.686,7.883-1.295c1.118-2.561,2.247-5.107,3.38-7.621C4001.944-18374.084,3999.388-18373.574,3996.827-18373.043Zm-27.652,1.1c-1.333,1.961-2.652,3.932-3.97,5.932,2.4-.715,4.822-1.41,7.24-2.08q1.935-3.144,3.875-6.217Q3972.736-18373.164,3969.176-18371.947Zm35.715-2.693q-1.707,3.791-3.385,7.635c2.713-.414,5.45-.809,8.188-1.176q1.6-3.979,3.218-7.883Q4008.885-18375.394,4004.891-18374.641Zm-45.455,1.67c-1.314,1.609-2.633,3.252-3.941,4.889q3.127-1.2,6.274-2.348,1.921-2.613,3.856-5.178C3963.558-18374.75,3961.488-18373.865,3959.436-18372.971Zm17.927-1.676c-1.314,2.07-2.633,4.17-3.937,6.283,2.352-.646,4.7-1.266,7.073-1.865q1.878-3.3,3.78-6.535C3981.961-18376.078,3979.667-18375.375,3977.363-18374.646Zm-26.586,2.447c-1.128,1.152-2.266,2.318-3.389,3.484q2.392-1.143,4.8-2.252,1.671-1.893,3.346-3.756Q3953.153-18373.48,3950.777-18372.2Zm-7.6,2.57q-.478.4-.957.8c.486-.281.976-.557,1.461-.834.347-.322.686-.643,1.033-.965C3944.208-18370.295,3943.689-18369.963,3943.18-18369.629Zm41.794-7.34c-1.276,2.176-2.537,4.35-3.808,6.568,2.466-.623,4.951-1.219,7.435-1.8q1.521-2.871,3.047-5.693c.2-.381.414-.762.619-1.139C3989.834-18378.369,3987.388-18377.678,3984.974-18376.969Zm-18.289.924q-1.963,2.6-3.922,5.254,3.32-1.2,6.674-2.332,1.921-2.812,3.851-5.564Q3969.975-18377.4,3966.686-18376.045Zm-8.973.2c-1.2,1.324-2.413,2.666-3.608,4.008,1.823-.824,3.661-1.637,5.5-2.432,1.18-1.443,2.385-2.895,3.575-4.312Q3960.436-18377.24,3957.713-18375.846Zm-7.9,2c-.733.666-1.461,1.328-2.194,2,1.038-.566,2.066-1.123,3.1-1.68q1.107-1.128,2.223-2.242C3951.891-18375.131,3950.858-18374.5,3949.811-18373.846Zm42.87-5.3c-1.223,2.256-2.451,4.555-3.665,6.85q3.855-.885,7.754-1.7,1.757-3.592,3.537-7.121Q3996.48-18380.17,3992.681-18379.145Zm-12.062-2.3c-2.2.8-4.417,1.633-6.6,2.48-1.295,1.848-2.594,3.727-3.88,5.607,2.333-.789,4.689-1.557,7.04-2.3q1.892-2.991,3.8-5.916C3980.862-18381.533,3980.743-18381.492,3980.619-18381.449Zm20.307.178q-1.8,3.548-3.57,7.148,3.806-.791,7.645-1.514,1.685-3.727,3.394-7.4C4005.9-18382.477,4003.4-18381.881,4000.926-18381.271Zm-36.211,1.936c-1.252,1.48-2.48,2.957-3.722,4.467q2.963-1.271,5.96-2.49,1.835-2.414,3.68-4.779C3968.647-18381.221,3966.686-18380.291,3964.715-18379.336Zm-8.225,1.434c-.957.938-1.9,1.875-2.856,2.828,1.39-.729,2.79-1.453,4.184-2.162q1.435-1.57,2.875-3.117Q3958.586-18379.146,3956.49-18377.9Zm52.276-5.217q-1.707,3.677-3.4,7.416,3.977-.741,7.983-1.414,1.607-3.87,3.242-7.674C4013.969-18384.262,4011.369-18383.705,4008.766-18383.119Zm-26.666,1.137c-1.3,1.986-2.585,3.971-3.88,5.994q3.391-1.058,6.817-2.057,1.856-3.164,3.737-6.26C3986.536-18383.553,3984.322-18382.781,3982.1-18381.982Zm-10.325-.686q-1.885,2.423-3.765,4.881c2.133-.863,4.275-1.7,6.421-2.523q1.856-2.628,3.727-5.2Q3974.952-18384.128,3971.774-18382.668Zm17.727-1.879c-1.261,2.074-2.518,4.18-3.77,6.3,2.395-.7,4.793-1.361,7.207-2.014q1.813-3.313,3.646-6.578Q3993.029-18385.729,3989.5-18384.547Zm-26.266,2.746c-1.076,1.143-2.166,2.3-3.237,3.471.148-.076.3-.152.448-.225q2.3-1.148,4.6-2.252,1.628-1.919,3.266-3.807C3966.61-18383.691,3964.929-18382.758,3963.235-18381.8Zm-7.459,2.652c-.3.262-.59.518-.89.775l1.709-1.01c.348-.342.7-.689,1.057-1.033C3957.028-18380,3956.4-18379.572,3955.776-18379.148Zm41.223-7.822c-1.223,2.186-2.437,4.375-3.646,6.6q3.756-1,7.554-1.937c.138-.275.276-.551.414-.822q1.549-3.059,3.118-6.064C4001.954-18388.484,3999.464-18387.736,3997-18386.971Zm-18.093,1.129c-1.257,1.736-2.5,3.484-3.756,5.26q3.406-1.292,6.826-2.514,1.856-2.827,3.722-5.6C3983.423-18387.766,3981.166-18386.818,3978.905-18385.842Zm-16.642,2.385q-1.057,1-2.1,2c1.114-.643,2.233-1.275,3.346-1.9.738-.779,1.48-1.551,2.218-2.322C3964.563-18384.937,3963.42-18384.209,3962.264-18383.457Zm7.783-2.09q-1.735,1.983-3.461,4.008,2.8-1.327,5.617-2.6,1.728-2.2,3.465-4.355Q3972.848-18387.048,3970.047-18385.547Zm35.049-3.842c-1.195,2.289-2.39,4.6-3.57,6.926,2.456-.6,4.932-1.18,7.407-1.732q.985-2.106,1.975-4.189c.476-1,.952-2,1.428-2.988Q4008.709-18390.418,4005.1-18389.389Zm-18.189.205c-1.271,1.875-2.547,3.779-3.808,5.688q3.263-1.148,6.545-2.242c1.223-2.008,2.447-3.988,3.68-5.963Q3990.1-18390.474,3986.907-18389.184Zm25.814-2.295q-1.721,3.571-3.418,7.2,3.87-.858,7.773-1.643,1.292-3.006,2.6-5.965c.224-.5.447-1.01.666-1.51C4017.8-18392.783,4015.244-18392.141,4012.721-18391.479Zm-35.806,2.342c-1.2,1.486-2.385,2.971-3.575,4.48q3.063-1.38,6.15-2.7,1.785-2.44,3.58-4.836Q3979.979-18390.7,3976.916-18389.137Zm-8.1,1.523c-.923.947-1.842,1.891-2.761,2.852.862-.477,1.723-.941,2.585-1.408q.964-.516,1.923-1.029c.957-1.08,1.9-2.15,2.861-3.223Q3971.12-18389.036,3968.818-18387.613Zm29.522-5.959c-1.418.514-2.837,1.043-4.246,1.576q-1.871,2.977-3.723,6.016c2.323-.766,4.641-1.5,6.983-2.223q1.8-3.185,3.618-6.316Q3999.652-18394.048,3998.341-18393.572Zm-14.485,1c-1.209,1.613-2.423,3.256-3.622,4.9,2.189-.928,4.4-1.838,6.612-2.723q1.807-2.663,3.622-5.27Q3987.155-18394.156,3983.856-18392.568Zm-15.78,3.723c-.3.275-.595.543-.9.818.7-.434,1.385-.861,2.085-1.289.39-.4.781-.791,1.171-1.191C3969.651-18389.955,3968.861-18389.4,3968.076-18388.846Zm7.364-2.77q-1.578,1.74-3.142,3.508c1.738-.91,3.47-1.795,5.217-2.676q1.6-1.957,3.208-3.889Q3978.074-18393.172,3975.44-18391.615Zm25.938-3.047c-1.214,2.094-2.413,4.2-3.618,6.33q3.67-1.119,7.364-2.17,1.749-3.349,3.522-6.641Q4005-18395.944,4001.378-18394.662Zm7.959-2.709c-1.19,2.2-2.38,4.441-3.561,6.684,2.385-.672,4.765-1.318,7.169-1.947q1.692-3.5,3.413-6.949Q4012.838-18398.515,4009.337-18397.371Zm-17.551,1.109q-1.871,2.663-3.727,5.383,3.12-1.233,6.264-2.412,1.8-2.865,3.618-5.676Q3994.857-18397.646,3991.786-18396.262Zm-17.341,3c-.695.68-1.385,1.365-2.08,2.061q1.892-1.137,3.789-2.242c.766-.838,1.528-1.67,2.3-2.5Q3976.439-18394.619,3974.445-18393.258Zm7.669-2.2q-1.678,2.013-3.356,4.055,2.921-1.45,5.86-2.846c1.133-1.5,2.271-2.984,3.408-4.451C3986.05-18397.643,3984.075-18396.557,3982.114-18395.457Zm34.63-4.246c-1.147,2.309-2.285,4.627-3.418,6.973,2.5-.652,5.031-1.275,7.559-1.875q1.628-3.656,3.289-7.264C4021.68-18401.17,4019.214-18400.451,4016.744-18399.7Zm-17.989.391c-1.223,1.895-2.452,3.807-3.665,5.734.785-.295,1.571-.58,2.361-.871,1.457-.527,2.927-1.051,4.394-1.564q1.778-3.05,3.584-6.047Q4002.08-18400.725,3998.755-18399.312Zm-17.879,1.789c-.9.967-1.814,1.947-2.713,2.922,1.571-.9,3.156-1.793,4.741-2.67.952-1.133,1.9-2.246,2.865-3.361Q3983.313-18399.1,3980.876-18397.523Zm7.983-1.623c-1.157,1.494-2.318,3.014-3.465,4.531,2.118-1,4.256-1.98,6.393-2.932,1.166-1.666,2.333-3.309,3.513-4.941Q3992.065-18400.854,3988.859-18399.146Zm16.97-3.076c-1.195,2-2.4,4.033-3.584,6.07q3.57-1.242,7.169-2.408,1.749-3.229,3.513-6.4C4010.546-18404.074,4008.19-18403.164,4005.829-18402.223Zm-25.7,3.471c-.343.318-.686.648-1.023.971q1.349-.885,2.708-1.746c.481-.51.957-1.01,1.438-1.514Q3981.688-18399.913,3980.129-18398.752Zm7.235-2.869c-1.033,1.189-2.056,2.379-3.08,3.588q2.756-1.515,5.531-2.965c1.062-1.357,2.133-2.709,3.2-4.041Q3990.177-18403.363,3987.364-18401.621Zm9.387-1.6c-1.223,1.68-2.432,3.371-3.646,5.084q2.97-1.312,5.965-2.57c1.176-1.809,2.366-3.6,3.551-5.385Q3999.679-18404.679,3996.751-18403.217Zm18.845-2.727c-.647.232-1.29.471-1.937.709-1.19,2.127-2.375,4.283-3.551,6.449,2.294-.742,4.608-1.457,6.921-2.152q1.7-3.39,3.423-6.734Q4018.017-18406.822,4015.6-18405.943Zm-12.1-.559q-1.813,2.707-3.613,5.461,3.249-1.356,6.521-2.643,1.764-2.921,3.551-5.793Q4006.714-18408.026,4003.5-18406.5Zm17.346-1.3c-1.152,2.236-2.29,4.479-3.427,6.754q3.663-1.093,7.359-2.113,1.642-3.557,3.313-7.055Q4024.453-18409.056,4020.842-18407.8Zm-34.469,4.525q-1.071,1.107-2.142,2.219l.681-.424q1.714-1.078,3.441-2.123c.8-.914,1.609-1.828,2.414-2.732Q3988.561-18404.825,3986.374-18403.279Zm7.545-2.289c-1.1,1.371-2.19,2.746-3.284,4.141q3.07-1.6,6.16-3.131c1.123-1.543,2.256-3.086,3.389-4.6C3998.089-18407.986,3995.994-18406.787,3993.919-18405.568Zm16.437-4.084c-1.19,1.924-2.375,3.855-3.556,5.813q3.477-1.356,6.978-2.646,1.742-3.105,3.5-6.164C4014.959-18411.676,4012.659-18410.68,4010.355-18409.652Zm-17.689,2.018q-1.371,1.529-2.732,3.07c1.7-1.023,3.427-2.037,5.146-3.031q1.471-1.813,2.951-3.6C3996.232-18410.023,3994.452-18408.844,3992.667-18407.635Zm9.135-2.428c-1.19,1.586-2.375,3.176-3.556,4.789q2.814-1.377,5.641-2.7,1.735-2.563,3.48-5.094C4005.5-18412.08,4003.653-18411.086,4001.8-18410.062Zm16.261-2.918q-1.785,3.085-3.551,6.227c.043-.014.086-.033.128-.047q3.263-1.187,6.555-2.309,1.707-3.293,3.427-6.521Q4021.33-18414.339,4018.062-18412.98Zm-26.128,4.094q-.636.63-1.271,1.268c.771-.529,1.538-1.049,2.313-1.566.3-.2.59-.4.89-.6q.871-.964,1.752-1.914C3994.38-18410.762,3993.167-18409.838,3991.934-18408.887Zm7.1-2.955q-1.535,1.857-3.066,3.736c1.961-1.123,3.927-2.232,5.907-3.312q1.614-2.15,3.246-4.262Q4002.063-18413.8,3999.031-18411.842Zm9.287-1.729q-1.785,2.572-3.556,5.189,3.127-1.45,6.279-2.832c1.166-1.867,2.333-3.709,3.508-5.541Q4011.422-18415.2,4008.318-18413.57Zm16.7-2.219q-1.728,3.249-3.437,6.541,3.563-1.207,7.155-2.342,1.657-3.463,3.342-6.863C4029.71-18417.588,4027.368-18416.707,4025.021-18415.789Zm-26.985,2.291c-.757.809-1.528,1.646-2.285,2.471,1.552-1.02,3.1-2.023,4.66-3.014q1.321-1.564,2.642-3.1Q4000.533-18415.346,3998.036-18413.5Zm16.917-3.457q-1.771,2.757-3.518,5.564,3.378-1.477,6.783-2.885,1.742-3,3.494-5.939Q4018.322-18418.63,4014.954-18416.955Zm-7.992.148c-1.157,1.48-2.318,2.994-3.466,4.508,1.752-.953,3.513-1.881,5.279-2.8q1.7-2.429,3.408-4.818C4010.441-18418.9,4008.694-18417.859,4006.962-18416.807Zm15.594-3.8q-1.792,2.977-3.551,6.012,3.2-1.312,6.431-2.561,1.707-3.179,3.437-6.312Q4025.7-18422.075,4022.556-18420.605Zm-18.346,2.643c-.938,1.084-1.885,2.2-2.818,3.3q2.8-1.764,5.627-3.465,1.549-1.978,3.1-3.928Q4007.152-18420.046,4004.21-18417.963Zm-5.979,3.051c.4-.295.809-.6,1.214-.885.186-.2.366-.387.547-.582C3999.407-18415.893,3998.817-18415.4,3998.231-18414.912Zm15-5.613c-1.171,1.629-2.347,3.285-3.508,4.941q3-1.541,6.022-3.018,1.735-2.678,3.484-5.307Q4016.215-18422.253,4013.231-18420.525Zm16.056-3.121q-1.742,3.141-3.451,6.34,3.463-1.327,6.955-2.58,1.671-3.363,3.365-6.678C4033.852-18425.617,4031.572-18424.646,4029.287-18423.646Zm-25.829,4.441q-.814.835-1.618,1.68,1.978-1.415,3.97-2.795c.733-.842,1.466-1.67,2.2-2.5C4006.49-18421.633,4004.972-18420.424,4003.458-18419.205Zm16.185-4.932c-1.171,1.756-2.342,3.551-3.5,5.34q3.278-1.6,6.588-3.123,1.742-2.9,3.494-5.74C4024.017-18426.514,4021.832-18425.342,4019.643-18424.137Zm-7.369.643q-1.714,2.112-3.413,4.264,2.428-1.441,4.875-2.836c1.114-1.543,2.223-3.057,3.346-4.57Q4014.668-18425.1,4012.274-18423.494Zm-2.828-.439c-.838.934-1.676,1.881-2.5,2.828q2.635-1.813,5.288-3.57c.981-1.2,1.957-2.4,2.942-3.588Q4012.3-18426.137,4009.446-18423.934Zm17.694-4.2c-1.19,1.918-2.385,3.869-3.565,5.826q3.07-1.4,6.174-2.746,1.721-3.094,3.46-6.137Q4030.167-18429.7,4027.14-18428.131Zm-8.878.742c-1.171,1.561-2.323,3.133-3.484,4.727q2.863-1.62,5.741-3.18,1.728-2.578,3.475-5.107C4022.07-18429.783,4020.166-18428.6,4018.262-18427.389Zm-9.335,2.637-.428.43c.148-.111.3-.225.438-.34.776-.6,1.552-1.189,2.333-1.779.49-.543.976-1.07,1.466-1.609C4011.46-18426.961,4010.2-18425.865,4008.927-18424.752Zm24.71-6.645q-1.749,3.056-3.48,6.168,3.363-1.447,6.755-2.822,1.692-3.284,3.4-6.512C4038.083-18433.533,4035.851-18432.477,4033.637-18431.4Zm-9.211.18c-1.166,1.7-2.342,3.428-3.5,5.152q3.177-1.714,6.388-3.357,1.749-2.812,3.518-5.574Q4027.614-18433.145,4024.427-18431.217Zm-6.64,1.039c-1.142,1.352-2.271,2.709-3.4,4.088,1.457-.947,2.913-1.875,4.375-2.8,1.1-1.465,2.2-2.908,3.308-4.35C4020.637-18432.234,4019.2-18431.211,4017.786-18430.178Zm-3.051.434c-.685.742-1.385,1.5-2.071,2.246q2.413-1.808,4.846-3.57,1.378-1.635,2.761-3.246C4018.415-18432.811,4016.577-18431.3,4014.735-18429.744Zm8.692-4.447q-1.749,2.265-3.494,4.57,2.706-1.685,5.427-3.309,1.742-2.5,3.489-4.955Q4026.128-18436.071,4023.427-18434.191Zm8.411-1.381q-1.807,2.821-3.6,5.684c1.961-.994,3.922-1.965,5.9-2.918q1.735-3.021,3.5-5.992C4035.689-18437.742,4033.771-18436.672,4031.838-18435.572Zm-8.187-1.441c-1.176,1.342-2.356,2.709-3.527,4.074,1.238-.881,2.485-1.746,3.727-2.6,1.1-1.418,2.2-2.812,3.313-4.2C4025.988-18438.842,4024.822-18437.937,4023.651-18437.014Zm14.438-2.027q-1.771,2.982-3.527,6.031,3.263-1.564,6.555-3.057,1.714-3.22,3.456-6.393Q4041.316-18440.789,4038.088-18439.041Zm-8.768.842c-1.176,1.652-2.361,3.332-3.532,5.012q3.077-1.825,6.183-3.584c1.185-1.832,2.371-3.656,3.565-5.455Q4032.416-18440.255,4029.32-18438.2Zm-9.216,2.779c-.49.51-.995,1.033-1.485,1.553q2.078-1.7,4.175-3.355,1.307-1.494,2.618-2.967Q4022.749-18437.84,4020.1-18435.42Zm8.7-5.578c-1.2,1.5-2.395,3-3.589,4.518q2.514-1.714,5.055-3.381,1.771-2.455,3.561-4.873Q4031.307-18442.892,4028.8-18441Zm7.864-1.937q-1.849,2.771-3.685,5.6,2.8-1.57,5.612-3.074,1.778-2.971,3.565-5.893Q4039.4-18444.649,4036.665-18442.936Zm-6.336-1.51q-2.085,2.265-4.151,4.576c.928-.715,1.871-1.434,2.8-2.139,1.147-1.418,2.29-2.812,3.446-4.207C4031.724-18445.625,4031.029-18445.039,4030.329-18444.445Zm4.032-.68c-1.214,1.643-2.423,3.289-3.627,4.961q2.97-1.937,5.96-3.8,1.828-2.728,3.67-5.412C4038.36-18447.99,4036.351-18446.568,4034.361-18445.125Zm8.287-1.471q-1.813,2.941-3.6,5.945c2.109-1.123,4.218-2.219,6.345-3.295q1.756-3.176,3.537-6.307C4046.823-18449.057,4044.733-18447.844,4042.648-18446.6Zm-16.665,5.213c.762-.668,1.528-1.328,2.29-1.986.733-.8,1.461-1.6,2.2-2.395Q4028.216-18443.6,4025.983-18441.383Zm8.549-6.574c-1.309,1.557-2.618,3.131-3.913,4.723q2.292-1.714,4.6-3.371c1.247-1.666,2.5-3.322,3.756-4.951C4037.489-18450.371,4036.008-18449.176,4034.532-18447.957Zm7.121-2.318c-1.285,1.855-2.556,3.717-3.827,5.607q2.635-1.629,5.293-3.2,1.835-2.956,3.68-5.865C4045.071-18452.594,4043.367-18451.447,4041.654-18450.275Zm-2.042-1.785c-1.295,1.676-2.575,3.361-3.856,5.074q2.856-2.048,5.726-4.014c1.281-1.855,2.571-3.684,3.865-5.5C4043.42-18455.041,4041.52-18453.574,4039.612-18452.061Zm-6.436,4.551c.357-.295.709-.586,1.071-.881q.943-1.122,1.89-2.232C4035.151-18449.6,4034.156-18448.553,4033.176-18447.51Zm14.161-6.574q-1.878,2.936-3.727,5.932,3.049-1.8,6.131-3.518,1.813-3.17,3.656-6.289Q4050.355-18456.058,4047.337-18454.084Zm-6.3-1.428c-1.575,1.785-3.132,3.584-4.689,5.412,1.309-1.061,2.613-2.1,3.932-3.137q2.049-2.634,4.118-5.217C4043.267-18457.479,4042.158-18456.506,4041.035-18455.512Zm5.831-2.133q-2.049,2.851-4.089,5.76c1.637-1.109,3.289-2.209,4.941-3.285q1.921-3,3.865-5.936C4050-18459.967,4048.437-18458.814,4046.866-18457.645Zm-1.656-1.508c-1.442,1.789-2.875,3.588-4.3,5.42,1.8-1.408,3.618-2.8,5.431-4.16q2.1-2.906,4.213-5.754C4048.76-18462.176,4046.985-18460.676,4045.209-18459.152Zm-1.976,1.328c.714-.619,1.423-1.234,2.137-1.848.314-.387.633-.781.947-1.162C4045.29-18459.844,4044.257-18458.834,4043.234-18457.824Zm9.182-7.346q-2.285,3.035-4.546,6.141c1.495-1.105,3-2.2,4.508-3.275,1.381-2.076,2.775-4.137,4.17-6.164C4055.168-18467.389,4053.787-18466.283,4052.416-18465.17Zm-4.922,3.2c-.438.533-.876,1.066-1.309,1.6q2.528-2.15,5.079-4.236c.757-1.014,1.519-2.023,2.275-3.023Q4050.5-18464.841,4047.494-18461.967Zm8.468-7.85c-.943,1.219-1.89,2.457-2.828,3.693q1.978-1.591,3.965-3.15,1.414-2.042,2.832-4.055C4058.609-18472.178,4057.276-18471,4055.963-18469.816Zm-3.375,1.752-.876,1.033c1.5-1.391,3.023-2.766,4.536-4.117q1.207-1.559,2.423-3.09Q4055.615-18471.2,4052.588-18468.064Zm9.62-9.635c-1.181,1.447-2.352,2.918-3.522,4.395,1.066-.934,2.123-1.848,3.194-2.762q1.564-2.177,3.132-4.312Q4063.605-18479.052,4062.208-18477.7Zm-4.256,3.471c1.1-1.09,2.19-2.166,3.294-3.236.509-.629,1.014-1.252,1.523-1.871s1.014-1.238,1.523-1.857Q4061.1-18477.766,4057.952-18474.229Zm6.84-6.631c.624-.586,1.242-1.166,1.866-1.748q1.635-2.191,3.28-4.346Q4067.354-18483.953,4064.793-18480.859Zm-8.725,18.432c-.352.586-.7,1.17-1.057,1.758C4055.362-18461.258,4055.715-18461.846,4056.067-18462.428ZM4526.222-18514h6.339c39.846,4.139,77.788,9.039,113.608,13.9v.654C4608.461-18504.564,4568.377-18509.729,4526.222-18514Zm84.026,0h3.5q16.436,2.845,32.422,5.781v.605Q4628.5-18510.848,4610.248-18514Z" transform="translate(-3460.89 18514.5)" fill="#009c73" stroke="rgba(0,0,0,0)" stroke-miterlimit="10" stroke-width="1" opacity="0.15"/>
</svg>
