<svg width="64" height="65" viewBox="0 0 64 65" fill="none" xmlns="http://www.w3.org/2000/svg">
<path d="M56.687 33.697H41.479V10.1921C41.479 8.92105 41.2287 7.6625 40.7423 6.48825C40.2559 5.314 39.543 4.24705 38.6442 3.34832C37.7455 2.44959 36.6786 1.73667 35.5043 1.25028C34.3301 0.763892 33.0715 0.51355 31.8005 0.51355C30.5295 0.51355 29.2709 0.763892 28.0967 1.25028C26.9224 1.73667 25.8555 2.44959 24.9568 3.34832C24.058 4.24705 23.3451 5.314 22.8587 6.48825C22.3723 7.6625 22.122 8.92105 22.122 10.1921V33.6921H6.913C5.07865 33.6942 3.32017 34.4244 2.02393 35.7223C0.727693 37.0203 -0.000266194 38.7797 7.30189e-08 40.614V51.6711C0.000264944 52.0378 0.146058 52.3894 0.405364 52.6487C0.664669 52.908 1.01629 53.0538 1.383 53.0541H5.53V59.967C5.53159 61.0666 5.96915 62.1206 6.74674 62.898C7.52432 63.6754 8.57846 64.1127 9.678 64.114H53.922C55.0217 64.1127 56.076 63.6753 56.8536 62.8977C57.6312 62.1201 58.0687 61.0658 58.07 59.966V53.0531H62.218C62.5845 53.0531 62.936 52.9074 63.1952 52.6483C63.4544 52.3891 63.6 52.0376 63.6 51.6711V40.614C63.5989 38.7806 62.8704 37.0224 61.5743 35.7256C60.2782 34.4287 58.5205 33.6992 56.687 33.697ZM31.8 3.27905C33.6328 3.28117 35.3899 4.01018 36.6859 5.30616C37.9819 6.60214 38.7109 8.35926 38.713 10.1921V14.4921C37.814 13.5686 36.7391 12.8347 35.5518 12.3335C34.3645 11.8324 33.0888 11.5742 31.8 11.5742C30.5112 11.5742 29.2355 11.8324 28.0482 12.3335C26.8609 12.8347 25.786 13.5686 24.887 14.4921V10.1921C24.8891 8.35926 25.6181 6.60214 26.9141 5.30616C28.2101 4.01018 29.9672 3.28117 31.8 3.27905ZM55.3 59.967C55.2997 60.3338 55.1539 60.6854 54.8946 60.9447C54.6353 61.204 54.2837 61.3498 53.917 61.35H9.678C9.31224 61.3482 8.96205 61.2017 8.70388 60.9426C8.44571 60.6835 8.30052 60.3328 8.3 59.967V53.0531H55.3V59.967ZM2.765 50.288V44.758H31.8C31.9847 44.763 32.1685 44.7309 32.3406 44.6637C32.5126 44.5964 32.6695 44.4954 32.8019 44.3665C32.9343 44.2377 33.0395 44.0836 33.1113 43.9134C33.1832 43.7432 33.2202 43.5603 33.2202 43.3755C33.2202 43.1908 33.1832 43.0079 33.1113 42.8377C33.0395 42.6675 32.9343 42.5134 32.8019 42.3846C32.6695 42.2557 32.5126 42.1547 32.3406 42.0874C32.1685 42.0202 31.9847 41.9881 31.8 41.993H2.765V40.614C2.76632 39.5143 3.20377 38.46 3.98138 37.6824C4.759 36.9048 5.81329 36.4674 6.913 36.466H23.5C23.8667 36.4658 24.2183 36.32 24.4776 36.0607C24.7369 35.8014 24.8827 35.4498 24.883 35.083V21.253C24.883 19.4196 25.6113 17.6613 26.9078 16.3648C28.2042 15.0684 29.9626 14.3401 31.796 14.3401C33.6294 14.3401 35.3878 15.0684 36.6842 16.3648C37.9807 17.6613 38.709 19.4196 38.709 21.253V35.079C38.7089 35.2614 38.7448 35.4419 38.8148 35.6103C38.8847 35.7787 38.9873 35.9316 39.1166 36.0601C39.2459 36.1887 39.3994 36.2904 39.5681 36.3594C39.7369 36.4283 39.9177 36.4632 40.1 36.4621H56.687C57.7874 36.4634 58.8423 36.9014 59.62 37.6798C60.3978 38.4583 60.8347 39.5136 60.835 40.614V41.9971H48.392C48.2073 41.9921 48.0235 42.0242 47.8514 42.0914C47.6794 42.1587 47.5225 42.2597 47.3901 42.3886C47.2577 42.5174 47.1525 42.6715 47.0807 42.8417C47.0088 43.0119 46.9718 43.1948 46.9718 43.3796C46.9718 43.5643 47.0088 43.7472 47.0807 43.9174C47.1525 44.0876 47.2577 44.2417 47.3901 44.3705C47.5225 44.4994 47.6794 44.6004 47.8514 44.6677C48.0235 44.7349 48.2073 44.767 48.392 44.7621H60.835V50.292L2.765 50.288Z" fill="#B1B1B1"/>
<path d="M39.57 42.1021C39.401 42.1689 39.2462 42.2673 39.114 42.3921C38.8566 42.6539 38.7123 43.0064 38.7123 43.3736C38.7123 43.7407 38.8566 44.0932 39.114 44.3551C39.2485 44.4769 39.4027 44.5749 39.57 44.6451C39.736 44.7163 39.9144 44.7541 40.095 44.7561C40.1879 44.7537 40.2805 44.7443 40.372 44.7281C40.4584 44.713 40.542 44.685 40.62 44.6451C40.7082 44.615 40.7919 44.5733 40.869 44.5211C40.938 44.4661 41.009 44.4101 41.076 44.3551C41.1978 44.2206 41.2959 44.0664 41.366 43.8991C41.4373 43.7331 41.475 43.5547 41.477 43.3741C41.4793 43.1464 41.4247 42.9218 41.3183 42.7205C41.2119 42.5192 41.0569 42.3477 40.8675 42.2214C40.678 42.0951 40.4601 42.018 40.2334 41.9972C40.0066 41.9764 39.7783 42.0124 39.569 42.1021H39.57Z" fill="#009C73"/>
</svg>
