<svg width="64" height="64" viewBox="0 0 64 64" fill="none" xmlns="http://www.w3.org/2000/svg">
<path d="M63.517 31.794C63.517 56.343 36.686 71.712 15.517 59.083C15.2843 58.9351 15.1185 58.7023 15.0548 58.434C14.9911 58.1658 15.0345 57.8833 15.1758 57.6466C15.3171 57.4099 15.5451 57.2376 15.8114 57.1663C16.0777 57.095 16.3613 57.1304 16.602 57.265C36.251 68.986 61.402 54.765 61.402 31.794C61.393 23.936 58.2672 16.4025 52.7105 10.8463C47.1538 5.29019 39.6199 2.16519 31.762 2.15699C6.98796 2.15699 -6.75304 30.865 8.49796 50.157C8.66349 50.378 8.73617 50.6548 8.70052 50.9286C8.66487 51.2024 8.5237 51.4514 8.30711 51.6227C8.09051 51.7939 7.81561 51.8737 7.54099 51.8452C7.26638 51.8167 7.01375 51.6821 6.83696 51.47C2.01249 45.3659 -0.401228 37.7021 0.0545207 29.935C0.510269 22.1679 3.80372 14.839 9.30896 9.34099C29.381 -10.731 63.517 3.75799 63.517 31.794ZM48.907 14.14C33.395 -0.927014 7.15296 10.063 7.15296 31.794C7.15344 35.3779 7.93662 38.9184 9.44774 42.1682C10.9589 45.4179 13.1615 48.2984 15.9016 50.6084C18.6418 52.9183 21.8533 54.602 25.3119 55.5416C28.7704 56.4813 32.3924 56.6543 35.9247 56.0486C39.457 55.4429 42.8145 54.073 45.7623 52.0348C48.7102 49.9965 51.1774 47.3391 52.9914 44.2482C54.8054 41.1573 55.9225 37.7075 56.2646 34.14C56.6067 30.5725 56.1655 26.9733 54.972 23.594C54.8782 23.3294 54.6833 23.1128 54.43 22.9918C54.1766 22.8709 53.8857 22.8555 53.621 22.949C51.783 23.599 54.254 25.261 54.254 31.795C54.2144 37.7344 51.8272 43.417 47.6133 47.6029C43.3994 51.7888 37.701 54.138 31.7615 54.138C25.8219 54.138 20.1235 51.7888 15.9096 47.6029C11.6958 43.417 9.30856 37.7344 9.26896 31.795C9.26896 11.914 33.269 1.90699 47.432 15.659C47.635 15.8462 47.9031 15.9468 48.1791 15.9392C48.4552 15.9316 48.7174 15.8165 48.9098 15.6183C49.1022 15.4202 49.2095 15.1548 49.209 14.8786C49.2085 14.6024 49.1001 14.3374 48.907 14.14ZM18.334 20.627C8.90396 31.955 16.99 49.259 31.762 49.259C34.3294 49.2591 36.8653 48.6933 39.1892 47.6017C41.5131 46.5102 43.5677 44.9197 45.2069 42.9437C46.846 40.9676 48.0294 38.6544 48.6728 36.1689C49.3161 33.6833 49.4036 31.0865 48.9291 28.5633C48.4545 26.0401 47.4295 23.6525 45.9271 21.5706C44.4246 19.4886 42.4817 17.7635 40.2366 16.518C37.9915 15.2725 35.4994 14.5372 32.9378 14.3645C30.3761 14.1919 27.8079 14.586 25.416 15.519C25.1628 15.6269 24.9616 15.8292 24.855 16.0829C24.7484 16.3367 24.7447 16.622 24.8448 16.8783C24.9449 17.1347 25.1409 17.342 25.3913 17.4564C25.6416 17.5708 25.9266 17.5832 26.186 17.491C29.6663 16.1319 33.5229 16.0889 37.0328 17.3698C40.5426 18.6508 43.4648 21.1679 45.2516 24.4493C47.0384 27.7307 47.5671 31.5511 46.7386 35.1944C45.9101 38.8377 43.7813 42.0537 40.7513 44.2398C37.7212 46.4258 33.9979 47.4317 30.2792 47.0689C26.5605 46.7061 23.1019 44.9996 20.5514 42.2691C18.001 39.5387 16.5339 35.9718 16.4252 32.2371C16.3165 28.5023 17.5737 24.8562 19.961 21.982C20.129 21.765 20.2063 21.4913 20.1765 21.2184C20.1467 20.9456 20.0122 20.695 19.8012 20.5194C19.5902 20.3439 19.3194 20.2571 19.0457 20.2773C18.7719 20.2976 18.5168 20.4233 18.334 20.628V20.627Z" fill="#B1B1B1"/>
<path d="M43.288 27.988C42.004 24.035 37.326 26.241 36.325 24.212C35.142 21.821 34.488 19.615 31.762 19.615C29.036 19.615 28.378 21.828 27.202 24.215C26.732 25.168 26.002 25.077 23.215 25.481C22.5346 25.5805 21.8955 25.8682 21.37 26.3116C20.8445 26.7551 20.4534 27.3366 20.2409 27.9906C20.0284 28.6446 20.003 29.3449 20.1676 30.0126C20.3321 30.6802 20.68 31.2886 21.172 31.769C23.219 33.764 23.83 34.104 23.653 35.137C23.202 37.766 22.436 39.937 24.64 41.537C28.029 43.999 30.464 39.431 32.493 40.499L35.002 41.815C35.2505 41.9456 35.5407 41.9722 35.8088 41.8888C36.0769 41.8054 36.3009 41.619 36.4315 41.3705C36.5621 41.122 36.5886 40.8318 36.5053 40.5637C36.4219 40.2956 36.2355 40.0716 35.987 39.941L33.478 38.623C30.096 36.845 27.842 41.245 25.885 39.823C24.87 39.086 25.277 38.191 25.74 35.494C26.386 31.726 21.508 30.936 22.253 28.643C22.641 27.449 23.621 27.56 26.325 27.167C28.682 26.825 29.216 24.917 30.355 22.608C30.4842 22.3449 30.6845 22.1232 30.9333 21.9682C31.1821 21.8132 31.4694 21.7311 31.7625 21.7311C32.0556 21.7311 32.3429 21.8132 32.5916 21.9682C32.8404 22.1232 33.0408 22.3449 33.17 22.608C34.311 24.921 34.846 26.825 37.2 27.167C39.894 27.558 40.883 27.445 41.272 28.643C41.661 29.841 40.803 30.323 38.845 32.231C37.284 33.752 37.351 36.643 39.007 36.358C39.144 36.3345 39.275 36.2843 39.3925 36.2102C39.5101 36.136 39.6119 36.0395 39.6921 35.926C39.7724 35.8125 39.8295 35.6843 39.8602 35.5488C39.8908 35.4132 39.8945 35.273 39.871 35.136C39.505 32.999 44.544 31.86 43.288 27.988Z" fill="#009C73"/>
</svg>
