<svg width="20" height="20" viewBox="0 0 20 20" fill="none" xmlns="http://www.w3.org/2000/svg">
<path d="M19.106 10.0511C19.113 8.86026 18.8836 7.67988 18.4312 6.57834C17.9787 5.47681 17.3121 4.47602 16.4701 3.63396C15.628 2.79191 14.6272 2.12534 13.5257 1.67287C12.4242 1.22041 11.2438 0.991048 10.053 0.998082C8.86214 0.991048 7.68176 1.22041 6.58023 1.67287C5.47869 2.12534 4.4779 2.79191 3.63585 3.63396C2.79379 4.47602 2.12722 5.47681 1.67476 6.57834C1.22229 7.67988 0.99293 8.86026 0.999963 10.0511C0.936306 12.1994 1.6507 14.2984 3.01167 15.9618C4.37265 17.6252 6.28861 18.7411 8.40696 19.1041V12.5201H6.76096V10.0511H8.40696V7.58208C8.40696 5.29508 10.436 4.29008 12.522 4.29008H14.168V6.75908H13.345C13.1276 6.75473 12.9116 6.79433 12.71 6.87551C12.5083 6.95668 12.3251 7.07777 12.1714 7.23149C12.0176 7.38521 11.8966 7.5684 11.8154 7.77007C11.7342 7.97174 11.6946 8.18773 11.699 8.40508V10.0511H14.168L13.345 12.5201H11.699V19.1041C13.8173 18.7411 15.7333 17.6252 17.0943 15.9618C18.4552 14.2984 19.1696 12.1994 19.106 10.0511Z" fill="#009C73"/>
</svg>
