<svg width="41" height="55" viewBox="0 0 41 55" fill="none" xmlns="http://www.w3.org/2000/svg">
<path d="M21.035 0.335912C20.9437 0.230618 20.8308 0.146177 20.704 0.0883072C20.5772 0.0304371 20.4394 0.000488281 20.3 0.000488281C20.1606 0.000488281 20.0229 0.0304371 19.896 0.0883072C19.7692 0.146177 19.6563 0.230618 19.565 0.335912C18.789 1.30491 0.525002 24.2149 0.525002 34.8259C0.525002 40.0708 2.60854 45.1009 6.31726 48.8097C10.026 52.5184 15.0561 54.6019 20.301 54.6019C25.5459 54.6019 30.576 52.5184 34.2847 48.8097C37.9935 45.1009 40.077 40.0708 40.077 34.8259C40.077 24.2149 21.812 1.30091 21.035 0.335912ZM20.3 52.7179C15.5564 52.7126 11.0085 50.8259 7.65429 47.4716C4.30004 44.1174 2.41329 39.5695 2.408 34.8259C2.408 26.0189 16.846 6.90091 20.3 2.45091C23.755 6.89891 38.192 26.0179 38.192 34.8269C38.1864 39.5704 36.2996 44.1179 32.9454 47.472C29.5911 50.826 25.0435 52.7126 20.3 52.7179Z" fill="#009C73"/>
<path d="M20.301 45.1849C17.5546 45.1817 14.9216 44.0893 12.9796 42.1473C11.0376 40.2053 9.94518 37.5723 9.942 34.8259C9.93404 34.5815 9.83135 34.3498 9.65565 34.1797C9.47996 34.0097 9.24502 33.9146 9.0005 33.9146C8.75598 33.9146 8.52105 34.0097 8.34535 34.1797C8.16966 34.3498 8.06697 34.5815 8.05901 34.8259C8.06271 38.0715 9.35368 41.1832 11.6487 43.4782C13.9437 45.7732 17.0554 47.0642 20.301 47.0679C20.5454 47.0599 20.7771 46.9573 20.9472 46.7816C21.1172 46.6059 21.2123 46.3709 21.2123 46.1264C21.2123 45.8819 21.1172 45.6469 20.9472 45.4713C20.7771 45.2956 20.5454 45.1929 20.301 45.1849Z" fill="#009C73"/>
<path d="M31.602 30.1169C30.6706 30.1167 29.7601 30.3927 28.9856 30.91C28.211 31.4273 27.6073 32.1627 27.2507 33.0232C26.8942 33.8836 26.8008 34.8305 26.9824 35.744C27.164 36.6575 27.6124 37.4966 28.2709 38.1553C28.9294 38.814 29.7685 39.2626 30.682 39.4444C31.5954 39.6261 32.5423 39.5329 33.4028 39.1765C34.2633 38.8202 34.9988 38.2166 35.5163 37.4422C36.0338 36.6678 36.31 35.7573 36.31 34.8259C36.3087 33.5776 35.8123 32.3807 34.9297 31.498C34.0471 30.6152 32.8503 30.1185 31.602 30.1169ZM31.602 37.6509C31.0433 37.6509 30.4971 37.4852 30.0325 37.1748C29.5679 36.8644 29.2059 36.4232 28.9921 35.907C28.7782 35.3908 28.7223 34.8228 28.8313 34.2748C28.9403 33.7268 29.2093 33.2234 29.6044 32.8283C29.9995 32.4333 30.5029 32.1642 31.0509 32.0552C31.5989 31.9462 32.1669 32.0021 32.6831 32.2159C33.1993 32.4298 33.6405 32.7918 33.9509 33.2564C34.2613 33.721 34.427 34.2672 34.427 34.8259C34.426 35.5748 34.128 36.2928 33.5984 36.8223C33.0688 37.3519 32.3509 37.6499 31.602 37.6509Z" fill="#19172E"/>
</svg>
