<svg width="54" height="55" viewBox="0 0 54 55" fill="none" xmlns="http://www.w3.org/2000/svg">
<path d="M52.823 28.6211C52.6997 27.8758 52.6997 27.1154 52.823 26.3701L53.359 23.1241C53.5861 21.744 53.4791 20.3296 53.0469 18.9995C52.6147 17.6693 51.8699 16.4621 50.875 15.4791L48.533 13.1681C47.9952 12.6377 47.5482 12.0225 47.21 11.3471L45.736 8.40109C45.1087 7.15168 44.1912 6.07075 43.0603 5.24884C41.9294 4.42693 40.618 3.88797 39.236 3.67709L35.983 3.18409C35.2357 3.06986 34.5124 2.83336 33.842 2.48409L30.916 0.978092C29.6737 0.335722 28.2955 0.000488281 26.897 0.000488281C25.4985 0.000488281 24.1203 0.335722 22.878 0.978092L19.958 2.49109C19.2876 2.84031 18.5642 3.07681 17.817 3.19109L14.564 3.68409C13.182 3.89497 11.8706 4.43393 10.7397 5.25584C9.60876 6.07775 8.69126 7.15868 8.064 8.40809L6.586 11.3461C6.2478 12.0215 5.80084 12.6367 5.263 13.1671L2.916 15.4791C1.96365 16.4255 1.2408 17.5776 0.802931 18.8468C0.365057 20.1161 0.2238 21.4688 0.39 22.8011C0.425134 23.0384 0.551886 23.2525 0.743066 23.3975C0.934246 23.5425 1.17463 23.6067 1.41264 23.5765C1.65065 23.5463 1.86734 23.424 2.01622 23.2358C2.16509 23.0477 2.2343 22.8087 2.209 22.5701C2.07846 21.5173 2.19085 20.4485 2.53754 19.4459C2.88423 18.4433 3.45601 17.5334 4.209 16.7861L6.551 14.4751C7.23143 13.8053 7.79729 13.0283 8.226 12.1751L9.7 9.23409C10.1958 8.2463 10.9212 7.39176 11.8154 6.74207C12.7095 6.09239 13.7463 5.6665 14.839 5.50009L18.091 5.00109C19.0365 4.85805 19.9521 4.5604 20.801 4.12009L23.722 2.60109C24.7037 2.09349 25.7928 1.82859 26.898 1.82859C28.0032 1.82859 29.0923 2.09349 30.074 2.60109L32.996 4.11909C33.8445 4.55963 34.7597 4.85761 35.705 5.00109L38.958 5.49409C40.0506 5.66039 41.0873 6.08613 41.9815 6.73564C42.8756 7.38514 43.601 8.23949 44.097 9.22709L45.571 12.1691C45.9996 13.0223 46.5655 13.7993 47.246 14.4691L49.588 16.7801C50.3742 17.5568 50.9627 18.5107 51.3043 19.5618C51.6458 20.6129 51.7304 21.7306 51.551 22.8211L51.016 26.0711C50.8598 27.0143 50.8598 27.9768 51.016 28.9201L51.552 32.1661C51.7314 33.2566 51.6468 34.3743 51.3053 35.4254C50.9637 36.4764 50.3752 37.4303 49.589 38.2071L47.246 40.5181C46.5655 41.1879 45.9996 41.9649 45.571 42.8181L44.097 45.7591C43.6021 46.7484 42.8772 47.6045 41.983 48.2556C41.0888 48.9068 40.0514 49.3339 38.958 49.5011L35.705 49.9941C34.7595 50.1371 33.8439 50.4348 32.995 50.8751L30.073 52.3881C29.0913 52.8957 28.0022 53.1606 26.897 53.1606C25.7918 53.1606 24.7027 52.8957 23.721 52.3881L20.801 50.8711C19.9521 50.4308 19.0365 50.1332 18.091 49.9901L14.838 49.5011C13.7454 49.3348 12.7087 48.9091 11.8145 48.2595C10.9204 47.61 10.195 46.7557 9.699 45.7681L8.225 42.8261C7.79632 41.9729 7.23046 41.1959 6.55 40.5261L4.208 38.2151C3.42076 37.4374 2.83169 36.4821 2.49028 35.4295C2.14887 34.3769 2.0651 33.2578 2.246 32.1661L2.681 29.5351C2.71608 29.2973 2.65639 29.0552 2.51478 28.861C2.37317 28.6668 2.16097 28.5359 1.92384 28.4966C1.68672 28.4573 1.44363 28.5126 1.24691 28.6508C1.05019 28.7889 0.915556 28.9987 0.871999 29.2351L0.437 31.8661C0.209904 33.2462 0.31694 34.6605 0.749137 35.9907C1.18133 37.3209 1.9261 38.5281 2.921 39.5111L5.263 41.8221C5.80085 42.3525 6.24782 42.9677 6.586 43.6431L8.06 46.5851C8.68726 47.8345 9.60476 48.9154 10.7357 49.7373C11.8666 50.5593 13.178 51.0982 14.56 51.3091L17.816 51.8011C18.5632 51.9153 19.2866 52.1518 19.957 52.5011L22.879 54.0141C24.1213 54.6565 25.4995 54.9917 26.898 54.9917C28.2965 54.9917 29.6747 54.6565 30.917 54.0141L33.839 52.5011C34.5094 52.1519 35.2328 51.9154 35.98 51.8011L39.233 51.3081C40.615 51.0972 41.9264 50.5583 43.0573 49.7363C44.1882 48.9144 45.1057 47.8335 45.733 46.5841L47.207 43.6421C47.5452 42.9667 47.9922 42.3515 48.53 41.8211L50.872 39.5101C51.8668 38.5272 52.6115 37.3202 53.0437 35.9902C53.4759 34.6602 53.583 33.246 53.356 31.8661L52.823 28.6211Z" fill="#009C73"/>
<path d="M45.975 20.7831C46.0144 20.8969 46.0758 21.0019 46.1558 21.092C46.2358 21.1821 46.3327 21.2556 46.4411 21.3083C46.5494 21.3609 46.6671 21.3917 46.7874 21.3989C46.9076 21.4061 47.0281 21.3895 47.142 21.3501C47.2559 21.3107 47.3608 21.2493 47.4509 21.1693C47.5411 21.0893 47.6145 20.9924 47.6672 20.884C47.7198 20.7756 47.7506 20.658 47.7578 20.5377C47.765 20.4174 47.7484 20.2969 47.709 20.1831C45.9368 15.0118 42.3034 10.6851 37.5164 8.04553C32.7293 5.40596 27.1313 4.64242 21.8122 5.9036C16.4931 7.16477 11.8338 10.3604 8.74141 14.8682C5.64904 19.376 4.345 24.8734 5.08321 30.2898C5.82141 35.7063 8.54901 40.6542 12.7349 44.1701C16.9208 47.686 22.2654 49.5182 27.728 49.3099C33.1905 49.1017 38.3801 46.8679 42.2862 43.0436C46.1923 39.2192 48.5353 34.078 48.859 28.6211C48.8652 28.383 48.7785 28.1519 48.6173 27.9766C48.4561 27.8013 48.2331 27.6956 47.9953 27.6818C47.7576 27.668 47.5238 27.7473 47.3435 27.9028C47.1631 28.0583 47.0503 28.2779 47.029 28.5151C46.7311 33.5103 44.5849 38.2158 41.0084 41.7157C37.4319 45.2156 32.681 47.2593 27.6806 47.449C22.6801 47.6387 17.788 45.9608 13.9566 42.742C10.1252 39.5231 7.62872 34.9937 6.95318 30.0355C6.27764 25.0772 7.47137 20.045 10.302 15.9185C13.1326 11.792 17.3975 8.86646 22.2665 7.7115C27.1354 6.55653 32.2599 7.25477 36.6424 9.67028C41.0248 12.0858 44.3516 16.0457 45.975 20.7791V20.7831Z" fill="#009C73"/>
<path d="M22.839 29.1581C22.8378 28.7051 22.7267 28.2592 22.5152 27.8586C22.3038 27.458 21.9983 27.1147 21.625 26.8581C21.877 26.4394 22.0129 25.9611 22.0189 25.4725C22.0248 24.9838 21.9005 24.5024 21.6588 24.0777C21.4171 23.653 21.0666 23.3004 20.6435 23.056C20.2203 22.8115 19.7397 22.6842 19.251 22.6871H16.812C16.5688 22.6871 16.3356 22.7837 16.1636 22.9557C15.9916 23.1276 15.895 23.3609 15.895 23.6041V31.0511C15.895 31.1715 15.9187 31.2908 15.9648 31.402C16.0109 31.5133 16.0784 31.6143 16.1636 31.6995C16.2487 31.7846 16.3498 31.8522 16.4611 31.8983C16.5723 31.9444 16.6916 31.9681 16.812 31.9681H20.012C20.7592 31.9694 21.4765 31.6743 22.0065 31.1476C22.5364 30.6208 22.8358 29.9053 22.839 29.1581ZM17.733 24.5181H19.252C19.3749 24.514 19.4974 24.5347 19.6121 24.579C19.7268 24.6232 19.8315 24.69 19.9199 24.7755C20.0083 24.8611 20.0786 24.9635 20.1266 25.0767C20.1746 25.1899 20.1993 25.3116 20.1993 25.4346C20.1993 25.5576 20.1746 25.6793 20.1266 25.7925C20.0786 25.9057 20.0083 26.0081 19.9199 26.0936C19.8315 26.1791 19.7268 26.246 19.6121 26.2902C19.4974 26.3344 19.3749 26.3552 19.252 26.3511H17.733V24.5181ZM17.733 28.1841H20.012C20.2703 28.1841 20.5181 28.2867 20.7007 28.4694C20.8834 28.652 20.986 28.8998 20.986 29.1581C20.986 29.4164 20.8834 29.6641 20.7007 29.8468C20.5181 30.0295 20.2703 30.1321 20.012 30.1321H17.737L17.733 28.1841Z" fill="#19172E"/>
<path d="M26.211 28.8721H26.902C27.7225 28.8721 28.5093 28.5462 29.0894 27.966C29.6696 27.3859 29.9955 26.599 29.9955 25.7786C29.9955 24.9581 29.6696 24.1713 29.0894 23.5911C28.5093 23.011 27.7225 22.6851 26.902 22.6851H25.291C25.0478 22.6851 24.8146 22.7817 24.6426 22.9537C24.4706 23.1256 24.374 23.3589 24.374 23.6021V31.0491C24.3819 31.2869 24.4819 31.5124 24.6529 31.6778C24.8239 31.8433 25.0526 31.9358 25.2905 31.9358C25.5285 31.9358 25.7571 31.8433 25.9281 31.6778C26.0992 31.5124 26.1991 31.2869 26.207 31.0491L26.211 28.8721ZM26.211 24.5181H26.902C27.2362 24.5181 27.5567 24.6508 27.793 24.8871C28.0292 25.1234 28.162 25.4439 28.162 25.7781C28.162 26.1122 28.0292 26.4327 27.793 26.669C27.5567 26.9053 27.2362 27.0381 26.902 27.0381H26.211V24.5181Z" fill="#19172E"/>
<path d="M33.429 31.0481V29.5591H36.064V31.0481C36.0718 31.2859 36.1719 31.5114 36.3429 31.6768C36.5139 31.8423 36.7425 31.9348 36.9805 31.9348C37.2185 31.9348 37.4471 31.8423 37.6181 31.6768C37.7891 31.5114 37.8891 31.2859 37.897 31.0481V25.7971C37.8763 24.9754 37.5353 24.1943 36.9469 23.6205C36.3584 23.0466 35.569 22.7255 34.747 22.7255C33.9251 22.7255 33.1356 23.0466 32.5471 23.6205C31.9587 24.1943 31.6177 24.9754 31.597 25.7971V31.0461C31.6049 31.2839 31.7049 31.5094 31.8759 31.6748C32.0469 31.8403 32.2756 31.9328 32.5135 31.9328C32.7515 31.9328 32.9801 31.8403 33.1511 31.6748C33.3221 31.5094 33.4222 31.2839 33.43 31.0461L33.429 31.0481ZM34.71 24.5181C34.8841 24.5087 35.0584 24.5349 35.222 24.595C35.3857 24.6551 35.5355 24.7479 35.6621 24.8678C35.7888 24.9876 35.8898 25.132 35.9589 25.2921C36.0279 25.4522 36.0637 25.6247 36.064 25.7991V27.7261H33.429V25.7971C33.4298 25.4579 33.5649 25.1329 33.8048 24.8932C34.0447 24.6535 34.3699 24.5186 34.709 24.5181H34.71Z" fill="#19172E"/>
</svg>
