<svg width="802" height="485" viewBox="0 0 802 485" fill="none" xmlns="http://www.w3.org/2000/svg">
<g opacity="0.38">
<g style="mix-blend-mode:color-dodge">
<g opacity="0.2">
<path d="M90.2107 480.892L90.12 480.917C85.0352 463.057 81.5987 444.768 79.8536 426.279C78.5552 410.865 79.0054 396.81 81.1889 384.503C83.2168 373.082 86.7345 363.157 91.6445 355.005C95.8401 347.79 101.701 341.684 108.739 337.197C118.518 331.211 130.167 329.056 141.442 331.147C153.164 333.123 164.789 339.013 175.058 348.183C186.306 358.4 198.933 366.987 212.57 373.691C198.909 367.026 186.259 358.462 174.995 348.255C154.097 329.595 128.107 325.289 108.787 337.283C94.7291 346.008 85.2179 362.344 81.279 384.526C76.6926 410.358 79.6967 442.78 90.2079 480.896M312.524 378.37C309.835 379.349 307.131 380.242 304.412 381.049C293.999 384.161 283.238 385.956 272.379 386.394C267.265 386.588 262.144 386.464 257.046 386.022C273.003 387.296 289.059 385.578 304.386 380.958C363.263 363.492 414.119 305.018 433.954 231.985C437.728 217.765 442.559 203.846 448.406 190.346C451.707 182.806 455.484 175.484 459.714 168.424C449.478 185.408 440.959 206.548 434.044 232.009C424.224 268.166 406.822 301.265 383.719 327.73C362.915 351.561 338.448 368.935 312.523 378.37M761.281 185.968C754.251 188.527 744.439 187.46 730.882 182.725C716.45 177.685 698.974 168.893 680.471 159.584C629.171 133.774 565.772 101.887 513.615 120.871C511.653 121.585 509.715 122.368 507.786 123.229C494.769 129.038 483.193 137.874 472.972 149.86C476.877 145.244 481.153 140.956 485.759 137.039C492.398 131.396 499.8 126.717 507.747 123.143C561.005 99.3753 627.265 132.714 680.513 159.5C699.011 168.806 716.485 177.596 730.912 182.635C746.881 188.209 757.637 188.694 764.76 184.149C772.463 179.241 775.95 168.279 775.419 150.64L775.514 150.636C776.045 168.313 772.544 179.301 764.811 184.229C763.701 184.934 762.516 185.515 761.279 185.962" fill="#009C73"/>
</g>
<g opacity="0.226">
<path d="M88.6832 477.575L88.5777 477.604C83.5843 459.968 80.2284 441.908 78.5526 423.655C77.3086 408.414 77.7946 394.498 79.9945 382.298C83.9722 360.272 93.498 343.935 107.542 335.052C117.361 328.917 129.081 326.576 140.504 328.468C152.323 330.241 164.062 335.91 174.457 344.857C223.545 387.085 272.068 396.359 322.8 373.209C370.233 351.342 410.368 298.785 430.162 232.619C434.285 218.516 439.472 204.746 445.679 191.428C450.73 180.576 456.9 170.282 464.088 160.711C470.121 152.712 477.203 145.56 485.143 139.449C492.276 134.028 500.18 129.706 508.594 126.627L508.875 126.524C563.859 106.512 627.84 135.638 679.276 159.049C697.515 167.35 714.737 175.194 728.892 179.494C744.53 184.248 755.071 184.294 762.072 179.639C769.742 174.538 773.216 163.585 772.691 146.154L772.797 146.152C773.324 163.626 769.833 174.607 762.128 179.726C755.102 184.4 744.526 184.358 728.856 179.598C714.696 175.293 697.467 167.451 679.227 159.148C627.817 135.746 563.85 106.629 508.913 126.624L508.631 126.727C473.38 139.557 447.747 174.206 430.265 232.645C420.753 264.442 406.04 294.107 387.716 318.432C378.871 330.287 368.755 341.138 357.548 350.791C347.061 359.843 335.385 367.417 322.845 373.303C311.315 378.669 299.099 382.418 286.543 384.442C274.397 386.316 262.027 386.201 249.918 384.102C236.915 381.735 224.347 377.408 212.643 371.268C198.91 364.009 186.072 355.171 174.39 344.933C153.216 326.719 126.999 322.874 107.605 335.147C93.5921 344.012 84.0799 360.326 80.1081 382.32C75.4843 407.919 78.371 439.968 88.6859 477.579" fill="#009C73"/>
</g>
<g opacity="0.252">
<path d="M87.156 474.256L87.0361 474.289C82.1329 456.875 78.8578 439.043 77.2529 421.023C76.0636 405.952 76.5891 392.174 78.8145 380.073C82.8325 358.229 92.3614 341.912 106.372 332.887C116.232 326.607 128.023 324.082 139.591 325.776C151.497 327.351 163.351 332.796 173.871 341.524C194.93 358.996 213.917 371.067 232.181 378.054C225.291 375.402 218.606 372.246 212.179 368.613C200.079 361.843 187.522 353.016 173.788 341.622C152.349 323.836 125.912 320.449 106.436 332.994C92.4562 341.999 82.9455 358.288 78.9341 380.098C74.2684 405.467 77.0314 437.147 87.1529 474.256M310.289 377.815C301.213 381.197 291.771 383.499 282.157 384.673C276.051 385.392 269.893 385.552 263.759 385.152C278.889 386.122 294.077 383.588 310.143 377.74C312.614 376.841 315.101 375.866 317.611 374.81C362.934 355.798 403.595 302.878 426.373 233.251C430.788 219.459 436.246 206.023 442.701 193.059C447.982 182.442 454.384 172.42 461.797 163.163C468.083 155.353 475.426 148.456 483.616 142.672C491.12 137.451 499.381 133.412 508.111 130.697C533.354 122.863 561.913 122.795 595.406 130.494C624.414 137.162 652.598 148.573 677.465 158.641C695.57 165.972 712.672 172.895 726.648 176.479C742.06 180.43 752.457 180.029 759.365 175.22C767.018 169.893 770.486 158.918 769.968 141.671L770.092 141.667C770.612 158.962 767.127 169.971 759.437 175.324C752.495 180.155 742.067 180.561 726.617 176.601C712.633 173.016 695.527 166.09 677.417 158.758C627.29 138.463 564.904 113.204 508.147 130.818C472.092 142.009 445.391 175.524 426.491 233.292C415.783 266.019 400.656 296.083 382.746 320.23C373.942 332.266 363.805 343.268 352.528 353.026C342.101 362.076 330.34 369.464 317.66 374.927C315.17 375.972 312.713 376.935 310.289 377.817" fill="#009C73"/>
</g>
<g opacity="0.277">
<path d="M85.628 470.941L85.4932 470.977C80.6802 453.785 77.4867 436.179 75.9546 418.391C75.5621 413.23 75.3727 408.226 75.3863 403.38C75.3666 421.454 78.2327 443.673 85.6265 470.946M310.002 377.473C286.029 386.198 265.996 387.397 245.368 381.396C225.134 375.507 203.542 362.624 173.181 338.317C151.501 320.955 124.851 318.023 105.286 330.845C96.4434 336.64 81.5891 350.848 76.8692 382.41C77.097 380.866 77.3507 379.348 77.6302 377.855C81.6913 356.187 91.2281 339.891 105.209 330.728C115.112 324.302 126.973 321.595 138.684 323.09C150.679 324.471 162.638 329.696 173.268 338.209C232.432 385.586 264.956 394.515 312.417 376.421C356.137 359.764 396.288 307.812 422.579 233.894C427.276 220.409 432.999 207.303 439.698 194.691C445.208 184.301 451.84 174.547 459.476 165.602C466.023 157.978 473.632 151.335 482.071 145.878C489.959 140.866 498.582 137.119 507.628 134.773C533.488 128.049 562.097 127.938 595.089 134.44C623.648 140.065 650.984 149.714 675.098 158.231C712.324 171.374 741.727 181.755 756.65 170.858C764.292 165.277 767.757 154.264 767.244 137.19L767.383 137.186C767.899 154.309 764.414 165.361 756.731 170.966C755.093 172.153 753.296 173.102 751.392 173.784C735.313 179.636 708.3 170.1 675.05 158.358C626.377 141.168 565.806 119.786 507.661 134.905C470.28 144.624 443.287 176.093 422.713 233.931C410.684 267.751 395.132 298.203 377.741 321.993C368.975 334.202 358.82 345.351 347.479 355.216C336.234 364.8 324.456 371.975 312.471 376.542C311.643 376.858 310.82 377.165 310.001 377.463" fill="#009C73"/>
</g>
<g opacity="0.303">
<path d="M84.1024 467.624L83.9532 467.664C79.2294 450.691 76.1174 433.309 74.6585 415.751C73.5824 401.018 74.1896 387.509 76.4671 375.612C80.5761 354.12 90.1231 337.844 104.078 328.545C114.026 321.973 125.957 319.086 137.809 320.382C149.892 321.564 161.95 326.577 172.683 334.878C230.745 379.79 257.385 395.143 307.24 378.025C330.332 370.093 352.33 351.809 372.597 323.687C389.534 300.191 405.076 270.194 418.796 234.53C440.754 177.449 468.825 147.047 507.147 138.845C533.408 133.224 561.889 133.074 594.221 138.381C622.202 142.975 648.628 150.898 671.943 157.887C709.426 169.124 739.032 178.001 753.92 166.573C761.564 160.705 765.032 149.626 764.522 132.705L764.676 132.7C765.187 149.672 761.699 160.792 754.014 166.697C752.133 168.127 750.043 169.258 747.818 170.052C731.625 175.946 704.794 167.901 671.899 158.04C624.822 143.926 566.232 126.362 507.18 139.002C468.915 147.193 440.88 177.566 418.945 234.588C405.219 270.265 389.671 300.273 372.726 323.781C352.884 351.309 331.39 369.419 308.82 377.635C308.309 377.821 307.802 378.005 307.289 378.176C282.362 386.737 263.165 387.287 243.1 380.015C223.604 372.94 203.277 358.736 172.588 335.001C150.682 318.056 123.825 315.573 104.165 328.674C90.24 337.943 80.7215 354.186 76.6181 375.638C71.8554 400.562 74.3713 431.511 84.1031 467.626" fill="#009C73"/>
</g>
<g opacity="0.329">
<path d="M82.5742 464.302L82.4102 464.346C72.8651 428.706 70.4722 398.092 75.2973 373.357C79.4562 352.037 89.0184 335.782 102.95 326.348C112.943 319.632 124.945 316.564 136.936 317.662C149.107 318.648 161.259 323.449 172.084 331.544C176.455 334.812 180.578 337.923 184.57 340.923C235.88 379.563 255.083 394.019 302.048 379.622C324.945 372.602 346.984 354.376 367.546 325.453C383.774 302.626 399.298 273.089 415.008 235.159C426.79 206.714 439.795 185.547 454.761 170.467C469.763 155.351 486.737 146.338 506.661 142.914C565.996 132.715 622.388 146.561 667.702 157.685C705.958 167.077 736.18 174.494 751.154 162.381C758.821 156.185 762.3 145.007 761.795 128.216L761.965 128.211C762.47 145.054 758.97 156.278 751.261 162.513C744.337 168.112 733.866 169.953 718.308 168.306C704.131 166.804 687.23 162.654 667.66 157.849C622.363 146.728 565.991 132.887 506.69 143.08C467.498 149.815 438.412 179.095 415.165 235.223C399.456 273.165 383.924 302.711 367.686 325.552C357.878 339.351 347.675 350.811 337.363 359.613C326 369.311 314.135 376.098 302.101 379.79C278.838 386.921 262.243 387.06 244.828 380.284C227.701 373.617 210.503 360.666 184.474 341.061C180.485 338.057 176.359 334.951 171.988 331.682C149.874 315.148 122.815 313.109 103.055 326.49C89.1614 335.897 79.6241 352.115 75.4735 373.391C70.6456 398.104 73.0371 428.69 82.5742 464.302Z" fill="#009C73"/>
</g>
<g opacity="0.355">
<path d="M81.049 460.989L80.8693 461.036C71.5161 425.888 69.2497 395.631 74.1349 371.105C78.3484 349.955 87.9273 333.72 101.838 324.155C111.878 317.291 123.953 314.042 136.082 314.939C148.337 315.734 160.582 320.324 171.493 328.215C183.628 336.994 193.807 344.841 202.787 351.764C240.067 380.512 255.5 392.41 296.865 381.225C319.908 374.994 341.376 357.329 362.479 327.227C382.024 299.352 398.085 265.364 411.224 235.792C423.613 207.907 437.072 187.329 452.375 172.896C467.944 158.206 485.544 149.73 506.183 146.984C564.827 139.181 618.656 149.465 661.911 157.733C682.343 161.637 699.99 165.009 714.633 165.813C730.619 166.69 741.335 164.312 748.354 158.328C756.07 151.75 759.576 140.434 759.074 123.733L759.259 123.727C759.763 140.488 756.238 151.857 748.475 158.469C741.417 164.488 730.66 166.881 714.624 166.002C699.965 165.198 682.316 161.823 661.878 157.917C618.637 149.654 564.821 139.371 506.208 147.17C465.48 152.59 436.24 179.946 411.394 235.871C398.252 265.449 382.179 299.453 362.637 327.336C352.717 341.482 342.51 353.082 332.297 361.808C320.895 371.551 308.993 378.145 296.921 381.409C286.571 384.208 277.765 385.58 270.001 385.605C262.605 385.683 255.261 384.37 248.351 381.735C234.673 376.583 221.254 366.236 202.681 351.915C193.703 344.992 183.528 337.146 171.392 328.37C149.083 312.236 121.826 310.641 101.953 324.307C88.0788 333.847 78.5304 350.04 74.327 371.141C69.4476 395.64 71.7123 425.869 81.0626 460.988" fill="#009C73"/>
</g>
<g opacity="0.381">
<path d="M299.63 380.665C297.042 381.609 294.401 382.398 291.72 383.029C273.584 387.29 260.893 387.192 249.3 382.699C238.003 378.321 227.782 369.868 213.636 358.168C202.713 349.133 189.123 337.891 170.781 325.056C148.29 309.316 120.841 308.162 100.849 322.114C87.0006 331.779 77.4294 347.951 73.1751 368.88C68.2341 393.171 70.3701 423.044 79.5263 457.671L79.3322 457.722C70.1695 423.066 68.0317 393.162 72.9788 368.841C77.2473 347.86 86.8463 331.645 100.738 321.949C110.828 314.943 122.972 311.516 135.236 312.215C148.081 312.994 160.444 317.389 170.899 324.892C189.245 337.731 202.842 348.977 213.767 358.012C242.487 381.765 254.374 391.597 291.679 382.833C314.566 377.457 336.06 359.848 357.389 329.004C376.792 300.947 393.782 265.173 407.435 236.427C420.4 209.127 434.311 189.139 449.962 175.32C465.401 161.374 484.973 152.853 505.7 151.054C562.282 145.554 612.989 152.549 653.735 158.172C697.826 164.259 729.679 168.649 745.485 154.45C753.296 147.433 756.85 135.917 756.349 119.246L756.549 119.24C757.054 135.977 753.476 147.54 745.619 154.599C729.74 168.862 697.85 164.461 653.707 158.37C612.972 152.75 562.279 145.756 505.72 151.256C463.949 155.316 433.693 181.611 407.617 236.515C393.962 265.266 376.967 301.05 357.555 329.122C338.668 356.428 319.643 373.384 299.635 380.667" fill="#009C73"/>
</g>
<g opacity="0.406">
<path d="M296.136 381.952C293.007 383.093 289.796 383.995 286.53 384.649C252.16 391.528 242.126 382.287 220.143 362.038C208.358 351.183 193.69 337.674 170.178 321.743C147.518 306.39 119.876 305.672 99.763 319.917C85.9339 329.708 76.3428 345.857 72.0295 366.618C67.0234 390.704 69.0317 420.224 77.9979 454.357L77.7891 454.412C68.8163 420.246 66.8077 390.693 71.8198 366.574C76.1456 345.76 85.7648 329.565 99.64 319.742C109.781 312.591 121.998 308.985 134.398 309.484C147.266 310.042 159.714 314.232 170.301 321.569C193.827 337.508 208.501 351.024 220.291 361.883C242.221 382.08 252.228 391.298 286.491 384.441C307.932 380.149 328.163 364.439 348.337 336.411C366.183 311.619 381.815 280.495 396.933 250.395C399.137 246.007 401.415 241.469 403.646 237.065C430.942 183.148 462.267 157.879 505.216 155.131C557.613 151.779 604.188 155.903 641.611 159.217C690.435 163.542 725.715 166.666 742.503 150.828C750.488 143.295 754.124 131.499 753.622 114.766L753.833 114.761C754.339 131.559 750.68 143.409 742.648 150.986C738.975 154.351 734.648 156.923 729.938 158.542C710.679 165.552 680.414 162.871 641.589 159.433C604.174 156.119 557.608 151.995 505.226 155.347C462.363 158.09 431.093 183.322 403.834 237.159C401.606 241.563 399.321 246.103 397.121 250.489C382 280.597 366.364 311.729 348.508 336.535C338.859 349.944 329.476 360.264 319.836 368.091C312.766 374.005 304.754 378.691 296.133 381.953" fill="#009C73"/>
</g>
<g opacity="0.432">
<path d="M292.238 383.396C288.702 384.689 285.054 385.651 281.34 386.271C249.27 391.595 240.735 382.553 223.733 364.538C212.669 352.815 197.517 336.764 169.577 318.431C146.757 303.457 118.929 303.175 98.6828 317.709C68.1765 339.609 60.0804 388.209 76.4678 451.037L76.2445 451.095C67.4603 417.418 65.5814 388.213 70.6601 364.295C75.0448 343.645 84.6887 327.471 98.5445 317.522C108.739 310.226 121.029 306.441 133.562 306.739C146.455 307.077 158.988 311.064 169.707 318.237C197.667 336.581 212.832 352.649 223.903 364.378C240.851 382.334 249.362 391.344 281.306 386.042C326.307 378.573 356.813 320.023 386.316 263.404C390.745 254.903 395.325 246.114 399.854 237.699C413.892 211.626 428.681 192.801 445.072 180.164C462.376 166.819 481.891 159.963 504.731 159.206C549.42 157.725 588.099 159.545 622.228 161.15C651.129 162.51 676.087 163.682 695.758 162.22C716.931 160.646 730.776 155.995 739.331 147.583C747.622 139.431 751.403 127.227 750.895 110.286L751.126 110.279C751.637 127.292 747.833 139.548 739.493 147.748C730.897 156.198 717.006 160.872 695.775 162.45C676.089 163.915 651.125 162.739 622.218 161.38C588.094 159.776 549.416 157.957 504.74 159.436C460.735 160.894 428.45 185.065 400.059 237.811C395.531 246.224 390.952 255.013 386.522 263.513C359.435 315.498 331.497 369.109 292.24 383.4" fill="#009C73"/>
</g>
<g opacity="0.458">
<path d="M288.38 384.885C284.424 386.33 280.322 387.338 276.147 387.892C261.776 389.796 251.981 388.855 244.389 384.841C237.141 381.009 231.931 374.463 225.332 366.176C214.966 353.159 200.768 335.33 168.97 315.119C145.998 300.519 117.984 300.668 97.6019 315.499C67.1703 337.643 58.9086 385.835 74.937 447.725L74.6986 447.787C66.1024 414.596 64.3532 385.739 69.5005 362.018C73.9457 341.531 83.6142 325.381 97.4577 315.305C107.708 307.863 120.072 303.9 132.738 303.997C145.649 304.12 158.26 307.908 169.103 314.917C200.937 335.15 215.149 352.997 225.526 366.028C238.684 382.552 245.932 391.654 276.113 387.654C295.309 385.111 313.445 372.461 331.556 348.983C347.737 328.007 362.468 300.43 376.715 273.761C383 261.995 389.501 249.829 396.066 238.335C410.596 212.889 425.818 194.648 442.6 182.571C460.496 169.691 480.661 163.379 504.249 163.277C534.717 163.148 562.656 163.719 587.307 164.226C663.669 165.799 714.118 166.836 735.81 144.936C744.65 136.013 748.692 123.211 748.17 105.798L748.417 105.792C748.943 123.274 744.88 136.131 735.988 145.109C714.22 167.084 663.73 166.045 587.305 164.472C562.655 163.964 534.718 163.393 504.251 163.521C459.06 163.718 425.762 186.829 396.282 238.455C389.716 249.946 383.221 262.109 376.937 273.874C362.687 300.557 347.948 328.138 331.751 349.131C323.036 360.43 314.59 368.999 305.929 375.318C300.56 379.321 294.651 382.543 288.379 384.889" fill="#009C73"/>
</g>
<g opacity="0.484">
<path d="M284.296 386.462C279.994 388.033 275.512 389.057 270.954 389.509C241.962 392.399 236.138 383.458 225.565 367.229C216.287 352.989 203.581 333.485 168.37 311.802C145.256 297.568 117.058 298.149 96.5312 313.28C66.1684 335.662 57.7408 383.454 73.4089 444.395L73.156 444.461C64.7483 411.756 63.1291 383.244 68.3453 359.718C72.8516 339.393 82.5453 323.263 96.3795 313.065C106.687 305.476 119.126 301.333 131.925 301.228C144.854 301.137 157.543 304.726 168.511 311.574C203.772 333.288 216.496 352.82 225.787 367.081C236.305 383.224 242.096 392.113 270.932 389.244C289.622 387.381 306.517 376.151 324.102 353.902C339.654 334.225 353.345 309.031 367.84 282.358C375.707 267.88 383.842 252.909 392.28 238.954C407.279 214.148 422.924 196.486 440.113 184.958C458.608 172.553 479.43 166.788 503.769 167.336L509.97 167.475C630.538 170.192 703.311 171.831 731.607 143.322C741.471 133.384 745.997 119.639 745.446 101.302L745.707 101.294C746.261 119.707 741.71 133.514 731.793 143.506C725.833 149.506 717.908 154.184 708.001 157.79C670.72 171.359 605.266 169.883 509.965 167.737L503.763 167.597C457.344 166.555 423.03 188.604 392.505 239.09C384.068 253.041 375.937 268.008 368.073 282.483C353.573 309.166 339.877 334.369 324.312 354.067C315.945 364.653 307.839 372.613 299.529 378.403C294.824 381.74 289.703 384.449 284.296 386.462Z" fill="#009C73"/>
</g>
<g opacity="0.51">
<path d="M280.11 388.08C275.497 389.771 270.667 390.798 265.765 391.131C237.769 393.02 232.899 383.553 224.833 367.872C216.9 352.45 206.039 331.323 167.772 308.492C144.525 294.617 116.14 295.629 95.464 311.064C65.1675 333.684 56.5727 381.075 71.8898 441.084L71.6222 441.153C63.3967 408.934 61.9087 380.768 67.1969 357.434C71.7651 337.271 81.4841 321.16 95.3017 310.843C116.067 295.34 144.57 294.324 167.915 308.252C206.249 331.12 217.132 352.289 225.081 367.742C233.093 383.324 237.932 392.727 265.749 390.852C305.38 388.181 331.659 340.374 359.485 289.76C368.724 272.953 378.275 255.571 388.493 239.591C403.932 215.432 419.997 198.346 437.607 187.355C456.707 175.432 478.193 170.216 503.285 171.411C569.351 174.555 616.086 174.178 650.364 170.225C687.871 165.901 712.066 157.277 726.507 143.085C738.012 131.779 743.313 116.643 742.718 96.8195L742.994 96.8116C743.593 116.719 738.264 131.92 726.707 143.285C712.218 157.522 687.972 166.17 650.401 170.502C616.107 174.456 569.358 174.833 503.28 171.693C455.588 169.423 420.263 190.415 388.732 239.745C378.521 255.722 368.97 273.097 359.736 289.897C335.354 334.229 312.162 376.414 280.11 388.08Z" fill="#009C73"/>
</g>
<g opacity="0.535">
<path d="M275.926 389.76C270.998 391.562 265.817 392.572 260.574 392.753C247.75 393.21 239.571 391.352 234.055 386.722C228.925 382.417 226.495 376.144 223.418 368.199C216.994 351.615 208.197 328.902 167.172 305.18C143.792 291.661 115.225 293.099 94.3955 308.845C80.6457 319.237 70.9395 335.269 66.3236 355.205C60.9814 378.3 62.3361 406.079 70.3599 437.769L70.0774 437.841C62.0385 406.106 60.6838 378.28 66.0407 355.141C70.6714 335.137 80.415 319.048 94.22 308.614C115.144 292.797 143.837 291.351 167.318 304.929C208.428 328.702 217.248 351.471 223.69 368.095C229.809 383.893 233.502 393.429 260.563 392.463C278.106 391.835 293.884 382.265 310.217 362.347C324.752 344.624 337.756 321.143 351.524 296.283C361.968 277.423 372.768 257.924 384.705 240.229C400.562 216.723 417.041 200.209 435.086 189.744C454.799 178.312 476.949 173.648 502.804 175.488C562.981 179.769 609.848 179.205 646.08 173.764C680.999 168.521 705.421 158.823 720.738 144.12C734.35 131.054 740.648 114.117 739.99 92.3406L740.281 92.3314C740.939 114.196 734.611 131.205 720.937 144.33C705.573 159.075 681.103 168.798 646.121 174.052C609.866 179.496 562.979 180.06 502.781 175.781C453.78 172.294 417.439 192.222 384.944 240.393C373.015 258.077 362.219 277.573 351.776 296.426C338.002 321.297 324.992 344.79 310.44 362.533C298.934 376.563 287.696 385.478 275.923 389.763" fill="#009C73"/>
</g>
<g opacity="0.561">
<path d="M271.541 391.49C266.363 393.384 260.894 394.359 255.381 394.374C228.635 394.497 225.805 384.067 221.521 368.28C216.712 350.556 210.123 326.275 166.572 301.869C143.068 288.699 114.317 290.566 93.3251 306.626C63.1541 329.708 54.2272 376.3 68.8331 434.455L68.5356 434.529C60.6856 403.275 59.4567 375.792 64.8843 352.844C69.5801 332.999 79.3468 316.931 93.1371 306.378C114.226 290.245 143.109 288.368 166.72 301.598C210.384 326.065 216.991 350.416 221.82 368.194C226.067 383.845 228.873 394.185 255.383 394.063C272.481 393.984 287.812 385.094 303.629 366.085C317.738 349.127 330.433 326.301 343.872 302.136C355.385 281.43 367.297 260.016 380.921 240.857C397.171 218.005 414.06 202.062 432.554 192.116C452.886 181.182 475.712 177.072 502.326 179.556C609.069 189.514 680.375 178.422 714.281 146.588C730.258 131.587 737.993 111.826 737.272 87.8525L737.58 87.847C738.304 111.912 730.536 131.751 714.493 146.815C704.832 155.886 692.159 163.275 676.472 168.982C637.045 183.332 578.751 186.998 502.299 179.866C451.956 175.168 414.597 194.036 381.172 241.039C367.559 260.183 355.654 281.588 344.142 302.289C330.695 326.467 317.993 349.305 303.866 366.286C293.11 379.213 282.571 387.479 271.546 391.492" fill="#009C73"/>
</g>
<g opacity="0.587">
<path d="M267.084 393.254C261.676 395.231 255.942 396.16 250.187 395.992C237.824 395.672 230.322 393.164 225.85 387.867C221.752 383.006 220.608 376.123 219.283 368.153C216.144 349.297 211.852 323.47 165.969 298.554C154.439 292.274 141.33 289.483 128.241 290.521C115.152 291.558 102.648 296.381 92.2511 304.4C62.1396 327.704 53.0481 373.9 67.3052 431.134L66.9929 431.212C59.3279 400.439 58.2286 373.297 63.7252 350.539C68.4792 330.854 78.2749 314.808 92.054 304.145C102.5 296.088 115.064 291.242 128.215 290.199C141.367 289.156 154.537 291.961 166.123 298.271C212.145 323.261 216.455 349.177 219.6 368.1C222.29 384.293 224.067 394.994 250.194 395.67C266.914 396.104 281.85 387.821 297.197 369.605C310.922 353.315 323.324 331.051 336.454 307.48C348.931 285.079 361.834 261.916 377.128 241.488C393.75 219.29 411.046 203.915 430 194.481C450.954 184.053 474.454 180.502 501.838 183.628C554.808 189.676 599.693 189.317 635.252 182.567C666.298 176.675 690.533 165.876 707.284 150.469C725.919 133.329 735.344 110.125 734.54 83.3664L734.861 83.356C735.669 110.21 726.208 133.499 707.501 150.705C690.706 166.153 666.418 176.978 635.312 182.883C599.721 189.638 554.803 189.996 501.801 183.946C450.077 178.043 411.706 195.849 377.386 241.681C362.103 262.09 349.207 285.246 336.733 307.634C323.596 331.22 311.186 353.497 297.442 369.81C287.357 381.781 277.442 389.48 267.081 393.251" fill="#009C73"/>
</g>
<g opacity="0.613">
<path d="M262.562 395.05C256.944 397.102 250.964 397.974 244.994 397.613C218.826 396.148 217.98 384.283 216.808 367.859C215.385 347.883 213.434 320.525 165.369 295.241C153.646 289.136 140.41 286.544 127.25 287.775C114.09 289.005 101.565 294.007 91.1768 302.18C61.1285 325.71 51.8716 371.503 65.779 427.818L65.4519 427.899C57.9703 397.607 57.0001 370.805 62.5668 348.236C67.3843 328.711 77.2037 312.686 90.9684 301.914C101.408 293.701 113.995 288.676 127.22 287.439C140.445 286.203 153.745 288.809 165.526 294.944C213.757 320.316 215.715 347.782 217.144 367.837C217.727 376.024 218.228 383.096 221.811 388.206C225.676 393.725 233.048 396.607 245.012 397.276C280.874 399.283 303.285 359.029 329.234 312.415C342.579 288.443 356.379 263.655 373.344 242.123C390.309 220.591 408.015 205.766 427.443 196.841C449.029 186.925 473.205 183.936 501.359 187.703C595.577 200.31 662.445 189.477 700.107 155.505C728.921 129.515 732.342 96.3447 731.814 78.8855L732.151 78.8756C732.627 92.1312 730.56 105.355 726.061 117.833C720.736 132.399 711.898 145.426 700.331 155.756C683.086 171.311 659.226 182.152 629.411 187.975C594.728 194.746 551.63 194.771 501.307 188.039C448.171 180.93 408.787 197.675 373.602 242.333C356.653 263.845 342.86 288.621 329.522 312.582C316.678 335.652 304.547 357.443 291.153 373.168C281.673 384.297 272.32 391.496 262.554 395.051" fill="#009C73"/>
</g>
<g opacity="0.639">
<path d="M258.004 396.851C252.186 398.977 245.969 399.791 239.799 399.233C213.747 397.009 213.925 384.6 214.174 367.422C214.475 346.34 214.888 317.465 164.774 291.929C140.92 279.773 111.609 282.924 90.0992 299.953C60.1112 323.71 50.6892 369.1 64.2519 424.502L63.91 424.586C56.6126 394.774 55.7719 368.311 61.4052 345.934C66.2836 326.564 76.1294 310.571 89.8768 299.684C111.492 282.567 140.951 279.4 164.928 291.618C215.239 317.257 214.824 346.255 214.521 367.428C214.278 384.412 214.101 396.683 239.829 398.882C275.038 401.892 296.88 362.561 322.171 317.021C336.303 291.573 350.917 265.259 369.558 242.755C386.868 221.858 404.962 207.607 424.874 199.187C447.092 189.793 471.954 187.372 500.876 191.775C590.244 205.394 654.93 195.144 693.132 161.309C725.822 132.358 729.693 94.4315 729.091 74.4005L729.443 74.3892C729.886 88.9482 727.698 103.468 722.984 117.249C717.121 134.342 706.914 149.616 693.366 161.572C675.903 177.04 652.464 187.712 623.713 193.29C590.075 199.815 548.73 199.422 500.826 192.122C446.253 183.807 405.854 199.491 369.831 242.978C351.211 265.456 336.61 291.755 322.48 317.19C301.772 354.48 283.367 387.615 258.005 396.846" fill="#009C73"/>
</g>
<g opacity="0.665">
<path d="M253.328 398.694C247.344 400.878 240.929 401.618 234.605 400.852C222.629 399.48 215.651 395.832 212.65 389.376C209.9 383.46 210.606 375.768 211.422 366.858C213.451 344.681 216.231 314.309 164.17 288.617C140.204 276.79 110.702 280.371 89.0112 297.738C59.0876 321.699 49.5078 366.696 62.725 421.185L62.368 421.271C55.2516 391.936 54.5364 365.814 60.2415 343.626C65.1796 324.414 75.0518 308.447 88.7804 297.452C99.5459 288.802 112.547 283.387 126.27 281.838C139.313 280.298 152.524 282.536 164.331 288.288C187.515 299.728 201.941 312.97 208.436 328.767C214.025 342.37 212.836 355.397 211.784 366.891C210.155 384.689 208.978 397.549 234.644 400.487C269.272 404.451 290.573 365.942 315.238 321.349C329.396 295.752 345.443 266.739 365.772 243.384C383.401 223.133 401.889 209.437 422.295 201.521C445.162 192.651 470.698 190.799 500.395 195.845C585.74 210.35 648.408 200.822 686.66 167.526C724.164 134.879 726.919 88.3834 726.368 69.9118L726.736 69.9006C727.293 88.4273 724.527 135.052 686.905 167.802C669.38 183.056 646.358 193.449 618.478 198.693C585.874 204.825 546.126 203.988 500.337 196.206C444.3 186.681 402.884 201.306 366.056 243.622C345.754 266.948 329.717 295.943 315.567 321.524C295.591 357.64 277.814 389.779 253.334 398.69" fill="#009C73"/>
</g>
<g opacity="0.69">
<path d="M248.665 400.581C242.507 402.816 235.886 403.466 229.41 402.472C219.823 401.102 213.525 398.209 210.156 393.63C205.25 386.963 206.803 377.332 208.601 366.181C212.352 342.921 217.487 311.067 163.568 285.306C139.493 273.808 109.794 277.816 87.9188 295.523C58.0625 319.692 48.3223 364.284 61.1989 417.869L60.8271 417.958C53.894 389.103 53.3043 363.318 59.0754 341.319C64.0741 322.266 73.9655 306.327 87.6788 295.227C98.5188 286.418 111.607 280.817 125.463 279.057C138.523 277.314 151.808 279.363 163.735 284.961C187.769 296.442 202.286 309.972 208.116 326.324C213.141 340.424 210.931 354.139 208.979 366.236C207.194 377.303 205.653 386.861 210.464 393.398C213.77 397.89 219.985 400.732 229.465 402.087C263.575 406.965 284.356 369.188 308.414 325.447C323.195 298.571 339.95 268.116 361.983 244.015C379.914 224.399 398.793 211.258 419.708 203.849C443.204 195.519 469.439 194.234 499.912 199.92C581.942 215.228 642.815 206.479 680.843 173.911C721.37 139.205 724.271 86.4855 723.639 65.4323L724.021 65.4209C724.554 82.5558 722.411 99.6691 717.669 116.143C710.682 139.872 698.374 159.404 681.095 174.203C669.489 184.006 656.204 191.626 641.883 196.693C605.544 209.92 558.003 211.154 499.844 200.297C442.317 189.561 399.884 203.126 362.27 244.276C340.267 268.344 323.526 298.782 308.754 325.635C296.725 347.503 285.364 368.158 272.882 382.446C264.907 391.573 256.963 397.56 248.665 400.58" fill="#009C73"/>
</g>
<g opacity="0.716">
<path d="M243.938 402.462C237.625 404.746 230.818 405.309 224.216 404.092C214.846 402.49 208.754 399.418 205.591 394.696C200.776 387.509 203.077 377.262 205.738 365.398C208.579 352.739 211.797 338.391 207.366 323.913C202.234 307.144 187.712 293.432 162.967 281.991C138.784 270.807 108.89 275.251 86.8175 293.307C57.031 317.68 47.1362 361.87 59.6711 414.551L59.2795 414.645C52.5265 386.267 52.0631 360.82 57.8992 339.011C62.9598 320.116 72.8731 304.206 86.5681 293.002C97.4841 284.032 110.66 278.242 124.65 276.268C137.727 274.325 151.088 276.185 163.136 281.629C187.989 293.121 202.581 306.911 207.748 323.794C212.209 338.373 208.978 352.775 206.127 365.483C203.484 377.259 201.203 387.428 205.923 394.473C209.019 399.093 215.026 402.111 224.284 403.694C239.693 406.33 253.15 400.413 266.633 385.075C278.817 371.215 289.929 350.878 301.688 329.349C317.04 301.247 334.441 269.397 358.199 244.646C376.421 225.661 395.692 213.072 417.115 206.161C441.255 198.375 468.181 197.665 499.43 203.99C578.736 220.043 638.05 212.075 675.724 180.306C717.115 145.402 721.801 90.5399 720.911 60.9435L721.309 60.9316C722.202 90.5995 717.499 145.599 675.98 180.609C638.209 212.461 578.781 220.457 499.35 204.38C441.105 192.59 396.349 205.474 358.484 244.921C334.764 269.634 317.376 301.46 302.036 329.539C290.263 351.094 279.145 371.449 266.931 385.342C259.378 393.934 251.829 399.59 243.939 402.462" fill="#009C73"/>
</g>
<g opacity="0.742">
<path d="M239.174 404.358C232.715 406.685 225.733 407.153 219.021 405.71C209.85 403.889 203.946 400.645 200.971 395.794C196.228 388.061 199.296 377.156 202.856 364.527C206.591 351.266 210.824 336.237 206.953 321.303C202.478 304.038 187.895 290.097 162.37 278.681C138.073 267.814 107.983 272.69 85.712 291.1C55.995 315.667 45.9481 359.454 58.1445 411.234L57.7425 411.328C51.1702 383.426 50.8293 358.319 56.7304 336.701C61.8447 317.965 71.7747 302.086 85.4483 290.782C96.4438 281.651 109.711 275.673 123.836 273.486C136.931 271.342 150.368 273.014 162.538 278.304C188.185 289.774 202.844 303.804 207.352 321.198C211.251 336.24 207.001 351.327 203.254 364.638C199.728 377.17 196.674 387.997 201.319 395.578C204.231 400.326 210.047 403.507 219.098 405.305C234.321 408.328 247.549 402.794 260.725 387.889C272.653 374.395 283.529 354.326 295.044 333.08C310.919 303.79 328.914 270.591 354.414 245.28C372.917 226.916 392.577 214.876 414.518 208.469C439.303 201.233 466.921 201.102 498.95 208.067C576.022 224.827 634.001 217.618 671.277 186.636C693.897 167.837 720.397 129.993 718.183 56.4611L718.596 56.4482C718.834 64.412 719.566 88.645 713.453 114.828C706.295 145.518 692.192 169.783 671.534 186.951C660.787 195.792 648.587 202.701 635.477 207.37C600.276 220.182 554.537 220.571 498.854 208.464C439.106 195.469 393.294 207.26 354.697 245.567C329.236 270.836 311.259 304.006 295.399 333.272C283.878 354.538 272.987 374.631 261.026 388.157C253.861 396.262 246.676 401.619 239.163 404.353" fill="#009C73"/>
</g>
<g opacity="0.768">
<path d="M234.372 406.267C227.776 408.632 220.63 409.002 213.826 407.329C204.839 405.302 199.105 401.894 196.297 396.911C191.613 388.604 195.484 377.003 199.967 363.569C209.283 335.659 220.873 300.924 161.77 275.371C137.738 264.979 106.723 270.417 84.5946 288.899C67.1758 303.447 40.3789 338.255 56.6146 407.919L56.1978 408.017C49.8049 380.59 49.5868 355.82 55.5508 334.398C60.7207 315.821 70.6683 299.976 84.3191 288.575C95.396 279.277 108.756 273.108 123.016 270.705C136.751 268.431 150.209 269.91 161.939 274.981C188.358 286.404 203.076 300.652 206.935 318.538C210.277 334.03 205.01 349.798 200.371 363.708C195.92 377.045 192.077 388.563 196.667 396.705C199.414 401.576 205.056 404.915 213.918 406.915C228.974 410.312 241.986 405.139 254.869 390.633C266.553 377.476 277.201 357.65 288.474 336.658C304.824 306.211 323.361 271.7 350.631 245.914C390.059 208.636 437.036 197.904 498.47 212.141C573.753 229.587 630.623 223.087 667.501 192.821C701.389 165.008 717.541 118.105 715.507 53.4156L715.463 51.9803L715.89 51.9674L715.934 53.4017C716.297 64.9556 717.053 88.9977 711.333 115.877C704.228 149.261 689.572 175.259 667.771 193.152C657.432 201.563 645.735 208.15 633.183 212.629C598.414 225.284 553.279 225.282 498.373 212.557C437.091 198.356 390.238 209.053 350.924 246.223C323.703 271.96 305.188 306.439 288.854 336.861C277.569 357.874 266.906 377.723 255.193 390.916C248.386 398.581 241.537 403.663 234.373 406.27" fill="#009C73"/>
</g>
<g opacity="0.794">
<path d="M229.537 408.187C222.813 410.582 215.515 410.847 208.635 408.945C199.818 406.72 194.24 403.155 191.579 398.045C186.945 389.138 191.646 376.807 197.089 362.529C208.146 333.525 221.907 297.428 161.179 272.055C137.038 261.969 105.811 267.853 83.4763 286.698C66.1003 301.354 39.3116 336.162 55.0909 404.601L54.659 404.701C48.4454 377.75 48.3486 353.319 54.3706 332.086C59.5945 313.668 69.5576 297.857 83.1827 286.362C94.3435 276.897 107.798 270.535 122.195 267.914C136.038 265.441 149.574 266.733 161.344 271.65C222.473 297.188 208.627 333.509 197.502 362.69C192.097 376.868 187.431 389.112 191.97 397.843C194.567 402.835 200.053 406.328 208.74 408.52C223.644 412.28 236.457 407.446 249.061 393.312C260.513 380.468 270.937 360.858 281.972 340.096C298.758 308.518 317.784 272.725 346.852 246.544C365.889 229.399 386.32 218.443 409.319 213.05C435.395 206.937 464.404 207.971 497.992 216.213C572.048 234.38 628.108 228.462 664.606 198.61C717.154 155.633 713.939 77.0462 712.882 51.2211C712.823 49.7783 712.772 48.5295 712.741 47.4946L713.184 47.4816C713.215 48.5152 713.268 49.7611 713.325 51.2036C713.834 63.6566 714.895 89.5695 709.254 118.055C702.26 153.377 687.332 180.596 664.886 198.954C654.85 207.098 643.505 213.48 631.334 217.83C596.924 230.354 552.242 229.98 497.886 216.643C435.058 201.228 387.159 210.833 347.146 246.871C318.133 273.001 299.13 308.756 282.362 340.302C271.314 361.088 260.878 380.72 249.392 393.605C242.916 400.868 236.381 405.698 229.537 408.189" fill="#009C73"/>
</g>
<g opacity="0.819">
<path d="M224.669 410.117C217.986 412.549 210.99 412.671 203.435 410.565C194.772 408.153 189.335 404.433 186.813 399.195C182.224 389.667 187.783 376.576 194.219 361.419C202.017 343.054 210.857 322.238 202.934 303.122C197.147 289.159 183.29 277.912 160.573 268.749C136.32 258.965 104.876 265.3 82.3315 284.511C65.0102 299.272 38.2406 334.07 53.5653 401.293L53.1182 401.395C47.0824 374.917 47.1046 350.825 53.1844 329.786C58.4586 311.53 68.437 295.755 82.0348 284.167C93.2818 274.532 106.833 267.975 121.367 265.135C135.321 262.461 148.938 263.564 160.745 268.327C183.582 277.54 197.52 288.865 203.357 302.951C211.354 322.248 202.475 343.158 194.642 361.605C188.249 376.661 182.728 389.662 187.226 399.004C189.688 404.116 195.03 407.757 203.558 410.132C235.743 419.097 253.301 385.698 275.524 343.414C292.706 310.725 312.181 273.67 343.065 247.179C362.385 230.604 383.208 220.169 406.724 215.277C433.477 209.712 463.174 211.352 497.514 220.29C570.869 239.094 626.389 233.562 662.543 203.848C716.524 159.48 711.823 75.7498 710.279 48.2366C710.156 46.036 710.057 44.2988 710.018 43.0108L710.476 42.9973C710.515 44.2749 710.614 46.0096 710.735 48.2068C711.479 61.4638 713.027 89.0499 707.645 119.228C700.969 156.658 685.893 185.249 662.832 204.199C652.975 212.242 641.816 218.541 629.836 222.826C595.715 235.245 551.373 234.57 497.399 220.73C433.122 203.997 384.177 212.51 343.366 247.523C312.548 273.957 293.096 310.97 275.932 343.623C264.645 365.097 254.897 383.644 243.631 396.244C237.462 403.141 231.215 407.742 224.673 410.123" fill="#009C73"/>
</g>
<g opacity="0.845">
<path d="M219.843 412.054C213.371 414.41 206.273 414.629 198.239 412.184C189.718 409.59 184.411 405.724 182.015 400.355C177.469 390.182 183.915 376.305 191.377 360.233C200.316 340.986 210.449 319.17 202.553 299.538C196.929 285.548 183 274.392 159.975 265.43C135.608 255.946 103.945 262.731 81.1831 282.321C63.9152 297.181 37.1693 331.969 52.0375 397.963L51.5753 398.068C45.7169 372.063 45.8572 348.31 51.9927 327.467C57.0278 309.831 67.0577 294.027 80.8728 281.962C92.2079 272.154 105.858 265.4 120.531 262.338C134.596 259.461 148.297 260.377 160.145 264.988C183.297 274 197.314 285.243 202.99 299.361C210.962 319.183 200.783 341.097 191.803 360.432C184.388 376.397 177.985 390.185 182.442 400.16C184.781 405.393 189.993 409.177 198.375 411.728C230.273 421.436 247.422 388.412 269.131 346.601C286.672 312.819 306.554 274.531 339.279 247.796C358.849 231.808 380.056 221.909 404.114 217.533C431.506 212.551 461.899 214.78 497.028 224.351C569.855 243.945 624.963 238.846 660.822 209.194C697.75 178.655 713.515 123.255 707.679 44.5323C707.484 41.8993 707.33 39.8195 707.29 38.5166L707.764 38.5027C707.802 39.7955 707.956 41.8709 708.152 44.4976C709.191 58.5273 711.355 87.7194 706.334 119.823C700.092 159.72 684.882 189.912 661.124 209.559C625.142 239.32 569.889 244.447 496.905 224.813C431.037 206.871 381.05 214.289 339.581 248.168C306.936 274.842 287.075 313.083 269.554 346.824C253.171 378.374 239.372 404.944 219.843 412.054Z" fill="#009C73"/>
</g>
<g opacity="0.871">
<path d="M214.892 413.996C208.378 416.367 201.205 416.494 193.044 413.802C184.652 411.035 179.463 407.02 177.179 401.525C172.675 390.688 180.035 375.997 188.558 358.986C198.642 338.856 210.072 316.038 202.186 295.928C196.698 281.931 182.694 270.873 159.375 262.122C134.893 252.934 103.003 260.179 80.0222 280.149C62.8107 295.103 36.0906 329.865 50.5098 394.652L50.0335 394.759C44.3512 369.226 44.6077 345.812 50.7954 325.166C55.9351 307.603 65.9597 291.863 79.7011 279.778C102.814 259.695 134.902 252.414 159.547 261.664C183.003 270.466 197.1 281.617 202.641 295.749C210.608 316.065 199.125 338.984 188.994 359.204C180.877 375.404 173.21 390.702 177.628 401.332C179.853 406.687 184.943 410.613 193.195 413.332C224.831 423.763 241.583 391.078 262.793 349.695C280.66 314.834 300.911 275.321 335.495 248.422C354.637 233.304 377.388 223.435 401.506 219.788C429.534 215.394 460.621 218.218 496.545 228.42C569.079 248.816 623.906 244.106 659.502 214.413C697.607 182.633 712.938 124.046 705.071 40.282C704.794 37.3381 704.595 35.2097 704.559 34.0289L705.047 34.0143C705.082 35.1794 705.285 37.299 705.557 40.2358C706.832 53.819 709.822 85.6396 705.271 119.81C699.598 162.408 684.306 194.363 659.813 214.785C650.268 222.698 639.414 228.884 627.741 233.065C594.013 245.341 550.036 243.967 496.41 228.887C429.866 209.987 377.327 216.504 335.792 248.804C301.289 275.636 281.065 315.097 263.224 349.912C247.339 380.906 233.939 407.047 214.886 413.983" fill="#009C73"/>
</g>
<g opacity="0.897">
<path d="M209.919 415.941C203.37 418.325 196.129 418.358 187.847 415.42C179.566 412.481 174.491 408.324 172.314 402.702C167.852 391.181 176.554 374.905 185.768 357.673C197.001 336.664 209.732 312.852 201.839 292.285C196.468 278.293 182.382 267.343 158.776 258.81C134.176 249.916 102.055 257.621 78.8475 277.98C61.6966 293.024 35.0127 327.763 48.9824 391.336L48.4896 391.444C42.986 366.382 43.3536 343.308 49.5926 322.861C54.8327 305.377 64.8488 289.702 78.5136 277.6C101.854 257.125 134.177 249.382 158.945 258.335C182.697 266.921 196.881 277.968 202.31 292.104C210.286 312.887 197.497 336.806 186.213 357.91C177.056 375.037 168.406 391.214 172.785 402.519C174.906 407.996 179.89 412.065 188.017 414.944C219.419 426.08 235.783 393.698 256.507 352.698C265.199 335.501 275.052 316.009 287.077 297.859C300.867 277.047 315.469 261.085 331.718 249.061C351.388 234.374 374.544 225.063 398.906 222.045C427.166 218.299 459.856 221.816 496.069 232.501C568.491 253.71 623.146 249.345 658.527 219.534C685.588 196.733 715.175 146.303 702.447 35.5427C702.1 32.5191 701.87 30.5223 701.841 29.5516L702.344 29.5365C702.37 30.4849 702.614 32.5832 702.949 35.4889C704.575 49.6505 708.387 82.814 704.414 119.196C699.44 164.75 684.112 198.64 658.853 219.923C649.413 227.833 638.647 234.008 627.054 238.162C593.447 250.394 549.541 248.686 495.929 232.987C427.79 212.88 374.176 218.273 332.019 249.469C295.65 276.382 275.095 317.049 256.959 352.928C241.548 383.419 228.531 409.17 209.922 415.943" fill="#009C73"/>
</g>
<g opacity="0.923">
<path d="M204.927 417.89C198.349 420.284 191.049 420.223 182.65 417.038C174.482 413.939 169.5 409.636 167.422 403.885C163.005 391.658 172.723 374.485 183.011 356.298C195.391 334.414 209.423 309.609 201.507 288.618C196.239 274.643 182.063 263.807 158.18 255.496C133.457 246.896 101.1 255.063 77.6629 275.819C60.5767 290.95 33.9321 325.648 47.457 388.016L46.9501 388.126C41.6182 363.536 42.1011 340.803 48.3887 320.559C53.7271 303.155 63.7337 287.546 77.3211 275.429C100.895 254.553 133.459 246.345 158.352 255.005C182.394 263.368 196.669 274.303 201.999 288.433C209.994 309.649 195.9 334.573 183.463 356.552C173.235 374.631 163.575 391.707 167.91 403.706C169.934 409.307 174.816 413.508 182.835 416.549C197.158 421.984 209.136 418.619 220.523 405.963C230.954 394.371 239.902 376.405 250.264 355.602C259.061 337.939 269.033 317.921 281.414 299.311C295.629 277.948 310.846 261.717 327.934 249.696C370.836 219.502 425.676 215.212 495.587 236.579C568.049 258.601 622.636 254.555 657.828 224.549C683.799 202.408 699.055 166.502 703.171 117.829C706.443 79.1244 701.584 43.673 699.755 30.3267C699.381 27.5898 699.132 25.7767 699.11 25.0651L699.629 25.0497C699.649 25.7331 699.894 27.5327 700.269 30.2567C702.101 43.6181 706.966 79.1127 703.687 117.872C699.559 166.685 684.243 202.709 658.162 224.943C648.802 232.884 638.087 239.073 626.532 243.214C593.007 255.416 549.105 253.383 495.43 237.068C425.682 215.751 370.993 220.017 328.227 250.113C289.971 277.036 268.209 320.727 250.723 355.834C235.762 385.862 223.11 411.265 204.922 417.888" fill="#009C73"/>
</g>
<g opacity="0.948">
<path d="M199.96 419.862C193.027 422.385 185.633 421.955 177.456 418.655C169.384 415.397 164.495 410.954 162.509 405.072C158.14 392.128 168.9 374.028 180.29 354.862C193.815 332.107 209.147 306.315 201.196 284.926C196.011 270.972 181.742 260.262 157.58 252.181C132.733 243.872 100.133 252.505 76.4612 273.666C59.4436 288.878 32.8474 323.53 45.9323 384.704L45.4102 384.816C40.2492 360.696 40.8452 338.302 47.1769 318.259C52.6093 300.94 62.6016 285.403 76.106 273.275C99.9166 251.992 132.728 243.314 157.75 251.682C182.075 259.816 196.451 270.632 201.697 284.745C209.737 306.371 194.336 332.28 180.749 355.14C169.423 374.195 158.726 392.192 163.016 404.906C164.948 410.632 169.738 414.968 177.656 418.165C191.896 423.911 203.732 420.805 214.907 408.381C225.158 396.988 233.921 379.119 244.068 358.43C261.804 322.269 283.877 277.266 324.153 250.326C367.652 221.228 423.573 218.065 495.107 240.653C567.759 263.513 622.364 259.751 657.404 229.469C712.795 181.598 705.978 80.596 696.984 24.6512C696.62 22.3872 696.4 21.0209 696.387 20.5841L696.921 20.5676C696.933 20.9697 697.162 22.4006 697.511 24.5659C699.488 36.8674 705.503 74.3017 703.067 115.652C701.686 139.077 697.789 160.021 691.485 177.902C683.808 199.676 672.459 217.16 657.753 229.873C622.564 260.284 567.788 264.081 494.947 241.161C423.577 218.625 367.807 221.768 324.45 250.769C284.293 277.629 262.254 322.562 244.549 358.664C234.385 379.391 225.606 397.288 215.305 408.738C210.368 414.225 205.301 417.922 199.961 419.865" fill="#009C73"/>
</g>
<g opacity="0.974">
<path d="M194.952 421.806C187.992 424.339 180.541 423.801 172.26 420.275C164.279 416.852 159.478 412.263 157.582 406.242C153.27 392.548 165.098 373.502 177.62 353.34C185.161 341.194 192.961 328.635 197.906 316.328C203.494 302.419 204.475 290.937 200.907 281.226C195.79 267.305 181.422 256.722 156.982 248.875C132.005 240.856 99.1576 249.962 75.246 271.532C58.3004 286.819 31.758 321.414 44.4042 381.389L43.8667 381.502C38.8764 357.851 39.5835 335.798 45.9559 315.96C51.479 298.728 61.4557 283.26 74.8764 271.122C86.6909 260.406 100.869 252.632 116.257 248.433C130.733 244.561 145.255 244.531 157.149 248.349C181.761 256.251 196.242 266.943 201.422 281.034C205.04 290.878 204.057 302.49 198.416 316.531C193.454 328.882 185.641 341.462 178.086 353.627C165.634 373.681 153.871 392.622 158.107 406.076C159.95 411.934 164.651 416.412 172.476 419.767C186.644 425.802 198.354 422.928 209.325 410.718C219.406 399.505 227.988 381.723 237.925 361.135C255.854 323.988 278.167 277.756 320.369 250.946C341.152 237.741 364.29 230.474 391.102 228.731C421.193 226.773 456.022 232.151 494.624 244.715C567.641 268.439 622.363 264.909 657.272 234.223C685.15 209.718 700.18 168.562 701.944 111.899C702.572 91.7391 701.717 59.1608 694.078 18.4758C693.785 16.9179 693.666 16.2781 693.661 16.1001L694.21 16.0832C694.215 16.2264 694.384 17.1268 694.619 18.3747C702.266 59.1097 703.121 91.7308 702.489 111.925C701.704 137.153 698.189 159.684 692.042 178.891C684.507 202.439 672.929 221.197 657.635 234.642C648.34 242.783 637.596 249.103 625.965 253.274C592.498 265.455 548.462 262.792 494.455 245.245C421.448 221.481 364.6 223.502 320.664 251.416C278.595 278.143 256.319 324.296 238.418 361.377C228.463 382.003 219.866 399.817 209.732 411.086C204.987 416.364 200.102 419.926 194.949 421.802" fill="#009C73"/>
</g>
<path d="M189.939 423.787C182.956 426.328 175.446 425.67 167.063 421.89C159.157 418.326 154.432 413.605 152.618 407.461C148.358 393.027 161.278 373.022 174.953 351.833C183.098 339.216 191.519 326.17 196.914 313.476C203.003 299.137 204.214 287.369 200.619 277.504C195.56 263.617 181.09 253.17 156.385 245.564C131.274 237.829 98.1727 247.411 74.0157 269.4C57.15 284.755 30.6659 319.294 42.8764 378.071L42.323 378.185C37.5081 355.001 38.3177 333.291 44.7292 313.66C50.0652 297.422 59.2928 282.737 71.6072 270.884C83.9216 259.031 98.9489 250.372 115.378 245.66C129.986 241.572 144.608 241.345 156.549 245.022C181.435 252.683 196.023 263.245 201.148 277.308C204.793 287.321 203.581 299.221 197.431 313.693C192.018 326.431 183.582 339.499 175.426 352.137C161.822 373.21 148.973 393.114 153.159 407.299C154.924 413.28 159.548 417.885 167.295 421.378C181.387 427.732 192.969 425.101 203.747 413.099C213.663 402.058 222.071 384.342 231.808 363.831C248.679 328.285 269.677 284.046 308.585 256.793C329.94 241.836 354.079 233.504 382.38 231.318C414.507 228.841 452.109 234.72 494.143 248.792C568.17 273.575 623.331 270.021 658.092 238.228C694.906 204.559 701.881 144.764 701.249 100.532C700.705 70.6473 697.254 40.8869 690.944 11.6711L691.494 11.5403C697.813 40.7964 701.269 70.5981 701.814 100.524C702.217 128.734 699.532 153.965 693.831 175.512C686.7 202.468 674.805 223.71 658.474 238.645C649.007 247.279 637.922 253.952 625.861 258.275C592.383 270.46 548.217 267.486 493.964 249.328C414.861 222.847 354.329 225.438 308.908 257.252C270.122 284.419 249.16 328.583 232.317 364.068C222.558 384.622 214.137 402.371 204.167 413.475C199.609 418.552 194.907 421.979 189.937 423.789" fill="#009C73"/>
</g>
</g>
</svg>
