<svg width="375" height="284" viewBox="0 0 375 284" fill="none" xmlns="http://www.w3.org/2000/svg">
<g clip-path="url(#clip0_807_2)">
<g clip-path="url(#clip1_807_2)">
<g opacity="0.22">
<path d="M-194.789 371.892L-194.88 371.917C-199.965 354.057 -203.401 335.767 -205.146 317.279C-206.445 301.865 -205.995 287.81 -203.811 275.503C-201.783 264.082 -198.265 254.157 -193.355 246.005C-189.16 238.79 -183.299 232.684 -176.261 228.197C-166.482 222.211 -154.833 220.056 -143.558 222.147C-131.836 224.123 -120.211 230.013 -109.942 239.183C-98.6941 249.4 -86.0666 257.987 -72.4298 264.691C-86.0913 258.026 -98.7415 249.462 -110.005 239.255C-130.903 220.595 -156.893 216.289 -176.213 228.283C-190.271 237.008 -199.782 253.344 -203.721 275.526C-208.307 301.358 -205.303 333.78 -194.792 371.896M27.5244 269.37C24.835 270.349 22.131 271.242 19.4125 272.049C8.99941 275.161 -1.76227 276.956 -12.6215 277.394C-17.7351 277.588 -22.8559 277.464 -27.9541 277.022C-11.9965 278.296 4.0586 276.578 19.3856 271.958C78.2628 254.492 129.119 196.018 148.954 122.985C152.728 108.765 157.559 94.8464 163.406 81.3456C166.707 73.8062 170.484 66.4842 174.714 59.4238C164.478 76.4082 155.959 97.5476 149.044 123.009C139.224 159.166 121.822 192.265 98.7191 218.73C77.915 242.561 53.4477 259.935 27.5234 269.37M476.281 76.9679C469.251 79.5269 459.439 78.4603 445.882 73.7245C431.45 68.6847 413.974 59.8926 395.471 50.5844C344.171 24.7737 280.772 -7.11283 228.615 11.871C226.653 12.5851 224.715 13.3682 222.786 14.2289C209.769 20.0383 198.193 28.8744 187.972 40.8597C191.877 36.2441 196.154 31.9563 200.759 28.0394C207.398 22.3957 214.8 17.7175 222.747 14.1429C276.005 -9.62469 342.265 23.7144 395.513 50.5001C414.011 59.8064 431.485 68.5961 445.912 73.6348C461.881 79.2091 472.637 79.6937 479.76 75.1494C487.463 70.2409 490.95 59.2791 490.419 41.6399L490.514 41.6364C491.045 59.3126 487.544 70.3007 479.811 75.2287C478.701 75.9338 477.516 76.5151 476.279 76.9622" fill="#009C73"/>
<path d="M-196.317 368.575L-196.422 368.604C-201.416 350.967 -204.772 332.908 -206.447 314.655C-207.691 299.413 -207.205 285.498 -205.005 273.298C-201.028 251.272 -191.502 234.935 -177.458 226.052C-167.639 219.917 -155.919 217.576 -144.496 219.468C-132.677 221.241 -120.938 226.91 -110.543 235.857C-61.4552 278.084 -12.9319 287.359 37.7997 264.208C85.2334 242.341 125.368 189.785 145.162 123.619C149.285 109.516 154.472 95.746 160.678 82.4276C165.73 71.5764 171.9 61.2817 179.088 51.7108C185.121 43.7116 192.203 36.5603 200.143 30.4494C207.276 25.0284 215.18 20.7061 223.593 17.6265L223.875 17.5239C278.859 -2.48842 342.84 26.6382 394.276 50.0489C412.515 58.3494 429.737 66.1944 443.892 70.4943C459.53 75.2475 470.071 75.2939 477.072 70.6386C484.742 65.5377 488.216 54.5852 487.691 37.1543L487.797 37.1521C488.324 54.6256 484.833 65.6067 477.128 70.726C470.102 75.3996 459.526 75.3583 443.856 70.5977C429.696 66.2932 412.467 58.451 394.227 50.1477C342.817 26.7454 278.85 -2.37146 223.913 17.6241L223.631 17.7267C188.38 30.5569 162.747 65.2056 145.265 123.645C135.753 155.442 121.04 185.107 102.716 209.432C93.8711 221.287 83.7548 232.138 72.548 241.791C62.0614 250.843 50.3853 258.417 37.8446 264.303C26.3146 269.669 14.0988 273.418 1.5434 275.442C-10.6026 277.316 -22.9725 277.201 -35.0817 275.102C-48.0846 272.735 -60.653 268.408 -72.3572 262.268C-86.0903 255.009 -98.9284 246.171 -110.611 235.932C-131.784 217.719 -158.001 213.874 -177.395 226.147C-191.408 235.012 -200.92 251.325 -204.892 273.32C-209.516 298.919 -206.629 330.968 -196.314 368.579" fill="#009C73"/>
<path d="M-197.844 365.256L-197.964 365.289C-202.867 347.875 -206.142 330.043 -207.747 312.023C-208.936 296.952 -208.411 283.174 -206.186 271.073C-202.167 249.229 -192.639 232.911 -178.628 223.887C-168.768 217.606 -156.977 215.082 -145.409 216.776C-133.503 218.351 -121.649 223.796 -111.129 232.524C-90.0696 249.996 -71.083 262.067 -52.819 269.054C-59.709 266.402 -66.3945 263.246 -72.8213 259.613C-84.9205 252.843 -97.4777 244.016 -111.212 232.622C-132.651 214.836 -159.088 211.449 -178.564 223.994C-192.544 232.999 -202.055 249.288 -206.066 271.098C-210.732 296.467 -207.969 328.147 -197.847 365.256M25.2888 268.815C16.2131 272.197 6.77066 274.499 -2.84341 275.673C-8.9486 276.392 -15.1067 276.552 -21.241 276.152C-6.11091 277.121 9.0766 274.588 25.1435 268.74C27.6139 267.841 30.1013 266.866 32.6114 265.809C77.9342 246.798 118.595 193.878 141.373 124.251C145.788 110.459 151.246 97.0229 157.701 84.0594C162.982 73.4419 169.384 63.4196 176.797 54.1634C183.083 46.3526 190.426 39.4558 198.616 33.6719C206.12 28.4507 214.381 24.4121 223.111 21.6971C248.353 13.8631 276.913 13.7952 310.406 21.4942C339.414 28.162 367.598 39.5725 392.465 49.6407C410.57 56.9714 427.672 63.895 441.648 67.4788C457.06 71.4299 467.457 71.0288 474.365 66.2202C482.018 60.8932 485.486 49.9184 484.968 32.6705L485.092 32.6668C485.612 49.9618 482.127 60.9706 474.437 66.3239C467.495 71.1553 457.067 71.5613 441.617 67.6008C427.632 64.0156 410.527 57.0903 392.417 49.7581C342.29 29.4627 279.903 4.2038 223.147 21.8179C187.092 33.0093 160.391 66.5239 141.491 124.292C130.783 157.019 115.656 187.083 97.746 211.23C88.9422 223.266 78.805 234.268 67.5276 244.026C57.1006 253.076 45.3395 260.463 32.6595 265.927C30.17 266.972 27.713 267.935 25.2885 268.817" fill="#009C73"/>
<path d="M-199.372 361.941L-199.507 361.977C-204.32 344.784 -207.513 327.179 -209.045 309.391C-209.438 304.23 -209.627 299.226 -209.614 294.38C-209.633 312.454 -206.767 334.673 -199.373 361.946M25.0023 268.473C1.02891 277.198 -19.0042 278.397 -39.6316 272.396C-59.8662 266.507 -81.4577 253.623 -111.819 229.317C-133.499 211.955 -160.149 209.023 -179.714 221.845C-188.557 227.639 -203.411 241.848 -208.131 273.409C-207.903 271.866 -207.649 270.347 -207.37 268.854C-203.309 247.187 -193.772 230.891 -179.791 221.728C-169.888 215.301 -158.027 212.595 -146.316 214.09C-134.321 215.471 -122.362 220.696 -111.732 229.208C-52.5676 276.586 -20.0444 285.515 27.4174 267.421C71.1368 250.764 111.288 198.812 137.579 124.894C142.276 111.409 147.999 98.3027 154.698 85.6909C160.208 75.3013 166.84 65.5468 174.476 56.6022C181.023 48.9778 188.633 42.3349 197.071 36.8776C204.959 31.8656 213.582 28.1187 222.628 25.7728C248.488 19.0487 277.097 18.9384 310.089 25.4395C338.648 31.0648 365.984 40.7144 390.098 49.2305C427.324 62.3743 456.727 72.7547 471.65 61.8576C479.292 56.2772 482.757 45.2642 482.244 28.1899L482.383 28.1861C482.899 45.3094 479.414 56.3606 471.731 61.9664C470.093 63.153 468.296 64.1015 466.392 64.7835C450.313 70.6358 423.3 61.0996 390.05 49.3577C341.377 32.168 280.806 10.786 222.661 25.9048C185.28 35.6237 158.287 67.0926 137.713 124.93C125.684 158.751 110.132 189.203 92.7412 212.993C83.9754 225.202 73.8198 236.351 62.4791 246.215C51.2338 255.8 39.4556 262.975 27.471 267.542C26.643 267.858 25.8196 268.164 25.0008 268.462" fill="#009C73"/>
<path d="M-200.898 358.624L-201.047 358.664C-205.771 341.691 -208.883 324.309 -210.342 306.751C-211.418 292.018 -210.81 278.508 -208.533 266.612C-204.424 245.12 -194.877 228.844 -180.922 219.545C-170.974 212.973 -159.043 210.086 -147.191 211.382C-135.108 212.564 -123.05 217.577 -112.317 225.878C-54.2549 270.79 -27.6154 286.142 22.2396 269.025C45.3325 261.093 67.3295 242.809 87.5966 214.687C104.534 191.191 120.076 161.194 133.796 125.53C155.754 68.4487 183.825 38.0465 222.147 29.845C248.409 24.2241 276.889 24.0742 309.221 29.3811C337.202 33.9749 363.628 41.8976 386.943 48.8868C424.426 60.1236 454.032 69.0012 468.92 57.5729C476.564 51.7047 480.032 40.6264 479.522 23.7044L479.676 23.7002C480.187 40.6721 476.699 51.7918 469.014 57.6972C467.133 59.1265 465.043 60.258 462.818 61.0518C446.625 66.9455 419.794 58.9013 386.899 49.0401C339.822 34.9264 281.232 17.362 222.18 30.0023C183.915 38.1927 155.88 68.5658 133.945 125.588C120.219 161.265 104.671 191.273 87.7263 214.781C67.8841 242.309 46.3897 260.419 23.8195 268.635C23.3093 268.821 22.8018 269.005 22.2893 269.176C-2.63801 277.737 -21.8347 278.287 -41.8999 271.015C-61.3963 263.94 -81.7233 249.736 -112.412 226.001C-134.318 209.056 -161.175 206.573 -180.835 219.674C-194.76 228.943 -204.279 245.186 -208.382 266.638C-213.145 291.562 -210.629 322.511 -200.897 358.625" fill="#009C73"/>
<path d="M-202.426 355.302L-202.59 355.346C-212.135 319.706 -214.528 289.092 -209.703 264.357C-205.544 243.037 -195.982 226.782 -182.05 217.348C-172.057 210.632 -160.055 207.564 -148.064 208.662C-135.893 209.648 -123.741 214.449 -112.916 222.543C-108.545 225.812 -104.422 228.923 -100.43 231.923C-49.1199 270.563 -29.9175 285.019 17.0477 270.622C39.9447 263.602 61.9842 245.376 82.546 216.453C98.7744 193.626 114.298 164.088 130.008 126.159C141.79 97.7139 154.795 76.5471 169.761 61.467C184.763 46.3506 201.737 37.3376 221.661 33.9135C280.996 23.715 337.388 37.5606 382.702 48.6854C420.958 58.0773 451.18 65.4939 466.154 53.381C473.821 47.1853 477.3 36.0071 476.795 19.2163L476.965 19.211C477.47 36.054 473.97 47.2777 466.261 53.5125C459.338 59.1121 448.866 60.9525 433.308 59.3055C419.131 57.8036 402.23 53.654 382.66 48.8494C337.363 37.7283 280.991 23.8868 221.69 34.0797C182.498 40.8153 153.412 70.0951 130.165 126.223C114.456 164.165 98.9244 193.711 82.6863 216.552C72.8783 230.351 62.6754 241.811 52.3629 250.613C40.9997 260.311 29.1355 267.098 17.1013 270.79C-6.16248 277.921 -22.7567 278.06 -40.1716 271.284C-57.2988 264.617 -74.4965 251.666 -100.526 232.061C-104.515 229.057 -108.641 225.951 -113.012 222.682C-135.126 206.148 -162.185 204.109 -181.945 217.49C-195.839 226.897 -205.376 243.115 -209.526 264.391C-214.354 289.104 -211.963 319.69 -202.426 355.302Z" fill="#009C73"/>
<path d="M-203.951 351.989L-204.131 352.036C-213.484 316.888 -215.75 286.631 -210.865 262.105C-206.652 240.955 -197.073 224.72 -183.162 215.155C-173.122 208.291 -161.047 205.042 -148.918 205.94C-136.663 206.734 -124.418 211.324 -113.507 219.215C-101.372 227.994 -91.1929 235.841 -82.2134 242.764C-44.9327 271.512 -29.4996 283.41 11.8645 272.225C34.9081 265.994 56.376 248.329 77.4792 218.227C97.0241 190.352 113.085 156.364 126.224 126.792C138.613 98.9073 152.072 78.3292 167.375 63.8957C182.944 49.206 200.544 40.7301 221.183 37.9837C279.827 30.1807 333.656 40.4651 376.911 48.7328C397.343 52.637 414.99 56.0089 429.633 56.8131C445.619 57.6904 456.335 55.312 463.354 49.3282C471.07 42.7497 474.576 31.4341 474.074 14.7327L474.259 14.727C474.763 31.4884 471.237 42.8568 463.475 49.4695C456.417 55.4876 445.66 57.8807 429.624 57.0016C414.965 56.1978 397.316 52.8234 376.878 48.9172C333.637 40.6541 279.821 30.371 221.208 38.1703C180.48 43.5898 151.24 70.9462 126.394 126.871C113.252 156.449 97.1787 190.453 77.6368 218.336C67.7168 232.482 57.5099 244.082 47.2975 252.808C35.8949 262.551 23.9926 269.145 11.9208 272.409C1.5708 275.208 -7.23481 276.58 -14.9995 276.605C-22.3948 276.683 -29.7389 275.37 -36.649 272.735C-50.3268 267.583 -63.7461 257.236 -82.319 242.915C-91.2972 235.993 -101.472 228.146 -113.608 219.37C-135.917 203.236 -163.174 201.641 -183.047 215.307C-196.921 224.847 -206.47 241.04 -210.673 262.141C-215.552 286.64 -213.288 316.869 -203.937 351.988" fill="#009C73"/>
<path d="M14.6295 271.665C12.0422 272.609 9.40118 273.398 6.72037 274.029C-11.4164 278.289 -24.1071 278.192 -35.6999 273.699C-46.9966 269.321 -57.2181 260.868 -71.364 249.168C-82.2865 240.133 -95.8774 228.891 -114.219 216.056C-136.71 200.316 -164.159 199.162 -184.151 213.114C-197.999 222.779 -207.571 238.951 -211.825 259.88C-216.766 284.171 -214.63 314.044 -205.474 348.671L-205.668 348.722C-214.831 314.066 -216.968 284.162 -212.021 259.841C-207.753 238.86 -198.154 222.645 -184.262 212.949C-174.172 205.943 -162.028 202.516 -149.764 203.215C-136.919 203.994 -124.556 208.389 -114.101 215.892C-95.7555 228.731 -82.1583 239.977 -71.2331 249.012C-42.5132 272.765 -30.6255 282.597 6.6786 273.833C29.5661 268.457 51.06 250.848 72.389 220.004C91.792 191.947 108.782 156.173 122.435 127.427C135.4 100.127 149.311 80.1394 164.962 66.3203C180.401 52.3742 199.973 43.8534 220.7 42.0544C277.282 36.5544 327.989 43.5493 368.735 49.1717C412.826 55.2588 444.679 59.649 460.485 45.4498C468.296 38.433 471.85 26.9171 471.349 10.2461L471.549 10.2403C472.054 26.977 468.476 38.5398 460.619 45.5989C444.74 59.8622 412.85 55.4606 368.707 49.3702C327.972 43.7503 277.279 36.7557 220.72 42.2556C178.949 46.3158 148.693 72.6108 122.617 127.515C108.962 156.266 91.9666 192.05 72.5551 220.122C53.6675 247.428 34.6432 264.384 14.6347 271.667" fill="#009C73"/>
<path d="M11.1362 272.952C8.00724 274.093 4.79603 274.995 1.53036 275.649C-32.8396 282.528 -42.8735 273.287 -64.8566 253.038C-76.6419 242.183 -91.3102 228.674 -114.822 212.743C-137.482 197.39 -165.124 196.672 -185.237 210.917C-199.066 220.708 -208.657 236.857 -212.971 257.618C-217.977 281.704 -215.968 311.224 -207.002 345.357L-207.211 345.412C-216.184 311.246 -218.192 281.693 -213.18 257.574C-208.854 236.76 -199.235 220.565 -185.36 210.742C-175.219 203.591 -163.002 199.985 -150.602 200.484C-137.734 201.042 -125.286 205.232 -114.699 212.569C-91.1727 228.508 -76.4989 242.024 -64.7087 252.883C-42.7786 273.08 -32.7722 282.298 1.49084 275.441C22.9319 271.149 43.1629 255.439 63.3373 227.411C81.1833 202.619 96.8148 171.495 111.933 141.395C114.137 137.007 116.415 132.469 118.646 128.065C145.942 74.1485 177.267 48.8786 220.216 46.1307C272.613 42.7786 319.188 46.9029 356.611 50.2172C405.435 54.5424 440.715 57.6663 457.503 41.8281C465.488 34.2948 469.124 22.4989 468.622 5.76556L468.833 5.76105C469.339 22.5591 465.68 34.4091 457.648 41.9861C453.975 45.3506 449.648 47.9226 444.938 49.5419C425.679 56.5516 395.414 53.8712 356.589 50.4326C319.174 47.1187 272.608 42.9954 220.226 46.3471C177.363 49.0895 146.093 74.3225 118.834 128.159C116.606 132.563 114.321 137.103 112.121 141.489C96.9998 171.597 81.3637 202.729 63.5081 227.535C53.8592 240.944 44.4762 251.264 34.8355 259.091C27.7662 265.005 19.7542 269.691 11.1334 272.953" fill="#009C73"/>
<path d="M7.23779 274.396C3.70181 275.689 0.0536602 276.651 -3.6599 277.271C-35.7301 282.595 -44.2645 273.553 -61.2674 255.537C-72.3312 243.814 -87.4826 227.764 -115.423 209.431C-138.243 194.457 -166.071 194.175 -186.317 208.709C-216.824 230.609 -224.92 279.209 -208.532 342.036L-208.755 342.095C-217.54 308.418 -219.419 279.213 -214.34 255.295C-209.955 234.645 -200.311 218.471 -186.455 208.522C-176.261 201.225 -163.971 197.441 -151.438 197.739C-138.545 198.077 -126.012 202.064 -115.293 209.237C-87.3333 227.58 -72.168 243.649 -61.0965 255.378C-44.1493 273.334 -35.6383 282.344 -3.69431 277.042C41.3071 269.573 71.8133 211.023 101.316 154.404C105.745 145.903 110.325 137.114 114.854 128.699C128.892 102.625 143.681 83.8009 160.072 71.1636C177.376 57.8187 196.891 50.9628 219.731 50.2061C264.42 48.7245 303.099 50.5452 337.228 52.1501C366.129 53.5094 391.087 54.6819 410.758 53.2201C431.931 51.6455 445.776 46.9946 454.331 38.5833C462.622 30.4311 466.403 18.2269 465.895 1.28594L466.126 1.27867C466.637 18.2917 462.833 30.5481 454.493 38.7478C445.897 47.1976 432.006 51.8715 410.775 53.45C391.089 54.9153 366.125 53.7385 337.218 52.3804C303.094 50.7759 264.416 48.9568 219.74 50.4362C175.735 51.8935 143.45 76.0653 115.059 128.811C110.531 137.224 105.952 146.013 101.522 154.512C74.435 206.498 46.497 260.109 7.24045 274.4" fill="#009C73"/>
<path d="M3.37953 275.885C-0.576176 277.33 -4.67794 278.338 -8.85271 278.892C-23.2242 280.796 -33.0186 279.855 -40.6115 275.841C-47.8592 272.009 -53.0693 265.463 -59.6685 257.176C-70.0339 244.158 -84.2318 226.33 -116.03 206.119C-139.002 191.518 -167.016 191.668 -187.398 206.499C-217.83 228.643 -226.091 276.835 -210.063 338.725L-210.301 338.787C-218.898 305.596 -220.647 276.739 -215.499 253.018C-211.054 232.531 -201.386 216.381 -187.542 206.305C-177.292 198.863 -164.928 194.9 -152.262 194.996C-139.351 195.12 -126.74 198.908 -115.897 205.917C-84.0634 226.15 -69.8511 243.997 -59.4745 257.028C-46.3163 273.552 -39.0682 282.654 -8.88704 278.654C10.3086 276.111 28.4448 263.461 46.556 239.983C62.7369 219.007 77.4682 191.43 91.7151 164.761C97.9999 152.995 104.501 140.829 111.066 129.335C125.596 103.889 140.818 85.6475 157.6 73.5706C175.496 60.691 195.661 54.3794 219.249 54.2768C249.717 54.1482 277.656 54.7189 302.307 55.2263C378.669 56.7987 429.118 57.836 450.81 35.9359C459.65 27.0126 463.692 14.2109 463.17 -3.20165L463.417 -3.20839C463.943 14.274 459.88 27.1309 450.988 36.1085C429.22 58.0841 378.73 57.0448 302.305 55.4718C277.655 54.964 249.718 54.3927 219.251 54.5206C174.06 54.7177 140.762 77.8293 111.282 129.454C104.716 140.946 98.2212 153.109 91.9371 164.874C77.6868 191.557 62.9483 219.138 46.7515 240.131C38.0355 251.43 29.5897 259.999 20.9287 266.318C15.5602 270.321 9.65146 273.543 3.37868 275.888" fill="#009C73"/>
<path d="M-0.703491 277.462C-5.00561 279.033 -9.48829 280.056 -14.046 280.509C-43.0379 283.399 -48.8622 274.458 -59.4353 258.229C-68.7134 243.989 -81.4193 224.485 -116.63 202.802C-139.744 188.568 -167.942 189.149 -188.469 204.28C-218.832 226.662 -227.259 274.454 -211.591 335.395L-211.844 335.461C-220.252 302.756 -221.871 274.244 -216.655 250.718C-212.148 230.393 -202.455 214.263 -188.621 204.065C-178.313 196.476 -165.874 192.333 -153.075 192.228C-140.146 192.137 -127.457 195.726 -116.489 202.574C-81.2282 224.288 -68.5035 243.82 -59.2126 258.081C-48.6949 274.224 -42.9037 283.113 -14.0677 280.244C4.62233 278.381 21.5171 267.151 39.1019 244.902C54.6539 225.225 68.3448 200.031 82.8402 173.358C90.7069 158.88 98.8421 143.909 107.28 129.954C122.279 105.148 137.924 87.4861 155.113 75.958C173.608 63.5533 194.43 57.7881 218.769 58.3356L224.97 58.4753C345.538 61.1923 418.311 62.8312 446.607 34.3222C456.471 24.3842 460.997 10.6393 460.446 -7.69809L460.707 -7.70585C461.261 10.7071 456.71 24.5144 446.793 34.5057C440.833 40.506 432.908 45.1837 423.001 48.7896C385.72 62.3586 320.266 60.8832 224.965 58.7367L218.763 58.5974C172.344 57.5548 138.03 79.6037 107.505 130.09C99.0681 144.041 90.9366 159.008 83.0729 173.483C68.5728 200.166 54.8768 225.369 39.3121 245.067C30.9451 255.653 22.839 263.613 14.5289 269.403C9.82363 272.74 4.70293 275.449 -0.703491 277.462Z" fill="#009C73"/>
<path d="M-4.8904 279.08C-9.50339 280.771 -14.3331 281.798 -19.2349 282.131C-47.2312 284.02 -52.1009 274.553 -60.1665 258.872C-68.0995 243.45 -78.9606 222.323 -117.228 199.492C-140.475 185.617 -168.86 186.629 -189.536 202.064C-219.833 224.684 -228.427 272.075 -213.11 332.084L-213.378 332.153C-221.603 299.934 -223.091 271.768 -217.803 248.434C-213.235 228.271 -203.516 212.16 -189.698 201.843C-168.933 186.34 -140.43 185.324 -117.085 199.252C-78.7513 222.12 -67.8676 243.289 -59.9189 258.742C-51.9066 274.324 -47.0677 283.727 -19.2514 281.852C20.3802 279.181 46.659 231.374 74.485 180.76C83.724 163.953 93.275 146.571 103.493 130.591C118.932 106.432 134.997 89.3465 152.607 78.3547C171.707 66.4321 193.193 61.216 218.285 62.4107C284.351 65.5546 331.086 65.1777 365.364 61.2254C402.871 56.9006 427.066 48.2774 441.507 34.0851C453.012 22.7793 458.313 7.64254 457.718 -12.1805L457.994 -12.1884C458.593 7.71933 453.264 22.9198 441.707 34.2849C427.218 48.5218 402.972 57.1701 365.401 61.5025C331.107 65.4561 284.358 65.8331 218.28 62.6928C170.588 60.4233 135.263 81.415 103.732 130.745C93.5205 146.722 83.9699 164.097 74.7361 180.897C50.354 225.229 27.1616 267.414 -4.8904 279.08Z" fill="#009C73"/>
<path d="M-9.07404 280.76C-14.0015 282.562 -19.1831 283.572 -24.4265 283.753C-37.2503 284.21 -45.4293 282.352 -50.9454 277.722C-56.0752 273.417 -58.5053 267.144 -61.5821 259.199C-68.0056 242.615 -76.8034 219.902 -117.828 196.18C-141.208 182.661 -169.775 184.099 -190.604 199.845C-204.354 210.237 -214.061 226.269 -218.676 246.205C-224.019 269.3 -222.664 297.079 -214.64 328.769L-214.923 328.841C-222.962 297.106 -224.316 269.28 -218.959 246.141C-214.329 226.137 -204.585 210.048 -190.78 199.614C-169.856 183.797 -141.163 182.351 -117.682 195.929C-76.572 219.702 -67.7524 242.471 -61.3104 259.095C-55.1908 274.893 -51.4976 284.429 -24.4372 283.463C-6.89403 282.835 8.88449 273.265 25.217 253.347C39.7519 235.624 52.7562 212.143 66.5239 187.283C76.9684 168.423 87.7684 148.924 99.7054 131.229C115.562 107.723 132.041 91.2089 150.086 80.744C169.799 69.3124 191.949 64.6481 217.804 66.4883C277.981 70.7687 324.848 70.2053 361.08 64.7641C395.999 59.5207 420.421 49.8234 435.738 35.1196C449.35 22.0543 455.648 5.11657 454.99 -16.6594L455.281 -16.6687C455.939 5.19594 449.611 22.2051 435.937 35.3302C420.573 50.0745 396.103 59.7978 361.121 65.0515C324.866 70.4956 277.979 71.0601 217.781 66.7809C168.78 63.2939 132.439 83.222 99.9439 131.393C88.0146 149.077 77.2186 168.573 66.7762 187.426C53.0019 212.297 39.9921 235.79 25.44 253.533C13.9338 267.563 2.69596 276.477 -9.07745 280.763" fill="#009C73"/>
<path d="M-13.4588 282.49C-18.637 284.384 -24.1058 285.359 -29.6193 285.373C-56.3652 285.496 -59.1948 275.067 -63.4786 259.28C-68.2876 241.556 -74.8768 217.275 -118.428 192.869C-141.932 179.699 -170.683 181.566 -191.675 197.626C-221.846 220.708 -230.773 267.3 -216.167 325.455L-216.464 325.529C-224.314 294.275 -225.543 266.792 -220.116 243.844C-215.42 223.999 -205.653 207.931 -191.863 197.378C-170.774 181.245 -141.891 179.368 -118.28 192.598C-74.6159 217.065 -68.009 241.416 -63.1801 259.194C-58.9329 274.845 -56.1273 285.185 -29.6173 285.063C-12.5191 284.984 2.8117 276.094 18.6291 257.085C32.7382 240.127 45.4327 217.301 58.8723 193.136C70.3847 172.43 82.2972 151.016 95.921 131.857C112.171 109.005 129.06 93.0622 147.554 83.1158C167.886 72.1817 190.712 68.0719 217.326 70.5563C324.069 80.5135 395.375 69.4223 429.281 37.588C445.258 22.5869 452.993 2.8257 452.272 -21.1475L452.58 -21.1531C453.304 2.91147 445.536 22.7508 429.493 37.8153C419.832 46.8857 407.159 54.2746 391.472 59.9819C352.045 74.3324 293.751 77.9981 217.299 70.8661C166.956 66.168 129.597 85.0364 96.1724 132.039C82.5589 151.183 70.6541 172.588 59.1419 193.289C45.6954 217.467 32.9933 240.305 18.8661 257.286C8.10986 270.213 -2.42857 278.479 -13.454 282.492" fill="#009C73"/>
<path d="M-17.9163 284.254C-23.3238 286.23 -29.0579 287.16 -34.8128 286.992C-47.1761 286.672 -54.6781 284.164 -59.1495 278.867C-63.2484 274.006 -64.3924 267.123 -65.7171 259.153C-68.8557 240.297 -73.1478 214.47 -119.031 189.554C-130.561 183.274 -143.67 180.483 -156.759 181.521C-169.848 182.558 -182.352 187.381 -192.749 195.4C-222.86 218.704 -231.952 264.9 -217.695 322.134L-218.007 322.212C-225.672 291.439 -226.771 264.297 -221.275 241.539C-216.521 221.854 -206.725 205.808 -192.946 195.145C-182.5 187.088 -169.936 182.242 -156.785 181.199C-143.634 180.156 -130.463 182.961 -118.877 189.271C-72.8545 214.261 -68.5448 240.177 -65.4003 259.1C-62.7096 275.293 -60.9326 285.994 -34.8058 286.67C-18.0858 287.104 -3.14998 278.821 12.1971 260.605C25.9224 244.315 38.3235 222.051 51.4535 198.48C63.9306 176.079 76.8336 152.916 92.1281 132.488C108.75 110.29 126.046 94.9148 145 85.481C165.954 75.0525 189.454 71.5019 216.838 74.6277C269.808 80.6757 314.693 80.3173 350.252 73.5674C381.298 67.6747 405.533 56.8756 422.284 41.4693C440.919 24.3289 450.344 1.12493 449.54 -25.6337L449.861 -25.644C450.669 1.21002 441.208 24.4994 422.501 41.7051C405.706 57.153 381.418 67.978 350.312 73.8828C314.721 80.638 269.803 80.9956 216.801 74.9463C165.077 69.0431 126.706 86.8486 92.3855 132.681C77.1031 153.09 64.2072 176.246 51.7333 198.634C38.5958 222.22 26.1865 244.497 12.4422 260.81C2.35739 272.781 -7.55754 280.48 -17.9186 284.251" fill="#009C73"/>
<path d="M-22.4378 286.05C-28.0556 288.102 -34.0358 288.974 -40.0056 288.613C-66.1739 287.148 -67.0201 275.283 -68.192 258.859C-69.615 238.883 -71.5655 211.525 -119.631 186.241C-131.354 180.136 -144.59 177.544 -157.75 178.775C-170.91 180.005 -183.435 185.007 -193.823 193.18C-223.872 216.71 -233.128 262.503 -219.221 318.818L-219.548 318.899C-227.03 288.607 -228 261.805 -222.433 239.236C-217.616 219.711 -207.796 203.686 -194.032 192.914C-183.592 184.701 -171.005 179.675 -157.78 178.439C-144.555 177.203 -131.255 179.809 -119.474 185.944C-71.2425 211.316 -69.2846 238.782 -67.8563 258.837C-67.2729 267.024 -66.7719 274.096 -63.1892 279.206C-59.3235 284.725 -51.9524 287.606 -39.9879 288.276C-4.1256 290.283 18.2851 250.029 44.2343 203.415C57.5792 179.443 71.3792 154.655 88.344 133.123C105.309 111.591 123.015 96.766 142.443 87.8409C164.029 77.9253 188.205 74.9361 216.359 78.7033C310.576 91.3102 377.445 80.4775 415.107 46.5055C443.921 20.5153 447.342 -12.6553 446.814 -30.1146L447.151 -30.1244C447.627 -16.8689 445.56 -3.64473 441.061 8.83296C435.736 23.3992 426.898 36.4256 415.331 46.7562C398.086 62.3114 374.226 73.1515 344.411 78.9752C309.728 85.7457 266.63 85.7708 216.307 79.0391C163.171 71.9299 123.787 88.6749 88.6016 133.333C71.6527 154.845 57.86 179.621 44.5217 203.582C31.6776 226.652 19.547 248.443 6.15324 264.168C-3.32693 275.297 -12.6798 282.496 -22.446 286.051" fill="#009C73"/>
<path d="M-26.9958 287.851C-32.8144 289.977 -39.0312 290.79 -45.201 290.233C-71.2527 288.009 -71.0752 275.6 -70.8264 258.422C-70.5246 237.34 -70.1117 208.464 -120.226 182.928C-144.08 170.773 -173.391 173.924 -194.901 190.953C-224.889 214.71 -234.311 260.1 -220.748 315.502L-221.09 315.586C-228.387 285.774 -229.228 259.311 -223.595 236.934C-218.716 217.564 -208.871 201.571 -195.123 190.684C-173.508 173.567 -144.049 170.4 -120.072 182.618C-69.7605 208.257 -70.1757 237.255 -70.4792 258.428C-70.7222 275.412 -70.8988 287.683 -45.1714 289.881C-9.96242 292.892 11.88 253.561 37.1705 208.021C51.303 182.573 65.9173 156.258 84.5578 133.755C101.868 112.858 119.962 98.6073 139.874 90.1872C162.092 80.7924 186.954 78.3723 215.876 82.7749C305.244 96.3934 369.93 86.1436 408.132 52.3093C440.822 23.3575 444.693 -14.5686 444.091 -34.5996L444.443 -34.6109C444.886 -20.0519 442.698 -5.53241 437.984 8.24922C432.121 25.3416 421.914 40.6157 408.366 52.5721C390.903 68.0396 367.464 78.7116 338.713 84.2895C305.075 90.8148 263.73 90.4222 215.826 83.122C161.253 74.8067 120.854 90.4909 84.8306 133.978C66.2106 156.456 51.6097 182.755 37.4801 208.19C16.772 245.48 -1.63304 278.615 -26.9953 287.846" fill="#009C73"/>
<path d="M-31.6723 289.694C-37.6559 291.878 -44.071 292.618 -50.3945 291.852C-62.3709 290.48 -69.3486 286.832 -72.3496 280.376C-75.0999 274.46 -74.3939 266.768 -73.5782 257.858C-71.5487 235.681 -68.769 205.309 -120.83 179.617C-144.796 167.79 -174.298 171.371 -195.989 188.738C-225.912 212.699 -235.492 257.696 -222.275 312.184L-222.632 312.271C-229.748 282.936 -230.464 256.814 -224.758 234.626C-219.82 215.414 -209.948 199.447 -196.22 188.452C-185.454 179.802 -172.453 174.387 -158.73 172.838C-145.687 171.298 -132.476 173.536 -120.669 179.287C-97.4847 190.728 -83.0589 203.97 -76.5642 219.767C-70.9747 233.37 -72.1638 246.397 -73.216 257.891C-74.8452 275.689 -76.0218 288.549 -50.3561 291.487C-15.7278 295.451 5.5727 256.941 30.2378 212.349C44.3959 186.752 60.4426 157.739 80.7716 134.384C98.4006 114.133 116.889 100.437 137.295 92.5208C160.162 83.6511 185.698 81.7985 215.395 86.8448C300.74 101.35 363.408 91.8218 401.66 58.5258C439.164 25.8786 441.919 -20.6167 441.368 -39.0882L441.736 -39.0995C442.293 -20.5728 439.526 26.0522 401.905 58.8016C384.38 74.0563 361.358 84.449 333.478 89.6927C300.874 95.8248 261.126 94.988 215.337 87.2055C159.3 77.6809 117.884 92.3059 81.0562 134.622C60.7539 157.948 44.7174 186.943 30.5674 212.524C10.5912 248.64 -7.18591 280.779 -31.6655 289.69" fill="#009C73"/>
<path d="M-36.3353 291.581C-42.4932 293.816 -49.1144 294.466 -55.5895 293.472C-65.1765 292.102 -71.4746 289.209 -74.8438 284.63C-79.75 277.963 -78.1973 268.332 -76.3989 257.181C-72.6479 233.921 -67.5131 202.067 -121.432 176.306C-145.507 164.807 -175.206 168.816 -197.081 186.523C-226.937 210.692 -236.678 255.284 -223.801 308.868L-224.173 308.958C-231.106 280.103 -231.696 254.318 -225.925 232.319C-220.926 213.266 -211.035 197.327 -197.321 186.227C-186.481 177.418 -173.393 171.817 -159.537 170.056C-146.477 168.314 -133.192 170.363 -121.265 175.961C-97.2313 187.442 -82.7143 200.972 -76.884 217.324C-71.8586 231.424 -74.069 245.139 -76.0213 257.236C-77.8058 268.303 -79.3466 277.861 -74.5357 284.398C-71.2299 288.89 -65.0152 291.732 -55.5349 293.087C-21.4245 297.965 -0.643642 260.188 23.4139 216.447C38.1951 189.571 54.9502 159.116 76.9828 135.015C94.9142 115.399 113.793 102.258 134.708 94.8493C158.204 86.5185 184.439 85.2342 214.912 90.9199C296.941 106.228 357.815 97.4787 395.843 64.9114C436.37 30.2053 439.271 -22.5145 438.639 -43.5678L439.021 -43.5792C439.554 -26.4442 437.411 -9.33099 432.669 7.14329C425.682 30.8719 413.374 50.4044 396.095 65.2028C384.489 75.0057 371.204 82.6255 356.883 87.6933C320.544 100.92 273.003 102.154 214.844 91.2966C157.317 80.5607 114.884 94.1258 77.2697 135.276C55.2674 159.344 38.526 189.781 23.7537 216.635C11.7255 238.503 0.363569 259.158 -12.1185 273.445C-20.0925 282.573 -28.0372 288.559 -36.3347 291.58" fill="#009C73"/>
<path d="M-41.062 293.462C-47.3747 295.746 -54.1816 296.309 -60.7837 295.092C-70.154 293.49 -76.2459 290.418 -79.4087 285.696C-84.224 278.509 -81.9229 268.262 -79.2623 256.398C-76.4207 243.739 -73.2029 229.391 -77.6338 214.913C-82.7656 198.144 -97.2882 184.432 -122.032 172.991C-146.216 161.807 -176.11 166.251 -198.183 184.307C-227.969 208.68 -237.864 252.87 -225.329 305.551L-225.721 305.645C-232.474 277.267 -232.937 251.82 -227.101 230.011C-222.04 211.116 -212.127 195.206 -198.432 184.002C-187.516 175.032 -174.34 169.242 -160.35 167.268C-147.273 165.325 -133.912 167.185 -121.864 172.629C-97.0107 184.121 -82.4193 197.912 -77.2523 214.794C-72.7912 229.373 -76.0221 243.775 -78.8728 256.483C-81.5155 268.259 -83.7969 278.428 -79.0769 285.473C-75.9812 290.093 -69.9745 293.111 -60.7158 294.694C-45.307 297.33 -31.8503 291.413 -18.3669 276.075C-6.18255 262.215 4.92896 241.878 16.6877 220.349C32.0403 192.247 49.4412 160.397 73.1986 135.646C91.4211 116.661 110.692 104.072 132.115 97.1614C156.255 89.3746 183.181 88.6646 214.43 94.9903C293.736 111.043 353.05 103.075 390.724 71.3057C432.115 36.4021 436.801 -18.4601 435.911 -48.0565L436.309 -48.0683C437.202 -18.4005 432.499 36.5988 390.98 71.6094C353.209 103.461 293.781 111.457 214.35 95.3799C156.105 83.5899 111.349 96.4745 73.4839 135.921C49.7638 160.634 32.3763 192.46 17.0358 220.539C5.2629 242.094 -5.85474 262.449 -18.0686 276.342C-25.6216 284.934 -33.1714 290.59 -41.061 293.462" fill="#009C73"/>
<path d="M-45.8259 295.358C-52.2848 297.685 -59.2669 298.153 -65.9788 296.71C-75.1497 294.889 -81.054 291.645 -84.0286 286.794C-88.7716 279.061 -85.7042 268.156 -82.144 255.527C-78.4093 242.266 -74.1763 227.237 -78.0474 212.303C-82.5221 195.038 -97.1047 181.097 -122.63 169.681C-146.927 158.814 -177.017 163.69 -199.288 182.1C-229.005 206.667 -239.052 250.454 -226.855 302.234L-227.257 302.328C-233.83 274.426 -234.171 249.319 -228.27 227.701C-223.155 208.965 -213.225 193.086 -199.552 181.782C-188.556 172.651 -175.289 166.673 -161.164 164.486C-148.069 162.342 -134.632 164.014 -122.462 169.304C-96.815 180.774 -82.1562 194.804 -77.6482 212.198C-73.7495 227.24 -77.9986 242.327 -81.7462 255.638C-85.2724 268.17 -88.3257 278.997 -83.6806 286.578C-80.7692 291.326 -74.9533 294.507 -65.9016 296.305C-50.6787 299.328 -37.4507 293.794 -24.275 278.889C-12.3467 265.395 -1.4708 245.326 10.0442 224.08C25.9188 194.79 43.914 161.591 69.414 136.28C87.9171 117.916 107.577 105.876 129.518 99.469C154.303 92.2327 181.921 92.1016 213.95 99.0671C291.022 115.827 349.001 108.618 386.277 77.6355C408.897 58.8374 435.397 20.9933 433.183 -52.5389L433.596 -52.5518C433.834 -44.588 434.566 -20.355 428.453 5.82799C421.295 36.5177 407.192 60.7827 386.534 77.9505C375.787 86.7924 363.587 93.7015 350.477 98.37C315.277 111.182 269.537 111.571 213.854 99.4639C154.106 86.4692 108.294 98.2599 69.6974 136.567C44.2365 161.836 26.2591 195.006 10.399 224.271C-1.12242 245.538 -12.0128 265.631 -23.9741 279.157C-31.139 287.262 -38.3243 292.619 -45.8371 295.353" fill="#009C73"/>
<path d="M-50.6284 297.267C-57.2238 299.632 -64.37 300.002 -71.1742 298.329C-80.1606 296.302 -85.8948 292.894 -88.7034 287.911C-93.3871 279.604 -89.5156 268.003 -85.0328 254.569C-75.7169 226.659 -64.1269 191.924 -123.23 166.37C-147.262 155.979 -178.277 161.417 -200.405 179.899C-217.824 194.447 -244.621 229.255 -228.385 298.919L-228.802 299.017C-235.195 271.59 -235.413 246.82 -229.449 225.398C-224.279 206.821 -214.332 190.976 -200.681 179.575C-189.604 170.277 -176.244 164.108 -161.984 161.705C-148.249 159.431 -134.791 160.91 -123.061 165.981C-96.6419 177.404 -81.9244 191.652 -78.065 209.538C-74.7232 225.03 -79.9897 240.798 -84.6292 254.708C-89.0798 268.045 -92.9232 279.563 -88.3326 287.705C-85.5862 292.576 -79.9437 295.915 -71.0824 297.915C-56.0264 301.312 -43.0141 296.139 -30.1305 281.633C-18.4467 268.476 -7.79862 248.65 3.47374 227.658C19.8242 197.211 38.3606 162.7 65.6308 136.914C105.059 99.6355 152.036 88.904 213.47 103.141C288.753 120.587 345.623 114.087 382.501 83.8211C416.389 56.0083 432.541 9.10529 430.507 -55.5844L430.463 -57.0197L430.89 -57.0326L430.934 -55.5983C431.297 -44.0445 432.053 -20.0023 426.333 6.87732C419.228 40.2605 404.572 66.259 382.771 84.1515C372.432 92.5627 360.735 99.1496 348.183 103.629C313.414 116.284 268.279 116.282 213.373 103.557C152.091 89.3555 105.238 100.053 65.9243 137.223C38.7033 162.96 20.1882 197.439 3.85381 227.861C-7.43059 248.874 -18.0939 268.723 -29.8071 281.916C-36.6142 289.581 -43.4631 294.663 -50.6273 297.27" fill="#009C73"/>
<path d="M-55.4635 299.187C-62.1869 301.582 -69.4853 301.847 -76.3646 299.945C-85.1825 297.72 -90.7603 294.154 -93.4215 289.044C-98.055 280.138 -93.3542 267.807 -87.9112 253.529C-76.8542 224.525 -63.0934 188.428 -123.821 163.055C-147.962 152.969 -179.189 158.853 -201.524 177.698C-218.9 192.354 -245.688 227.162 -229.909 295.601L-230.341 295.701C-236.555 268.75 -236.651 244.319 -230.629 223.086C-225.405 204.668 -215.442 188.857 -201.817 177.362C-190.656 167.897 -177.202 161.535 -162.805 158.914C-148.962 156.441 -135.426 157.733 -123.656 162.65C-62.5274 188.188 -76.3729 224.509 -87.498 253.69C-92.903 267.868 -97.5686 280.112 -93.0296 288.843C-90.4327 293.835 -84.9474 297.328 -76.2598 299.52C-61.3559 303.28 -48.5434 298.446 -35.9385 284.312C-24.4869 271.467 -14.0632 251.858 -3.02753 231.096C13.7583 199.518 32.7839 163.725 61.8516 137.544C80.8887 120.399 101.32 109.443 124.319 104.05C150.395 97.9372 179.404 98.9709 212.992 107.213C287.048 125.38 343.108 119.462 379.606 89.6102C432.154 46.6329 428.939 -31.9538 427.882 -57.779C427.823 -59.2218 427.772 -60.4706 427.741 -61.5054L428.184 -61.5185C428.215 -60.4849 428.268 -59.239 428.325 -57.7964C428.834 -45.3435 429.895 -19.4305 424.254 9.05458C417.26 44.3768 402.332 71.5959 379.886 89.954C369.85 98.0978 358.505 104.48 346.334 108.83C311.924 121.354 267.242 120.98 212.886 107.643C150.058 92.2281 102.159 101.833 62.1461 137.871C33.1334 164.001 14.1302 199.756 -2.63753 231.302C-13.6858 252.087 -24.1216 271.72 -35.6085 284.604C-42.0837 291.868 -48.619 296.698 -55.4628 299.189" fill="#009C73"/>
<path d="M-60.3309 301.117C-67.014 303.549 -74.0104 303.671 -81.565 301.565C-90.2276 299.153 -95.6648 295.433 -98.1874 290.195C-102.776 280.667 -97.217 267.576 -90.781 252.419C-82.9828 234.054 -74.1431 213.238 -82.066 194.122C-87.8526 180.159 -101.71 168.912 -124.427 159.749C-148.68 149.964 -180.124 156.3 -202.669 175.511C-219.99 190.272 -246.759 225.07 -231.435 292.293L-231.882 292.395C-237.918 265.917 -237.895 241.825 -231.816 220.786C-226.541 202.53 -216.563 186.755 -202.965 175.167C-191.718 165.532 -178.167 158.975 -163.633 156.135C-149.679 153.461 -136.062 154.564 -124.255 159.327C-101.418 168.54 -87.4797 179.865 -81.643 193.951C-73.6459 213.248 -82.5248 234.157 -90.3577 252.605C-96.751 267.661 -102.272 280.662 -97.7738 290.004C-95.3118 295.116 -89.9696 298.757 -81.4418 301.132C-49.2567 310.097 -31.699 276.698 -9.47574 234.414C7.70618 201.725 27.1812 164.67 58.0651 138.179C77.3855 121.604 98.2082 111.169 121.724 106.277C148.477 100.712 178.174 102.352 212.514 111.29C285.869 130.094 341.389 124.562 377.543 94.8477C431.524 50.4804 426.823 -33.2503 425.279 -60.7634C425.156 -62.964 425.057 -64.7012 425.018 -65.9893L425.476 -66.0027C425.515 -64.7251 425.614 -62.9905 425.735 -60.7933C426.479 -47.5363 428.027 -19.9502 422.645 10.2276C415.969 47.6585 400.893 76.2489 377.832 95.1988C367.975 103.242 356.816 109.541 344.836 113.826C310.715 126.245 266.373 125.57 212.399 111.73C148.122 94.9971 99.177 103.51 58.3659 138.523C27.5484 164.957 8.09566 201.97 -9.06764 234.623C-20.3546 256.097 -30.1032 274.644 -41.3692 287.244C-47.5383 294.141 -53.7854 298.742 -60.3266 301.123" fill="#009C73"/>
<path d="M-65.1572 303.054C-71.6289 305.41 -78.7271 305.629 -86.7607 303.184C-95.2818 300.59 -100.589 296.724 -102.985 291.355C-107.531 281.182 -101.085 267.305 -93.6229 251.233C-84.6837 231.986 -74.5512 210.17 -82.4467 190.538C-88.0708 176.548 -102 165.392 -125.025 156.43C-149.392 146.946 -181.056 153.731 -203.817 173.321C-221.085 188.181 -247.831 222.969 -232.963 288.963L-233.425 289.068C-239.283 263.063 -239.143 239.31 -233.007 218.467C-227.972 200.831 -217.942 185.027 -204.127 172.962C-192.792 163.154 -179.142 156.4 -164.469 153.338C-150.404 150.461 -136.703 151.377 -124.855 155.988C-101.703 165 -87.6859 176.243 -82.0099 190.361C-74.0377 210.183 -84.2166 232.097 -93.197 251.432C-100.612 267.397 -107.015 281.185 -102.558 291.16C-100.219 296.393 -95.0075 300.177 -86.6245 302.728C-54.7266 312.436 -37.5782 279.412 -15.8693 237.601C1.67245 203.819 21.5542 165.531 54.2789 138.796C73.8491 122.808 95.0562 112.909 119.114 108.533C146.506 103.551 176.899 105.78 212.028 115.351C284.855 134.945 339.963 129.846 375.822 100.194C412.75 69.6549 428.515 14.255 422.679 -64.4677C422.484 -67.1006 422.33 -69.1805 422.29 -70.4834L422.764 -70.4973C422.802 -69.2045 422.956 -67.1291 423.152 -64.5024C424.191 -50.4727 426.356 -21.2806 421.334 10.823C415.092 50.7199 399.882 80.9119 376.124 100.559C340.142 130.32 284.889 135.447 211.905 115.813C146.037 97.8705 96.0498 105.289 54.5814 139.168C21.9357 165.842 2.0751 204.083 -15.4463 237.824C-31.8286 269.374 -45.6283 295.944 -65.1572 303.054Z" fill="#009C73"/>
<path d="M-70.1078 304.996C-76.6218 307.367 -83.7949 307.494 -91.9555 304.802C-100.348 302.035 -105.537 298.02 -107.821 292.525C-112.325 281.688 -104.965 266.997 -96.4424 249.986C-86.3581 229.856 -74.9281 207.038 -82.8136 186.928C-88.3019 172.931 -102.306 161.873 -125.625 153.122C-150.107 143.934 -181.997 151.179 -204.978 171.149C-222.189 186.103 -248.909 220.865 -234.49 285.652L-234.967 285.759C-240.649 260.226 -240.392 236.812 -234.205 216.166C-229.065 198.603 -219.04 182.863 -205.299 170.778C-182.186 150.695 -150.098 143.414 -125.453 152.664C-101.997 161.466 -87.9002 172.617 -82.3586 186.749C-74.3924 207.065 -85.8753 229.984 -96.0065 250.204C-104.123 266.404 -111.79 281.702 -107.372 292.332C-105.147 297.687 -100.057 301.613 -91.8055 304.332C-60.1687 314.763 -43.4166 282.078 -22.2072 240.695C-4.34 205.834 15.9113 166.321 50.4948 139.422C69.6369 124.304 92.3883 114.435 116.506 110.788C144.534 106.394 175.621 109.218 211.545 119.42C284.079 139.816 338.906 135.106 374.502 105.413C412.607 73.6328 427.938 15.0458 420.071 -68.718C419.794 -71.6619 419.595 -73.7903 419.559 -74.9711L420.047 -74.9857C420.082 -73.8206 420.285 -71.701 420.557 -68.7642C421.832 -55.181 424.822 -23.3604 420.271 10.8097C414.598 53.4078 399.306 85.3634 374.813 105.785C365.268 113.698 354.414 119.884 342.741 124.065C309.013 136.341 265.036 134.967 211.41 119.887C144.866 100.987 92.3269 107.504 50.7925 139.804C16.2888 166.636 -3.93455 206.097 -21.7762 240.912C-37.6615 271.906 -51.0607 298.047 -70.1145 304.983" fill="#009C73"/>
<path d="M-75.0814 306.941C-81.6302 309.325 -88.8713 309.358 -97.1529 306.42C-105.434 303.481 -110.509 299.324 -112.686 293.702C-117.148 282.181 -108.446 265.905 -99.2318 248.673C-87.9988 227.664 -75.2683 203.852 -83.1615 183.285C-88.5319 169.293 -102.618 158.343 -126.224 149.81C-150.824 140.916 -182.945 148.621 -206.152 168.98C-223.303 184.024 -249.987 218.763 -236.018 282.336L-236.51 282.444C-242.014 257.382 -241.646 234.308 -235.407 213.861C-230.167 196.377 -220.151 180.702 -206.486 168.6C-183.146 148.125 -150.823 140.382 -126.055 149.335C-102.303 157.921 -88.1195 168.968 -82.69 183.104C-74.714 203.887 -87.5033 227.806 -98.7868 248.91C-107.944 266.037 -116.594 282.214 -112.215 293.519C-110.094 298.996 -105.11 303.065 -96.9834 305.944C-65.5807 317.08 -49.2174 284.698 -28.4932 243.698C-19.8008 226.501 -9.94834 207.009 2.07738 188.859C15.8667 168.047 30.469 152.085 46.7177 140.061C66.3875 125.374 89.5435 116.063 113.906 113.045C142.166 109.299 174.856 112.816 211.069 123.501C283.491 144.71 338.146 140.345 373.527 110.534C400.588 87.7326 430.175 37.3032 417.447 -73.4573C417.1 -76.4809 416.87 -78.4777 416.841 -79.4485L417.344 -79.4635C417.37 -78.5152 417.614 -76.4168 417.949 -73.5112C419.575 -59.3495 423.387 -26.1861 419.414 10.1956C414.44 55.7503 399.111 89.6397 373.853 110.923C364.413 118.833 353.647 125.008 342.054 129.162C308.447 141.394 264.541 139.686 210.929 123.987C142.79 103.88 89.176 109.273 47.0192 140.469C10.6497 167.382 -9.90507 208.049 -28.0412 243.928C-43.4522 274.419 -56.4689 300.17 -75.0776 306.943" fill="#009C73"/>
<path d="M-80.073 308.89C-86.6508 311.284 -93.9509 311.223 -102.35 308.038C-110.518 304.939 -115.5 300.636 -117.578 294.885C-121.995 282.658 -112.277 265.484 -101.989 247.298C-89.6094 225.414 -75.577 200.609 -83.493 179.617C-88.7614 165.643 -102.937 154.807 -126.82 146.496C-151.543 137.896 -183.9 146.063 -207.337 166.819C-224.423 181.95 -251.068 216.648 -237.543 279.016L-238.05 279.126C-243.382 254.536 -242.899 231.803 -236.611 211.559C-231.273 194.155 -221.266 178.546 -207.679 166.429C-184.105 145.553 -151.541 137.345 -126.648 146.005C-102.606 154.368 -88.3306 165.303 -83.0013 179.433C-75.0059 200.649 -89.0996 225.572 -101.537 247.552C-111.765 265.631 -121.425 282.707 -117.09 294.706C-115.066 300.306 -110.184 304.508 -102.165 307.549C-87.8422 312.984 -75.8637 309.619 -64.4765 296.963C-54.0463 285.371 -45.0984 267.405 -34.7364 246.602C-25.939 228.939 -15.9674 208.921 -3.58575 190.31C10.6292 168.948 25.8455 152.717 42.9335 140.696C85.8357 110.501 140.676 106.212 210.587 127.579C283.049 149.601 337.636 145.555 372.828 115.549C398.799 93.4077 414.055 57.5016 418.171 8.82851C421.443 -29.8756 416.585 -65.3271 414.755 -78.6734C414.381 -81.4103 414.132 -83.2234 414.11 -83.9349L414.629 -83.9504C414.649 -83.267 414.894 -81.4673 415.269 -78.7434C417.101 -65.382 421.966 -29.8874 418.687 8.87169C414.559 57.6853 399.243 93.7091 373.162 115.943C363.802 123.884 353.087 130.073 341.532 134.214C308.007 146.416 264.105 144.383 210.43 128.068C140.682 106.751 85.9934 111.017 43.2267 141.113C4.97082 168.036 -16.7914 211.727 -34.2773 246.834C-49.2375 276.862 -61.8904 302.264 -80.0781 308.887" fill="#009C73"/>
<path d="M-85.0401 310.862C-91.9732 313.385 -99.3672 312.955 -107.544 309.655C-115.616 306.397 -120.505 301.954 -122.491 296.072C-126.86 283.128 -116.1 265.028 -104.71 245.862C-91.1846 223.107 -75.8534 197.315 -83.8042 175.926C-88.9895 161.972 -103.258 151.262 -127.42 143.181C-152.267 134.872 -184.867 143.505 -208.539 164.666C-225.556 179.878 -252.153 214.53 -239.068 275.704L-239.59 275.816C-244.751 251.696 -244.155 229.302 -237.823 209.259C-232.391 191.94 -222.398 176.403 -208.894 164.275C-185.083 142.992 -152.272 134.314 -127.25 142.682C-102.925 150.816 -88.5492 161.632 -83.303 175.745C-75.2634 197.372 -90.6639 223.28 -104.251 246.14C-115.577 265.195 -126.274 283.192 -121.984 295.906C-120.052 301.632 -115.262 305.968 -107.344 309.165C-93.1045 314.911 -81.2679 311.805 -70.0933 299.381C-59.8418 287.988 -51.0788 270.119 -40.9319 249.43C-23.1961 213.269 -1.12298 168.266 39.153 141.326C82.6524 112.228 138.573 109.065 210.107 131.653C282.759 154.513 337.364 150.751 372.404 120.469C427.795 72.5977 420.978 -28.4039 411.984 -84.3488C411.62 -86.6128 411.4 -87.9791 411.387 -88.4159L411.921 -88.4324C411.933 -88.0303 412.162 -86.5994 412.511 -84.4341C414.488 -72.1326 420.503 -34.6983 418.067 6.65173C416.686 30.0769 412.789 51.0208 406.484 68.9024C398.808 90.6761 387.459 108.16 372.753 120.873C337.564 151.284 282.788 155.081 209.947 132.161C138.577 109.625 82.8073 112.768 39.4504 141.769C-0.706535 168.629 -22.7458 213.562 -40.4507 249.664C-50.6148 270.391 -59.3942 288.288 -69.6954 299.738C-74.6323 305.225 -79.6994 308.922 -85.0388 310.865" fill="#009C73"/>
<path d="M-90.0482 312.806C-97.0076 315.339 -104.459 314.801 -112.74 311.275C-120.721 307.852 -125.522 303.263 -127.418 297.242C-131.73 283.548 -119.902 264.502 -107.38 244.34C-99.8386 232.194 -92.0387 219.635 -87.0945 207.328C-81.5057 193.419 -80.5246 181.937 -84.0932 172.226C-89.2102 158.305 -103.578 147.722 -128.018 139.875C-152.995 131.856 -185.842 140.962 -209.754 162.532C-226.7 177.819 -253.242 212.414 -240.596 272.389L-241.133 272.502C-246.124 248.851 -245.416 226.798 -239.044 206.96C-233.521 189.728 -223.544 174.26 -210.124 162.122C-198.309 151.406 -184.131 143.632 -168.743 139.433C-154.267 135.561 -139.745 135.531 -127.851 139.349C-103.239 147.251 -88.7576 157.943 -83.5777 172.034C-79.9596 181.878 -80.9435 193.49 -86.5843 207.531C-91.5463 219.882 -99.3589 232.462 -106.914 244.627C-119.366 264.681 -131.129 283.622 -126.893 297.076C-125.05 302.934 -120.349 307.412 -112.524 310.767C-98.3563 316.802 -86.6463 313.928 -75.6746 301.718C-65.5938 290.505 -57.0119 272.723 -47.0752 252.135C-29.1461 214.988 -6.83258 168.756 35.3687 141.945C56.1519 128.741 79.2898 121.474 106.102 119.731C136.193 117.773 171.022 123.151 209.624 135.715C282.641 159.439 337.363 155.908 372.272 125.223C400.15 100.718 415.18 59.5619 416.944 2.89859C417.572 -17.2609 416.717 -49.8392 409.078 -90.5242C408.785 -92.0821 408.666 -92.722 408.661 -92.9L409.21 -92.9169C409.215 -92.7737 409.384 -91.8732 409.619 -90.6254C417.266 -49.8903 418.121 -17.2693 417.489 2.9245C416.704 28.1527 413.189 50.6837 407.042 69.8912C399.507 93.4387 387.929 112.197 372.635 125.642C363.34 133.783 352.596 140.103 340.965 144.274C307.498 156.455 263.462 153.792 209.455 136.245C136.448 112.481 79.6001 114.502 35.6644 142.416C-6.40538 169.143 -28.6805 215.296 -46.5817 252.377C-56.5367 273.003 -65.1345 290.817 -75.2682 302.086C-80.0131 307.364 -84.8976 310.926 -90.0505 312.802" fill="#009C73"/>
<path d="M-95.061 314.787C-102.044 317.328 -109.554 316.67 -117.937 312.89C-125.843 309.325 -130.568 304.605 -132.382 298.46C-136.642 284.027 -123.722 264.022 -110.047 242.833C-101.902 230.216 -93.4805 217.17 -88.086 204.475C-81.9968 190.137 -80.7856 178.369 -84.3806 168.504C-89.4403 154.617 -103.91 144.17 -128.615 136.564C-153.726 128.829 -186.827 138.411 -210.984 160.4C-227.85 175.755 -254.334 210.294 -242.124 269.071L-242.677 269.185C-247.492 246.001 -246.682 224.291 -240.271 204.66C-234.935 188.422 -225.707 173.737 -213.393 161.884C-201.078 150.031 -186.051 141.371 -169.622 136.66C-155.014 132.572 -140.392 132.345 -128.451 136.022C-103.565 143.683 -88.9766 154.245 -83.8516 168.308C-80.2074 178.321 -81.4194 190.221 -87.5685 204.693C-92.9821 217.431 -101.418 230.499 -109.574 243.137C-123.178 264.21 -136.027 284.114 -131.841 298.299C-130.076 304.28 -125.452 308.885 -117.705 312.378C-103.613 318.732 -92.0309 316.101 -81.2525 304.099C-71.3369 293.058 -62.9291 275.342 -53.1921 254.831C-36.3211 219.285 -15.3232 175.046 23.5851 147.793C44.9404 132.836 69.0793 124.504 97.3803 122.318C129.507 119.841 167.109 125.72 209.143 139.792C283.17 164.575 338.331 161.021 373.092 129.228C409.906 95.5588 416.881 35.7642 416.249 -8.46833C415.705 -38.3527 412.254 -68.1132 405.944 -97.3289L406.494 -97.4597C412.813 -68.2036 416.269 -38.402 416.814 -8.47619C417.217 19.7343 414.532 44.9645 408.831 66.5115C401.7 93.4683 389.805 114.71 373.474 129.645C364.007 138.279 352.923 144.951 340.861 149.275C307.383 161.46 263.217 158.486 208.965 140.328C129.861 113.847 69.3287 116.438 23.9083 148.251C-14.8781 175.419 -35.8403 219.583 -52.6832 255.068C-62.4418 275.622 -70.8633 293.371 -80.8326 304.475C-85.3913 309.552 -90.0925 312.979 -95.0635 314.789" fill="#009C73"/>
</g>
</g>
</g>
<defs>
<clipPath id="clip0_807_2">
<rect width="375" height="284" fill="white"/>
</clipPath>
<clipPath id="clip1_807_2">
<rect width="375" height="471" fill="white" transform="translate(0 -8)"/>
</clipPath>
</defs>
</svg>
