<svg width="419" height="557" viewBox="0 0 419 557" fill="none" xmlns="http://www.w3.org/2000/svg">
<path d="M5.34997 547.83C0.628969 538.714 0.314969 528.341 0.314969 518.6C-0.314031 379.031 0.314969 239.153 -3.05176e-05 99.589V94.874C-3.05176e-05 92.045 1.25797 91.102 4.09097 91.731L13.53 94.56C20.139 96.76 26.43 98.96 33.04 100.847C38.704 102.417 44.368 104.618 50.031 106.504C55.381 108.389 60.731 109.647 66.079 111.533C69.856 112.791 73.946 113.733 77.723 115.304C80.0889 116.181 82.5053 116.916 84.959 117.504C90.623 119.39 96.287 120.961 101.636 122.847L118.629 128.506C124.292 130.392 129.642 131.649 135.305 133.848C138.766 135.106 142.858 135.735 146.319 137.621C148.67 138.541 151.089 139.277 153.555 139.821C159.535 141.394 165.199 143.593 170.862 145.165C176.527 147.051 182.19 148.623 187.54 150.822C190.371 151.766 193.519 152.709 196.35 153.652C200.125 154.909 204.217 155.852 207.992 157.423C210.567 158.404 213.193 159.244 215.859 159.939C223.726 162.139 231.593 164.969 239.459 167.483C245.123 169.369 251.102 171.256 256.765 173.141C262.115 175.027 267.465 176.599 272.499 178.171C278.478 180.056 284.456 182.256 290.435 184.142C295.155 185.714 299.875 186.972 304.595 188.542C305.854 188.858 306.795 188.542 307.112 187.287L315.612 162.768C317.501 157.423 319.073 152.08 320.962 147.051C322.85 141.708 325.053 136.363 326.626 131.019C328.199 125.675 330.403 120.647 331.976 115.619C333.548 110.276 335.751 105.246 337.64 100.219C338.583 98.019 338.897 95.819 339.84 93.932C341.728 89.217 343.302 84.189 345.504 79.158C348.022 73.187 350.539 66.899 353.057 60.928C355.574 55.583 357.777 50.24 360.295 44.895C364.525 35.7551 369.581 27.0205 375.4 18.8C379.507 13.025 384.498 7.93323 390.19 3.712C392.7 2.145 395.219 0.573 398.367 0.258C399.243 0.0955512 400.132 0.00922923 401.023 0L401.204 0C406.532 0.035 410.148 3.227 412.841 7.8C415.987 13.143 417.246 18.8 417.876 25.087C419.134 34.203 418.819 43.005 418.819 52.121C418.19 117.816 418.19 183.512 418.19 249.208V462.331C417.876 465.475 417.246 466.103 414.1 465.475C404.975 462.96 396.164 459.816 387.354 456.987C381.689 455.101 375.711 453.215 370.047 451.329C364.382 449.758 359.034 447.557 353.369 445.671C350.223 444.73 346.761 443.786 343.615 442.529C339.839 440.958 336.062 440.329 332.603 438.756C330.085 437.813 327.253 437.184 324.736 436.241C319.071 434.67 313.723 432.783 308.059 430.897C302.395 429.011 296.416 427.438 290.752 425.24C285.402 423.04 279.425 421.781 274.075 419.896C270.613 418.639 267.152 418.011 264.006 416.438C261.488 415.181 258.656 414.866 255.824 413.923C249.216 411.408 242.293 409.523 235.685 407.323C228.134 404.808 219.952 402.607 212.401 400.092C206.422 397.892 200.444 396.321 194.465 394.12C189.115 392.235 183.765 390.662 178.417 389.092C172.437 387.205 166.775 385.32 160.796 383.433C155.446 381.547 150.411 379.977 145.062 378.404C141.286 377.462 137.824 376.204 134.049 374.946C131.217 374.004 128.071 373.376 125.239 372.117C121.462 370.546 117.686 369.917 113.911 368.659C112.338 368.031 111.711 368.659 111.394 369.916C109.194 375.888 107.303 381.546 105.1 387.516C102.583 395.061 100.066 402.605 97.549 410.148C95.661 415.491 93.774 421.148 91.884 426.494C90.311 431.208 88.738 436.238 86.849 440.954C84.961 446.296 83.073 451.954 80.871 457.299C78.982 461.699 77.409 466.099 75.836 470.814C73.948 475.845 71.746 480.873 69.858 485.903C68.283 489.99 66.396 493.762 64.823 497.849C62.3056 503.822 59.4723 509.794 56.323 515.765C54.123 520.48 51.603 524.881 49.085 529.281C43.736 538.711 37.128 547.198 28.002 553.481C25.3388 555.456 22.18 556.653 18.877 556.94C18.477 556.976 18.0883 556.994 17.711 556.994C11.46 557 7.42697 552.275 5.34997 547.83Z" fill="#F1F1F1"/>
</svg>
