<svg width="98" height="20" viewBox="0 0 98 20" fill="none" xmlns="http://www.w3.org/2000/svg">
<path d="M39.632 17.6129H36.083L30.317 8.29795C29.966 7.76495 29.565 7.68095 29.43 7.41095C29.484 7.92395 29.43 8.57595 29.43 9.62895V17.6129H26.33V2.97495H29.873L35.639 11.8459C35.902 12.2459 36.303 12.7849 36.526 13.1769C36.472 12.8389 36.526 11.9519 36.526 10.9589V2.97495H39.626L39.632 17.6129ZM48.951 18.0569C48.0255 18.0585 47.1106 17.8613 46.268 17.4787C45.4253 17.096 44.6748 16.5368 44.067 15.8389C42.653 14.4278 41.8561 12.5136 41.851 10.5159C41.8435 9.52511 42.0361 8.54295 42.4173 7.62831C42.7984 6.71367 43.3602 5.88535 44.069 5.19295C44.7499 4.46915 45.5761 3.8974 46.4935 3.51516C47.4108 3.13293 48.3985 2.94884 49.392 2.97495C50.2857 2.89294 51.1865 3.00944 52.0299 3.31611C52.8734 3.62279 53.6386 4.11207 54.271 4.74895C54.9019 5.47551 55.3833 6.31941 55.6875 7.2323C55.9917 8.1452 56.1129 9.10916 56.044 10.0689C56.044 12.3509 55.597 14.4379 54.27 15.8349C53.5835 16.5507 52.7569 17.1174 51.8418 17.4997C50.9267 17.882 49.9426 18.0717 48.951 18.0569ZM48.951 5.63695C48.4317 5.62525 47.9175 5.74047 47.4529 5.97259C46.9883 6.20472 46.5874 6.54673 46.285 6.96895C45.6115 8.02414 45.3001 9.26999 45.398 10.5179C45.2895 11.6264 45.6066 12.7346 46.285 13.6179C46.595 14.0323 46.9975 14.3686 47.4602 14.6002C47.923 14.8317 48.4335 14.9522 48.951 14.9519C49.4674 14.9518 49.9766 14.8314 50.4385 14.6004C50.9003 14.3694 51.3021 14.034 51.612 13.6209C52.434 12.7947 52.91 11.686 52.943 10.5209C52.9047 9.22156 52.435 7.97188 51.608 6.96895C51.3028 6.55181 50.9026 6.2134 50.4405 5.98176C49.9784 5.75012 49.4678 5.63192 48.951 5.63695ZM58.705 17.6129V2.97495H64.028C65.2748 2.89018 66.5166 3.20055 67.577 3.86195C68.001 4.16137 68.3445 4.561 68.5767 5.02528C68.8089 5.48955 68.9227 6.00405 68.908 6.52295C68.8839 7.3439 68.5696 8.12975 68.021 8.74095C67.548 9.23011 66.9221 9.54304 66.247 9.62795C67.127 9.77791 67.9186 10.2529 68.465 10.9589C68.7598 11.2461 68.9911 11.592 69.1437 11.9743C69.2964 12.3566 69.367 12.7666 69.351 13.1779C69.3919 13.7633 69.2924 14.35 69.0609 14.8892C68.8294 15.4283 68.4726 15.9045 68.02 16.2779C66.8817 17.1675 65.4723 17.6388 64.028 17.6129H58.705ZM61.805 5.63695V8.73695H63.141C63.7645 8.78179 64.3861 8.62622 64.915 8.29295C65.0885 8.12169 65.2192 7.91189 65.2963 7.6806C65.3735 7.44932 65.3949 7.20309 65.359 6.96195C65.359 5.89495 64.735 5.63095 63.141 5.63095L61.805 5.63695ZM61.805 11.4029V15.3949H63.579C64.2555 15.3147 64.8828 15.001 65.353 14.5079C65.782 14.1569 66.24 13.7849 66.24 13.1769C66.2023 12.9025 66.1029 12.6401 65.9493 12.4096C65.7957 12.1791 65.5918 11.9864 65.353 11.8459C64.8273 11.5051 64.2032 11.3489 63.579 11.4019L61.805 11.4029ZM75.117 17.6129H72.017V2.97495H75.117V17.6129ZM87.093 17.6129H78.666V2.97495H81.766V14.9519H87.089L87.093 17.6129ZM97.739 17.6129H88.868V2.97495H92.417V14.9519H97.74L97.739 17.6129Z" fill="black"/>
<path d="M19.509 18.028V18.071C19.5018 18.096 19.4987 18.122 19.5 18.148C19.494 18.3708 19.4247 18.5872 19.3 18.772C19.1804 18.9877 19.0084 19.17 18.8 19.302C18.6759 19.3782 18.5442 19.4412 18.407 19.4899C18.2195 19.5525 18.0225 19.5816 17.825 19.5759H4.37998C4.11474 19.5723 3.85732 19.4856 3.64397 19.328C3.41148 19.1673 3.22083 18.9534 3.08797 18.704C2.97274 18.4884 2.91102 18.2483 2.90798 18.0039V4.77995C2.90863 4.75437 2.90042 4.72934 2.88475 4.70912C2.86908 4.68889 2.84691 4.67471 2.82198 4.66896C2.56415 4.59616 2.31015 4.51036 2.06098 4.41194C1.89165 4.34172 1.73543 4.24335 1.59897 4.12095C1.41097 3.95882 1.25699 3.761 1.14597 3.53895C1.05175 3.3472 1.00217 3.1366 1.00096 2.92295C0.991963 2.74295 1.00998 2.56395 1.01798 2.38395C1.02631 2.30344 1.04935 2.22515 1.08597 2.15296C1.16178 1.93465 1.28131 1.73405 1.43726 1.56349C1.5932 1.39292 1.7823 1.25598 1.99297 1.16096C2.18944 1.07085 2.40114 1.01858 2.61698 1.00694C2.91698 0.997938 3.21697 0.997935 3.52397 0.997935H15.95C16.114 0.989492 16.2783 1.00672 16.437 1.04896C16.7225 1.1411 16.9789 1.30622 17.181 1.52796C17.3062 1.66405 17.4076 1.82021 17.481 1.98994C17.5147 2.07074 17.5435 2.15359 17.567 2.23796C17.6051 2.43222 17.6222 2.63002 17.618 2.82795V15.751C17.618 15.956 17.618 15.9559 17.806 16.0249C17.943 16.0759 18.088 16.1189 18.225 16.1619C18.6843 16.2951 19.0738 16.6017 19.311 17.0169C19.3891 17.1531 19.4467 17.3 19.482 17.453C19.4953 17.5408 19.5039 17.6292 19.508 17.7179C19.5069 17.73 19.5101 17.742 19.517 17.752V17.778C19.4925 17.8592 19.4897 17.9454 19.509 18.028Z" fill="#009C73"/>
<path d="M15.96 9.53694V15.337C15.951 15.423 15.934 15.437 15.849 15.423C15.601 15.355 15.362 15.2689 15.122 15.1919L14.652 15.038C14.498 14.995 14.352 14.938 14.199 14.884C14.113 14.858 14.019 14.833 13.934 14.798C13.834 14.755 13.729 14.738 13.634 14.698C13.566 14.672 13.489 14.655 13.42 14.63C13.266 14.587 13.12 14.5359 12.967 14.4849C12.814 14.4339 12.651 14.391 12.497 14.331C12.343 14.271 12.189 14.237 12.044 14.186C11.951 14.1598 11.8595 14.1284 11.77 14.092C11.6976 14.0642 11.6234 14.0415 11.548 14.0239C11.368 13.9559 11.18 13.904 11.001 13.844C10.796 13.776 10.573 13.716 10.368 13.644C10.206 13.584 10.043 13.544 9.88097 13.482C9.73597 13.431 9.58998 13.388 9.44498 13.345L8.96597 13.191C8.82097 13.14 8.68396 13.0969 8.53796 13.0539C8.43796 13.0279 8.33798 12.9939 8.23798 12.9599C8.16098 12.9339 8.07496 12.917 7.99896 12.883C7.89896 12.84 7.79396 12.823 7.69096 12.789C7.64796 12.772 7.63097 12.789 7.62297 12.823C7.56297 12.985 7.51197 13.139 7.45197 13.302L7.24696 13.918C7.19596 14.063 7.14697 14.218 7.09297 14.363C7.04997 14.491 7.00696 14.628 6.95596 14.756C6.90496 14.901 6.85598 15.0559 6.79398 15.2009C6.74298 15.3209 6.69997 15.441 6.65697 15.569C6.61397 15.697 6.54596 15.843 6.49496 15.98C6.45196 16.091 6.40097 16.1939 6.35797 16.3049C6.2913 16.4676 6.2143 16.6299 6.12697 16.7919C6.06697 16.9199 5.99897 17.04 5.92697 17.16C5.78895 17.4206 5.59291 17.6461 5.35397 17.819C5.28159 17.8726 5.19574 17.9052 5.10597 17.913C5.02629 17.9158 4.94774 17.8934 4.88162 17.8488C4.8155 17.8043 4.76521 17.7399 4.73798 17.665C4.62839 17.4133 4.58137 17.1388 4.60097 16.8649C4.58397 13.0649 4.60096 9.26495 4.59196 5.46495V5.33696C4.59196 5.25996 4.62597 5.23696 4.70297 5.25096L4.95998 5.32796C5.13998 5.38796 5.31097 5.44795 5.48997 5.49895C5.64398 5.54195 5.79797 5.59894 5.95197 5.65294C6.10597 5.70694 6.24297 5.73797 6.38797 5.78997C6.48797 5.82397 6.60196 5.84997 6.70396 5.88997C6.76936 5.91399 6.83616 5.93402 6.90398 5.94997C7.05798 6.00097 7.21196 6.04396 7.35696 6.09496L7.81897 6.24895C7.97297 6.29995 8.11897 6.33497 8.27197 6.39397C8.37437 6.41961 8.47467 6.45302 8.57198 6.49394C8.63696 6.51919 8.70383 6.53925 8.77197 6.55394C8.93497 6.59694 9.08797 6.65396 9.24197 6.69896C9.39597 6.74396 9.54998 6.79295 9.69498 6.85295L9.93398 6.92995C10.034 6.96395 10.148 6.98996 10.25 7.02996C10.32 7.05652 10.3914 7.07922 10.464 7.09795C10.678 7.15795 10.892 7.23497 11.105 7.30297L11.575 7.45696C11.72 7.50796 11.866 7.55095 12.003 7.59395C12.166 7.64495 12.328 7.70495 12.491 7.75695C12.619 7.79995 12.748 7.83397 12.876 7.87697C12.91 7.88597 12.936 7.87694 12.944 7.84294L13.175 7.17595C13.226 7.03095 13.269 6.88494 13.32 6.74794C13.371 6.61094 13.431 6.45697 13.474 6.31197C13.517 6.16697 13.574 6.02996 13.619 5.89296C13.664 5.75596 13.719 5.61096 13.773 5.47396C13.799 5.41396 13.807 5.35397 13.833 5.30297C13.884 5.17497 13.927 5.03794 13.987 4.90294C14.055 4.74094 14.124 4.56894 14.192 4.40294C14.26 4.25794 14.32 4.11197 14.392 3.96697C14.5071 3.7183 14.6447 3.48063 14.803 3.25695C14.9139 3.09983 15.0489 2.96115 15.203 2.84597C15.2685 2.79758 15.3446 2.76537 15.425 2.75197C15.504 2.73667 15.5859 2.74861 15.6573 2.78585C15.7286 2.82308 15.7853 2.88339 15.818 2.95696C15.898 3.10149 15.9448 3.26205 15.955 3.42696C15.9807 3.67106 15.9894 3.91664 15.981 4.16194C15.96 5.95994 15.96 7.74794 15.96 9.53694Z" fill="white"/>
</svg>
