<svg width="21" height="18" viewBox="0 0 21 18" fill="none" xmlns="http://www.w3.org/2000/svg">
<path d="M20.758 2.99327C19.9799 3.33759 19.1548 3.56395 18.31 3.66514C19.2007 3.13396 19.8673 2.2964 20.185 1.30919C19.3505 1.80481 18.4373 2.15384 17.485 2.34117C16.8434 1.65745 15.9941 1.20429 15.0689 1.05211C14.1437 0.899925 13.1942 1.05719 12.3673 1.49937C11.5405 1.94155 10.8825 2.64415 10.4954 3.49815C10.1083 4.35215 10.0136 5.30998 10.226 6.22325C8.53215 6.13958 6.87485 5.70029 5.36197 4.93394C3.84909 4.1676 2.51452 3.09137 1.44498 1.77525C0.903615 2.71386 0.738551 3.82271 0.983185 4.87828C1.22782 5.93384 1.86392 6.85748 2.76297 7.46226C2.08769 7.43926 1.4274 7.25675 0.835968 6.93003V6.98204C0.836194 7.9658 1.17676 8.91934 1.79996 9.68052C2.42316 10.4417 3.29055 10.9637 4.25491 11.1581C3.8877 11.2568 3.50919 11.3074 3.12894 11.3082C2.86034 11.3088 2.59243 11.2825 2.32901 11.2301C2.60023 12.0765 3.12947 12.817 3.84268 13.3475C4.55589 13.878 5.41723 14.1718 6.30594 14.1881C4.7977 15.3725 2.9347 16.0146 1.017 16.0111C0.677776 16.0122 0.338789 15.9927 0.00198364 15.9523C1.83249 17.123 3.94416 17.7798 6.11575 17.8541C8.28735 17.9284 10.4389 17.4173 12.3451 16.3744C14.2514 15.3315 15.8421 13.7952 16.9506 11.9264C18.0591 10.0575 18.6447 7.92492 18.6459 5.75206C18.6459 5.56606 18.6399 5.38608 18.6349 5.19908C19.4685 4.59632 20.1876 3.84939 20.758 2.99327Z" fill="#009C73"/>
</svg>
